<svg width="12" height="12" viewBox="0 0 12 12" fill="none" xmlns="http://www.w3.org/2000/svg">
<path d="M10.25 6.75V5.25C10.25 3.37071 10.25 2.43107 9.7236 1.80373C9.6394 1.70339 9.5466 1.61059 9.44625 1.5264C8.81895 1 7.8793 1 6 1C4.12071 1 3.18107 1 2.55373 1.5264C2.45339 1.61059 2.3606 1.70339 2.2764 1.80373C1.75 2.43107 1.75 3.37071 1.75 5.25V6.75C1.75 8.6293 1.75 9.56895 2.2764 10.1962C2.3606 10.2966 2.45339 10.3894 2.55373 10.4736C3.18107 11 4.12071 11 6 11C7.8793 11 8.81895 11 9.44625 10.4736C9.5466 10.3894 9.6394 10.2966 9.7236 10.1962C10.25 9.56895 10.25 8.6293 10.25 6.75Z" stroke="#13519C" stroke-width="0.5" stroke-linecap="round"/>
<path d="M7.75 7.5C7.75 8.4665 6.9665 9.25 6 9.25C5.0335 9.25 4.25 8.4665 4.25 7.5C4.25 6.5335 5.0335 5.75 6 5.75C6.9665 5.75 7.75 6.5335 7.75 7.5Z" stroke="#13519C" stroke-width="0.5"/>
<path d="M6.75 3.5C6.75 3.91421 6.4142 4.25 6 4.25C5.5858 4.25 5.25 3.91421 5.25 3.5C5.25 3.08579 5.5858 2.75 6 2.75C6.4142 2.75 6.75 3.08579 6.75 3.5Z" stroke="#13519C" stroke-width="0.5"/>
</svg>
