<svg width="34" height="34" viewBox="0 0 34 34" fill="none" xmlns="http://www.w3.org/2000/svg">
<path opacity="0.6" d="M17.8335 20.7125L14.5726 18.8178L17.8335 20.7156C17.8428 20.7187 17.8521 20.7218 17.8614 20.7249C17.8521 20.7218 17.8428 20.7187 17.8335 20.7125ZM17.8335 20.7125L14.5726 18.8178L17.8335 20.7156C17.8428 20.7187 17.8521 20.7218 17.8614 20.7249C17.8521 20.7218 17.8428 20.7187 17.8335 20.7125ZM30.0303 17.3002L24.3677 14.03V16.0638L25.125 16.5027C25.2239 16.5584 25.2734 16.6356 25.2734 16.7098V17.3373C25.2734 17.4145 25.227 17.4918 25.125 17.5474L18.5599 21.3369C18.359 21.4543 18.0314 21.4543 17.8366 21.3369L11.3148 17.5474C11.2159 17.4918 11.1634 17.4145 11.1634 17.3373L11.1603 16.716C11.1603 16.6387 11.2097 16.5614 11.3117 16.5027L12.0845 16.0576V13.9465L6.50229 17.192C6.40028 17.2507 6.40028 17.3991 6.50229 17.4578L18.2446 24.2393C18.3405 24.2949 18.4579 24.2949 18.5537 24.2393L30.0303 17.566C30.1323 17.5072 30.1323 17.3589 30.0303 17.3002ZM17.8335 20.7125L14.5726 18.8178L17.8335 20.7156C17.8428 20.7187 17.8521 20.7218 17.8614 20.7249C17.8521 20.7218 17.8428 20.7187 17.8335 20.7125ZM17.8335 20.7125L14.5726 18.8178L17.8335 20.7156C17.8428 20.7187 17.8521 20.7218 17.8614 20.7249C17.8521 20.7218 17.8428 20.7187 17.8335 20.7125Z" fill="#2983D3" fill-opacity="0.4"/>
<path opacity="0.15" d="M25.125 17.6742L25.0168 17.6093L18.7377 21.2343C18.7088 21.2535 18.6786 21.27 18.6479 21.2861L18.5599 21.3369C18.461 21.3956 18.3374 21.4234 18.2107 21.4265V21.3937C17.9583 21.3934 17.7557 21.3169 17.6005 21.1951C17.5693 21.18 11.4454 17.6378 11.4143 17.615L11.3117 17.6742C11.1139 17.7885 11.1077 17.974 11.3086 18.0914L17.8335 21.884C18.0314 21.9983 18.3559 21.9983 18.5568 21.884L25.1219 18.0914C25.3197 17.9771 25.3228 17.7885 25.125 17.6742Z" fill="#13519C"/>
<path d="M31.8587 30.6245C31.8876 30.7038 31.8419 30.7782 31.7548 30.8285C31.6676 30.8788 31.539 30.905 31.4021 30.888L22.6375 29.8124C22.3442 29.7756 22.2353 29.5616 22.4513 29.4369L29.3827 25.435C29.5987 25.3103 29.9677 25.3741 30.0279 25.5456L31.8587 30.6245ZM26.9347 28.396L25.5179 29.214L26.9347 28.396ZM25.5179 29.214L30.0388 29.7703L29.0932 27.1498L27.623 27.9986" fill="#2983D3" fill-opacity="0.4"/>
<path d="M4.86572 13.3794C4.8684 13.3814 4.87004 13.3825 4.87264 13.3844C4.88138 13.3454 4.94952 13.3853 5.0048 13.4309C5.21449 13.4073 5.22322 13.3847 5.37516 13.2891C5.5642 13.1702 5.74855 13.0702 5.93948 12.9959C5.69093 12.4454 5.47753 12.0444 5.47753 12.0444C5.47753 12.0444 5.4753 12.0469 5.47443 12.0475C5.39371 12.1095 5.12206 12.2515 5.12206 12.2515L4.21045 12.7838C4.3676 12.9204 4.48421 13.0922 4.56902 13.2794C4.67818 13.293 4.78315 13.3186 4.86572 13.3794Z" fill="#2983D3" fill-opacity="0.4"/>
<path opacity="0.15" d="M31.8663 18.2645C31.8663 18.3325 31.8415 18.382 31.8013 18.4036L18.1797 26.27C18.0839 26.3256 17.9664 26.3256 17.8706 26.27L2.3017 17.2754C2.17808 17.2044 2.17808 17.0282 2.3017 16.9571L3.62772 16.1906C4.09752 16.9076 4.69716 17.5196 5.35243 17.8967L17.8737 25.1295H17.8768C18.0004 25.2005 18.0963 25.3705 18.0963 25.5096C18.0932 25.5807 18.0715 25.6271 18.0313 25.6518L31.5201 17.8102L31.6437 17.8813C31.7673 17.9524 31.8663 18.1254 31.8663 18.2645Z" fill="#13519C"/>
<path d="M18.3692 23.2985C18.3567 23.2985 18.344 23.2955 18.3325 23.2893C18.3312 23.2885 18.3297 23.2876 16.7247 22.3608C16.6878 22.3395 16.6751 22.2923 16.6965 22.2553C16.7179 22.2186 16.7653 22.2056 16.802 22.2271C16.802 22.2271 18.1247 22.9909 18.369 23.1319L19.8952 22.245C19.9319 22.2236 19.9794 22.2358 20.0008 22.2731C20.0223 22.3099 20.0097 22.3573 19.9728 22.3788L18.408 23.2881C18.3961 23.295 18.3826 23.2985 18.3692 23.2985ZM10.0384 18.48C10.0253 18.48 10.012 18.4766 9.99975 18.4695L8.1452 17.3983C8.12136 17.3846 8.10657 17.359 8.10657 17.3316C8.10657 17.304 8.12121 17.2785 8.14505 17.2646L9.95221 16.2141C9.98858 16.1927 10.0363 16.2049 10.0579 16.2422C10.0793 16.279 10.0668 16.3264 10.0298 16.3479L8.33793 17.3313L10.077 18.3358C10.114 18.3571 10.1267 18.4043 10.1052 18.4413C10.0911 18.4661 10.0649 18.48 10.0384 18.48ZM26.4952 18.6001C26.4686 18.6001 26.4427 18.5862 26.4284 18.5615C26.4069 18.5245 26.4196 18.4772 26.4566 18.456L28.1957 17.4514L26.5038 16.4681C26.4668 16.4467 26.4543 16.3993 26.4757 16.3625C26.4972 16.3254 26.5446 16.3132 26.5814 16.3344L28.3885 17.3847C28.4124 17.3986 28.427 17.4241 28.427 17.4517C28.427 17.4792 28.4122 17.5047 28.3884 17.5184L26.5338 18.5897C26.5216 18.5968 26.5083 18.6001 26.4952 18.6001Z" fill="#2983D3" fill-opacity="0.4"/>
<path d="M8.8513 7.85433L2.94458 11.2852C3.4144 11.0132 4.06349 11.0534 4.77749 11.4645C5.94277 12.1352 6.8824 13.7641 6.8793 15.0994C6.87621 15.6434 6.68148 16.0267 6.37239 16.206L12.0761 12.892V12.1385L10.5668 11.2605L15.2155 5.50834L19.8859 5.87923L20.538 6.25943C20.2629 5.14359 19.4778 3.99688 18.5475 3.46214C17.8366 3.04797 17.1875 3.01088 16.7146 3.28288L10.0568 7.15268" fill="#2983D3" fill-opacity="0.4"/>
<path d="M18.2276 20.7953C18.0857 20.8007 17.9412 20.7761 17.8335 20.7156L11.3086 16.92C11.2097 16.8643 11.1603 16.787 11.1603 16.7159L11.1634 17.3372C11.1634 17.4145 11.2159 17.4918 11.3148 17.5474L17.8366 21.3369C17.942 21.4004 18.0856 21.4265 18.2276 21.4213V20.7953Z" fill="#2983D3" fill-opacity="0.4"/>
<path d="M14.6247 26.6031C14.6256 26.2014 14.3448 26.0352 13.9967 26.2338C13.6495 26.4319 13.3662 26.9199 13.3652 27.3216C13.3643 27.7243 13.646 27.89 13.9932 27.692C14.3414 27.4934 14.6237 27.0059 14.6247 26.6031Z" fill="#2983D3" fill-opacity="0.4"/>
<path d="M6.19729 6.33269C6.4245 6.33269 6.60869 6.1485 6.60869 5.92129C6.60869 5.69408 6.4245 5.50989 6.19729 5.50989C5.97008 5.50989 5.78589 5.69408 5.78589 5.92129C5.78589 6.1485 5.97008 6.33269 6.19729 6.33269Z" fill="#2983D3" fill-opacity="0.4"/>
<path d="M17.0378 29.7577C16.7682 29.7577 16.549 29.5384 16.549 29.2688C16.549 28.9994 16.7682 28.7802 17.0378 28.7802C17.3119 28.7802 17.5265 28.9948 17.5265 29.2688C17.5265 29.5384 17.3072 29.7577 17.0378 29.7577ZM17.0378 28.9347C16.8535 28.9347 16.7035 29.0846 16.7035 29.2688C16.7035 29.4531 16.8535 29.6031 17.0378 29.6031C17.2221 29.6031 17.3719 29.4531 17.3719 29.2688C17.3719 29.0815 17.2251 28.9347 17.0378 28.9347Z" fill="#13519C"/>
<path d="M30.1008 25.52C30.0176 25.2837 29.5827 25.2305 29.3441 25.3681L26.0716 27.2575C26.0652 27.2473 26.061 27.2356 26.0499 27.2292L25.849 27.1133C25.8117 27.0917 25.7646 27.1044 25.7435 27.1415C25.7221 27.1785 25.7348 27.2257 25.7717 27.247L25.9308 27.3388L22.4126 29.37C22.1437 29.5254 22.2415 29.8406 22.6281 29.8892L31.3927 30.9647C31.6803 31.0008 32.0211 30.8456 31.9314 30.5981L30.1008 25.52ZM31.7161 30.7617C31.6381 30.8068 31.5245 30.8254 31.4116 30.8113L22.6472 29.7359C22.4702 29.7136 22.321 29.6015 22.4899 29.5037L22.9101 29.2611L23.0891 29.3644C23.1259 29.3858 23.1734 29.3732 23.1946 29.3362C23.216 29.2992 23.2033 29.252 23.1663 29.2307L23.0646 29.172L23.5117 28.9138L23.9693 29.1779C24.0061 29.1993 24.0536 29.1867 24.0747 29.1497C24.0962 29.1127 24.0835 29.0655 24.0465 29.0442L23.6661 28.8246L24.1133 28.5664L24.2922 28.6697C24.3291 28.6911 24.3765 28.6785 24.3977 28.6415C24.4192 28.6045 24.4065 28.5573 24.3695 28.536L24.2678 28.4773L24.7149 28.2192L25.1723 28.4833C25.2091 28.5047 25.2566 28.4921 25.2778 28.4551C25.2992 28.4181 25.2865 28.3709 25.2495 28.3496L24.8693 28.13L25.3163 27.8719L25.4952 27.9752C25.5321 27.9966 25.5795 27.9839 25.6007 27.947C25.6222 27.91 25.6095 27.8628 25.5725 27.8415L25.4708 27.7827L25.9179 27.5246L26.3754 27.7886C26.4123 27.81 26.4597 27.7974 26.4809 27.7604C26.5023 27.7234 26.4897 27.6762 26.4527 27.6549L26.0723 27.4354L26.5195 27.1772L26.6984 27.2805C26.7352 27.3019 26.7827 27.2892 26.8039 27.2523C26.8253 27.2153 26.8126 27.1681 26.7757 27.1468L26.674 27.0881L27.1211 26.8299L27.5786 27.0941C27.6154 27.1155 27.6629 27.1029 27.6841 27.0659C27.7055 27.0289 27.6928 26.9817 27.6559 26.9604L27.2755 26.7408L27.7226 26.4826L27.9016 26.5859C27.9384 26.6073 27.9859 26.5947 28.0071 26.5577C28.0285 26.5207 28.0158 26.4735 27.9788 26.4522L27.8771 26.3935L28.3241 26.1354L28.7816 26.3995C28.8184 26.4209 28.8659 26.4083 28.8871 26.3713C28.9085 26.3344 28.8958 26.2871 28.8589 26.2658L28.4785 26.0462L28.9256 25.7881L29.1046 25.8914C29.1414 25.9128 29.1889 25.9001 29.2101 25.8632C29.2315 25.8262 29.2188 25.779 29.1818 25.7577L29.0801 25.6989L29.4214 25.5019C29.6225 25.386 29.9187 25.4679 29.9552 25.5719L30.0757 25.9063L29.8664 26.0278C29.8295 26.0493 29.8169 26.0966 29.8384 26.1335C29.8598 26.1705 29.9073 26.1829 29.944 26.1615L30.129 26.0541L30.264 26.4286L29.698 26.7575C29.661 26.779 29.6485 26.8264 29.6699 26.8632C29.6914 26.9002 29.7388 26.9126 29.7756 26.8913L30.3173 26.5764L30.4523 26.9509L30.2465 27.0704C30.2095 27.0918 30.197 27.1392 30.2184 27.176C30.2398 27.2131 30.2873 27.2254 30.324 27.2041L30.5056 27.0987L30.6406 27.4732L30.0782 27.8001C30.0412 27.8215 30.0287 27.8689 30.0501 27.9058C30.0715 27.9428 30.119 27.9552 30.1558 27.9338L30.6938 27.621L30.8288 27.9955L30.6266 28.113C30.5897 28.1344 30.5771 28.1818 30.5986 28.2186C30.62 28.2556 30.6675 28.268 30.7042 28.2467L30.8821 28.1434L31.0171 28.5178L30.4582 28.8427C30.4212 28.8641 30.4087 28.9115 30.4301 28.9483C30.4516 28.9854 30.499 28.9977 30.5358 28.9764L31.0704 28.6657L31.2054 29.0401L31.0067 29.1557C30.9697 29.1773 30.9572 29.2245 30.9786 29.2614C31 29.2984 31.0475 29.3108 31.0842 29.2894L31.2587 29.188L31.3937 29.5624L30.8384 29.8853C30.8014 29.9067 30.7889 29.9541 30.8103 29.9909C30.8317 30.0279 30.8792 30.0403 30.916 30.019L31.447 29.7103L31.582 30.0848L31.3868 30.1983C31.3499 30.2199 31.3373 30.2671 31.3588 30.3039C31.3807 30.3414 31.4281 30.3531 31.4644 30.332L31.6353 30.2326L31.786 30.6508C31.8044 30.7013 31.7503 30.7419 31.7161 30.7617Z" fill="#13519C"/>
<path d="M29.166 27.1235C29.1492 27.0776 29.096 27.0592 29.0546 27.0829L27.5845 27.9317C27.5475 27.953 27.5349 28.0002 27.5563 28.0372C27.5774 28.074 27.6248 28.0867 27.6618 28.0654L29.0519 27.2628L29.9235 29.6782L25.7565 29.1655L26.9734 28.4629C27.0104 28.4416 27.0231 28.3944 27.0016 28.3574C26.9804 28.3203 26.9327 28.3075 26.8961 28.3292C26.7948 28.3877 25.3876 29.2 25.4767 29.1486C25.4177 29.186 25.4344 29.2776 25.5049 29.2901C25.5063 29.2903 25.5078 29.2906 25.5093 29.2907L30.0293 29.8469C30.0847 29.8548 30.1312 29.7991 30.1116 29.744L29.166 27.1235ZM31.6056 17.1923C31.7767 17.2906 31.8272 17.5454 31.7634 17.5794L23.5096 22.3775C23.4726 22.399 23.4601 22.4464 23.4815 22.4832C23.503 22.5203 23.5505 22.5325 23.5872 22.5113L25.6193 21.3299L25.7811 21.4234C25.818 21.4448 25.8654 21.4322 25.8866 21.3952C25.908 21.3582 25.8954 21.311 25.8584 21.2897L25.7732 21.2405L31.8386 17.7145C32.0504 17.6012 31.9197 17.1948 31.6827 17.0584L28.1153 14.9986C28.0788 14.9775 28.0311 14.99 28.0098 15.0268C27.9884 15.0638 28.0011 15.111 28.038 15.1323L31.6056 17.1923ZM22.4882 23.0259C22.4666 22.9888 22.4191 22.9766 22.3825 22.9978L18.1141 25.4805C18.1141 25.4792 18.114 25.4778 18.1138 25.4765C18.103 25.4455 18.1068 25.2321 17.8553 25.062C1.31932 15.5113 6.29096 18.3828 5.33032 17.828C3.24802 16.6001 2.30781 13.6748 2.76583 12.498C3.00492 11.7244 3.92503 11.4285 4.95612 12.2277C4.95028 12.2311 5.04396 12.1771 3.97427 12.7957C3.10598 13.2971 3.7996 15.4343 5.04673 16.1559C5.4582 16.3864 5.87957 16.4958 6.29927 16.2996C6.38452 16.2573 7.81192 15.4245 11.9494 13.0215V13.3531C11.9494 13.3958 11.9839 13.4304 12.0266 13.4304C12.0693 13.4304 12.1039 13.3958 12.1039 13.3531V12.2772L16.5098 14.8386C16.5354 14.8534 16.5659 14.8515 16.5881 14.8385L18.0635 13.9866L18.0782 20.034L12.1039 16.5632V14.1041C12.1039 14.0614 12.0693 14.0268 12.0266 14.0268C11.9839 14.0268 11.9494 14.0614 11.9494 14.1041V16.0129L11.2154 16.4357C11.0927 16.5063 11.0251 16.6058 11.0251 16.716C11.0251 16.7167 11.0251 16.7176 11.0251 16.7184L11.0281 17.3372C11.0281 17.4452 11.0977 17.5463 11.2181 17.6143L17.7389 21.4032C17.9281 21.5168 18.2916 21.5519 18.5406 21.4038C19.8661 20.6387 15.1349 23.3696 25.1043 17.6152C25.2241 17.5497 25.2928 17.4484 25.2928 17.3372V16.7098C25.2928 16.6025 25.2243 16.5024 25.106 16.4358L24.3871 16.0193V13.0572L27.05 14.5944C27.0868 14.6158 27.1343 14.6032 27.1555 14.5662C27.1769 14.5292 27.1642 14.482 27.1273 14.4607L24.3871 12.8788V10.3357C24.543 10.2456 23.8222 10.6621 25.912 9.45427C25.9528 9.42811 25.9615 9.35989 25.913 9.32757C25.8819 9.30681 23.1556 7.69092 23.1246 7.70403C23.0878 7.68245 23.0404 7.69482 23.019 7.7321C22.9976 7.76893 23.0101 7.81616 23.0471 7.83775L25.5372 9.28587C19.6265 8.81741 21.6652 8.97899 21.2241 8.94403L15.4906 5.61242L19.8043 5.95483C19.8355 5.97292 21.9776 7.21593 21.9467 7.19798C21.983 7.21926 22.0307 7.20674 22.0523 7.16991C22.0738 7.13293 22.0611 7.0857 22.0242 7.06426L20.5445 6.20566C20.2484 5.04689 19.4426 3.92078 18.5286 3.39547C17.8167 2.98073 17.138 2.91659 16.618 3.21602L9.96019 7.08585C9.92322 7.10728 9.91069 7.15467 9.93212 7.19149C9.95355 7.22847 10.0009 7.24054 10.0378 7.21956L16.6953 3.34989C17.1657 3.07959 17.7887 3.14298 18.4511 3.52919C19.293 4.01293 20.0414 5.02838 20.3558 6.09615L19.8669 5.81251C19.8568 5.80662 19.8457 5.80315 19.8342 5.80224L15.1639 5.43143C15.1491 5.43002 15.113 5.44079 15.0976 5.4598L10.4489 11.2119C10.419 11.2488 10.429 11.3034 10.4702 11.3274L11.9411 12.183V12.8475L6.72606 15.8774C6.84354 15.657 6.89729 15.3526 6.89871 15.0996C6.90113 14.0631 6.33719 12.8192 5.50079 11.9806C5.49984 11.9796 5.50022 11.978 5.4992 11.977C5.49815 11.9759 5.4965 11.9762 5.49539 11.9752C4.7855 11.2659 4.0065 11.0045 3.46913 11.0363L8.83234 7.92121C8.86932 7.89978 8.88185 7.85239 8.86041 7.81556C8.83883 7.77843 8.79114 7.76621 8.75477 7.78749L2.84793 11.2183C2.8454 11.2197 2.84531 11.223 2.84301 11.2247C1.0251 12.2969 2.56613 16.9191 5.2541 18.471L17.7767 25.7009C17.8692 25.7545 17.9682 25.7468 18.021 25.7136L22.4601 23.1316C22.4971 23.11 22.5096 23.0627 22.4882 23.0259ZM21.2354 9.10128C21.6834 9.1367 19.6126 8.97296 25.6164 9.4477L24.2784 10.2201C21.0696 9.98 21.1919 9.94738 21.1436 10.0065L18.0735 13.8024L16.8714 14.4965L21.2354 9.10128ZM20.4214 18.7742V16.9894C20.4562 17.0097 22.0564 17.9395 21.9612 17.8842C21.9302 17.9021 20.3189 18.8334 20.4214 18.7742ZM22.0765 14.4978L20.3054 15.524C20.2815 15.5379 20.2669 15.5632 20.2669 15.5908C20.2669 16.2781 20.2669 17.8386 20.2669 18.8633L18.2358 20.0351L18.2177 13.8698L21.2382 10.1354L24.2326 10.3714V16.5755L22.1925 17.7524V14.5647C22.1925 14.5056 22.1287 14.468 22.0765 14.4978ZM11.2948 17.4801C11.2246 17.4405 11.1827 17.3871 11.1827 17.3369L11.1809 16.9679C11.4968 17.1742 17.7215 20.7718 17.7708 20.7958C17.8567 20.8388 17.9369 20.8628 18.0755 20.8703V21.341C17.9757 21.3339 17.8844 21.3103 17.8176 21.2701L11.2948 17.4801ZM25.1382 17.3372C25.1382 17.3909 25.0999 17.4414 25.0288 17.4804L18.4626 21.2705C18.4032 21.3057 18.3292 21.3285 18.2469 21.3402V20.8711C18.3324 20.8606 18.4634 20.8227 18.5344 20.7824C25.64 16.6796 25.0939 16.999 25.1382 16.9635V17.3372ZM25.0293 16.57C25.1732 16.6509 25.1776 16.7683 25.0222 16.8532C18.0152 20.9175 18.395 20.6856 18.312 20.702C18.1801 20.7317 17.9577 20.7262 17.8144 20.6457C17.7648 20.6169 18.4708 21.0272 11.2895 16.8532C11.2892 16.853 11.2888 16.8528 11.2885 16.8526C11.1497 16.7742 11.1388 16.6579 11.2925 16.5697L11.9494 16.1914V16.6077C11.9494 16.6352 11.964 16.6607 11.9878 16.6746L18.1087 20.2305C18.1371 20.2522 18.1722 20.2516 18.1999 20.2341C26.0546 15.7033 15.8939 21.5701 24.3485 16.6871C24.3723 16.6732 24.3871 16.6477 24.3871 16.6201V16.1979L25.0293 16.57ZM15.1762 5.60855C15.806 5.97453 20.4388 8.66657 21.0835 9.04121L16.5302 14.6717L10.6256 11.2391L15.1762 5.60855ZM5.74964 13.1267C6.08731 13.6649 6.30421 14.2868 6.30257 14.8448C6.30034 15.6195 5.76261 15.8847 5.12627 15.5148C4.60257 15.2113 4.17893 14.4773 4.18179 13.8785C4.18179 13.4856 4.4423 13.306 4.81401 13.5199C4.8893 13.5635 4.97585 13.5632 5.03945 13.5368C5.47098 13.2883 5.78702 13.1063 5.74964 13.1267ZM5.66499 12.9972L5.14815 13.2978C5.1226 12.9507 4.77949 12.7571 4.42606 12.715L5.08207 12.3328C5.29751 12.5207 5.49384 12.7468 5.66499 12.9972Z" fill="#13519C"/>
<path d="M13.6671 16.5718L15.6243 17.7018C15.6748 17.7312 15.7399 17.6953 15.7402 17.6351C15.7404 17.577 15.7464 15.4269 15.7465 15.3919C15.7467 15.3643 15.7319 15.3386 15.7079 15.3249L13.7509 14.1949C13.7004 14.1656 13.6353 14.2013 13.635 14.2617C13.6348 14.327 13.6281 16.6383 13.6285 16.5048C13.6283 16.5324 13.6431 16.5581 13.6671 16.5718ZM13.7859 15.5169L14.6102 15.9929L14.6081 16.9368L13.7832 16.4605L13.7859 15.5169ZM14.7624 17.0259L14.7645 16.082L15.5886 16.5579L15.5859 17.5014L14.7624 17.0259ZM15.5891 16.3798L14.7649 15.9039L14.767 14.9601L15.5918 15.4363L15.5891 16.3798ZM14.6127 14.8709L14.6106 15.8148L13.7864 15.3389L13.789 14.3954L14.6127 14.8709ZM17.2715 10.1344C17.2826 10.1206 17.2887 10.1033 17.2887 10.0856L17.2825 7.68228C17.2825 7.68106 17.2835 7.68006 17.2835 7.67883C17.2837 7.63084 17.2556 7.58707 17.2067 7.55854L16.0428 6.88226C15.9674 6.83836 15.8507 6.8424 15.7814 6.88226L14.6099 7.55854C14.5613 7.58677 14.5334 7.63053 14.5334 7.67883C14.5334 7.71041 14.537 10.911 14.5378 10.9419C14.5378 10.9696 14.5524 10.9949 14.5763 11.0088L15.8682 11.7599C15.9034 11.7805 15.9495 11.7672 15.9702 11.7417L17.2715 10.1344ZM15.9842 11.4787V8.49395C16.0069 8.48723 16.0114 8.48462 16.0345 8.47525C16.0655 8.4574 17.2005 7.80344 17.1284 7.845L17.1341 10.0584L15.9842 11.4787ZM17.1048 7.67883C17.0739 7.6967 15.91 8.36813 15.9842 8.32529V7.02703L17.1048 7.67883ZM15.8297 7.03278V8.32867C15.7988 8.3107 14.6369 7.63561 14.711 7.67868L15.8297 7.03278ZM14.6893 7.84636C14.7203 7.86436 15.845 8.5169 15.7732 8.47525C15.7743 8.47588 15.776 8.47559 15.777 8.4762C15.7933 8.48499 15.8107 8.49217 15.8297 8.49714V11.5588L14.6923 10.8974L14.6893 7.84636ZM21.248 12.2459C20.9493 12.4181 20.7161 12.8211 20.7172 13.1631C20.7181 13.5332 20.9997 13.702 21.3286 13.5122C21.626 13.3404 21.8585 12.937 21.8574 12.5938C21.8565 12.2224 21.571 12.0587 21.248 12.2459ZM21.2513 13.3784C21.0291 13.5062 20.8724 13.4171 20.8717 13.1628C20.8708 12.8757 21.0743 12.5245 21.3253 12.3796C21.5476 12.2516 21.7022 12.3446 21.7029 12.5941C21.7038 12.8824 21.5011 13.2342 21.2513 13.3784ZM14.4792 26.1259C14.4789 26.1257 14.4784 26.1257 14.4781 26.1255C14.478 26.1254 14.478 26.1252 14.4779 26.1251C14.4777 26.125 14.4774 26.1248 14.4773 26.1247L13.9451 25.8174C13.9451 25.8169 13.9453 25.8165 13.9453 25.816C13.9469 25.4985 13.837 25.2588 13.6359 25.1411C13.0042 24.7715 12.2291 24.3261 9.33153 22.6554C9.29485 22.6341 9.24761 22.6466 9.22603 22.6836C9.2046 22.7206 9.21728 22.7678 9.25426 22.7891L12.2768 24.5355C11.4935 24.6775 10.7624 25.9378 11.0411 26.6896L4.7332 23.0478C4.19932 22.7303 4.62336 21.3985 5.39545 20.9593C5.61882 20.8307 5.82452 20.808 5.9753 20.8947L8.47202 22.3373C8.5093 22.359 8.55608 22.3462 8.57752 22.309C8.59895 22.2721 8.58627 22.2248 8.54929 22.2035L6.05257 20.7609C5.9246 20.6871 5.79788 20.695 5.75117 20.6908C2.55207 20.566 3.67631 20.6099 3.29414 20.595C3.15574 20.5936 3.07943 20.7377 3.14654 20.8469C3.16563 20.8781 4.44401 22.9704 4.47495 22.9974C4.63653 23.2446 4.24347 22.9088 12.2353 27.5574C12.2662 27.5617 12.5128 27.7574 12.9712 27.4954L12.9774 27.4914L13.5111 27.7995L13.5115 27.7998C13.5118 27.8001 13.5123 27.8002 13.5126 27.8005C13.5133 27.801 13.5142 27.8008 13.5149 27.8012C13.679 27.8942 13.8693 27.8516 14.0317 27.7592C14.4066 27.5452 14.7011 27.0375 14.702 26.6033C14.7026 26.3794 14.6235 26.2098 14.4792 26.1259ZM4.34366 22.4937L3.7292 21.4787C4.01905 21.3554 4.15007 21.1214 4.12079 20.782L5.31382 20.8286C4.78445 21.1328 4.35232 21.8755 4.34366 22.4937ZM11.5765 26.996C11.0583 26.6922 11.4505 25.3589 12.2406 24.9085C12.4568 24.7851 12.6558 24.7627 12.8053 24.8408L13.2164 25.0783C13.079 25.1044 12.8684 25.2146 12.8994 25.2013C12.4071 25.4815 12.0029 26.1358 11.9373 26.7204C11.9233 26.84 11.9045 27.0233 11.9786 27.2308C11.9477 27.2127 11.5456 26.9779 11.5765 26.996ZM12.0877 26.9995C12.0261 26.4277 12.4385 25.6411 12.9759 25.3356C13.3935 25.0958 13.7438 25.2323 13.7834 25.724L13.5972 25.6165C13.4541 25.5344 13.2697 25.5491 13.0777 25.6582C12.4913 25.993 12.1591 27.0194 12.6319 27.2919L12.8155 27.3979C12.3999 27.5922 12.1334 27.3977 12.0877 26.9995ZM12.7092 27.1581C12.3912 26.9749 12.6127 26.1018 13.1544 25.7925C13.2665 25.7286 13.4083 25.6861 13.52 25.7504L14.1193 26.0965C14.1166 26.0972 14.1138 26.0992 14.1112 26.1C13.6193 26.2544 13.1894 27.0046 13.3078 27.5037L12.7092 27.1581ZM13.9551 27.6249C13.735 27.7507 13.5314 27.7231 13.4648 27.4826C13.3589 27.1015 13.658 26.516 14.0351 26.301C14.3272 26.1338 14.5484 26.257 14.5474 26.603C14.5465 26.9806 14.2809 27.4391 13.9551 27.6249ZM24.6499 26.6001C24.6868 26.6215 24.7342 26.6089 24.7554 26.5719C24.7769 26.5349 24.7642 26.4876 24.7272 26.4664L24.3359 26.2406C24.2986 26.2187 24.2515 26.2317 24.2304 26.2688C24.2089 26.3058 24.2216 26.353 24.2586 26.3743L24.6499 26.6001ZM23.8932 26.1638C23.9306 26.185 23.9775 26.1722 23.9989 26.1354C24.0201 26.0984 24.0075 26.0512 23.9705 26.0297L23.5791 25.8041C23.542 25.7827 23.4949 25.7954 23.4735 25.8325C23.4522 25.8695 23.4649 25.9167 23.5019 25.9381L23.8932 26.1638ZM25.4065 27.0366C25.4439 27.0578 25.4909 27.045 25.5122 27.0082C25.5334 26.9712 25.5208 26.924 25.4838 26.9025L25.0924 26.6769C25.0552 26.6556 25.0081 26.6683 24.9868 26.7053C24.9655 26.7423 24.9782 26.7895 25.0152 26.8109L25.4065 27.0366ZM23.2415 25.3894C23.2196 25.3523 23.1724 25.34 23.1359 25.3613L22.9356 25.4778C22.8844 25.5076 22.8842 25.5819 22.9358 25.6115L23.1365 25.7274C23.1733 25.7488 23.2208 25.7362 23.242 25.6992C23.2634 25.6622 23.2507 25.615 23.2138 25.5937L23.1285 25.5444L23.2135 25.495C23.2504 25.4734 23.263 25.4262 23.2415 25.3894ZM26.4153 23.6316L26.7847 23.4167C26.8217 23.3951 26.8343 23.3478 26.8128 23.311C26.7914 23.2737 26.7439 23.2614 26.7072 23.2829L26.3377 23.4979C26.3007 23.5194 26.2882 23.5667 26.3096 23.6035C26.3311 23.6405 26.3785 23.6529 26.4153 23.6316ZM27.1295 23.2159L27.4989 23.001C27.5359 22.9794 27.5484 22.9322 27.527 22.8954C27.5051 22.8581 27.4579 22.8457 27.4213 22.8673L27.0519 23.0822C27.0149 23.1038 27.0024 23.151 27.0238 23.1879C27.0457 23.2253 27.0931 23.237 27.1295 23.2159ZM23.5585 25.2941L23.9279 25.0791C23.9647 25.0576 23.9773 25.0104 23.9557 24.9734C23.9341 24.9366 23.8864 24.9239 23.85 24.9457L23.4806 25.1607C23.4438 25.1822 23.4312 25.2294 23.4528 25.2664C23.4746 25.3038 23.5225 25.3155 23.5585 25.2941ZM24.2726 24.8785L24.6421 24.6634C24.6789 24.642 24.6914 24.5948 24.6699 24.5578C24.6484 24.521 24.6009 24.5083 24.5642 24.53L24.1948 24.7451C24.1579 24.7665 24.1454 24.8138 24.167 24.8507C24.1888 24.8881 24.2367 24.8998 24.2726 24.8785ZM25.3564 24.2478C25.3932 24.2264 25.4058 24.1791 25.3842 24.1421C25.3626 24.1053 25.3149 24.0926 25.2785 24.1144L24.9091 24.3294C24.8722 24.3509 24.8597 24.3981 24.8813 24.4351C24.9031 24.4725 24.951 24.4842 24.987 24.4629L25.3564 24.2478ZM25.9927 23.6987L25.6232 23.9138C25.5864 23.9352 25.5739 23.9825 25.5955 24.0194C25.6173 24.0568 25.6651 24.0685 25.7011 24.0472L26.0706 23.8322C26.1074 23.8107 26.1199 23.7635 26.0984 23.7265C26.0769 23.6897 26.0294 23.677 25.9927 23.6987ZM27.7381 22.7724C27.7599 22.8098 27.8078 22.8215 27.8438 22.8001L28.0442 22.6836C28.0947 22.654 28.0959 22.58 28.0439 22.5498L27.843 22.434C27.8057 22.4129 27.7587 22.4254 27.7374 22.4624C27.7161 22.4993 27.7288 22.5466 27.7658 22.568L27.851 22.6171L27.7659 22.6666C27.7291 22.6882 27.7166 22.7354 27.7381 22.7724ZM27.4855 22.317C27.5068 22.2801 27.4941 22.2328 27.4571 22.2114L27.0436 21.9729C27.0062 21.9518 26.9592 21.9643 26.9379 22.0013C26.9167 22.0383 26.9293 22.0855 26.9663 22.1069L27.3798 22.3454C27.4172 22.3666 27.4642 22.3538 27.4855 22.317ZM26.6859 21.8561C26.7073 21.8191 26.6946 21.7719 26.6577 21.7505L26.2443 21.5122C26.2069 21.4906 26.1599 21.5036 26.1386 21.5404C26.1174 21.5774 26.13 21.6246 26.167 21.646L26.5804 21.8845C26.618 21.9058 26.6649 21.8927 26.6859 21.8561ZM28.9568 11.8594C28.987 11.8896 29.0359 11.8896 29.0661 11.8594L29.2783 11.6473L29.4905 11.8596C29.5207 11.8897 29.5696 11.8897 29.5998 11.8596C29.63 11.8294 29.63 11.7805 29.5998 11.7503L29.3876 11.538L29.5998 11.3259C29.63 11.2957 29.63 11.2468 29.5998 11.2166C29.5696 11.1864 29.5207 11.1864 29.4905 11.2166L29.2783 11.4287L29.0661 11.2165C29.0359 11.1863 28.987 11.1863 28.9568 11.2165C28.9267 11.2467 28.9267 11.2956 28.9568 11.3257L29.169 11.538L28.9568 11.7501C28.9267 11.7803 28.9267 11.8292 28.9568 11.8594Z" fill="#13519C"/>
</svg>
