<svg width="17" height="17" viewBox="0 0 17 17" fill="none" xmlns="http://www.w3.org/2000/svg">
<path d="M7.69746 5.10991L10.6866 9.96058C10.7194 10.0139 10.7351 10.076 10.7317 10.1385C10.7282 10.201 10.7059 10.261 10.6675 10.3105C10.3133 10.7709 9.95279 11.1832 9.65033 11.458C9.65033 11.458 9.40808 11.6946 9.25437 11.7966C9.03837 11.9591 8.77453 12.0453 8.50425 12.0417C8.20533 12.0417 7.92342 11.9545 7.69675 11.781C7.65637 11.7413 7.47858 11.5912 7.33337 11.4495C6.42954 10.6215 4.93637 8.46103 4.48375 7.32487C4.41079 7.15983 4.2585 6.71853 4.25 6.48903C4.25 6.26874 4.29817 6.05553 4.40371 5.85083C4.54892 5.59866 4.77417 5.40174 5.04121 5.29124C5.22679 5.2197 5.78354 5.1092 5.79983 5.1092C6.19721 5.03837 6.75608 4.98524 7.40775 4.95833C7.4652 4.95592 7.52227 4.96865 7.57324 4.99526C7.62421 5.02186 7.66729 5.0614 7.69817 5.10991H7.69746Z" fill="#1A45D6"/>
<path opacity="0.4" d="M9.30746 5.43434C9.17501 5.22042 9.3443 4.95126 9.59788 4.96188C10.195 4.98738 10.7206 5.03201 11.1116 5.08584C11.1201 5.09434 11.8128 5.20413 12.048 5.33092C12.4836 5.55122 12.75 5.98472 12.75 6.45009V6.48905C12.7422 6.78938 12.4758 7.4283 12.4595 7.4283C12.325 7.74988 12.0983 8.16992 11.8263 8.62184C11.7975 8.6688 11.7572 8.70766 11.7092 8.73478C11.6613 8.7619 11.6072 8.77638 11.5521 8.77688C11.497 8.77738 11.4427 8.76386 11.3943 8.73761C11.3458 8.71136 11.3049 8.67323 11.2752 8.6268L9.30746 5.43434Z" fill="#1A45D6"/>
</svg>
