<svg width="53" height="53" viewBox="0 0 53 53" fill="none" xmlns="http://www.w3.org/2000/svg">
<path d="M46.0934 20.2063C46.4052 19.9266 46.6448 19.5757 46.7919 19.1836C46.9389 18.7914 46.9891 18.3695 46.9381 17.9538C46.8983 17.5727 46.7465 17.212 46.5018 16.9172C46.2571 16.6224 45.9306 16.4068 45.5634 16.2975C45.2562 16.5772 45.0195 16.9255 44.8727 17.3141C44.7259 17.7027 44.6731 18.1205 44.7187 18.5334C44.7574 18.9167 44.9086 19.28 45.1532 19.5776C45.3978 19.8752 45.7249 20.0939 46.0934 20.2063ZM47.1037 21.1172C46.7656 21.3997 46.5004 21.7593 46.3303 22.1657C46.1603 22.5721 46.0904 23.0134 46.1265 23.4525C46.5555 23.4902 46.9876 23.4365 47.3943 23.295C47.801 23.1535 48.1731 22.9274 48.4861 22.6316C48.7991 22.3359 49.0458 21.9771 49.2101 21.579C49.3743 21.181 49.4523 20.7526 49.439 20.3222C49.0148 20.265 48.583 20.307 48.1778 20.4449C47.7726 20.5829 47.4049 20.813 47.1037 21.1172ZM45.7124 23.3697C45.8223 22.9737 45.8201 22.555 45.7061 22.1603C45.592 21.7655 45.3706 21.4101 45.0665 21.1338C44.7623 20.8526 44.3874 20.6594 43.9819 20.5748C43.5764 20.4902 43.1555 20.5174 42.7643 20.6534C42.6485 21.0476 42.6462 21.4664 42.7575 21.8619C42.8688 22.2574 43.0893 22.6135 43.3937 22.8894C43.7014 23.1704 44.0791 23.3633 44.4871 23.4478C44.8952 23.5324 45.3184 23.5054 45.7124 23.3697ZM45.729 26.235C45.3166 26.4951 44.9703 26.8474 44.7174 27.2641C44.4645 27.6809 44.3118 28.1507 44.2715 28.6366C44.7269 28.7798 45.2102 28.8109 45.6802 28.7273C46.1502 28.6437 46.5931 28.4478 46.9712 28.1563C47.381 27.8934 47.7253 27.5404 47.9779 27.1242C48.2305 26.708 48.3847 26.2396 48.4287 25.7547C47.9738 25.6072 47.4896 25.5738 47.0188 25.6576C46.548 25.7414 46.1051 25.9396 45.729 26.235ZM43.8409 28.4544C44.0287 28.0434 44.1017 27.5893 44.0522 27.1402C44.0026 26.6911 43.8323 26.2638 43.5593 25.9038C43.289 25.5459 42.9238 25.2709 42.5052 25.1099C42.0866 24.9489 41.6313 24.9084 41.1909 24.9928C40.9937 25.3979 40.9096 25.8488 40.9475 26.2978C40.9854 26.7467 41.1439 27.1771 41.4062 27.5434C41.6818 27.9129 42.0579 28.1953 42.4896 28.3568C42.9213 28.5183 43.3904 28.5522 43.8409 28.4544ZM44.3046 31.5516C43.798 31.7479 43.3418 32.0551 42.9692 32.4505C42.5967 32.846 42.3173 33.3198 42.1515 33.8372C42.579 34.1121 43.0697 34.2732 43.577 34.3051C44.0843 34.337 44.5914 34.2386 45.0499 34.0194C45.5565 33.823 46.0128 33.5159 46.3853 33.1204C46.7579 32.7249 47.0373 32.2512 47.2031 31.7338C46.7774 31.4543 46.2862 31.2905 45.778 31.2585C45.2697 31.2266 44.762 31.3276 44.3046 31.5516ZM39.5677 31.9159C39.7293 32.3761 40.0228 32.7786 40.4116 33.0731C40.8004 33.3676 41.2672 33.5412 41.754 33.5722C42.0594 33.162 42.2573 32.6819 42.3296 32.1756C42.4019 31.6694 42.3464 31.1531 42.1681 30.6738C42.0035 30.2123 41.707 29.8093 41.3154 29.5148C40.9238 29.2204 40.4543 29.0474 39.9652 29.0175C39.6584 29.4271 39.4608 29.9082 39.3913 30.4153C39.3218 30.9224 39.3825 31.4388 39.5677 31.9159ZM41.4062 35.9572C40.8786 36.0937 40.3879 36.3459 39.9697 36.6953C39.5515 37.0448 39.2162 37.4829 38.9881 37.9778C39.3611 38.3142 39.8179 38.544 40.3104 38.6431C40.8029 38.7422 41.313 38.7069 41.7871 38.5409C42.3162 38.4084 42.8091 38.1598 43.2302 37.8132C43.6513 37.4665 43.99 37.0306 44.2218 36.5369C43.846 36.1993 43.3872 35.9677 42.8925 35.8658C42.3977 35.764 41.8848 35.7955 41.4062 35.9572ZM37.5968 32.8269C37.2384 33.2019 36.9782 33.6598 36.8395 34.1597C36.7008 34.6596 36.6879 35.1861 36.8018 35.6922C36.8948 36.1661 37.1249 36.6024 37.4634 36.9468C37.802 37.2913 38.2342 37.5288 38.7065 37.63C39.0536 37.2507 39.3076 36.7958 39.4484 36.3014C39.5893 35.807 39.6131 35.2865 39.5181 34.7813C39.4268 34.3021 39.1956 33.8607 38.8537 33.5129C38.5117 33.165 38.0743 32.9263 37.5968 32.8269ZM37.3484 40.0316C36.7623 39.9843 36.1732 40.0733 35.6272 40.2917C35.0813 40.5101 34.5933 40.8519 34.2015 41.2903C34.3943 41.7981 34.7331 42.2373 35.1752 42.5527C35.6174 42.8681 36.143 43.0455 36.6859 43.0625C37.2733 43.1078 37.8632 43.0161 38.4093 42.7949C38.9553 42.5736 39.4426 42.2286 39.8327 41.7872C39.6355 41.2838 39.2951 40.8492 38.8536 40.5372C38.4121 40.2251 37.8887 40.0494 37.3484 40.0316ZM32.9427 37.9116C32.8288 38.4421 32.8698 38.9942 33.0606 39.5022C33.2515 40.0102 33.5842 40.4526 34.0193 40.7769C34.5346 40.4788 34.9753 40.0674 35.3082 39.5739C35.6411 39.0804 35.8573 38.5176 35.9406 37.9281C36.0504 37.3976 36.0075 36.8468 35.8169 36.3397C35.6264 35.8325 35.296 35.3898 34.864 35.0628C34.3487 35.3609 33.908 35.7723 33.5751 36.2658C33.2422 36.7593 33.026 37.3221 32.9427 37.9116ZM32.0484 42.8141C31.4053 42.7603 30.7587 42.8581 30.1603 43.0998C29.562 43.3414 29.0287 43.7201 28.6034 44.2053C28.822 44.7525 29.1954 45.224 29.6778 45.5623C30.1602 45.9006 30.7307 46.0909 31.3196 46.11C31.9646 46.1587 32.6122 46.0585 33.2123 45.8173C33.8125 45.5761 34.3493 45.2002 34.7812 44.7188C34.5614 44.1691 34.1855 43.6958 33.6999 43.3573C33.2142 43.0189 32.6401 42.83 32.0484 42.8141ZM30.5081 40.5119C30.6355 39.9298 30.5924 39.3233 30.3838 38.7652C30.1752 38.207 29.8101 37.7208 29.3321 37.365C28.7635 37.6866 28.2766 38.1346 27.9089 38.6746C27.5413 39.2146 27.3029 39.8319 27.2121 40.4788C27.0935 41.0633 27.1408 41.6693 27.3486 42.2283C27.5564 42.7873 27.9164 43.2771 28.3881 43.6422C28.9555 43.3151 29.4412 42.8634 29.8084 42.3211C30.1757 41.7788 30.4149 41.1602 30.5081 40.5119ZM8.28118 18.5334C8.32942 18.1179 8.27797 17.6968 8.13108 17.3051C7.98418 16.9134 7.74608 16.5623 7.43649 16.2809C7.0693 16.3902 6.74273 16.6059 6.49805 16.9007C6.25337 17.1954 6.10156 17.5562 6.06181 17.9372C6.01078 18.3529 6.06094 18.7748 6.208 19.167C6.35507 19.5592 6.5947 19.91 6.90649 20.1897C7.2726 20.0785 7.59802 19.8623 7.84239 19.5679C8.08676 19.2734 8.23933 18.9138 8.28118 18.5334ZM6.87337 23.4525C6.90951 23.0134 6.8396 22.5721 6.66954 22.1657C6.49949 21.7593 6.23425 21.3997 5.89618 21.1172C5.58796 20.8032 5.20929 20.5673 4.79161 20.429C4.37393 20.2908 3.92929 20.2541 3.49462 20.3222C3.45848 20.7613 3.52838 21.2026 3.69844 21.609C3.8685 22.0154 4.13374 22.375 4.47181 22.6575C4.77841 22.9737 5.1569 23.2112 5.57506 23.3496C5.99321 23.488 6.43863 23.5233 6.87337 23.4525ZM7.28743 23.3697C7.68143 23.5054 8.1047 23.5324 8.51274 23.4478C8.92078 23.3633 9.2985 23.1704 9.60618 22.8894C9.91057 22.6135 10.1311 22.2574 10.2424 21.8619C10.3537 21.4664 10.3513 21.0476 10.2356 20.6534C9.84431 20.5174 9.42345 20.4902 9.01795 20.5748C8.61245 20.6594 8.23756 20.8526 7.93337 21.1338C7.62926 21.4101 7.40785 21.7655 7.2938 22.1603C7.17975 22.555 7.17755 22.9737 7.28743 23.3697ZM8.72837 28.6366C8.68805 28.1507 8.53541 27.6809 8.28247 27.2641C8.02954 26.8474 7.68323 26.4951 7.27087 26.235C6.89331 25.9424 6.44964 25.7471 5.97889 25.6663C5.50814 25.5854 5.02473 25.6215 4.57118 25.7713C4.61762 26.2532 4.77295 26.7183 5.02544 27.1315C5.27792 27.5447 5.62097 27.8951 6.02868 28.1563C6.40675 28.4478 6.84963 28.6437 7.31966 28.7273C7.78968 28.8109 8.27295 28.7798 8.72837 28.6366ZM9.15899 28.4544C9.60944 28.5522 10.0785 28.5183 10.5102 28.3568C10.942 28.1953 11.3181 27.9129 11.5937 27.5434C11.8666 27.1834 12.037 26.7561 12.0865 26.307C12.1361 25.8579 12.0631 25.4037 11.8752 24.9928C11.4348 24.9084 10.9795 24.9489 10.5609 25.1099C10.1423 25.2709 9.77715 25.5459 9.5068 25.9038C9.22305 26.2574 9.0408 26.6816 8.97953 27.1309C8.91827 27.5802 8.9803 28.0376 9.15899 28.4544ZM10.8484 33.8372C10.6826 33.3198 10.4032 32.846 10.0306 32.4505C9.6581 32.0551 9.20183 31.7479 8.69524 31.5516C8.23791 31.3276 7.73012 31.2266 7.22188 31.2585C6.71364 31.2905 6.22249 31.4543 5.79681 31.7338C5.96259 32.2512 6.24198 32.7249 6.61453 33.1204C6.98707 33.5159 7.44334 33.823 7.94993 34.0194C8.40851 34.2386 8.91554 34.337 9.42283 34.3051C9.93013 34.2732 10.4208 34.1121 10.8484 33.8372ZM10.8318 30.6406C10.6535 31.1199 10.5979 31.6362 10.6702 32.1425C10.7426 32.6488 10.9405 33.1289 11.2459 33.5391C11.7326 33.5081 12.1995 33.3345 12.5883 33.04C12.977 32.7455 13.2705 32.343 13.4321 31.8828C13.6174 31.4057 13.6781 30.8892 13.6086 30.3821C13.539 29.875 13.3415 29.394 13.0346 28.9844C12.5456 29.0143 12.0761 29.1873 11.6845 29.4817C11.2929 29.7761 10.9964 30.1791 10.8318 30.6406ZM11.5937 35.9572C11.1151 35.7955 10.6022 35.764 10.1074 35.8658C9.61262 35.9677 9.15383 36.1993 8.77806 36.5369C9.00984 37.0306 9.34855 37.4665 9.76965 37.8132C10.1908 38.1598 10.6837 38.4084 11.2127 38.5409C11.6869 38.7069 12.197 38.7422 12.6895 38.6431C13.182 38.544 13.6387 38.3142 14.0118 37.9778C13.7837 37.4829 13.4484 37.0448 13.0302 36.6953C12.612 36.3459 12.1213 36.0937 11.5937 35.9572ZM14.2934 37.63C14.7656 37.5288 15.1979 37.2913 15.5364 36.9468C15.875 36.6024 16.105 36.1661 16.1981 35.6922C16.312 35.1861 16.299 34.6596 16.1603 34.1597C16.0216 33.6598 15.7615 33.2019 15.4031 32.8269C14.9255 32.9263 14.4882 33.165 14.1462 33.5129C13.8042 33.8607 13.5731 34.3021 13.4818 34.7813C13.3867 35.2865 13.4106 35.807 13.5514 36.3014C13.6923 36.7958 13.9463 37.2507 14.2934 37.63ZM18.7984 41.2903C18.4066 40.8519 17.9186 40.5101 17.3726 40.2917C16.8267 40.0733 16.2376 39.9843 15.6515 40.0316C15.1223 40.041 14.607 40.2021 14.1666 40.4957C13.7263 40.7892 13.3794 41.203 13.1671 41.6878C13.5573 42.1293 14.0446 42.4742 14.5906 42.6955C15.1366 42.9168 15.7266 43.0084 16.314 42.9631C16.8455 42.9543 17.363 42.7916 17.804 42.4947C18.2449 42.1978 18.5903 41.7795 18.7984 41.2903ZM18.9806 40.7769C19.4156 40.4526 19.7484 40.0102 19.9393 39.5022C20.1301 38.9942 20.171 38.4421 20.0571 37.9116C19.9831 37.3295 19.7795 36.7715 19.4613 36.2785C19.1432 35.7855 18.7185 35.3701 18.2187 35.0628C17.7867 35.3898 17.4563 35.8325 17.2657 36.3397C17.0752 36.8468 17.0323 37.3976 17.1421 37.9281C17.2162 38.5102 17.4197 39.0682 17.7379 39.5612C18.0561 40.0542 18.4807 40.4696 18.9806 40.7769ZM18.2187 44.7188C18.649 45.2032 19.185 45.5822 19.7853 45.8263C20.3855 46.0705 21.0339 46.1732 21.6802 46.1266C22.2691 46.1075 22.8397 45.9171 23.3221 45.5788C23.8045 45.2406 24.1779 44.769 24.3965 44.2219C23.9711 43.7366 23.4379 43.358 22.8395 43.1163C22.2412 42.8747 21.5945 42.7768 20.9515 42.8306C20.3616 42.8452 19.7889 43.0316 19.3034 43.367C18.818 43.7024 18.441 44.1722 18.2187 44.7188ZM23.6677 37.365C23.1898 37.7208 22.8246 38.207 22.6161 38.7652C22.4075 39.3233 22.3643 39.9298 22.4918 40.5119C22.585 41.1602 22.8242 41.7788 23.1915 42.3211C23.5587 42.8634 24.0444 43.3151 24.6118 43.6422C25.0834 43.2771 25.4435 42.7873 25.6513 42.2283C25.8591 41.6693 25.9064 41.0633 25.7877 40.4788C25.697 39.8319 25.4586 39.2146 25.0909 38.6746C24.7233 38.1346 24.2363 37.6866 23.6677 37.365ZM39.9321 19.875C39.9321 17.2184 39.1443 14.6214 37.6684 12.4125C36.1924 10.2036 34.0946 8.48193 31.6402 7.46528C29.1858 6.44863 26.485 6.18263 23.8794 6.70091C21.2739 7.2192 18.8805 8.49849 17.0019 10.377C15.1234 12.2555 13.8441 14.6489 13.3258 17.2545C12.8076 19.8601 13.0736 22.5609 14.0902 25.0153C15.1069 27.4697 16.8285 29.5675 19.0374 31.0435C21.2463 32.5194 23.8433 33.3072 26.4999 33.3072C30.061 33.3028 33.475 31.8862 35.9931 29.3682C38.5112 26.8501 39.9277 23.4361 39.9321 19.875ZM31.0381 26.5L26.4999 24.115L21.9618 26.5L22.8396 21.5313L19.1627 17.9538L24.2309 17.2084L26.4999 12.5378L28.769 17.1256L33.8371 17.8709L30.1602 21.5313L31.0381 26.5Z" fill="#13519C"/>
</svg>
