<svg width="21" height="21" viewBox="0 0 21 21" fill="none" xmlns="http://www.w3.org/2000/svg">
<path d="M11.375 2.625C15.241 2.625 18.375 5.759 18.375 9.625M11.8125 5.6875C13.7455 5.6875 15.3125 7.2545 15.3125 9.1875" stroke="#3A9F59" stroke-linecap="round" stroke-linejoin="round"/>
<path d="M8.01347 4.9982L7.66115 4.20547C7.43078 3.68715 7.3156 3.42797 7.14333 3.22963C6.92744 2.98107 6.64604 2.7982 6.33121 2.70187C6.08001 2.625 5.7964 2.625 5.22918 2.625C4.39942 2.625 3.98453 2.625 3.63626 2.7845C3.22601 2.97239 2.8555 3.38037 2.70789 3.80677C2.58257 4.16875 2.61846 4.54075 2.69026 5.28474C3.45442 13.2039 7.79608 17.5456 15.7153 18.3097C16.4593 18.3816 16.8312 18.4174 17.1932 18.2921C17.6196 18.1445 18.0276 17.774 18.2155 17.3638C18.375 17.0154 18.375 16.6006 18.375 15.7708C18.375 15.2036 18.375 14.92 18.2982 14.6688C18.2018 14.3539 18.019 14.0725 17.7704 13.8567C17.572 13.6844 17.3128 13.5692 16.7945 13.3389L16.0018 12.9865C15.4404 12.737 15.1598 12.6123 14.8746 12.5852C14.6017 12.5592 14.3265 12.5975 14.071 12.697C13.804 12.801 13.568 12.9976 13.0961 13.3908C12.6263 13.7823 12.3915 13.978 12.1045 14.0829C11.8501 14.1758 11.5138 14.2103 11.2458 14.1707C10.9435 14.1262 10.712 14.0025 10.2491 13.7551C8.8088 12.9854 8.01459 12.1912 7.24488 10.7509C6.9975 10.288 6.87381 10.0565 6.82926 9.75424C6.78977 9.48623 6.8242 9.14987 6.91714 8.89551C7.02198 8.60849 7.21771 8.37363 7.60917 7.90387C8.00242 7.43197 8.19905 7.19602 8.30301 6.92905C8.40249 6.67357 8.44078 6.39835 8.41482 6.12542C8.3877 5.84021 8.26296 5.55954 8.01347 4.9982Z" stroke="#3A9F59" stroke-linecap="round"/>
</svg>
