<svg width="62" height="25" viewBox="0 0 62 25" fill="none" xmlns="http://www.w3.org/2000/svg">
<path d="M59.8273 17.151C59.8273 16.9794 59.8273 16.7934 59.8273 16.6218C59.8341 16.5075 59.8341 16.3929 59.8273 16.2786C59.8052 16.1604 59.8052 16.0392 59.8273 15.921C59.956 15.163 60.428 13.0607 59.9703 12.4314L59.7415 12.131C58.6408 10.992 57.1704 10.2821 55.5939 10.1288C53.6918 9.77123 51.7753 9.5424 49.8732 9.34217C45.298 8.95364 40.7053 8.81042 36.1148 8.91312C31.8243 9.02753 27.5337 8.98463 23.2432 8.91312C20.912 8.91312 18.5807 8.91312 16.2495 8.7415C15.2818 8.78634 14.3294 8.48745 13.5608 7.89769C13.3404 7.70337 13.1697 7.45924 13.0627 7.1856C12.9557 6.91196 12.9157 6.61673 12.9458 6.32448C12.8692 5.98589 12.8213 5.64142 12.8028 5.29475C12.8028 4.63687 12.5454 4.43664 11.9304 4.83709C10.2014 5.96078 8.30393 6.80088 6.30977 7.32561C5.13616 7.56997 3.97613 7.8755 2.83442 8.24093C2.51558 8.32466 2.2276 8.49844 2.00491 8.7415C1.81421 9.02072 1.70524 9.34763 1.69027 9.68542C1.20767 11.6474 0.948585 13.6577 0.917969 15.6779C1.26471 16.2653 1.74153 16.7655 2.31177 17.1399C2.88202 17.5142 3.5305 17.7529 4.20739 17.8375C4.62257 17.9944 5.06726 18.0579 5.50977 18.0232C5.95227 17.9886 6.38169 17.8568 6.76742 17.6372C7.38889 17.0361 7.94939 16.375 8.44074 15.6636C8.88672 15.1766 9.44253 14.8032 10.0619 14.5743C10.6813 14.3455 11.3464 14.2678 12.0019 14.3478C12.6617 14.4555 13.2872 14.7159 13.8285 15.1083C14.3698 15.5006 14.812 16.014 15.1197 16.6075C15.3252 17.1105 15.5841 17.59 15.892 18.0377C16.6357 18.9816 18.0945 18.7957 19.1385 18.8815C20.5687 18.9816 28.02 19.2534 29.4502 19.3106C36.1434 19.5966 36.7727 18.81 43.466 18.81C43.9919 18.8461 44.5203 18.8173 45.0392 18.7242C46.0832 18.4954 46.2405 17.5228 46.784 16.679C47.9298 15.3558 49.4124 14.3674 51.0745 13.8187C51.6665 13.6519 52.288 13.6183 52.8945 13.7205C53.5009 13.8226 54.0772 14.0579 54.5818 14.4094C55.0864 14.7608 55.5069 15.2198 55.813 15.7532C56.1191 16.2866 56.3031 16.8812 56.3519 17.4942C56.5092 18.5669 57.3388 19.4965 58.0395 19.3249C58.5508 19.2417 59.0143 18.9752 59.3434 18.5751C59.6724 18.175 59.8444 17.6687 59.8273 17.151Z" fill="white"/>
<path d="M34.9276 11.2155C34.4967 11.077 34.0496 10.9953 33.5975 10.9724C32.6679 10.858 31.724 10.858 30.7372 10.8294C28.9637 10.7436 27.1903 10.7007 25.4026 10.7007C17.6161 10.5989 9.83997 10.0977 2.10487 9.19898C1.93324 9.01306 1.67581 9.58513 1.47559 10.2001C1.53704 10.4548 1.58478 10.7126 1.6186 10.9724C1.72129 11.6781 1.77386 12.3902 1.77592 13.1034L7.66829 13.418H14.8192H26.5038C27.5908 13.418 28.692 13.418 29.7789 13.418C30.9547 13.411 32.1293 13.3394 33.2972 13.2035C33.9085 13.1707 34.5113 13.0453 35.0849 12.8317C35.9859 12.5027 35.7285 11.5445 34.9276 11.2155Z" fill="#13519C"/>
<path d="M11.0293 23.2719C13.628 23.2719 15.7346 21.1653 15.7346 18.5666C15.7346 15.968 13.628 13.8613 11.0293 13.8613C8.43061 13.8613 6.32397 15.968 6.32397 18.5666C6.32397 21.1653 8.43061 23.2719 11.0293 23.2719Z" stroke="#2983D3" stroke-opacity="0.6" stroke-width="1.5" stroke-miterlimit="10"/>
<path d="M51.6465 23.2719C54.2451 23.2719 56.3518 21.1653 56.3518 18.5666C56.3518 15.968 54.2451 13.8613 51.6465 13.8613C49.0478 13.8613 46.9412 15.968 46.9412 18.5666C46.9412 21.1653 49.0478 23.2719 51.6465 23.2719Z" stroke="#2983D3" stroke-opacity="0.6" stroke-width="1.5" stroke-miterlimit="10"/>
<path d="M60.9428 15.1486C60.9428 14.5623 61.1144 13.9759 61.1001 13.3895C61.0255 12.3777 60.5948 11.4251 59.8844 10.7008C58.2488 9.24002 56.1549 8.39539 53.9635 8.31235C51.8611 8.02631 49.6729 7.81178 47.6278 7.72597C47.5708 7.71775 47.513 7.71775 47.4561 7.72597C45.3714 7.7012 43.3465 7.02622 41.6639 5.79522C40.1176 4.60058 38.4605 3.55656 36.7154 2.67742C33.1609 0.995742 29.2912 0.0843439 25.3598 0.00297185C21.2101 -0.0538324 17.0896 0.704183 13.2318 2.23406C10.3714 3.39251 7.69699 5.33756 4.6507 6.22428C4.14616 6.38663 3.62151 6.47808 3.09179 6.49601C2.60833 6.48389 2.1259 6.54661 1.66161 6.68194C1.54068 6.71215 1.42497 6.76036 1.31836 6.82495C0.991559 6.97413 0.710535 7.20789 0.504355 7.50207C0.298176 7.79626 0.174325 8.14018 0.145613 8.49827C0.145613 9.21336 0.431651 9.85694 0.431651 10.5577C0.375951 11.369 0.270876 12.1762 0.117009 12.9747C-0.152842 14.5044 0.0465925 16.0799 0.689084 17.4941C1.47569 18.9243 3.54945 19.1817 4.97964 19.4106C5.12184 19.4322 5.26649 19.4322 5.40869 19.4106L5.53741 19.2104V19.0673C5.59602 18.9607 5.64855 18.8509 5.69473 18.7384C5.68803 18.6957 5.68803 18.6523 5.69473 18.6097V18.4524C5.70901 18.2572 5.70901 18.0612 5.69473 17.866C5.70137 17.7612 5.70137 17.6561 5.69473 17.5513C5.69936 17.5277 5.69936 17.5034 5.69473 17.4798C5.0961 17.382 4.50388 17.2483 3.9213 17.0794C3.54945 16.9793 2.94878 16.8935 2.73425 16.5502C2.50697 16.1072 2.38464 15.6179 2.3767 15.12C2.30523 14.4928 2.30523 13.8594 2.3767 13.2322C2.64312 12.0309 2.71076 10.7941 2.57693 9.57091L2.40531 8.91302C2.39861 8.88481 2.39861 8.85542 2.40531 8.82721C5.73764 8.7271 8.5551 6.95367 11.4727 5.49488C11.5018 6.33871 11.7792 7.1552 12.2702 7.84209C12.7612 8.52898 13.4439 9.05574 14.2329 9.35638C15.5257 9.74717 16.8732 9.92588 18.2232 9.88555C19.9108 9.88555 21.5984 9.97136 23.3003 9.98566C26.8758 9.98566 30.4512 10.0858 34.041 10.0858C36.3007 10.0858 38.5461 10.1573 40.7915 10.0858C44.6935 9.89712 48.6042 10.0023 52.4904 10.4004C54.2758 10.4549 56.0299 10.8836 57.639 11.659C58.2347 11.9717 58.7081 12.4753 58.9834 13.0892C59.3124 13.8901 58.8976 14.7625 58.9834 15.592C59.0692 16.4215 59.3839 17.0222 58.9834 17.6944C58.746 18.007 58.4264 18.2475 58.0601 18.389C57.6939 18.5304 57.2956 18.5672 56.9097 18.4953C55.6797 18.3808 55.6797 20.5261 56.9097 20.6405C57.4539 20.7037 58.0053 20.6558 58.5304 20.4996C59.0555 20.3434 59.5435 20.0822 59.9647 19.7319C60.386 19.3815 60.7317 18.9493 60.9809 18.4614C61.2301 17.9735 61.3777 17.4401 61.4147 16.8935C61.1716 16.1784 60.9714 15.6778 60.9428 15.1486ZM18.5664 7.64016C16.9217 7.64016 13.1174 7.64016 13.4177 5.06582C13.575 3.80726 15.3771 3.63564 16.2781 3.39251C17.1791 3.14938 17.7798 2.97776 18.5378 2.80613C20.5049 2.36299 22.5139 2.13283 24.5303 2.11964L24.6161 2.39138C24.6161 2.62021 24.7162 2.84904 24.7591 3.07787C24.7591 3.07787 24.7591 3.27809 24.7591 3.2924V3.66424C24.7591 3.92168 24.7591 4.17911 24.8306 4.43655L25.1166 7.75457C23.0143 7.72597 20.7832 7.71167 18.5664 7.64016ZM27.3763 7.78318C27.2762 6.58182 27.1761 5.38047 27.0617 4.19341C27.0105 3.5157 26.9149 2.84207 26.7757 2.17685C30.3792 2.43442 33.8834 3.47395 37.0444 5.22315C38.3052 5.98959 39.5227 6.82514 40.6914 7.72597C36.2578 7.84038 31.8099 7.82608 27.3763 7.78318Z" fill="#2983D3" fill-opacity="0.6"/>
<path d="M46.4121 17.9948C36.2578 17.8899 26.1082 17.8565 15.9634 17.8946C14.6906 17.8946 14.6763 20.0542 15.9634 20.0399C26.0987 20.0399 36.2482 20.0733 46.4121 20.14C47.6849 20.1543 47.6849 18.0091 46.4121 17.9948Z" fill="#2983D3" fill-opacity="0.6"/>
</svg>
