<svg width="36" height="36" viewBox="0 0 36 36" fill="none" xmlns="http://www.w3.org/2000/svg">
<g clip-path="url(#clip0_0_75)">
<mask id="path-1-outside-1_0_75" maskUnits="userSpaceOnUse" x="0" y="21" width="36" height="16" fill="black">
<rect fill="white" y="21" width="36" height="16"/>
<path d="M34.487 22.7355C33.8555 22.2443 33.0662 22.4626 32.3295 22.7901L25.4361 25.5194L25.1203 25.3557C24.0153 24.919 22.8576 24.8644 21.6999 24.8098C17.6481 24.7007 17.9638 23.8273 15.6485 22.681C12.9122 21.3163 10.5442 22.2989 8.5446 23.0631L1.1776 26.0107C1.01973 26.0653 0.967112 26.2291 1.01973 26.3382C1.07235 26.502 1.23022 26.5566 1.33546 26.502L8.70246 23.5543C10.7021 22.7355 12.9122 21.8622 15.438 23.1177C17.7007 24.264 17.5429 25.1919 21.6999 25.3011C22.805 25.3557 23.8048 25.3557 24.8046 25.7378C24.6467 25.7378 24.4889 25.7924 24.331 25.847C23.7522 26.0653 23.3312 26.502 23.226 27.0479C23.1207 27.5391 23.2786 28.085 23.6469 28.4671C23.1733 28.4125 22.7524 28.3033 22.2788 28.2488C21.3842 28.085 20.437 27.8667 19.4898 27.9212C18.7531 27.9212 17.9638 28.1396 17.2797 28.2488C16.8062 28.3579 16.2799 28.4671 15.8063 28.5217C13.3331 28.8492 10.8073 28.0304 8.91295 26.3382C8.8077 26.2291 8.64984 26.2291 8.5446 26.3382C8.43935 26.4474 8.43935 26.6112 8.5446 26.7203C10.2285 28.2488 12.4912 29.1221 14.7013 29.1221C15.0696 29.1221 15.438 29.1221 15.8063 29.0675C15.9642 29.0675 16.1221 29.013 16.2799 29.013L16.8062 29.5588C16.8062 29.5588 16.8588 29.6134 16.9114 29.6134C16.964 29.6134 16.964 29.6134 17.0166 29.5588C17.0693 29.5042 17.0693 29.3951 17.0166 29.3405L16.6483 28.9584C16.8062 28.9038 16.964 28.9038 17.1219 28.8492L17.5429 29.2859C17.5429 29.2859 17.5955 29.3405 17.6481 29.3405C17.7007 29.3405 17.7007 29.3405 17.7533 29.2859C17.806 29.2313 17.806 29.1221 17.7533 29.0675L17.4902 28.7946C17.5955 28.74 17.7533 28.74 17.8586 28.6854L18.2796 29.1221C18.2796 29.1221 18.3322 29.1767 18.3848 29.1767C18.4374 29.1767 18.4374 29.1767 18.49 29.1221C18.5427 29.0676 18.5427 28.9584 18.49 28.9038L18.2269 28.6309C18.4374 28.5763 18.5953 28.5763 18.8058 28.5217L19.1215 28.9038C19.1215 28.9584 19.1741 28.9584 19.2267 28.9584C19.2794 28.9584 19.2794 28.9584 19.332 28.9038C19.3846 28.8492 19.3846 28.74 19.332 28.6854L19.1215 28.4671H19.332L19.753 28.9038C19.753 28.9038 19.8056 28.9584 19.8582 28.9584C19.9108 28.9584 19.9108 28.9584 19.9634 28.9038C20.0161 28.8492 20.0161 28.74 19.9634 28.6854L19.7003 28.4125H20.2265L20.5949 28.7946C20.5949 28.7946 20.6475 28.8492 20.7001 28.8492C20.7528 28.8492 20.7528 28.8492 20.8054 28.7946C20.858 28.74 20.858 28.6309 20.8054 28.5763L20.7001 28.4671C20.8054 28.4671 20.9106 28.4671 20.9632 28.5217L21.3316 28.9038C21.3316 28.9038 21.3842 28.9584 21.4368 28.9584C21.4895 28.9584 21.4895 28.9584 21.5421 28.9038C21.5947 28.8492 21.5947 28.74 21.5421 28.6854L21.4368 28.5763C21.5421 28.5763 21.6999 28.6309 21.8052 28.6309C21.8052 28.6309 21.8052 28.6854 21.8578 28.6854L22.1209 28.9584C22.1209 28.9584 22.1735 29.013 22.2262 29.013C22.2788 29.013 22.2788 29.013 22.3314 28.9584C22.384 28.9038 22.384 28.7946 22.3314 28.74L22.2262 28.6309C22.3314 28.6309 22.384 28.6854 22.4893 28.6854V28.74L22.7524 29.013C22.7524 29.013 22.805 29.0675 22.8576 29.0675C22.9102 29.0675 22.9102 29.0675 22.9629 29.013C23.0155 28.9584 23.0155 28.8492 22.9629 28.7946L22.4893 28.9038C22.5419 28.9038 22.6471 28.9584 22.6998 28.9584C22.6998 28.9584 22.6998 29.013 22.7524 29.013L22.9629 29.2313C22.9629 29.2313 23.0155 29.2859 23.0681 29.2859C23.1207 29.2859 23.1207 29.2859 23.1733 29.2313C23.226 29.1767 23.226 29.0675 23.1733 29.013L23.1207 28.9584C23.3312 29.013 23.4891 29.013 23.6996 29.0675C24.0679 29.1221 24.4363 29.1221 24.8046 29.0675H25.0151C25.0677 29.0675 25.173 29.013 25.173 28.9584C25.2782 28.9584 25.3834 28.9038 25.4361 28.9038C26.1201 28.6309 26.5937 28.085 26.6464 27.43C26.699 26.7749 26.3833 26.2291 25.9097 25.7924L32.4873 23.1722C33.0662 22.9539 33.6976 22.7355 34.1186 23.0631C34.5396 23.3906 34.5396 24.0456 34.2765 24.4823C34.0134 24.9736 33.4871 25.3557 32.9609 25.6832C30.6456 27.157 28.225 28.4125 25.8044 29.6134C20.1213 32.4519 18.5953 32.5065 14.2277 31.4693C13.0174 31.1964 11.8071 30.8689 10.5442 30.8143C7.07119 30.6505 3.54556 32.5065 1.54595 35.4541C1.4407 35.5633 1.49333 35.7271 1.59857 35.8362C1.70381 36 1.75643 36 1.80905 36C1.9143 36 1.96692 35.9454 2.01954 35.8908C3.91391 33.0523 7.28168 31.3056 10.5442 31.4693C11.7545 31.5239 12.9648 31.7969 14.1751 32.0698C18.7531 33.1615 20.3844 33.0523 26.1201 30.2139C28.4881 29.013 30.9613 27.7575 33.2767 26.2837C33.8555 25.9015 34.4343 25.5194 34.7501 24.8644C35.1184 24.2094 35.1184 23.2268 34.487 22.7355ZM26.1728 27.43C26.1201 27.9212 25.6992 28.3033 25.2782 28.4671C25.1203 28.5217 24.9625 28.5763 24.8046 28.5763C24.4889 28.5217 24.2258 28.4125 24.0153 28.2488C23.7522 27.9758 23.5943 27.5937 23.6996 27.2116C23.8048 26.7749 24.1732 26.502 24.4889 26.3928C24.8572 26.2837 25.2782 26.2837 25.6992 26.2837C25.9623 26.6112 26.2254 26.9933 26.1728 27.43Z"/>
</mask>
<path d="M34.487 22.7355C33.8555 22.2443 33.0662 22.4626 32.3295 22.7901L25.4361 25.5194L25.1203 25.3557C24.0153 24.919 22.8576 24.8644 21.6999 24.8098C17.6481 24.7007 17.9638 23.8273 15.6485 22.681C12.9122 21.3163 10.5442 22.2989 8.5446 23.0631L1.1776 26.0107C1.01973 26.0653 0.967112 26.2291 1.01973 26.3382C1.07235 26.502 1.23022 26.5566 1.33546 26.502L8.70246 23.5543C10.7021 22.7355 12.9122 21.8622 15.438 23.1177C17.7007 24.264 17.5429 25.1919 21.6999 25.3011C22.805 25.3557 23.8048 25.3557 24.8046 25.7378C24.6467 25.7378 24.4889 25.7924 24.331 25.847C23.7522 26.0653 23.3312 26.502 23.226 27.0479C23.1207 27.5391 23.2786 28.085 23.6469 28.4671C23.1733 28.4125 22.7524 28.3033 22.2788 28.2488C21.3842 28.085 20.437 27.8667 19.4898 27.9212C18.7531 27.9212 17.9638 28.1396 17.2797 28.2488C16.8062 28.3579 16.2799 28.4671 15.8063 28.5217C13.3331 28.8492 10.8073 28.0304 8.91295 26.3382C8.8077 26.2291 8.64984 26.2291 8.5446 26.3382C8.43935 26.4474 8.43935 26.6112 8.5446 26.7203C10.2285 28.2488 12.4912 29.1221 14.7013 29.1221C15.0696 29.1221 15.438 29.1221 15.8063 29.0675C15.9642 29.0675 16.1221 29.013 16.2799 29.013L16.8062 29.5588C16.8062 29.5588 16.8588 29.6134 16.9114 29.6134C16.964 29.6134 16.964 29.6134 17.0166 29.5588C17.0693 29.5042 17.0693 29.3951 17.0166 29.3405L16.6483 28.9584C16.8062 28.9038 16.964 28.9038 17.1219 28.8492L17.5429 29.2859C17.5429 29.2859 17.5955 29.3405 17.6481 29.3405C17.7007 29.3405 17.7007 29.3405 17.7533 29.2859C17.806 29.2313 17.806 29.1221 17.7533 29.0675L17.4902 28.7946C17.5955 28.74 17.7533 28.74 17.8586 28.6854L18.2796 29.1221C18.2796 29.1221 18.3322 29.1767 18.3848 29.1767C18.4374 29.1767 18.4374 29.1767 18.49 29.1221C18.5427 29.0676 18.5427 28.9584 18.49 28.9038L18.2269 28.6309C18.4374 28.5763 18.5953 28.5763 18.8058 28.5217L19.1215 28.9038C19.1215 28.9584 19.1741 28.9584 19.2267 28.9584C19.2794 28.9584 19.2794 28.9584 19.332 28.9038C19.3846 28.8492 19.3846 28.74 19.332 28.6854L19.1215 28.4671H19.332L19.753 28.9038C19.753 28.9038 19.8056 28.9584 19.8582 28.9584C19.9108 28.9584 19.9108 28.9584 19.9634 28.9038C20.0161 28.8492 20.0161 28.74 19.9634 28.6854L19.7003 28.4125H20.2265L20.5949 28.7946C20.5949 28.7946 20.6475 28.8492 20.7001 28.8492C20.7528 28.8492 20.7528 28.8492 20.8054 28.7946C20.858 28.74 20.858 28.6309 20.8054 28.5763L20.7001 28.4671C20.8054 28.4671 20.9106 28.4671 20.9632 28.5217L21.3316 28.9038C21.3316 28.9038 21.3842 28.9584 21.4368 28.9584C21.4895 28.9584 21.4895 28.9584 21.5421 28.9038C21.5947 28.8492 21.5947 28.74 21.5421 28.6854L21.4368 28.5763C21.5421 28.5763 21.6999 28.6309 21.8052 28.6309C21.8052 28.6309 21.8052 28.6854 21.8578 28.6854L22.1209 28.9584C22.1209 28.9584 22.1735 29.013 22.2262 29.013C22.2788 29.013 22.2788 29.013 22.3314 28.9584C22.384 28.9038 22.384 28.7946 22.3314 28.74L22.2262 28.6309C22.3314 28.6309 22.384 28.6854 22.4893 28.6854V28.74L22.7524 29.013C22.7524 29.013 22.805 29.0675 22.8576 29.0675C22.9102 29.0675 22.9102 29.0675 22.9629 29.013C23.0155 28.9584 23.0155 28.8492 22.9629 28.7946L22.4893 28.9038C22.5419 28.9038 22.6471 28.9584 22.6998 28.9584C22.6998 28.9584 22.6998 29.013 22.7524 29.013L22.9629 29.2313C22.9629 29.2313 23.0155 29.2859 23.0681 29.2859C23.1207 29.2859 23.1207 29.2859 23.1733 29.2313C23.226 29.1767 23.226 29.0675 23.1733 29.013L23.1207 28.9584C23.3312 29.013 23.4891 29.013 23.6996 29.0675C24.0679 29.1221 24.4363 29.1221 24.8046 29.0675H25.0151C25.0677 29.0675 25.173 29.013 25.173 28.9584C25.2782 28.9584 25.3834 28.9038 25.4361 28.9038C26.1201 28.6309 26.5937 28.085 26.6464 27.43C26.699 26.7749 26.3833 26.2291 25.9097 25.7924L32.4873 23.1722C33.0662 22.9539 33.6976 22.7355 34.1186 23.0631C34.5396 23.3906 34.5396 24.0456 34.2765 24.4823C34.0134 24.9736 33.4871 25.3557 32.9609 25.6832C30.6456 27.157 28.225 28.4125 25.8044 29.6134C20.1213 32.4519 18.5953 32.5065 14.2277 31.4693C13.0174 31.1964 11.8071 30.8689 10.5442 30.8143C7.07119 30.6505 3.54556 32.5065 1.54595 35.4541C1.4407 35.5633 1.49333 35.7271 1.59857 35.8362C1.70381 36 1.75643 36 1.80905 36C1.9143 36 1.96692 35.9454 2.01954 35.8908C3.91391 33.0523 7.28168 31.3056 10.5442 31.4693C11.7545 31.5239 12.9648 31.7969 14.1751 32.0698C18.7531 33.1615 20.3844 33.0523 26.1201 30.2139C28.4881 29.013 30.9613 27.7575 33.2767 26.2837C33.8555 25.9015 34.4343 25.5194 34.7501 24.8644C35.1184 24.2094 35.1184 23.2268 34.487 22.7355ZM26.1728 27.43C26.1201 27.9212 25.6992 28.3033 25.2782 28.4671C25.1203 28.5217 24.9625 28.5763 24.8046 28.5763C24.4889 28.5217 24.2258 28.4125 24.0153 28.2488C23.7522 27.9758 23.5943 27.5937 23.6996 27.2116C23.8048 26.7749 24.1732 26.502 24.4889 26.3928C24.8572 26.2837 25.2782 26.2837 25.6992 26.2837C25.9623 26.6112 26.2254 26.9933 26.1728 27.43Z" fill="#13519C"/>
<path d="M32.3295 22.7901L32.3663 22.8832L32.3701 22.8815L32.3295 22.7901ZM25.4361 25.5194L25.39 25.6082L25.4305 25.6292L25.4729 25.6124L25.4361 25.5194ZM25.1203 25.3557L25.1666 25.2665L25.1571 25.2627L25.1203 25.3557ZM21.6999 24.8098L21.7047 24.7099L21.7026 24.7099L21.6999 24.8098ZM15.6485 22.681L15.6039 22.7704L15.6041 22.7706L15.6485 22.681ZM8.5446 23.0631L8.50889 22.9696L8.50745 22.9702L8.5446 23.0631ZM1.1776 26.0107L1.21031 26.1053L1.21475 26.1036L1.1776 26.0107ZM1.01973 26.3382L1.11586 26.3073L1.10981 26.2948L1.01973 26.3382ZM1.33546 26.502L1.29813 26.4087L1.28942 26.4132L1.33546 26.502ZM8.70246 23.5543L8.73961 23.6472L8.74035 23.6469L8.70246 23.5543ZM15.438 23.1177L15.4832 23.0284L15.4825 23.0281L15.438 23.1177ZM21.6999 25.3011L21.7049 25.2012L21.7026 25.2011L21.6999 25.3011ZM24.8046 25.7378V25.8378L24.8403 25.6444L24.8046 25.7378ZM24.331 25.847L24.2983 25.7524L24.2957 25.7534L24.331 25.847ZM23.226 27.0479L23.3238 27.0688L23.3242 27.0668L23.226 27.0479ZM23.6469 28.4671L23.6355 28.5664L23.9124 28.5984L23.7189 28.3977L23.6469 28.4671ZM22.2788 28.2488L22.2607 28.3473L22.2673 28.3481L22.2788 28.2488ZM19.4898 27.9212V28.0214L19.4956 28.0211L19.4898 27.9212ZM17.2797 28.2488L17.264 28.1498L17.2573 28.1513L17.2797 28.2488ZM15.8063 28.5217L15.7949 28.4223L15.7932 28.4226L15.8063 28.5217ZM8.91295 26.3382L8.84075 26.4078L8.84633 26.4128L8.91295 26.3382ZM8.5446 26.7203L8.47244 26.7899L8.47739 26.7944L8.5446 26.7203ZM15.8063 29.0675V28.9675H15.799L15.7917 28.9686L15.8063 29.0675ZM16.2799 29.013L16.3519 28.9436L16.3224 28.913H16.2799V29.013ZM16.8062 29.5588L16.7342 29.6282L16.8062 29.5588ZM17.0166 29.3405L16.9446 29.4099L17.0166 29.3405ZM16.6483 28.9584L16.6156 28.8639L16.4676 28.915L16.5763 29.0278L16.6483 28.9584ZM17.1219 28.8492L17.1939 28.7798L17.1496 28.7338L17.0892 28.7547L17.1219 28.8492ZM17.5429 29.2859L17.4709 29.3553V29.3553L17.5429 29.2859ZM17.7533 29.0675L17.6813 29.137V29.137L17.7533 29.0675ZM17.4902 28.7946L17.4442 28.7058L17.3252 28.7675L17.4182 28.864L17.4902 28.7946ZM17.8586 28.6854L17.9306 28.616L17.8788 28.5623L17.8125 28.5967L17.8586 28.6854ZM18.2796 29.1221L18.2076 29.1915L18.2076 29.1915L18.2796 29.1221ZM18.49 28.9038L18.562 28.8344L18.49 28.9038ZM18.2269 28.6309L18.2018 28.5341L18.0361 28.577L18.1549 28.7003L18.2269 28.6309ZM18.8058 28.5217L18.8829 28.458L18.8423 28.4089L18.7807 28.4249L18.8058 28.5217ZM19.1215 28.9038H19.2215V28.8678L19.1986 28.8401L19.1215 28.9038ZM19.332 28.6854L19.26 28.7548L19.332 28.6854ZM19.1215 28.4671V28.3671H18.8862L19.0495 28.5365L19.1215 28.4671ZM19.332 28.4671L19.404 28.3977L19.3745 28.3671H19.332V28.4671ZM19.753 28.9038L19.825 28.8344V28.8344L19.753 28.9038ZM19.9634 28.6854L19.8914 28.7548L19.9634 28.6854ZM19.7003 28.4125V28.3125H19.465L19.6283 28.4819L19.7003 28.4125ZM20.2265 28.4125L20.2985 28.3431L20.269 28.3125H20.2265V28.4125ZM20.5949 28.7946L20.5229 28.864L20.5229 28.864L20.5949 28.7946ZM20.8054 28.5763L20.7334 28.6457H20.7334L20.8054 28.5763ZM20.7001 28.4671V28.3671H20.4648L20.6281 28.5365L20.7001 28.4671ZM20.9632 28.5217L20.8913 28.5911L20.9632 28.5217ZM21.3316 28.9038L21.4036 28.8344V28.8344L21.3316 28.9038ZM21.5421 28.6854L21.6141 28.616V28.616L21.5421 28.6854ZM21.4368 28.5763V28.4763H21.2015L21.3648 28.6457L21.4368 28.5763ZM21.8052 28.6309L21.9052 28.6309L21.9052 28.5309H21.8052V28.6309ZM21.8578 28.6854L21.9298 28.616L21.9003 28.5854H21.8578V28.6854ZM22.1209 28.9584L22.1929 28.889L22.1929 28.889L22.1209 28.9584ZM22.3314 28.74L22.2594 28.8094L22.3314 28.74ZM22.2262 28.6309V28.5309H21.9909L22.1542 28.7003L22.2262 28.6309ZM22.4893 28.6854H22.5893V28.5854H22.4893V28.6854ZM22.4893 28.74H22.3893V28.7804L22.4173 28.8094L22.4893 28.74ZM22.9629 28.7946L23.0349 28.7252L22.9956 28.6845L22.9404 28.6972L22.9629 28.7946ZM22.4893 28.9038L22.4668 28.8063L22.4893 29.0038V28.9038ZM22.6998 28.9584L22.7998 28.9584L22.7998 28.8584H22.6998V28.9584ZM22.9629 29.2313L22.8909 29.3007V29.3007L22.9629 29.2313ZM23.1733 29.013L23.1014 29.0824L23.1733 29.013ZM23.1207 28.9584L23.1458 28.8616L22.8027 28.7726L23.0487 29.0278L23.1207 28.9584ZM23.6996 29.0675L23.6743 29.1649L23.6849 29.1665L23.6996 29.0675ZM24.8046 29.0675V28.9675H24.7972L24.79 28.9686L24.8046 29.0675ZM25.173 28.9584V28.8584H25.073V28.9584H25.173ZM25.4361 28.9038V29.0038H25.4553L25.4731 28.9967L25.4361 28.9038ZM25.9097 25.7924L25.8727 25.6995L25.7251 25.7582L25.8419 25.8659L25.9097 25.7924ZM32.4873 23.1722L32.452 23.0787L32.4503 23.0793L32.4873 23.1722ZM34.2765 24.4823L34.1907 24.4306L34.1883 24.4351L34.2765 24.4823ZM32.9609 25.6832L32.9081 25.5983L32.9072 25.5988L32.9609 25.6832ZM25.8044 29.6134L25.76 29.5238L25.7597 29.5239L25.8044 29.6134ZM14.2277 31.4693L14.2508 31.372L14.2497 31.3718L14.2277 31.4693ZM10.5442 30.8143L10.5395 30.9142L10.5399 30.9142L10.5442 30.8143ZM1.54595 35.4541L1.61794 35.5235L1.62389 35.5174L1.6287 35.5103L1.54595 35.4541ZM1.59857 35.8362L1.68269 35.7822L1.67738 35.7739L1.67056 35.7668L1.59857 35.8362ZM2.01954 35.8908L2.09153 35.9602L2.09775 35.9538L2.10272 35.9463L2.01954 35.8908ZM10.5442 31.4693L10.5392 31.5692L10.5397 31.5692L10.5442 31.4693ZM14.1751 32.0698L14.1983 31.9725L14.1971 31.9722L14.1751 32.0698ZM26.1201 30.2139L26.1645 30.3035L26.1654 30.303L26.1201 30.2139ZM33.2767 26.2837L33.3304 26.368L33.3317 26.3671L33.2767 26.2837ZM34.7501 24.8644L34.6627 24.8153L34.66 24.821L34.7501 24.8644ZM26.1728 27.43L26.0735 27.418L26.0733 27.4193L26.1728 27.43ZM25.2782 28.4671L25.3109 28.5617L25.3145 28.5603L25.2782 28.4671ZM24.8046 28.5763L24.7876 28.6748L24.796 28.6763H24.8046V28.5763ZM24.0153 28.2488L23.9433 28.3182L23.9482 28.3233L23.9539 28.3277L24.0153 28.2488ZM23.6996 27.2116L23.796 27.2382L23.7968 27.235L23.6996 27.2116ZM24.4889 26.3928L24.4604 26.2969L24.4562 26.2983L24.4889 26.3928ZM25.6992 26.2837L25.7771 26.221L25.7471 26.1837H25.6992V26.2837ZM34.5484 22.6566C33.8664 22.1261 33.0237 22.372 32.2888 22.6988L32.3701 22.8815C33.1086 22.5532 33.8446 22.3625 34.4255 22.8145L34.5484 22.6566ZM32.2927 22.6972L25.3993 25.4265L25.4729 25.6124L32.3663 22.8831L32.2927 22.6972ZM25.4821 25.4307L25.1664 25.2669L25.0743 25.4445L25.39 25.6082L25.4821 25.4307ZM25.1571 25.2627C24.0341 24.8189 22.8597 24.7644 21.7047 24.7099L21.6952 24.9097C22.8556 24.9644 23.9965 25.0191 25.0836 25.4487L25.1571 25.2627ZM21.7026 24.7099C19.6831 24.6554 18.7668 24.4107 18.0694 24.0457C17.7175 23.8615 17.4197 23.6461 17.0573 23.3992C16.6961 23.1531 16.2775 22.8808 15.6929 22.5913L15.6041 22.7706C16.1771 23.0543 16.5873 23.321 16.9447 23.5645C17.3009 23.8072 17.6116 24.0318 17.9767 24.2229C18.7132 24.6085 19.6649 24.855 21.6973 24.9098L21.7026 24.7099ZM15.6931 22.5915C12.9123 21.2046 10.503 22.2075 8.5089 22.9697L8.58029 23.1565C10.5854 22.3902 12.912 21.428 15.6039 22.7704L15.6931 22.5915ZM8.50745 22.9702L1.14045 25.9179L1.21475 26.1036L8.58174 23.1559L8.50745 22.9702ZM1.14492 25.9162C0.932497 25.9897 0.850151 26.2167 0.929651 26.3817L1.10981 26.2948C1.08407 26.2414 1.10697 26.141 1.21028 26.1052L1.14492 25.9162ZM0.924528 26.3688C0.993429 26.5833 1.21388 26.6777 1.3815 26.5908L1.28942 26.4132C1.24655 26.4355 1.15128 26.4207 1.11494 26.3076L0.924528 26.3688ZM1.37261 26.5948L8.73961 23.6472L8.66531 23.4615L1.29831 26.4092L1.37261 26.5948ZM8.74035 23.6469C10.7428 22.8269 12.9123 21.9739 15.3935 23.2072L15.4825 23.0281C12.912 21.7504 10.6614 22.6441 8.66457 23.4618L8.74035 23.6469ZM15.3928 23.2069C15.9529 23.4906 16.3632 23.7607 16.7303 24.0098C17.0965 24.2583 17.4248 24.4894 17.8132 24.6874C18.5951 25.086 19.6119 25.3463 21.6973 25.4011L21.7026 25.2011C19.6309 25.1467 18.6481 24.8885 17.904 24.5092C17.5294 24.3182 17.213 24.0956 16.8426 23.8443C16.473 23.5936 16.0545 23.3179 15.4832 23.0284L15.3928 23.2069ZM21.695 25.401C22.8075 25.4559 23.7876 25.4562 24.7689 25.8312L24.8403 25.6444C23.822 25.2552 22.8025 25.2554 21.7049 25.2012L21.695 25.401ZM24.8046 25.6378C24.6269 25.6378 24.4527 25.6991 24.2983 25.7525L24.3637 25.9415C24.5251 25.8857 24.6666 25.8378 24.8046 25.8378V25.6378ZM24.2957 25.7534C23.6918 25.9812 23.241 26.4418 23.1278 27.0289L23.3242 27.0668C23.4214 26.5622 23.8125 26.1494 24.3663 25.9405L24.2957 25.7534ZM23.1282 27.0269C23.0157 27.552 23.1844 28.1314 23.5749 28.5365L23.7189 28.3977C23.3728 28.0386 23.2257 27.5263 23.3237 27.0688L23.1282 27.0269ZM23.6584 28.3678C23.4254 28.3409 23.2049 28.3006 22.9809 28.2596C22.7577 28.2187 22.5308 28.1771 22.2902 28.1494L22.2673 28.3481C22.5003 28.375 22.7208 28.4153 22.9449 28.4563C23.1681 28.4972 23.3949 28.5387 23.6355 28.5664L23.6584 28.3678ZM22.2968 28.1504C21.4092 27.9879 20.4465 27.7659 19.4841 27.8214L19.4956 28.0211C20.4276 27.9674 21.3592 28.1821 22.2608 28.3471L22.2968 28.1504ZM19.4898 27.8212C19.1124 27.8212 18.7239 27.8771 18.3472 27.9457C17.9657 28.0151 17.6059 28.0954 17.264 28.15L17.2955 28.3475C17.6377 28.2929 18.0146 28.2095 18.383 28.1424C18.7561 28.0745 19.1306 28.0212 19.4898 28.0212V27.8212ZM17.2573 28.1513C16.7846 28.2603 16.2628 28.3684 15.7949 28.4223L15.8178 28.621C16.2971 28.5658 16.8277 28.4556 17.3022 28.3462L17.2573 28.1513ZM15.7932 28.4226C13.3503 28.7461 10.8533 27.9374 8.97956 26.2637L8.84633 26.4128C10.7613 28.1234 13.316 28.9524 15.8195 28.6208L15.7932 28.4226ZM8.98494 26.2688C8.84037 26.1189 8.61717 26.1189 8.4726 26.2688L8.61659 26.4076C8.68251 26.3393 8.77504 26.3393 8.84095 26.4076L8.98494 26.2688ZM8.4726 26.2688C8.33002 26.4167 8.33002 26.6418 8.4726 26.7897L8.61659 26.6509C8.54869 26.5805 8.54869 26.4781 8.61659 26.4076L8.4726 26.2688ZM8.47739 26.7944C10.1794 28.3393 12.466 29.2221 14.7013 29.2221V29.0221C12.5164 29.0221 10.2776 28.1582 8.6118 26.6463L8.47739 26.7944ZM14.7013 29.2221C15.0685 29.2221 15.4442 29.2223 15.821 29.1665L15.7917 28.9686C15.4318 29.022 15.0708 29.0221 14.7013 29.0221V29.2221ZM15.8063 29.1675C15.8953 29.1675 15.9828 29.1522 16.0602 29.1388C16.1406 29.1249 16.2111 29.113 16.2799 29.113V28.913C16.191 28.913 16.1035 28.9283 16.0261 28.9417C15.9456 28.9556 15.8752 28.9675 15.8063 28.9675V29.1675ZM16.2079 29.0824L16.7342 29.6282L16.8781 29.4894L16.3519 28.9436L16.2079 29.0824ZM16.8062 29.5588C16.7342 29.6282 16.7342 29.6282 16.7342 29.6283C16.7342 29.6283 16.7342 29.6283 16.7342 29.6283C16.7343 29.6283 16.7343 29.6284 16.7343 29.6284C16.7344 29.6284 16.7344 29.6285 16.7345 29.6286C16.7346 29.6287 16.7347 29.6288 16.7349 29.629C16.7352 29.6293 16.7355 29.6296 16.7359 29.63C16.7367 29.6308 16.7377 29.6318 16.739 29.633C16.7414 29.6354 16.7447 29.6385 16.7488 29.6421C16.7567 29.6492 16.7682 29.6587 16.7822 29.6684C16.8067 29.6853 16.8539 29.7134 16.9114 29.7134V29.5134C16.9162 29.5134 16.9109 29.5142 16.8959 29.5039C16.8902 29.4999 16.8852 29.4958 16.8816 29.4926C16.8799 29.4911 16.8787 29.4899 16.8781 29.4893C16.8778 29.489 16.8776 29.4889 16.8776 29.4889C16.8776 29.4889 16.8777 29.4889 16.8777 29.489C16.8778 29.4891 16.8778 29.4891 16.8779 29.4892C16.8779 29.4892 16.878 29.4893 16.878 29.4893C16.878 29.4893 16.8781 29.4893 16.8781 29.4894C16.8781 29.4894 16.8781 29.4894 16.8781 29.4894C16.8781 29.4894 16.8781 29.4894 16.8062 29.5588ZM16.9114 29.7134C16.93 29.7134 16.9708 29.7157 17.0101 29.6954C17.0285 29.6858 17.0429 29.6735 17.0536 29.6635C17.0642 29.6536 17.0762 29.6411 17.0886 29.6282L16.9446 29.4894C16.9307 29.5038 16.923 29.5118 16.9172 29.5173C16.9115 29.5226 16.9127 29.5206 16.918 29.5178C16.921 29.5163 16.9243 29.515 16.9275 29.5141C16.9305 29.5133 16.9324 29.5131 16.9323 29.5131C16.9321 29.5131 16.9306 29.5132 16.9268 29.5133C16.9229 29.5134 16.9183 29.5134 16.9114 29.5134V29.7134ZM17.0886 29.6282C17.1373 29.5778 17.1561 29.5094 17.1561 29.4497C17.1561 29.3899 17.1373 29.3215 17.0886 29.2711L16.9446 29.4099C16.9486 29.414 16.9561 29.4276 16.9561 29.4497C16.9561 29.4718 16.9486 29.4853 16.9446 29.4894L17.0886 29.6282ZM17.0886 29.2711L16.7203 28.889L16.5763 29.0278L16.9446 29.4099L17.0886 29.2711ZM16.681 29.0529C16.751 29.0287 16.8221 29.0162 16.9021 29.0023C16.98 28.9889 17.0668 28.9741 17.1546 28.9437L17.0892 28.7547C17.0191 28.7789 16.9481 28.7914 16.8681 28.8053C16.7902 28.8187 16.7034 28.8335 16.6156 28.8639L16.681 29.0529ZM17.0499 28.9186L17.4709 29.3553L17.6149 29.2165L17.1939 28.7798L17.0499 28.9186ZM17.5429 29.2859C17.4709 29.3553 17.4709 29.3553 17.4709 29.3553C17.4709 29.3553 17.4709 29.3554 17.4709 29.3554C17.471 29.3554 17.471 29.3554 17.471 29.3554C17.4711 29.3555 17.4711 29.3556 17.4712 29.3556C17.4713 29.3557 17.4714 29.3559 17.4716 29.356C17.4719 29.3563 17.4722 29.3567 17.4726 29.3571C17.4734 29.3579 17.4744 29.3589 17.4757 29.3601C17.4781 29.3625 17.4814 29.3656 17.4855 29.3692C17.4934 29.3763 17.5049 29.3858 17.5189 29.3954C17.5434 29.4124 17.5906 29.4405 17.6481 29.4405V29.2405C17.6529 29.2405 17.6476 29.2413 17.6326 29.2309C17.6269 29.227 17.6219 29.2228 17.6183 29.2197C17.6166 29.2182 17.6154 29.217 17.6148 29.2164C17.6145 29.2161 17.6143 29.2159 17.6143 29.2159C17.6143 29.2159 17.6144 29.216 17.6144 29.2161C17.6145 29.2161 17.6145 29.2162 17.6146 29.2162C17.6146 29.2163 17.6147 29.2163 17.6147 29.2164C17.6147 29.2164 17.6148 29.2164 17.6148 29.2164C17.6148 29.2164 17.6148 29.2165 17.6148 29.2165C17.6148 29.2165 17.6148 29.2165 17.5429 29.2859ZM17.6481 29.4405C17.6667 29.4405 17.7075 29.4428 17.7468 29.4224C17.7652 29.4128 17.7796 29.4006 17.7903 29.3905C17.8009 29.3807 17.8129 29.3682 17.8253 29.3553L17.6813 29.2165C17.6674 29.2309 17.6597 29.2389 17.6539 29.2444C17.6482 29.2497 17.6494 29.2476 17.6547 29.2449C17.6577 29.2433 17.661 29.2421 17.6642 29.2412C17.6672 29.2403 17.6691 29.2402 17.669 29.2402C17.6688 29.2402 17.6673 29.2403 17.6635 29.2404C17.6596 29.2405 17.655 29.2405 17.6481 29.2405V29.4405ZM17.8253 29.3553C17.874 29.3048 17.8928 29.2365 17.8928 29.1767C17.8928 29.1169 17.874 29.0486 17.8253 28.9981L17.6813 29.137C17.6853 29.1411 17.6928 29.1546 17.6928 29.1767C17.6928 29.1988 17.6853 29.2124 17.6813 29.2165L17.8253 29.3553ZM17.8253 28.9981L17.5622 28.7252L17.4182 28.864L17.6813 29.137L17.8253 28.9981ZM17.5363 28.8834C17.5743 28.8637 17.6253 28.8523 17.6947 28.8379C17.7569 28.825 17.8374 28.8091 17.9046 28.7742L17.8125 28.5967C17.7746 28.6164 17.7235 28.6277 17.6541 28.6421C17.5919 28.655 17.5114 28.671 17.4442 28.7058L17.5363 28.8834ZM17.7866 28.7548L18.2076 29.1915L18.3515 29.0527L17.9306 28.616L17.7866 28.7548ZM18.2796 29.1221C18.2076 29.1915 18.2076 29.1916 18.2076 29.1916C18.2076 29.1916 18.2076 29.1916 18.2076 29.1916C18.2077 29.1916 18.2077 29.1917 18.2077 29.1917C18.2078 29.1917 18.2078 29.1918 18.2079 29.1919C18.208 29.192 18.2081 29.1921 18.2083 29.1923C18.2086 29.1926 18.2089 29.1929 18.2093 29.1933C18.2101 29.1941 18.2111 29.1951 18.2124 29.1963C18.2148 29.1987 18.2181 29.2018 18.2222 29.2054C18.2301 29.2125 18.2416 29.222 18.2556 29.2317C18.2801 29.2486 18.3273 29.2767 18.3848 29.2767V29.0767C18.3896 29.0767 18.3843 29.0775 18.3693 29.0672C18.3636 29.0632 18.3586 29.0591 18.355 29.0559C18.3533 29.0544 18.3521 29.0533 18.3515 29.0526C18.3512 29.0523 18.351 29.0522 18.351 29.0522C18.351 29.0522 18.3511 29.0522 18.3511 29.0523C18.3512 29.0524 18.3512 29.0524 18.3513 29.0525C18.3513 29.0525 18.3514 29.0526 18.3514 29.0526C18.3514 29.0526 18.3515 29.0526 18.3515 29.0527C18.3515 29.0527 18.3515 29.0527 18.3515 29.0527C18.3515 29.0527 18.3515 29.0527 18.2796 29.1221ZM18.3848 29.2767C18.4034 29.2767 18.4442 29.279 18.4835 29.2587C18.5019 29.2491 18.5163 29.2368 18.527 29.2268C18.5376 29.2169 18.5496 29.2044 18.562 29.1915L18.418 29.0527C18.4041 29.0672 18.3964 29.0751 18.3906 29.0806C18.3849 29.0859 18.3861 29.0839 18.3914 29.0811C18.3944 29.0796 18.3977 29.0783 18.4009 29.0774C18.4039 29.0766 18.4058 29.0764 18.4057 29.0764C18.4055 29.0764 18.404 29.0766 18.4002 29.0766C18.3963 29.0767 18.3917 29.0767 18.3848 29.0767V29.2767ZM18.562 29.1915C18.6107 29.1411 18.6295 29.0727 18.6295 29.013C18.6295 28.9532 18.6107 28.8848 18.562 28.8344L18.418 28.9732C18.422 28.9773 18.4295 28.9909 18.4295 29.013C18.4295 29.0351 18.422 29.0486 18.418 29.0527L18.562 29.1915ZM18.562 28.8344L18.2989 28.5615L18.1549 28.7003L18.418 28.9732L18.562 28.8344ZM18.252 28.7277C18.3515 28.7019 18.4387 28.6889 18.531 28.6752C18.6228 28.6616 18.7198 28.6473 18.8309 28.6185L18.7807 28.4249C18.6812 28.4507 18.594 28.4637 18.5017 28.4774C18.4099 28.491 18.3129 28.5053 18.2018 28.5341L18.252 28.7277ZM18.7287 28.5854L19.0444 28.9675L19.1986 28.8401L18.8829 28.458L18.7287 28.5854ZM19.0215 28.9038C19.0215 28.9339 19.029 28.9667 19.0505 28.9953C19.0716 29.0235 19.0991 29.0382 19.1217 29.0461C19.1608 29.0596 19.2063 29.0584 19.2267 29.0584V28.8584C19.2128 28.8584 19.2033 28.8583 19.195 28.8578C19.1865 28.8572 19.1849 28.8563 19.1871 28.857C19.19 28.858 19.201 28.8626 19.2106 28.8754C19.2205 28.8887 19.2215 28.9009 19.2215 28.9038H19.0215ZM19.2267 29.0584C19.2453 29.0584 19.2861 29.0607 19.3254 29.0403C19.3439 29.0307 19.3582 29.0185 19.369 29.0084C19.3796 28.9985 19.3916 28.9861 19.404 28.9732L19.26 28.8344C19.2461 28.8488 19.2383 28.8568 19.2325 28.8623C19.2268 28.8676 19.228 28.8655 19.2333 28.8628C19.2363 28.8612 19.2396 28.8599 19.2428 28.8591C19.2458 28.8582 19.2477 28.8581 19.2477 28.8581C19.2474 28.8581 19.246 28.8582 19.2421 28.8583C19.2382 28.8584 19.2336 28.8584 19.2267 28.8584V29.0584ZM19.404 28.9732C19.4526 28.9227 19.4714 28.8544 19.4714 28.7946C19.4714 28.7348 19.4526 28.6665 19.404 28.616L19.26 28.7548C19.264 28.759 19.2714 28.7725 19.2714 28.7946C19.2714 28.8167 19.264 28.8303 19.26 28.8344L19.404 28.9732ZM19.404 28.616L19.1935 28.3977L19.0495 28.5365L19.26 28.7548L19.404 28.616ZM19.1215 28.5671H19.332V28.3671H19.1215V28.5671ZM19.26 28.5365L19.681 28.9732L19.825 28.8344L19.404 28.3977L19.26 28.5365ZM19.753 28.9038C19.681 28.9732 19.681 28.9732 19.681 28.9732C19.681 28.9732 19.681 28.9733 19.681 28.9733C19.6811 28.9733 19.6811 28.9733 19.6811 28.9733C19.6812 28.9734 19.6812 28.9735 19.6813 28.9735C19.6814 28.9736 19.6815 28.9738 19.6817 28.9739C19.682 28.9742 19.6823 28.9746 19.6827 28.975C19.6835 28.9758 19.6845 28.9768 19.6858 28.978C19.6882 28.9803 19.6915 28.9835 19.6956 28.9871C19.7035 28.9942 19.715 29.0037 19.729 29.0133C19.7535 29.0303 19.8007 29.0584 19.8582 29.0584V28.8584C19.863 28.8584 19.8577 28.8592 19.8427 28.8488C19.837 28.8449 19.832 28.8407 19.8284 28.8376C19.8267 28.8361 19.8255 28.8349 19.8249 28.8343C19.8246 28.834 19.8244 28.8338 19.8244 28.8338C19.8244 28.8338 19.8245 28.8339 19.8245 28.834C19.8246 28.834 19.8246 28.8341 19.8247 28.8341C19.8247 28.8342 19.8248 28.8342 19.8248 28.8343C19.8248 28.8343 19.8249 28.8343 19.8249 28.8343C19.8249 28.8343 19.8249 28.8343 19.8249 28.8344C19.8249 28.8344 19.825 28.8344 19.753 28.9038ZM19.8582 29.0584C19.8768 29.0584 19.9176 29.0607 19.9569 29.0403C19.9753 29.0307 19.9897 29.0185 20.0004 29.0084C20.011 28.9985 20.023 28.9861 20.0354 28.9732L19.8914 28.8344C19.8775 28.8488 19.8698 28.8568 19.864 28.8623C19.8583 28.8676 19.8595 28.8655 19.8648 28.8628C19.8678 28.8612 19.8711 28.8599 19.8743 28.8591C19.8773 28.8582 19.8792 28.8581 19.8791 28.8581C19.8789 28.8581 19.8774 28.8582 19.8736 28.8583C19.8697 28.8584 19.8651 28.8584 19.8582 28.8584V29.0584ZM20.0354 28.9732C20.0841 28.9227 20.1029 28.8544 20.1029 28.7946C20.1029 28.7348 20.0841 28.6665 20.0354 28.616L19.8914 28.7548C19.8954 28.759 19.9029 28.7725 19.9029 28.7946C19.9029 28.8167 19.8954 28.8303 19.8914 28.8344L20.0354 28.9732ZM20.0354 28.616L19.7723 28.3431L19.6283 28.4819L19.8914 28.7548L20.0354 28.616ZM19.7003 28.5125H20.2265V28.3125H19.7003V28.5125ZM20.1546 28.4819L20.5229 28.864L20.6669 28.7252L20.2985 28.3431L20.1546 28.4819ZM20.5949 28.7946C20.5229 28.864 20.5229 28.864 20.5229 28.8641C20.5229 28.8641 20.523 28.8641 20.523 28.8641C20.523 28.8641 20.523 28.8641 20.523 28.8642C20.5231 28.8642 20.5232 28.8643 20.5232 28.8643C20.5233 28.8645 20.5235 28.8646 20.5236 28.8648C20.5239 28.865 20.5243 28.8654 20.5247 28.8658C20.5255 28.8666 20.5265 28.8676 20.5277 28.8688C20.5301 28.8712 20.5334 28.8743 20.5375 28.8779C20.5455 28.885 20.5569 28.8945 20.5709 28.9042C20.5954 28.9211 20.6427 28.9492 20.7001 28.9492V28.7492C20.705 28.7492 20.6996 28.75 20.6847 28.7397C20.6789 28.7357 20.6739 28.7316 20.6704 28.7284C20.6687 28.7269 20.6675 28.7257 20.6668 28.7251C20.6665 28.7248 20.6663 28.7247 20.6663 28.7247C20.6664 28.7247 20.6664 28.7247 20.6665 28.7248C20.6665 28.7248 20.6666 28.7249 20.6667 28.725C20.6667 28.725 20.6667 28.725 20.6668 28.7251C20.6668 28.7251 20.6668 28.7251 20.6668 28.7251C20.6668 28.7252 20.6669 28.7252 20.6669 28.7252C20.6669 28.7252 20.6669 28.7252 20.5949 28.7946ZM20.7001 28.9492C20.7187 28.9492 20.7595 28.9515 20.7988 28.9311C20.8173 28.9216 20.8316 28.9093 20.8424 28.8993C20.853 28.8894 20.865 28.8769 20.8774 28.864L20.7334 28.7252C20.7195 28.7396 20.7117 28.7476 20.7059 28.7531C20.7002 28.7584 20.7014 28.7564 20.7067 28.7536C20.7097 28.7521 20.713 28.7508 20.7162 28.7499C20.7192 28.7491 20.7211 28.7489 20.7211 28.7489C20.7208 28.7489 20.7194 28.749 20.7155 28.7491C20.7116 28.7492 20.707 28.7492 20.7001 28.7492V28.9492ZM20.8774 28.864C20.926 28.8136 20.9449 28.7452 20.9449 28.6854C20.9449 28.6257 20.926 28.5573 20.8774 28.5069L20.7334 28.6457C20.7374 28.6498 20.7449 28.6633 20.7449 28.6854C20.7449 28.7075 20.7374 28.7211 20.7334 28.7252L20.8774 28.864ZM20.8774 28.5069L20.7721 28.3977L20.6281 28.5365L20.7334 28.6457L20.8774 28.5069ZM20.7001 28.5671C20.7547 28.5671 20.7994 28.5673 20.8368 28.5728C20.8751 28.5785 20.8879 28.5876 20.8913 28.5911L21.0352 28.4523C20.986 28.4012 20.9198 28.383 20.8661 28.375C20.8113 28.3669 20.7508 28.3671 20.7001 28.3671V28.5671ZM20.8913 28.5911L21.2596 28.9732L21.4036 28.8344L21.0352 28.4523L20.8913 28.5911ZM21.3316 28.9038C21.2596 28.9732 21.2596 28.9732 21.2596 28.9732C21.2596 28.9732 21.2597 28.9733 21.2597 28.9733C21.2597 28.9733 21.2597 28.9733 21.2598 28.9733C21.2598 28.9734 21.2599 28.9735 21.2599 28.9735C21.26 28.9736 21.2602 28.9738 21.2603 28.9739C21.2606 28.9742 21.261 28.9746 21.2614 28.975C21.2622 28.9758 21.2632 28.9768 21.2644 28.978C21.2668 28.9803 21.2701 28.9835 21.2742 28.9871C21.2822 28.9942 21.2936 29.0037 21.3076 29.0133C21.3321 29.0303 21.3794 29.0584 21.4368 29.0584V28.8584C21.4417 28.8584 21.4363 28.8592 21.4214 28.8488C21.4156 28.8449 21.4106 28.8407 21.4071 28.8376C21.4054 28.8361 21.4042 28.8349 21.4035 28.8343C21.4032 28.834 21.403 28.8338 21.403 28.8338C21.4031 28.8338 21.4031 28.8339 21.4032 28.834C21.4032 28.834 21.4033 28.8341 21.4034 28.8341C21.4034 28.8342 21.4034 28.8342 21.4035 28.8343C21.4035 28.8343 21.4035 28.8343 21.4035 28.8343C21.4035 28.8343 21.4036 28.8343 21.4036 28.8344C21.4036 28.8344 21.4036 28.8344 21.3316 28.9038ZM21.4368 29.0584C21.4554 29.0584 21.4962 29.0607 21.5355 29.0403C21.554 29.0307 21.5683 29.0185 21.5791 29.0084C21.5897 28.9985 21.6017 28.9861 21.6141 28.9732L21.4701 28.8344C21.4562 28.8488 21.4484 28.8568 21.4426 28.8623C21.4369 28.8676 21.4381 28.8655 21.4434 28.8628C21.4464 28.8612 21.4497 28.8599 21.4529 28.8591C21.4559 28.8582 21.4578 28.8581 21.4578 28.8581C21.4575 28.8581 21.4561 28.8582 21.4522 28.8583C21.4483 28.8584 21.4437 28.8584 21.4368 28.8584V29.0584ZM21.6141 28.9732C21.6627 28.9227 21.6815 28.8544 21.6815 28.7946C21.6815 28.7348 21.6627 28.6665 21.6141 28.616L21.4701 28.7548C21.4741 28.759 21.4815 28.7725 21.4815 28.7946C21.4815 28.8167 21.4741 28.8303 21.4701 28.8344L21.6141 28.9732ZM21.6141 28.616L21.5088 28.5069L21.3648 28.6457L21.4701 28.7548L21.6141 28.616ZM21.4368 28.6763C21.4769 28.6763 21.5314 28.6871 21.6007 28.7015C21.663 28.7144 21.7401 28.7309 21.8052 28.7309V28.5309C21.7651 28.5309 21.7106 28.52 21.6413 28.5057C21.5791 28.4927 21.502 28.4763 21.4368 28.4763V28.6763ZM21.8052 28.6309C21.7052 28.6309 21.7052 28.6309 21.7052 28.631C21.7052 28.631 21.7052 28.631 21.7052 28.6311C21.7052 28.6311 21.7052 28.6312 21.7052 28.6313C21.7052 28.6314 21.7052 28.6315 21.7052 28.6317C21.7052 28.632 21.7052 28.6323 21.7052 28.6326C21.7052 28.6332 21.7052 28.6339 21.7053 28.6347C21.7053 28.6362 21.7054 28.638 21.7055 28.6401C21.7058 28.6441 21.7063 28.6493 21.7073 28.6553C21.7091 28.6667 21.713 28.6835 21.7217 28.7016C21.7306 28.72 21.7456 28.7419 21.7705 28.7592C21.7962 28.777 21.8264 28.7854 21.8578 28.7854V28.5854C21.8629 28.5854 21.8733 28.5871 21.8843 28.5947C21.8944 28.6017 21.8996 28.61 21.9018 28.6147C21.904 28.6192 21.9046 28.6223 21.9047 28.6235C21.9049 28.6244 21.905 28.6253 21.9051 28.6263C21.9051 28.6269 21.9051 28.6275 21.9051 28.6283C21.9052 28.6286 21.9052 28.629 21.9052 28.6295C21.9052 28.6297 21.9052 28.6299 21.9052 28.6301C21.9052 28.6302 21.9052 28.6304 21.9052 28.6305C21.9052 28.6305 21.9052 28.6306 21.9052 28.6307C21.9052 28.6307 21.9052 28.6307 21.9052 28.6308C21.9052 28.6308 21.9052 28.6309 21.8052 28.6309ZM21.7858 28.7548L22.0489 29.0278L22.1929 28.889L21.9298 28.616L21.7858 28.7548ZM22.1209 28.9584C22.0489 29.0278 22.0489 29.0278 22.049 29.0278C22.049 29.0278 22.049 29.0278 22.049 29.0278C22.049 29.0279 22.049 29.0279 22.0491 29.0279C22.0491 29.028 22.0492 29.028 22.0492 29.0281C22.0494 29.0282 22.0495 29.0284 22.0496 29.0285C22.0499 29.0288 22.0503 29.0292 22.0507 29.0296C22.0515 29.0304 22.0525 29.0314 22.0537 29.0326C22.0562 29.0349 22.0595 29.038 22.0635 29.0416C22.0715 29.0487 22.0829 29.0582 22.0969 29.0679C22.1214 29.0849 22.1687 29.113 22.2262 29.113V28.913C22.231 28.913 22.2256 28.9138 22.2107 28.9034C22.2049 28.8994 22.1999 28.8953 22.1964 28.8922C22.1947 28.8907 22.1935 28.8895 22.1928 28.8889C22.1925 28.8886 22.1924 28.8884 22.1924 28.8884C22.1924 28.8884 22.1924 28.8885 22.1925 28.8886C22.1926 28.8886 22.1926 28.8887 22.1927 28.8887C22.1927 28.8888 22.1927 28.8888 22.1928 28.8888C22.1928 28.8889 22.1928 28.8889 22.1929 28.8889C22.1929 28.8889 22.1929 28.8889 22.1929 28.8889C22.1929 28.889 22.1929 28.889 22.1209 28.9584ZM22.2262 29.113C22.2447 29.113 22.2855 29.1153 22.3248 29.0949C22.3433 29.0853 22.3576 29.0731 22.3684 29.063C22.379 29.0531 22.391 29.0407 22.4034 29.0278L22.2594 28.889C22.2455 28.9034 22.2378 28.9114 22.2319 28.9168C22.2262 28.9221 22.2274 28.9201 22.2327 28.9174C22.2357 28.9158 22.239 28.9145 22.2422 28.9137C22.2452 28.9128 22.2471 28.9126 22.2471 28.9126C22.2468 28.9127 22.2454 28.9128 22.2416 28.9129C22.2377 28.913 22.233 28.913 22.2262 28.913V29.113ZM22.4034 29.0278C22.452 28.9773 22.4709 28.909 22.4709 28.8492C22.4709 28.7894 22.452 28.7211 22.4034 28.6706L22.2594 28.8094C22.2634 28.8136 22.2709 28.8271 22.2709 28.8492C22.2709 28.8713 22.2634 28.8848 22.2594 28.889L22.4034 29.0278ZM22.4034 28.6706L22.2982 28.5615L22.1542 28.7003L22.2594 28.8094L22.4034 28.6706ZM22.2262 28.7309C22.2603 28.7309 22.2855 28.739 22.325 28.7527C22.3645 28.7663 22.4182 28.7854 22.4893 28.7854V28.5854C22.4551 28.5854 22.4299 28.5773 22.3904 28.5636C22.3509 28.55 22.2973 28.5309 22.2262 28.5309V28.7309ZM22.3893 28.6854V28.74H22.5893V28.6854H22.3893ZM22.4173 28.8094L22.6804 29.0824L22.8244 28.9436L22.5613 28.6706L22.4173 28.8094ZM22.7524 29.013C22.6804 29.0824 22.6804 29.0824 22.6804 29.0824C22.6804 29.0824 22.6804 29.0824 22.6805 29.0824C22.6805 29.0825 22.6805 29.0825 22.6805 29.0825C22.6806 29.0826 22.6806 29.0826 22.6807 29.0827C22.6808 29.0828 22.6809 29.0829 22.6811 29.0831C22.6814 29.0834 22.6817 29.0837 22.6821 29.0842C22.6829 29.085 22.684 29.086 22.6852 29.0872C22.6876 29.0895 22.6909 29.0926 22.695 29.0962C22.703 29.1033 22.7144 29.1128 22.7284 29.1225C22.7529 29.1395 22.8002 29.1675 22.8576 29.1675V28.9675C22.8624 28.9675 22.8571 28.9683 22.8421 28.958C22.8364 28.954 22.8314 28.9499 22.8279 28.9468C22.8262 28.9452 22.8249 28.9441 22.8243 28.9435C22.824 28.9432 22.8238 28.943 22.8238 28.943C22.8238 28.943 22.8239 28.9431 22.824 28.9431C22.824 28.9432 22.8241 28.9432 22.8241 28.9433C22.8242 28.9434 22.8242 28.9434 22.8242 28.9434C22.8243 28.9434 22.8243 28.9435 22.8243 28.9435C22.8243 28.9435 22.8243 28.9435 22.8243 28.9435C22.8244 28.9435 22.8244 28.9436 22.7524 29.013ZM22.8576 29.1675C22.8762 29.1675 22.917 29.1699 22.9563 29.1495C22.9747 29.1399 22.9891 29.1277 22.9999 29.1176C23.0105 29.1077 23.0224 29.0952 23.0349 29.0824L22.8909 28.9436C22.877 28.958 22.8692 28.966 22.8634 28.9714C22.8577 28.9767 22.8589 28.9747 22.8642 28.972C22.8672 28.9704 22.8705 28.9691 22.8737 28.9682C22.8767 28.9674 22.8786 28.9672 22.8785 28.9672C22.8783 28.9673 22.8768 28.9674 22.873 28.9675C22.8691 28.9675 22.8645 28.9675 22.8576 28.9675V29.1675ZM23.0349 29.0824C23.0835 29.0319 23.1023 28.9636 23.1023 28.9038C23.1023 28.844 23.0835 28.7757 23.0349 28.7252L22.8909 28.864C22.8948 28.8682 22.9023 28.8817 22.9023 28.9038C22.9023 28.9259 22.8948 28.9394 22.8909 28.9436L23.0349 29.0824ZM22.9404 28.6972L22.4668 28.8063L22.5117 29.0012L22.9853 28.8921L22.9404 28.6972ZM22.4893 29.0038C22.488 29.0038 22.4935 29.004 22.5097 29.0085C22.5245 29.0127 22.5414 29.0185 22.5618 29.0256C22.5809 29.0322 22.6035 29.04 22.6248 29.0461C22.6448 29.0517 22.6722 29.0584 22.6998 29.0584V28.8584C22.701 28.8584 22.6955 28.8582 22.6793 28.8536C22.6645 28.8494 22.6476 28.8436 22.6272 28.8366C22.6081 28.83 22.5855 28.8221 22.5642 28.8161C22.5442 28.8104 22.5168 28.8038 22.4893 28.8038V29.0038ZM22.6998 28.9584C22.5998 28.9584 22.5998 28.9584 22.5998 28.9585C22.5998 28.9585 22.5998 28.9585 22.5998 28.9586C22.5998 28.9586 22.5998 28.9587 22.5998 28.9588C22.5998 28.9589 22.5998 28.959 22.5998 28.9592C22.5998 28.9595 22.5998 28.9598 22.5998 28.9601C22.5998 28.9607 22.5998 28.9614 22.5998 28.9622C22.5999 28.9637 22.6 28.9655 22.6001 28.9676C22.6004 28.9716 22.6009 28.9768 22.6018 28.9828C22.6037 28.9942 22.6075 29.011 22.6162 29.0291C22.6251 29.0475 22.6402 29.0694 22.6651 29.0867C22.6908 29.1045 22.721 29.113 22.7524 29.113V28.913C22.7575 28.913 22.7679 28.9146 22.7788 28.9222C22.789 28.9292 22.7941 28.9375 22.7964 28.9423C22.7986 28.9467 22.7991 28.9499 22.7993 28.951C22.7994 28.9519 22.7995 28.9528 22.7996 28.9539C22.7997 28.9544 22.7997 28.955 22.7997 28.9558C22.7997 28.9561 22.7997 28.9565 22.7997 28.957C22.7997 28.9572 22.7997 28.9574 22.7998 28.9577C22.7998 28.9578 22.7998 28.9579 22.7998 28.958C22.7998 28.9581 22.7998 28.9581 22.7998 28.9582C22.7998 28.9582 22.7998 28.9583 22.7998 28.9583C22.7998 28.9583 22.7998 28.9584 22.6998 28.9584ZM22.6804 29.0824L22.8909 29.3007L23.0349 29.1619L22.8244 28.9436L22.6804 29.0824ZM22.9629 29.2313C22.8909 29.3007 22.8909 29.3007 22.8909 29.3007C22.8909 29.3008 22.8909 29.3008 22.8909 29.3008C22.891 29.3008 22.891 29.3008 22.891 29.3009C22.8911 29.3009 22.8911 29.301 22.8912 29.301C22.8913 29.3012 22.8914 29.3013 22.8916 29.3014C22.8919 29.3017 22.8922 29.3021 22.8926 29.3025C22.8934 29.3033 22.8944 29.3043 22.8957 29.3055C22.8981 29.3079 22.9014 29.311 22.9055 29.3146C22.9134 29.3217 22.9249 29.3312 22.9389 29.3408C22.9634 29.3578 23.0106 29.3859 23.0681 29.3859V29.1859C23.0729 29.1859 23.0676 29.1867 23.0526 29.1764C23.0469 29.1724 23.0419 29.1682 23.0384 29.1651C23.0366 29.1636 23.0354 29.1624 23.0348 29.1618C23.0345 29.1615 23.0343 29.1613 23.0343 29.1613C23.0343 29.1613 23.0344 29.1614 23.0345 29.1615C23.0345 29.1615 23.0346 29.1616 23.0346 29.1617C23.0347 29.1617 23.0347 29.1617 23.0347 29.1618C23.0347 29.1618 23.0348 29.1618 23.0348 29.1618C23.0348 29.1618 23.0348 29.1619 23.0348 29.1619C23.0348 29.1619 23.0349 29.1619 22.9629 29.2313ZM23.0681 29.3859C23.0867 29.3859 23.1275 29.3882 23.1668 29.3678C23.1852 29.3583 23.1996 29.346 23.2103 29.336C23.2209 29.3261 23.2329 29.3136 23.2453 29.3007L23.1014 29.1619C23.0875 29.1763 23.0797 29.1843 23.0739 29.1898C23.0682 29.1951 23.0694 29.1931 23.0747 29.1903C23.0777 29.1887 23.081 29.1875 23.0842 29.1866C23.0872 29.1858 23.0891 29.1856 23.089 29.1856C23.0888 29.1856 23.0873 29.1857 23.0835 29.1858C23.0796 29.1859 23.075 29.1859 23.0681 29.1859V29.3859ZM23.2453 29.3007C23.294 29.2503 23.3128 29.1819 23.3128 29.1221C23.3128 29.0624 23.294 28.994 23.2453 28.9436L23.1014 29.0824C23.1053 29.0865 23.1128 29.1 23.1128 29.1221C23.1128 29.1442 23.1053 29.1578 23.1014 29.1619L23.2453 29.3007ZM23.2453 28.9436L23.1927 28.889L23.0487 29.0278L23.1014 29.0824L23.2453 28.9436ZM23.0956 29.0552C23.2067 29.084 23.3037 29.0983 23.3955 29.1119C23.4878 29.1256 23.575 29.1386 23.6745 29.1643L23.7247 28.9708C23.6136 28.942 23.5166 28.9277 23.4248 28.914C23.3325 28.9004 23.2453 28.8874 23.1458 28.8616L23.0956 29.0552ZM23.6849 29.1665C24.063 29.2225 24.4412 29.2225 24.8193 29.1665L24.79 28.9686C24.4313 29.0218 24.0729 29.0218 23.7142 28.9686L23.6849 29.1665ZM24.8046 29.1675H25.0151V28.9675H24.8046V29.1675ZM25.0151 29.1675C25.0669 29.1675 25.1249 29.1443 25.1666 29.1183C25.189 29.1044 25.2129 29.0859 25.2324 29.0626C25.2512 29.0401 25.273 29.0044 25.273 28.9584H25.073C25.073 28.9397 25.0816 28.9312 25.079 28.9343C25.0771 28.9366 25.0714 28.942 25.0609 28.9485C25.0509 28.9548 25.0396 28.9601 25.0293 28.9637C25.0179 28.9676 25.0131 28.9675 25.0151 28.9675V29.1675ZM25.173 29.0584C25.2411 29.0584 25.3057 29.0409 25.3527 29.027C25.3787 29.0192 25.3962 29.0136 25.4137 29.0088C25.4317 29.004 25.4372 29.0038 25.4361 29.0038V28.8038C25.4087 28.8038 25.3812 28.8104 25.3614 28.8158C25.3411 28.8213 25.3158 28.8293 25.2958 28.8352C25.2507 28.8486 25.21 28.8584 25.173 28.8584V29.0584ZM25.4731 28.9967C26.1835 28.7133 26.6897 28.1397 26.746 27.438L26.5467 27.422C26.4978 28.0303 26.0568 28.5485 25.399 28.8109L25.4731 28.9967ZM26.746 27.438C26.802 26.7419 26.4647 26.1681 25.9774 25.7189L25.8419 25.8659C26.3018 26.29 26.596 26.8079 26.5467 27.422L26.746 27.438ZM25.9467 25.8853L32.5243 23.2651L32.4503 23.0793L25.8727 25.6995L25.9467 25.8853ZM32.5226 23.2658C32.8132 23.1562 33.106 23.0511 33.3765 23.0119C33.6461 22.9729 33.877 23.0018 34.0572 23.142L34.18 22.9841C33.9392 22.7968 33.644 22.7711 33.3478 22.814C33.0527 22.8567 32.7403 22.9699 32.452 23.0787L32.5226 23.2658ZM34.0572 23.142C34.2407 23.2847 34.3363 23.5015 34.3543 23.7393C34.3725 23.9779 34.3117 24.2301 34.1908 24.4307L34.3621 24.5339C34.5044 24.2978 34.5751 24.0042 34.5538 23.7242C34.5324 23.4434 34.4175 23.1689 34.18 22.9841L34.0572 23.142ZM34.1883 24.4351C33.9391 24.9005 33.4346 25.2706 32.9081 25.5983L33.0138 25.7681C33.5397 25.4408 34.0876 25.0467 34.3646 24.5295L34.1883 24.4351ZM32.9072 25.5988C30.5965 27.0697 28.1798 28.3233 25.76 29.5238L25.8489 29.703C28.2702 28.5017 30.6947 27.2443 33.0146 25.7676L32.9072 25.5988ZM25.7597 29.5239C22.9186 30.943 21.1289 31.6595 19.5083 31.8958C17.8906 32.1317 16.4331 31.8903 14.2508 31.372L14.2046 31.5666C16.3899 32.0856 17.8792 32.3354 19.5372 32.0937C21.1923 31.8524 23.0071 31.1224 25.8491 29.7029L25.7597 29.5239ZM14.2497 31.3718C13.0453 31.1002 11.8229 30.7695 10.5485 30.7144L10.5399 30.9142C11.7913 30.9683 12.9895 31.2926 14.2057 31.5669L14.2497 31.3718ZM10.5489 30.7144C7.03891 30.5489 3.48108 32.4234 1.46319 35.398L1.6287 35.5103C3.61004 32.5896 7.10348 30.7522 10.5395 30.9142L10.5489 30.7144ZM1.47395 35.3847C1.39475 35.4669 1.37699 35.57 1.39513 35.6641C1.41271 35.7553 1.46359 35.8403 1.52657 35.9056L1.67056 35.7668C1.6283 35.723 1.60025 35.6716 1.59152 35.6263C1.58335 35.5839 1.5919 35.5506 1.61794 35.5235L1.47395 35.3847ZM1.51444 35.8903C1.56969 35.9763 1.61887 36.0322 1.6707 36.0644C1.72894 36.1007 1.77983 36.1 1.80905 36.1V35.9C1.78566 35.9 1.78393 35.8993 1.77639 35.8946C1.76244 35.886 1.73269 35.86 1.68269 35.7822L1.51444 35.8903ZM1.80905 36.1C1.95972 36.1 2.0384 36.0153 2.09153 35.9602L1.94755 35.8214C1.89543 35.8755 1.86887 35.9 1.80905 35.9V36.1ZM2.10272 35.9463C3.97861 33.1355 7.3137 31.4073 10.5392 31.5692L10.5492 31.3695C7.24966 31.2039 3.84921 32.9692 1.93636 35.8353L2.10272 35.9463ZM10.5397 31.5692C11.7396 31.6234 12.9412 31.894 14.1531 32.1673L14.1971 31.9722C12.9884 31.6997 11.7694 31.4245 10.5487 31.3694L10.5397 31.5692ZM14.1519 32.1671C16.443 32.7134 18.0109 32.9631 19.7278 32.7146C21.442 32.4665 23.2961 31.723 26.1645 30.3035L26.0758 30.1242C23.2084 31.5432 21.3791 32.2735 19.6992 32.5167C18.022 32.7595 16.4852 32.5179 14.1983 31.9725L14.1519 32.1671ZM26.1654 30.303C28.5327 29.1025 31.0102 27.8449 33.3304 26.368L33.223 26.1993C30.9124 27.6701 28.4436 28.9234 26.0749 30.1247L26.1654 30.303ZM33.3317 26.3671C33.9068 25.9875 34.5106 25.5916 34.8401 24.9078L34.66 24.821C34.3581 25.4473 33.8042 25.8156 33.2216 26.2002L33.3317 26.3671ZM34.8372 24.9134C35.0311 24.5686 35.1277 24.1392 35.0931 23.7301C35.0584 23.3204 34.8911 22.9233 34.5484 22.6566L34.4255 22.8145C34.7143 23.0391 34.8627 23.3789 34.8938 23.747C34.925 24.1158 34.8373 24.5052 34.6629 24.8154L34.8372 24.9134ZM26.0733 27.4193C26.0261 27.86 25.6428 28.218 25.2419 28.3739L25.3145 28.5603C25.7555 28.3887 26.2142 27.9825 26.2722 27.4406L26.0733 27.4193ZM25.2455 28.3726C25.0841 28.4284 24.9426 28.4763 24.8046 28.4763V28.6763C24.9823 28.6763 25.1565 28.615 25.3109 28.5616L25.2455 28.3726ZM24.8216 28.4777C24.5189 28.4254 24.2719 28.3217 24.0767 28.1698L23.9539 28.3277C24.1797 28.5034 24.4589 28.618 24.7876 28.6748L24.8216 28.4777ZM24.0873 28.1794C23.8404 27.9233 23.7029 27.5761 23.796 27.2382L23.6032 27.1851C23.4858 27.6113 23.6639 28.0284 23.9433 28.3182L24.0873 28.1794ZM23.7968 27.235C23.8915 26.8421 24.2261 26.5895 24.5216 26.4873L24.4562 26.2983C24.1202 26.4145 23.7181 26.7077 23.6023 27.1882L23.7968 27.235ZM24.5173 26.4887C24.8691 26.3844 25.2747 26.3837 25.6992 26.3837V26.1837C25.2817 26.1837 24.8454 26.1829 24.4605 26.2969L24.5173 26.4887ZM25.6212 26.3463C25.886 26.6759 26.1205 27.0275 26.0735 27.418L26.272 27.4419C26.3302 26.9591 26.0386 26.5465 25.7771 26.221L25.6212 26.3463Z" fill="#13519C" mask="url(#path-1-outside-1_0_75)"/>
<path d="M19.8278 22.3753C20.6032 23.2615 21.7663 23.7046 22.9293 23.7046C23.4832 23.7046 23.9817 23.5938 24.4801 23.3723C26.0309 22.7076 27.0832 20.9907 26.9724 19.3292C26.8617 17.6123 25.5878 16.1169 23.9263 15.6738C22.5417 15.3415 21.0463 15.7292 19.9386 16.7815C19.1078 17.6123 18.6647 18.7753 18.8309 20.1046C18.9417 20.9353 19.274 21.7661 19.8278 22.3753ZM20.3263 17.1692C21.3232 16.2276 22.597 15.8953 23.7601 16.1723C25.2001 16.56 26.3078 17.8892 26.4186 19.3292C26.5293 20.7692 25.6432 22.2646 24.2586 22.8738C22.9293 23.4276 21.2124 23.0953 20.2155 21.9876C19.7724 21.4892 19.4401 20.7692 19.3847 20.0492C19.274 18.9415 19.6063 17.8892 20.3263 17.1692ZM29.6863 11.2984C30.9601 10.7446 31.8463 9.30457 31.6801 7.91995C31.514 6.53534 30.3509 5.31687 29.0217 5.09534C27.8586 4.92918 26.2524 5.48303 25.5878 6.64611C24.9786 7.69841 25.1447 9.35995 25.9755 10.3015C26.5847 11.0769 27.5817 11.52 28.5786 11.52C28.8555 11.5753 29.2986 11.4646 29.6863 11.2984ZM26.3078 10.0246C25.6432 9.1938 25.5324 7.80918 25.9755 6.97841C26.4186 6.20303 27.5817 5.70457 28.4678 5.70457C28.5786 5.70457 28.6893 5.70457 28.8001 5.75995C29.9632 5.92611 30.9047 6.97841 31.0155 8.08611C31.1263 9.24918 30.4617 10.4123 29.354 10.8553C28.4124 11.243 27.0278 10.9107 26.3078 10.0246ZM12.7386 11.0769C12.7386 12.0738 13.7355 13.0153 14.5663 13.5692C15.2309 14.0123 15.9509 14.2338 16.6709 14.2338C16.8924 14.2338 17.114 14.2338 17.3355 14.1784C18.6647 13.9015 19.7724 12.683 19.994 11.2984C20.1601 9.9138 19.4401 8.4738 18.2217 7.80918C17.0032 7.14457 15.4524 7.25534 14.2893 8.03072C13.3478 8.75072 12.6832 9.96918 12.7386 11.0769ZM14.6216 8.4738C15.5632 7.80918 16.9478 7.69841 17.9447 8.25226C18.997 8.80611 19.6063 10.0246 19.4401 11.1876C19.274 12.3507 18.3878 13.3476 17.2247 13.6246C16.4493 13.7907 15.5632 13.6246 14.8432 13.1261C14.1232 12.6276 13.2924 11.7969 13.2924 11.0769C13.237 10.1353 13.7909 9.08303 14.6216 8.4738Z" fill="#2983D3" fill-opacity="0.4"/>
<path d="M23.9649 15.5289L23.9649 15.5288L23.9613 15.5279C22.5263 15.1836 20.9791 15.5861 19.8353 16.6727L19.8352 16.6727L19.8325 16.6754C18.9694 17.5386 18.5101 18.7475 18.682 20.1232L18.6822 20.1244C18.7961 20.9783 19.138 21.839 19.7158 22.4752C20.5242 23.3983 21.7308 23.8546 22.9293 23.8546C23.5046 23.8546 24.0235 23.7392 24.5401 23.5098C26.1483 22.8201 27.237 21.0447 27.1221 19.3195C27.007 17.5358 25.6861 15.9879 23.9649 15.5289ZM19.5343 20.0377L19.5343 20.0377L19.534 20.0343C19.4271 18.9654 19.7482 17.9604 20.4308 17.2768C21.3924 16.3695 22.6135 16.0542 23.7232 16.3177C25.1023 16.69 26.1633 17.9663 26.269 19.3407C26.3748 20.7158 25.526 22.1515 24.1996 22.7359C22.9264 23.2657 21.2792 22.945 20.3273 21.8876C19.9046 21.412 19.587 20.7226 19.5343 20.0377ZM29.7454 11.4363L29.7461 11.436C31.0765 10.8575 32.0036 9.35694 31.829 7.90208C31.6551 6.45264 30.4426 5.18009 29.0463 4.94738L29.0463 4.94734L29.0429 4.94684C28.4313 4.85948 27.7118 4.96168 27.06 5.23384C26.4082 5.50602 25.8106 5.95406 25.4578 6.57132C25.1341 7.13055 25.0207 7.84215 25.0925 8.53088C25.1641 9.21851 25.4219 9.89914 25.8602 10.3975C26.4978 11.2067 27.5321 11.6657 28.5644 11.6699C28.7292 11.6995 28.9264 11.6809 29.1223 11.6389C29.3272 11.595 29.5442 11.5225 29.7454 11.4363ZM28.733 5.89412L28.7548 5.905L28.7789 5.90844C29.8703 6.06436 30.7618 7.05855 30.8662 8.10069C30.9708 9.20077 30.3409 10.299 29.2982 10.7161L29.2968 10.7166C28.8622 10.8956 28.315 10.9115 27.7859 10.7726C27.2577 10.6339 26.7613 10.3445 26.4246 9.93044C26.1143 9.54232 25.9287 9.01792 25.8755 8.48656C25.8224 7.95513 25.9034 7.43363 26.1068 7.05095C26.3086 6.69901 26.6813 6.39883 27.1209 6.18569C27.5602 5.97274 28.0502 5.85457 28.4678 5.85457C28.5824 5.85457 28.6583 5.85676 28.733 5.89412ZM20.1421 11.3221L20.1422 11.3221L20.1429 11.3163C20.3161 9.87264 19.5675 8.37241 18.2935 7.6775C17.0228 6.9844 15.4124 7.10173 14.2061 7.90591L14.206 7.90565L14.1982 7.91157C13.2269 8.65431 12.5319 9.91496 12.5886 11.0807C12.5898 11.6272 12.8623 12.1435 13.225 12.5845C13.5902 13.0283 14.0595 13.4116 14.4831 13.694C15.1705 14.1523 15.9192 14.3838 16.6709 14.3838H16.6784C16.8943 14.3838 17.1304 14.3838 17.369 14.3247C18.7623 14.033 19.9116 12.7626 20.1421 11.3221ZM17.8719 8.38338L17.8719 8.38342L17.8749 8.385C18.8704 8.90894 19.4489 10.0653 19.2916 11.1664C19.1341 12.2691 18.2928 13.2153 17.1916 13.4783C16.4579 13.635 15.6146 13.4777 14.9286 13.0028C14.577 12.7594 14.2004 12.436 13.9134 12.089C13.6226 11.7373 13.4424 11.3838 13.4424 11.0769H13.4427L13.4422 11.0681C13.3903 10.1857 13.9133 9.17983 14.7093 8.59556C15.607 7.96256 16.9291 7.85962 17.8719 8.38338Z" stroke="#2983D3" stroke-opacity="0.4" stroke-width="0.3"/>
<path d="M21.8677 21.1015C22.2 21.2677 22.4769 21.3785 22.6985 21.4338V21.7662C22.6985 21.9323 22.7538 22.0431 22.92 22.0985H22.9754C23.0862 22.0985 23.1969 21.9877 23.2523 21.8769C23.2523 21.7108 23.3077 21.6 23.2523 21.4338C23.7508 21.3231 24.1938 20.88 24.0831 20.3262C24.0277 19.9938 23.8062 19.6615 23.3631 19.44L23.0308 19.2738C22.8646 19.2185 22.6985 19.1077 22.5877 18.9969C22.4215 18.8862 22.3108 18.72 22.3662 18.5538C22.4215 18.4431 22.6431 18.1108 22.9754 18.0554H23.0862C23.1415 18.0554 23.1415 18.0554 23.1969 18C23.4185 18 23.5846 18.1662 23.8062 18.3877C23.9169 18.4985 24.0831 18.4985 24.1938 18.3877C24.3046 18.2769 24.3046 18.1108 24.1938 18C23.8615 17.6677 23.5846 17.5569 23.3077 17.5015V17.1692C23.3077 17.0031 23.1969 16.8923 23.0308 16.8923C22.8646 16.8923 22.7538 17.0031 22.7538 17.1692V17.5015C22.2 17.6677 21.8677 18.1108 21.8123 18.3323C21.6462 18.72 21.9231 19.1631 22.2 19.3846C22.3662 19.5508 22.5877 19.6062 22.7538 19.7169C22.8646 19.7723 22.92 19.8277 23.0308 19.8831C23.1415 19.9385 23.4185 20.1046 23.4738 20.3815C23.5292 20.6031 23.2523 20.88 22.9754 20.9354H22.6985C22.4769 20.9354 22.2554 20.8246 21.9785 20.7138C21.8677 20.6585 21.7015 20.7138 21.5908 20.8246C21.6462 20.88 21.7015 21.0462 21.8677 21.1015ZM16.3292 12.5169V12.8492C16.3292 13.0154 16.44 13.1262 16.6062 13.1262C16.7723 13.1262 16.8831 13.0154 16.8831 12.8492V12.5169C17.16 12.4062 17.3815 12.24 17.4923 11.9631C17.6585 11.5754 17.5477 11.1323 17.2708 10.8C17.1046 10.6338 16.8831 10.5231 16.7169 10.4677C16.5508 10.4123 16.44 10.3569 16.3292 10.2462C16.2738 10.1908 16.2185 10.08 16.2738 10.0246C16.2738 10.0246 16.3292 9.96923 16.44 9.91385C16.7169 9.80308 17.0492 9.80308 17.3815 9.85846C17.5477 9.91385 17.6585 9.80308 17.7138 9.63692C17.7692 9.47077 17.6585 9.36 17.4923 9.30461C17.2708 9.24923 17.1046 9.24923 16.8831 9.24923V9.02769C16.8831 8.86154 16.7723 8.75077 16.6062 8.75077C16.44 8.75077 16.3292 8.86154 16.3292 9.02769V9.36C16.2738 9.36 16.2738 9.36 16.2185 9.41538C15.9969 9.52615 15.8308 9.63692 15.72 9.80308C15.6092 10.08 15.6646 10.4123 15.8862 10.6338C16.0523 10.8 16.2738 10.9108 16.4954 11.0215C16.6615 11.0769 16.7723 11.1323 16.8831 11.2431C16.9938 11.3538 17.0492 11.5754 16.9938 11.7969C16.9385 11.9631 16.7169 12.0738 16.5508 12.0738C16.3846 12.0738 16.1631 11.9631 16.1077 11.7415C16.0523 11.5754 15.8862 11.52 15.7754 11.5754C15.6092 11.6308 15.5538 11.7969 15.6092 11.9077C15.72 12.24 15.9969 12.4615 16.3292 12.5169ZM29.0123 9.85846V9.41538C29.2338 9.30462 29.4 9.13846 29.4554 8.91692C29.5662 8.52923 29.4554 8.14154 29.1231 7.86461C29.0123 7.75385 28.8462 7.69846 28.68 7.64308C28.6246 7.64308 28.5692 7.58769 28.4585 7.53231C28.3477 7.47692 28.2369 7.36615 28.2923 7.31077C28.2923 7.25538 28.3477 7.2 28.4585 7.2C28.6246 7.08923 28.9015 7.08923 29.0677 7.2C29.1785 7.25538 29.3446 7.2 29.4554 7.08923C29.5108 6.97846 29.4554 6.81231 29.3446 6.70154C29.1785 6.64615 29.0123 6.59077 28.8462 6.59077V6.25846C28.8462 6.09231 28.68 5.98154 28.5692 5.98154C28.4031 5.98154 28.2923 6.14769 28.2923 6.25846V6.64615C28.2923 6.64615 28.2369 6.64615 28.2369 6.70154C28.0154 6.81231 27.8492 7.03385 27.7938 7.25538C27.7385 7.58769 27.96 7.86461 28.2923 8.03077C28.3477 8.08615 28.4585 8.08615 28.5692 8.14154C28.68 8.19692 28.7908 8.19692 28.8462 8.30769C28.9569 8.41846 29.0677 8.58461 29.0123 8.75077C28.9569 8.91692 28.7908 8.97231 28.68 8.97231C28.5692 8.97231 28.4585 8.80615 28.4585 8.69538C28.4585 8.52923 28.3477 8.41846 28.2369 8.36308C28.0708 8.36308 27.96 8.47385 27.9046 8.58461C27.8492 8.97231 28.1262 9.36 28.5138 9.47077V9.80308C28.5138 9.96923 28.6246 10.08 28.7908 10.08C28.9015 10.1354 29.0123 10.0246 29.0123 9.85846ZM29.9538 4.81846C30.12 4.81846 30.2308 4.70769 30.2308 4.54154C30.2308 3.54462 30.2862 2.60308 30.4523 1.60615C30.4523 1.44 30.3969 1.32923 30.2308 1.27385C30.0646 1.27385 29.9538 1.32923 29.8985 1.49538C29.7323 2.49231 29.6769 3.48923 29.6769 4.48615C29.6769 4.65231 29.7877 4.81846 29.9538 4.81846ZM27.4062 3.65538C27.5723 3.65538 27.6831 3.54462 27.6831 3.37846C27.6831 2.38154 27.7385 1.32923 27.9046 0.332308C27.9046 0.166154 27.8492 0.0553846 27.6831 0C27.5169 0 27.4062 0.0553846 27.3508 0.221538C27.1846 1.27385 27.1292 2.32615 27.1292 3.37846C27.1292 3.54462 27.24 3.65538 27.4062 3.65538ZM17.8246 5.64923C17.9908 5.64923 18.1015 5.53846 18.1015 5.37231C18.2123 4.37538 18.2123 3.37846 18.1015 2.38154C18.1015 2.21538 17.9354 2.10462 17.8246 2.10462C17.6585 2.10462 17.5477 2.27077 17.5477 2.38154C17.6585 3.32308 17.6031 4.32 17.5477 5.26154C17.5477 5.53846 17.6585 5.64923 17.8246 5.64923ZM15.3877 6.70154C15.5538 6.70154 15.6646 6.59077 15.6646 6.42462L15.5538 3.37846C15.5538 3.21231 15.4431 3.10154 15.2769 3.10154C15.1108 3.10154 15 3.21231 15 3.37846L15.1108 6.42462C15.1108 6.59077 15.2215 6.70154 15.3877 6.70154ZM22.1446 14.4554C22.3108 14.4554 22.4215 14.3446 22.4215 14.1785C22.4769 13.3477 22.4215 12.5723 22.2554 11.7415C22.2554 11.5754 22.0892 11.4646 21.9231 11.52C21.7569 11.52 21.6462 11.6862 21.7015 11.8523C21.8123 12.6277 21.8677 13.4031 21.8677 14.1785C21.8677 14.3446 21.9785 14.4554 22.1446 14.4554ZM24.3046 13.6246C24.36 13.6246 24.36 13.6246 24.3046 13.6246C24.4708 13.6246 24.5815 13.5138 24.5815 13.3477C24.6923 12.4615 24.6369 11.52 24.5815 10.6338C24.5815 10.4677 24.4154 10.3569 24.3046 10.4123C24.1385 10.4123 24.0277 10.5785 24.0831 10.6892C24.1938 11.5754 24.1938 12.4615 24.0831 13.2923C24.0831 13.4585 24.1938 13.6246 24.3046 13.6246Z" fill="#2983D3" fill-opacity="0.4"/>
</g>
<defs>
<clipPath id="clip0_0_75">
<rect width="36" height="36" fill="white"/>
</clipPath>
</defs>
</svg>
