<svg width="12" height="12" viewBox="0 0 12 12" fill="none" xmlns="http://www.w3.org/2000/svg">
<g clip-path="url(#clip0_367_23)">
<path d="M3.75 6H6.75M3.75 4H5.25" stroke="#13519C" stroke-width="0.5" stroke-linecap="round" stroke-linejoin="round"/>
<path d="M4.25 10C4.77519 10.4349 5.40725 10.7119 6.13175 10.7594C6.7026 10.7969 7.29855 10.7968 7.86825 10.7594C8.0644 10.7466 8.27825 10.7003 8.4624 10.6255C8.66725 10.5422 8.76975 10.5006 8.82185 10.5069C8.8739 10.5132 8.94945 10.5682 9.10055 10.6782C9.36695 10.872 9.70255 11.0113 10.2002 10.9993C10.4519 10.9933 10.5778 10.9902 10.6341 10.8954C10.6904 10.8006 10.6203 10.6695 10.4799 10.4071C10.2853 10.0431 10.162 9.62645 10.3489 9.2926C10.6707 8.81575 10.944 8.25105 10.9839 7.64115C11.0054 7.31345 11.0054 6.97405 10.9839 6.64635C10.9573 6.23995 10.8586 5.85365 10.7006 5.5" stroke="#13519C" stroke-width="0.5" stroke-linecap="round" stroke-linejoin="round"/>
<path d="M6.1725 8.7434C7.9503 8.6263 9.3664 7.20345 9.4829 5.4172C9.5057 5.06765 9.5057 4.70565 9.4829 4.35609C9.3664 2.56984 7.9503 1.14701 6.1725 1.02993C5.566 0.989985 4.93277 0.990065 4.3275 1.02993C2.54972 1.14701 1.13363 2.56984 1.0171 4.35609C0.9943 4.70565 0.9943 5.06765 1.0171 5.4172C1.05954 6.0678 1.34996 6.67015 1.69186 7.1788C1.89038 7.53485 1.75937 7.9793 1.55259 8.3675C1.4035 8.6474 1.32896 8.78735 1.38881 8.88845C1.44866 8.98955 1.58236 8.9928 1.84976 8.99925C2.37856 9.012 2.73514 8.86345 3.01819 8.6567C3.17872 8.5394 3.25899 8.48075 3.31431 8.47405C3.36963 8.4673 3.4785 8.5117 3.6962 8.60055C3.89187 8.6804 4.11906 8.72965 4.3275 8.7434C4.93277 8.78325 5.566 8.7833 6.1725 8.7434Z" stroke="#13519C" stroke-width="0.5" stroke-linejoin="round"/>
</g>
<defs>
<clipPath id="clip0_367_23">
<rect width="12" height="12" fill="white"/>
</clipPath>
</defs>
</svg>
