<svg width="62" height="62" viewBox="0 0 62 62" fill="none" xmlns="http://www.w3.org/2000/svg">
<path d="M32.6863 53.3274C45.0174 53.3274 55.0138 43.3311 55.0138 31C55.0138 18.6689 45.0174 8.67256 32.6863 8.67256C20.3552 8.67256 10.3589 18.6689 10.3589 31C10.3589 43.3311 20.3552 53.3274 32.6863 53.3274Z" fill="#F2F2F2"/>
<path d="M44.9312 12.326C44.3917 12.3575 44.3292 12.6894 44.4896 13.8149C43.7569 13.6404 43.0408 14.3127 42.294 13.8769C42.2512 13.8539 42.1637 13.8729 42.1208 13.8715C41.3998 14.0013 41.3788 13.9789 41.5341 13.1798C41.5606 13.029 41.6304 12.879 41.6345 12.7487C41.6399 12.5755 41.646 12.38 41.608 12.2049L41.5211 12.2022C41.3956 12.7412 40.9686 13.2057 41.1438 13.8628C41.1417 13.928 41.0054 14.1189 40.9402 14.1169C40.4181 14.1441 39.9985 14.3702 39.7854 14.9282C39.7407 14.9703 39.6728 15.0552 39.6294 15.0538C39.2369 15.1068 38.9478 15.3147 38.8474 15.7464C38.8235 15.832 38.6484 15.8701 38.5595 15.9325C38.4054 15.993 38.2934 16.0982 38.1616 16.1593C38.0293 16.2204 37.8752 16.2803 37.7429 16.3414C37.5887 16.4235 37.478 16.4853 37.3233 16.5674C37.4068 16.6787 37.4889 16.8335 37.5948 16.9232C37.8285 17.0827 38.0857 17.1994 38.2758 17.3787C38.5068 17.6251 38.5265 18.3855 38.2821 18.5736C38.1267 18.6775 37.8477 18.5601 37.6541 18.5105C37.2862 18.4561 36.965 18.3157 36.618 18.3049C36.2053 18.292 35.9765 18.6757 36.1383 19.0498C36.2381 19.3355 36.2524 19.5746 36.0915 19.8522C35.8844 20.2365 35.9695 20.9778 36.2281 21.0511C36.5716 21.1917 36.9158 21.2894 37.2615 21.3437C37.5635 21.4183 37.8487 21.3185 37.9681 20.9749C38.2967 20.1812 38.8343 19.655 39.5213 19.2204C39.5878 19.179 39.6767 19.1165 39.7208 19.0962C39.5749 18.8965 39.4934 18.72 39.3889 18.5863C39.6074 18.5496 39.7805 18.5768 39.951 18.669C40.2727 18.8095 40.5743 18.8841 40.7839 18.4346C40.8565 18.1978 41.0515 18.2038 41.1974 18.404C41.2592 18.5141 41.3644 18.6261 41.3814 18.7788C41.5159 19.3477 41.9219 19.556 42.3042 19.8283C42.4746 19.9423 42.6865 20.1011 42.7456 20.2981C42.8061 20.4522 42.7755 20.7333 42.7057 20.8833C42.6371 20.9899 42.4205 20.9831 42.2447 21.0429L41.984 21.0347C41.9833 21.0565 41.9608 21.0992 41.9601 21.121C42.0865 21.2336 42.2325 21.4333 42.3859 21.3946C42.7777 21.3633 43.0572 20.7643 43.0566 20.0691C43.2073 20.1173 43.3369 20.1431 43.4869 20.2125C43.5093 20.1919 43.5331 20.1275 43.5555 20.1064C43.2805 19.8587 42.9831 19.6538 42.7306 19.3856C42.3713 19.0705 41.9653 18.8622 41.9618 18.2756C41.9238 18.1005 41.7799 17.8357 42.0642 17.7793C42.304 17.7433 42.6074 17.7745 42.5959 18.1432C42.5975 18.7732 42.983 18.9592 43.3891 19.1669C43.5608 19.2375 43.732 19.3081 43.8365 19.4418C43.9417 19.5537 44.0225 19.7519 43.9974 19.8593C43.8556 20.224 43.9344 20.4873 44.1212 20.754C44.2047 20.8648 44.2658 20.9971 44.3059 21.1071C44.388 21.2618 44.4261 21.4364 44.4648 21.5898C44.5991 21.4635 44.7317 21.3807 44.866 21.255C44.9108 21.2129 44.9556 21.1708 44.9787 21.128C45.1802 20.9386 45.2061 20.7878 44.9732 20.6066C44.8245 20.4933 44.7436 20.3174 44.6173 20.183C44.9738 19.8897 45.2766 19.9209 45.5997 20.0179C45.8373 20.0688 46.1198 20.0559 46.2976 19.931C46.3636 19.8895 46.2677 19.4957 46.2751 19.2568C46.2601 19.0395 46.2031 18.7768 46.2954 18.6063C46.3917 18.3049 46.573 18.0502 46.7319 17.8378C46.89 17.647 47.1141 17.4154 47.2003 17.4398C47.4365 17.5341 47.6023 17.7779 47.7475 17.9999C47.8751 18.0908 47.9329 18.3312 48.0632 18.3353C48.214 18.3617 48.4136 18.2375 48.5888 18.1783C48.5908 18.1131 48.5703 18.0907 48.5717 18.0473C48.3572 17.9536 48.1637 17.8824 47.9498 17.7888L47.9538 17.659C48.4793 17.5232 49.0055 17.3656 49.5316 17.2086C49.4366 17.466 49.3016 17.614 49.1657 17.8049C48.8936 18.1655 48.8888 18.3175 49.2053 18.61C49.396 18.7676 49.6309 18.9054 49.7756 19.1273C49.8795 19.2822 49.9142 19.5659 49.8646 19.76C49.8389 19.8896 49.5742 20.0113 49.4227 20.0066C49.1627 19.9767 48.8836 19.8811 48.6704 19.7445C48.1809 19.4249 47.7029 19.4318 47.2386 19.6999C46.8427 19.861 46.4898 20.0239 46.115 20.2079C46.0261 20.2703 45.8714 20.3525 45.8687 20.4388C45.9868 20.8333 46.0609 21.2487 46.2448 21.6235C46.2849 21.7334 46.6509 21.8318 46.7181 21.7687C46.9653 21.4937 47.0915 21.6281 47.2816 21.808C47.5112 22.0972 47.7277 22.1257 47.9742 21.873C48.0421 21.7882 48.1079 21.7685 48.1303 21.7474C48.2525 22.0121 48.332 22.2532 48.4786 22.4317C48.6871 22.6986 48.6824 22.8506 48.4149 23.0809C48.237 23.2058 48.0552 23.461 48.0491 23.6559C48.0586 24.0476 47.9276 24.0652 47.6899 24.0361C47.3662 23.9608 46.9995 23.8841 46.6946 23.9181C45.844 24.022 45.1129 23.7819 44.3896 23.3033C44.241 23.19 43.9829 23.1167 43.8927 23.2226C43.7596 23.3054 43.7509 23.5873 43.7665 23.7834C43.8181 24.2193 43.7055 24.3462 43.3422 24.161C42.873 23.886 42.4046 23.5671 41.9578 23.271C41.511 22.9745 41.2624 22.5977 41.4334 21.9948C41.5102 21.6064 41.2996 21.4042 40.929 21.4361C40.7117 21.4511 40.4708 21.5088 40.2778 21.4376C39.546 21.2191 38.8922 21.2857 38.2059 21.6991C37.8291 21.9477 37.4116 22.1087 36.9424 21.8332C36.8996 21.8101 36.7001 21.9343 36.6098 22.0402C36.3851 22.2936 36.1604 22.5257 35.9555 22.8232C35.8183 23.058 35.635 23.3562 35.6493 23.5957C35.6765 24.1178 35.5565 24.4832 35.1579 24.7316C34.5599 25.1038 34.215 25.723 33.9341 26.3659C33.8425 26.5147 33.7936 26.6871 33.7027 26.8147C33.4325 27.1319 33.4203 27.5229 33.5813 27.9187C33.7395 28.4231 33.724 28.9221 33.5556 29.4598C33.4592 29.7607 33.3813 30.1708 33.5258 30.4144C33.8342 30.967 34.0991 31.5183 34.2309 32.1741C34.2499 32.2616 34.2906 32.3498 34.3538 32.4165C34.711 32.7972 35.0458 33.1984 35.4259 33.5581C35.7207 33.8494 36.0628 34.034 36.4403 33.7631C36.8395 33.4935 37.2964 33.4642 37.7547 33.3916C37.9502 33.3976 38.1253 33.3596 38.2814 33.234C38.6812 32.9426 39.0466 33.0622 39.3848 33.3554C39.5959 33.5576 39.7568 33.9752 40.1546 33.7489C40.177 33.7274 40.2626 33.7735 40.304 33.84C40.6428 34.1115 40.7536 34.7443 40.5452 35.1509C40.2899 35.6859 40.2561 36.0757 40.5712 36.4111C40.9067 36.7911 41.1551 37.1897 41.1823 37.7118C41.1987 37.8862 41.2794 38.0844 41.3616 38.2386C41.746 39.1414 41.7835 40.0329 41.2798 40.864C40.912 41.5042 40.8707 42.1329 41.1966 42.8382C41.4792 43.5204 41.6741 44.2429 41.7162 44.9828C41.7414 45.5701 41.8753 46.139 42.0987 46.6455C42.3854 47.1974 42.5633 47.7676 42.4778 48.4161C42.4195 48.8926 42.5458 49.027 42.9599 48.9741C43.5255 48.9483 44.0713 48.8571 44.6171 48.7654C44.7047 48.7464 44.816 48.6629 44.9049 48.6004C45.7515 47.9104 46.4282 47.1059 46.4885 45.8696C46.521 45.5233 46.6771 45.3978 46.9399 45.3195C47.0729 45.2367 47.2297 45.0894 47.2767 44.9604C47.3961 44.6168 47.3628 44.2902 47.1787 43.9366C47.1182 43.7826 47.1066 43.4566 47.1759 43.3283C47.4251 42.9888 47.7175 42.6723 48.0509 42.4218C48.7623 41.901 49.1702 40.6538 48.9372 39.778C48.7579 39.2511 48.7097 38.7067 48.5969 38.1384C48.3863 37.241 48.8377 36.6909 49.4398 36.1879C49.8852 35.8327 50.3529 35.4565 50.6508 34.9663C51.1966 34.1794 51.6588 33.2818 52.1197 32.427C52.2351 32.2137 52.2439 31.9314 52.3165 31.695C52.0775 31.6876 51.8392 31.6802 51.6417 31.7392C51.2058 31.7909 50.7882 31.9513 50.3735 32.0036C50.2648 32.0219 50.1168 31.8874 50.034 31.7544C49.8079 31.3348 49.583 30.893 49.3359 30.451C49.2965 30.3193 49.2136 30.2081 49.1307 30.0756C48.9895 29.7233 48.8273 29.3492 48.709 28.9764C48.4924 28.2528 48.2968 27.5515 48.0807 26.8279C47.9816 26.521 47.9259 26.2154 47.8273 25.908C47.7058 25.6221 47.5842 25.3357 47.441 25.0491C47.5944 25.0104 47.6799 25.0565 47.7213 25.1231C48.1145 25.743 48.4853 26.3845 48.8784 27.0267C48.941 27.0939 48.9152 27.2235 48.9329 27.3545C49.0137 27.5521 49.0293 27.7483 49.0884 27.9453C49.5163 28.8494 50.033 29.6906 50.0644 30.7775C50.0556 31.0599 50.2253 31.1956 50.5336 31.053C50.7765 30.9302 51.0604 30.8738 51.3033 30.7514C51.6992 30.5898 52.0746 30.3841 52.452 30.1355C52.8064 29.9074 53.1635 29.593 53.5402 29.3656C54.0717 29.0348 54.3908 28.5452 54.5625 27.9207C54.6113 27.7483 54.4681 27.4617 54.3873 27.2635C54.3057 27.1088 54.1129 27.0158 53.9866 26.882C53.7346 26.6132 53.4978 26.5406 53.1847 26.8353C52.9167 27.0655 52.5887 27.1423 52.3185 26.743C52.2988 26.6772 52.1902 26.6738 52.1487 26.629C52.0864 26.5189 51.9613 26.3628 51.9857 26.2766C52.1282 25.8903 52.0067 25.6039 51.7759 25.3363C51.6707 25.2244 51.545 25.09 51.4845 24.9359C51.4452 24.8043 51.4519 24.5876 51.4987 24.4803C51.5673 24.3738 51.7622 24.3798 51.9129 24.428C52.2578 24.504 52.3773 24.8556 52.4982 25.1632C52.7787 25.9106 52.9498 26.0028 53.6497 25.8507C53.7596 25.8107 53.9322 25.8378 53.9946 25.9262C54.1615 26.1902 54.3521 26.3801 54.5622 26.5064C53.3539 20.5926 49.8077 15.53 44.9312 12.326ZM11.736 33.0191C12.2701 33.0311 12.4844 33.168 12.6799 33.6321C12.7211 33.7186 12.8508 33.7905 12.9631 33.8649C13.0316 33.9156 13.159 33.9094 13.2144 33.9775C13.4593 34.2613 13.8164 34.153 14.1001 34.2422C14.1892 34.1041 14.2439 33.972 14.2994 33.84C14.7988 34.1831 15.0986 34.7517 15.0086 35.1678C14.9173 35.5833 14.828 35.9863 14.7792 36.3837C14.7716 36.5249 14.8858 36.6882 14.9431 36.8475C14.964 36.9055 15.0404 37.0138 15.0041 37.0684C14.9061 37.4154 14.9881 37.6808 15.3678 37.8328C16.0408 38.1087 16.4273 38.5958 16.805 39.1158C17.1102 39.5122 17.4336 39.8408 18.0043 39.8694C18.6163 39.9038 18.8962 40.0944 19.1156 40.5817C19.268 40.931 19.3842 41.2748 19.5372 41.641C19.745 42.1486 19.9139 42.6703 20.2038 43.142C20.4145 43.5091 20.5399 43.8548 20.6613 44.2515C20.8227 44.8125 21.0743 45.3983 21.3657 45.9568C21.4115 46.056 21.5926 46.1436 21.706 46.2206C21.768 46.2819 21.7969 46.3543 21.8333 46.4074C21.921 46.6245 22.0336 46.8167 22.1511 47.0405C22.2702 47.2973 22.4987 47.5829 22.0234 47.6996C22.4012 47.7345 22.5828 47.8692 22.6776 48.1364C22.6712 48.1559 22.7006 48.1952 22.7369 48.2157C23.1521 48.4345 23.1687 48.6463 22.8976 48.8135C23.2254 49.048 23.5679 49.2419 23.9013 49.4718C24.1813 49.6881 24.4773 49.7618 24.833 49.7256C25.1399 49.7083 25.4338 49.7279 25.3914 49.3902C25.3924 49.3392 25.5219 49.2889 25.5764 49.2509C25.6528 49.1876 25.7235 49.1433 25.8004 49.0803C25.6128 49.0861 25.5091 49.1425 25.3645 49.1484C25.2466 49.1603 25.0587 49.1653 25.0009 49.1201C24.6863 48.8878 24.4004 48.6603 24.1143 48.3991C24.0943 48.3731 24.0832 48.2769 24.119 48.2137C24.1694 47.9785 24.2226 47.744 24.313 47.5301C24.3939 47.303 24.2258 47.2165 23.9847 47.1715C23.7603 47.1203 23.5261 47.0556 23.2409 46.9751C23.3208 46.9142 23.3423 46.8574 23.392 46.8401C23.776 46.5087 23.7926 46.2758 23.4765 45.7865C23.4225 45.7079 23.441 45.5242 23.5321 45.4775C23.8102 45.2548 23.6621 45.0655 23.4571 44.8465C23.3973 44.7866 23.3544 44.721 23.2781 44.6345C23.7221 44.5691 24.1544 44.5505 24.1368 44.0843C24.1452 43.7198 24.084 43.4298 23.5311 43.2459C23.8828 43.1662 24.1748 43.12 24.4844 43.0363C24.2496 42.8173 24.2161 42.6272 24.4369 42.4967C24.5145 42.4262 24.5357 42.3279 24.5646 42.242C24.7601 41.7987 24.6146 41.375 24.3721 40.9345C24.227 40.7064 24.3026 40.5188 24.4918 40.3594C24.7244 40.1721 24.9746 39.9804 25.179 39.7739C25.3012 39.6352 25.3468 39.4605 25.3469 39.2698C25.3973 39.0648 25.3396 38.833 25.4005 38.6415C25.4829 38.415 25.5774 38.1729 25.3775 37.9528C24.937 37.4657 24.9775 36.9931 25.3045 36.5127C25.3576 36.4143 25.4227 36.2986 25.4487 36.179C25.5752 35.893 25.508 35.5878 25.2259 35.4454C24.6448 35.1223 24.0292 34.9256 23.3471 35.0084C22.9741 35.0644 22.6281 35.0422 22.2789 34.904C21.9966 34.7941 21.6659 34.6489 21.3399 34.8921C21.3885 34.3902 21.1567 34.0234 20.7845 33.7232C20.6716 33.6593 20.4724 33.5546 20.3545 33.5921C19.6248 33.8082 18.9871 33.4802 18.3358 33.2612C18.2792 33.2568 18.2417 33.1902 18.2259 33.1343C18.0365 32.7872 17.9134 32.7349 17.5557 32.9745C17.2165 33.2115 16.8639 33.0669 16.5249 33.0353C16.3514 33.0059 16.1917 32.9584 16.0534 32.9219C16.0952 33.0795 16.1205 33.2396 16.1641 33.3967C16.1683 33.4113 16.1541 33.4285 16.1661 33.4714C16.0922 33.4693 15.9868 33.4878 15.9788 33.459C15.9138 33.2252 15.8509 32.991 15.7903 32.7566C15.3808 33.154 14.9192 33.4288 14.9 34.0109C14.403 33.6864 14.3998 33.669 13.8939 33.9706C13.7251 34.0917 13.5946 34.0217 13.4487 33.8918C13.0478 33.5732 13.0023 33.1166 12.8985 32.6868C12.8058 32.2242 12.724 32.1747 12.2674 32.3344C12.1972 32.3447 12.1477 32.3674 12.1123 32.3726C11.9852 32.3758 11.8581 32.3789 11.7345 32.3968C11.725 32.2739 11.7153 32.1514 11.7102 32.0435C11.733 31.6526 11.7616 31.2623 11.7929 30.8576C11.2424 30.9135 11.1191 31.0373 11.0958 31.4604C11.099 31.5685 11.0845 31.7575 11.017 31.7824C10.8122 31.8663 10.6006 32.0081 10.3823 32.0146C10.3904 32.1948 10.4006 32.3744 10.4129 32.5534C10.6506 32.5844 10.8695 32.6874 11.1023 32.8168C11.2899 32.9146 11.513 33.0058 11.736 33.0191Z" fill="#2983D3"/>
<path opacity="0.3" d="M45.0988 12.4418C48.6863 16.4034 50.8903 21.6412 50.8903 27.4067C50.8903 39.738 40.8939 49.7344 28.5627 49.7344C23.9684 49.7344 19.7005 48.3436 16.1506 45.9646C20.236 50.476 26.1211 53.3274 32.6868 53.3274C45.018 53.3274 55.0145 43.3309 55.0145 30.9997C55.0145 23.2627 51.077 16.4481 45.0988 12.4418Z" fill="#3086EE" fill-opacity="0.4"/>
<path d="M10.514 28.7686C10.9413 28.1979 10.9781 28.1993 11.7171 28.5044C11.8314 28.5538 11.9909 28.5367 12.0946 28.51C12.2836 28.4445 12.3642 28.5118 12.3873 28.6764C12.4352 28.7617 12.415 28.8704 12.4656 28.9714C12.5758 29.354 12.8086 29.554 13.1917 29.5826C13.0492 29.2678 12.9155 28.9806 12.7985 28.6612C12.7459 28.5459 12.71 28.4136 12.7118 28.2929C12.7413 27.8361 12.9492 27.4535 13.3276 27.1474C13.671 26.845 13.7301 26.5431 13.5544 26.1416C13.5097 26.0264 13.4678 25.9406 13.4055 25.8263C13.506 25.7438 13.6093 25.6903 13.6927 25.6092C14.026 25.2856 14.4169 24.9897 14.6847 24.6472C14.935 24.3213 15.2115 24.112 15.6135 23.9396C15.6527 24.0673 15.6919 24.1659 15.7495 24.2632C15.8555 24.2558 15.9979 24.2738 16.0671 24.2254C16.4142 24.041 16.7263 23.8608 17.0568 23.6663C17.2305 23.5542 17.2614 23.3818 17.0992 23.2219C17.0466 23.2537 16.9941 23.2712 16.942 23.3178C16.5073 23.6322 16.3105 23.6045 16.0901 23.1569C16.0717 23.0716 16.0173 22.9739 16.0348 22.9006C16.1201 22.507 15.8583 22.3631 15.4702 22.3387C15.4522 22.3396 15.4526 22.3106 15.4181 22.2396C15.7532 22.223 16.0532 22.194 16.3709 22.1921C16.6709 22.1769 16.9881 22.2032 17.3237 22.199C17.3186 22.0824 17.3343 21.9847 17.3725 21.904C17.7109 21.8616 18.0925 21.7731 18.3373 21.5297C18.3834 21.4836 18.7987 20.6383 18.5387 20.6724C19.0472 20.6055 19.5556 20.5387 20.0645 20.4718C20.2346 20.4492 20.4226 20.417 20.5282 20.2819C20.6038 20.1851 20.6199 20.0561 20.6319 19.9334C20.6974 19.2476 20.7209 18.5354 20.8873 17.8734C21.02 17.6609 21.1486 17.448 21.2653 17.2249C21.422 16.9658 21.5432 16.8575 21.8507 16.911C22.1406 16.9645 22.3656 16.8552 22.6182 16.6814C22.9118 16.4671 23.234 16.3081 23.5866 16.1767C24.0531 15.9932 24.5426 15.8904 25.023 15.7365C25.152 15.6982 25.3203 15.6346 25.3295 15.583C25.3797 15.2981 25.6047 15.3138 25.8683 15.3032C25.8896 14.9943 25.9126 14.6984 25.9338 14.4278C26.0135 14.378 26.1048 14.2766 26.2081 14.202C26.4381 14.0268 26.7317 13.8811 26.7059 13.6115C26.646 13.3404 26.6957 13.1358 27.2 13.0781C26.9281 12.9021 26.7179 12.7647 26.4943 12.6121C27.2637 12.2074 27.9657 11.822 28.6502 11.457C28.3432 11.2505 27.1553 11.2371 26.6672 11.4676C26.3648 11.6049 26.3298 11.6035 26.1776 11.4634C26.4952 11.2735 26.7898 11.1103 27.1092 10.9241C26.5837 10.6936 26.0873 10.4853 25.5936 10.2723C25.5706 10.2705 25.548 10.2686 25.5249 10.2668C25.1991 10.2479 24.8805 10.2212 24.5611 10.1972C24.0657 10.3908 23.4424 10.672 22.7904 10.9797C16.0978 14.2944 11.3054 20.8662 10.4846 28.623C10.4794 28.6728 10.4744 28.7216 10.4697 28.7685L10.514 28.7686Z" fill="#2983D3"/>
<path d="M53.525 23.0527C53.6977 23.5063 53.8469 23.9703 53.9906 24.4374C61.1624 27.5008 60.0541 31.9931 50.6269 34.6923C39.881 37.7689 22.3408 37.7689 11.5247 34.6923C0.708567 31.6157 0.651427 26.3009 11.3972 23.2243C11.5353 23.1847 11.687 23.1516 11.8273 23.1131C11.9705 22.7339 12.1301 22.3632 12.2931 21.9942C11.3333 22.209 10.3977 22.4364 9.51542 22.689C-2.26624 26.0622 -2.20359 31.5451 9.65513 34.9182C21.5054 38.289 40.727 38.2914 52.5087 34.9182C63.8738 31.6642 64.1753 26.4434 53.525 23.0527Z" fill="#13519C"/>
<path d="M50.4384 44.4719C50.3584 44.5836 50.2865 44.7021 50.2045 44.812C51.5831 50.0351 47.5383 51.4058 39.8359 47.5186C29.8572 42.4824 16.9782 30.5747 11.1251 20.973C5.27202 11.3711 8.93918 7.62969 18.918 12.6658C19.113 12.7643 19.3136 12.8765 19.5129 12.9856C19.8031 12.7725 20.1018 12.571 20.4023 12.3719C19.5548 11.8782 18.7154 11.407 17.8997 10.9953C6.959 5.47375 3.28275 9.54213 9.70004 20.0694C16.1129 30.5894 30.2247 43.6402 41.1653 49.1617C50.8339 54.0413 54.8114 51.4085 51.1709 43.4611C50.9369 43.8063 50.6908 44.1408 50.4384 44.4719Z" fill="#13519C"/>
<path d="M33.4794 7.81451C33.2226 8.08471 32.971 8.38517 32.7174 8.67428C33.3424 8.67518 33.9579 8.71296 34.5685 8.76768C41.609 2.23376 47.4369 5.80833 47.2054 16.8826C46.9615 28.5477 40.5879 44.5349 32.9967 52.5227C26.2118 59.662 20.2864 57.6389 19.3697 48.8828C18.8648 48.5067 18.3747 48.1125 17.9038 47.696C17.9323 59.7955 24.3696 62.7479 32.5098 54.1822C40.8268 45.4307 47.8143 27.9124 48.0817 15.123C48.349 2.34252 41.7963 -0.936998 33.4794 7.81451Z" fill="#13519C"/>
<path d="M50.8495 18.0772C51.119 18.4564 51.3776 18.8428 51.6235 19.239C58.3804 19.471 58.9156 23.675 51.9031 29.456C43.6161 36.2876 28.1635 43.0146 17.4547 44.4524C7.67693 45.7651 5.03583 42.0251 10.9844 36.1986C10.8881 35.7985 10.808 35.3929 10.7337 34.9846C2.00765 42.3272 4.22995 47.0108 15.836 45.4525C27.5687 43.8773 44.5035 36.5076 53.5893 29.0174C62.105 21.9973 60.7329 17.3301 50.8495 18.0772Z" fill="#13519C"/>
<path d="M22.4725 45.4534C23.2114 45.4534 23.8104 44.8544 23.8104 44.1155C23.8104 43.3766 23.2114 42.7775 22.4725 42.7775C21.7335 42.7775 21.1345 43.3766 21.1345 44.1155C21.1345 44.8544 21.7335 45.4534 22.4725 45.4534Z" fill="#3086EE" fill-opacity="0.4"/>
<path d="M6.23476 35.4578C7.31405 35.4578 8.189 34.5829 8.189 33.5036C8.189 32.4243 7.31405 31.5493 6.23476 31.5493C5.15546 31.5493 4.28052 32.4243 4.28052 33.5036C4.28052 34.5829 5.15546 35.4578 6.23476 35.4578Z" fill="#3086EE" fill-opacity="0.4"/>
<path d="M16.1509 12.2028C16.8899 12.2028 17.4889 11.6038 17.4889 10.8649C17.4889 10.1259 16.8899 9.52692 16.1509 9.52692C15.412 9.52692 14.813 10.1259 14.813 10.8649C14.813 11.6038 15.412 12.2028 16.1509 12.2028Z" fill="#3086EE" fill-opacity="0.4"/>
<path d="M47.6037 18.5306C48.683 18.5306 49.5579 17.6556 49.5579 16.5763C49.5579 15.497 48.683 14.6221 47.6037 14.6221C46.5244 14.6221 45.6494 15.497 45.6494 16.5763C45.6494 17.6556 46.5244 18.5306 47.6037 18.5306Z" fill="#3086EE" fill-opacity="0.4"/>
<path d="M43.0058 37.7654C43.7735 37.7654 44.3958 37.1431 44.3958 36.3754C44.3958 35.6077 43.7735 34.9854 43.0058 34.9854C42.2381 34.9854 41.6157 35.6077 41.6157 36.3754C41.6157 37.1431 42.2381 37.7654 43.0058 37.7654Z" fill="#3086EE" fill-opacity="0.4"/>
<path d="M58.8505 32.9542C59.9298 32.9542 60.8047 32.0793 60.8047 31C60.8047 29.9207 59.9298 29.0458 58.8505 29.0458C57.7712 29.0458 56.8962 29.9207 56.8962 31C56.8962 32.0793 57.7712 32.9542 58.8505 32.9542Z" fill="#3086EE" fill-opacity="0.4"/>
<path d="M29.5231 58.1275C30.6024 58.1275 31.4773 57.2525 31.4773 56.1732C31.4773 55.0939 30.6024 54.219 29.5231 54.219C28.4438 54.219 27.5688 55.0939 27.5688 56.1732C27.5688 57.2525 28.4438 58.1275 29.5231 58.1275Z" fill="#3086EE" fill-opacity="0.4"/>
</svg>
