<svg width="46" height="46" viewBox="0 0 46 46" fill="none" xmlns="http://www.w3.org/2000/svg">
<path d="M37.0875 19.7297C38.8143 19.7297 40.2141 18.3299 40.2141 16.6031C40.2141 14.8764 38.8143 13.4766 37.0875 13.4766C35.3607 13.4766 33.9609 14.8764 33.9609 16.6031C33.9609 18.3299 35.3607 19.7297 37.0875 19.7297Z" fill="#13519C"/>
<path fill-rule="evenodd" clip-rule="evenodd" d="M45.443 25.4618C45.434 25.4079 45.4251 25.3629 45.4071 25.318C45.0836 24.3836 43.6102 24.195 43.0981 25.0395C42.8376 25.4618 42.8106 25.9829 42.7747 26.477C42.6219 28.7141 42.2805 30.9332 41.7594 33.1075C41.5618 33.934 41.3282 34.7696 40.8969 35.5063C40.304 36.4946 39.3336 37.2493 38.2196 37.5817C37.3751 37.8332 36.4766 37.8422 35.6051 37.7883C34.8325 37.7434 33.943 37.6895 33.4219 38.2645C33.0356 38.6957 33.0176 39.4145 33.395 39.8547C33.934 40.5016 34.9313 40.4118 35.7758 40.3848C36.7282 40.3489 37.6895 40.4747 38.6329 40.3219C40.7532 39.9805 42.4692 38.2915 43.4036 36.3598C44.3379 34.4192 44.6344 32.245 44.9129 30.1157C45.0836 28.786 45.2633 27.4473 45.434 26.1176C45.452 25.893 45.479 25.6684 45.443 25.4618Z" fill="#2983D3" fill-opacity="0.4"/>
<path fill-rule="evenodd" clip-rule="evenodd" d="M36.6474 21.0684C36.0274 21.0684 35.4524 21.2391 34.9403 21.5266V21.5176C34.9403 21.5176 34.8685 21.5535 34.7696 21.6254C34.4911 21.8051 34.2396 22.0117 34.0149 22.2543L34.006 22.2633C33.404 22.8563 33.0716 23.6828 33.0716 24.5363V28.4445V31.7598L29.1993 32.6762L25.6235 39.9176C25.6235 39.9176 25.7224 42.1996 27.9595 40.807L31.2837 36.0902L36.3239 35.7578C36.4317 35.7668 36.5306 35.7937 36.6474 35.7937C36.9349 35.7937 37.2134 35.7488 37.4739 35.6859H37.5099L37.5009 35.677C39.0552 35.2906 40.2142 33.8891 40.2142 32.218V24.6352C40.2142 22.6766 38.606 21.0684 36.6474 21.0684Z" fill="#13519C"/>
<path d="M8.91245 19.7297C10.6392 19.7297 12.039 18.3299 12.039 16.6031C12.039 14.8764 10.6392 13.4766 8.91245 13.4766C7.1857 13.4766 5.78589 14.8764 5.78589 16.6031C5.78589 18.3299 7.1857 19.7297 8.91245 19.7297Z" fill="#13519C"/>
<path fill-rule="evenodd" clip-rule="evenodd" d="M0.557021 25.4618C0.566005 25.4079 0.574989 25.3629 0.592958 25.318C0.916396 24.3836 2.38983 24.195 2.90194 25.0395C3.16249 25.4618 3.18944 25.9829 3.22538 26.477C3.37811 28.7141 3.71952 30.9332 4.24061 33.1075C4.43827 33.934 4.67186 34.7696 5.10311 35.5063C5.69608 36.4946 6.6664 37.2493 7.78046 37.5817C8.62499 37.8332 9.52343 37.8422 10.3949 37.7883C11.1676 37.7434 12.057 37.6895 12.5781 38.2645C12.9644 38.6957 12.9824 39.4145 12.6051 39.8547C12.066 40.5016 11.0687 40.4118 10.2242 40.3848C9.27186 40.3489 8.31054 40.4747 7.36718 40.3219C5.24686 39.9805 3.53085 38.2915 2.59647 36.3598C1.6621 34.4192 1.36561 32.245 1.0871 30.1157C0.916396 28.786 0.736708 27.4473 0.566005 26.1176C0.548036 25.893 0.521083 25.6684 0.557021 25.4618Z" fill="#2983D3" fill-opacity="0.4"/>
<path fill-rule="evenodd" clip-rule="evenodd" d="M9.35269 21.0684C9.97261 21.0684 10.5476 21.2391 11.0597 21.5266V21.5176C11.0597 21.5176 11.1316 21.5535 11.2304 21.6254C11.5089 21.8051 11.7605 22.0117 11.9851 22.2543L11.9941 22.2633C12.596 22.8563 12.9285 23.6828 12.9285 24.5363V28.4445V31.7598L16.8007 32.6852L20.3765 39.9266C20.3765 39.9266 20.2777 42.2086 18.0406 40.816L14.7164 36.0992L9.67612 35.7668C9.56831 35.7758 9.46948 35.8027 9.35269 35.8027C9.06519 35.8027 8.78667 35.7578 8.52612 35.6949H8.49019L8.49917 35.6859C6.94487 35.2996 5.78589 33.898 5.78589 32.227V24.6441C5.78589 22.6766 7.39409 21.0684 9.35269 21.0684Z" fill="#13519C"/>
<path fill-rule="evenodd" clip-rule="evenodd" d="M23 15.6597L22.398 15.9922L22.5687 16.5492L21.8949 19.6488C21.1402 18.391 20.4394 16.2347 20.0351 14.8691C18.8133 15.2644 17.1152 15.3812 16.5133 16.4144C15.8844 17.4656 15.5969 19.8015 15.498 21.6703C15.489 21.814 15.543 21.9398 15.6687 22.0476C15.7855 22.1554 15.9383 22.2093 16.109 22.2093H29.909C30.0797 22.2093 30.2324 22.1554 30.3492 22.0476C30.466 21.9398 30.5289 21.814 30.5199 21.6703C30.4211 19.8015 30.1336 17.4656 29.5047 16.4144C28.8937 15.3902 27.1957 15.2644 25.9828 14.8691C25.5785 16.2347 24.8777 18.382 24.123 19.6488L23.4492 16.5492L23.6199 15.9922L23 15.6597ZM26.3332 8.94841V6.58552C25.0035 4.56403 23 4.74372 23 4.74372C23 4.74372 20.9965 4.57302 19.6668 6.58552V8.94841C19.6668 8.94841 18.5707 10.3949 20.0711 11.5988C20.0711 11.5988 20.7359 13.9617 23 14.0246C25.264 13.9707 25.9289 11.5988 25.9289 11.5988C27.4293 10.3949 26.3332 8.94841 26.3332 8.94841Z" fill="#13519C"/>
</svg>
