<svg width="38" height="38" viewBox="0 0 38 38" fill="none" xmlns="http://www.w3.org/2000/svg">
<path d="M31.8843 19.0297C29.2124 19.0297 27.5203 16.8625 27.5203 14.1609V6.62031C27.5203 6.05625 27.1343 5.58125 26.5999 5.43281L22.6515 4.45312L22.2953 5.87812L22.5921 4.45312C20.3953 5.90781 17.5749 5.90781 15.3781 4.48281V4.45312H15.3187L11.4296 5.43281C10.8953 5.58125 10.5093 6.05625 10.5093 6.62031V14.1609C10.5093 16.8328 8.81714 19.0297 6.14526 19.0297V31.1422C6.14526 31.825 6.67964 32.3594 7.36245 32.3594H15.3781C17.3968 32.3594 19.0296 30.7266 19.0296 28.7078V21.7609V28.7375C19.0296 30.7562 20.6624 32.3891 22.6812 32.3891H30.6968C31.3796 32.3891 31.914 31.8547 31.914 31.1719L31.8843 19.0297Z" fill="#2983D3" fill-opacity="0.4"/>
<path d="M6.1156 25.5906H31.8843V28.8563H6.1156V25.5906ZM6.1156 19.8906H31.8843V23.1563H6.1156V19.8906Z" fill="white"/>
<path d="M15.3484 33.25H7.33279C6.17498 33.25 5.22498 32.3 5.22498 31.1422V19.0297C5.22498 18.525 5.61091 18.1391 6.1156 18.1391C8.52029 18.1391 9.58904 16.0907 9.58904 14.161V6.62035C9.58904 5.64066 10.2422 4.80941 11.1922 4.57191L15.1406 3.59223C15.6156 3.47348 16.0906 3.77035 16.2094 4.24535L19.8609 18.8219C19.8906 18.8813 19.8906 18.9703 19.8906 19.0297V28.7078C19.8906 31.2016 17.8422 33.25 15.3484 33.25ZM7.00623 19.861V31.1719C7.00623 31.35 7.15466 31.4985 7.33279 31.4985H15.3484C16.8625 31.4985 18.1094 30.2516 18.1094 28.7375V19.1485L14.6953 5.52191L11.6078 6.29379C11.4594 6.32347 11.3703 6.47191 11.3703 6.62035V14.161C11.3703 17.1594 9.58904 19.4157 7.00623 19.861Z" fill="#13519C"/>
<path d="M30.6672 33.2499H22.6516C20.1578 33.2499 18.1094 31.2015 18.1094 28.7077C18.1094 28.2031 18.4953 27.8171 19 27.8171C19.5047 27.8171 19.8906 28.2031 19.8906 28.7077C19.8906 30.2218 21.1375 31.4687 22.6516 31.4687H30.6672C30.8453 31.4687 30.9938 31.3202 30.9938 31.1421V19.8609C28.4109 19.4452 26.6297 17.189 26.6297 14.1906V6.62025C26.6297 6.47181 26.5406 6.35306 26.3922 6.29369L23.3047 5.52181L21.1969 13.7156C21.0781 14.1906 20.5734 14.4874 20.0984 14.3687C19.6234 14.2499 19.3266 13.7749 19.4453 13.2702L21.7906 4.21556C21.9094 3.74056 22.3844 3.44369 22.8594 3.56244L26.8078 4.54213C27.7578 4.77963 28.4109 5.61088 28.4109 6.59056V14.1312C28.4109 16.0312 29.5094 18.1093 31.8844 18.1093C32.3891 18.1093 32.775 18.4952 32.775 18.9999V31.1124C32.775 32.2999 31.825 33.2499 30.6672 33.2499Z" fill="#13519C"/>
<path d="M18.9406 6.44218C17.4859 6.44218 16.0609 6.02656 14.814 5.19531C14.3984 4.92812 14.2797 4.36406 14.5765 3.94843C14.8437 3.53281 15.4078 3.41406 15.8234 3.71093C17.7234 4.98749 20.2172 4.98749 22.1172 3.71093C22.5328 3.44374 23.0672 3.56249 23.364 3.94843C23.6312 4.36406 23.5125 4.89843 23.1265 5.19531C21.8203 6.02656 20.3656 6.44218 18.9406 6.44218Z" fill="#13519C"/>
</svg>
