<svg width="45" height="45" viewBox="0 0 45 45" fill="none" xmlns="http://www.w3.org/2000/svg">
<g clip-path="url(#clip0_0_2044)">
<path d="M36 0H9C4.02944 0 0 4.02944 0 9V36C0 40.9706 4.02944 45 9 45H36C40.9706 45 45 40.9706 45 36V9C45 4.02944 40.9706 0 36 0Z" fill="#2983D3" fill-opacity="0.1"/>
<path d="M33.7084 25.1674C33.5948 24.9216 33.3911 24.7288 33.1395 24.629C32.8878 24.5292 32.6073 24.5299 32.3562 24.6311C32.105 24.7322 31.9023 24.9261 31.7901 25.1725C31.6778 25.4189 31.6646 25.699 31.7531 25.9549L32.9906 29.0273L29.3018 27.4005C29.1693 27.3431 29.0265 27.3135 28.8821 27.3135C28.7378 27.3135 28.595 27.3431 28.4625 27.4005C27.1934 27.9403 25.8277 28.2163 24.4485 28.2117C18.8021 28.2117 15.0086 23.7904 15.0086 19.6617C15.0086 14.9468 19.2431 11.1117 24.4485 11.1117C29.6539 11.1117 33.8884 14.9468 33.8884 19.6617C33.8857 20.0661 33.8545 20.4699 33.795 20.8699C33.7745 21.0069 33.7813 21.1465 33.8148 21.2809C33.8483 21.4152 33.9079 21.5417 33.9903 21.653C34.0727 21.7643 34.1761 21.8583 34.2948 21.9296C34.4135 22.0009 34.5451 22.0481 34.6821 22.0686C34.819 22.0891 34.9587 22.0824 35.093 22.0489C35.2274 22.0153 35.3538 21.9557 35.4651 21.8733C35.5764 21.791 35.6704 21.6875 35.7417 21.5688C35.8131 21.4501 35.8603 21.3185 35.8808 21.1815C35.9569 20.6777 35.9967 20.169 36 19.6594C35.9937 18.2285 35.6863 16.8149 35.0976 15.5106C34.509 14.2063 33.6523 13.0406 32.5834 12.0893C30.3554 10.0776 27.4536 8.97521 24.4519 9.00005C21.4498 8.97503 18.5476 10.0775 16.3193 12.0893C14.3965 13.8067 13.1915 16.1854 12.9443 18.7515C11.7484 19.5135 10.7614 20.5617 10.0727 21.8012C9.38401 23.0407 9.01531 24.4324 9 25.8503C8.99893 27.6117 9.5663 29.3264 10.6178 30.7395L9.07763 34.5499C8.99881 34.7444 8.97985 34.9581 9.02318 35.1634C9.0665 35.3688 9.17015 35.5565 9.32083 35.7026C9.47152 35.8487 9.66239 35.9465 9.86899 35.9835C10.0756 36.0204 10.2885 35.9948 10.4805 35.91L14.922 33.9525C16.0477 34.3701 17.2392 34.5824 18.4399 34.5792C18.4658 34.5792 18.4916 34.5792 18.5175 34.5792C20.2611 34.5703 21.9721 34.1049 23.4799 33.2292C24.7849 32.4744 25.8814 31.4065 26.6704 30.1219C27.4183 29.9881 28.152 29.7843 28.8619 29.5133L34.5206 32.0074C34.7126 32.0916 34.9253 32.1167 35.1316 32.0795C35.3379 32.0424 35.5285 31.9446 35.679 31.7987C35.8295 31.6527 35.9331 31.4653 35.9767 31.2602C36.0202 31.0552 36.0017 30.8418 35.9235 30.6473L33.7084 25.1674ZM18.4399 32.4664H18.3971C17.3382 32.4648 16.2904 32.2506 15.3158 31.8364C15.1833 31.779 15.0405 31.7493 14.8961 31.7493C14.7518 31.7493 14.6089 31.779 14.4765 31.8364L12.0015 32.9254L12.798 30.9544C12.8703 30.7756 12.8921 30.5803 12.8612 30.3899C12.8302 30.1995 12.7477 30.0212 12.6225 29.8744C11.6471 28.7572 11.1078 27.3255 11.1038 25.8424C11.1109 25.001 11.2871 24.1696 11.6221 23.3977C11.957 22.6258 12.4438 21.9292 13.0534 21.3492C13.4736 23.5284 14.5643 25.5218 16.173 27.0507C18.2501 29.0345 20.98 30.1919 23.85 30.3053C22.3962 31.7018 20.4557 32.4769 18.4399 32.4664Z" fill="#13519C"/>
<path d="M24.3979 20.7585C24.9801 20.7585 25.452 20.2866 25.452 19.7044C25.452 19.1222 24.9801 18.6503 24.3979 18.6503C23.8157 18.6503 23.3438 19.1222 23.3438 19.7044C23.3438 20.2866 23.8157 20.7585 24.3979 20.7585Z" fill="#13519C"/>
<path d="M28.6166 20.7585C29.1988 20.7585 29.6707 20.2866 29.6707 19.7044C29.6707 19.1222 29.1988 18.6503 28.6166 18.6503C28.0344 18.6503 27.5625 19.1222 27.5625 19.7044C27.5625 20.2866 28.0344 20.7585 28.6166 20.7585Z" fill="#13519C"/>
<path d="M20.1791 20.7585C20.7613 20.7585 21.2332 20.2866 21.2332 19.7044C21.2332 19.1222 20.7613 18.6503 20.1791 18.6503C19.5969 18.6503 19.125 19.1222 19.125 19.7044C19.125 20.2866 19.5969 20.7585 20.1791 20.7585Z" fill="#13519C"/>
</g>
<defs>
<clipPath id="clip0_0_2044">
<rect width="45" height="45" fill="white"/>
</clipPath>
</defs>
</svg>
