<svg width="35" height="35" viewBox="0 0 35 35" fill="none" xmlns="http://www.w3.org/2000/svg">
<g clip-path="url(#clip0_0_2060)">
<path d="M28 0H7C3.13401 0 0 3.13401 0 7V28C0 31.866 3.13401 35 7 35H28C31.866 35 35 31.866 35 28V7C35 3.13401 31.866 0 28 0Z" fill="#2983D3" fill-opacity="0.1"/>
<path d="M19.4443 7.77783H11.6664C11.1522 7.77969 10.6598 7.98543 10.2971 8.34992C9.93439 8.71441 9.7311 9.20789 9.73179 9.72208L9.72217 25.2778C9.72147 25.792 9.92477 26.2855 10.2875 26.65C10.6501 27.0145 11.1426 27.2202 11.6568 27.2221H23.3337C23.8488 27.2205 24.3424 27.0151 24.7067 26.6508C25.0709 26.2866 25.2763 25.793 25.2779 25.2778V13.6115L19.4443 7.77783ZM11.6664 9.72208H18.4722L23.3337 14.5836V22.925L21.5452 21.1365C22.2194 20.1293 22.4953 18.9075 22.3193 17.7083C22.1433 16.5091 21.5279 15.4181 20.5927 14.6472C19.6575 13.8762 18.4691 13.4803 17.2584 13.5363C16.0476 13.5923 14.9009 14.0963 14.0409 14.9503C13.1808 15.8043 12.6688 16.9474 12.6043 18.1577C12.5397 19.368 12.9273 20.5592 13.6916 21.4998C14.456 22.4404 15.5426 23.0635 16.7405 23.2479C17.9384 23.4324 19.1621 23.1651 20.174 22.498L22.9443 25.2778H11.6664V9.72208ZM19.551 20.5135C19.2826 20.7845 18.9632 20.9997 18.6112 21.1466C18.2591 21.2934 17.8815 21.3691 17.5 21.3692C17.1183 21.3711 16.7401 21.2964 16.3877 21.1494C16.0354 21.0024 15.7162 20.7861 15.449 20.5135C15.178 20.2451 14.9628 19.9256 14.8159 19.5736C14.6691 19.2216 14.5934 18.8439 14.5933 18.4625C14.5923 17.8875 14.7622 17.3253 15.0814 16.8471C15.4005 16.3688 15.8545 15.9962 16.3858 15.7765C16.9171 15.5567 17.5016 15.4998 18.0654 15.6128C18.6291 15.7259 19.1465 16.0038 19.5519 16.4115C19.823 16.6799 20.0381 16.9993 20.185 17.3513C20.3319 17.7034 20.4076 18.081 20.4077 18.4625C20.4096 18.8444 20.3347 19.2229 20.1876 19.5753C20.0404 19.9278 19.824 20.2462 19.551 20.5135Z" fill="#13519C"/>
</g>
<defs>
<clipPath id="clip0_0_2060">
<rect width="35" height="35" fill="white"/>
</clipPath>
</defs>
</svg>
