<svg width="45" height="45" viewBox="0 0 45 45" fill="none" xmlns="http://www.w3.org/2000/svg">
<g clip-path="url(#clip0_0_2054)">
<path d="M36 0H9C4.02944 0 0 4.02944 0 9V36C0 40.9706 4.02944 45 9 45H36C40.9706 45 45 40.9706 45 36V9C45 4.02944 40.9706 0 36 0Z" fill="#2983D3" fill-opacity="0.1"/>
<path d="M9 36L10.9125 29.0667C9.735 27.0288 9.11607 24.7164 9.11822 22.3628C9.12036 20.0093 9.74351 17.6979 10.9247 15.6623C12.1059 13.6266 13.8034 11.9386 15.8457 10.7689C17.8879 9.59911 20.2027 8.98896 22.5563 9.00003C24.5954 9.00258 26.607 9.47093 28.4376 10.3693C30.2682 11.2677 31.8694 12.5724 33.1189 14.1839C34.3685 15.7953 35.2334 17.6709 35.6477 19.6675C36.062 21.6642 36.0148 23.729 35.5095 25.7046C35.0043 27.6802 34.0544 29.5142 32.7324 31.0668C31.4104 32.6194 29.7512 33.8494 27.8814 34.6631C26.0116 35.4767 23.9806 35.8525 21.9435 35.7617C19.9064 35.671 17.9169 35.116 16.1269 34.1393L9 36ZM16.4565 31.7172C18.2745 32.8835 20.3884 33.505 22.5484 33.5082C25.0313 33.4958 27.4386 32.6523 29.3863 31.1123C31.3339 29.5722 32.7098 27.4243 33.2944 25.0111C33.879 22.598 33.6387 20.0585 32.6118 17.7979C31.5848 15.5372 29.8305 13.6855 27.6285 12.5382C25.4265 11.3909 22.9037 11.014 20.4625 11.4676C18.0213 11.9212 15.8024 13.1793 14.1595 15.041C12.5167 16.9028 11.5446 19.2611 11.3984 21.7398C11.2521 24.2185 11.9401 26.6747 13.3526 28.7168L12.2276 32.8208L16.4565 31.7172ZM29.3276 25.5702C29.2444 25.4307 29.0205 25.3452 28.683 25.1798C28.3455 25.0144 26.6963 24.2033 26.3869 24.0919C26.0775 23.9805 25.8559 23.9243 25.6309 24.2595C25.4059 24.5948 24.7624 25.3474 24.5678 25.5702C24.3731 25.7929 24.1751 25.821 23.8399 25.6534C22.8505 25.261 21.9368 24.6995 21.1399 23.994C20.4057 23.3187 19.776 22.5381 19.2713 21.6777C19.0755 21.3402 19.251 21.1624 19.4186 20.9959C19.5705 20.8463 19.7561 20.6055 19.9226 20.4098C20.0622 20.242 20.176 20.0543 20.2601 19.8529C20.3049 19.7607 20.3258 19.6587 20.3209 19.5563C20.316 19.4538 20.2854 19.3543 20.232 19.2668C20.1476 19.1003 19.476 17.4544 19.197 16.785C18.9236 16.1337 18.6469 16.2225 18.441 16.2113L17.7964 16.2C17.6256 16.2039 17.4575 16.2431 17.3026 16.3151C17.1477 16.3871 17.0094 16.4904 16.8964 16.6185C16.5179 16.9764 16.2183 17.4092 16.0166 17.8894C15.815 18.3696 15.7157 18.8867 15.7253 19.4074C15.8351 20.6693 16.3118 21.8714 17.0966 22.8657C18.5394 25.017 20.5166 26.7565 22.8341 27.9135C23.4589 28.1815 24.0973 28.4165 24.7466 28.6178C25.4323 28.8248 26.1566 28.8703 26.8628 28.7505C27.3299 28.6561 27.7725 28.4661 28.1628 28.1926C28.5531 27.919 28.8826 27.5678 29.1308 27.1609C29.3512 26.6615 29.4204 26.1081 29.3276 25.5702Z" fill="#13519C"/>
</g>
<defs>
<clipPath id="clip0_0_2054">
<rect width="45" height="45" fill="white"/>
</clipPath>
</defs>
</svg>
