<svg width="45" height="45" viewBox="0 0 45 45" fill="none" xmlns="http://www.w3.org/2000/svg">
<g clip-path="url(#clip0_0_2038)">
<path d="M36 0H9C4.02944 0 0 4.02944 0 9V36C0 40.9706 4.02944 45 9 45H36C40.9706 45 45 40.9706 45 36V9C45 4.02944 40.9706 0 36 0Z" fill="#2983D3" fill-opacity="0.2"/>
<path d="M24.7015 16.5149C24.4051 16.222 24.1697 15.8731 24.0091 15.4885C23.8485 15.1039 23.7658 14.6913 23.7658 14.2745C23.7658 13.8577 23.8485 13.4451 24.0091 13.0605C24.1697 12.6759 24.4051 12.327 24.7015 12.0341L27.4488 9.30706C27.5469 9.20934 27.6632 9.13189 27.7913 9.07914C27.9193 9.02639 28.0565 8.99937 28.1949 8.99964C28.3334 8.9999 28.4705 9.02743 28.5983 9.08066C28.7261 9.13389 28.8422 9.21178 28.94 9.30988C29.0377 9.40797 29.1151 9.52436 29.1679 9.65239C29.2206 9.78042 29.2476 9.91758 29.2474 10.0561C29.2471 10.1945 29.2196 10.3316 29.1664 10.4594C29.1131 10.5872 29.0352 10.7033 28.9371 10.8011L26.5488 13.1636H30.1915C31.7302 13.1639 33.206 13.7747 34.2948 14.862C35.3835 15.9493 35.9964 17.4242 35.9988 18.9629V21.8677C35.9989 22.0062 35.9718 22.1434 35.9188 22.2714C35.8659 22.3995 35.7883 22.5158 35.6904 22.6138C35.5925 22.7118 35.4763 22.7895 35.3483 22.8426C35.2203 22.8956 35.0832 22.9229 34.9446 22.9229C34.8061 22.9231 34.6689 22.8959 34.5409 22.843C34.4129 22.7901 34.2965 22.7125 34.1985 22.6146C34.1005 22.5167 34.0228 22.4004 33.9697 22.2725C33.9167 22.1445 33.8894 22.0073 33.8894 21.8688V18.9641C33.8873 17.9861 33.4976 17.0488 32.8058 16.3575C32.1139 15.6663 31.1763 15.2775 30.1983 15.2763H26.4475L28.9371 17.7434C29.0353 17.8412 29.1133 17.9573 29.1666 18.0851C29.2199 18.213 29.2475 18.3501 29.2478 18.4886C29.2481 18.6271 29.2211 18.7644 29.1684 18.8925C29.1157 19.0206 29.0382 19.137 28.9405 19.2352C28.8428 19.3334 28.7267 19.4113 28.5988 19.4646C28.471 19.5179 28.3339 19.5455 28.1953 19.5458C28.0568 19.5461 27.9196 19.5192 27.7915 19.4664C27.6634 19.4137 27.5469 19.3363 27.4488 19.2386L24.7015 16.5149ZM34.7725 28.0136C33.7042 26.8537 32.3721 25.9685 30.889 25.4328C30.1013 25.2007 29.2639 25.1965 28.4739 25.4207C27.6838 25.6449 26.9735 26.0883 26.425 26.6996L26.4194 26.7052L24.9918 28.1261C23.3425 27.1737 21.8289 26.0037 20.4918 24.6476L20.3613 24.5036C19.0069 23.1651 17.8374 21.6518 16.8839 20.0036L18.2969 18.5816L18.3025 18.5759C18.9146 18.028 19.3588 17.3179 19.5838 16.5278C19.8088 15.7377 19.8053 14.9001 19.5738 14.1119C19.0362 12.6282 18.1486 11.296 16.9863 10.2284C16.2647 9.48072 15.2813 9.04203 14.2429 9.00468C13.2045 8.96733 12.192 9.33424 11.4186 10.0282L11.3883 10.0552L11.3478 10.0934C10.555 10.9268 9.93843 11.9114 9.53483 12.9884C9.13123 14.0655 8.94891 15.2128 8.99877 16.3619C9.02127 20.7011 11.4051 25.6511 15.3741 29.6257C16.1683 30.4138 17.0131 31.1493 17.9031 31.8273C18.0132 31.9116 18.1388 31.9734 18.2727 32.0091C18.4067 32.0449 18.5463 32.0539 18.6838 32.0357C18.8212 32.0174 18.9537 31.9723 19.0737 31.9029C19.1937 31.8335 19.2988 31.7411 19.3831 31.631C19.4674 31.5209 19.5291 31.3954 19.5649 31.2614C19.6006 31.1275 19.6097 30.9878 19.5914 30.8504C19.5732 30.713 19.5281 30.5805 19.4586 30.4605C19.3892 30.3405 19.2968 30.2353 19.1868 30.1511C18.37 29.5291 17.5948 28.8546 16.8659 28.1317C13.2805 24.5486 11.1284 20.1386 11.1093 16.3518C11.0649 15.4862 11.1937 14.6205 11.4881 13.8053C11.7825 12.9901 12.2366 12.2418 12.8238 11.6043V11.5976C13.19 11.2664 13.671 11.0911 14.1645 11.1089C14.658 11.1268 15.125 11.3364 15.4664 11.6932C18.2013 14.5248 17.9988 15.8636 16.7961 17.1011L14.8409 19.0687C14.6907 19.2194 14.5897 19.412 14.5509 19.6212C14.5122 19.8304 14.5376 20.0464 14.6238 20.2409C15.7034 22.3846 17.1373 24.3304 18.865 25.9964L19.0034 26.1348C20.6697 27.8627 22.6159 29.2967 24.76 30.3761C24.9543 30.4625 25.1702 30.4883 25.3794 30.45C25.5886 30.4116 25.7813 30.311 25.9323 30.1612L27.8988 28.2048C29.1363 26.9988 30.4728 26.8008 33.3044 29.5312C33.6609 29.8727 33.8703 30.3397 33.8882 30.8331C33.906 31.3265 33.7309 31.8074 33.4 32.1738L33.3921 32.1817C32.7607 32.763 32.0203 33.2135 31.2137 33.507C30.4072 33.8005 29.5504 33.9313 28.693 33.8917H28.6446C26.8457 33.8277 25.0771 33.4091 23.4404 32.6598C23.1835 32.549 22.8931 32.5447 22.6331 32.648C22.373 32.7513 22.1647 32.9536 22.0538 33.2105C21.943 33.4674 21.9387 33.7578 22.042 34.0178C22.1453 34.2779 22.3476 34.4862 22.6045 34.5971C24.5015 35.4649 26.5537 35.9424 28.639 36.0011H28.6986C29.8378 36.0442 30.9741 35.8587 32.0404 35.4557C33.1068 35.0526 34.0817 34.4401 34.9075 33.6543L34.9469 33.6127L34.9739 33.5823C35.668 32.8087 36.0349 31.796 35.9974 30.7573C35.9598 29.7186 35.5207 28.735 34.7725 28.0136Z" fill="#13519C"/>
</g>
<defs>
<clipPath id="clip0_0_2038">
<rect width="45" height="45" fill="white"/>
</clipPath>
</defs>
</svg>
