<svg width="24" height="24" viewBox="0 0 24 24" fill="none" xmlns="http://www.w3.org/2000/svg">
<g clip-path="url(#clip0_99_764)">
<path d="M14.3 19.3001L13 20.6001V15.0001C13 14.4001 12.6 14.0001 12 14.0001C11.4 14.0001 11 14.4001 11 15.0001V20.6001L9.70004 19.3001C9.30004 18.9001 8.70004 18.9001 8.30004 19.3001C7.90004 19.7001 7.90004 20.3001 8.30004 20.7001L11.3 23.7001C11.7 24.1001 12.3 24.1001 12.7 23.7001L15.7 20.7001C16.1 20.3001 16.1 19.7001 15.7 19.3001C15.3 18.9001 14.7 18.9001 14.3 19.3001ZM18.4 8.20005C16.9 4.70005 12.8 3.00005 9.20004 4.60005C6.90004 5.60005 5.30004 7.70005 5.00004 10.2001C2.90004 10.7001 1.50004 12.9001 2.00004 15.0001C2.50004 16.7001 4.20004 18.0001 6.00004 18.0001H7.50004C8.10004 17.6001 8.80004 17.4001 9.50004 17.6001V15.0001C9.50004 13.6001 10.6 12.5001 12 12.5001C13.4 12.5001 14.5 13.6001 14.5 15.0001V17.6001C15.2 17.5001 15.9 17.6001 16.5 18.0001H17C19.8 18.0001 22 15.8001 22 13.0001C22 10.8001 20.6 8.90005 18.4 8.20005Z" fill="white" fill-opacity="0.8"/>
</g>
<defs>
<clipPath id="clip0_99_764">
<rect width="24" height="24" fill="white"/>
</clipPath>
</defs>
</svg>
