<svg width="7" height="5" viewBox="0 0 7 5" fill="none" xmlns="http://www.w3.org/2000/svg">
<path d="M6.81059 0.8991C6.69059 0.77983 6.52829 0.712891 6.35909 0.712891C6.18999 0.712891 6.02769 0.77983 5.90769 0.8991L3.6088 3.16594L1.34199 0.8991C1.22199 0.77983 1.05969 0.712891 0.890594 0.712891C0.721394 0.712891 0.559095 0.77983 0.439095 0.8991C0.379095 0.95863 0.331495 1.02945 0.298895 1.10748C0.266395 1.18552 0.249695 1.26921 0.249695 1.35375C0.249695 1.43828 0.266395 1.52198 0.298895 1.60001C0.331495 1.67804 0.379095 1.74887 0.439095 1.8084L3.15419 4.5235C3.21369 4.5835 3.28449 4.6311 3.36259 4.6636C3.44059 4.6962 3.5243 4.7129 3.6088 4.7129C3.6934 4.7129 3.77709 4.6962 3.85509 4.6636C3.93309 4.6311 4.00399 4.5835 4.06349 4.5235L6.81059 1.8084C6.87059 1.74887 6.91819 1.67804 6.95079 1.60001C6.98329 1.52198 6.99999 1.43828 6.99999 1.35375C6.99999 1.26921 6.98329 1.18552 6.95079 1.10748C6.91819 1.02945 6.87059 0.95863 6.81059 0.8991Z" fill="#1E96FC"/>
</svg>
