<svg width="35" height="35" viewBox="0 0 35 35" fill="none" xmlns="http://www.w3.org/2000/svg">
<path d="M10.2266 14C10.2266 14 10.0078 14.3281 9.1875 14.3828C8.85937 14.3828 8.58594 14.2734 8.42187 14.2187C8.20312 14.1094 8.14844 14 8.14844 14C8.14844 12.25 8.69531 10.1172 8.85938 9.40625C8.69531 9.29688 8.58594 9.13281 8.58594 8.91406C8.58594 8.64062 8.80469 8.36719 9.02344 8.3125V7.16406L9.35156 7.32812V8.3125C9.625 8.36719 9.78906 8.64062 9.78906 8.91406C9.78906 9.13281 9.67969 9.29688 9.51562 9.40625C9.625 9.84375 9.89844 10.8828 10.0625 12.0312C10.1719 12.6875 10.2266 13.3984 10.2266 14Z" fill="#2983D3" fill-opacity="0.4"/>
<path d="M23.8984 14.3828C23.8438 14 23.625 13.6172 23.1875 13.6172C23.1875 13.6172 23.1328 13.6172 23.0781 13.6172L23.0234 13.5078C23.0234 13.5078 23.0781 13.1797 23.0781 13.0156C23.1328 12.4688 23.1328 11.9219 23.1875 11.375C23.1875 11.1563 23.2422 10.9375 23.2422 10.6641L21.875 10.2813C21.8203 10.2813 21.7109 10.2266 21.6016 10.2266L21.2188 10.1719C20.6719 10.0625 20.125 10.0078 19.6328 9.95314C18.7031 9.89845 17.7734 9.89845 16.8438 9.89845H16.7344C15.6406 9.89845 14.7656 9.95314 13.9453 10.0625C13.8359 10.0625 13.6719 10.1172 13.5625 10.1172H13.5078C12.9609 10.2266 12.5234 10.336 12.0859 10.5L11.7031 10.6641C11.7031 11.211 11.7578 11.7031 11.8125 12.25C11.8125 12.6875 11.8672 13.125 11.9219 13.5078C11.8672 13.5078 11.8672 13.5078 11.8125 13.5078C11.3203 13.5078 11.1016 13.8906 11.1016 14.2735C11.1016 14.4922 11.1016 14.7656 11.1016 14.9844C11.1562 15.6953 11.375 16.2969 11.8125 16.8985C12.0313 17.2266 12.25 17.2266 12.5781 17.1172C12.6875 17.1719 12.9609 17.7188 13.0156 17.8281C13.5078 18.8672 14.2734 20.125 15.6953 20.6719C16.6797 21.0547 17.7734 21.1641 18.8125 20.8906C19.9063 20.5625 20.7813 19.7969 21.4375 18.9219C21.6563 18.6485 21.875 18.3203 22.0391 17.9922C22.0391 17.9922 22.2578 17.5547 22.3672 17.336C22.4219 17.2266 22.4219 17.1719 22.5313 17.1172C22.5859 17.1172 22.6953 17.1719 22.8047 17.1719C22.9688 17.1719 23.1328 17.0078 23.2422 16.8985C23.6797 16.3516 23.8984 15.6953 23.9531 14.9844C23.9531 14.875 23.9531 14.6016 23.8984 14.3828ZM22.2578 12.9063C22.2031 13.9453 22.1484 15.0391 21.875 16.0781C21.875 16.1328 21.8203 16.1875 21.8203 16.2422C21.1641 18.2656 19.6875 20.3985 17.3359 20.2891C16.9531 20.2891 16.5703 20.2344 16.2422 20.0703C14.5469 19.5235 13.7813 18.1563 13.1797 16.2969C12.9063 15.4766 12.7969 14.5469 12.7969 13.5078C12.7969 13.3985 12.7969 13.2891 12.7969 13.2344C12.9609 13.2344 13.125 13.2344 13.3438 13.2344C14.5469 13.2344 15.5859 13.1797 16.5156 13.0156C16.8438 12.961 17.2266 12.9063 17.6094 12.7969C18.8125 12.5235 19.7422 12.086 20.5078 11.4297C20.9453 11.9219 21.4922 12.3047 22.2578 12.5781C22.2578 12.5781 22.3125 12.5781 22.3125 12.6328L22.2578 12.9063ZM23.1328 8.09376C23.1328 7.71095 23.1328 7.32814 23.0234 6.94533C22.9688 6.72658 22.9141 6.6172 22.75 6.50783C22.5312 6.39845 22.3672 6.23439 22.1484 6.12501C21.6016 5.85158 21.1094 5.68751 20.5078 5.57814C19.25 5.3047 17.9922 5.25001 16.7344 5.3047C16.1875 5.3047 15.6953 5.35939 15.1484 5.41408C14.2734 5.52345 13.3984 5.7422 12.6328 6.1797C12.3594 6.34376 12.1406 6.45314 12.0313 6.78126C11.8125 7.60158 11.8672 8.85939 11.8125 9.6797V9.73439C12.3047 9.57033 12.8516 9.40626 13.3438 9.29689C13.5078 9.2422 13.6172 9.2422 13.7813 9.18751C14.7656 9.02345 15.8047 8.96876 16.7891 8.96876C17.7188 8.96876 18.7031 8.96876 19.6328 9.02345C20.3438 9.07814 21 9.18751 21.7109 9.29689C21.875 9.29689 22.0391 9.35158 22.1484 9.40626L23.0781 9.62501C23.1328 9.35158 23.1328 8.47658 23.1328 8.09376Z" fill="#13519C"/>
<path d="M27.125 6.01563C26.0313 6.67188 24.9375 7.27344 23.8438 7.875L23.6797 7.98438V7.92969C23.6797 7.875 23.6797 7.76563 23.6797 7.71094C23.6797 7.4375 23.6797 7.10938 23.5703 6.78125C23.5156 6.50781 23.4063 6.23438 23.0234 6.01563L22.9688 5.96094C22.8047 5.85156 22.5859 5.74219 22.4219 5.63281C21.875 5.35938 21.2734 5.14063 20.6172 5.03125C19.6328 4.8125 18.6484 4.75781 17.5 4.75781C17.2266 4.75781 16.9531 4.75781 16.6797 4.75781C16.0234 4.8125 15.5313 4.8125 15.0391 4.92188C13.8906 5.08594 13.0703 5.35938 12.25 5.79688C11.9219 5.96094 11.5391 6.17969 11.375 6.78125C11.2656 7.16406 11.2109 7.60156 11.2109 8.03906L10.9375 7.875L10.3906 7.49219L10.3359 7.4375L10.1172 7.27344L10.0625 7.21875L9.29689 6.83594C8.85939 6.5625 8.3672 6.28906 7.87501 6.01563C8.09376 5.85156 8.25782 5.74219 8.42189 5.6875C11.3203 4.04688 14.2188 2.46094 17.0625 0.820313C17.3906 0.65625 17.6094 0.65625 17.9375 0.820313C20.8906 2.46094 23.7891 4.15625 26.7422 5.79688C26.8516 5.85156 26.9609 5.90625 27.125 6.01563ZM30.1328 27.125C29.4766 25.7031 28.1094 24.7734 26.8516 24.0078C25.375 23.0781 23.625 22.3125 21.9844 21.8203C21.9297 21.8203 21.875 21.8203 21.7656 21.7656C21.7656 21.7656 21.7656 21.8203 21.7109 21.8203C21.6563 21.9297 21.6016 22.0391 21.6016 22.0938C21.2734 22.8047 20.8906 23.5156 20.5625 24.2266C20.3438 24.7188 19.9063 24.7734 19.6328 24.2813C19.3594 23.8984 19.1406 23.5156 18.8672 23.1875C18.8125 23.0781 18.7031 22.9688 18.6484 22.8594C18.4297 22.5859 18.2656 22.5313 17.9922 22.8047C17.9375 22.8594 17.9375 22.8594 17.8828 22.9141C17.7734 23.0781 17.6641 23.1328 17.5547 23.1328C17.4453 23.1328 17.3359 23.0781 17.2266 22.9141C17.1719 22.8594 17.1719 22.8594 17.1172 22.8047C16.8984 22.5313 16.6797 22.5859 16.4609 22.8594C16.4063 22.9688 16.2969 23.0781 16.2422 23.1875C15.9688 23.5703 15.75 23.9531 15.4766 24.2813C15.1484 24.7188 14.7656 24.6641 14.5469 24.2266C14.2188 23.5156 13.8359 22.8047 13.5078 22.0938C13.4531 21.9844 13.3984 21.9297 13.3984 21.8203C13.3984 21.8203 13.3984 21.7656 13.3438 21.7656C13.2891 21.7656 13.2344 21.7656 13.125 21.8203C11.4844 22.3125 9.73439 23.0781 8.25782 24.0078C7.00001 24.7734 5.57814 25.7031 4.97657 27.125C4.64845 27.8906 4.64845 28.8203 4.70314 29.6953V29.9688C4.70314 30.1328 4.70314 30.2969 4.70314 30.4609C4.70314 30.9531 5.08595 31.1719 5.41407 31.3906C5.46876 31.4453 5.52345 31.4453 5.57814 31.5C6.01564 31.7734 6.50782 32.1016 7.0547 32.3203C7.27345 32.4297 7.4922 32.4844 7.65626 32.5938C9.13282 33.1953 10.8828 33.6328 12.9609 33.9609C13.7813 34.0703 14.5469 34.1797 15.3125 34.2344C16.0781 34.2891 16.7891 34.3438 17.5 34.3438H17.5547C18.2656 34.3438 18.9766 34.2891 19.7422 34.2344C20.5078 34.1797 21.2735 34.0703 22.0938 33.9609C24.2266 33.6328 25.9219 33.1953 27.3984 32.5938C27.6172 32.4844 27.8359 32.4297 28 32.3203C28.4922 32.1016 28.9844 31.7734 29.4766 31.5C29.5313 31.4453 29.5859 31.4453 29.6406 31.3906C30.0234 31.1719 30.4063 30.9531 30.3516 30.4609C30.3516 30.2969 30.3516 30.0781 30.3516 29.9688V29.6953C30.4609 28.8203 30.4609 27.8906 30.1328 27.125Z" fill="#104A90"/>
</svg>
