<svg width="46" height="46" viewBox="0 0 46 46" fill="none" xmlns="http://www.w3.org/2000/svg">
<g clip-path="url(#clip0_0_42)">
<path d="M38.1944 6.5119L37.6302 8.22252C37.5825 8.3659 37.4908 8.49061 37.3683 8.57899C37.2457 8.66736 37.0985 8.7149 36.9474 8.71487C36.8338 8.71522 36.7217 8.68857 36.6204 8.63711C36.5192 8.58566 36.4316 8.51086 36.3649 8.4189C36.2982 8.32694 36.2543 8.22045 36.2369 8.1082C36.2194 7.99595 36.2289 7.88117 36.2645 7.7733C36.2645 7.7733 36.9617 5.6494 36.9617 5.63502C37.0164 5.44799 37.0273 5.2509 36.9937 5.05898C36.96 4.86705 36.8827 4.68543 36.7677 4.52815C36.6354 4.34876 36.4626 4.20318 36.2634 4.10325C36.0642 4.00333 35.8441 3.9519 35.6213 3.95315H33.3788C33.1559 3.9519 32.9359 4.00333 32.7366 4.10325C32.5374 4.20318 32.3646 4.34876 32.2324 4.52815C32.1173 4.68543 32.04 4.86705 32.0064 5.05898C31.9727 5.2509 31.9836 5.44799 32.0383 5.63502C32.0383 5.6458 32.7355 7.7733 32.7355 7.7733C32.7938 7.95405 32.7782 8.15053 32.6921 8.31981C32.606 8.4891 32.4564 8.61743 32.276 8.67677C32.0956 8.73612 31.899 8.72165 31.7292 8.63654C31.5594 8.55143 31.4302 8.40258 31.3699 8.22252L30.8056 6.5119C29.8693 7.39017 29.2778 8.57432 29.1381 9.85049H39.8619C39.7222 8.57432 39.1307 7.39017 38.1944 6.5119ZM44.2103 22.9066C42.7333 22.2346 39.7613 21.3577 38.5609 21.0163L38.1513 19.5069C38.7756 18.4082 39.1533 17.1868 39.2581 15.9275C39.2833 15.7047 39.3156 15.4855 39.348 15.2627C39.3767 15.083 39.4019 14.8961 39.427 14.7092C39.7989 14.6572 40.1451 14.4895 40.4164 14.2299C40.6877 13.9703 40.8705 13.6319 40.9389 13.2626C41.0072 12.8934 40.9577 12.512 40.7973 12.1724C40.6369 11.8329 40.3738 11.5524 40.0452 11.3706C39.945 11.3159 39.8322 11.2887 39.7181 11.2916H29.2819C29.1678 11.2887 29.055 11.3159 28.9549 11.3706C28.6262 11.5524 28.3631 11.8329 28.2027 12.1724C28.0423 12.512 27.9928 12.8934 28.0612 13.2626C28.1295 13.6319 28.3123 13.9703 28.5836 14.2299C28.855 14.4895 29.2011 14.6572 29.573 14.7092C29.5981 14.8961 29.6233 15.083 29.652 15.2663C29.6844 15.4855 29.7167 15.7083 29.7419 15.9275C29.8512 17.1758 30.2288 18.3857 30.8488 19.4746C30.8488 19.4817 30.8523 19.4925 30.8523 19.4997L30.6978 20.0639C30.9911 20.8355 30.9743 21.6907 30.6511 22.4502C30.7266 22.4286 30.7984 22.4071 30.8631 22.3891L33.925 26.4752C33.9918 26.5647 34.0785 26.6374 34.1784 26.6874C34.2782 26.7375 34.3883 26.7636 34.5 26.7636C34.6117 26.7636 34.7218 26.7375 34.8216 26.6874C34.9215 26.6374 35.0082 26.5647 35.075 26.4752L38.1369 22.3891C39.2833 22.7161 42.2302 23.5858 43.6138 24.2147C44.1025 24.4375 44.5625 25.2892 44.5625 25.9649V33.0194C44.5576 33.1948 44.6147 33.3663 44.7238 33.5037C44.833 33.6411 44.9871 33.7356 45.1591 33.7705C45.2622 33.7881 45.368 33.7829 45.4689 33.7555C45.5699 33.728 45.6637 33.6789 45.7437 33.6115C45.8238 33.5441 45.8882 33.4601 45.9324 33.3653C45.9767 33.2705 45.9997 33.1672 46 33.0625V25.9649C46 24.8616 45.3316 23.4169 44.2103 22.9066ZM34.5 24.8436L31.8478 21.3038L32.0095 20.718C32.6349 21.1544 33.3559 21.4341 34.1119 21.5338C34.2405 21.5519 34.3701 21.5615 34.5 21.5625C34.6445 21.5623 34.7887 21.5503 34.9313 21.5266C35.6712 21.4256 36.3775 21.1537 36.9941 20.7324L37.1522 21.3038L34.5 24.8436ZM37.9284 15.0542C37.8925 15.2878 37.8602 15.5178 37.8314 15.7478C37.4792 18.5546 36.5736 19.8196 34.712 20.1071C34.5826 20.1298 34.4502 20.131 34.3203 20.1106C32.4624 19.8375 31.5208 18.533 31.1686 15.7478C31.1399 15.5178 31.1075 15.2878 31.0716 15.0578C31.0572 14.9464 31.0428 14.8422 31.0284 14.7344H37.9716C37.9572 14.8422 37.9428 14.9464 37.9284 15.0542Z" fill="#2983D3" fill-opacity="0.4"/>
<path d="M42.4062 27.6719H41.3281V26.9531C41.3281 26.7625 41.2524 26.5797 41.1176 26.4449C40.9828 26.3101 40.8 26.2344 40.6094 26.2344C40.4188 26.2344 40.2359 26.3101 40.1011 26.4449C39.9664 26.5797 39.8906 26.7625 39.8906 26.9531V27.6719H39.5312C39.3406 27.6719 39.1578 27.7476 39.023 27.8824C38.8882 28.0172 38.8125 28.2 38.8125 28.3906C38.8125 28.5813 38.8882 28.7641 39.023 28.8989C39.1578 29.0337 39.3406 29.1094 39.5312 29.1094H42.4062C42.5969 29.1094 42.7797 29.0337 42.9145 28.8989C43.0493 28.7641 43.125 28.5813 43.125 28.3906C43.125 28.2 43.0493 28.0172 42.9145 27.8824C42.7797 27.7476 42.5969 27.6719 42.4062 27.6719ZM6.46875 27.6719H5.39062V26.9531C5.39062 26.7625 5.3149 26.5797 5.18011 26.4449C5.04532 26.3101 4.8625 26.2344 4.67188 26.2344C4.48125 26.2344 4.29843 26.3101 4.16364 26.4449C4.02885 26.5797 3.95312 26.7625 3.95312 26.9531V27.6719H3.59375C3.40313 27.6719 3.22031 27.7476 3.08552 27.8824C2.95073 28.0172 2.875 28.2 2.875 28.3906C2.875 28.5813 2.95073 28.7641 3.08552 28.8989C3.22031 29.0337 3.40313 29.1094 3.59375 29.1094H6.46875C6.65937 29.1094 6.84219 29.0337 6.97698 28.8989C7.11177 28.7641 7.1875 28.5813 7.1875 28.3906C7.1875 28.2 7.11177 28.0172 6.97698 27.8824C6.84219 27.7476 6.65937 27.6719 6.46875 27.6719ZM32.7103 31.1722C31.2333 30.5002 28.2613 29.6233 27.0609 29.2819L26.6513 27.7725C27.2756 26.6739 27.6533 25.4525 27.7581 24.1931C27.7833 23.9703 27.8156 23.7511 27.848 23.5283C27.8767 23.3486 27.9019 23.1617 27.927 22.9749C28.2989 22.9226 28.645 22.7548 28.9163 22.4951C29.1876 22.2354 29.3703 21.897 29.4388 21.5278C29.5072 21.1585 29.4578 20.7771 29.2976 20.4374C29.1373 20.0978 28.8744 19.8171 28.5459 19.6351C28.4447 19.5814 28.3315 19.5546 28.217 19.5572H17.783C17.6685 19.5546 17.5553 19.5814 17.4541 19.6351C17.1256 19.8171 16.8627 20.0978 16.7024 20.4374C16.5422 20.7771 16.4928 21.1585 16.5612 21.5278C16.6297 21.897 16.8124 22.2354 17.0837 22.4951C17.355 22.7548 17.7011 22.9226 18.073 22.9749C18.0981 23.1617 18.1233 23.3486 18.152 23.5319C18.1844 23.7511 18.2167 23.9739 18.2419 24.1931C18.3515 25.4409 18.7289 26.6503 19.3483 27.739L19.3523 27.7653L18.9391 29.2819C17.7388 29.6233 14.7667 30.5002 13.2897 31.1722C12.1684 31.6825 11.5 33.1272 11.5 34.2305V41.2844C11.4958 41.4597 11.5531 41.6308 11.662 41.7682C11.7709 41.9056 11.9244 42.0006 12.096 42.0365C12.1992 42.0541 12.305 42.049 12.406 42.0215C12.5071 41.994 12.6009 41.9449 12.681 41.8775C12.7611 41.81 12.8255 41.726 12.8698 41.6311C12.9141 41.5362 12.9372 41.4328 12.9375 41.3281V34.2305C12.9375 33.5549 13.3975 32.7031 13.8862 32.4803C15.2698 31.8514 18.2167 30.9817 19.3631 30.6547L22.425 34.7408C22.4919 34.8301 22.5787 34.9026 22.6785 34.9525C22.7783 35.0025 22.8884 35.0285 23 35.0285C23.1116 35.0285 23.2217 35.0025 23.3215 34.9525C23.4213 34.9026 23.5081 34.8301 23.575 34.7408L26.6369 30.6547C27.7833 30.9817 30.7302 31.8514 32.1138 32.4803C32.6025 32.7031 33.0625 33.5549 33.0625 34.2305V41.2844C33.0583 41.4597 33.1156 41.6308 33.2245 41.7682C33.3334 41.9056 33.4869 42.0006 33.6585 42.0365C33.7617 42.0541 33.8675 42.049 33.9685 42.0215C34.0696 41.994 34.1634 41.9449 34.2435 41.8775C34.3236 41.81 34.388 41.726 34.4323 41.6311C34.4766 41.5362 34.4997 41.4328 34.5 41.3281V34.2305C34.5 33.1272 33.8316 31.6825 32.7103 31.1722ZM23 33.1092L20.3478 29.5694L20.5095 28.9836C21.1349 29.42 21.8559 29.6998 22.6119 29.7994C22.7405 29.8175 22.8701 29.8271 23 29.8281C23.1445 29.828 23.2887 29.8159 23.4312 29.7922C24.1712 29.6913 24.8775 29.4193 25.4941 28.998L25.6522 29.5694L23 33.1092ZM26.4284 23.3199C26.3925 23.5535 26.3602 23.7835 26.3314 24.0135C25.9792 26.8202 25.0736 28.0852 23.212 28.3727C23.0825 28.3954 22.9502 28.3966 22.8203 28.3763C20.9623 28.1032 20.0208 26.7986 19.6686 24.0135C19.6399 23.7835 19.6075 23.5535 19.5716 23.3235C19.5572 23.2121 19.5428 23.1078 19.5284 23H26.4716C26.4572 23.1078 26.4428 23.2121 26.4284 23.3199ZM28.3619 18.1161C28.2222 16.8399 27.6307 15.6558 26.6944 14.7775L26.1302 16.4881C26.0825 16.6315 25.9908 16.7562 25.8683 16.8446C25.7457 16.933 25.5984 16.9805 25.4473 16.9805C25.3337 16.9808 25.2217 16.9542 25.1204 16.9027C25.0191 16.8513 24.9316 16.7765 24.8649 16.6845C24.7982 16.5926 24.7543 16.4861 24.7369 16.3738C24.7194 16.2616 24.7289 16.1468 24.7645 16.0389C24.7645 16.0389 25.4617 13.915 25.4617 13.9006C25.5164 13.7136 25.5273 13.5165 25.4936 13.3246C25.46 13.1327 25.3827 12.9511 25.2677 12.7938C25.1354 12.6144 24.9626 12.4688 24.7634 12.3689C24.5641 12.269 24.3441 12.2175 24.1213 12.2188H21.8787C21.6559 12.2175 21.4359 12.269 21.2366 12.3689C21.0374 12.4688 20.8646 12.6144 20.7323 12.7938C20.6173 12.9511 20.54 13.1327 20.5064 13.3246C20.4727 13.5165 20.4836 13.7136 20.5383 13.9006C20.5383 13.9114 21.2355 16.0389 21.2355 16.0389C21.2938 16.2197 21.2782 16.4162 21.1921 16.5854C21.106 16.7547 20.9564 16.883 20.776 16.9424C20.5956 17.0017 20.399 16.9873 20.2292 16.9022C20.0594 16.8171 19.9302 16.6682 19.8698 16.4881L19.3056 14.7775C18.3693 15.6558 17.7778 16.8399 17.6381 18.1161H28.3619Z" fill="#13519C"/>
<path d="M30.9063 35.9375H29.8282V35.2188C29.8282 35.0281 29.7525 34.8453 29.6177 34.7105C29.4829 34.5757 29.3001 34.5 29.1094 34.5C28.9188 34.5 28.736 34.5757 28.6012 34.7105C28.4664 34.8453 28.3907 35.0281 28.3907 35.2188V35.9375H28.0313C27.8407 35.9375 27.6579 36.0132 27.5231 36.148C27.3883 36.2828 27.3126 36.4656 27.3126 36.6563C27.3126 36.8469 27.3883 37.0297 27.5231 37.1645C27.6579 37.2993 27.8407 37.375 28.0313 37.375H30.9063C31.0969 37.375 31.2797 37.2993 31.4145 37.1645C31.5493 37.0297 31.6251 36.8469 31.6251 36.6563C31.6251 36.4656 31.5493 36.2828 31.4145 36.148C31.2797 36.0132 31.0969 35.9375 30.9063 35.9375ZM12.0751 26.4752L15.1369 22.3891C15.2016 22.4071 15.2735 22.4286 15.349 22.4502C15.0257 21.6907 15.009 20.8355 15.3022 20.0639L15.1513 19.5069C15.7756 18.4082 16.1533 17.1868 16.2582 15.9275C16.2833 15.7047 16.3157 15.4855 16.348 15.2627C16.3768 15.083 16.4019 14.8961 16.4271 14.7092C16.799 14.6572 17.1451 14.4895 17.4164 14.2299C17.6878 13.9703 17.8705 13.6319 17.9389 13.2626C18.0073 12.8934 17.9578 12.512 17.7974 12.1724C17.637 11.8329 17.3738 11.5524 17.0452 11.3706C16.9451 11.3159 16.8322 11.2887 16.7182 11.2916H6.28193C6.16786 11.2887 6.05504 11.3159 5.9549 11.3706C5.62627 11.5524 5.36313 11.8329 5.20274 12.1724C5.04235 12.512 4.99284 12.8934 5.0612 13.2626C5.12957 13.6319 5.31235 13.9703 5.58367 14.2299C5.855 14.4895 6.20112 14.6572 6.57302 14.7092C6.59818 14.8961 6.62333 15.083 6.65208 15.2663C6.68443 15.4855 6.71677 15.7083 6.74193 15.9275C6.85127 17.1758 7.22883 18.3857 7.8488 19.4746C7.8488 19.4817 7.85238 19.4925 7.85238 19.4997L7.43912 21.0163C6.2388 21.3577 3.26677 22.2346 1.78974 22.9066C0.66849 23.4169 5.23277e-05 24.8616 5.23277e-05 25.9649V33.0194C-0.00489595 33.1948 0.0522326 33.3663 0.161369 33.5037C0.270505 33.6411 0.424643 33.7356 0.596615 33.7705C0.699763 33.7881 0.805502 33.7829 0.90647 33.7555C1.00744 33.728 1.10121 33.6789 1.18125 33.6115C1.2613 33.5441 1.32569 33.4601 1.36996 33.3653C1.41422 33.2705 1.43729 33.1672 1.43755 33.0625V25.9649C1.43755 25.2892 1.89755 24.4375 2.3863 24.2147C3.7699 23.5858 6.71677 22.7161 7.86318 22.3891L10.9251 26.4752C10.9918 26.5647 11.0786 26.6374 11.1784 26.6874C11.2782 26.7375 11.3884 26.7636 11.5001 26.7636C11.6117 26.7636 11.7219 26.7375 11.8217 26.6874C11.9215 26.6374 12.0083 26.5647 12.0751 26.4752ZM8.07161 15.0578C8.05724 14.9464 8.04287 14.8422 8.02849 14.7344H14.9716C14.9572 14.8422 14.9429 14.9464 14.9285 15.0542C14.8926 15.2878 14.8602 15.5178 14.8315 15.7478C14.4793 18.5546 13.5736 19.8196 11.7121 20.1071C11.5826 20.1298 11.4502 20.131 11.3204 20.1106C9.4624 19.8375 8.52083 18.533 8.16865 15.7478C8.1399 15.5178 8.10755 15.2878 8.07161 15.0578ZM8.84787 21.3038L9.00958 20.718C9.63492 21.1544 10.3559 21.4341 11.1119 21.5338C11.2405 21.5519 11.3702 21.5615 11.5001 21.5625C11.6445 21.5623 11.7888 21.5503 11.9313 21.5266C12.6713 21.4256 13.3775 21.1537 13.9941 20.7324L14.1522 21.3038L11.5001 24.8436L8.84787 21.3038ZM15.1944 6.5119L14.6302 8.22252C14.5825 8.3659 14.4909 8.49061 14.3683 8.57899C14.2458 8.66736 14.0985 8.7149 13.9474 8.71487C13.8338 8.71522 13.7217 8.68857 13.6205 8.63711C13.5192 8.58566 13.4316 8.51086 13.3649 8.4189C13.2982 8.32694 13.2544 8.22045 13.2369 8.1082C13.2195 7.99595 13.229 7.88117 13.2646 7.7733C13.2646 7.7733 13.9618 5.6494 13.9618 5.63502C14.0164 5.44799 14.0273 5.2509 13.9937 5.05898C13.96 4.86705 13.8827 4.68543 13.7677 4.52815C13.6354 4.34876 13.4626 4.20318 13.2634 4.10325C13.0642 4.00333 12.8442 3.9519 12.6213 3.95315H10.3788C10.1559 3.9519 9.93591 4.00333 9.73669 4.10325C9.53746 4.20318 9.36467 4.34876 9.2324 4.52815C9.11738 4.68543 9.04006 4.86705 9.00641 5.05898C8.97276 5.2509 8.98368 5.44799 9.03833 5.63502C9.03833 5.6458 9.73552 7.7733 9.73552 7.7733C9.79382 7.95405 9.77821 8.15053 9.69211 8.31981C9.60602 8.48909 9.45643 8.61742 9.27602 8.67677C9.09561 8.73611 8.89904 8.72165 8.72927 8.63654C8.55949 8.55143 8.43029 8.40258 8.3699 8.22252L7.80568 6.5119C6.86932 7.39017 6.27789 8.57432 6.13818 9.85049H16.8619C16.7222 8.57432 16.1308 7.39017 15.1944 6.5119Z" fill="#2983D3" fill-opacity="0.4"/>
</g>
<defs>
<clipPath id="clip0_0_42">
<rect width="46" height="46" fill="white"/>
</clipPath>
</defs>
</svg>
