<svg width="36" height="36" viewBox="0 0 36 36" fill="none" xmlns="http://www.w3.org/2000/svg">
<path d="M23.3365 2.66825C22.4047 1.60943 20.2024 1.05884 18 1.05884V25.92C20.16 25.92 22.2776 25.4541 23.3365 24.48C27.0635 21.0918 26.7247 6.52237 23.3365 2.66825Z" fill="#388FDC" fill-opacity="0.6"/>
<path d="M12.6636 2.66825C9.27532 6.52237 8.89415 21.0918 12.6636 24.5224C13.68 25.4541 15.84 25.9624 18 25.9624V1.05884C15.7977 1.05884 13.6377 1.60943 12.6636 2.66825Z" fill="#EFF3EB"/>
<path d="M18 15.7553C15.3317 15.7553 12.6212 15.5435 9.95292 15.1623H7.41174V13.9764H10.08C15.3317 14.7388 20.6682 14.7388 25.92 13.9764H28.5882V15.2047H26.047C23.3788 15.5435 20.7106 15.7553 18 15.7553Z" fill="#13519C"/>
<path d="M26.047 26.767C28.8423 24.1835 30.1129 18.9317 30.0705 13.6799C30.0705 13.1717 29.647 12.7905 29.1388 12.7905C28.6305 12.7905 28.207 13.2141 28.207 13.7223C28.2494 18.4658 27.1905 23.2094 24.7764 25.4117C22.8282 27.2329 19.6941 27.5294 18 27.5294C16.3058 27.5294 13.1717 27.2752 11.1811 25.4541C8.80936 23.2517 7.70819 18.5082 7.75054 13.7646C7.75054 13.2564 7.36936 12.8329 6.81878 12.8329C6.31054 12.8329 5.92936 13.2141 5.88701 13.7223C5.84466 18.9741 7.11525 24.2258 9.91054 26.8094C11.7741 28.5035 14.3152 29.0964 16.3058 29.3082V32.1035C13.1717 32.2305 10.4188 32.7388 10.4188 33.5858V34.9835H25.4541V33.5858C25.4541 32.7388 22.7011 32.2305 19.567 32.1035V29.3082C21.6 29.0541 24.1835 28.4611 26.047 26.767Z" fill="#13519C"/>
<path d="M13.7647 5.16712C14.022 5.16712 14.2306 4.95853 14.2306 4.70123C14.2306 4.44393 14.022 4.23535 13.7647 4.23535C13.5074 4.23535 13.2988 4.44393 13.2988 4.70123C13.2988 4.95853 13.5074 5.16712 13.7647 5.16712Z" fill="#13519C"/>
<path d="M15.8824 5.16712C16.1397 5.16712 16.3483 4.95853 16.3483 4.70123C16.3483 4.44393 16.1397 4.23535 15.8824 4.23535C15.6251 4.23535 15.4165 4.44393 15.4165 4.70123C15.4165 4.95853 15.6251 5.16712 15.8824 5.16712Z" fill="#13519C"/>
<path d="M18.0001 5.16712C18.2574 5.16712 18.4659 4.95853 18.4659 4.70123C18.4659 4.44393 18.2574 4.23535 18.0001 4.23535C17.7428 4.23535 17.5342 4.44393 17.5342 4.70123C17.5342 4.95853 17.7428 5.16712 18.0001 5.16712Z" fill="#13519C"/>
<path d="M20.1176 5.16712C20.3749 5.16712 20.5835 4.95853 20.5835 4.70123C20.5835 4.44393 20.3749 4.23535 20.1176 4.23535C19.8603 4.23535 19.6517 4.44393 19.6517 4.70123C19.6517 4.95853 19.8603 5.16712 20.1176 5.16712Z" fill="#13519C"/>
<path d="M22.2353 5.16712C22.4926 5.16712 22.7012 4.95853 22.7012 4.70123C22.7012 4.44393 22.4926 4.23535 22.2353 4.23535C21.978 4.23535 21.7694 4.44393 21.7694 4.70123C21.7694 4.95853 21.978 5.16712 22.2353 5.16712Z" fill="#13519C"/>
<path d="M14.8235 6.86121C15.0808 6.86121 15.2894 6.65263 15.2894 6.39533C15.2894 6.13803 15.0808 5.92944 14.8235 5.92944C14.5662 5.92944 14.3577 6.13803 14.3577 6.39533C14.3577 6.65263 14.5662 6.86121 14.8235 6.86121Z" fill="#13519C"/>
<path d="M16.9412 6.86121C17.1985 6.86121 17.4071 6.65263 17.4071 6.39533C17.4071 6.13803 17.1985 5.92944 16.9412 5.92944C16.6839 5.92944 16.4753 6.13803 16.4753 6.39533C16.4753 6.65263 16.6839 6.86121 16.9412 6.86121Z" fill="#13519C"/>
<path d="M19.0588 6.86121C19.3161 6.86121 19.5247 6.65263 19.5247 6.39533C19.5247 6.13803 19.3161 5.92944 19.0588 5.92944C18.8015 5.92944 18.5929 6.13803 18.5929 6.39533C18.5929 6.65263 18.8015 6.86121 19.0588 6.86121Z" fill="#13519C"/>
<path d="M21.1765 6.86121C21.4338 6.86121 21.6423 6.65263 21.6423 6.39533C21.6423 6.13803 21.4338 5.92944 21.1765 5.92944C20.9192 5.92944 20.7106 6.13803 20.7106 6.39533C20.7106 6.65263 20.9192 6.86121 21.1765 6.86121Z" fill="#13519C"/>
<path d="M14.8235 3.4729C15.0808 3.4729 15.2894 3.26432 15.2894 3.00702C15.2894 2.74972 15.0808 2.54114 14.8235 2.54114C14.5662 2.54114 14.3577 2.74972 14.3577 3.00702C14.3577 3.26432 14.5662 3.4729 14.8235 3.4729Z" fill="#13519C"/>
<path d="M16.9412 3.4729C17.1985 3.4729 17.4071 3.26432 17.4071 3.00702C17.4071 2.74972 17.1985 2.54114 16.9412 2.54114C16.6839 2.54114 16.4753 2.74972 16.4753 3.00702C16.4753 3.26432 16.6839 3.4729 16.9412 3.4729Z" fill="#13519C"/>
<path d="M19.0588 3.4729C19.3161 3.4729 19.5247 3.26432 19.5247 3.00702C19.5247 2.74972 19.3161 2.54114 19.0588 2.54114C18.8015 2.54114 18.5929 2.74972 18.5929 3.00702C18.5929 3.26432 18.8015 3.4729 19.0588 3.4729Z" fill="#13519C"/>
<path d="M21.1765 3.4729C21.4338 3.4729 21.6423 3.26432 21.6423 3.00702C21.6423 2.74972 21.4338 2.54114 21.1765 2.54114C20.9192 2.54114 20.7106 2.74972 20.7106 3.00702C20.7106 3.26432 20.9192 3.4729 21.1765 3.4729Z" fill="#13519C"/>
<path d="M13.7647 8.59766C14.022 8.59766 14.2306 8.38908 14.2306 8.13178C14.2306 7.87448 14.022 7.66589 13.7647 7.66589C13.5074 7.66589 13.2988 7.87448 13.2988 8.13178C13.2988 8.38908 13.5074 8.59766 13.7647 8.59766Z" fill="#13519C"/>
<path d="M15.8824 8.59766C16.1397 8.59766 16.3483 8.38908 16.3483 8.13178C16.3483 7.87448 16.1397 7.66589 15.8824 7.66589C15.6251 7.66589 15.4165 7.87448 15.4165 8.13178C15.4165 8.38908 15.6251 8.59766 15.8824 8.59766Z" fill="#13519C"/>
<path d="M18.0001 8.59766C18.2574 8.59766 18.4659 8.38908 18.4659 8.13178C18.4659 7.87448 18.2574 7.66589 18.0001 7.66589C17.7428 7.66589 17.5342 7.87448 17.5342 8.13178C17.5342 8.38908 17.7428 8.59766 18.0001 8.59766Z" fill="#13519C"/>
<path d="M20.1176 8.59766C20.3749 8.59766 20.5835 8.38908 20.5835 8.13178C20.5835 7.87448 20.3749 7.66589 20.1176 7.66589C19.8603 7.66589 19.6517 7.87448 19.6517 8.13178C19.6517 8.38908 19.8603 8.59766 20.1176 8.59766Z" fill="#13519C"/>
<path d="M22.2353 8.59766C22.4926 8.59766 22.7012 8.38908 22.7012 8.13178C22.7012 7.87448 22.4926 7.66589 22.2353 7.66589C21.978 7.66589 21.7694 7.87448 21.7694 8.13178C21.7694 8.38908 21.978 8.59766 22.2353 8.59766Z" fill="#13519C"/>
<path d="M14.8235 10.2917C15.0808 10.2917 15.2894 10.0832 15.2894 9.82587C15.2894 9.56857 15.0808 9.35999 14.8235 9.35999C14.5662 9.35999 14.3577 9.56857 14.3577 9.82587C14.3577 10.0832 14.5662 10.2917 14.8235 10.2917Z" fill="#13519C"/>
<path d="M16.9412 10.2917C17.1985 10.2917 17.4071 10.0832 17.4071 9.82587C17.4071 9.56857 17.1985 9.35999 16.9412 9.35999C16.6839 9.35999 16.4753 9.56857 16.4753 9.82587C16.4753 10.0832 16.6839 10.2917 16.9412 10.2917Z" fill="#13519C"/>
<path d="M19.0588 10.2917C19.3161 10.2917 19.5247 10.0832 19.5247 9.82587C19.5247 9.56857 19.3161 9.35999 19.0588 9.35999C18.8015 9.35999 18.5929 9.56857 18.5929 9.82587C18.5929 10.0832 18.8015 10.2917 19.0588 10.2917Z" fill="#13519C"/>
<path d="M21.1765 10.2917C21.4338 10.2917 21.6423 10.0832 21.6423 9.82587C21.6423 9.56857 21.4338 9.35999 21.1765 9.35999C20.9192 9.35999 20.7106 9.56857 20.7106 9.82587C20.7106 10.0832 20.9192 10.2917 21.1765 10.2917Z" fill="#13519C"/>
<path d="M13.7647 11.9858C14.022 11.9858 14.2306 11.7773 14.2306 11.52C14.2306 11.2627 14.022 11.0541 13.7647 11.0541C13.5074 11.0541 13.2988 11.2627 13.2988 11.52C13.2988 11.7773 13.5074 11.9858 13.7647 11.9858Z" fill="#13519C"/>
<path d="M15.8824 11.9858C16.1397 11.9858 16.3483 11.7773 16.3483 11.52C16.3483 11.2627 16.1397 11.0541 15.8824 11.0541C15.6251 11.0541 15.4165 11.2627 15.4165 11.52C15.4165 11.7773 15.6251 11.9858 15.8824 11.9858Z" fill="#13519C"/>
<path d="M18.0001 11.9858C18.2574 11.9858 18.4659 11.7773 18.4659 11.52C18.4659 11.2627 18.2574 11.0541 18.0001 11.0541C17.7428 11.0541 17.5342 11.2627 17.5342 11.52C17.5342 11.7773 17.7428 11.9858 18.0001 11.9858Z" fill="#13519C"/>
<path d="M20.1176 11.9858C20.3749 11.9858 20.5835 11.7773 20.5835 11.52C20.5835 11.2627 20.3749 11.0541 20.1176 11.0541C19.8603 11.0541 19.6517 11.2627 19.6517 11.52C19.6517 11.7773 19.8603 11.9858 20.1176 11.9858Z" fill="#13519C"/>
<path d="M22.2353 11.9858C22.4926 11.9858 22.7012 11.7773 22.7012 11.52C22.7012 11.2627 22.4926 11.0541 22.2353 11.0541C21.978 11.0541 21.7694 11.2627 21.7694 11.52C21.7694 11.7773 21.978 11.9858 22.2353 11.9858Z" fill="#13519C"/>
<path d="M14.8235 13.6801C15.0808 13.6801 15.2894 13.4715 15.2894 13.2142C15.2894 12.9569 15.0808 12.7483 14.8235 12.7483C14.5662 12.7483 14.3577 12.9569 14.3577 13.2142C14.3577 13.4715 14.5662 13.6801 14.8235 13.6801Z" fill="#13519C"/>
<path d="M12.8329 6.86121C13.0902 6.86121 13.2988 6.65263 13.2988 6.39533C13.2988 6.13803 13.0902 5.92944 12.8329 5.92944C12.5756 5.92944 12.3671 6.13803 12.3671 6.39533C12.3671 6.65263 12.5756 6.86121 12.8329 6.86121Z" fill="#13519C"/>
<path d="M11.7741 8.59766C12.0314 8.59766 12.24 8.38908 12.24 8.13178C12.24 7.87448 12.0314 7.66589 11.7741 7.66589C11.5168 7.66589 11.3082 7.87448 11.3082 8.13178C11.3082 8.38908 11.5168 8.59766 11.7741 8.59766Z" fill="#13519C"/>
<path d="M12.8329 10.2917C13.0902 10.2917 13.2988 10.0832 13.2988 9.82587C13.2988 9.56857 13.0902 9.35999 12.8329 9.35999C12.5756 9.35999 12.3671 9.56857 12.3671 9.82587C12.3671 10.0832 12.5756 10.2917 12.8329 10.2917Z" fill="#13519C"/>
<path d="M11.7741 11.9858C12.0314 11.9858 12.24 11.7773 12.24 11.52C12.24 11.2627 12.0314 11.0541 11.7741 11.0541C11.5168 11.0541 11.3082 11.2627 11.3082 11.52C11.3082 11.7773 11.5168 11.9858 11.7741 11.9858Z" fill="#13519C"/>
<path d="M12.8329 13.6801C13.0902 13.6801 13.2988 13.4715 13.2988 13.2142C13.2988 12.9569 13.0902 12.7483 12.8329 12.7483C12.5756 12.7483 12.3671 12.9569 12.3671 13.2142C12.3671 13.4715 12.5756 13.6801 12.8329 13.6801Z" fill="#13519C"/>
<path d="M16.9412 13.6801C17.1985 13.6801 17.4071 13.4715 17.4071 13.2142C17.4071 12.9569 17.1985 12.7483 16.9412 12.7483C16.6839 12.7483 16.4753 12.9569 16.4753 13.2142C16.4753 13.4715 16.6839 13.6801 16.9412 13.6801Z" fill="#13519C"/>
<path d="M19.0588 13.6801C19.3161 13.6801 19.5247 13.4715 19.5247 13.2142C19.5247 12.9569 19.3161 12.7483 19.0588 12.7483C18.8015 12.7483 18.5929 12.9569 18.5929 13.2142C18.5929 13.4715 18.8015 13.6801 19.0588 13.6801Z" fill="#13519C"/>
<path d="M21.1765 13.6801C21.4338 13.6801 21.6423 13.4715 21.6423 13.2142C21.6423 12.9569 21.4338 12.7483 21.1765 12.7483C20.9192 12.7483 20.7106 12.9569 20.7106 13.2142C20.7106 13.4715 20.9192 13.6801 21.1765 13.6801Z" fill="#13519C"/>
<path d="M23.4212 6.86121C23.6785 6.86121 23.8871 6.65263 23.8871 6.39533C23.8871 6.13803 23.6785 5.92944 23.4212 5.92944C23.1639 5.92944 22.9553 6.13803 22.9553 6.39533C22.9553 6.65263 23.1639 6.86121 23.4212 6.86121Z" fill="#13519C"/>
<path d="M24.48 8.59766C24.7373 8.59766 24.9459 8.38908 24.9459 8.13178C24.9459 7.87448 24.7373 7.66589 24.48 7.66589C24.2227 7.66589 24.0142 7.87448 24.0142 8.13178C24.0142 8.38908 24.2227 8.59766 24.48 8.59766Z" fill="#13519C"/>
<path d="M23.4212 10.2917C23.6785 10.2917 23.8871 10.0832 23.8871 9.82587C23.8871 9.56857 23.6785 9.35999 23.4212 9.35999C23.1639 9.35999 22.9553 9.56857 22.9553 9.82587C22.9553 10.0832 23.1639 10.2917 23.4212 10.2917Z" fill="#13519C"/>
<path d="M24.48 11.9858C24.7373 11.9858 24.9459 11.7773 24.9459 11.52C24.9459 11.2627 24.7373 11.0541 24.48 11.0541C24.2227 11.0541 24.0142 11.2627 24.0142 11.52C24.0142 11.7773 24.2227 11.9858 24.48 11.9858Z" fill="#13519C"/>
<path d="M23.4212 13.6801C23.6785 13.6801 23.8871 13.4715 23.8871 13.2142C23.8871 12.9569 23.6785 12.7483 23.4212 12.7483C23.1639 12.7483 22.9553 12.9569 22.9553 13.2142C22.9553 13.4715 23.1639 13.6801 23.4212 13.6801Z" fill="#13519C"/>
<path d="M15.2895 21.7694C14.8659 21.7694 14.5271 22.1082 14.5271 22.5318V25.4541C14.993 25.5812 15.5012 25.7082 16.0518 25.7929V22.5318C16.0518 22.1082 15.713 21.7694 15.2895 21.7694ZM18 21.7694C17.5765 21.7694 17.2377 22.1082 17.2377 22.5318V25.92C17.4918 25.92 17.7459 25.9623 18 25.9623C18.2542 25.9623 18.5083 25.9624 18.7624 25.92V22.5318C18.7624 22.1082 18.4236 21.7694 18 21.7694ZM20.7106 21.7694C20.2871 21.7694 19.9483 22.1082 19.9483 22.5318V25.7929C20.4989 25.7082 21.0071 25.6235 21.473 25.4541V22.5318C21.473 22.1082 21.1342 21.7694 20.7106 21.7694Z" fill="#13519C"/>
</svg>
