<svg width="34" height="34" viewBox="0 0 34 34" fill="none" xmlns="http://www.w3.org/2000/svg">
<path d="M7.75195 18.088C7.20795 19.04 6.11996 19.312 5.30396 19.04V28.56H10.2V19.04C9.38396 19.312 8.29595 18.972 7.75195 18.088ZM17 18.088C16.456 18.972 15.368 19.312 14.552 18.972V28.492H19.448V19.04C19.244 19.108 19.04 19.176 18.768 19.176C18.02 19.108 17.34 18.7 17 18.088ZM26.248 18.088C25.908 18.7 25.228 19.176 24.412 19.176C24.208 19.176 23.936 19.108 23.732 19.04V28.56H28.628V19.04C28.424 19.108 28.22 19.108 28.016 19.108C27.268 19.176 26.588 18.7 26.248 18.088Z" fill="#13519C"/>
<path d="M11.492 15.232V14.824H4.01196V15.232C4.01196 15.572 4.35196 15.912 4.69196 15.912H5.23596C4.82796 16.184 4.62396 16.592 4.62396 17.068C4.62396 17.816 5.23596 18.428 5.98396 18.428C6.73196 18.428 7.34396 17.816 7.34396 17.068C7.34396 16.592 7.07196 16.184 6.73196 15.912H8.77196C8.43196 16.184 8.15996 16.592 8.15996 17.068C8.15996 17.816 8.77196 18.428 9.51996 18.428C10.268 18.428 10.88 17.816 10.88 17.068C10.88 16.592 10.608 16.184 10.268 15.912H10.812C11.22 15.912 11.492 15.64 11.492 15.232ZM20.74 15.232V14.824H13.26V15.232C13.26 15.572 13.6 15.912 13.94 15.912H14.484C14.144 16.184 13.872 16.592 13.872 17.068C13.872 17.816 14.484 18.428 15.232 18.428C15.98 18.428 16.592 17.816 16.592 17.068C16.592 16.592 16.32 16.184 15.98 15.912H18.02C17.68 16.184 17.408 16.592 17.408 17.068C17.408 17.816 18.02 18.428 18.768 18.428C19.516 18.428 20.128 17.816 20.128 17.068C20.128 16.592 19.856 16.184 19.516 15.912H20.06C20.4 15.912 20.74 15.64 20.74 15.232ZM29.988 15.232V14.824H22.508V15.232C22.508 15.572 22.78 15.912 23.188 15.912H23.732C23.392 16.184 23.12 16.592 23.12 17.068C23.12 17.816 23.732 18.428 24.48 18.428C25.228 18.428 25.84 17.816 25.84 17.068C25.84 16.592 25.568 16.184 25.228 15.912H27.336C26.996 16.184 26.724 16.592 26.724 17.068C26.724 17.816 27.336 18.428 28.084 18.428C28.832 18.428 29.444 17.816 29.444 17.068C29.444 16.592 29.172 16.184 28.832 15.912H29.308C29.648 15.912 29.988 15.64 29.988 15.232Z" fill="#13519C"/>
<path d="M32.3 11.424H1.69995V14.144H32.3V11.424Z" fill="#13519C"/>
<path d="M17.816 0.952021C17.34 0.612021 16.66 0.612021 16.184 0.952021L2.65195 10.744H31.3479L17.816 0.952021ZM16.592 9.38402C15.436 9.18002 14.484 8.22802 14.28 7.07202C14.008 5.23602 15.572 3.60402 17.408 3.94402C18.564 4.08002 19.516 5.03202 19.72 6.18802C19.992 8.09202 18.428 9.65602 16.592 9.38402ZM30.94 30.804H29.444V29.92C29.444 29.58 29.104 29.24 28.764 29.24H23.732C23.392 29.24 23.052 29.58 23.052 29.92V30.804H20.196V29.92C20.196 29.58 19.856 29.24 19.516 29.24H14.484C14.144 29.24 13.804 29.58 13.804 29.92V30.804H10.948V29.92C10.948 29.58 10.608 29.24 10.268 29.24H5.23595C4.82795 29.24 4.55595 29.58 4.55595 29.92V30.804H3.05995C2.31195 30.804 1.69995 31.416 1.69995 32.164V33.32H32.3V32.164C32.3 31.416 31.688 30.804 30.94 30.804Z" fill="#13519C"/>
<path d="M17.204 6.32403V5.37203C17.476 5.37203 17.68 5.50803 17.884 5.64403L18.224 5.16803C17.884 4.96403 17.544 4.82803 17.204 4.76003V4.55603H16.864V4.82803C16.524 4.82803 16.252 4.96403 16.048 5.10003C15.64 5.50803 15.708 6.18803 15.98 6.46003C16.184 6.59603 16.456 6.73203 16.796 6.80003V7.75203C16.524 7.68403 16.184 7.54803 15.912 7.34403L15.64 7.82003C15.98 8.16003 16.388 8.29603 16.864 8.36403V8.70403H17.204V8.36403C17.544 8.36403 17.816 8.22803 18.02 8.09203C18.428 7.68403 18.428 7.00403 18.02 6.73203C17.884 6.52803 17.612 6.39203 17.204 6.32403ZM16.864 6.25603C16.66 6.18803 16.524 6.12003 16.456 6.05203C16.32 5.91603 16.32 5.64403 16.456 5.50803C16.524 5.44003 16.66 5.37203 16.796 5.37203V6.25603H16.864ZM17.612 7.68403C17.544 7.75203 17.408 7.82003 17.204 7.82003V6.93603C17.408 7.00403 17.544 7.07203 17.612 7.14003C17.748 7.27603 17.816 7.54803 17.612 7.68403Z" fill="#13519C"/>
</svg>
