<svg width="36" height="36" viewBox="0 0 36 36" fill="none" xmlns="http://www.w3.org/2000/svg">
<path d="M35.4375 27.5626H27.1345C27.4139 27.1469 27.563 26.6573 27.5625 26.1563V24.6517C27.8914 24.5358 28.1763 24.3207 28.3778 24.0361C28.5793 23.7515 28.6875 23.4113 28.6875 23.0626C28.6875 22.7139 28.5793 22.3737 28.3778 22.0891C28.1763 21.8045 27.8914 21.5894 27.5625 21.4736V20.5314C27.5616 19.7112 27.2353 18.9248 26.6553 18.3448C26.0753 17.7648 25.289 17.4386 24.4688 17.4376H18C17.1798 17.4386 16.3934 17.7648 15.8134 18.3448C15.2334 18.9248 14.9072 19.7111 14.9063 20.5314V21.4736C14.5773 21.5894 14.2925 21.8045 14.091 22.0891C13.8895 22.3737 13.7813 22.7139 13.7813 23.0626C13.7813 23.4113 13.8895 23.7515 14.091 24.0361C14.2925 24.3207 14.5773 24.5358 14.9063 24.6517V26.1563C14.9058 26.6572 15.0548 27.1469 15.3343 27.5626H13.5C13.3508 27.5626 13.2077 27.6219 13.1023 27.7274C12.9968 27.8328 12.9375 27.9759 12.9375 28.1251C12.9375 30.9638 16.5201 33.1876 21.0938 33.1876C25.3604 33.1876 28.7634 31.252 29.2011 28.6876H34.4816L34.0216 29.5153C33.9242 29.6906 33.7817 29.8367 33.6088 29.9384C33.4359 30.0401 33.239 30.0938 33.0384 30.0938H30.6563C30.5821 30.0934 30.5087 30.1077 30.4401 30.1358C30.3714 30.1638 30.3091 30.2052 30.2565 30.2575C30.204 30.3098 30.1622 30.3719 30.1338 30.4403C30.1053 30.5088 30.0907 30.5822 30.0907 30.6563C30.0907 30.7304 30.1053 30.8038 30.1338 30.8723C30.1622 30.9407 30.204 31.0029 30.2565 31.0552C30.3091 31.1074 30.3714 31.1488 30.4401 31.1769C30.5087 31.205 30.5821 31.2192 30.6563 31.2188H33.0384C33.4396 31.2187 33.8335 31.1113 34.1793 30.9079C34.5251 30.7044 34.8102 30.4122 35.0052 30.0616L35.9293 28.3982C35.9768 28.3126 36.0012 28.216 35.9999 28.1181C35.9987 28.0202 35.9719 27.9242 35.9223 27.8398C35.8726 27.7554 35.8017 27.6854 35.7167 27.6368C35.6317 27.5882 35.5354 27.5626 35.4375 27.5626ZM26.4375 26.1563C26.4371 26.5292 26.2888 26.8866 26.0251 27.1502C25.7615 27.4139 25.4041 27.5622 25.0313 27.5626H17.4375C17.0647 27.5622 16.7072 27.4139 16.4436 27.1502C16.18 26.8866 16.0317 26.5292 16.0313 26.1563V24.7501H17.9677L15.9805 22.5001H17.4669L20.3126 25.6872C20.3654 25.7463 20.43 25.7936 20.5023 25.826C20.5746 25.8584 20.653 25.8751 20.7322 25.8751C20.7492 25.8751 20.7664 25.8743 20.7837 25.8728C20.8712 25.8647 20.9556 25.8362 21.0302 25.7896C21.1047 25.7431 21.1673 25.6797 21.213 25.6046L23.0978 22.5001H24.4058L23.0477 24.7501H26.4375V26.1563ZM26.4375 21.3751H16.0313V20.5314C16.0318 20.0094 16.2395 19.509 16.6085 19.1399C16.9776 18.7708 17.478 18.5632 18 18.5626H24.4688C24.9907 18.5632 25.4911 18.7708 25.8602 19.1399C26.2293 19.509 26.4369 20.0094 26.4375 20.5314V21.3751ZM12.9375 12.9377C12.9304 12.0752 12.7401 11.2241 12.3793 10.4407C12.0185 9.65733 11.4953 8.95953 10.8445 8.39355L12.0766 3.51297C12.1129 3.3684 12.0904 3.21532 12.014 3.08735C11.9375 2.95938 11.8134 2.86699 11.6689 2.83048C11.5243 2.79398 11.3712 2.81634 11.2432 2.89266C11.1151 2.96897 11.0226 3.093 10.9859 3.23749L9.86411 7.68136C9.4988 7.46242 9.11287 7.27989 8.71189 7.13638C8.66749 6.57191 8.41192 6.04493 7.99614 5.66057C7.58037 5.27621 7.03497 5.06273 6.46875 5.06273C5.90254 5.06273 5.35714 5.27621 4.94136 5.66057C4.52559 6.04493 4.27001 6.57191 4.22562 7.13638C3.00986 7.55092 1.95164 8.33052 1.19538 9.36878C0.439118 10.407 0.0216674 11.6534 0 12.9377V15.1877C0 15.2011 0.0032625 15.2487 0.00466875 15.2596L2.06474 31.2255C2.1358 31.7674 2.40123 32.2651 2.81168 32.626C3.22213 32.9869 3.74966 33.1864 4.2962 33.1876H8.6413C9.18784 33.1864 9.71537 32.9869 10.1258 32.626C10.5363 32.2651 10.8017 31.7674 10.8728 31.2255L12.9328 15.2596C12.9342 15.2487 12.9375 15.2011 12.9375 15.1877V12.9377ZM4.95084 8.08601C5.08169 8.04929 5.19482 7.96646 5.26933 7.85281C5.34385 7.73917 5.37472 7.60239 5.35624 7.46776C5.33211 7.30765 5.34282 7.14421 5.38764 6.98861C5.43247 6.83302 5.51035 6.68893 5.61597 6.5662C5.72159 6.44347 5.85246 6.34498 5.99963 6.27746C6.14681 6.20995 6.30682 6.175 6.46874 6.175C6.63067 6.175 6.79068 6.20995 6.93786 6.27746C7.08503 6.34498 7.2159 6.44347 7.32152 6.5662C7.42714 6.68893 7.50502 6.83302 7.54985 6.98861C7.59467 7.14421 7.60538 7.30765 7.58125 7.46776C7.56277 7.6024 7.59364 7.73917 7.66816 7.85282C7.74268 7.96646 7.85581 8.04929 7.98666 8.08601C8.55286 8.24542 9.0892 8.49629 9.57447 8.82871L8.67918 12.3752H1.15865C1.2989 11.3666 1.73346 10.4217 2.40798 9.65877C3.08249 8.89586 3.967 8.34879 4.95084 8.08601ZM9.75709 31.0816C9.72152 31.3526 9.58878 31.6014 9.38355 31.7818C9.17832 31.9622 8.91456 32.062 8.6413 32.0626H4.2962C4.02294 32.062 3.75918 31.9622 3.55395 31.7818C3.34872 31.6014 3.21598 31.3526 3.1804 31.0816L1.20218 15.7502H7.82719L6.29765 21.8091C6.24499 21.8297 6.19519 21.849 6.14135 21.8701C5.41599 22.1589 4.63225 22.2706 3.85507 22.1961C3.77194 22.1909 3.68867 22.2039 3.61108 22.2341C3.53348 22.2644 3.46344 22.3113 3.40584 22.3715C3.34825 22.4316 3.30449 22.5037 3.27762 22.5825C3.25075 22.6613 3.24142 22.7451 3.25029 22.8279L4.23178 30.4469C4.24923 30.5825 4.31549 30.7071 4.41815 30.7975C4.52082 30.8878 4.65288 30.9376 4.78961 30.9376H8.14787C8.28461 30.9376 8.41666 30.8878 8.51933 30.7975C8.622 30.7071 8.68826 30.5825 8.7057 30.4469C8.7057 30.4469 9.8695 21.4113 9.87003 21.406C9.88123 21.3143 9.86972 21.2212 9.83651 21.135C9.8033 21.0488 9.7494 20.972 9.67957 20.9115C9.60973 20.851 9.5261 20.8086 9.43603 20.788C9.34595 20.7674 9.2522 20.7693 9.16301 20.7934C8.71405 20.9168 8.19505 21.0927 7.5816 21.319L8.9874 15.7502H11.7353L9.75709 31.0816ZM9.83938 12.3752L10.5254 9.65754C11.2132 10.4127 11.651 11.3618 11.7788 12.3752H9.83938Z" fill="#13519C"/>
<path d="M18.7895 16.3126H24.4688C25.5872 16.3138 26.6595 16.7587 27.4504 17.5496C28.2413 18.3404 28.6862 19.4127 28.6875 20.5312V20.8155C28.9859 21.0402 29.2368 21.322 29.4254 21.6445C29.614 21.967 29.7366 22.3237 29.7862 22.694C31.5809 22.1533 33.154 21.0495 34.273 19.5458C35.392 18.042 35.9975 16.2182 36 14.3438C36 14.1946 35.9407 14.0516 35.8352 13.9461C35.7297 13.8406 35.5867 13.7813 35.4375 13.7813H34.2627C34.1735 13.2651 33.9662 12.7766 33.6568 12.3539C33.3474 11.9311 32.9444 11.5858 32.4793 11.3447C32.447 10.7549 32.2604 10.1839 31.9381 9.68884C31.6158 9.1938 31.1691 8.79209 30.6428 8.52393C30.1165 8.25576 29.5289 8.13054 28.939 8.1608C28.349 8.19106 27.7774 8.37574 27.2812 8.69635C26.7851 8.37574 26.2135 8.19106 25.6235 8.1608C25.0336 8.13054 24.4461 8.25576 23.9197 8.52393C23.3934 8.79209 22.9467 9.1938 22.6244 9.68884C22.3021 10.1839 22.1155 10.7549 22.0832 11.3447C21.6181 11.5858 21.2151 11.9311 20.9057 12.3539C20.5963 12.7766 20.389 13.2651 20.2998 13.7813H19.125C18.9758 13.7813 18.8328 13.8406 18.7273 13.9461C18.6218 14.0516 18.5625 14.1946 18.5625 14.3438C18.563 15.0066 18.6391 15.6671 18.7895 16.3126ZM33.2619 16.8089C32.7244 18.099 31.7875 19.1829 30.5887 19.9015C30.5253 19.9394 30.455 19.9644 30.3819 19.9751C30.3088 19.9858 30.2343 19.982 30.1627 19.964C30.0911 19.9459 30.0237 19.9139 29.9644 19.8698C29.9052 19.8257 29.8552 19.7703 29.8173 19.7069C29.7794 19.6435 29.7544 19.5732 29.7437 19.5001C29.733 19.427 29.7368 19.3525 29.7548 19.2809C29.7729 19.2093 29.8049 19.1419 29.849 19.0827C29.8931 19.0234 29.9485 18.9734 30.0119 18.9355C31.0031 18.3415 31.7778 17.4455 32.2224 16.3789C32.2504 16.3104 32.2917 16.2481 32.3439 16.1956C32.3961 16.1431 32.4581 16.1014 32.5265 16.0729C32.5948 16.0444 32.6681 16.0297 32.7421 16.0296C32.8161 16.0295 32.8894 16.044 32.9579 16.0723C33.0263 16.1006 33.0884 16.1422 33.1407 16.1945C33.1931 16.2469 33.2345 16.3091 33.2628 16.3775C33.291 16.4459 33.3055 16.5192 33.3054 16.5933C33.3052 16.6673 33.2905 16.7406 33.2619 16.8089ZM22.845 12.2361C22.9583 12.1941 23.0552 12.1166 23.1211 12.0153C23.187 11.9139 23.2185 11.794 23.211 11.6733L23.2081 11.6303C23.2059 11.5975 23.2031 11.5647 23.2031 11.5313C23.2027 11.1011 23.3258 10.6798 23.5577 10.3174C23.7896 9.95508 24.1206 9.66689 24.5115 9.48708C24.9023 9.30727 25.3366 9.2434 25.7626 9.30307C26.1887 9.36273 26.5887 9.54341 26.9151 9.82366C27.0171 9.911 27.147 9.959 27.2812 9.959C27.4155 9.959 27.5454 9.911 27.6474 9.82366C27.9738 9.54341 28.3738 9.36273 28.7999 9.30307C29.2259 9.2434 29.6602 9.30727 30.051 9.48708C30.4419 9.66689 30.7729 9.95509 31.0048 10.3175C31.2367 10.6798 31.3598 11.1011 31.3594 11.5314C31.3594 11.5647 31.3566 11.5975 31.3544 11.6304L31.3515 11.6733C31.344 11.794 31.3755 11.9139 31.4414 12.0153C31.5073 12.1167 31.6042 12.1941 31.7175 12.2361C32.0563 12.3633 32.3596 12.5701 32.6017 12.839C32.8439 13.1079 33.0178 13.4311 33.1089 13.7813H21.4536C21.5447 13.4311 21.7186 13.1079 21.9608 12.839C22.2029 12.5701 22.5062 12.3633 22.845 12.2361Z" fill="#2983D3" fill-opacity="0.4"/>
</svg>
