<svg width="1082" height="172" viewBox="0 0 1082 172" fill="none" xmlns="http://www.w3.org/2000/svg">
<g clip-path="url(#clip0_78_3942)">
<g clip-path="url(#clip1_78_3942)">
<path d="M280.107 216.371L279.042 215.524C279.181 215.42 293.218 204.955 313.483 193.438C325.392 186.669 337.095 180.863 348.269 176.179C362.261 170.314 375.462 166.201 387.506 163.955C417.017 158.45 437.652 161.996 457.607 165.426C473.095 168.088 489.111 170.841 508.978 169.143C529.879 167.358 545.984 158.849 563.035 149.84C572.844 144.657 582.986 139.299 594.492 134.995C607.519 130.122 620.525 127.323 634.255 126.434C662.159 124.633 681.257 133.119 699.728 141.327C719.666 150.188 738.497 158.556 767.426 154.863C796.267 151.18 810.632 137.202 825.842 122.402C840.446 108.191 855.548 93.4959 884.517 86.2178C898.272 82.7621 910.662 81.9017 922.394 83.588C932.868 85.0929 941.565 88.3148 950.772 91.7246C967.69 97.9913 985.183 104.471 1014.52 99.3547C1045.66 93.9254 1073.35 74.665 1091.09 59.4659C1110.36 42.9565 1122.38 27.5544 1122.49 27.4009L1123.94 27.8837C1123.81 28.0397 1111.68 43.5883 1092.26 60.225C1080.85 70.0058 1069.17 78.2493 1057.57 84.7275C1043.03 92.8466 1028.55 98.2028 1014.55 100.645C997.738 103.576 984.771 102.784 973.596 100.402C964.893 98.5456 957.278 95.7235 949.771 92.9438C931.724 86.2592 914.68 79.9447 884.72 87.4716C856.384 94.5901 841.503 109.07 827.112 123.075C819.302 130.675 811.925 137.853 802.624 143.781C792.071 150.507 780.861 154.445 767.344 156.171C754.096 157.862 741.642 157.16 729.278 154.025C718.269 151.234 708.289 146.8 698.639 142.51C680.355 134.386 661.45 125.984 634.032 127.755C603.877 129.704 583.499 140.469 563.792 150.881C546.514 160.01 530.192 168.632 508.802 170.459C488.659 172.18 472.516 169.407 456.904 166.724C437.126 163.324 416.675 159.809 387.562 165.24C360.659 170.259 332.892 183.882 314.335 194.426C294.189 205.874 280.245 216.268 280.107 216.371Z" fill="url(#paint0_linear_78_3942)"/>
<path d="M276.365 201.659L275.3 200.812C275.439 200.708 289.476 190.243 309.743 178.725C321.65 171.958 333.354 166.15 344.527 161.468C358.52 155.603 371.721 151.489 383.764 149.243C413.275 143.737 433.912 147.284 453.867 150.714C469.355 153.376 485.37 156.128 505.238 154.43C526.137 152.644 542.242 144.136 559.292 135.128C569.103 129.946 579.246 124.586 590.751 120.284C603.777 115.41 616.784 112.609 630.514 111.723C658.417 109.92 677.516 118.408 695.985 126.615C715.923 135.476 734.756 143.845 763.683 140.151C792.526 136.469 806.892 122.489 822.102 107.689C836.704 93.4781 851.806 78.784 880.775 71.5061C894.531 68.0507 906.921 67.1903 918.651 68.8763C929.125 70.3811 937.823 73.6016 947.031 77.0132C963.947 83.2794 981.44 89.7589 1010.78 84.6432C1041.92 79.2124 1069.6 59.9536 1087.35 44.7528C1106.62 28.2452 1118.63 12.8427 1118.75 12.6895L1120.19 13.1719C1120.07 13.3269 1107.94 28.8769 1088.52 45.5121C1077.11 55.2926 1065.43 63.5365 1053.83 70.0157C1039.29 78.1351 1024.81 83.4914 1010.81 85.9338C993.995 88.8647 981.03 88.0728 969.856 85.6893C961.152 83.8328 953.537 81.0121 946.029 78.2306C927.984 71.5463 910.937 65.2328 880.98 72.7588C852.643 79.8787 837.762 94.3587 823.37 108.362C815.559 115.963 808.182 123.141 798.882 129.068C788.329 135.795 777.118 139.733 763.604 141.458C750.356 143.149 737.901 142.448 725.536 139.312C714.526 136.522 704.549 132.087 694.899 127.799C676.614 119.674 657.709 111.272 630.291 113.043C600.136 114.992 579.758 125.758 560.051 136.169C542.774 145.297 526.452 153.919 505.061 155.748C484.918 157.469 468.774 154.695 453.162 152.01C433.385 148.613 412.933 145.097 383.819 150.528C356.908 155.549 329.13 169.179 310.566 179.729C290.425 191.177 276.504 201.555 276.365 201.659Z" fill="url(#paint1_linear_78_3942)"/>
<path d="M272.621 186.948L271.557 186.101C271.697 185.995 285.733 175.53 305.999 164.013C317.907 157.245 329.61 151.439 340.784 146.755C354.777 140.89 367.977 136.778 380.02 134.531C409.532 129.026 430.167 132.572 450.123 136.002C465.611 138.663 481.627 141.416 501.494 139.718C522.394 137.933 538.499 129.424 555.55 120.416C565.359 115.234 575.503 109.875 587.007 105.57C600.034 100.699 613.041 97.8979 626.77 97.011C654.672 95.2078 673.772 103.695 692.242 111.904C712.181 120.763 731.011 129.133 759.941 125.438C788.784 121.756 803.149 107.777 818.357 92.9773C832.961 78.7665 848.063 64.0725 877.032 56.7945C890.787 53.3373 903.177 52.4769 914.909 54.1633C925.382 55.6695 934.08 58.8901 943.287 62.3013C960.204 68.568 977.697 75.0474 1007.04 69.9299C1038.16 64.5027 1065.84 45.2552 1083.58 30.0658C1102.85 13.556 1114.89 -1.8688 1115.01 -2.02344L1116.45 -1.53954C1116.33 -1.38494 1104.2 14.1636 1084.78 30.8002C1073.36 40.581 1061.69 48.8245 1050.09 55.3041C1035.54 63.4232 1021.07 68.7781 1007.06 71.2205C990.252 74.1532 977.287 73.3612 966.111 70.9774C957.408 69.1209 949.792 66.3002 942.286 63.5191C924.239 56.8344 907.194 50.5213 877.235 58.0469C848.899 65.1654 834.017 79.6469 819.627 93.6506C811.817 101.25 804.439 108.429 795.139 114.357C784.585 121.084 773.376 125.02 759.861 126.746C746.611 128.437 734.159 127.736 721.793 124.601C710.784 121.81 700.804 117.375 691.154 113.087C672.87 104.961 653.964 96.5604 626.546 98.3317C596.392 100.279 576.014 111.045 556.309 121.456C539.029 130.585 522.708 139.207 501.316 141.036C481.174 142.757 465.032 139.982 449.419 137.299C429.641 133.9 409.19 130.386 380.076 135.817C353.175 140.834 325.407 154.457 306.849 165.003C286.703 176.45 272.76 186.843 272.621 186.948Z" fill="url(#paint2_linear_78_3942)"/>
<path d="M268.882 172.232L267.817 171.385C267.956 171.281 281.993 160.816 302.259 149.298C314.167 142.531 325.87 136.725 337.044 132.041C351.036 126.176 364.237 122.062 376.28 119.816C405.791 114.312 426.428 117.857 446.383 121.288C461.871 123.949 477.885 126.702 497.754 125.004C518.653 123.218 534.758 114.71 551.808 105.701C561.62 100.519 571.763 95.1592 583.268 90.8564C596.293 85.9829 609.299 83.1837 623.031 82.2956C650.932 80.4938 670.031 88.9805 688.501 97.1883C708.44 106.049 727.272 114.418 756.2 110.724C785.043 107.042 799.408 93.0631 814.617 78.2634C829.222 64.0526 844.322 49.3568 873.291 42.0788C887.048 38.6234 899.437 37.763 911.168 39.4489C921.643 40.9541 930.338 44.1758 939.548 47.5859C956.464 53.8522 973.956 60.3316 1003.3 55.216C1034.42 49.7873 1062.1 30.5408 1079.84 15.35C1099.11 -1.15938 1111.15 -16.5847 1111.27 -16.7378L1112.71 -16.2554C1112.59 -16.099 1100.46 -0.550423 1081.04 16.0863C1069.62 25.8653 1057.95 34.1106 1046.35 40.5884C1031.81 48.7078 1017.33 54.0641 1003.32 56.5065C986.512 59.4374 973.546 58.6455 962.371 56.2634C953.668 54.4069 946.053 51.5848 938.545 48.8047C920.499 42.1205 903.454 35.8056 873.495 43.3329C845.159 50.4514 830.278 64.9315 815.885 78.9363C808.076 86.5356 800.701 93.714 791.398 99.6425C780.845 106.369 769.634 110.306 756.12 112.031C742.871 113.724 730.417 113.022 718.052 109.887C707.043 107.095 697.065 102.66 687.415 98.3717C669.131 90.2471 650.225 81.8451 622.807 83.6163C592.652 85.5653 572.274 96.3309 552.567 106.742C535.289 115.872 518.968 124.494 497.578 126.321C477.435 128.042 461.29 125.268 445.679 122.585C425.901 119.186 405.451 115.67 376.336 121.101C349.434 126.121 321.667 139.744 303.11 150.287C282.964 161.735 269.02 172.13 268.882 172.232Z" fill="url(#paint3_linear_78_3942)"/>
<path d="M265.14 157.521L264.075 156.674C264.214 156.57 278.25 146.105 298.517 134.586C310.424 127.819 322.128 122.012 333.302 117.329C347.294 111.464 360.495 107.351 372.538 105.104C402.05 99.5987 422.685 103.146 442.641 106.575C458.128 109.238 474.144 111.989 494.012 110.291C514.912 108.506 531.017 99.9974 548.067 90.9899C557.877 85.8071 568.021 80.4479 579.524 76.1447C592.552 71.2716 605.559 68.4709 619.289 67.5843C647.192 65.7811 666.289 74.2691 684.76 82.477C704.698 91.3376 723.529 99.706 752.458 96.0127C781.301 92.3302 795.667 78.3503 810.874 63.5517C825.478 49.3409 840.581 34.6454 869.55 27.3674C883.304 23.9116 895.694 23.0512 907.426 24.7376C917.9 26.2424 926.598 29.4629 935.805 32.8741C952.722 39.1408 970.215 45.6203 999.553 40.5042C1030.68 35.0759 1058.36 15.8295 1076.1 0.63858C1095.37 -15.8708 1107.41 -31.2961 1107.53 -31.4492L1108.97 -30.9667C1108.85 -30.8121 1096.72 -15.2622 1077.3 1.37305C1065.88 11.1539 1054.21 19.3974 1042.61 25.877C1028.06 33.9961 1013.59 39.3523 999.58 41.7947C982.77 44.726 969.805 43.9341 958.629 41.5503C949.926 39.6938 942.31 36.8731 934.804 34.0919C916.757 27.4073 899.712 21.0942 869.753 28.6198C841.416 35.7397 826.535 50.2198 812.145 64.2235C804.334 71.8243 796.957 79.0023 787.657 84.9297C777.103 91.657 765.893 95.5943 752.379 97.3192C739.129 99.0104 726.677 98.3086 714.311 95.1736C703.301 92.3839 693.324 87.9485 683.672 83.66C665.389 75.5357 646.482 67.1333 619.064 68.9046C588.909 70.8536 568.531 81.6192 548.826 92.0308C531.547 101.158 515.226 109.78 493.836 111.609C473.692 113.33 457.549 110.555 441.937 107.872C422.158 104.474 401.708 100.959 372.594 106.39C345.693 111.408 317.925 125.03 299.368 135.576C279.221 147.024 265.278 157.417 265.14 157.521Z" fill="url(#paint4_linear_78_3942)"/>
<path d="M261.396 142.809L260.331 141.962C260.471 141.857 274.508 131.392 294.773 119.874C306.682 113.106 318.385 107.3 329.559 102.616C343.551 96.7507 356.751 92.6389 368.795 90.3911C398.306 84.8868 418.942 88.4338 438.898 91.863C454.386 94.5243 470.4 97.277 490.269 95.5794C511.169 93.7943 527.273 85.2853 544.324 76.2782C554.134 71.0954 564.277 65.7358 575.782 61.4316C588.807 56.5596 601.814 53.7588 615.545 52.8722C643.447 51.069 662.547 59.556 681.017 67.7653C700.955 76.6241 719.786 84.9943 748.716 81.2997C777.557 77.6167 791.923 63.6383 807.132 48.8386C821.736 34.6278 836.836 19.9334 865.807 12.6558C879.562 9.19855 891.952 8.33819 903.684 10.0245C914.155 11.5304 922.855 14.7513 932.062 18.1625C948.978 24.4288 966.47 30.9083 995.811 25.7912C1026.95 20.3619 1054.64 1.10152 1072.38 -14.0979C1091.65 -30.6055 1103.67 -46.0076 1103.78 -46.1626L1105.22 -45.6783C1105.1 -45.5237 1092.97 -29.9752 1073.55 -13.3385C1062.14 -3.55772 1050.47 4.6858 1038.86 11.165C1024.32 19.2845 1009.85 24.6393 995.838 27.0817C979.026 30.014 966.06 29.2221 954.886 26.8387C946.183 24.9821 938.567 22.1615 931.059 19.3799C913.014 12.6956 895.969 6.38075 866.01 13.9081C837.674 21.0266 822.792 35.5082 808.402 49.5119C800.591 57.1108 793.215 64.2906 783.913 70.2176C773.359 76.945 762.149 80.8808 748.634 82.6071C735.386 84.2987 722.937 83.5977 710.567 80.4615C699.558 77.6704 689.579 73.2365 679.929 68.9483C661.646 60.8223 642.739 52.4217 615.321 54.193C585.167 56.1405 564.789 66.9061 545.082 77.3173C527.804 86.4467 511.483 95.0687 490.091 96.8971C469.949 98.6184 453.805 95.8429 438.194 93.1602C418.416 89.7608 397.964 86.2467 368.85 91.6778C341.949 96.6956 314.181 110.319 295.624 120.864C275.478 132.312 261.535 142.705 261.396 142.809Z" fill="url(#paint5_linear_78_3942)"/>
<path d="M257.659 128.096L256.594 127.249C256.733 127.145 270.77 116.68 291.036 105.161C302.943 98.3944 314.647 92.5884 325.821 87.9043C339.813 82.0392 353.014 77.926 365.057 75.6796C394.568 70.1754 415.204 73.7208 435.159 77.1514C450.649 79.8131 466.663 82.5657 486.531 80.8681C507.431 79.0812 523.535 70.574 540.586 61.5651C550.396 56.3823 560.54 51.0246 572.044 46.72C585.071 41.8468 598.077 39.0476 611.808 38.1595C639.71 36.3577 658.808 44.8444 677.279 53.0522C697.217 61.9128 716.05 70.2816 744.977 66.588C773.82 62.9054 788.185 48.927 803.393 34.1269C817.997 19.9161 833.1 5.22063 862.069 -2.0574C875.825 -5.5128 888.213 -6.37354 899.945 -4.68721C910.419 -3.18237 919.116 0.039608 928.324 3.44935C945.241 9.71605 962.734 16.1955 992.072 11.0795C1023.21 5.64868 1050.9 -13.6098 1068.64 -28.8093C1087.91 -45.3187 1099.93 -60.7208 1100.05 -60.874L1101.49 -60.3915C1101.37 -60.2354 1089.24 -44.6869 1069.82 -28.0499C1058.4 -18.2708 1046.73 -10.0259 1035.12 -3.54778C1020.58 4.57167 1006.11 9.92757 992.099 12.37C975.29 15.3013 962.324 14.5094 951.147 12.127C942.444 10.2704 934.829 7.4483 927.322 4.66859C909.278 -2.01712 892.231 -8.33057 862.271 -0.803581C833.935 6.31489 819.054 20.7951 804.663 34.8002C796.853 42.3995 789.476 49.5775 780.176 55.5064C769.623 62.2322 758.412 66.1695 744.898 67.8944C731.647 69.587 719.195 68.8853 706.83 65.7502C695.82 62.9592 685.843 58.5238 676.191 54.2352C657.908 46.111 639.003 37.709 611.585 39.4802C581.428 41.4289 561.052 52.1948 541.345 62.606C524.065 71.7351 507.746 80.3574 486.355 82.1844C466.211 83.9054 450.068 81.1317 434.455 78.4486C414.678 75.0494 394.227 71.5339 365.113 76.9649C338.202 81.9853 310.424 95.6158 291.859 106.167C271.719 117.613 257.796 127.993 257.659 128.096Z" fill="url(#paint6_linear_78_3942)"/>
<path d="M253.917 113.384L252.852 112.537C252.991 112.433 267.028 101.968 287.294 90.4498C299.202 83.6827 310.906 77.8753 322.079 73.1927C336.071 67.3276 349.272 63.2144 361.316 60.968C390.827 55.4622 411.462 59.009 431.419 62.4384C446.906 65.1012 462.921 67.8524 482.79 66.1548C503.69 64.3697 519.793 55.8607 536.845 46.8536C546.655 41.6709 556.798 36.3113 568.302 32.0085C581.328 27.135 594.337 24.3346 608.066 23.4476C635.968 21.6444 655.067 30.1329 673.538 38.3407C693.475 47.201 712.307 55.5697 741.236 51.8765C770.077 48.1935 784.443 34.2137 799.653 19.414C814.257 5.20311 829.357 -9.49126 858.328 -16.7689C872.082 -20.2247 884.472 -21.085 896.205 -19.4001C906.678 -17.8939 915.376 -14.6733 924.583 -11.2622C941.499 -4.99588 958.991 1.48357 988.331 -3.63208C1019.47 -9.06286 1047.16 -28.3217 1064.9 -43.5226C1084.17 -60.0302 1096.19 -75.4323 1096.3 -75.5859L1097.75 -75.103C1097.63 -74.9484 1085.5 -59.3985 1066.08 -42.7632C1054.66 -32.9824 1042.99 -24.7389 1031.38 -18.2597C1016.84 -10.1402 1002.37 -4.78399 988.358 -2.34157C971.547 0.589348 958.581 -0.202568 947.407 -2.58602C938.704 -4.44255 931.088 -7.26322 923.58 -10.0447C905.535 -16.729 888.489 -23.0425 858.531 -15.5165C830.194 -8.39666 815.313 6.08351 800.923 20.0873C793.111 27.6876 785.735 34.866 776.434 40.793C765.88 47.5203 754.669 51.4576 741.155 53.1825C727.907 54.8741 715.455 54.1724 703.088 51.0369C692.079 48.2476 682.1 43.8119 672.45 39.5237C654.166 31.3991 635.26 22.9971 607.842 24.7684C577.687 26.7174 557.309 37.4829 537.602 47.8941C520.325 57.0221 504.004 65.6441 482.612 67.4726C462.47 69.1939 446.326 66.4184 430.715 63.7357C410.936 60.3377 390.485 56.8222 361.371 62.2533C334.47 67.271 306.702 80.894 288.145 91.4394C267.999 102.887 254.056 113.28 253.917 113.384Z" fill="url(#paint7_linear_78_3942)"/>
<path d="M250.175 98.6723L249.111 97.8239C249.25 97.7199 263.287 87.2551 283.553 75.7379C295.461 68.9695 307.164 63.1635 318.338 58.4794C332.33 52.6143 345.531 48.5025 357.575 46.2547C387.085 40.7505 407.721 44.2973 427.677 47.7266C443.166 50.3881 459.18 53.1408 479.049 51.4432C499.947 49.6577 516.053 41.1491 533.102 32.1416C542.912 26.9588 553.057 21.5996 564.561 17.2951C577.587 12.4233 590.594 9.62259 604.325 8.73599C632.227 6.9328 651.326 15.4195 669.795 23.6287C689.735 32.4879 708.566 40.8581 737.494 37.1631C766.337 33.4805 780.702 19.5021 795.91 4.70199C810.515 -9.50881 825.616 -24.2028 854.586 -31.4822C868.342 -34.9376 880.732 -35.798 892.462 -34.1121C902.938 -32.6068 911.633 -29.3853 920.84 -25.9741C937.758 -19.7074 955.25 -13.2279 984.589 -18.3454C1015.72 -23.7722 1043.39 -43.0201 1061.13 -58.2096C1080.41 -74.7189 1092.44 -90.1442 1092.56 -90.2988L1094 -89.8149C1093.88 -89.6603 1081.75 -74.1118 1062.33 -57.4747C1050.92 -47.6943 1039.24 -39.4504 1027.64 -32.9712C1013.1 -24.8517 998.624 -19.4973 984.618 -17.0545C967.806 -14.1222 954.84 -14.9141 943.666 -17.2975C934.961 -19.1544 927.345 -21.9751 919.839 -24.7563C901.792 -31.4409 884.748 -37.7554 854.788 -30.2284C826.452 -23.11 811.57 -8.62843 797.18 5.3753C789.371 12.9746 781.993 20.154 772.693 26.0814C762.139 32.8087 750.929 36.7446 737.414 38.4709C724.166 40.1625 711.712 39.4604 699.347 36.3253C688.338 33.5342 678.359 29.1003 668.707 24.8117C650.424 16.6857 631.517 8.28508 604.101 10.0567C573.946 12.004 553.569 22.7699 533.862 33.1811C516.582 42.3101 500.263 50.9325 478.871 52.7609C458.727 54.4818 442.585 51.7067 426.973 49.0237C407.195 45.6245 386.743 42.1104 357.629 47.5414C330.729 52.5592 302.961 66.1822 284.403 76.7275C264.257 88.1752 250.314 98.5683 250.175 98.6723Z" fill="url(#paint8_linear_78_3942)"/>
<path d="M246.437 83.9588L245.372 83.1118C245.511 83.0079 259.548 72.543 279.815 61.0244C291.722 54.2574 303.425 48.4514 314.599 43.7673C328.591 37.9022 341.793 33.789 353.836 31.5426C383.346 26.0384 403.983 29.5838 423.938 33.0145C439.426 35.6758 455.44 38.4285 475.309 36.7309C496.21 34.9444 512.314 26.4372 529.365 17.4282C539.175 12.2455 549.318 6.88586 560.823 2.58308C573.848 -2.29043 586.856 -5.08937 600.586 -5.97776C628.487 -7.77955 647.588 0.707504 666.058 8.9153C685.995 17.7756 704.827 26.1444 733.756 22.4511C762.597 18.7682 776.963 4.7897 792.172 -10.01C806.776 -24.2208 821.877 -38.9166 850.848 -46.1943C864.603 -49.6501 876.992 -50.5104 888.724 -48.8241C899.198 -47.3193 907.895 -44.0973 917.103 -40.6875C934.019 -34.4212 951.513 -27.9414 980.851 -33.0574C1011.99 -38.4867 1039.68 -57.7471 1057.42 -72.9466C1076.69 -89.4556 1088.71 -104.858 1088.83 -105.011L1090.27 -104.528C1090.15 -104.374 1078.02 -88.8238 1058.6 -72.1886C1047.18 -62.4078 1035.51 -54.1629 1023.9 -47.685C1009.36 -39.5656 994.886 -34.2093 980.878 -31.7669C964.067 -28.836 951.101 -29.6279 939.926 -32.0099C931.223 -33.8665 923.608 -36.6886 916.101 -39.4683C898.055 -46.1544 881.009 -52.4679 851.05 -44.9404C822.714 -37.822 807.833 -23.3418 793.442 -9.33669C785.632 -1.73739 778.255 5.44058 768.955 11.3695C758.4 18.095 747.189 22.0323 733.675 23.7572C720.426 25.4502 707.975 24.747 695.609 21.6133C684.599 18.8223 674.62 14.3865 664.97 10.0983C646.686 1.9737 627.78 -6.42832 600.362 -4.65705C570.207 -2.70803 549.829 8.05753 530.122 18.4688C512.844 27.5982 496.523 36.2202 475.132 38.0472C454.99 39.7685 438.845 36.9944 423.234 34.3117C403.456 30.9124 383.005 27.3968 353.891 32.8279C326.98 37.8483 299.202 51.4788 280.637 62.0306C260.497 73.4764 246.575 83.8562 246.437 83.9588Z" fill="url(#paint9_linear_78_3942)"/>
<path d="M242.693 69.2471L241.628 68.4001C241.768 68.2948 255.804 57.8314 276.071 46.3127C287.978 39.5457 299.682 33.7383 310.855 29.0557C324.848 23.1905 338.049 19.0773 350.092 16.831C379.603 11.3253 400.239 14.8721 420.195 18.3015C435.682 20.9642 451.698 23.7156 471.567 22.0179C492.465 20.2325 508.571 11.7239 525.62 2.71642C535.43 -2.46636 545.575 -7.82558 557.078 -12.1287C570.105 -17.0019 583.112 -19.8026 596.843 -20.6892C624.745 -22.4924 643.843 -14.0043 662.313 -5.79649C682.252 3.06416 701.084 11.4329 730.011 7.7393C758.854 4.05673 773.22 -9.92316 788.428 -24.7233C803.033 -38.9341 818.134 -53.6281 847.103 -60.9061C860.859 -64.3615 873.249 -65.2219 884.981 -63.5373C895.453 -62.0311 904.151 -58.8106 913.36 -55.399C930.276 -49.1327 947.768 -42.6532 977.107 -47.7692C1008.24 -53.2 1035.93 -72.4585 1053.68 -87.6594C1072.95 -104.167 1084.96 -119.569 1085.08 -119.722L1086.52 -119.24C1086.4 -119.085 1074.27 -103.535 1054.85 -86.9001C1043.43 -77.1196 1031.76 -68.8757 1020.16 -62.3965C1005.62 -54.277 991.144 -48.9222 977.135 -46.4784C960.324 -43.5474 947.358 -44.3394 936.184 -46.7228C927.481 -48.5794 919.863 -51.4004 912.357 -54.1815C894.312 -60.8659 877.266 -67.1793 847.308 -59.6533C818.969 -52.5338 804.09 -38.0533 789.698 -24.0499C781.888 -16.4492 774.511 -9.27119 765.211 -3.34379C754.657 3.38352 743.446 7.32081 729.932 9.04573C716.684 10.7372 704.232 10.0373 691.865 6.90009C680.855 4.11045 670.877 -0.324921 661.225 -4.61346C642.943 -12.7378 624.037 -21.1398 596.619 -19.3685C566.463 -17.4199 546.086 -6.65391 526.379 3.75734C509.1 12.8849 492.781 21.5072 471.389 23.3357C451.245 25.0566 435.103 22.2815 419.491 19.5985C399.712 16.2007 379.262 12.6852 350.147 18.1163C323.247 23.134 295.479 36.757 276.921 47.3023C256.775 58.7501 242.832 69.1431 242.693 69.2471Z" fill="url(#paint10_linear_78_3942)"/>
<path d="M238.95 54.5319L237.885 53.6834C238.025 53.5795 252.061 43.1147 272.327 31.5975C284.235 24.8291 295.939 19.023 307.113 14.339C321.105 8.47388 334.305 4.36212 346.349 2.11429C375.86 -3.39001 396.495 0.156784 416.451 3.58618C431.939 6.2475 447.954 9.00029 467.822 7.30251C488.722 5.51741 504.828 -2.99123 521.877 -11.9987C531.687 -17.1815 541.83 -22.541 553.336 -26.8452C566.36 -31.7173 579.369 -34.5177 593.098 -35.4046C621 -37.2078 640.101 -28.7208 658.571 -20.513C678.51 -11.6523 697.342 -3.28366 726.269 -6.97725C755.111 -10.6602 769.476 -24.6386 784.685 -39.4383C799.29 -53.6491 814.389 -68.3435 843.361 -75.6225C857.116 -79.0783 869.505 -79.9387 881.237 -78.2523C891.713 -76.7471 900.408 -73.5255 909.615 -70.1144C926.532 -63.8495 944.025 -57.3682 973.364 -62.4857C1004.5 -67.915 1032.19 -87.1753 1049.93 -102.375C1069.2 -118.884 1081.22 -134.286 1081.34 -134.44L1082.78 -133.955C1082.66 -133.801 1070.53 -118.252 1051.11 -101.616C1039.69 -91.8346 1028.02 -83.5911 1016.42 -77.1133C1001.87 -68.9924 987.399 -63.6375 973.391 -61.1952C956.581 -58.2625 943.613 -59.0547 932.439 -61.4382C923.736 -63.2947 916.12 -66.1154 908.614 -68.8966C890.567 -75.5812 873.523 -81.8957 843.563 -74.3687C815.227 -67.2503 800.345 -52.7687 785.955 -38.765C778.146 -31.1657 770.768 -23.9863 761.468 -18.0589C750.914 -11.3316 739.704 -7.39574 726.187 -5.66975C712.939 -3.97821 700.49 -4.67924 688.122 -7.81503C677.113 -10.6061 667.132 -15.0404 657.482 -19.3285C639.199 -27.4546 620.293 -35.8566 592.874 -34.0839C562.721 -32.1363 542.342 -21.3708 522.636 -10.9595C505.357 -1.83022 489.036 6.79178 467.645 8.62022C447.502 10.3415 431.359 7.56619 415.747 4.88329C395.97 1.48398 375.518 -2.03009 346.404 3.40099C319.503 8.41873 291.735 22.0417 273.178 32.5871C253.031 44.0348 239.088 54.4278 238.95 54.5319Z" fill="url(#paint11_linear_78_3942)"/>
<path d="M235.208 39.8203L234.143 38.9733C234.282 38.8694 248.319 28.4046 268.585 16.8859C280.493 10.1189 292.196 4.31287 303.37 -0.371216C317.362 -6.2363 330.563 -10.3494 342.606 -12.5959C372.117 -18.1001 392.753 -14.5547 412.709 -11.1239C428.197 -8.4626 444.212 -5.70981 464.08 -7.40746C484.98 -9.19435 501.084 -17.7015 518.135 -26.7105C527.944 -31.8932 538.089 -37.2524 549.594 -41.5552C562.62 -46.4287 575.626 -49.228 589.357 -50.116C617.259 -51.9178 636.357 -43.4311 654.828 -35.2233C674.766 -26.3627 693.599 -17.9939 722.526 -21.6875C751.369 -25.3701 765.734 -39.3486 780.944 -54.1483C795.546 -68.3594 810.648 -83.0549 839.617 -90.3329C853.374 -93.7883 865.764 -94.6487 877.494 -92.9627C887.968 -91.4579 896.665 -88.2359 905.874 -84.8258C922.79 -78.5595 940.283 -72.08 969.621 -77.196C1000.75 -82.6244 1028.42 -101.871 1046.16 -117.062C1065.44 -133.571 1077.48 -148.996 1077.6 -149.15L1079.04 -148.667C1078.92 -148.511 1066.79 -132.962 1047.37 -116.327C1035.95 -106.546 1024.28 -98.3011 1012.67 -91.8233C998.133 -83.7038 983.657 -78.3476 969.65 -75.9052C952.838 -72.9743 939.873 -73.7662 928.699 -76.1496C919.994 -78.0047 912.38 -80.8269 904.871 -83.6069C886.827 -90.2927 869.78 -96.6061 839.822 -89.0787C811.484 -81.9606 796.604 -67.4801 782.212 -53.4753C774.402 -45.876 767.025 -38.6981 757.724 -32.7692C747.171 -26.0433 735.961 -22.106 722.447 -20.3811C709.198 -18.6881 696.744 -19.3903 684.378 -22.5253C673.369 -25.3164 663.391 -29.7518 653.741 -34.04C635.457 -42.1646 616.552 -50.5666 589.134 -48.7953C558.977 -46.8467 538.601 -36.0808 518.894 -25.6695C501.614 -16.5405 485.294 -7.91814 463.904 -6.09114C443.76 -4.37004 427.617 -7.14386 412.005 -9.82681C392.227 -13.2261 371.776 -16.7416 342.662 -11.3105C315.751 -6.29019 287.973 7.34032 269.408 17.8921C249.268 29.3379 235.346 39.7177 235.208 39.8203Z" fill="url(#paint12_linear_78_3942)"/>
<path d="M231.464 25.1064L230.399 24.2594C230.539 24.154 244.575 13.6906 264.842 2.17198C276.749 -4.59509 288.453 -10.4025 299.626 -15.0851C313.618 -20.9502 326.82 -25.0634 338.863 -27.3097C368.374 -32.8154 389.01 -29.2686 408.966 -25.8392C424.454 -23.1779 440.469 -20.4251 460.337 -22.1229C481.237 -23.9081 497.342 -32.4167 514.392 -41.4242C524.201 -46.607 534.346 -51.9661 545.849 -56.2693C558.877 -61.1424 571.883 -63.9432 585.613 -64.8301C613.515 -66.6333 632.614 -58.1449 651.085 -49.9371C671.023 -41.0764 689.854 -32.708 718.783 -36.4013C747.624 -40.0842 761.992 -54.0637 777.2 -68.8638C791.804 -83.0746 806.905 -97.7686 835.875 -105.046C849.629 -108.502 862.019 -109.363 873.752 -107.678C884.225 -106.171 892.923 -102.951 902.129 -99.5399C919.045 -93.2735 936.54 -86.7937 965.878 -91.9097C997.004 -97.3384 1024.68 -116.584 1042.42 -131.775C1061.7 -148.285 1073.73 -163.71 1073.85 -163.865L1075.29 -163.38C1075.17 -163.226 1063.04 -147.676 1043.62 -131.041C1032.21 -121.26 1020.53 -113.016 1008.93 -106.537C994.388 -98.4179 979.913 -93.0631 965.905 -90.6193C949.095 -87.688 936.128 -88.4802 924.954 -90.8637C916.251 -92.7202 908.635 -95.5409 901.129 -98.322C883.082 -105.007 866.037 -111.32 836.078 -103.794C807.741 -96.6743 792.86 -82.1942 778.47 -68.1905C770.659 -60.5897 763.282 -53.4118 753.982 -47.4844C743.428 -40.7571 732.218 -36.8198 718.702 -35.0952C705.454 -33.4037 693.001 -34.1054 680.636 -37.2405C669.627 -40.0315 659.647 -44.4659 649.997 -48.754C631.712 -56.8787 612.807 -65.2807 585.389 -63.5094C555.234 -61.5604 534.856 -50.7948 515.149 -40.3836C497.872 -31.2557 481.551 -22.6337 460.16 -20.8051C440.016 -19.084 423.874 -21.8592 408.262 -24.5421C388.483 -27.94 368.033 -31.4555 338.918 -26.0245C312.018 -21.0067 284.25 -7.38374 265.692 3.16154C245.546 14.6093 231.603 25.0023 231.464 25.1064Z" fill="url(#paint13_linear_78_3942)"/>
<path d="M227.721 10.3931L226.656 9.54466C226.796 9.44072 240.832 -1.02411 261.098 -12.5413C273.006 -19.3098 284.709 -25.1157 295.883 -29.7998C309.876 -35.6649 323.076 -39.7767 335.12 -42.0244C364.631 -47.5287 385.266 -43.9819 405.222 -40.5526C420.71 -37.8912 436.725 -35.1385 456.593 -36.8361C477.492 -38.6216 493.597 -47.1302 510.648 -56.1391C520.459 -61.3201 530.602 -66.6797 542.107 -70.9839C555.133 -75.8574 568.139 -78.6567 581.87 -79.5432C609.772 -81.3465 628.87 -72.8598 647.341 -64.652C667.279 -55.7913 686.112 -47.4226 715.039 -51.1162C743.882 -54.7988 758.247 -68.7772 773.457 -83.5769C788.059 -97.7881 803.161 -112.482 832.131 -119.761C845.887 -123.217 858.277 -124.077 870.007 -122.391C880.481 -120.886 889.178 -117.664 898.387 -114.254C915.303 -107.988 932.795 -101.507 962.136 -106.624C993.273 -112.054 1020.96 -131.314 1038.7 -146.513C1057.98 -163.022 1069.99 -178.423 1070.11 -178.578L1071.55 -178.094C1071.43 -177.939 1059.3 -162.391 1039.88 -145.754C1028.46 -135.973 1016.79 -127.73 1005.19 -121.252C990.645 -113.131 976.17 -107.776 962.163 -105.334C945.351 -102.401 932.385 -103.193 921.211 -105.577C912.508 -107.433 904.892 -110.254 897.384 -113.035C879.339 -119.72 862.293 -126.035 832.335 -118.507C803.999 -111.389 789.117 -96.9073 774.725 -82.904C766.915 -75.3047 759.538 -68.1253 750.238 -62.1979C739.684 -55.4706 728.474 -51.5347 714.959 -49.8084C701.711 -48.1168 689.258 -48.8186 676.892 -51.954C665.882 -54.7451 655.904 -59.179 646.254 -63.4672C627.97 -71.5932 609.064 -79.9938 581.646 -78.2225C551.492 -76.275 531.114 -65.5094 511.407 -55.0982C494.129 -45.9688 477.808 -37.3468 456.416 -35.5184C436.273 -33.7972 420.13 -36.5725 404.518 -39.2554C384.74 -42.6548 364.289 -46.1688 335.175 -40.7377C308.274 -35.72 280.506 -22.097 261.949 -11.5517C241.802 -0.103989 227.859 10.2891 227.721 10.3931Z" fill="url(#paint14_linear_78_3942)"/>
<mask id="path-17-outside-1_78_3942" maskUnits="userSpaceOnUse" x="458" y="49" width="205" height="46" fill="black">
<rect fill="white" x="458" y="49" width="205" height="46"/>
<path d="M458 69C458 59.5719 458 54.8579 460.929 51.9289C463.858 49 468.572 49 478 49H643C652.428 49 657.142 49 660.071 51.9289C663 54.8579 663 59.5719 663 69V74C663 83.4281 663 88.1421 660.071 91.0711C657.142 94 652.428 94 643 94H478C468.572 94 463.858 94 460.929 91.0711C458 88.1421 458 83.4281 458 74V69Z"/>
</mask>
</g>
</g>
<defs>
<linearGradient id="paint0_linear_78_3942" x1="1792.95" y1="128.492" x2="1138.03" y2="809.435" gradientUnits="userSpaceOnUse">
<stop stop-color="#007FFF" stop-opacity="0.47"/>
<stop offset="1" stop-color="#007FFF" stop-opacity="0"/>
</linearGradient>
<linearGradient id="paint1_linear_78_3942" x1="1789.21" y1="113.78" x2="1134.28" y2="794.722" gradientUnits="userSpaceOnUse">
<stop stop-color="#007FFF" stop-opacity="0.47"/>
<stop offset="1" stop-color="#007FFF" stop-opacity="0"/>
</linearGradient>
<linearGradient id="paint2_linear_78_3942" x1="1785.46" y1="99.0675" x2="1130.54" y2="780.01" gradientUnits="userSpaceOnUse">
<stop stop-color="#007FFF" stop-opacity="0.47"/>
<stop offset="1" stop-color="#007FFF" stop-opacity="0"/>
</linearGradient>
<linearGradient id="paint3_linear_78_3942" x1="1781.72" y1="84.353" x2="1126.8" y2="765.295" gradientUnits="userSpaceOnUse">
<stop stop-color="#007FFF" stop-opacity="0.47"/>
<stop offset="1" stop-color="#007FFF" stop-opacity="0"/>
</linearGradient>
<linearGradient id="paint4_linear_78_3942" x1="1777.98" y1="69.642" x2="1123.06" y2="750.584" gradientUnits="userSpaceOnUse">
<stop stop-color="#007FFF" stop-opacity="0.47"/>
<stop offset="1" stop-color="#007FFF" stop-opacity="0"/>
</linearGradient>
<linearGradient id="paint5_linear_78_3942" x1="1774.24" y1="54.9289" x2="1119.31" y2="735.873" gradientUnits="userSpaceOnUse">
<stop stop-color="#007FFF" stop-opacity="0.47"/>
<stop offset="1" stop-color="#007FFF" stop-opacity="0"/>
</linearGradient>
<linearGradient id="paint6_linear_78_3942" x1="1770.5" y1="40.2172" x2="1115.58" y2="721.159" gradientUnits="userSpaceOnUse">
<stop stop-color="#007FFF" stop-opacity="0.47"/>
<stop offset="1" stop-color="#007FFF" stop-opacity="0"/>
</linearGradient>
<linearGradient id="paint7_linear_78_3942" x1="1766.76" y1="25.5056" x2="1111.84" y2="706.448" gradientUnits="userSpaceOnUse">
<stop stop-color="#007FFF" stop-opacity="0.47"/>
<stop offset="1" stop-color="#007FFF" stop-opacity="0"/>
</linearGradient>
<linearGradient id="paint8_linear_78_3942" x1="1763.02" y1="10.792" x2="1108.09" y2="691.735" gradientUnits="userSpaceOnUse">
<stop stop-color="#007FFF" stop-opacity="0.47"/>
<stop offset="1" stop-color="#007FFF" stop-opacity="0"/>
</linearGradient>
<linearGradient id="paint9_linear_78_3942" x1="1759.28" y1="-3.91971" x2="1104.36" y2="677.023" gradientUnits="userSpaceOnUse">
<stop stop-color="#007FFF" stop-opacity="0.47"/>
<stop offset="1" stop-color="#007FFF" stop-opacity="0"/>
</linearGradient>
<linearGradient id="paint10_linear_78_3942" x1="1755.53" y1="-18.6316" x2="1100.61" y2="662.31" gradientUnits="userSpaceOnUse">
<stop stop-color="#007FFF" stop-opacity="0.47"/>
<stop offset="1" stop-color="#007FFF" stop-opacity="0"/>
</linearGradient>
<linearGradient id="paint11_linear_78_3942" x1="1751.79" y1="-33.3481" x2="1096.87" y2="647.595" gradientUnits="userSpaceOnUse">
<stop stop-color="#007FFF" stop-opacity="0.47"/>
<stop offset="1" stop-color="#007FFF" stop-opacity="0"/>
</linearGradient>
<linearGradient id="paint12_linear_78_3942" x1="1748.05" y1="-48.0585" x2="1093.13" y2="632.883" gradientUnits="userSpaceOnUse">
<stop stop-color="#007FFF" stop-opacity="0.47"/>
<stop offset="1" stop-color="#007FFF" stop-opacity="0"/>
</linearGradient>
<linearGradient id="paint13_linear_78_3942" x1="1744.31" y1="-62.7736" x2="1089.38" y2="618.17" gradientUnits="userSpaceOnUse">
<stop stop-color="#007FFF" stop-opacity="0.47"/>
<stop offset="1" stop-color="#007FFF" stop-opacity="0"/>
</linearGradient>
<linearGradient id="paint14_linear_78_3942" x1="1740.56" y1="-77.4875" x2="1085.64" y2="603.455" gradientUnits="userSpaceOnUse">
<stop stop-color="#007FFF" stop-opacity="0.47"/>
<stop offset="1" stop-color="#007FFF" stop-opacity="0"/>
</linearGradient>
<radialGradient id="paint15_radial_78_3942" cx="0" cy="0" r="1" gradientUnits="userSpaceOnUse" gradientTransform="translate(838.528 53.5601) rotate(17.1571) scale(256.885 144.879)">
<stop stop-color="#74B5FF"/>
<stop offset="1" stop-color="#2983D3"/>
</radialGradient>
<clipPath id="clip0_78_3942">
<rect width="1082" height="172" rx="12" fill="white"/>
</clipPath>
<clipPath id="clip1_78_3942">
<rect width="946" height="200" fill="white" transform="translate(147)"/>
</clipPath>
</defs>
</svg>
