<svg width="41" height="41" viewBox="0 0 41 41" fill="none" xmlns="http://www.w3.org/2000/svg">
<g clip-path="url(#clip0_55_368)">
<path d="M31.3506 18.6582C36.326 18.6582 40.3594 14.6248 40.3594 9.64941C40.3594 4.674 36.326 0.640625 31.3506 0.640625C26.3752 0.640625 22.3418 4.674 22.3418 9.64941C22.3418 14.6248 26.3752 18.6582 31.3506 18.6582Z" fill="#D7DF23" fill-opacity="0.1"/>
<path fill-rule="evenodd" clip-rule="evenodd" d="M38.7577 9.64941C38.7577 14.355 35.15 18.2179 30.5497 18.623C30.8135 18.6463 31.0806 18.6582 31.3505 18.6582C36.3259 18.6582 40.3593 14.6248 40.3593 9.64941C40.3593 4.674 36.326 0.640625 31.3505 0.640625C31.0807 0.640625 30.8135 0.652477 30.5498 0.675779C35.15 1.08097 38.7577 4.94386 38.7577 9.64941Z" fill="#47740E"/>
<path fill-rule="evenodd" clip-rule="evenodd" d="M26.9906 8.9218C27.0011 9.04928 26.9606 9.17573 26.878 9.27376C26.7955 9.37179 26.6774 9.4335 26.5494 9.44553C26.4214 9.45756 26.2938 9.41894 26.1942 9.33804C26.0946 9.25713 26.0311 9.14046 26.0174 9.01328C25.9305 8.11481 26.3639 7.51615 26.9787 7.21347C27.329 7.04105 27.7393 6.97354 28.1388 7.00946C28.5397 7.04551 28.9347 7.1859 29.2533 7.42894C29.8163 7.8586 30.1437 8.57893 29.8712 9.57187C29.7111 10.1551 29.1532 10.5883 28.5179 11.0815C28.1508 11.3666 27.7527 11.6756 27.4264 12.026H29.6517C29.7799 12.028 29.9022 12.0801 29.9921 12.171C30.0821 12.2619 30.1325 12.3844 30.1325 12.512C30.1325 12.6396 30.0821 12.762 29.9921 12.8529C29.9022 12.9439 29.7799 12.996 29.6517 12.998H26.5169C26.4319 13.0028 26.3471 12.9854 26.2709 12.9476C26.1947 12.9098 26.1297 12.8528 26.0824 12.7824C26.0351 12.7119 26.0071 12.6304 26.0012 12.5459C25.9953 12.4614 26.0116 12.3768 26.0486 12.3005C26.4684 11.4396 27.2386 10.8416 27.9164 10.3154C28.4158 9.92767 28.8544 9.58712 28.9287 9.31651C29.0768 8.77689 28.9278 8.40755 28.6594 8.20269C28.4895 8.07303 28.2735 7.99765 28.0507 7.97758C27.8266 7.95746 27.6004 7.99338 27.4117 8.08626C27.1399 8.22013 26.9495 8.49635 26.9906 8.9218ZM34.5192 10.6845C34.6474 10.6866 34.7697 10.7386 34.8596 10.8296C34.9496 10.9205 35 11.043 35 11.1705C35 11.2981 34.9496 11.4206 34.8596 11.5115C34.7697 11.6024 34.6474 11.6545 34.5192 11.6566H34.2503V12.5121C34.2503 12.6415 34.1986 12.7656 34.1067 12.8571C34.0147 12.9486 33.89 13 33.7599 13C33.6298 13 33.5051 12.9486 33.4131 12.8571C33.3212 12.7656 33.2695 12.6415 33.2695 12.5121V11.6566H30.7124C30.6198 11.6565 30.5292 11.6303 30.451 11.581C30.3728 11.5317 30.3103 11.4614 30.2708 11.3781C30.2313 11.2948 30.2163 11.2021 30.2277 11.1107C30.2391 11.0193 30.2763 10.933 30.3351 10.8619L33.3825 7.17742C33.4464 7.10003 33.5328 7.04419 33.6299 7.01753C33.7269 6.99087 33.8299 6.9947 33.9247 7.02849C34.0195 7.06228 34.1015 7.12439 34.1594 7.20631C34.2174 7.28823 34.2485 7.38597 34.2485 7.48614H34.2503V10.6845H34.5192V10.6845ZM31.7472 10.6845H33.2696V8.84404L31.7472 10.6845Z" fill="#47740E"/>
<path fill-rule="evenodd" clip-rule="evenodd" d="M16.9629 24.0371C15.1992 22.2765 13.636 20.3278 12.3072 18.2267C11.822 17.4593 11.8271 16.5373 12.3205 15.7755L14.2167 12.8478C14.6212 12.2229 14.6984 11.5099 14.4369 10.813L11.1752 2.11984C10.6644 0.758433 9.04785 0.219747 7.82242 1.00267L3.27198 3.91007C1.19531 5.23696 0.231172 7.62217 0.80325 10.0193C2.56393 17.3974 6.40416 24.0371 11.7118 29.2882C16.9629 34.5959 23.6026 38.4361 30.9808 40.1967C33.3778 40.7688 35.7631 39.8047 37.09 37.728L39.9973 33.1776C40.7803 31.9521 40.2416 30.3355 38.8802 29.8248L30.187 26.563C29.4901 26.3015 28.7772 26.3787 28.1523 26.7833L25.2246 28.6795C24.4627 29.1729 23.5408 29.178 22.7734 28.6928C20.6722 27.364 18.7235 25.8008 16.9629 24.0371Z" fill="#AFAFAF"/>
<path fill-rule="evenodd" clip-rule="evenodd" d="M33.6562 37.5213C26.2781 35.7606 19.6385 31.9204 14.3873 26.6127C9.07961 21.3616 5.23938 14.7219 3.47878 7.34376C3.15903 6.00397 3.31919 4.66787 3.88534 3.51819L3.2721 3.91001C1.19543 5.23691 0.231294 7.62211 0.803372 10.0193C2.56405 17.3973 6.40428 24.0371 11.7119 29.2881C16.9631 34.5959 23.6027 38.4361 30.9809 40.1967C33.378 40.7688 35.7632 39.8046 37.0901 37.728L37.482 37.1147C36.3322 37.6809 34.9961 37.841 33.6562 37.5213Z" fill="#919191"/>
</g>
<defs>
<clipPath id="clip0_55_368">
<rect width="41" height="41" fill="white"/>
</clipPath>
</defs>
</svg>
