<svg width="52" height="52" viewBox="0 0 52 52" fill="none" xmlns="http://www.w3.org/2000/svg">
<path d="M28.6202 41.7674C34.644 41.7674 39.5272 36.9282 39.5272 30.9587C39.5272 24.9892 34.644 20.15 28.6202 20.15C22.5965 20.15 17.7134 24.9892 17.7134 30.9587C17.7134 36.9282 22.5965 41.7674 28.6202 41.7674Z" fill="#2983D3"/>
<path d="M12.2654 31.1103C13.6724 31.1103 14.813 29.9826 14.813 28.5916C14.813 27.2005 13.6724 26.0728 12.2654 26.0728C10.8584 26.0728 9.71777 27.2005 9.71777 28.5916C9.71777 29.9826 10.8584 31.1103 12.2654 31.1103Z" fill="#2983D3"/>
<path d="M28.1584 36.8766L42.907 35.2013C43.6869 35.1146 44.4205 35.6057 44.6229 36.3566C44.8019 37.021 44.5245 37.7258 43.9352 38.0898L32.7223 45.0627C30.7638 46.2813 28.3895 46.6626 26.1423 46.114L18.3607 44.219L14.9119 46.3567" fill="white"/>
<path d="M14.9004 46.7948C14.756 46.7948 14.6116 46.7198 14.5307 46.5929C14.4036 46.3905 14.4671 46.1249 14.6693 45.9979L18.1182 43.8603C18.2164 43.7966 18.3377 43.7792 18.4475 43.8083L26.2291 45.7032C28.3492 46.2172 30.6311 45.8532 32.4797 44.704L43.6926 37.7309C44.1203 37.4652 44.3227 36.9626 44.1953 36.4773C44.051 35.9343 43.5197 35.5704 42.9476 35.6397L28.199 37.3208C27.9564 37.3497 27.7484 37.1764 27.7195 36.9395C27.6906 36.7026 27.8639 36.4889 28.1008 36.46L42.8494 34.7789C43.8313 34.6692 44.7729 35.2988 45.0329 36.2521C45.2643 37.107 44.9116 37.9967 44.155 38.4646L32.9419 45.4376C30.8968 46.7086 28.3723 47.1129 26.0269 46.5409L18.4186 44.6923L15.1257 46.7372C15.0564 46.7835 14.9755 46.8009 14.9004 46.8009V46.7948Z" fill="#36354C"/>
<path d="M7.3667 38.9605L14.3626 35.5001C17.5746 33.9114 21.3354 33.8363 24.6109 35.2921L31.2776 38.2615C32.381 38.7525 32.329 40.3181 31.1967 40.7398C30.0182 41.1788 28.3371 41.4099 26.0436 40.838L20.7404 39.5151" fill="white"/>
<path d="M28.6318 41.6182C27.7826 41.6182 26.8814 41.4969 25.9339 41.2658L20.6307 39.9429C20.3996 39.8851 20.2552 39.6482 20.3129 39.4171C20.3707 39.1861 20.6076 39.0417 20.8387 39.0994L26.1419 40.4223C28.0079 40.8845 29.6543 40.8614 31.035 40.3415C31.4625 40.1797 31.6242 39.81 31.6358 39.5154C31.6473 39.1398 31.4451 38.8221 31.0928 38.6662L24.4261 35.6968C21.2604 34.2872 17.6555 34.3565 14.5475 35.8932L7.55742 39.3536C7.34366 39.4576 7.0837 39.3709 6.9797 39.1572C6.87575 38.9435 6.96237 38.6835 7.17613 38.5795L14.172 35.1191C17.5111 33.4669 21.3817 33.386 24.7843 34.9054L31.4509 37.8747C32.1211 38.1751 32.5254 38.8106 32.5081 39.5442C32.485 40.2779 32.0402 40.8961 31.3469 41.156C30.5208 41.468 29.6138 41.624 28.6375 41.624L28.6318 41.6182Z" fill="#36354C"/>
<path d="M43.8135 26.6851C44.4869 26.6851 45.0329 26.1445 45.0329 25.4776C45.0329 24.8106 44.4869 24.27 43.8135 24.27C43.1403 24.27 42.5945 24.8106 42.5945 25.4776C42.5945 26.1445 43.1403 26.6851 43.8135 26.6851Z" fill="#E7E7F0"/>
<path d="M29.9544 5.63336H29.6194C22.0482 5.63336 15.9106 11.771 15.9106 19.3421C15.9106 26.9132 22.0482 33.0508 29.6194 33.0508H29.9544C37.5256 33.0508 43.6631 26.9132 43.6631 19.3421C43.6631 11.771 37.5256 5.63336 29.9544 5.63336Z" fill="white"/>
<path d="M29.9545 33.484H29.6252C21.8262 33.484 15.4832 27.1409 15.4832 19.342C15.4832 11.5431 21.8205 5.20001 29.6194 5.20001H29.9486C37.7476 5.20001 44.0907 11.5431 44.0907 19.342C44.0907 27.1409 37.7476 33.484 29.9486 33.484H29.9545ZM29.6252 6.06655C22.3057 6.06655 16.3497 12.0226 16.3497 19.342C16.3497 26.6614 22.3057 32.6175 29.6252 32.6175H29.9545C37.2738 32.6175 43.2299 26.6614 43.2299 19.342C43.2299 12.0226 37.2738 6.06655 29.9545 6.06655H29.6252Z" fill="#36354C"/>
<g clip-path="url(#clip0_0_590)">
<path d="M37.9517 17.7357C37.8235 17.0023 37.4415 16.3347 36.876 15.856C36.5552 15.5844 36.3384 15.2057 36.2657 14.7897C36.1375 14.0563 35.7554 13.3887 35.1901 12.91C34.6245 12.4313 33.9066 12.1676 33.1685 12.1676C32.7497 12.1676 32.3423 12.0181 32.0215 11.7465C31.456 11.2678 30.7381 11.0041 29.9999 11.0041C29.2617 11.0041 28.5438 11.2678 27.9783 11.7465C27.6575 12.0181 27.2502 12.1676 26.8313 12.1676C26.0932 12.1676 25.3753 12.4313 24.8098 12.91C24.2442 13.3887 23.8623 14.0563 23.7341 14.7897C23.6614 15.2057 23.4447 15.5844 23.1238 15.856C22.5583 16.3347 22.1763 17.0023 22.0481 17.7357C21.9199 18.4691 22.0526 19.2282 22.4217 19.8731C22.6311 20.239 22.7064 20.6697 22.6337 21.0857C22.5055 21.8191 22.6381 22.5783 23.0073 23.2231C23.3763 23.8681 23.9617 24.3635 24.6553 24.6183C25.0488 24.7628 25.3809 25.0439 25.5903 25.4098C25.9593 26.0547 26.5447 26.5501 27.2383 26.8049C27.9319 27.0596 28.696 27.0596 29.3896 26.8049C29.7831 26.6604 30.2166 26.6604 30.6101 26.8049C30.957 26.9323 31.3213 26.9959 31.6858 26.9959C32.0502 26.9959 32.4146 26.9323 32.7614 26.8049C33.455 26.5502 34.0404 26.0547 34.4094 25.4098C34.6188 25.0439 34.9509 24.7628 35.3444 24.6183C36.038 24.3636 36.6234 23.8681 36.9924 23.2231C37.3614 22.5782 37.4941 21.8191 37.366 21.0857C37.2933 20.6697 37.3686 20.239 37.578 19.8731C37.947 19.2281 38.0797 18.4691 37.9516 17.7357H37.9517ZM33.2251 18.0062L29.8503 21.3704C29.697 21.5231 29.4891 21.6091 29.2723 21.6091C29.0555 21.6091 28.8475 21.5231 28.6942 21.3704L27.1069 19.788C26.7876 19.4698 26.7876 18.9537 27.1069 18.6354C27.4262 18.3172 27.9438 18.3172 28.2631 18.6354L29.2724 19.6415L32.0691 16.8536C32.3884 16.5353 32.9061 16.5353 33.2254 16.8536C33.5447 17.1718 33.5447 17.6879 33.2254 18.0061L33.2251 18.0062Z" fill="#13519C"/>
</g>
<defs>
<clipPath id="clip0_0_590">
<rect width="16" height="16" fill="white" transform="translate(22 11)"/>
</clipPath>
</defs>
</svg>
