<svg width="35" height="35" viewBox="0 0 35 35" fill="none" xmlns="http://www.w3.org/2000/svg">
<path d="M24.3639 30.5918C23.3918 30.9707 21.9694 30.7763 21.1567 30.7763H9.77761C8.57381 30.7763 6.70195 31.0652 5.57454 30.6493C4.84235 30.379 4.12856 29.6596 3.82838 28.9501C3.75531 28.7772 3.70141 28.5968 3.65261 28.4157C3.32943 27.2211 3.29188 25.9922 3.05301 24.7777C2.79856 23.4845 2.54385 22.1913 2.26717 20.9029C1.74881 18.4913 0.4625 15.5331 2.294 13.3343C2.97688 12.5142 4.9213 12.7952 5.9013 12.7952H23.1139C24.2416 12.7952 25.6043 12.5175 26.6816 12.9222C29.3513 13.9252 27.2896 17.7519 26.6157 19.4005C25.9056 21.141 25.4654 22.9797 25.3102 24.8531C25.2336 25.7886 25.2277 26.7286 25.2923 27.6651C25.3383 28.3449 25.5486 29.1928 25.233 29.8407C25.054 30.2086 24.7433 30.4439 24.3639 30.5918Z" fill="#13519C"/>
<path d="M25.3087 24.8539C25.2313 25.7888 25.2261 26.7283 25.2932 27.6641C25.3363 28.3444 25.5471 29.1926 25.2344 29.8415C25.0548 30.2091 24.7421 30.4436 24.363 30.5921C23.3934 30.9712 21.9705 30.776 21.1575 30.776H9.77844C8.57439 30.776 6.70202 31.065 5.57231 30.6508C4.63293 30.3042 2.86275 28.4106 3.37958 27.2883C3.57885 26.8553 4.01954 26.588 4.45589 26.3951C6.62793 25.4356 9.11549 25.7161 11.4848 25.8768C13.854 26.0375 16.4341 25.9984 18.3251 24.5619C19.7052 23.5131 20.3507 21.9578 20.4555 20.2712C20.5761 18.3288 21.0903 16.423 21.8261 14.6201C22.0175 14.151 22.3222 13.5021 22.5961 12.7947H23.1122C24.2416 12.7947 25.602 12.5173 26.6811 12.9237C29.3509 13.9244 27.2907 17.7512 26.6147 19.4008C25.9062 21.142 25.4658 22.9806 25.3087 24.8539Z" fill="#2983D3" fill-opacity="0.6"/>
<path d="M28.6759 32.2864C28.7985 32.5117 28.8775 32.7478 28.83 32.9951C28.7311 33.5086 28.0339 33.7717 27.5661 33.6498C27.0296 33.5104 26.5872 32.8604 26.3266 32.4157C25.3806 30.7993 24.8936 29.2488 24.8504 27.3675C24.8241 26.2204 24.8694 25.0595 24.6622 23.9252C24.5727 23.4357 24.4749 22.9074 24.1571 22.5163C23.875 22.1688 23.4492 22.0097 23.1326 21.7003C22.8935 21.4663 22.7397 21.1592 22.615 20.8485C22.3861 20.2796 22.2523 19.6879 22.1815 19.0799C22.1268 18.6124 21.9199 18.1262 22.0282 17.6533C22.0921 17.3736 22.2919 17.1053 22.5731 17.0491C22.9487 16.9743 23.3758 17.2578 23.5644 17.5695C23.7874 17.9379 23.8094 18.3881 23.8899 18.8111C24.0081 19.433 24.2853 20.0525 24.7894 20.4357C25.5336 21.0013 26.5726 20.9328 27.4461 21.2662C28.1749 21.5447 28.7615 22.0922 29.3994 22.5411C30.0373 22.9902 30.8127 23.3586 31.5761 23.1976C32.0607 23.0954 33.1592 22.6586 33.1881 23.5553C33.2017 23.9738 32.7942 24.1901 32.4784 24.3657C32.0712 24.592 31.6003 24.6927 31.1372 24.7011C30.3189 24.7162 29.1036 24.5871 28.5957 23.8596C29.0734 24.5442 29.0954 25.4409 29.3987 26.2186C29.7824 27.2027 30.6497 27.9844 31.668 28.2642C32.1289 28.3909 32.6227 28.4228 33.0445 28.6477C33.4661 28.8725 33.7943 29.3896 33.5969 29.8244C33.3874 30.2855 32.7656 30.3552 32.2615 30.3054C30.2458 30.1056 28.3323 29.0255 27.1203 27.4022C27.2379 28.8809 27.5189 30.5443 28.3607 31.7954C28.4667 31.953 28.5837 32.1165 28.6759 32.2864Z" fill="white"/>
<path d="M26.9213 21.2376C28.1609 21.2376 29.1657 20.2696 29.1657 19.0755C29.1657 17.8814 28.1609 16.9135 26.9213 16.9135C25.6818 16.9135 24.677 17.8814 24.677 19.0755C24.677 20.2696 25.6818 21.2376 26.9213 21.2376Z" fill="white"/>
<path d="M22.9168 15.1846C22.8926 15.1846 22.8683 15.1831 22.844 15.1805C22.4146 15.1358 22.1049 14.7071 22.1527 14.2217C22.3098 12.6248 22.0482 11.0097 21.77 9.63342C21.1032 6.33524 18.5186 2.93053 15.073 3.19444C12.8491 3.36867 10.5366 4.64374 9.18867 6.43258C7.78177 8.29933 6.88633 11.1916 6.95071 13.6211C6.96349 14.1098 6.62345 14.5097 6.19093 14.5153H6.18174C5.75331 14.5153 5.39564 14.1262 5.38133 13.641C5.29626 10.8012 6.33247 7.41411 7.97312 5.22367C9.60637 3.04371 12.2899 1.54867 14.966 1.33842C19.3021 0.996336 22.515 5.1713 23.3149 9.19911C23.6181 10.7238 23.9002 12.5239 23.7109 14.384C23.6641 14.8413 23.3164 15.1846 22.9168 15.1846Z" fill="#E3EFFF"/>
<path d="M22.1948 12.8649C22.1667 11.7076 21.9725 10.581 21.7707 9.57695C21.1039 6.27877 18.5185 2.87585 15.0721 3.13899C12.8495 3.31272 10.5375 4.58753 9.18856 6.37585C7.7809 8.24337 7.7809 7.60469 9.18856 5.73717C10.5375 3.94885 12.8495 2.67403 15.0721 2.50031C18.5185 2.23717 21.1039 5.64009 21.7707 8.93826C22.0108 10.1262 22.2382 11.4879 22.1948 12.8649Z" fill="#3086EE" fill-opacity="0.4"/>
<path d="M6.36504 16.3215H5.73862C5.66103 16.3215 5.5842 16.3063 5.5125 16.2766C5.44081 16.2469 5.37567 16.2034 5.32079 16.1486C5.26592 16.0937 5.22239 16.0286 5.19269 15.9569C5.16299 15.8852 5.14771 15.8084 5.14771 15.7308V14.2248C5.14771 14.1472 5.16299 14.0704 5.19269 13.9987C5.22239 13.927 5.26592 13.8619 5.32079 13.8071C5.37567 13.7522 5.44081 13.7087 5.5125 13.679C5.5842 13.6494 5.66103 13.6341 5.73862 13.6342H6.36504C6.52169 13.6342 6.67193 13.6964 6.7827 13.8072C6.89347 13.9179 6.9557 14.0682 6.9557 14.2248V15.7308C6.9557 15.8875 6.89347 16.0377 6.7827 16.1485C6.67193 16.2593 6.52169 16.3215 6.36504 16.3215ZM23.1372 16.5195H22.511C22.4334 16.5195 22.3566 16.5043 22.2849 16.4746C22.2131 16.4449 22.148 16.4014 22.0931 16.3465C22.0382 16.2916 21.9947 16.2265 21.965 16.1547C21.9353 16.083 21.9201 16.0062 21.9201 15.9286V14.4228C21.9201 14.3452 21.9353 14.2683 21.965 14.1966C21.9947 14.1249 22.0382 14.0598 22.0931 14.0049C22.148 13.95 22.2131 13.9065 22.2849 13.8768C22.3566 13.8471 22.4334 13.8319 22.511 13.8319H23.1372C23.2148 13.8319 23.2917 13.8471 23.3634 13.8768C23.4351 13.9065 23.5002 13.95 23.5551 14.0049C23.61 14.0598 23.6535 14.1249 23.6832 14.1966C23.7129 14.2683 23.7281 14.3452 23.7281 14.4228V15.9286C23.7281 16.0062 23.7129 16.083 23.6832 16.1547C23.6535 16.2265 23.61 16.2916 23.5551 16.3465C23.5002 16.4014 23.4351 16.4449 23.3634 16.4746C23.2917 16.5043 23.2148 16.5195 23.1372 16.5195Z" fill="#2983D3" fill-opacity="0.55"/>
<path d="M33.1354 28.4785C32.6684 28.2314 32.1388 28.1975 31.7201 28.0799C29.5197 27.477 29.4214 25.4409 29.1296 24.5365C30.7646 25.3413 33.4144 24.7 33.3807 23.5478C33.3475 22.679 32.5558 22.7456 31.7661 22.9526C30.1254 23.3869 29.2448 21.9529 27.865 21.246C28.7387 20.8883 29.357 20.0504 29.357 19.0745C29.357 18.0886 28.7262 17.2432 27.8351 16.893C28.1769 15.8425 28.3678 14.7419 28.0104 13.895C27.7848 13.3603 27.3602 12.9727 26.7486 12.7428C25.8761 12.415 24.8703 12.5129 23.9483 12.5683C23.6287 4.6141 19.0488 0.82439 14.951 1.14731C9.1349 1.60435 5.55621 6.82727 5.208 12.5806C4.1534 12.5333 2.75008 12.4865 2.14639 13.2116C0.575227 15.0985 1.20318 17.5064 1.7568 19.6306C2.98052 24.3237 3.17059 27.8881 3.65165 29.0247C3.98198 29.8057 4.74508 30.5476 5.50793 30.8291C6.68311 31.2634 8.57132 30.9681 9.77742 30.9681H21.1568C21.3417 30.9681 21.5589 30.9783 21.7952 30.9895C22.6204 31.0279 23.6479 31.0764 24.4335 30.7706C24.7273 30.6559 24.9623 30.4947 25.1442 30.2946C25.626 31.5189 26.5169 33.8718 27.8088 33.8718C28.7053 33.8718 29.3708 33.1572 28.8435 32.1959C28.5382 31.6346 27.6818 30.8271 27.3694 28.0087C29.2305 30.0882 33.1206 31.3265 33.7716 29.9043C34.0168 29.3652 33.6311 28.7442 33.1354 28.4785ZM28.9738 19.0745C28.9738 20.7103 27.0245 21.6215 25.6833 20.6482C24.1157 19.5088 24.9621 17.1048 26.9223 17.1048C28.0541 17.1048 28.9738 17.9887 28.9738 19.0745ZM8.12654 5.33862C9.73245 3.19494 12.359 1.73541 14.9814 1.5295C19.2116 1.19457 22.3353 5.25125 23.127 9.2364C23.3934 10.5774 23.6384 12.1427 23.558 13.766C23.4573 13.7184 23.3694 13.6408 23.1364 13.6408C22.4732 13.6454 22.7233 13.6306 22.3751 13.6538C22.4313 12.227 22.2042 10.8147 21.9577 9.59559C21.296 6.32246 18.8135 2.98826 15.4515 2.98826C15.3217 2.98826 15.1904 2.99337 15.0581 3.00333C12.7823 3.18165 10.4184 4.48227 9.03552 6.31735C7.62249 8.19253 6.71326 11.0896 6.75899 13.5519C6.70329 13.5281 6.59037 13.4438 6.36428 13.4438C5.75421 13.4481 5.69442 13.4328 5.57154 13.4617C5.53348 10.6872 6.54796 7.44603 8.12654 5.33862ZM5.33983 14.2256C5.33983 14.0058 5.51866 13.827 5.73837 13.827C5.97826 13.8689 6.76282 13.6533 6.76282 14.2256V15.7303C6.76282 15.95 6.58399 16.1288 6.36428 16.1288C6.12464 16.0869 5.33983 16.3028 5.33983 15.7303V14.2256ZM22.1117 14.4223C22.1117 13.85 22.8981 14.0654 23.1362 14.0237C23.3584 14.0237 23.5373 14.2026 23.5373 14.4223V15.9296C23.5373 16.1493 23.3584 16.3281 23.1362 16.3281H22.5103C22.2906 16.3281 22.1117 16.1493 22.1117 15.9296V14.4223ZM21.9891 12.6035H7.1703C7.52694 7.89771 10.4199 3.75085 15.0875 3.38552C18.4301 3.12494 20.9276 6.43282 21.5821 9.67121C21.7635 10.5687 21.936 11.5725 21.9891 12.6035ZM21.8131 30.6066C21.5944 30.5944 21.3755 30.5871 21.1565 30.5846H9.77767C7.68304 30.5846 5.03581 31.3127 4.00497 28.8755C3.56249 27.8286 3.3599 24.2611 2.12775 19.5338C1.57132 17.3993 0.995993 15.1923 2.44121 13.4568C2.94501 12.8519 4.35472 12.9265 5.19267 12.9635C5.18807 13.1122 5.1799 13.5197 5.19267 13.6684C5.17428 13.6947 4.95687 13.8784 4.95687 14.2256V15.7303C4.95687 15.9376 5.03923 16.1365 5.18584 16.2831C5.33245 16.4297 5.53129 16.5121 5.73862 16.5121H6.36453C6.46719 16.5121 6.56885 16.4918 6.6637 16.4525C6.75854 16.4133 6.84472 16.3557 6.91732 16.2831C6.98991 16.2105 7.04749 16.1243 7.08678 16.0295C7.12607 15.9346 7.14629 15.833 7.14629 15.7303C7.13045 14.2273 7.18256 14.1923 7.09826 13.9594C7.17234 13.6995 7.12253 13.6645 7.14935 12.9868H22.0052C22.0103 13.2734 22.0039 13.5601 21.986 13.8462C21.5658 14.2243 21.7931 14.6599 21.7288 15.9296C21.7288 16.3588 22.0788 16.7113 22.5105 16.7113H23.1364C23.5682 16.7113 23.9207 16.3588 23.9207 15.9296V14.4223C23.9207 14.3788 23.9182 14.338 23.9105 14.2971C23.9105 14.2956 23.9098 14.2945 23.9095 14.293C23.9504 13.8471 23.9677 13.3994 23.9614 12.9518C24.818 12.9007 25.8123 12.8008 26.6142 13.1015C27.1303 13.2954 27.4718 13.6037 27.6576 14.0439C27.9718 14.7884 27.7904 15.8 27.4693 16.7826C27.2899 16.7416 27.1065 16.7211 26.9226 16.7215C25.0921 16.7215 23.9238 18.6008 24.7587 20.1602C23.8799 19.319 24.1852 18.224 23.7291 17.4701C23.2292 16.6464 22.0754 16.593 21.8412 17.6106C21.7594 17.9734 21.8361 18.3259 21.9102 18.6657C22.0366 19.2392 22.2011 21.0605 22.9985 21.8361C24.0117 22.8325 24.5472 21.7822 24.6591 27.3723C24.6795 28.2386 24.7917 29.049 25.0101 29.8389C24.4726 30.7496 22.881 30.6564 21.8131 30.6066ZM33.4218 29.7456C32.9814 30.7157 29.1674 29.8264 27.2751 27.288C27.2498 27.2549 27.2147 27.2306 27.1748 27.2187C27.1348 27.2067 27.0922 27.2078 27.0529 27.2215C26.9737 27.2522 26.9226 27.3314 26.9302 27.4183C27.2761 31.803 28.8069 32.1203 28.6419 32.9595C28.6061 33.1409 28.4682 33.261 28.3583 33.3299C27.5743 33.8312 26.9647 33.1258 26.4934 32.3183C25.2467 30.1919 25.053 28.6913 25.0321 26.6033C24.982 20.8168 23.5912 22.8108 22.7941 20.7759C22.5846 20.2573 22.4467 19.6953 22.3726 19.0566C22.3087 18.562 22.1196 18.1103 22.2142 17.6949C22.2699 17.4563 22.4438 17.2274 22.6996 17.2274C24.2283 17.2274 22.9147 20.2394 25.5175 20.9956C26.0268 21.3448 26.6481 21.4915 27.2598 21.4069C28.6726 21.7605 29.7716 23.904 31.8634 23.323C32.471 23.1651 32.9794 23.0445 32.9977 23.5606C33.0054 23.8314 32.7474 23.9975 32.3846 24.1993C32.0346 24.3934 31.6003 24.5007 31.1328 24.5084C28.7257 24.5646 28.858 23.441 28.4861 23.7037C28.3982 23.7622 28.3795 23.8858 28.4375 23.9694C28.8864 24.6137 28.9081 25.471 29.2193 26.2891C30.115 28.5768 32.2362 28.432 32.9543 28.8157C33.2992 29.0022 33.57 29.4186 33.4218 29.7456Z" fill="#13519C"/>
</svg>
