<svg width="43" height="31" viewBox="0 0 43 31" fill="none" xmlns="http://www.w3.org/2000/svg">
<path d="M23.6398 15.2484C21.6266 13.3609 18.3609 13.3609 16.3476 15.2484C14.3343 13.3609 11.0686 13.3609 9.05535 15.2484C7.0421 17.1359 7.0421 20.1979 9.05535 22.0854L16.3476 28.9224L23.6398 22.0854C25.6531 20.1979 25.6531 17.1359 23.6398 15.2484Z" fill="#13519C"/>
<path fill-rule="evenodd" clip-rule="evenodd" d="M15.0899 13.166C17.3572 11.4256 20.6946 11.5476 22.8122 13.5319C25.0908 15.6697 25.0908 19.1504 22.8122 21.2869L15.52 28.124C15.4035 28.2332 15.2497 28.2941 15.0899 28.2941C14.9302 28.2941 14.7764 28.2332 14.6599 28.124L7.36763 21.2869C5.08904 19.1492 5.08904 15.6684 7.36763 13.5319C9.48526 11.5476 12.8227 11.4244 15.0899 13.166ZM21.9521 14.4487C20.1803 12.7888 17.2918 12.7888 15.52 14.4487C15.4035 14.5579 15.2497 14.6187 15.0899 14.6187C14.9302 14.6187 14.7764 14.5579 14.6599 14.4487C12.8881 12.7888 9.99958 12.7888 8.22776 14.4487C6.47984 16.0897 6.47984 18.7292 8.22776 20.369L15.0899 26.8036L21.9521 20.369C23.7 18.7292 23.7 16.0897 21.9521 14.4499V14.4487ZM15.0899 3.14373C14.2562 3.14373 13.4565 3.47495 12.867 4.06451C12.2774 4.65408 11.9462 5.45371 11.9462 6.28748C11.9462 7.12125 12.2774 7.92088 12.867 8.51045C13.4565 9.10001 14.2562 9.43123 15.0899 9.43123C15.9237 9.43123 16.7233 9.10001 17.3129 8.51045C17.9025 7.92088 18.2337 7.12125 18.2337 6.28748C18.2337 5.45371 17.9025 4.65408 17.3129 4.06451C16.7233 3.47495 15.9237 3.14373 15.0899 3.14373ZM10.6887 6.28748C10.6887 5.7095 10.8025 5.13718 11.0237 4.6032C11.2449 4.06921 11.5691 3.58402 11.9778 3.17533C12.3865 2.76663 12.8717 2.44244 13.4057 2.22126C13.9396 2.00007 14.512 1.88623 15.0899 1.88623C15.6679 1.88623 16.2402 2.00007 16.7742 2.22126C17.3082 2.44244 17.7934 2.76663 18.2021 3.17533C18.6108 3.58402 18.935 4.06921 19.1562 4.6032C19.3773 5.13718 19.4912 5.7095 19.4912 6.28748C19.4912 7.45476 19.0275 8.57424 18.2021 9.39963C17.3767 10.225 16.2572 10.6887 15.0899 10.6887C13.9227 10.6887 12.8032 10.225 11.9778 9.39963C11.1524 8.57424 10.6887 7.45476 10.6887 6.28748Z" fill="#2983D3" fill-opacity="0.6"/>
<path d="M37.6009 19.5618C36.1693 18.2196 33.847 18.2196 32.4153 19.5618C30.9837 18.2196 28.6614 18.2196 27.2297 19.5618C25.7981 20.9041 25.7981 23.0815 27.2297 24.4237L32.4153 29.2856L37.6009 24.4237C39.0326 23.0815 39.0326 20.9041 37.6009 19.5618Z" fill="#13519C"/>
<path fill-rule="evenodd" clip-rule="evenodd" d="M31.5211 18.081C33.1334 16.8434 35.5067 16.9301 37.0125 18.3412C38.6329 19.8614 38.6329 22.3366 37.0125 23.8559L31.8269 28.7178C31.7441 28.7955 31.6347 28.8387 31.5211 28.8387C31.4075 28.8387 31.2982 28.7955 31.2153 28.7178L26.0297 23.8559C24.4094 22.3357 24.4094 19.8605 26.0297 18.3412C27.5356 16.9301 29.9088 16.8425 31.5211 18.081ZM36.4009 18.9931C35.1409 17.8127 33.0869 17.8127 31.8269 18.9931C31.7441 19.0708 31.6347 19.114 31.5211 19.114C31.4075 19.114 31.2982 19.0708 31.2153 18.9931C29.9553 17.8127 27.9013 17.8127 26.6413 18.9931C25.3984 20.1601 25.3984 22.037 26.6413 23.2031L31.5211 27.7788L36.4009 23.2031C37.6439 22.037 37.6439 20.1601 36.4009 18.994V18.9931ZM31.5211 10.954C30.9282 10.954 30.3596 11.1896 29.9403 11.6088C29.5211 12.0281 29.2856 12.5967 29.2856 13.1896C29.2856 13.7825 29.5211 14.3511 29.9403 14.7704C30.3596 15.1896 30.9282 15.4251 31.5211 15.4251C32.114 15.4251 32.6826 15.1896 33.1019 14.7704C33.5211 14.3511 33.7567 13.7825 33.7567 13.1896C33.7567 12.5967 33.5211 12.0281 33.1019 11.6088C32.6826 11.1896 32.114 10.954 31.5211 10.954ZM28.3913 13.1896C28.3913 12.7786 28.4723 12.3716 28.6296 11.9919C28.7869 11.6122 29.0174 11.2671 29.308 10.9765C29.5987 10.6859 29.9437 10.4553 30.3234 10.2981C30.7031 10.1408 31.1101 10.0598 31.5211 10.0598C31.9321 10.0598 32.3391 10.1408 32.7188 10.2981C33.0986 10.4553 33.4436 10.6859 33.7342 10.9765C34.0248 11.2671 34.2554 11.6122 34.4127 11.9919C34.5699 12.3716 34.6509 12.7786 34.6509 13.1896C34.6509 14.0197 34.3212 14.8157 33.7342 15.4027C33.1473 15.9896 32.3512 16.3194 31.5211 16.3194C30.6911 16.3194 29.895 15.9896 29.308 15.4027C28.7211 14.8157 28.3913 14.0197 28.3913 13.1896Z" fill="#2983D3" fill-opacity="0.6"/>
</svg>
