<svg width="34" height="34" viewBox="0 0 34 34" fill="none" xmlns="http://www.w3.org/2000/svg">
<path d="M30.8125 6.94875C30.8125 8.91437 30.8125 10.7312 30.8125 10.625C30.1262 15.081 28.5495 19.3531 26.1764 23.1866C23.8033 27.02 20.6825 30.3363 17 32.9375C13.3163 30.3376 10.1945 27.0217 7.82126 23.188C5.44802 19.3544 3.87204 15.0815 3.18751 10.625C3.18751 10.5188 3.18751 6.83187 3.18751 6.94875C3.18666 6.77195 3.22994 6.59773 3.31343 6.44189C3.39692 6.28604 3.51798 6.15349 3.66564 6.05625C7.67038 3.39449 12.232 1.68616 17 1.0625C21.7685 1.68431 26.3305 3.39279 30.3344 6.05625C30.482 6.15349 30.6031 6.28604 30.6866 6.44189C30.7701 6.59773 30.8134 6.77195 30.8125 6.94875Z" fill="#13519C"/>
<path d="M17 30.2812C10.7512 25.376 6.57853 18.2976 5.3125 10.455V7.5225C8.85085 5.25301 12.8375 3.77431 17 3.1875C21.1614 3.77853 25.1472 5.2569 28.6875 7.5225V10.455C27.4215 18.2976 23.2488 25.376 17 30.2812Z" fill="#F7FAF4" fill-opacity="0.91"/>
<path d="M17 20.1875C19.934 20.1875 22.3125 17.809 22.3125 14.875C22.3125 11.941 19.934 9.5625 17 9.5625C14.066 9.5625 11.6875 11.941 11.6875 14.875C11.6875 17.809 14.066 20.1875 17 20.1875Z" fill="#13519C"/>
<path d="M18.0625 11.6875H15.9375V18.0625H18.0625V11.6875Z" fill="#F7FAF4" fill-opacity="0.91"/>
<path d="M20.1875 15.9375V13.8125H13.8125V15.9375H20.1875Z" fill="#F7FAF4" fill-opacity="0.91"/>
</svg>
