<svg width="500" height="368" viewBox="0 0 500 368" fill="none" xmlns="http://www.w3.org/2000/svg">
<path fill-rule="evenodd" clip-rule="evenodd" d="M271.424 16.7274L474.392 139.79L435.117 334.541L260.818 351.273L44.1668 334.541L37.4946 98.346L271.424 16.7274Z" fill="#1A438D" fill-opacity="0.2"/>
<path fill-rule="evenodd" clip-rule="evenodd" d="M449.239 199.286C449.239 190.817 442.367 183.951 433.889 183.951H69.0421C60.5649 183.951 53.6929 190.817 53.6929 199.286V272.639C53.6929 281.105 60.5649 287.971 69.0421 287.971H433.889C442.367 287.971 449.239 281.105 449.239 272.639V199.286Z" fill="white"/>
<path fill-rule="evenodd" clip-rule="evenodd" d="M450.003 199.286C450.003 190.393 442.787 183.188 433.889 183.188H69.042C60.1428 183.188 52.9287 190.393 52.9287 199.286V272.639C52.9287 281.528 60.1428 288.733 69.042 288.733H433.889C442.787 288.733 450.003 281.528 450.003 272.639V199.286ZM448.476 199.286V272.639C448.476 280.684 441.942 287.208 433.889 287.208H69.042C60.9865 287.208 54.4564 280.684 54.4564 272.639V199.286C54.4564 191.237 60.9865 184.714 69.042 184.714H433.889C441.942 184.714 448.476 191.237 448.476 199.286Z" fill="black"/>
<path fill-rule="evenodd" clip-rule="evenodd" d="M404.214 176.878C404.406 176.466 404.712 176.118 405.095 175.874C405.479 175.629 405.924 175.5 406.379 175.5C407.309 175.5 408.154 176.038 408.549 176.878C410.275 180.564 412.57 185.458 413.614 187.688C413.785 188.055 414.047 188.372 414.375 188.609C414.703 188.847 415.086 188.998 415.488 189.048C417.93 189.35 423.301 190.017 427.341 190.518C428.263 190.633 429.038 191.27 429.322 192.151C429.61 193.036 429.359 194.005 428.68 194.639C425.707 197.418 421.756 201.111 419.955 202.791C419.659 203.067 419.438 203.414 419.313 203.799C419.188 204.184 419.163 204.594 419.24 204.991C419.708 207.405 420.734 212.716 421.505 216.708C421.682 217.618 421.313 218.55 420.56 219.096C420.193 219.364 419.756 219.521 419.301 219.55C418.847 219.578 418.394 219.475 417.996 219.254C414.429 217.286 409.696 214.673 407.538 213.487C407.184 213.291 406.786 213.188 406.381 213.188C405.977 213.188 405.579 213.291 405.225 213.487C403.066 214.673 398.33 217.286 394.766 219.254C394.368 219.475 393.915 219.578 393.461 219.55C393.007 219.521 392.57 219.364 392.202 219.096C391.833 218.829 391.549 218.462 391.382 218.039C391.214 217.616 391.171 217.154 391.258 216.708C392.029 212.716 393.054 207.405 393.523 204.991C393.678 204.181 393.408 203.351 392.807 202.791C391.007 201.111 387.056 197.418 384.079 194.639C383.747 194.328 383.51 193.928 383.396 193.488C383.283 193.048 383.297 192.584 383.437 192.151C383.578 191.719 383.84 191.336 384.192 191.047C384.543 190.758 384.97 190.574 385.422 190.518C389.461 190.017 394.829 189.35 397.275 189.048C397.676 188.998 398.059 188.847 398.387 188.609C398.714 188.371 398.977 188.054 399.149 187.688C400.193 185.458 402.487 180.564 404.214 176.878Z" fill="#163F89"/>
<path fill-rule="evenodd" clip-rule="evenodd" d="M386.753 215.425C386.947 215.014 387.254 214.666 387.638 214.422C388.022 214.179 388.468 214.05 388.923 214.05C389.852 214.05 390.697 214.585 391.092 215.425C392.815 219.111 395.109 224.005 396.153 226.235C396.325 226.602 396.586 226.919 396.914 227.157C397.242 227.395 397.625 227.545 398.027 227.595C400.473 227.901 405.841 228.564 409.88 229.065C410.803 229.183 411.577 229.817 411.865 230.702C412.153 231.582 411.902 232.552 411.223 233.186C408.25 235.968 404.295 239.657 402.498 241.338C402.202 241.614 401.981 241.961 401.856 242.346C401.73 242.73 401.705 243.141 401.783 243.538C402.248 245.956 403.273 251.263 404.044 255.258C404.221 256.168 403.852 257.101 403.1 257.646C402.732 257.914 402.295 258.071 401.841 258.099C401.387 258.127 400.934 258.025 400.536 257.805C396.972 255.837 392.235 253.224 390.081 252.033C389.726 251.837 389.328 251.735 388.923 251.735C388.517 251.735 388.119 251.837 387.764 252.033C385.606 253.224 380.873 255.837 377.309 257.805C376.91 258.025 376.457 258.127 376.002 258.099C375.548 258.071 375.11 257.914 374.742 257.646C374.374 257.379 374.089 257.012 373.922 256.589C373.755 256.166 373.712 255.705 373.797 255.258C374.568 251.263 375.594 245.956 376.062 243.538C376.217 242.731 375.948 241.898 375.347 241.338C373.546 239.657 369.595 235.968 366.622 233.186C366.289 232.875 366.052 232.477 365.939 232.037C365.825 231.597 365.839 231.134 365.98 230.702C366.268 229.817 367.039 229.183 367.961 229.065C372.001 228.564 377.372 227.901 379.814 227.595C380.217 227.546 380.6 227.396 380.928 227.158C381.256 226.92 381.518 226.602 381.688 226.235C382.732 224.005 385.027 219.111 386.753 215.425Z" fill="white"/>
<path fill-rule="evenodd" clip-rule="evenodd" d="M386.06 215.104L380.998 225.914C380.88 226.163 380.702 226.378 380.479 226.54C380.255 226.702 379.995 226.804 379.722 226.839C377.276 227.141 371.908 227.808 367.865 228.31C367.269 228.384 366.707 228.626 366.245 229.008C365.782 229.39 365.438 229.895 365.253 230.466C365.068 231.036 365.049 231.647 365.198 232.228C365.348 232.809 365.66 233.336 366.098 233.746C369.071 236.525 373.026 240.214 374.823 241.894C375.024 242.083 375.174 242.32 375.26 242.582C375.346 242.844 375.364 243.123 375.313 243.394C374.845 245.812 373.819 251.119 373.048 255.111C372.816 256.316 373.303 257.543 374.291 258.262C374.777 258.615 375.354 258.823 375.954 258.86C376.554 258.897 377.152 258.763 377.678 258.472C381.242 256.504 385.975 253.891 388.133 252.7C388.624 252.431 389.217 252.431 389.708 252.7C391.866 253.891 396.603 256.504 400.167 258.472C400.692 258.763 401.29 258.897 401.889 258.86C402.488 258.823 403.064 258.615 403.55 258.262C404.036 257.909 404.411 257.425 404.631 256.867C404.851 256.309 404.907 255.7 404.793 255.111C404.022 251.119 402.996 245.812 402.531 243.394C402.424 242.845 402.609 242.278 403.018 241.894C404.819 240.214 408.77 236.525 411.743 233.746C412.182 233.336 412.494 232.81 412.645 232.229C412.795 231.648 412.777 231.036 412.592 230.466C412.406 229.895 412.061 229.389 411.598 229.007C411.135 228.626 410.572 228.384 409.976 228.31C405.936 227.808 400.565 227.141 398.123 226.839C397.849 226.805 397.589 226.702 397.366 226.541C397.143 226.379 396.964 226.163 396.847 225.914C395.803 223.684 393.508 218.786 391.781 215.104C391.527 214.561 391.123 214.101 390.617 213.779C390.111 213.456 389.523 213.285 388.922 213.284C388.321 213.284 387.733 213.455 387.226 213.778C386.719 214.1 386.314 214.56 386.06 215.104ZM387.443 215.749C387.575 215.47 387.784 215.233 388.046 215.068C388.308 214.902 388.611 214.814 388.921 214.814C389.23 214.814 389.534 214.902 389.795 215.068C390.057 215.233 390.266 215.47 390.398 215.749L395.463 226.559C395.689 227.042 396.034 227.461 396.465 227.775C396.897 228.089 397.401 228.288 397.931 228.354L409.788 229.824C410.415 229.902 410.943 230.337 411.138 230.937C411.334 231.538 411.164 232.198 410.699 232.629C407.726 235.408 403.775 239.101 401.974 240.781C401.585 241.147 401.294 241.604 401.129 242.112C400.963 242.62 400.93 243.161 401.03 243.686L403.295 255.402C403.413 256.025 403.162 256.658 402.653 257.027C402.402 257.21 402.104 257.317 401.795 257.336C401.485 257.355 401.176 257.285 400.905 257.134L390.45 251.366C389.982 251.107 389.457 250.971 388.922 250.971C388.388 250.971 387.862 251.107 387.395 251.366L376.936 257.134C376.383 257.444 375.704 257.399 375.191 257.027C374.94 256.846 374.746 256.597 374.632 256.308C374.518 256.02 374.49 255.706 374.55 255.402L376.811 243.686C377.018 242.62 376.66 241.522 375.867 240.781C374.066 239.101 370.115 235.408 367.142 232.629C366.916 232.417 366.755 232.146 366.678 231.846C366.601 231.547 366.611 231.232 366.707 230.937C366.802 230.643 366.98 230.381 367.219 230.184C367.458 229.987 367.749 229.862 368.057 229.824L379.91 228.354C380.987 228.217 381.92 227.543 382.382 226.559L387.443 215.749Z" fill="black"/>
<path fill-rule="evenodd" clip-rule="evenodd" d="M111.841 215.425C112.034 215.014 112.341 214.666 112.725 214.422C113.109 214.179 113.555 214.05 114.01 214.05C114.465 214.05 114.91 214.179 115.294 214.422C115.678 214.666 115.985 215.014 116.178 215.425L121.242 226.235C121.413 226.602 121.675 226.919 122.002 227.157C122.33 227.395 122.713 227.546 123.116 227.595C125.56 227.901 130.929 228.564 134.97 229.065C135.893 229.183 136.665 229.817 136.952 230.702C137.24 231.582 136.989 232.552 136.31 233.186C133.336 235.968 129.385 239.657 127.585 241.338C127.289 241.614 127.069 241.961 126.943 242.346C126.818 242.731 126.793 243.141 126.87 243.538L129.133 255.258C129.219 255.705 129.176 256.166 129.009 256.589C128.841 257.012 128.557 257.379 128.189 257.646C127.82 257.913 127.383 258.07 126.929 258.098C126.475 258.126 126.022 258.025 125.624 257.805C122.059 255.837 117.324 253.224 115.168 252.033C114.813 251.837 114.415 251.735 114.01 251.735C113.605 251.735 113.206 251.837 112.852 252.033C110.696 253.224 105.96 255.837 102.396 257.805C101.997 258.025 101.544 258.126 101.09 258.098C100.636 258.07 100.199 257.913 99.8306 257.646C99.4624 257.379 99.178 257.012 99.0108 256.589C98.8436 256.166 98.8006 255.705 98.8867 255.258L101.15 243.538C101.227 243.141 101.201 242.731 101.076 242.346C100.951 241.961 100.73 241.614 100.434 241.338C98.6347 239.657 94.6833 235.968 91.7091 233.186C91.3767 232.875 91.1398 232.477 91.0261 232.037C90.9124 231.597 90.9267 231.134 91.0672 230.702C91.2081 230.269 91.4693 229.885 91.8203 229.596C92.1713 229.306 92.5976 229.122 93.0494 229.065C97.0904 228.564 102.459 227.901 104.904 227.595C105.306 227.546 105.689 227.395 106.017 227.157C106.345 226.919 106.607 226.602 106.778 226.235L111.841 215.425ZM180.569 215.425C180.762 215.014 181.069 214.666 181.453 214.422C181.837 214.179 182.283 214.05 182.738 214.05C183.667 214.05 184.512 214.585 184.906 215.425L189.97 226.235C190.141 226.602 190.402 226.919 190.73 227.157C191.058 227.395 191.441 227.546 191.844 227.595C194.288 227.901 199.657 228.564 203.698 229.065C204.62 229.183 205.393 229.817 205.68 230.702C205.967 231.582 205.717 232.552 205.039 233.186C202.064 235.968 198.113 239.657 196.313 241.338C196.017 241.614 195.796 241.961 195.671 242.346C195.546 242.731 195.521 243.141 195.597 243.538L197.861 255.258C197.947 255.705 197.903 256.166 197.736 256.589C197.569 257.012 197.285 257.379 196.916 257.646C196.548 257.913 196.111 258.07 195.657 258.098C195.203 258.126 194.75 258.024 194.352 257.805C190.788 255.837 186.052 253.224 183.896 252.033C183.541 251.837 183.143 251.735 182.738 251.735C182.332 251.735 181.934 251.837 181.58 252.033C179.423 253.224 174.688 255.837 171.124 257.805C170.725 258.025 170.272 258.127 169.818 258.099C169.364 258.071 168.927 257.914 168.558 257.647C168.19 257.38 167.905 257.013 167.738 256.59C167.571 256.167 167.528 255.705 167.615 255.258L169.878 243.538C169.954 243.141 169.929 242.731 169.804 242.346C169.679 241.961 169.458 241.614 169.162 241.338C167.363 239.657 163.411 235.968 160.437 233.186C160.105 232.875 159.868 232.477 159.754 232.037C159.64 231.597 159.655 231.134 159.795 230.702C159.936 230.269 160.197 229.885 160.548 229.596C160.899 229.306 161.325 229.122 161.777 229.065C165.818 228.564 171.187 227.901 173.632 227.595C174.034 227.546 174.417 227.395 174.745 227.157C175.073 226.919 175.335 226.602 175.505 226.235L180.569 215.425ZM249.297 215.425C249.491 215.014 249.797 214.666 250.182 214.422C250.566 214.179 251.011 214.05 251.466 214.05C252.396 214.05 253.241 214.585 253.636 215.425C255.358 219.111 257.653 224.005 258.697 226.235C258.868 226.602 259.13 226.919 259.458 227.157C259.786 227.395 260.169 227.545 260.571 227.595C263.017 227.901 268.385 228.564 272.424 229.065C273.346 229.183 274.121 229.817 274.409 230.702C274.697 231.582 274.446 232.552 273.767 233.186C270.794 235.968 266.839 239.657 265.042 241.338C264.746 241.614 264.525 241.961 264.399 242.346C264.274 242.73 264.249 243.141 264.327 243.538C264.791 245.956 265.817 251.263 266.588 255.258C266.765 256.168 266.396 257.101 265.644 257.646C265.276 257.914 264.839 258.071 264.385 258.099C263.931 258.127 263.478 258.025 263.08 257.805C259.516 255.837 254.779 253.224 252.625 252.033C252.27 251.837 251.872 251.735 251.466 251.735C251.061 251.735 250.663 251.837 250.308 252.033C248.15 253.224 243.417 255.837 239.853 257.805C239.455 258.025 239.002 258.127 238.547 258.099C238.093 258.071 237.655 257.914 237.287 257.647C236.919 257.38 236.634 257.013 236.467 256.59C236.299 256.167 236.256 255.705 236.342 255.258L238.606 243.538C238.761 242.731 238.492 241.898 237.89 241.338C236.091 239.657 232.139 235.968 229.165 233.186C228.832 232.875 228.595 232.477 228.482 232.037C228.368 231.597 228.382 231.134 228.523 230.702C228.664 230.269 228.925 229.885 229.276 229.596C229.627 229.306 230.053 229.122 230.505 229.065C234.546 228.564 239.916 227.901 242.358 227.595C242.76 227.546 243.144 227.396 243.472 227.158C243.8 226.92 244.062 226.602 244.232 226.235C245.276 224.005 247.571 219.111 249.297 215.425ZM318.025 215.425C318.218 215.013 318.525 214.665 318.909 214.422C319.294 214.178 319.739 214.049 320.194 214.05C321.12 214.05 321.969 214.585 322.36 215.425C324.086 219.111 326.381 224.005 327.425 226.235C327.596 226.602 327.858 226.919 328.186 227.157C328.514 227.395 328.897 227.546 329.299 227.595C331.745 227.901 337.113 228.564 341.152 229.065C342.075 229.183 342.849 229.817 343.137 230.702C343.277 231.134 343.291 231.597 343.177 232.037C343.063 232.476 342.827 232.875 342.495 233.186C339.518 235.968 335.567 239.657 333.767 241.338C333.471 241.614 333.25 241.961 333.125 242.346C333 242.731 332.974 243.141 333.051 243.538C333.52 245.956 334.545 251.263 335.316 255.258C335.493 256.168 335.124 257.101 334.372 257.646C334.004 257.914 333.567 258.071 333.113 258.099C332.659 258.127 332.206 258.025 331.808 257.805C328.244 255.837 323.507 253.224 321.349 252.033C320.995 251.837 320.597 251.735 320.193 251.735C319.788 251.735 319.39 251.837 319.036 252.033C316.878 253.224 312.141 255.837 308.577 257.805C308.179 258.025 307.727 258.127 307.272 258.099C306.818 258.071 306.382 257.914 306.014 257.646C305.645 257.379 305.36 257.013 305.193 256.59C305.026 256.167 304.983 255.705 305.069 255.258C305.84 251.263 306.866 245.956 307.334 243.538C307.489 242.731 307.22 241.898 306.619 241.338C304.818 239.657 300.867 235.968 297.89 233.186C297.558 232.875 297.322 232.476 297.209 232.036C297.096 231.596 297.111 231.133 297.252 230.702C297.392 230.269 297.653 229.885 298.004 229.595C298.355 229.305 298.781 229.121 299.233 229.065C303.273 228.564 308.64 227.901 311.086 227.595C311.488 227.546 311.872 227.395 312.2 227.157C312.527 226.919 312.789 226.602 312.96 226.235C314.004 224.005 316.299 219.111 318.025 215.425Z" fill="#163F89"/>
<path fill-rule="evenodd" clip-rule="evenodd" d="M369.355 199.92C369.355 199.92 378.538 204.66 383.784 204.221C389.026 203.783 393.681 202.843 397.658 203.027C401.657 203.211 399.676 198.722 394.397 197.698C389.1 196.677 386.421 195.7 383.784 193.098C383.784 193.098 382.81 190.577 386.55 190.312L397.658 189.225C397.658 189.225 396.817 185.993 389.262 182.771C381.729 179.55 375.24 178.058 375.24 178.058L371.189 181.669L367.725 196.54L369.355 199.92Z" fill="white"/>
<path fill-rule="evenodd" clip-rule="evenodd" d="M368.677 200.252C368.75 200.399 368.861 200.525 369.005 200.598C369.005 200.598 378.464 205.434 383.854 204.98C389.044 204.545 393.663 203.606 397.621 203.79C398.924 203.849 399.713 203.458 400.134 202.939C400.466 202.522 400.609 201.995 400.502 201.405C400.41 200.738 399.968 199.95 399.219 199.22C398.208 198.254 396.614 197.351 394.522 196.95C389.538 195.988 386.952 195.092 384.459 192.689C384.425 192.501 384.388 192.151 384.588 191.834C384.864 191.432 385.469 191.152 386.606 191.071C386.606 191.071 386.624 191.071 386.624 191.068L397.732 189.984C397.841 189.972 397.947 189.937 398.042 189.881C398.137 189.825 398.218 189.75 398.282 189.66C398.411 189.475 398.466 189.243 398.392 189.029C398.392 189.029 397.584 185.491 389.557 182.071C381.95 178.821 375.424 177.313 375.424 177.313C375.184 177.258 374.926 177.321 374.745 177.486L370.672 181.098C370.565 181.201 370.473 181.341 370.436 181.496L366.991 196.367C366.954 196.537 366.972 196.714 367.046 196.872L368.677 200.252ZM369.942 199.356L368.529 196.452L371.882 182.079L375.457 178.894C376.944 179.263 382.573 180.741 388.97 183.475C393.718 185.502 395.681 187.489 396.448 188.576L386.495 189.549C384.643 189.682 383.761 190.338 383.322 190.983C382.57 192.088 383.068 193.375 383.068 193.375C383.105 193.474 383.178 193.566 383.249 193.64C385.982 196.341 388.749 197.388 394.249 198.45C396.596 198.903 398.245 200.082 398.831 201.173C398.997 201.483 399.108 201.763 398.96 201.973C398.887 202.061 398.776 202.12 398.632 202.168C398.392 202.253 398.082 202.283 397.695 202.264C393.681 202.076 388.989 203.016 383.728 203.462C379.106 203.849 371.351 200.071 369.942 199.356Z" fill="black"/>
<path fill-rule="evenodd" clip-rule="evenodd" d="M173.715 112.331C173.715 112.331 166.584 112.91 156.3 117.858C145.997 122.806 136.501 135.896 121.194 183.877H266.422C266.422 183.877 286.513 193.382 311.444 197.525C336.375 201.667 355.167 204.074 359.934 199.209C359.934 199.209 365.91 201.052 367.85 200.845C369.776 200.639 371.005 196.799 371.849 194.263C372.709 191.727 375.845 178.795 374.963 177.276C374.085 175.758 365.449 173.376 365.449 173.376C365.449 173.376 364.737 170.621 361.675 168.799C357.181 166.12 303.029 153.248 303.634 154.452C303.634 154.452 277.036 127.768 262.921 117.858L173.715 112.331Z" fill="white"/>
<path fill-rule="evenodd" clip-rule="evenodd" d="M303.874 153.609C300.886 150.631 276.63 126.545 263.36 117.233C263.249 117.153 263.12 117.105 262.973 117.096L173.77 111.569C173.733 111.567 173.697 111.567 173.66 111.569C173.66 111.569 166.419 112.147 155.97 117.171C150.708 119.695 145.648 124.272 139.966 134.356C134.374 144.273 128.142 159.583 120.479 183.645C120.405 183.877 120.442 184.131 120.588 184.327C120.735 184.522 120.955 184.64 121.193 184.64H266.256C268.182 185.532 287.557 194.326 311.315 198.276C328.842 201.188 343.358 203.237 352.124 202.533C355.827 202.238 358.539 201.424 360.133 200.064C361.582 200.484 366.238 201.781 367.924 201.604C368.898 201.501 369.794 200.735 370.51 199.566C371.373 198.129 372.048 196.076 372.583 194.506C373.277 192.453 375.442 183.671 375.826 179.451C375.9 178.644 375.9 177.991 375.845 177.556C375.789 177.269 375.715 177.048 375.623 176.893C375.479 176.639 375.203 176.348 374.764 176.064C374.288 175.739 373.609 175.397 372.819 175.061C370.473 174.048 367.157 173.073 366.039 172.751C365.688 171.839 364.644 169.683 362.077 168.143C361.236 167.649 358.76 166.799 355.259 165.77C341.547 161.757 311.809 154.721 305.102 153.734C304.534 153.652 304.11 153.611 303.874 153.609ZM303.947 155.144C304.128 155.157 304.497 155.188 304.881 155.245C311.573 156.228 341.178 163.239 354.817 167.235C358.155 168.209 360.502 168.984 361.287 169.453C364.039 171.098 364.7 173.566 364.7 173.566C364.774 173.832 364.973 174.04 365.231 174.11C365.231 174.11 369.411 175.26 372.214 176.466C372.912 176.757 373.498 177.048 373.919 177.332C374.103 177.45 374.251 177.549 374.306 177.656C374.376 177.77 374.358 177.988 374.358 178.279C374.358 178.961 374.251 179.915 374.085 181.021C373.424 185.458 371.72 192.262 371.134 194.02C370.639 195.49 370.016 197.425 369.189 198.774C368.769 199.463 368.348 200.023 367.762 200.086C365.91 200.281 360.151 198.479 360.151 198.479C359.897 198.398 359.583 198.472 359.384 198.678C358.705 199.375 357.676 199.891 356.377 200.278C354.267 200.904 351.426 201.162 347.981 201.147C339.182 201.107 326.477 199.249 311.573 196.769C286.749 192.645 266.75 183.188 266.75 183.188C266.64 183.14 266.529 183.114 266.422 183.114H122.239C129.736 159.765 135.805 144.826 141.286 135.105C146.749 125.413 151.588 120.971 156.63 118.547C166.254 113.913 173.074 113.159 173.734 113.097L262.663 118.607C276.777 128.588 303.084 154.99 303.084 154.99C303.324 155.221 303.671 155.278 303.947 155.144ZM304.35 154.181C304.368 154.245 304.387 154.307 304.387 154.367C304.387 154.305 304.368 154.241 304.35 154.181Z" fill="black"/>
<path fill-rule="evenodd" clip-rule="evenodd" d="M201.231 130.989C201.231 130.989 199.966 156.281 199.563 164.446C199.49 165.838 200.553 167.03 201.946 167.125C202.271 167.147 202.598 167.105 202.906 167C203.215 166.895 203.499 166.729 203.743 166.513C203.987 166.297 204.186 166.034 204.327 165.741C204.469 165.447 204.551 165.128 204.568 164.803C204.989 156.701 206.309 131.641 206.309 131.641L201.231 130.989ZM244.844 129.994C244.844 129.994 243.579 155.286 243.173 163.451C243.103 164.842 244.166 166.034 245.556 166.13C245.882 166.152 246.208 166.11 246.516 166.005C246.825 165.9 247.109 165.734 247.353 165.518C247.598 165.302 247.797 165.04 247.939 164.746C248.081 164.452 248.162 164.133 248.179 163.808C248.6 155.705 249.921 130.646 249.921 130.646L244.844 129.994Z" fill="black"/>
<path fill-rule="evenodd" clip-rule="evenodd" d="M206.731 72.8868C206.731 72.8868 197.326 72.6657 191.478 75.2371C185.649 77.8077 182.074 82.6457 179.984 93.11C179.984 93.11 172.633 93.8773 170.782 99.1078C168.93 104.336 167.39 113.724 167.39 113.724C167.39 113.724 172.248 111.835 173.256 112.796C208.014 146.185 246.036 145.305 263.065 120.826C264.592 118.62 265.456 116.024 265.557 113.344C265.657 110.663 264.99 108.01 263.633 105.696V105.692C260.446 100.269 252.835 81.2835 206.731 72.8868Z" fill="#163F89"/>
<path fill-rule="evenodd" clip-rule="evenodd" d="M156.299 125.524C156.299 125.524 170.379 133.062 170.25 149.573C170.122 166.374 167.39 181.102 167.39 181.102C167.355 181.303 167.401 181.509 167.518 181.676C167.635 181.843 167.813 181.957 168.013 181.994C168.416 182.071 168.82 181.795 168.893 181.382C168.893 181.382 171.662 166.528 171.79 149.584C171.918 132.138 157.033 124.178 157.033 124.178C156.647 123.981 156.189 124.119 155.988 124.491C155.786 124.863 155.932 125.325 156.299 125.524ZM263.711 134.113L265.769 180.287C265.787 180.708 266.134 181.032 266.559 181.013C266.979 180.999 267.307 180.641 267.293 180.217L265.234 134.046C265.231 133.946 265.208 133.848 265.166 133.757C265.124 133.667 265.065 133.585 264.992 133.517C264.918 133.45 264.832 133.397 264.738 133.363C264.644 133.329 264.544 133.314 264.445 133.319C264.242 133.328 264.052 133.417 263.914 133.566C263.777 133.714 263.704 133.911 263.711 134.113ZM363.91 176.436C363.91 176.436 361.712 188.771 360.026 195.656C359.934 196.065 360.17 196.478 360.59 196.577C360.996 196.677 361.398 196.426 361.509 196.017C363.195 189.099 365.412 176.705 365.412 176.705C365.43 176.606 365.428 176.504 365.407 176.406C365.385 176.308 365.345 176.215 365.287 176.132C365.229 176.05 365.156 175.979 365.071 175.925C364.986 175.871 364.891 175.834 364.792 175.817C364.368 175.743 363.984 176.023 363.91 176.436Z" fill="black"/>
<path fill-rule="evenodd" clip-rule="evenodd" d="M215.805 134.184L214.192 183.888H236.539L238.979 134.184H215.805Z" fill="#163F89"/>
<path fill-rule="evenodd" clip-rule="evenodd" d="M215.86 138.119C223.853 139.628 231.589 139.734 238.997 138.174C239.418 138.086 239.672 137.681 239.598 137.269C239.555 137.07 239.434 136.896 239.263 136.786C239.091 136.675 238.883 136.637 238.683 136.679C231.461 138.2 223.926 138.088 216.135 136.619C215.731 136.54 215.329 136.813 215.255 137.227C215.164 137.641 215.438 138.04 215.86 138.119Z" fill="black"/>
<path fill-rule="evenodd" clip-rule="evenodd" d="M211.295 96.6097C211.295 96.6097 207.17 103.153 204.916 106.267C204.916 106.267 209.224 109.902 217.95 112.173L216.703 96.6097H211.295Z" fill="white"/>
<path fill-rule="evenodd" clip-rule="evenodd" d="M211.296 95.8476C211.021 95.8476 210.782 95.9814 210.636 96.2047C210.636 96.2047 206.548 102.719 204.293 105.818C204.178 105.974 204.127 106.168 204.151 106.36C204.175 106.552 204.272 106.728 204.421 106.851C204.421 106.851 208.821 110.587 217.748 112.911C217.866 112.942 217.988 112.945 218.107 112.918C218.225 112.891 218.334 112.836 218.427 112.757C218.628 112.6 218.72 112.358 218.702 112.112L217.456 96.5493C217.437 96.1535 217.107 95.8476 216.704 95.8476H211.296ZM211.718 97.3734H215.989L217.089 111.151C210.984 109.417 207.299 107.06 205.961 106.109C207.941 103.302 210.893 98.6847 211.718 97.3734Z" fill="black"/>
<path fill-rule="evenodd" clip-rule="evenodd" d="M218.922 81.3285C218.922 81.3285 214.888 77.0791 208.985 79.4113C203.101 81.7439 203.523 88.2934 204.715 91.2823C205.924 94.2728 210.471 97.2894 214.192 98.2524C214.192 98.2524 213.661 108.215 218.922 115.263C224.183 122.31 236.832 127.64 250.452 122.491C255.952 120.42 258.922 117.015 261.194 112.873C263.449 108.727 269.868 97.6391 269.868 97.6391L266.99 66.1752L235.017 58.7526L221.726 81.3285H218.922Z" fill="white"/>
<path fill-rule="evenodd" clip-rule="evenodd" d="M219.233 80.5652C218.225 79.6512 214.21 76.5248 208.71 78.7018C202.312 81.2338 202.697 88.3207 203.999 91.5661C205.209 94.5768 209.59 97.6539 213.404 98.8258C213.404 101.139 213.679 109.523 218.317 115.719C223.725 122.966 236.704 128.5 250.728 123.205C256.41 121.058 259.509 117.534 261.855 113.237C264.127 109.096 270.528 98.0198 270.528 98.0198C270.602 97.8846 270.635 97.7268 270.616 97.5695L267.757 66.1059C267.74 65.9444 267.672 65.7925 267.563 65.6716C267.455 65.5507 267.311 65.4668 267.152 65.4318L235.2 58.0092C234.87 57.934 234.541 58.0781 234.357 58.3652L221.286 80.5652H219.233ZM218.372 81.853C218.443 81.9274 218.528 81.9868 218.623 82.0277C218.717 82.0687 218.819 82.0903 218.922 82.0914H221.726C221.983 82.0914 222.239 81.9484 222.368 81.7155L235.402 59.6227L266.274 66.7936C266.274 66.7936 268.82 94.5842 269.078 97.467C268.178 99.0127 262.607 108.693 260.516 112.506C258.335 116.499 255.476 119.783 250.197 121.777C236.942 126.78 224.641 121.653 219.526 114.807C214.43 107.966 214.943 98.2929 214.943 98.2929C214.952 98.1178 214.9 97.945 214.797 97.8033C214.694 97.6616 214.545 97.5597 214.375 97.5145C212.249 96.9613 209.828 95.6994 207.977 94.1648C206.804 93.1833 205.869 92.0935 205.429 90.9982C204.329 88.2639 203.889 82.2536 209.279 80.1211C214.669 77.9861 218.372 81.853 218.372 81.853Z" fill="black"/>
<path fill-rule="evenodd" clip-rule="evenodd" d="M218.903 81.2312C218.903 81.2312 218.647 86.6209 219.637 87.9469C220.627 89.2748 225.851 79.869 227.684 75.9458C227.684 75.9458 232.873 73.5451 235.86 70.2746C238.849 67.004 241.893 66.3314 243.815 71.1823C243.815 71.1823 250.123 66.2669 254.229 66.8691C258.354 67.4717 258.903 70.918 259.324 77.1532C259.767 83.3887 260.224 92.6371 269.775 97.6207L264.057 107.549C264.057 107.549 274.652 106.142 279.05 92.4193L281.234 95.6994C281.234 95.6994 288.564 67.645 274.851 51.3649C261.121 35.0849 239.196 37.827 232.341 42.7121C232.341 42.7121 216.539 40.4927 209.701 55.1949C202.863 69.8975 205.099 82.5849 205.099 82.5849C205.099 82.5849 210.196 74.7771 218.903 81.2312Z" fill="black"/>
<path fill-rule="evenodd" clip-rule="evenodd" d="M208.876 83.7749C208.876 83.7749 212.413 86.2932 215.365 91.1467C215.416 91.2325 215.484 91.3073 215.565 91.3668C215.645 91.4262 215.737 91.469 215.834 91.4929C215.931 91.5167 216.032 91.521 216.131 91.5056C216.23 91.4901 216.325 91.4552 216.41 91.4028C216.496 91.3516 216.572 91.2837 216.631 91.203C216.691 91.1223 216.735 91.0306 216.758 90.933C216.782 90.8355 216.787 90.7342 216.771 90.635C216.755 90.5359 216.72 90.4408 216.667 90.3554C213.532 85.1965 209.756 82.5292 209.756 82.5292C209.408 82.286 208.931 82.3674 208.693 82.7113C208.454 83.0552 208.527 83.5317 208.876 83.7749Z" fill="black"/>
<path fill-rule="evenodd" clip-rule="evenodd" d="M209.682 89.8664C209.682 89.8664 212.176 88.753 213.972 88.4342C214.073 88.42 214.171 88.3857 214.258 88.3332C214.346 88.2808 214.422 88.2114 214.482 88.129C214.542 88.0466 214.585 87.953 214.609 87.8537C214.632 87.7545 214.635 87.6515 214.618 87.551C214.601 87.4504 214.564 87.3544 214.508 87.2685C214.453 87.1826 214.382 87.1086 214.297 87.0509C214.213 86.9932 214.118 86.953 214.018 86.9326C213.918 86.9123 213.815 86.9122 213.715 86.9323C211.772 87.2769 209.059 88.4729 209.059 88.4729C208.674 88.645 208.509 89.0954 208.674 89.482C208.857 89.8645 209.297 90.0385 209.682 89.8664ZM247.666 101.088L246.766 107.596C246.75 107.695 246.754 107.796 246.777 107.893C246.801 107.991 246.844 108.082 246.904 108.162C246.964 108.243 247.04 108.31 247.126 108.36C247.213 108.411 247.309 108.443 247.408 108.455C247.508 108.47 247.609 108.464 247.706 108.439C247.804 108.415 247.895 108.371 247.975 108.31C248.056 108.25 248.123 108.174 248.174 108.087C248.225 108.001 248.258 107.905 248.271 107.805L249.168 101.296C249.223 100.879 248.932 100.492 248.53 100.436C248.43 100.421 248.328 100.427 248.231 100.452C248.133 100.477 248.042 100.521 247.962 100.582C247.881 100.642 247.814 100.718 247.763 100.805C247.713 100.892 247.68 100.988 247.666 101.088ZM236.575 83.8292C236.575 83.8292 243.011 81.6746 246.419 87.7822C246.467 87.8693 246.531 87.9461 246.609 88.0082C246.686 88.0702 246.775 88.1163 246.871 88.1437C246.966 88.1711 247.066 88.1794 247.164 88.1679C247.263 88.1565 247.358 88.1256 247.445 88.0771C247.814 87.8722 247.961 87.407 247.74 87.0389C243.726 79.8064 236.099 82.383 236.099 82.383C235.906 82.4469 235.746 82.5841 235.653 82.7649C235.561 82.9458 235.543 83.1559 235.604 83.3497C235.751 83.7488 236.172 83.964 236.575 83.8292ZM256.539 90.5589C256.539 90.5589 259.143 89.7237 261.836 90.5607C262.242 90.6849 262.681 90.4597 262.81 90.0588C262.917 89.6559 262.699 89.2273 262.294 89.1027C259.143 88.1213 256.063 89.1046 256.063 89.1046C255.967 89.1351 255.879 89.1842 255.802 89.249C255.725 89.3138 255.662 89.393 255.617 89.4821C255.571 89.5712 255.543 89.6685 255.534 89.7684C255.526 89.8683 255.538 89.9688 255.568 90.0643C255.698 90.4653 256.137 90.6868 256.539 90.5589Z" fill="black"/>
<path d="M241.177 95.5955C241.469 95.5955 241.757 95.5382 242.026 95.4268C242.295 95.3154 242.54 95.1521 242.746 94.9463C242.951 94.7405 243.115 94.4962 243.226 94.2274C243.337 93.9585 243.395 93.6704 243.395 93.3794C243.395 92.7919 243.161 92.2286 242.745 91.8132C242.329 91.3978 241.765 91.1644 241.177 91.1644C240.589 91.1644 240.025 91.3978 239.61 91.8132C239.194 92.2286 238.96 92.7919 238.96 93.3794C238.96 93.6704 239.017 93.9585 239.129 94.2274C239.24 94.4962 239.403 94.7405 239.609 94.9463C239.815 95.1521 240.06 95.3154 240.329 95.4268C240.598 95.5382 240.886 95.5955 241.177 95.5955ZM259.656 101.497C259.947 101.497 260.236 101.44 260.505 101.328C260.774 101.217 261.018 101.054 261.224 100.848C261.43 100.642 261.593 100.398 261.705 100.129C261.816 99.8604 261.873 99.5723 261.873 99.2814C261.873 98.6939 261.64 98.1305 261.224 97.7151C260.808 97.2997 260.244 97.0664 259.656 97.0664C259.068 97.0664 258.504 97.2997 258.088 97.7151C257.673 98.1305 257.439 98.6939 257.439 99.2814C257.439 99.5723 257.496 99.8604 257.608 100.129C257.719 100.398 257.882 100.642 258.088 100.848C258.294 101.054 258.538 101.217 258.807 101.328C259.077 101.44 259.365 101.497 259.656 101.497Z" fill="black"/>
<path fill-rule="evenodd" clip-rule="evenodd" d="M194.43 86.925C196.428 101.32 204.036 109.726 216.795 112.613C217.199 112.704 217.601 112.448 217.693 112.036C217.785 111.625 217.529 111.217 217.126 111.124C205.026 108.384 197.84 100.377 195.952 86.7164C195.897 86.2988 195.494 86.0058 195.09 86.0644C194.889 86.0917 194.706 86.1974 194.583 86.3587C194.459 86.5199 194.404 86.7235 194.43 86.925ZM244.014 113.199C244.014 113.199 237.239 113.616 235.528 106.834C235.505 106.738 235.462 106.647 235.404 106.567C235.345 106.487 235.271 106.42 235.186 106.368C235.1 106.317 235.006 106.284 234.908 106.269C234.809 106.255 234.709 106.26 234.613 106.285C234.206 106.388 233.943 106.799 234.06 107.211C236.065 115.236 244.099 114.719 244.099 114.719C244.302 114.707 244.492 114.616 244.628 114.465C244.764 114.314 244.835 114.116 244.826 113.913C244.789 113.489 244.439 113.173 244.014 113.199ZM39.6278 212.053C37.0251 212.053 34.9124 214.165 34.9124 216.763C34.9124 219.361 37.0251 221.473 39.6278 221.473C42.2301 221.473 44.3432 219.361 44.3432 216.763C44.3432 214.165 42.2301 212.053 39.6278 212.053ZM39.6278 213.579C41.3871 213.579 42.8155 215.005 42.8155 216.763C42.8155 218.521 41.3871 219.947 39.6278 219.947C37.8684 219.947 36.44 218.521 36.44 216.763C36.44 215.005 37.8684 213.579 39.6278 213.579Z" fill="black"/>
<path fill-rule="evenodd" clip-rule="evenodd" d="M461.461 243.748C459.595 243.748 458.078 245.263 458.078 247.131C458.078 248.996 459.595 250.511 461.461 250.511C463.332 250.511 464.848 248.996 464.848 247.131C464.848 246.687 464.76 246.247 464.59 245.837C464.42 245.426 464.171 245.053 463.856 244.739C463.542 244.425 463.168 244.176 462.757 244.006C462.346 243.836 461.906 243.748 461.461 243.748ZM461.461 245.274C462.487 245.274 463.321 246.107 463.321 247.131C463.321 248.152 462.487 248.985 461.461 248.985C460.969 248.984 460.498 248.789 460.15 248.441C459.803 248.094 459.607 247.623 459.606 247.131C459.606 246.107 460.439 245.274 461.461 245.274ZM49.9586 293.794L31.2471 312.487C31.1106 312.631 31.0358 312.823 31.0386 313.022C31.0415 313.22 31.1217 313.41 31.2622 313.551C31.4028 313.691 31.5927 313.771 31.7915 313.774C31.9903 313.777 32.1825 313.703 32.3272 313.566L51.0391 294.874C51.3372 294.575 51.3376 294.089 51.0395 293.794C50.9686 293.723 50.8843 293.666 50.7916 293.628C50.6988 293.59 50.5994 293.57 50.499 293.57C50.3986 293.57 50.2992 293.59 50.2065 293.628C50.1138 293.666 50.0295 293.723 49.9586 293.794ZM43.1352 287.001L23.2922 292.312C22.8864 292.423 22.644 292.839 22.7532 293.248C22.8057 293.443 22.9336 293.61 23.1088 293.711C23.2839 293.811 23.492 293.839 23.6873 293.786L43.5303 288.476C43.726 288.423 43.8928 288.295 43.9942 288.12C44.0955 287.945 44.123 287.737 44.0706 287.541C44.0182 287.346 43.8902 287.179 43.7148 287.078C43.5394 286.976 43.3309 286.949 43.1352 287.001ZM56.3607 301.294L51.0439 321.118C51.018 321.215 51.0114 321.316 51.0245 321.415C51.0377 321.515 51.0703 321.61 51.1205 321.697C51.1706 321.784 51.2374 321.86 51.317 321.921C51.3966 321.982 51.4875 322.026 51.5844 322.052C51.6813 322.078 51.7823 322.085 51.8817 322.072C51.9812 322.059 52.0771 322.026 52.1639 321.976C52.2507 321.926 52.3268 321.859 52.3879 321.78C52.4489 321.7 52.4936 321.609 52.5196 321.512L57.8363 301.688C57.8882 301.492 57.8606 301.284 57.7595 301.109C57.6584 300.934 57.492 300.805 57.2966 300.752C57.1006 300.701 56.8924 300.729 56.7171 300.831C56.5419 300.932 56.4138 301.098 56.3607 301.294Z" fill="#163F89"/>
<path fill-rule="evenodd" clip-rule="evenodd" d="M450.044 182.307L468.755 163.613C468.826 163.543 468.882 163.458 468.921 163.366C468.959 163.273 468.979 163.174 468.979 163.073C468.979 162.973 468.959 162.874 468.921 162.781C468.882 162.689 468.826 162.604 468.755 162.534C468.611 162.391 468.417 162.31 468.214 162.31C468.012 162.31 467.817 162.391 467.674 162.534L448.963 181.227C448.892 181.298 448.835 181.382 448.797 181.475C448.758 181.568 448.739 181.667 448.739 181.767C448.739 181.867 448.758 181.967 448.797 182.059C448.835 182.152 448.892 182.236 448.963 182.307C449.258 182.606 449.745 182.606 450.044 182.307ZM456.865 189.096L476.708 183.785C476.904 183.733 477.071 183.605 477.172 183.43C477.274 183.254 477.301 183.046 477.249 182.851C477.197 182.655 477.069 182.488 476.893 182.387C476.718 182.286 476.509 182.258 476.314 182.311L456.47 187.622C456.061 187.732 455.821 188.152 455.928 188.558C456.038 188.963 456.459 189.206 456.865 189.096ZM443.639 174.807L448.955 154.982C449.008 154.787 448.98 154.579 448.879 154.404C448.778 154.229 448.612 154.101 448.417 154.048C448.221 153.996 448.013 154.024 447.837 154.124C447.661 154.225 447.533 154.392 447.48 154.587L442.164 174.409C442.053 174.818 442.296 175.238 442.702 175.345C443.112 175.456 443.529 175.212 443.639 174.807ZM72.8153 154.452C72.9304 154.616 73.0532 154.783 73.1838 154.952C75.4043 157.801 80.0743 161.09 88.7633 164.231C88.9539 164.3 89.164 164.291 89.3475 164.205C89.531 164.119 89.6727 163.963 89.7416 163.773C89.8105 163.583 89.8008 163.373 89.7148 163.189C89.6287 163.006 89.4733 162.864 89.2827 162.796C81.8377 160.105 77.4554 157.352 75.1073 154.851C76.3686 154.853 77.6687 154.486 78.9838 153.639C80.1544 152.882 80.7358 151.508 80.7011 150.076C80.6502 147.99 79.2974 145.831 76.8076 145.49C74.5768 145.187 71.98 146.772 71.4728 149.452C71.3171 150.274 71.3562 151.208 71.6823 152.223C71.0349 151.825 70.4125 151.338 69.8197 150.8C65.9159 147.254 63.2479 141.393 63.2479 141.393C63.1599 141.216 63.006 141.079 62.8188 141.012C62.6317 140.946 62.426 140.955 62.2453 141.037C62.0646 141.12 61.9231 141.269 61.8508 141.454C61.7785 141.639 61.781 141.844 61.8579 142.027C61.8579 142.027 64.6793 148.194 68.7923 151.93C70.0329 153.056 71.3872 153.963 72.8153 154.452ZM73.7814 153.138C75.1781 153.49 76.6508 153.327 78.1545 152.356C78.8838 151.886 79.1956 151.005 79.1738 150.113C79.1395 148.714 78.2718 147.23 76.6006 147.003C75.0763 146.795 73.3207 147.904 72.9739 149.736C72.7902 150.706 73.0041 151.86 73.7814 153.138Z" fill="black"/>
<path fill-rule="evenodd" clip-rule="evenodd" d="M358.849 302.208C359.007 300.789 358.583 299.536 357.86 298.577C356.779 297.147 355.001 296.366 353.334 296.595C350.836 296.934 349.611 299.163 349.589 301.272C349.578 302.72 350.146 304.069 351.146 304.736C352.481 305.621 353.736 305.963 354.898 305.934C354.961 305.934 355.02 305.93 355.082 305.926C353.212 307.721 350.098 309.546 345.269 311.186C345.078 311.252 344.92 311.391 344.831 311.572C344.742 311.754 344.728 311.963 344.793 312.155C344.859 312.347 344.998 312.505 345.18 312.594C345.361 312.684 345.571 312.698 345.764 312.634C352.386 310.378 355.949 307.732 357.606 305.326C357.665 305.241 357.72 305.156 357.775 305.071C358.377 304.718 358.941 304.275 359.465 303.767C362.475 300.851 364.176 295.839 364.176 295.839C364.208 295.744 364.222 295.644 364.215 295.544C364.208 295.444 364.182 295.346 364.137 295.257C364.093 295.167 364.031 295.087 363.955 295.021C363.88 294.955 363.792 294.905 363.696 294.874C363.298 294.741 362.863 294.955 362.73 295.353C362.73 295.353 361.343 299.488 358.849 302.208ZM356.676 303.936C357.37 302.713 357.488 301.577 357.207 300.619C356.72 298.961 355.071 297.896 353.54 298.106C351.873 298.334 351.131 299.878 351.116 301.286C351.109 302.182 351.375 303.052 351.994 303.464C353.016 304.143 353.972 304.43 354.861 304.408C355.507 304.393 356.112 304.22 356.676 303.936Z" fill="#163F89"/>
</svg>
