<svg width="12" height="12" viewBox="0 0 12 12" fill="none" xmlns="http://www.w3.org/2000/svg">
<path d="M7.8053 8.8298L7.25 11L8.5 10.5L9.75 11L9.25 8.79935M10 7.5C10 8.32845 9.32845 9 8.5 9C7.67155 9 7 8.32845 7 7.5C7 6.67155 7.67155 6 8.5 6C9.32845 6 10 6.67155 10 7.5Z" stroke="#13519C" stroke-width="0.5" stroke-linecap="round" stroke-linejoin="round"/>
<path d="M9.49997 5C9.49997 3.11438 9.49997 2.17158 8.91417 1.58579C8.32842 1 7.38557 1 5.49997 1H5.00002C3.11442 1 2.17161 1 1.58583 1.58578C1.00004 2.17156 1.00004 3.11436 1.00002 4.99997L1 6.99995C0.999985 8.8856 0.999975 9.8284 1.58576 10.4142C2.17155 11 3.11437 11 5.00002 11H5.99997" stroke="#13519C" stroke-width="0.5" stroke-linecap="round" stroke-linejoin="round"/>
<path d="M3.25 3.5H7.25M3.25 6H5.5" stroke="#13519C" stroke-width="0.5" stroke-linecap="round" stroke-linejoin="round"/>
</svg>
