<svg width="30" height="30" viewBox="0 0 30 30" fill="none" xmlns="http://www.w3.org/2000/svg">
<path d="M28.8816 27.4839C28.8816 28.0839 28.3948 28.5707 27.7948 28.5707H26.1023C26.6967 28.5707 27.1835 28.0839 27.1835 27.4839C27.1835 26.8839 26.6967 26.3914 26.1023 26.3914H25.1967V12.5971H25.2419C25.7117 12.5971 26.1589 12.3368 26.3797 11.8839C26.6797 11.2556 26.4137 10.5028 25.7853 10.2028L22.7797 8.45371H23.1419V3.50088H23.391C23.7023 3.50088 23.9514 3.25186 23.9514 2.94051V1.98957C23.9514 1.67826 23.7023 1.4292 23.391 1.4292H25.0891C25.4004 1.4292 25.6495 1.67826 25.6495 1.98957V2.94051C25.6495 3.25186 25.4004 3.50088 25.0891 3.50088H24.84V8.45371H24.4778L27.4834 10.2028C28.1118 10.5028 28.3778 11.2556 28.0721 11.8839C27.857 12.3368 27.4042 12.5971 26.9344 12.5971H26.8948V26.3914H27.7948C28.3948 26.3914 28.8816 26.8783 28.8816 27.4839Z" fill="#13519C"/>
<path d="M27.7947 28.8538H26.1024C25.946 28.8538 25.8194 28.7272 25.8194 28.5708C25.8194 28.4143 25.946 28.2877 26.1024 28.2877C26.5424 28.2877 26.9003 27.9271 26.9003 27.4837C26.9003 27.0376 26.5424 26.6745 26.1024 26.6745H25.1967C25.0402 26.6745 24.9137 26.5479 24.9137 26.3915V12.597C24.9137 12.4406 25.0402 12.314 25.1967 12.314C25.6201 12.314 25.9584 12.1018 26.1253 11.7599C26.2367 11.5263 26.2508 11.2607 26.1637 11.0145C26.0767 10.7682 25.899 10.5706 25.6635 10.4581L22.6373 8.69835C22.5268 8.63396 22.4732 8.5035 22.5063 8.37996C22.5398 8.25641 22.6517 8.17073 22.7797 8.17073H22.859V3.50092C22.859 3.34449 22.9856 3.2179 23.142 3.2179H23.391C23.5464 3.2179 23.6683 3.09602 23.6683 2.94041V1.98937C23.6683 1.83404 23.5464 1.71216 23.391 1.71216C23.2346 1.71216 23.108 1.58557 23.108 1.42914C23.108 1.2727 23.2346 1.14612 23.391 1.14612H25.0892C25.554 1.14612 25.9324 1.52449 25.9324 1.98937V2.94041C25.9324 3.39424 25.5726 3.76542 25.1232 3.78339V8.45375C25.1232 8.46951 25.1218 8.48471 25.1196 8.49963L27.6258 9.95812C27.9788 10.1256 28.2596 10.4385 28.3958 10.8285C28.5318 11.2176 28.5072 11.6363 28.3267 12.0078C28.1101 12.4636 27.6742 12.7814 27.1778 12.8607V26.1084H27.7947C28.5501 26.1084 29.1645 26.7253 29.1645 27.4837C29.1645 28.2391 28.5501 28.8538 27.7947 28.8538ZM27.2063 28.2877H27.7947C28.2377 28.2877 28.5984 27.9271 28.5984 27.4837C28.5984 27.0376 28.2377 26.6745 27.7947 26.6745H27.2046C27.3691 26.9017 27.4663 27.1814 27.4663 27.4837C27.4663 27.7839 27.3699 28.0617 27.2063 28.2877ZM25.4797 26.1084H26.1024C26.2823 26.1084 26.4542 26.1438 26.6118 26.2079V12.597C26.6118 12.4406 26.7383 12.314 26.8948 12.314C27.311 12.314 27.6573 12.0976 27.8165 11.7624C27.9318 11.5255 27.9473 11.261 27.8616 11.015C27.7753 10.7688 27.5976 10.5709 27.3616 10.4581L24.3355 8.69835C24.2249 8.63396 24.1713 8.5035 24.2044 8.37996C24.2379 8.25641 24.3498 8.17073 24.4778 8.17073H24.5571V3.50092C24.5571 3.34449 24.6837 3.2179 24.8401 3.2179H25.0892C25.2445 3.2179 25.3664 3.09602 25.3664 2.94041V1.98937C25.3664 1.83404 25.2445 1.71216 25.0892 1.71216H24.1876C24.2177 1.79894 24.2343 1.89236 24.2343 1.98937V2.94041C24.2343 3.39424 23.8744 3.76542 23.425 3.78339V8.45375C23.425 8.46951 23.4237 8.48471 23.4214 8.49963L25.9277 9.95812C26.2793 10.1251 26.5601 10.4368 26.6974 10.8257C26.8348 11.2146 26.8127 11.6338 26.635 12.0059C26.4072 12.473 25.9775 12.7861 25.4797 12.8621V26.1084ZM18.7099 6.37063C18.5535 6.37063 18.4269 6.24405 18.4269 6.08762V3.50092C18.4269 3.34449 18.5535 3.2179 18.7099 3.2179C18.8663 3.2179 18.9929 3.34449 18.9929 3.50092V6.08762C18.9929 6.24405 18.8663 6.37063 18.7099 6.37063Z" fill="#13519C"/>
<path d="M23.1421 8.73689H22.7797C22.6233 8.73689 22.4967 8.6103 22.4967 8.45387C22.4967 8.29743 22.6233 8.17085 22.7797 8.17085H22.859V3.50104C22.859 3.3446 22.9856 3.21802 23.1421 3.21802C23.2985 3.21802 23.4251 3.3446 23.4251 3.50104V8.45387C23.4251 8.6103 23.2985 8.73689 23.1421 8.73689Z" fill="#13519C"/>
<path d="M23.3905 3.78622H18.4592C17.9924 3.78622 17.6127 3.40646 17.6127 2.93965V1.9922C17.6127 1.52538 17.9924 1.14563 18.4592 1.14563H23.3905C23.8573 1.14563 24.2371 1.52538 24.2371 1.9922V2.93965C24.2371 3.40646 23.8573 3.78622 23.3905 3.78622ZM18.4592 1.71167C18.3072 1.71167 18.1787 1.84019 18.1787 1.9922V2.93965C18.1787 3.09166 18.3072 3.22018 18.4592 3.22018H23.3905C23.5478 3.22018 23.671 3.09691 23.671 2.93965V1.9922C23.671 1.83494 23.5478 1.71167 23.3905 1.71167H18.4592ZM25.1967 26.6745H2.67401C2.51758 26.6745 2.39099 26.548 2.39099 26.3915V12.6029C2.39099 12.4465 2.51758 12.3199 2.67401 12.3199C2.83044 12.3199 2.95703 12.4465 2.95703 12.6029V26.1085H24.9137V12.5971C24.9137 12.4407 25.0402 12.3141 25.1967 12.3141C25.3531 12.3141 25.4797 12.4407 25.4797 12.5971V26.3915C25.4797 26.548 25.3531 26.6745 25.1967 26.6745Z" fill="#13519C"/>
<path d="M25.2396 12.8826C25.0069 12.8826 24.7827 12.8315 24.5732 12.7309L13.9343 6.49094L3.31613 12.7198C2.92422 12.9092 2.50549 12.9324 2.11662 12.795C1.72719 12.6579 1.4146 12.3774 1.23605 12.0048C1.05779 11.6334 1.03512 11.2144 1.17221 10.8252C1.3093 10.4361 1.58983 10.1238 1.96212 9.94576L13.2478 3.38243C13.6914 3.16823 14.177 3.16795 14.6012 3.37193L25.9267 9.95654C26.2788 10.1238 26.5593 10.4358 26.6964 10.8249C26.8335 11.2138 26.8111 11.6331 26.6326 12.0051C26.3775 12.538 25.8308 12.8826 25.2396 12.8826ZM13.9412 3.78568C13.7958 3.78568 13.6474 3.81746 13.5126 3.88213L2.22662 10.4457C1.97041 10.5693 1.79297 10.7669 1.70619 11.0134C1.6194 11.2597 1.63377 11.5247 1.74654 11.7602C1.85958 11.9965 2.05775 12.1743 2.30456 12.261C2.55054 12.3481 2.8156 12.3332 3.05053 12.2207L13.7911 5.91882C13.8796 5.86686 13.989 5.86686 14.0775 5.91882L24.8388 12.2317C24.9508 12.2843 25.0926 12.3166 25.2396 12.3166C25.6141 12.3166 25.9604 12.0982 26.1221 11.7605C26.2351 11.5247 26.2495 11.2594 26.1627 11.0132C26.0757 10.7669 25.8982 10.5693 25.6625 10.4565L14.3365 3.87163C14.2171 3.8147 14.0805 3.78568 13.9412 3.78568ZM26.0997 28.8544H2.20451C1.4497 28.8544 0.835571 28.2403 0.835571 27.4855C0.835571 26.7273 1.4497 26.1107 2.20451 26.1107H26.0997C26.8545 26.1107 27.4686 26.7273 27.4686 27.4855C27.4686 28.2403 26.8545 28.8544 26.0997 28.8544ZM2.20451 26.6768C1.76174 26.6768 1.40161 27.0397 1.40161 27.4855C1.40161 27.9282 1.76174 28.2884 2.20451 28.2884H26.0997C26.5425 28.2884 26.9026 27.9282 26.9026 27.4855C26.9026 27.0397 26.5425 26.6768 26.0997 26.6768H2.20451ZM14.3779 24.6116C14.0968 24.6116 13.8124 24.5392 13.5532 24.3869L7.7278 20.9628C7.35164 20.7417 7.0841 20.3873 6.97465 19.9653C6.86492 19.543 6.92628 19.1035 7.14739 18.7271L9.50938 14.709C9.58871 14.5747 9.76172 14.5293 9.89688 14.6084L18.05 19.4006C18.1846 19.48 18.2296 19.6532 18.1506 19.7881L15.7889 23.8062C15.4848 24.3233 14.9381 24.6116 14.3779 24.6116ZM7.63549 19.014C7.33727 19.5214 7.50752 20.1767 8.01469 20.4747L13.8401 23.8988C14.3475 24.1965 15.0023 24.0268 15.3008 23.5193L17.519 19.7453L9.85404 15.2399L7.63549 19.014Z" fill="#13519C"/>
<path d="M17.9064 19.9277C17.857 19.9277 17.8075 19.9147 17.763 19.8887L9.6099 15.0965C9.51178 15.0387 9.45789 14.9279 9.47281 14.8151C9.48774 14.7023 9.56899 14.6095 9.67872 14.5793L11.3484 14.1233C11.9973 13.9464 12.6938 14.0042 13.3049 14.2786L14.6216 11.4042C14.6556 11.3321 14.6885 11.263 14.7269 11.1972C15.3684 10.1066 16.776 9.74177 17.8658 10.3819C18.4213 10.7086 18.8152 11.258 18.9462 11.8893C19.078 12.5239 18.934 13.1886 18.5515 13.7129L16.6804 16.2628C17.2169 16.6625 17.6066 17.2434 17.7674 17.8962L18.1812 19.5769C18.2085 19.6875 18.1668 19.8036 18.0756 19.8716C18.0256 19.9089 17.9661 19.9277 17.9064 19.9277ZM10.4755 14.9486L17.4711 19.0607L17.218 18.0317C17.0682 17.425 16.6729 16.8952 16.1334 16.5782C16.0643 16.5375 16.016 16.4695 15.9997 16.3913C15.9836 16.3128 16.0013 16.2313 16.0486 16.1666L18.0947 13.3787C18.3829 12.9838 18.4913 12.4827 18.3921 12.0043C18.292 11.5222 18.0032 11.1193 17.5789 10.87C16.7572 10.3866 15.6973 10.6627 15.2153 11.4835C15.1854 11.5344 15.1603 11.5886 15.1348 11.6425L13.696 14.7836C13.6625 14.8566 13.6001 14.9118 13.5235 14.9359C13.4481 14.9602 13.3643 14.9505 13.2952 14.9099C12.7557 14.5926 12.0999 14.505 11.4976 14.6694L10.4755 14.9486ZM8.95265 20.2967C8.90401 20.2967 8.85454 20.2842 8.80949 20.2577C8.67489 20.1784 8.62984 20.0051 8.70888 19.8702L10.4858 16.8474C10.5651 16.713 10.7381 16.6669 10.8733 16.7468C11.0079 16.8261 11.0529 16.9994 10.9739 17.1343L9.19698 20.1571C9.14419 20.2466 9.04967 20.2967 8.95265 20.2967ZM9.97804 22.2402C9.9294 22.2402 9.87993 22.2278 9.83487 22.2012C9.70028 22.1219 9.65523 21.9486 9.73427 21.8137L11.5112 18.7909C11.5905 18.6566 11.7635 18.611 11.8986 18.6903C12.0332 18.7696 12.0783 18.9429 11.9993 19.0778L10.2224 22.1006C10.1696 22.1902 10.0751 22.2402 9.97804 22.2402ZM12.175 22.1907C12.1264 22.1907 12.0769 22.1783 12.0319 22.1518C11.8973 22.0724 11.8522 21.8991 11.9313 21.7643L13.7079 18.7412C13.7872 18.6068 13.9608 18.5612 14.0954 18.6406C14.23 18.7199 14.275 18.8932 14.196 19.028L12.4194 22.0512C12.3666 22.1407 12.272 22.1907 12.175 22.1907ZM13.2004 24.1343C13.1518 24.1343 13.1023 24.1218 13.0573 24.0953C12.9227 24.016 12.8776 23.8427 12.9567 23.7078L14.7333 20.6847C14.8123 20.5501 14.9862 20.5045 15.1208 20.5841C15.2554 20.6634 15.3004 20.8367 15.2214 20.9716L13.4447 23.9947C13.392 24.0842 13.2974 24.1343 13.2004 24.1343Z" fill="#13519C"/>
<path d="M16.7462 12.9294C17.101 12.9294 17.3887 12.6418 17.3887 12.287C17.3887 11.9322 17.101 11.6445 16.7462 11.6445C16.3914 11.6445 16.1038 11.9322 16.1038 12.287C16.1038 12.6418 16.3914 12.9294 16.7462 12.9294Z" fill="#13519C"/>
</svg>
