<svg width="32" height="32" viewBox="0 0 32 32" fill="none" xmlns="http://www.w3.org/2000/svg">
<path d="M16.1655 31.866C15.8963 31.8663 15.6298 31.8121 15.382 31.7068C9.97898 29.4683 5.68536 25.1767 3.44428 19.7747C1.71184 15.6589 1.62329 12.2633 1.62035 12.1208L1.62012 7.67447C1.62021 7.38917 1.68154 7.10722 1.79997 6.84766C1.9184 6.58811 2.09117 6.357 2.3066 6.16996C2.52202 5.98291 2.77509 5.84429 3.0487 5.76346C3.32231 5.68263 3.61008 5.66148 3.89256 5.70143C5.05267 5.88257 6.23933 5.78172 7.35223 5.40738C8.46512 5.03305 9.47151 4.39624 10.2863 3.55081C12.3642 1.40584 14.2324 0.406856 16.1655 0.406738C18.0985 0.406738 19.9667 1.40574 22.0448 3.55081C22.8596 4.39635 23.866 5.03323 24.9789 5.40757C26.0918 5.78191 27.2785 5.88271 28.4386 5.70143C28.7211 5.66151 29.0088 5.68268 29.2824 5.76353C29.556 5.84437 29.809 5.983 30.0244 6.17004C30.2398 6.35708 30.4126 6.58818 30.531 6.84772C30.6494 7.10726 30.7107 7.38919 30.7108 7.67447V12.1011C30.7077 12.2633 30.6191 15.6589 28.8866 19.7747C26.6456 25.1768 22.352 29.4685 16.9489 31.7071C16.7011 31.8121 16.4346 31.8662 16.1655 31.866ZM3.61268 7.60838C3.59657 7.60846 3.58106 7.61454 3.56918 7.62543C3.56187 7.63128 3.55604 7.63876 3.55216 7.64728C3.54828 7.6558 3.54646 7.66511 3.54684 7.67447V12.1011C3.71457 14.5121 4.29018 16.8772 5.24917 19.0956C7.3845 24.1215 11.0476 27.768 16.1368 29.9342C16.1459 29.938 16.1557 29.94 16.1656 29.94C16.1755 29.94 16.1853 29.938 16.1944 29.9342C28.3847 24.7453 28.7817 12.2074 28.7843 12.0813L28.7841 7.67447C28.7845 7.66512 28.7827 7.65581 28.7788 7.64728C28.775 7.63874 28.7692 7.63122 28.762 7.62531C28.7545 7.61857 28.7456 7.61362 28.736 7.61085C28.7263 7.60808 28.7161 7.60755 28.7062 7.60931C27.2455 7.83602 25.7517 7.70737 24.3512 7.23426C22.9508 6.76115 21.6849 5.95752 20.661 4.89142C18.9934 3.17015 17.523 2.33345 16.1655 2.33345C14.8079 2.33345 13.3375 3.17015 11.6702 4.89142C10.6461 5.95746 9.38026 6.76106 7.97978 7.23418C6.5793 7.7073 5.08544 7.83602 3.62467 7.60944C3.62071 7.60874 3.6167 7.60839 3.61268 7.60838Z" fill="#2983D3" fill-opacity="0.6"/>
<path d="M18.9315 6.68115C17.3347 5.03381 16.4653 4.85559 16.1642 4.85559C15.8656 4.85559 14.9962 5.03381 13.3994 6.68115C11.4468 8.74547 8.78972 10.0005 5.95508 10.1974V12.165C6.12361 14.2678 6.63364 16.3291 7.46514 18.2679C9.12427 22.2946 12.2263 25.5572 16.1642 27.4174C25.7568 22.7619 26.3469 12.8707 26.3758 12.153V10.1974C23.5413 10 20.8843 8.74507 18.9315 6.68115ZM10.5295 13.2438C10.9302 12.6072 11.5454 12.135 12.2638 11.9124C12.9823 11.6898 13.7567 11.7315 14.447 12.03C14.9881 12.2884 15.4787 12.6413 15.8958 13.0721C15.969 13.1403 16.0654 13.1782 16.1654 13.1782C16.2655 13.1782 16.3619 13.1403 16.4351 13.0721C16.8522 12.6413 17.3428 12.2884 17.8838 12.03C18.5742 11.7315 19.3486 11.6898 20.067 11.9124C20.7855 12.135 21.4006 12.6072 21.8013 13.2438C22.0949 13.6906 22.2831 14.1984 22.3519 14.7286C22.4206 15.2589 22.368 15.7978 22.198 16.3048H19.9117L18.9004 13.992C18.8527 13.8828 18.7736 13.7902 18.6732 13.726C18.5728 13.6618 18.4556 13.6288 18.3365 13.6312C18.2173 13.6336 18.1016 13.6713 18.0039 13.7396C17.9062 13.8078 17.831 13.9035 17.7877 14.0146L16.0715 18.4197L14.1165 14.874C14.0666 14.7833 13.9941 14.7071 13.906 14.6526C13.818 14.5981 13.7174 14.5673 13.6139 14.5631C13.5105 14.5588 13.4077 14.5813 13.3155 14.6284C13.2233 14.6755 13.1448 14.7455 13.0876 14.8318L12.12 16.2897H10.1283C9.96119 15.7846 9.91048 15.2483 9.97996 14.7208C10.0494 14.1933 10.2373 13.6884 10.5295 13.2438ZM20.6769 18.9373C19.7873 19.9757 18.7905 20.9173 17.703 21.7463C17.4 21.9829 16.8681 22.3743 16.5162 22.6313C16.4144 22.7059 16.2916 22.7461 16.1654 22.7461C16.0393 22.7461 15.9164 22.7059 15.8147 22.6313C15.4628 22.3743 14.9309 21.9829 14.6278 21.7463C13.5404 20.9173 12.5436 19.9757 11.6539 18.9373C11.2716 18.4895 10.9329 18.0062 10.6424 17.4939H12.4431C12.5425 17.494 12.6403 17.4694 12.7278 17.4224C12.8154 17.3755 12.8899 17.3075 12.9448 17.2248L13.5417 16.3254L15.638 20.1278C15.69 20.2221 15.7663 20.3007 15.859 20.3554C15.9517 20.4102 16.0574 20.4391 16.1651 20.4392C16.1785 20.4392 16.1917 20.4387 16.2051 20.4379C16.3193 20.4303 16.429 20.3903 16.5213 20.3226C16.6136 20.255 16.6847 20.1623 16.7263 20.0557L18.3806 15.8094L18.966 17.1481C19.013 17.2554 19.0902 17.3466 19.1882 17.4107C19.2861 17.4748 19.4007 17.509 19.5178 17.509H21.6804C21.3916 18.0156 21.0556 18.4938 20.6769 18.9373Z" fill="#13519C"/>
</svg>
