<svg width="36" height="36" viewBox="0 0 36 36" fill="none" xmlns="http://www.w3.org/2000/svg">
<path d="M5.29088 19.6909L5.61815 23.7272C5.61815 23.8909 5.72724 24 5.89088 24L5.83633 28.5818L3.70906 33.1636C3.32724 33.9818 3.70906 34.9636 4.52724 35.3454C5.34542 35.7272 6.32724 35.3454 6.70906 34.5272C8.99997 29.5091 9.10906 29.5636 9.1636 28.9636L9.21815 24.0545H9.7636C9.7636 24.0545 9.7636 24.0545 9.7636 24.1091L9.98179 33.9272C9.98179 34.8 10.7454 35.5091 11.6181 35.5091C12.5454 35.5091 13.2545 34.7454 13.2545 33.8181L12.9272 24H12.9818C13.1454 24 13.3091 23.8363 13.3091 23.6727L13.5818 19.9091C10.9091 19.9091 6.59997 20.0727 5.29088 19.6909ZM17.2909 16.6363C17.0182 14.8909 16.6363 13.3091 16.0363 11.8909V17.8909C16.0909 17.8909 16.1454 17.8909 16.2 17.8909C16.8545 17.8909 17.4 17.2909 17.2909 16.6363Z" fill="#13519C"/>
<path d="M9.43634 6.87268C11.1836 6.87268 12.6 5.45627 12.6 3.70905C12.6 1.96182 11.1836 0.54541 9.43634 0.54541C7.68911 0.54541 6.27271 1.96182 6.27271 3.70905C6.27271 5.45627 7.68911 6.87268 9.43634 6.87268Z" fill="#13519C"/>
<path d="M7.14547 19.4181H15.4909V10.9091H13.0909V15.0545L11.2909 13.6363L9.43638 15.0545V10.9091H7.03638V16.9091C7.52729 17.2909 7.80001 17.9454 7.63638 18.5454C7.58183 18.9272 7.36365 19.2 7.14547 19.4181Z" fill="#2983D3" fill-opacity="0.4"/>
<path d="M12.5454 13.9636V10.9091H9.98181V13.9636L11.2909 12.9818L12.5454 13.9636Z" fill="#13519C"/>
<path d="M21.3818 31.0909L19.5273 29.6727L17.7273 31.0909V26.9454H15.3273V35.4545H23.7818V26.9454H21.3818V31.0909Z" fill="#2983D3" fill-opacity="0.4"/>
<path d="M20.8363 30V26.9454H18.2727V30L19.5273 29.0182L20.8363 30Z" fill="#13519C"/>
<path d="M31.5818 16.8V20.9455L29.7818 19.5273L27.9272 20.9455V16.8H25.5272V25.2546H34.0363V16.8H31.5818Z" fill="#2983D3" fill-opacity="0.4"/>
<path d="M31.0364 19.8546V16.8H28.4728V19.8546L29.7819 18.8182L31.0364 19.8546Z" fill="#13519C"/>
<path d="M31.5818 31.0909L29.7818 29.6727L27.9272 31.0909V26.9454H25.5272V35.4545H34.0363V26.9454H31.5818V31.0909Z" fill="#2983D3" fill-opacity="0.4"/>
<path d="M31.0364 30V26.9454H28.4728V30L29.7819 29.0182L31.0364 30Z" fill="#13519C"/>
<path d="M7.09096 18.4363C7.20005 17.8363 6.87277 17.2908 6.27277 17.1272C3.87277 16.5818 3.76368 14.7818 4.7455 12.5454L5.01823 15.8181C5.40005 16.4181 6.21823 16.5272 6.5455 16.6363V10.3636C9.5455 10.3636 12.491 10.3636 15.4364 10.3636C15.2728 10.0363 15.0546 9.70903 14.891 9.38176C13.4728 7.1454 6.92732 5.94539 4.20005 9.27267C1.25459 12.9272 0.981865 18.1636 5.89096 19.2545C6.38187 19.4181 6.98187 19.0363 7.09096 18.4363Z" fill="#13519C"/>
</svg>
