<svg width="354" height="168" viewBox="0 0 354 168" fill="none" xmlns="http://www.w3.org/2000/svg">
<g filter="url(#filter0_dddd_5_3899)">
<rect x="53" y="21" width="248" height="62" rx="10" fill="#F5F5F5" shape-rendering="crispEdges"/>
<rect x="53" y="21" width="248" height="62" rx="10" stroke="url(#paint0_linear_5_3899)" stroke-width="1.5" shape-rendering="crispEdges"/>
<path d="M275 41.1484L270.35 45.4895H264.583V47.803H275L270.35 52.1441H264.609V55.0035H270.35L275 59.3446H259.596V41.1484H275Z" fill="#13519C"/>
<path d="M248.569 48.0109C249.92 48.0109 251.063 48.1755 251.998 48.5048C252.933 48.8167 253.687 49.2413 254.258 49.7785C254.847 50.3157 255.271 50.9223 255.531 51.5981C255.808 52.274 255.947 52.9758 255.947 53.7037C255.947 54.4489 255.799 55.1854 255.505 55.9132C255.228 56.6411 254.769 57.2996 254.128 57.8888C253.488 58.478 252.648 58.9546 251.609 59.3185C250.569 59.6824 249.305 59.8644 247.816 59.8644C247.089 59.8644 246.387 59.7864 245.712 59.6304C245.036 59.4918 244.413 59.3012 243.842 59.0586C243.27 58.816 242.751 58.5473 242.283 58.2527C241.833 57.9581 241.443 57.6549 241.114 57.3429L244.595 54.1716C244.941 54.5702 245.392 54.8994 245.946 55.1594C246.5 55.402 247.184 55.5233 247.998 55.5233C248.933 55.5233 249.652 55.376 250.154 55.0814C250.673 54.7695 250.933 54.4315 250.933 54.0676C250.933 53.669 250.639 53.3051 250.05 52.9758C249.461 52.6466 248.535 52.4819 247.27 52.4819C245.902 52.4819 244.751 52.326 243.816 52.014C242.88 51.6848 242.118 51.2602 241.53 50.7403C240.958 50.2031 240.543 49.5965 240.283 48.9207C240.023 48.2275 239.893 47.5256 239.893 46.8151C239.893 46.0699 240.032 45.3334 240.309 44.6056C240.603 43.8604 241.071 43.1932 241.711 42.604C242.352 42.0148 243.192 41.5382 244.231 41.1743C245.27 40.8104 246.534 40.6284 248.024 40.6284C248.751 40.6284 249.453 40.7064 250.128 40.8624C250.803 41.001 251.427 41.1916 251.998 41.4342C252.57 41.6769 253.081 41.9455 253.531 42.2401C253.998 42.5347 254.397 42.838 254.726 43.1499L251.245 46.3212C250.899 45.9226 250.448 45.602 249.894 45.3594C249.34 45.0995 248.656 44.9695 247.842 44.9695C246.907 44.9695 246.179 45.1255 245.66 45.4374C245.158 45.732 244.907 46.0613 244.907 46.4252C244.907 46.8238 245.201 47.1877 245.79 47.517C246.379 47.8462 247.305 48.0109 248.569 48.0109Z" fill="#13519C"/>
<path d="M218.439 59.3446V53.3659L223.193 48.9988H229.012C229.791 48.9988 230.371 48.8168 230.752 48.4529C231.133 48.089 231.324 47.6817 231.324 47.2312C231.324 46.7806 231.133 46.382 230.752 46.0354C230.371 45.6715 229.791 45.4895 229.012 45.4895H222.076L218.439 41.1484H229.765C230.856 41.1484 231.808 41.3304 232.622 41.6943C233.436 42.0409 234.112 42.5002 234.649 43.072C235.203 43.6439 235.61 44.2938 235.869 45.0216C236.147 45.7495 236.285 46.4947 236.285 47.2572C236.285 47.829 236.207 48.3923 236.051 48.9468C235.895 49.484 235.67 50.0039 235.376 50.5065C235.082 50.9917 234.709 51.4336 234.259 51.8322C233.809 52.2135 233.28 52.5341 232.674 52.794L236.779 59.3446H231.791L228.051 53.3399H223.427V59.3446H218.439Z" fill="#13519C"/>
<path d="M214.812 41.1484L212.403 45.4895H204.396V47.803H214.812L210.162 52.1441H204.422V55.0035H210.162L214.812 59.3446H199.408V41.1484H214.812Z" fill="#13519C"/>
<path d="M179.611 49.394L184.241 46.3474L186.683 55.0555L190.657 43.0771L195.775 41.1484L190.657 59.3446H182.709L179.611 49.394Z" fill="#13519C"/>
<path d="M165.537 41.1484V55.0035H175.927V59.3446H160.523V45.8015L165.537 41.1484Z" fill="#1D1D1D"/>
<path d="M157.39 41.1484L152.266 45.4895H146.974V47.803H157.39L152.74 52.1441H146.999V55.0035H150.981L157.39 59.3446H141.986V41.1484H157.39Z" fill="#1D1D1D"/>
<path d="M132.848 59.3446V41.1484L137.836 44.1392V59.3446H132.848Z" fill="#1D1D1D"/>
<path d="M110.875 59.3446V53.3659L115.629 48.9988H121.448C122.227 48.9988 122.807 48.8168 123.188 48.4529C123.569 48.089 123.76 47.6817 123.76 47.2312C123.76 46.7806 123.569 46.382 123.188 46.0354C122.807 45.6715 122.227 45.4895 121.448 45.4895H114.512L110.875 41.1484H122.201C123.292 41.1484 124.244 41.3304 125.058 41.6943C125.872 42.0409 126.548 42.5002 127.085 43.072C127.639 43.6439 128.046 44.2938 128.305 45.0216C128.583 45.7495 128.721 46.4947 128.721 47.2572C128.721 47.829 128.643 48.3923 128.487 48.9468C128.331 49.484 128.106 50.0039 127.812 50.5065C127.518 50.9917 127.145 51.4336 126.695 51.8322C126.245 52.2135 125.716 52.5341 125.11 52.794L129.215 59.3446H124.227L120.487 53.3399H115.863V59.3446H110.875Z" fill="#1D1D1D"/>
<mask id="mask0_5_3899" style="mask-type:luminance" maskUnits="userSpaceOnUse" x="83" y="47" width="27" height="18">
<path d="M92.0505 52.0604L87.7002 47.707L83.3499 52.0604L87.7002 56.4138L92.0505 60.7671L94.8496 63.5682C96.1234 64.8429 96.613 64.9083 97.9155 63.6048L100.751 60.7672L105.102 56.4138L109.452 52.0604L105.102 47.707L100.751 52.0604C99.9019 52.9103 97.5397 55.5719 96.4009 55.5719C95.2621 55.5719 92.8998 52.9103 92.0505 52.0604Z" fill="white"/>
</mask>
<g mask="url(#mask0_5_3899)">
<path d="M109.452 47.707H83.35V64.9083H109.452V47.707Z" fill="url(#paint1_linear_5_3899)"/>
</g>
<mask id="mask1_5_3899" style="mask-type:luminance" maskUnits="userSpaceOnUse" x="79" y="39" width="14" height="16">
<path d="M88.4538 46.9536L92.051 43.3539L87.7007 39.0005L83.3504 43.3539L79 47.7072L83.3504 52.0606L86.2715 54.9838C84.8469 51.9743 86.3317 49.0772 88.4538 46.9536Z" fill="white"/>
</mask>
<g mask="url(#mask1_5_3899)">
<path d="M92.0511 39.0005H79V54.9838H92.0511V39.0005Z" fill="#003780"/>
</g>
<mask id="mask2_5_3899" style="mask-type:luminance" maskUnits="userSpaceOnUse" x="92" y="39" width="9" height="9">
<path d="M96.4013 47.7068L100.752 43.3535L96.4013 39.0002L92.051 43.3535L96.4013 47.7068Z" fill="white"/>
</mask>
<g mask="url(#mask2_5_3899)">
<path d="M100.751 39H92.05V47.7067H100.751V39Z" fill="#003780"/>
</g>
<mask id="mask3_5_3899" style="mask-type:luminance" maskUnits="userSpaceOnUse" x="100" y="39" width="14" height="16">
<path d="M104.35 46.9531L100.752 43.3534L105.103 39L109.453 43.3534L113.803 47.7067L109.453 52.0601L106.532 54.9833C107.957 51.9738 106.472 49.0767 104.35 46.9531Z" fill="white"/>
</mask>
<g mask="url(#mask3_5_3899)">
<path d="M113.803 39H100.752V54.9833H113.803V39Z" fill="#003780"/>
</g>
<mask id="mask4_5_3899" style="mask-type:luminance" maskUnits="userSpaceOnUse" x="85" y="47" width="4" height="8">
<path d="M88.6021 47.7378H85.7089V54.9834H88.6021V47.7378Z" fill="url(#paint2_linear_5_3899)"/>
</mask>
<g mask="url(#mask4_5_3899)">
<path fill-rule="evenodd" clip-rule="evenodd" d="M86.2715 54.9834C86.2715 54.9834 85.4388 51.4308 88.6022 48.609L87.7316 47.7378C86.0213 49.7635 85.0154 52.3297 86.2715 54.9834Z" fill="#102770"/>
</g>
<mask id="mask5_5_3899" style="mask-type:luminance" maskUnits="userSpaceOnUse" x="104" y="47" width="4" height="8">
<path d="M107.095 47.7378H104.202V54.9834H107.095V47.7378Z" fill="url(#paint3_linear_5_3899)"/>
</mask>
<g mask="url(#mask5_5_3899)">
<path fill-rule="evenodd" clip-rule="evenodd" d="M106.532 54.9834C106.532 54.9834 107.364 51.4308 104.201 48.609L105.072 47.7378C106.782 49.7635 107.788 52.3297 106.532 54.9834Z" fill="#102770"/>
</g>
<mask id="mask6_5_3899" style="mask-type:luminance" maskUnits="userSpaceOnUse" x="89" y="58" width="14" height="7">
<path d="M102.926 58.5903H89.8746V64.5536H102.926V58.5903Z" fill="url(#paint4_linear_5_3899)"/>
</mask>
<g mask="url(#mask6_5_3899)">
<path fill-rule="evenodd" clip-rule="evenodd" d="M102.926 58.5903C95.9063 62.8016 89.8754 58.5903 89.8754 58.5903L92.0506 60.767L94.8497 63.5681C96.1235 64.8428 96.613 64.9082 97.9156 63.6047L100.751 60.767L102.926 58.5903Z" fill="#39D4FF"/>
</g>
<mask id="mask7_5_3899" style="mask-type:luminance" maskUnits="userSpaceOnUse" x="100" y="39" width="14" height="9">
<path d="M113.803 39H100.752V47.7067H113.803V39Z" fill="url(#paint5_linear_5_3899)"/>
</mask>
<g mask="url(#mask7_5_3899)">
<path fill-rule="evenodd" clip-rule="evenodd" d="M100.752 43.3534C100.752 43.3534 108.576 43.38 113.803 47.7067L109.452 43.3534L105.102 39L100.752 43.3534Z" fill="#2983D3"/>
</g>
<mask id="mask8_5_3899" style="mask-type:luminance" maskUnits="userSpaceOnUse" x="79" y="39" width="14" height="9">
<path d="M92.0511 39.0005H79V47.7072H92.0511V39.0005Z" fill="url(#paint6_linear_5_3899)"/>
</mask>
<g mask="url(#mask8_5_3899)">
<path fill-rule="evenodd" clip-rule="evenodd" d="M92.051 43.3539C92.051 43.3539 84.2263 43.3805 79 47.7072L83.3504 43.3539L87.7007 39.0005L92.051 43.3539Z" fill="#2983D3"/>
</g>
<mask id="mask9_5_3899" style="mask-type:luminance" maskUnits="userSpaceOnUse" x="92" y="39" width="9" height="5">
<path d="M100.751 39H92.05V43.3534H100.751V39Z" fill="url(#paint7_linear_5_3899)"/>
</mask>
<g mask="url(#mask9_5_3899)">
<path fill-rule="evenodd" clip-rule="evenodd" d="M92.0507 43.3534C92.0507 43.3534 97.5471 43.0491 100.751 43.3534L96.401 39L92.0507 43.3534Z" fill="#2983D3"/>
</g>
</g>
<defs>
<filter id="filter0_dddd_5_3899" x="0.25" y="0.25" width="353.5" height="167.5" filterUnits="userSpaceOnUse" color-interpolation-filters="sRGB">
<feFlood flood-opacity="0" result="BackgroundImageFix"/>
<feColorMatrix in="SourceAlpha" type="matrix" values="0 0 0 0 0 0 0 0 0 0 0 0 0 0 0 0 0 0 127 0" result="hardAlpha"/>
<feOffset dy="6"/>
<feGaussianBlur stdDeviation="6.5"/>
<feComposite in2="hardAlpha" operator="out"/>
<feColorMatrix type="matrix" values="0 0 0 0 0.0313726 0 0 0 0 0.0313726 0 0 0 0 0.0313726 0 0 0 0.03 0"/>
<feBlend mode="normal" in2="BackgroundImageFix" result="effect1_dropShadow_5_3899"/>
<feColorMatrix in="SourceAlpha" type="matrix" values="0 0 0 0 0 0 0 0 0 0 0 0 0 0 0 0 0 0 127 0" result="hardAlpha"/>
<feMorphology radius="16" operator="erode" in="SourceAlpha" result="effect2_dropShadow_5_3899"/>
<feOffset dy="24"/>
<feGaussianBlur stdDeviation="12"/>
<feComposite in2="hardAlpha" operator="out"/>
<feColorMatrix type="matrix" values="0 0 0 0 0.0313726 0 0 0 0 0.0313726 0 0 0 0 0.0313726 0 0 0 0.04 0"/>
<feBlend mode="normal" in2="effect1_dropShadow_5_3899" result="effect2_dropShadow_5_3899"/>
<feColorMatrix in="SourceAlpha" type="matrix" values="0 0 0 0 0 0 0 0 0 0 0 0 0 0 0 0 0 0 127 0" result="hardAlpha"/>
<feMorphology radius="2" operator="erode" in="SourceAlpha" result="effect3_dropShadow_5_3899"/>
<feOffset dy="2.15"/>
<feGaussianBlur stdDeviation="0.25"/>
<feComposite in2="hardAlpha" operator="out"/>
<feColorMatrix type="matrix" values="0 0 0 0 0 0 0 0 0 0 0 0 0 0 0 0 0 0 0.25 0"/>
<feBlend mode="normal" in2="effect2_dropShadow_5_3899" result="effect3_dropShadow_5_3899"/>
<feColorMatrix in="SourceAlpha" type="matrix" values="0 0 0 0 0 0 0 0 0 0 0 0 0 0 0 0 0 0 127 0" result="hardAlpha"/>
<feMorphology radius="12" operator="erode" in="SourceAlpha" result="effect4_dropShadow_5_3899"/>
<feOffset dy="32"/>
<feGaussianBlur stdDeviation="32"/>
<feComposite in2="hardAlpha" operator="out"/>
<feColorMatrix type="matrix" values="0 0 0 0 0 0 0 0 0 0 0 0 0 0 0 0 0 0 0.075 0"/>
<feBlend mode="multiply" in2="effect3_dropShadow_5_3899" result="effect4_dropShadow_5_3899"/>
<feBlend mode="normal" in="SourceGraphic" in2="effect4_dropShadow_5_3899" result="shape"/>
</filter>
<linearGradient id="paint0_linear_5_3899" x1="177" y1="21" x2="177" y2="83" gradientUnits="userSpaceOnUse">
<stop stop-color="#003780"/>
<stop offset="1" stop-color="#E6E6E6" stop-opacity="0"/>
</linearGradient>
<linearGradient id="paint1_linear_5_3899" x1="96.4011" y1="49.7623" x2="96.4011" y2="64.5534" gradientUnits="userSpaceOnUse">
<stop stop-color="#003780"/>
<stop offset="1" stop-color="#2983D3"/>
</linearGradient>
<linearGradient id="paint2_linear_5_3899" x1="88.4133" y1="46.3261" x2="86.1764" y2="55.2674" gradientUnits="userSpaceOnUse">
<stop stop-color="white"/>
<stop offset="1"/>
</linearGradient>
<linearGradient id="paint3_linear_5_3899" x1="104.391" y1="46.326" x2="106.628" y2="55.2673" gradientUnits="userSpaceOnUse">
<stop stop-color="white"/>
<stop offset="1"/>
</linearGradient>
<linearGradient id="paint4_linear_5_3899" x1="96.4001" y1="70.3573" x2="96.4001" y2="58.5572" gradientUnits="userSpaceOnUse">
<stop stop-color="white"/>
<stop offset="1"/>
</linearGradient>
<linearGradient id="paint5_linear_5_3899" x1="108.78" y1="37.3393" x2="106.507" y2="46.4267" gradientUnits="userSpaceOnUse">
<stop stop-color="white"/>
<stop offset="1"/>
</linearGradient>
<linearGradient id="paint6_linear_5_3899" x1="84.0229" y1="37.3398" x2="86.2966" y2="46.4272" gradientUnits="userSpaceOnUse">
<stop stop-color="white"/>
<stop offset="1"/>
</linearGradient>
<linearGradient id="paint7_linear_5_3899" x1="96.4003" y1="35.9454" x2="96.4003" y2="44.8138" gradientUnits="userSpaceOnUse">
<stop stop-color="white"/>
<stop offset="1"/>
</linearGradient>
</defs>
</svg>
