<svg width="1512" height="982" viewBox="0 0 1512 982" fill="none" xmlns="http://www.w3.org/2000/svg">
<g clip-path="url(#clip0_50_14793)">
<rect width="1512" height="982" fill="#F5F5F4"/>
<path opacity="0.25" d="M756 330L756 995" stroke="#D9D9D9" stroke-width="1.5" stroke-linecap="round" stroke-dasharray="2 6"/>
<path opacity="0.25" d="M480 995V875.923C480 872.612 482.039 869.644 485.129 868.456L602.871 823.186C605.961 821.998 608 819.029 608 815.719V772" stroke="#A8A8A8" stroke-opacity="0.5"/>
<path opacity="0.25" d="M903 772V815.719C903 819.029 905.039 821.998 908.129 823.186L1025.87 868.456C1028.96 869.644 1031 872.612 1031 875.923V995" stroke="#A8A8A8" stroke-opacity="0.5"/>
<path opacity="0.9" d="M565 102V130.492C565 133.809 567.047 136.782 570.145 137.966L648.855 168.034C651.953 169.218 654 172.191 654 175.508V204" stroke="#A8A8A8" stroke-opacity="0.5"/>
<path opacity="0.9" d="M857 204V175.508C857 172.191 859.047 169.218 862.145 168.034L940.855 137.966C943.953 136.782 946 133.809 946 130.492V102" stroke="#A8A8A8" stroke-opacity="0.5"/>
<g filter="url(#filter0_dd_50_14793)">
<g clip-path="url(#clip1_50_14793)">
<g clip-path="url(#clip2_50_14793)">
<rect x="756" y="-147" width="383" height="1200" fill="#7E7E7E" fill-opacity="0.1"/>
</g>
</g>
<path d="M373.5 228C373.5 222.329 373.501 218.126 373.935 214.899C374.367 211.687 375.219 209.517 376.868 207.868C378.517 206.219 380.687 205.367 383.899 204.935C387.126 204.501 391.329 204.5 397 204.5H1115C1120.67 204.5 1124.87 204.501 1128.1 204.935C1131.31 205.367 1133.48 206.219 1135.13 207.868C1136.78 209.517 1137.63 211.687 1138.07 214.899C1138.5 218.126 1138.5 222.329 1138.5 228V678C1138.5 683.671 1138.5 687.874 1138.07 691.101C1137.63 694.313 1136.78 696.483 1135.13 698.132C1133.48 699.781 1131.31 700.633 1128.1 701.065C1124.87 701.499 1120.67 701.5 1115 701.5H397C391.329 701.5 387.126 701.499 383.899 701.065C380.687 700.633 378.517 699.781 376.868 698.132C375.219 696.483 374.367 694.313 373.935 691.101C373.501 687.874 373.5 683.671 373.5 678V228Z" stroke="#E4E4E7"/>
</g>
<g opacity="0.6">
<path d="M0 220H213.148C224.193 220 233.148 228.954 233.148 240V380.689C233.148 391.735 242.102 400.689 253.148 400.689H373.036" stroke="#D9D9D9" stroke-width="1.5"/>
<path d="M0 866.984H213.569C224.615 866.984 233.569 858.03 233.569 846.984V707.006C233.569 696.007 242.451 687.072 253.45 687.007L373.036 686.295" stroke="#D9D9D9" stroke-width="1.5"/>
</g>
<g opacity="0.6">
<path d="M1512.04 213H1298.89C1287.84 213 1278.89 221.954 1278.89 233V373.689C1278.89 384.735 1269.93 393.689 1258.89 393.689H1139" stroke="#D9D9D9" stroke-width="1.5"/>
<path d="M1512.04 859.984H1298.47C1287.42 859.984 1278.47 851.03 1278.47 839.984V700.006C1278.47 689.007 1269.59 680.072 1258.59 680.007L1139 679.295" stroke="#D9D9D9" stroke-width="1.5"/>
</g>
<g clip-path="url(#clip3_50_14793)">
<path d="M756.102 576.999L936.701 528.529L1117.3 576.999" stroke="#AEBDDF" stroke-width="2" stroke-miterlimit="10"/>
<path d="M938 543.18V254" stroke="#AEBDDF" stroke-width="2" stroke-miterlimit="10"/>
<path d="M800.661 604.17C800.661 602.213 803.448 600.251 809.021 598.757C820.162 595.769 838.228 595.769 849.369 598.757C854.942 600.251 857.723 602.213 857.723 604.175C857.723 606.136 854.937 608.093 849.369 609.587C838.228 612.576 820.162 612.576 809.021 609.587C803.448 608.079 800.661 606.122 800.661 604.17Z" fill="url(#paint0_linear_50_14793)"/>
<path d="M803.611 520.822V603.37" stroke="url(#paint1_linear_50_14793)" stroke-width="10" stroke-linecap="round" stroke-linejoin="round"/>
<path d="M854.773 520.822V603.37" stroke="url(#paint2_linear_50_14793)" stroke-width="10" stroke-linecap="round" stroke-linejoin="round"/>
<path d="M803.611 540.604C803.611 542.363 806.109 544.117 811.105 545.457C821.095 548.142 837.294 548.142 847.28 545.457C852.275 544.117 854.773 542.363 854.773 540.608V544.619C854.773 546.378 852.275 548.132 847.28 549.472C837.294 552.152 821.095 552.152 811.105 549.472C806.109 548.132 803.611 546.373 803.611 544.619V540.604Z" fill="url(#paint3_linear_50_14793)"/>
<path d="M803.611 540.603C803.611 538.849 806.114 537.09 811.105 535.75C821.095 533.07 837.294 533.07 847.28 535.75C852.28 537.09 854.773 538.849 854.773 540.608C854.773 542.368 852.275 544.117 847.28 545.457C837.294 548.142 821.095 548.142 811.105 545.457C806.119 544.117 803.611 542.363 803.611 540.603Z" fill="url(#paint4_linear_50_14793)"/>
<path d="M803.611 499.995C803.611 501.754 806.109 503.509 811.105 504.849C821.095 507.534 837.294 507.534 847.28 504.849C852.275 503.509 854.773 501.754 854.773 500V539.042C854.773 540.801 852.275 542.556 847.28 543.896C837.294 546.576 821.095 546.576 811.105 543.896C806.109 542.556 803.611 540.796 803.611 539.042V499.995Z" fill="url(#paint5_linear_50_14793)"/>
<path d="M803.611 499.995C803.611 498.241 806.114 496.481 811.105 495.141C821.095 492.461 837.294 492.461 847.28 495.141C852.28 496.481 854.773 498.241 854.773 500C854.773 501.759 852.275 503.509 847.28 504.849C837.294 507.534 821.095 507.534 811.105 504.849C806.119 503.509 803.611 501.754 803.611 499.995Z" fill="url(#paint6_linear_50_14793)"/>
<path d="M847.28 502.588C837.294 499.908 821.095 499.908 811.104 502.588C809.958 502.893 808.833 503.273 807.736 503.726C808.833 504.174 809.958 504.549 811.104 504.849C821.095 507.533 837.294 507.533 847.28 504.849C848.435 504.55 849.568 504.175 850.673 503.726C849.568 503.273 848.435 502.893 847.28 502.588Z" fill="url(#paint7_linear_50_14793)"/>
<path d="M829.137 506.916C829.137 506.916 831.004 468.554 841.649 451.361C854.513 430.572 881.978 442.42 881.02 461.705C880.063 480.989 878.773 493.57 882.945 496.645C882.945 496.645 866.001 484.344 858.609 470.651C851.217 456.957 851.746 442.979 862.646 441.952C862.646 441.952 851.967 437.585 842.987 452.556C834.007 467.527 831.437 506.897 831.437 506.897C831.437 506.897 831.144 507.013 829.137 506.916Z" fill="url(#paint8_linear_50_14793)"/>
<path d="M829.137 506.912C829.137 506.912 828.709 467.826 800.021 465.257C771.334 462.688 764.548 492.702 769.544 513.732C769.988 509.667 772.013 505.941 775.179 503.359C780.473 499.127 778.384 493.348 778.548 488.21C778.712 483.072 809.964 495.271 805.979 467.966C805.979 467.966 827.241 471.981 826.865 506.892L829.137 506.912Z" fill="url(#paint9_linear_50_14793)"/>
<path d="M831.433 506.912C831.433 506.912 831.004 480.296 818.4 444.483C818.4 444.483 826.88 426.996 817.048 419.028C807.216 411.061 791.229 409.629 788.794 400.149C786.359 390.668 771.421 386.069 757.792 390.706C757.792 390.706 756.974 400.64 767.965 407.422C775.92 412.334 780.362 417.154 781.642 429.623C783.274 445.49 799.449 460.654 817.048 446.315C817.048 446.315 828.55 473.123 829.137 506.912H831.433Z" fill="url(#paint10_linear_50_14793)"/>
<path d="M833.358 423.844C833.358 423.844 828.867 412.377 839.98 405.325C851.092 398.274 860.924 402.761 864.557 398.481C868.19 394.201 884.216 400.125 888.061 387.424C888.061 387.424 889.876 406.323 867.546 415.081C845.216 423.839 833.358 423.844 833.358 423.844Z" fill="url(#paint11_linear_50_14793)"/>
<path d="M829.137 506.912C829.137 506.912 820.749 445.886 831.432 423.42C842.116 400.954 884.644 414.575 888.061 387.429C888.061 387.429 890.198 403.518 886.993 410.362C883.788 417.207 878.446 414.43 876.521 421.28C874.596 428.129 845.966 443.967 833.357 423.849C833.357 423.849 828.295 433.243 826.918 454.427C825.542 475.611 830.446 506.917 830.446 506.917L829.137 506.912Z" fill="url(#paint12_linear_50_14793)"/>
<path d="M757.782 390.706C757.782 390.706 756.964 400.64 767.956 407.422C775.92 412.333 780.362 417.153 781.642 429.623C783.274 445.49 799.449 460.654 817.048 446.314C817.048 446.314 798.347 406.371 757.782 390.706Z" fill="url(#paint13_linear_50_14793)"/>
<path d="M829.195 526.973V609.52" stroke="url(#paint14_linear_50_14793)" stroke-width="10" stroke-linecap="round" stroke-linejoin="round"/>
<path d="M1079.95 660.169C1079.95 660.786 1079.06 661.408 1077.3 661.88L1009.45 680.085C1005.91 681.049 1000.19 681.049 996.665 680.085L818.241 632.198C816.475 631.716 815.595 631.104 815.595 630.482C815.595 629.861 816.475 629.239 818.241 628.767L886.098 610.561C889.625 609.597 895.347 609.597 898.88 610.561L1077.32 658.453C1079.06 658.925 1079.95 659.547 1079.95 660.169Z" fill="url(#paint15_linear_50_14793)"/>
<path d="M997.392 675.766C996.289 675.766 995.224 675.369 994.389 674.648C993.555 673.927 993.006 672.93 992.844 671.838L988.46 642.513H1006.32L1001.93 671.838C1001.77 672.929 1001.22 673.925 1000.39 674.646C999.557 675.367 998.493 675.765 997.392 675.766Z" fill="url(#paint16_linear_50_14793)"/>
<path d="M1059.3 659.118C1058.2 659.118 1057.14 658.723 1056.3 658.002C1055.47 657.282 1054.92 656.286 1054.76 655.194L1050.38 625.865H1068.24L1063.86 655.194C1063.69 656.286 1063.14 657.283 1062.31 658.003C1061.47 658.723 1060.41 659.119 1059.3 659.118Z" fill="url(#paint17_linear_50_14793)"/>
<path d="M849.133 637.013C848.031 637.014 846.966 636.618 846.131 635.898C845.296 635.178 844.748 634.181 844.585 633.09L840.206 603.76H858.065L853.685 633.09C853.522 634.182 852.972 635.178 852.137 635.898C851.301 636.618 850.235 637.014 849.133 637.013Z" fill="url(#paint18_linear_50_14793)"/>
<path d="M1085.47 519.126L1085.3 519.082C1081.62 518.244 1077.56 521.917 1076.23 527.276L1055.14 612.012C1053.82 617.314 1055.62 622.259 1059.19 623.214L889.616 577.703C886.054 576.739 884.24 571.789 885.559 566.502L906.647 481.78C907.98 476.406 912.042 472.733 915.719 473.586L915.892 473.63L1085.47 519.126Z" fill="url(#paint19_linear_50_14793)"/>
<path d="M1085.47 519.126C1089.03 520.09 1090.84 525.04 1089.53 530.327L1068.44 615.048C1067.1 620.418 1063.04 624.096 1059.37 623.242L1059.19 623.199C1055.64 622.235 1053.82 617.285 1055.14 611.997L1076.23 527.291C1077.56 521.916 1081.62 518.244 1085.3 519.097L1085.47 519.126Z" fill="url(#paint20_linear_50_14793)"/>
<path d="M991.809 639.761L841.717 599.485L913.635 580.186L1063.73 620.461L991.809 639.761Z" fill="url(#paint21_linear_50_14793)"/>
<path d="M841.731 599.485L827.481 533.707C826.687 530.039 824.344 527.06 821.706 526.351C820.981 526.145 820.214 526.135 819.483 526.322L891.401 507.042C892.13 506.852 892.896 506.862 893.62 507.071C896.271 507.78 898.62 510.759 899.395 514.427L913.635 580.2L841.731 599.485Z" fill="url(#paint22_linear_50_14793)"/>
<path d="M910.112 564.622L838.367 583.873L995.154 625.952L1066.9 606.696L910.112 564.622Z" fill="url(#paint23_linear_50_14793)"/>
<path d="M997.392 654.857C1000.22 654.1 1002.49 651.507 1003.44 647.627L1017.62 589.71C1018.85 584.707 1015.93 578.499 1011.85 577.4C1011.12 577.2 1010.36 577.2 1009.63 577.4L1081.55 558.12C1082.27 557.922 1083.04 557.922 1083.77 558.12C1087.86 559.219 1090.78 565.427 1089.54 570.435L1075.35 628.371C1074.39 632.227 1072.14 634.845 1069.31 635.601L997.392 654.857Z" fill="url(#paint24_linear_50_14793)"/>
<path d="M997.392 654.857C996.158 655.181 994.861 655.169 993.633 654.824L839.888 613.56C835.403 612.355 831.432 607.294 830.09 601.109L815.898 535.557C814.935 530.988 816.62 527.089 819.469 526.327C820.199 526.139 820.966 526.149 821.692 526.356C824.344 527.065 826.687 530.043 827.467 533.711L841.731 599.485L991.823 639.761L1006.06 581.627C1006.62 579.337 1007.98 577.805 1009.63 577.356C1010.36 577.157 1011.12 577.157 1011.85 577.356C1015.94 578.455 1018.86 584.664 1017.62 589.667L1003.43 647.627C1002.47 651.507 1000.22 654.101 997.392 654.857Z" fill="url(#paint25_linear_50_14793)"/>
<path d="M841.717 599.485L838.367 583.873L995.154 625.952L991.809 639.761L841.717 599.485Z" fill="url(#paint26_linear_50_14793)"/>
<path d="M904.818 586.635C931.445 586.635 953.03 580.843 953.03 573.698C953.03 566.553 931.445 560.761 904.818 560.761C878.192 560.761 856.607 566.553 856.607 573.698C856.607 580.843 878.192 586.635 904.818 586.635Z" fill="url(#paint27_linear_50_14793)"/>
<path d="M860.524 616.172L864.504 651.671L877.864 651.276L879.298 615.858L860.524 616.172Z" fill="url(#paint28_linear_50_14793)"/>
<path d="M866.155 647.208C864.475 646.475 862.218 646.794 862.223 650.828C862.223 654.631 863.185 655.956 859.412 660.092C855.413 664.473 851.688 667.867 851.539 670.368C851.39 672.87 854.104 674.793 858.614 672.918C863.123 671.043 873.893 664.42 878.306 661.234C882.917 657.86 880.867 653.488 879.904 650.881C879.434 649.518 878.817 648.211 878.066 646.981C878.066 646.981 878.186 650.182 874.158 650.693C870.13 651.204 869.692 648.746 866.155 647.208Z" fill="url(#paint29_linear_50_14793)"/>
<path d="M881.155 655.445C880.597 656.819 879.642 657.994 878.412 658.819C873.653 662.29 861.958 669.467 857.064 671.501C854.999 672.359 853.286 672.465 852.001 672.132C852.964 673.578 855.288 674.272 858.614 672.894C863.123 671.019 873.893 664.406 878.282 661.21C880.713 659.451 881.3 657.383 881.155 655.445Z" fill="url(#paint30_linear_50_14793)"/>
<path d="M911.71 527.459C911.71 527.459 895.944 534.207 877.613 541.225C865.919 545.708 850.221 556.842 854.032 580.157C857.844 603.471 861.559 627.561 861.559 627.561L879.75 626.385C879.75 626.385 885.246 588.264 884.712 576.99C884.178 565.716 887.262 566.53 889.067 564.583C890.872 562.636 928.857 545.303 928.857 545.303L911.71 527.459Z" fill="url(#paint31_linear_50_14793)"/>
<path d="M844.08 638.479L833.521 672.599L845.923 677.602L861.405 645.728L844.08 638.479Z" fill="url(#paint32_linear_50_14793)"/>
<path d="M903.283 548.542C903.283 548.542 895.261 551.063 884.625 555.526C874.658 559.71 865.168 565.084 859.475 579.723C853.782 594.361 841.115 644.571 841.115 644.571L859.364 651.936C859.364 651.936 866.304 639.149 876.381 621.04C885.607 604.469 887.426 589.936 891.262 585.372C895.097 580.807 931.898 582.176 943.174 569.172C952.77 558.086 951.259 540.927 949.401 536.396L918.659 518.957C918.659 518.957 910.834 527.855 899.784 532.4C892.903 535.244 903.283 548.542 903.283 548.542Z" fill="url(#paint33_linear_50_14793)"/>
<path d="M836.823 669.172C835.576 667.828 833.377 667.215 831.765 670.912C830.249 674.397 830.6 675.998 825.508 678.273C820.094 680.683 815.325 682.297 814.189 684.539C813.054 686.78 814.767 689.624 819.647 689.715C824.527 689.807 837.044 688.076 842.342 686.905C847.915 685.676 847.79 680.842 847.949 678.06C848.063 676.624 848.021 675.179 847.824 673.751C847.824 673.751 846.654 676.735 842.761 675.583C838.868 674.431 839.445 672.002 836.823 669.172Z" fill="url(#paint34_linear_50_14793)"/>
<path d="M847.713 680.832C846.991 682.712 845.538 684.389 842.496 685.059C836.813 686.312 823.4 688.168 818.169 688.072C816.766 688.089 815.379 687.772 814.122 687.146C814.786 688.52 816.596 689.643 819.623 689.701C824.507 689.792 837.02 688.062 842.318 686.891C846.279 686.018 847.362 683.319 847.713 680.832Z" fill="url(#paint35_linear_50_14793)"/>
<path d="M891.324 511.221C895.025 506.435 905.155 488.519 914.857 477.963C924.559 467.408 937.553 477.804 927.148 490.225C916.744 502.647 908.5 514.624 902.402 520.693C895.785 527.296 885.564 518.678 891.324 511.221Z" fill="url(#paint36_linear_50_14793)"/>
<path d="M951.168 547.81C951.168 547.81 949.502 528.048 953.935 509.062C956.442 498.337 967.631 489.401 961.471 480.098C959.007 476.377 939.05 465.923 923.789 472.304C917.23 475.047 916.907 476.85 913.567 483.091C909.809 490.124 908.755 495.141 909.934 499.961C915.069 520.871 903.009 530.906 903.009 530.906C903.009 530.906 911.614 548.643 951.168 547.81Z" fill="url(#paint37_linear_50_14793)"/>
<path d="M910.55 502.801C911.849 509.987 911.094 515.767 909.645 520.153C928.12 522.977 944.945 509.067 944.945 509.067C926.094 512.407 913.919 507.857 910.55 502.801Z" fill="url(#paint38_linear_50_14793)"/>
<path d="M943.987 458.722C943.987 458.722 942.847 470.357 949.632 473.182C946.843 474.148 944.111 475.275 941.451 476.556C928.838 482.489 919.891 493.792 919.891 493.792C919.891 493.792 919.097 478.691 926.759 471.461C928.287 470.054 929.472 468.315 930.223 466.377C930.974 464.439 931.271 462.354 931.09 460.283L943.987 458.722Z" fill="url(#paint39_linear_50_14793)"/>
<path d="M856.607 544.518C856.607 544.85 857.088 545.183 858.05 545.438L900.646 556.871C902.899 557.377 905.236 557.377 907.489 556.871L931.234 550.499C932.197 550.244 932.649 549.911 932.649 549.579V550.755C932.649 551.087 932.168 551.42 931.234 551.675L907.465 558.042C905.213 558.553 902.874 558.553 900.622 558.042L858.026 546.614C857.064 546.359 856.583 546.026 856.583 545.694L856.607 544.518Z" fill="url(#paint40_linear_50_14793)"/>
<path d="M856.607 544.518C856.607 544.185 857.088 543.852 858.051 543.602L881.791 537.23C884.044 536.724 886.381 536.724 888.634 537.23L931.234 548.663C932.197 548.913 932.649 549.246 932.649 549.579C932.649 549.911 932.168 550.244 931.234 550.499L907.489 556.871C905.236 557.377 902.899 557.377 900.646 556.871L858.051 545.438C857.078 545.183 856.607 544.85 856.607 544.518Z" fill="url(#paint41_linear_50_14793)"/>
<path d="M914.694 552.466C914.694 552.572 914.54 552.673 914.246 552.75L905.93 555.006C905.221 555.169 904.483 555.169 903.774 555.006L863.744 544.262C863.44 544.185 863.296 544.079 863.296 543.973C863.296 543.867 863.445 543.766 863.744 543.684L872.05 541.428C872.762 541.269 873.499 541.269 874.211 541.428L914.241 552.172C914.549 552.254 914.694 552.36 914.694 552.466Z" fill="url(#paint42_linear_50_14793)"/>
<path d="M912.403 545.414C912.403 545.496 912.278 545.578 912.047 545.641L905.887 547.294C905.32 547.424 904.731 547.424 904.164 547.294L887.551 542.835C887.31 542.773 887.195 542.686 887.195 542.604C887.195 542.522 887.32 542.44 887.551 542.377L893.711 540.724C894.278 540.594 894.867 540.594 895.434 540.724L912.047 545.178C912.287 545.245 912.403 545.332 912.403 545.414Z" fill="url(#paint43_linear_50_14793)"/>
<path d="M856.573 504.878C856.982 504.765 857.415 504.765 857.824 504.878L900.444 516.34C902.33 516.846 903.865 519.347 903.865 521.926V554.326C903.865 556.302 902.965 557.748 901.69 558.091C901.282 558.199 900.852 558.199 900.444 558.091L857.843 546.658C855.957 546.176 854.422 543.65 854.422 541.071V508.657C854.403 506.68 855.302 505.234 856.573 504.878Z" fill="url(#paint44_linear_50_14793)"/>
<path d="M875.462 526.568C875.892 526.453 876.346 526.453 876.776 526.568C878.768 527.098 880.38 529.735 880.38 532.448C880.38 534.531 879.418 536.054 878.095 536.41C877.663 536.528 877.208 536.528 876.776 536.41C874.788 535.875 873.176 533.244 873.176 530.53C873.176 528.443 874.124 526.92 875.462 526.568Z" fill="url(#paint45_linear_50_14793)"/>
<path d="M960.446 529.542C958.824 523.715 950.527 504.873 947.89 490.789C945.253 476.705 961.317 472.473 965.052 488.239C968.786 504.006 973.632 518.981 974.85 527.503C976.168 536.757 962.973 538.618 960.446 529.542Z" fill="url(#paint46_linear_50_14793)"/>
<path d="M932.115 534.762C932.115 534.762 955.999 523.098 964.936 520.649C975.273 517.82 979.248 533.142 968.844 535.49C954.888 538.637 928.862 542.811 926.869 543.452C924.877 544.093 923.924 545.636 922.163 545.968C921.19 546.116 920.283 546.546 919.554 547.207C919.554 547.207 917.697 551.574 917.056 551.926C916.416 552.278 915.42 552.177 916.094 550.412C916.768 548.648 917.591 546.301 917.591 546.301C917.591 546.301 914.973 550.6 914.27 551.839C913.875 552.538 911.912 552.109 912.749 550.461L915.242 545.554L910.661 551.68C909.698 552.972 906.945 552.23 908.654 549.8C909.992 547.872 912.841 543.978 912.841 543.978C912.841 543.978 908.221 548.002 906.69 548.836C905.16 549.67 904.202 548.513 905.959 546.701C907.715 544.889 913.659 539.143 915.454 537.755C917.249 536.367 932.115 534.762 932.115 534.762Z" fill="url(#paint47_linear_50_14793)"/>
<path d="M945.903 457.232C946.264 454.268 946.581 443.095 939.237 438.641C931.893 434.188 920.651 438.502 918.803 443.943C916.955 449.385 919.824 454.47 919.766 456.567C919.786 459.325 920.275 462.06 921.21 464.655C922.807 468.911 925.137 472.198 928.26 472.516C931.6 472.849 944.82 466.173 945.903 457.232Z" fill="url(#paint48_linear_50_14793)"/>
<path d="M919.145 443.818C919.145 443.818 917.413 446.734 918.885 451.718C920.358 456.702 920.122 458.081 920.223 460.004C920.574 466.535 925.517 471.36 925.517 471.36C925.517 471.36 920.079 475.148 915.892 470.535C909.559 463.58 917.48 445.385 917.48 445.385C917.48 445.385 916.402 437.779 923.202 433.768C930.368 429.546 945.311 430.688 949.04 440.261C952.77 449.834 952.371 458.678 958.632 467.041C954.618 471.278 948.684 475.514 942.75 473.977C934.714 471.895 938.496 461.3 938.819 458.818C939.897 450.46 932.456 449.549 924.694 448.696C920.026 448.204 919.145 443.818 919.145 443.818Z" fill="url(#paint49_linear_50_14793)"/>
<path d="M924.141 458.182C924.141 458.182 923.606 462.52 923.549 463.305C923.491 464.091 924.439 465.233 925.926 464.404" stroke="#2E405C" stroke-miterlimit="10" stroke-linecap="round"/>
<path d="M929.627 458.302C930.238 458.302 930.734 457.806 930.734 457.194C930.734 456.581 930.238 456.085 929.627 456.085C929.015 456.085 928.52 456.581 928.52 457.194C928.52 457.806 929.015 458.302 929.627 458.302Z" fill="#2E405C"/>
<path d="M921.604 458.919C922.216 458.919 922.711 458.423 922.711 457.811C922.711 457.198 922.216 456.702 921.604 456.702C920.993 456.702 920.497 457.198 920.497 457.811C920.497 458.423 920.993 458.919 921.604 458.919Z" fill="#2E405C"/>
<path d="M928.096 453.55C928.096 453.55 929.718 452.017 931.865 453.55" stroke="#2E405C" stroke-miterlimit="10" stroke-linecap="round"/>
<path d="M919.386 454.268C919.386 454.268 921.008 452.74 923.154 454.268" stroke="#2E405C" stroke-miterlimit="10" stroke-linecap="round"/>
<path d="M928.096 467.282C928.096 467.282 931.542 466.13 931.465 462.881" stroke="#2E405C" stroke-miterlimit="10" stroke-linecap="round"/>
<path d="M998.994 495.57C998.994 495.57 996.978 452.788 995.062 438.024C993.479 425.81 973.146 427.285 972.992 441.307C972.915 448.334 976.274 489.473 976.274 489.473L998.994 495.57Z" fill="url(#paint50_linear_50_14793)"/>
<path d="M993.152 494.009C993.152 494.009 981.491 464.159 975.379 449.342C969.267 434.525 975.379 430.014 990.659 426.471C1005.94 422.928 1030.7 420.099 1036.49 435.687C1042.28 451.275 1061.97 512.407 1061.97 512.407L993.152 494.009Z" fill="url(#paint51_linear_50_14793)"/>
<path d="M980.967 429.604C980.967 429.604 986.347 441.519 990.592 442.946C994.855 440.565 1005.36 424.027 1005.36 424.027C1005.36 424.027 997.363 418.046 997.469 409.297L983.084 412.03C983.084 412.03 985.774 426.394 980.967 429.604Z" fill="url(#paint52_linear_50_14793)"/>
<path d="M1003.1 421.974C1003.1 421.974 1002.44 433.345 990.587 442.97L995.029 440.493L1002.47 445.351C1002.47 445.351 1004.88 431.012 1005.36 424.027L1003.1 421.974Z" fill="url(#paint53_linear_50_14793)"/>
<path d="M990.577 442.946L986.756 442.107L984.133 449L980.967 429.604L983.171 426.124C982.824 429.332 983.326 432.575 984.626 435.528C985.926 438.481 987.978 441.039 990.577 442.946Z" fill="url(#paint54_linear_50_14793)"/>
<path d="M1056.16 469.123C1049.21 457.642 1042.16 442.821 1033.39 430.795C1026.14 420.851 1009.02 431.932 1015.61 444.291C1018.92 450.489 1032.94 472.772 1039.27 480.812C1045.61 488.852 1062.99 480.402 1056.16 469.123Z" fill="url(#paint55_linear_50_14793)"/>
<path d="M1004.39 474.956C1004.39 474.956 989.899 478.951 982.795 480.614C976.818 482.017 975.471 481.467 969.777 480.59C964.084 479.713 959.633 479.626 956.923 482.605C954.404 485.401 952.038 488.331 949.834 491.382C949.132 492.38 950.292 494.64 952.491 493.026C953.54 492.255 957.044 488.244 958.064 487.078C958.064 487.078 957.101 491.054 957.583 492.462C958.064 493.869 960.249 494.211 962.265 492.549C962.265 492.549 963.083 497.195 966.245 494.452C966.245 494.452 969.219 496.655 971.621 494.39C974.022 492.124 977.155 492.462 979.234 492.756C981.313 493.05 1008.14 489.816 1008.14 489.816L1004.39 474.956Z" fill="url(#paint56_linear_50_14793)"/>
<path d="M986.52 479.708C986.52 479.708 1037.6 464.959 1043.02 463.99C1057.73 461.363 1064.68 480.252 1046.87 484.123C1029.06 487.993 991.097 491.739 991.097 491.739C991.097 491.739 990.89 481.968 986.52 479.708Z" fill="url(#paint57_linear_50_14793)"/>
<path d="M1000.85 417.993C1001.12 414.754 1001.03 402.569 992.868 398.019C984.701 393.468 972.655 398.587 970.841 404.583C969.027 410.579 972.357 415.992 972.357 418.277C972.492 421.279 973.133 424.237 974.253 427.025C976.178 431.59 978.82 435.08 982.232 435.301C985.885 435.542 1000.01 427.758 1000.85 417.993Z" fill="url(#paint58_linear_50_14793)"/>
<path d="M993.325 396.259C993.325 396.259 986.876 390.229 977.925 395.262C971.019 399.118 967.217 403.687 966.693 407.35C966.168 411.013 970.783 412.17 970.783 412.17C970.783 412.17 970.302 410.387 972.521 409.842C975.264 409.158 977.006 413.288 980.764 408.584C984.523 403.88 990.197 408.285 991.029 411.216C991.862 414.146 992.805 421.468 991.029 425.444C989.841 428.11 985.476 425.787 982.227 425.95C980.505 426.037 980.586 426.813 979.821 426.914C979.056 427.016 978.762 426.346 977.785 426.958C975.264 428.539 973.935 427.368 972.805 422.032C972.805 422.032 973.897 426.592 974.523 431.19C975.148 435.788 976.298 439.244 980.894 439.345C985.49 439.446 996.294 434.116 994.461 423.28C993.643 418.484 993.585 415.038 996.083 414.204C998.431 413.423 1001.66 416.807 997.647 422.369C996.631 423.781 997.464 425.815 998.556 424.182C999.649 422.548 1004.37 418.475 1003.6 410.377C1003.25 406.82 1001.78 397.233 993.325 396.259Z" fill="url(#paint59_linear_50_14793)"/>
<path d="M977.747 419.858C977.747 419.858 977.213 424.196 977.15 424.982C977.088 425.767 978.045 426.91 979.528 426.081" stroke="#2E405C" stroke-miterlimit="10" stroke-linecap="round"/>
<path d="M983.233 419.978C983.845 419.978 984.34 419.482 984.34 418.87C984.34 418.258 983.845 417.761 983.233 417.761C982.622 417.761 982.126 418.258 982.126 418.87C982.126 419.482 982.622 419.978 983.233 419.978Z" fill="#2E405C"/>
<path d="M975.206 420.596C975.817 420.596 976.313 420.099 976.313 419.487C976.313 418.875 975.817 418.378 975.206 418.378C974.595 418.378 974.099 418.875 974.099 419.487C974.099 420.099 974.595 420.596 975.206 420.596Z" fill="#2E405C"/>
<path d="M913.332 387.424H856.924C856.146 387.424 855.514 388.057 855.514 388.837V388.841C855.514 389.621 856.146 390.254 856.924 390.254H913.332C914.11 390.254 914.742 389.621 914.742 388.841V388.837C914.742 388.057 914.11 387.424 913.332 387.424Z" fill="url(#paint60_linear_50_14793)"/>
<path d="M879.644 397.045H856.924C856.146 397.045 855.514 397.677 855.514 398.457V398.462C855.514 399.242 856.146 399.874 856.924 399.874H879.644C880.423 399.874 881.054 399.242 881.054 398.462V398.457C881.054 397.677 880.423 397.045 879.644 397.045Z" fill="url(#paint61_linear_50_14793)"/>
</g>
<g filter="url(#filter1_dddd_50_14793)">
<rect x="632" y="52" width="248" height="62" rx="10" fill="#F5F5F5" shape-rendering="crispEdges"/>
<rect x="632" y="52" width="248" height="62" rx="10" stroke="url(#paint62_linear_50_14793)" stroke-width="1.5" shape-rendering="crispEdges"/>
<g mask="url(#mask0_50_14793)">
<path d="M688.452 78.707H662.35V95.9083H688.452V78.707Z" fill="url(#paint63_linear_50_14793)"/>
</g>
<mask id="mask1_50_14793" style="mask-type:luminance" maskUnits="userSpaceOnUse" x="658" y="70" width="14" height="16">
</mask>
<mask id="mask3_50_14793" style="mask-type:luminance" maskUnits="userSpaceOnUse" x="679" y="70" width="14" height="16">
</mask>
<mask id="mask4_50_14793" style="mask-type:luminance" maskUnits="userSpaceOnUse" x="664" y="78" width="4" height="8">
<path d="M667.602 78.7378H664.709V85.9834H667.602V78.7378Z" fill="url(#paint64_linear_50_14793)"/>
</mask>
<g mask="url(#mask4_50_14793)">
<path fill-rule="evenodd" clip-rule="evenodd" d="M665.272 85.9834C665.272 85.9834 664.439 82.4308 667.602 79.609L666.732 78.7378C665.021 80.7635 664.015 83.3297 665.272 85.9834Z" fill="#102770"/>
</g>
<mask id="mask5_50_14793" style="mask-type:luminance" maskUnits="userSpaceOnUse" x="683" y="78" width="4" height="8">
<path d="M686.095 78.7378H683.202V85.9834H686.095V78.7378Z" fill="url(#paint65_linear_50_14793)"/>
</mask>
<g mask="url(#mask5_50_14793)">
<path fill-rule="evenodd" clip-rule="evenodd" d="M685.532 85.9834C685.532 85.9834 686.364 82.4308 683.201 79.609L684.072 78.7378C685.782 80.7635 686.788 83.3297 685.532 85.9834Z" fill="#102770"/>
</g>
<mask id="mask6_50_14793" style="mask-type:luminance" maskUnits="userSpaceOnUse" x="668" y="89" width="14" height="7">
<path d="M681.926 89.5903H668.875V95.5536H681.926V89.5903Z" fill="url(#paint66_linear_50_14793)"/>
</mask>
<g mask="url(#mask6_50_14793)">
<path fill-rule="evenodd" clip-rule="evenodd" d="M681.926 89.5903C674.906 93.8016 668.875 89.5903 668.875 89.5903L671.051 91.767L673.85 94.5681C675.124 95.8428 675.613 95.9082 676.916 94.6047L679.751 91.767L681.926 89.5903Z" fill="#39D4FF"/>
</g>
<mask id="mask7_50_14793" style="mask-type:luminance" maskUnits="userSpaceOnUse" x="679" y="70" width="14" height="9">
<path d="M692.803 70H679.752V78.7067H692.803V70Z" fill="url(#paint67_linear_50_14793)"/>
</mask>
<g mask="url(#mask7_50_14793)">
<path fill-rule="evenodd" clip-rule="evenodd" d="M679.752 74.3534C679.752 74.3534 687.576 74.38 692.803 78.7067L688.452 74.3534L684.102 70L679.752 74.3534Z" fill="#2983D3"/>
</g>
<mask id="mask8_50_14793" style="mask-type:luminance" maskUnits="userSpaceOnUse" x="658" y="70" width="14" height="9">
<path d="M671.051 70.0005H658V78.7072H671.051V70.0005Z" fill="url(#paint68_linear_50_14793)"/>
</mask>
<g mask="url(#mask8_50_14793)">
<path fill-rule="evenodd" clip-rule="evenodd" d="M671.051 74.3539C671.051 74.3539 663.226 74.3805 658 78.7072L662.35 74.3539L666.701 70.0005L671.051 74.3539Z" fill="#2983D3"/>
</g>
<mask id="mask9_50_14793" style="mask-type:luminance" maskUnits="userSpaceOnUse" x="671" y="70" width="9" height="5">
<path d="M679.751 70H671.05V74.3534H679.751V70Z" fill="url(#paint69_linear_50_14793)"/>
</mask>
<g mask="url(#mask9_50_14793)">
<path fill-rule="evenodd" clip-rule="evenodd" d="M671.051 74.3534C671.051 74.3534 676.547 74.0491 679.751 74.3534L675.401 70L671.051 74.3534Z" fill="#2983D3"/>
</g>
</g>
</g>
<defs>
<clipPath id="clip2_50_14793">
</clipPath>
<clipPath id="clip3_50_14793">
</clipPath>
</defs>
</svg>
