<svg width="234" height="31" viewBox="0 0 234 31" fill="none" xmlns="http://www.w3.org/2000/svg">
<path d="M233.837 2.56287L228.289 7.74198H221.409V10.5021H233.837L228.289 15.6812H221.44V19.0926H228.289L233.837 24.2717H215.459V2.56287H233.837Z" fill="#1E96FC"/>
<path d="M202.304 10.7502C203.915 10.7502 205.279 10.9466 206.395 11.3394C207.51 11.7116 208.409 12.2181 209.091 12.859C209.793 13.5 210.299 14.2236 210.609 15.0299C210.94 15.8362 211.105 16.6736 211.105 17.5419C211.105 18.431 210.93 19.3097 210.578 20.178C210.248 21.0464 209.7 21.832 208.936 22.535C208.171 23.2379 207.169 23.8065 205.93 24.2407C204.69 24.6749 203.182 24.8919 201.405 24.8919C200.537 24.8919 199.7 24.7989 198.895 24.6128C198.089 24.4474 197.345 24.22 196.663 23.9305C195.981 23.6411 195.362 23.3206 194.804 22.9692C194.267 22.6177 193.802 22.2559 193.409 21.8837L197.562 18.1002C197.975 18.5757 198.512 18.9685 199.174 19.2786C199.835 19.5681 200.651 19.7128 201.622 19.7128C202.738 19.7128 203.595 19.5371 204.194 19.1856C204.814 18.8135 205.124 18.4103 205.124 17.9761C205.124 17.5006 204.773 17.0664 204.07 16.6736C203.368 16.2808 202.262 16.0843 200.754 16.0843C199.122 16.0843 197.748 15.8983 196.632 15.5261C195.517 15.1333 194.608 14.6267 193.905 14.0065C193.223 13.3656 192.727 12.6419 192.418 11.8356C192.108 11.0086 191.953 10.1713 191.953 9.32358C191.953 8.43455 192.118 7.55586 192.449 6.6875C192.8 5.79847 193.358 5.00248 194.122 4.29953C194.886 3.59657 195.889 3.02801 197.128 2.59383C198.368 2.15965 199.876 1.94257 201.653 1.94257C202.521 1.94257 203.357 2.0356 204.163 2.22168C204.969 2.38708 205.713 2.61451 206.395 2.90396C207.076 3.19341 207.686 3.51387 208.223 3.86535C208.781 4.21683 209.256 4.57864 209.649 4.9508L205.496 8.73434C205.083 8.25881 204.545 7.87632 203.884 7.58687C203.223 7.27674 202.407 7.12168 201.436 7.12168C200.32 7.12168 199.452 7.30776 198.833 7.67991C198.234 8.03139 197.934 8.42421 197.934 8.85839C197.934 9.33392 198.285 9.7681 198.988 10.1609C199.69 10.5537 200.795 10.7502 202.304 10.7502Z" fill="#1E96FC"/>
<path d="M166.357 24.2717V17.1388L172.029 11.9287H178.971C179.9 11.9287 180.592 11.7116 181.047 11.2774C181.502 10.8432 181.729 10.3574 181.729 9.81983C181.729 9.28228 181.502 8.80675 181.047 8.39325C180.592 7.95907 179.9 7.74198 178.971 7.74198H170.696L166.357 2.56287H179.869C181.171 2.56287 182.307 2.77995 183.278 3.21413C184.249 3.62763 185.055 4.17552 185.696 4.8578C186.357 5.54008 186.842 6.3154 187.152 7.18375C187.483 8.05211 187.648 8.94114 187.648 9.85084C187.648 10.5331 187.555 11.2051 187.369 11.8667C187.183 12.5076 186.915 13.1278 186.563 13.7274C186.212 14.3063 185.768 14.8335 185.231 15.3091C184.694 15.7639 184.063 16.1464 183.34 16.4565L188.237 24.2717H182.287L177.824 17.1078H172.307V24.2717H166.357Z" fill="#1E96FC"/>
<path d="M162.03 2.56287L159.155 7.74198H149.603V10.5021H162.03L156.483 15.6812H149.634V19.0926H156.483L162.03 24.2717H143.652V2.56287H162.03Z" fill="#1E96FC"/>
<path d="M120.033 12.4002L125.557 8.7654L128.47 19.1546L133.212 4.86381L139.317 2.56287L133.212 24.2717H123.729L120.033 12.4002Z" fill="#1E96FC"/>
<path d="M103.242 2.56287V19.0926H115.638V24.2717H97.2606V8.11413L103.242 2.56287Z" fill="#102770"/>
<path d="M93.5229 2.56287L87.4093 7.74198H81.0954V10.5021H93.5229L87.9755 15.6812H81.1264V19.0926H85.8764L93.5229 24.2717H75.1451V2.56287H93.5229Z" fill="#102770"/>
<path d="M64.2435 24.2717V2.56287L70.1938 6.13099V24.2717H64.2435Z" fill="#102770"/>
<path d="M38.0286 24.2717V17.1388L43.6999 11.9287H50.642C51.5717 11.9287 52.2638 11.7116 52.7184 11.2774C53.1729 10.8433 53.4002 10.3574 53.4002 9.81984C53.4002 9.28229 53.1729 8.80676 52.7184 8.39325C52.2638 7.95908 51.5717 7.74199 50.642 7.74199H42.3673L38.0286 2.56287H51.5407C52.8423 2.56287 53.9787 2.77996 54.9497 3.21414C55.9208 3.62764 56.7266 4.17553 57.367 4.85781C58.0282 5.54009 58.5137 6.31541 58.8236 7.18376C59.1542 8.05212 59.3195 8.94115 59.3195 9.85085C59.3195 10.5331 59.2265 11.2051 59.0406 11.8667C58.8546 12.5076 58.586 13.1279 58.2348 13.7274C57.8836 14.3063 57.4394 14.8336 56.9022 15.3091C56.365 15.7639 55.7348 16.1464 55.0117 16.4565L59.9083 24.2717H53.958L49.4953 17.1078H43.9789V24.2717H38.0286Z" fill="#102770"/>
<mask id="mask0_433_1421" style="mask-type:luminance" maskUnits="userSpaceOnUse" x="5" y="10" width="32" height="21">
<path d="M15.5699 15.5814L10.3797 10.3876L5.18958 15.5814L10.3797 20.7752L15.5699 25.9689L18.9093 29.3107C20.429 30.8314 21.0131 30.9095 22.5671 29.3544L25.9502 25.9689L31.1404 20.7752L36.3305 15.5814L31.1404 10.3877L25.9502 15.5814C24.9369 16.5954 22.1186 19.7708 20.76 19.7708C19.4014 19.7708 16.5831 16.5954 15.5699 15.5814Z" fill="white"/>
</mask>
<g mask="url(#mask0_433_1421)">
<path d="M36.3308 10.3876H5.18982V30.9094H36.3308V10.3876Z" fill="url(#paint0_linear_433_1421)"/>
</g>
<mask id="mask1_433_1421" style="mask-type:luminance" maskUnits="userSpaceOnUse" x="0" y="0" width="16" height="20">
<path d="M11.2788 9.48874L15.5705 5.19413L10.3803 0.000362396L5.19018 5.19413L0 10.3879L5.19018 15.5816L8.67525 19.0691C6.97559 15.4787 8.74702 12.0223 11.2788 9.48874Z" fill="white"/>
</mask>
<g mask="url(#mask1_433_1421)">
<path d="M15.5705 0.000434875L0 0.000434875L0 19.0692H15.5705V0.000434875Z" fill="#1E96FC"/>
</g>
<mask id="mask2_433_1421" style="mask-type:luminance" maskUnits="userSpaceOnUse" x="15" y="0" width="11" height="11">
<path d="M20.7606 10.3874L25.9507 5.19373L20.7606 2.55843e-05L15.5705 5.19371L20.7606 10.3874Z" fill="white"/>
</mask>
<g mask="url(#mask2_433_1421)">
<path d="M25.9498 6.10352e-05L15.5695 6.10352e-05V10.3876H25.9498V6.10352e-05Z" fill="#1E96FC"/>
</g>
<mask id="mask3_433_1421" style="mask-type:luminance" maskUnits="userSpaceOnUse" x="25" y="0" width="17" height="20">
<path d="M30.2432 9.48844L25.9515 5.19382L31.1417 6.10352e-05L36.3319 5.19382L41.522 10.3876L36.3319 15.5813L32.8468 19.0688C34.5465 15.4784 32.775 12.022 30.2432 9.48844Z" fill="white"/>
</mask>
<g mask="url(#mask3_433_1421)">
<path d="M41.5217 0.000118256L25.9512 0.000118256V19.0689H41.5217V0.000118256Z" fill="#1E96FC"/>
</g>
<mask id="mask4_433_1421" style="mask-type:luminance" maskUnits="userSpaceOnUse" x="8" y="10" width="4" height="10">
<path d="M11.4557 10.4245H8.00403V19.0689H11.4557V10.4245Z" fill="url(#paint1_linear_433_1421)"/>
</mask>
<g mask="url(#mask4_433_1421)">
<path fill-rule="evenodd" clip-rule="evenodd" d="M8.67523 19.0689C8.67523 19.0689 7.68178 14.8305 11.4558 11.4639L10.4172 10.4246C8.37665 12.8413 7.17655 15.903 8.67523 19.0689Z" fill="#1E96FC"/>
</g>
<mask id="mask5_433_1421" style="mask-type:luminance" maskUnits="userSpaceOnUse" x="30" y="10" width="4" height="10">
<path d="M33.5187 10.4245H30.067V19.0689H33.5187V10.4245Z" fill="url(#paint2_linear_433_1421)"/>
</mask>
<g mask="url(#mask5_433_1421)">
<path fill-rule="evenodd" clip-rule="evenodd" d="M32.8468 19.0688C32.8468 19.0688 33.8402 14.8305 30.0662 11.4639L31.1048 10.4245C33.1453 12.8412 34.3455 15.9029 32.8468 19.0688Z" fill="#1E96FC"/>
</g>
<mask id="mask6_433_1421" style="mask-type:luminance" maskUnits="userSpaceOnUse" x="12" y="23" width="17" height="8">
<path d="M28.5444 23.3719H12.9739V30.4864H28.5444V23.3719Z" fill="url(#paint3_linear_433_1421)"/>
</mask>
<g mask="url(#mask6_433_1421)">
<path fill-rule="evenodd" clip-rule="evenodd" d="M28.5452 23.372C20.1698 28.3962 12.9747 23.372 12.9747 23.372L15.5698 25.9689L18.9093 29.3107C20.429 30.8314 21.013 30.9095 22.567 29.3544L25.9501 25.9689L28.5452 23.372Z" fill="#1E96FC"/>
</g>
<mask id="mask7_433_1421" style="mask-type:luminance" maskUnits="userSpaceOnUse" x="25" y="0" width="17" height="11">
<path d="M41.522 6.10352e-05L25.9515 6.10352e-05V10.3876H41.522V6.10352e-05Z" fill="url(#paint4_linear_433_1421)"/>
</mask>
<g mask="url(#mask7_433_1421)">
<path fill-rule="evenodd" clip-rule="evenodd" d="M25.9508 5.19376C25.9508 5.19376 35.2861 5.22551 41.5213 10.3875L36.3311 5.19376L31.141 0L25.9508 5.19376Z" fill="#0E3E67" fill-opacity="0.45"/>
</g>
<mask id="mask8_433_1421" style="mask-type:luminance" maskUnits="userSpaceOnUse" x="0" y="0" width="16" height="11">
<path d="M15.5705 0.000362396L0 0.000362396L0 10.3879H15.5705V0.000362396Z" fill="url(#paint5_linear_433_1421)"/>
</mask>
<g mask="url(#mask8_433_1421)">
<path fill-rule="evenodd" clip-rule="evenodd" d="M15.5705 5.19407C15.5705 5.19407 6.23516 5.22581 0 10.3878L5.19018 5.19407L10.3803 0.000305176L15.5705 5.19407Z" fill="#0E3E67" fill-opacity="0.45"/>
</g>
<mask id="mask9_433_1421" style="mask-type:luminance" maskUnits="userSpaceOnUse" x="15" y="0" width="11" height="6">
<path d="M25.9495 6.10352e-05L15.5692 6.10352e-05V5.19382H25.9495V6.10352e-05Z" fill="url(#paint6_linear_433_1421)"/>
</mask>
<g mask="url(#mask9_433_1421)">
<path fill-rule="evenodd" clip-rule="evenodd" d="M15.5698 5.1938C15.5698 5.1938 22.1274 4.8308 25.9501 5.1938L20.76 4.19617e-05L15.5698 5.1938Z" fill="#0E3E67" fill-opacity="0.45"/>
</g>
<defs>
<linearGradient id="paint0_linear_433_1421" x1="20.7603" y1="12.8396" x2="20.7603" y2="30.4861" gradientUnits="userSpaceOnUse">
<stop stop-color="#1E96FC"/>
<stop offset="1" stop-color="#3174AC"/>
</linearGradient>
<linearGradient id="paint1_linear_433_1421" x1="11.2304" y1="8.74025" x2="8.56175" y2="19.4076" gradientUnits="userSpaceOnUse">
<stop stop-color="white"/>
<stop offset="1"/>
</linearGradient>
<linearGradient id="paint2_linear_433_1421" x1="30.2923" y1="8.74015" x2="32.961" y2="19.4075" gradientUnits="userSpaceOnUse">
<stop stop-color="white"/>
<stop offset="1"/>
</linearGradient>
<linearGradient id="paint3_linear_433_1421" x1="20.7591" y1="37.4104" x2="20.7591" y2="23.3324" gradientUnits="userSpaceOnUse">
<stop stop-color="white"/>
<stop offset="1"/>
</linearGradient>
<linearGradient id="paint4_linear_433_1421" x1="35.5295" y1="-1.98119" x2="32.8169" y2="8.86049" gradientUnits="userSpaceOnUse">
<stop stop-color="white"/>
<stop offset="1"/>
</linearGradient>
<linearGradient id="paint5_linear_433_1421" x1="5.99255" y1="-1.98088" x2="8.70516" y2="8.86079" gradientUnits="userSpaceOnUse">
<stop stop-color="white"/>
<stop offset="1"/>
</linearGradient>
<linearGradient id="paint6_linear_433_1421" x1="20.7594" y1="-3.64425" x2="20.7594" y2="6.93613" gradientUnits="userSpaceOnUse">
<stop stop-color="white"/>
<stop offset="1"/>
</linearGradient>
</defs>
</svg>
