<svg width="397" height="456" viewBox="0 0 397 456" fill="none" xmlns="http://www.w3.org/2000/svg">
<g opacity="0.2" clip-path="url(#clip0_26_10)">
<mask id="mask0_26_10" style="mask-type:luminance" maskUnits="userSpaceOnUse" x="-70" y="175" width="389" height="251">
<path d="M60.0711 240.216L-4.6218 175.478L-69.3145 240.216L-4.6218 304.954L60.0711 369.691L101.696 411.345C120.638 430.3 127.918 431.273 147.288 411.889L189.456 369.692L254.15 304.954L318.843 240.216L254.15 175.478L189.456 240.216C176.827 252.855 141.698 292.434 124.764 292.434C107.829 292.434 72.7009 252.854 60.0711 240.216Z" fill="white"/>
</mask>
<g mask="url(#mask0_26_10)">
<path d="M318.846 175.476H-69.3115V431.272H318.846V175.476Z" fill="url(#paint0_linear_26_10)"/>
</g>
<mask id="mask1_26_10" style="mask-type:luminance" maskUnits="userSpaceOnUse" x="-134" y="46" width="195" height="238">
<path d="M6.5855 164.273L60.0788 110.742L-4.61418 46.0044L-69.3068 110.742L-134 175.48L-69.3068 240.218L-25.8671 283.687C-47.0526 238.935 -24.9725 195.852 6.5855 164.273Z" fill="white"/>
</mask>
<g mask="url(#mask1_26_10)">
<path d="M60.0788 46.0056H-134V283.689H60.0788V46.0056Z" fill="#003780"/>
</g>
<mask id="mask2_26_10" style="mask-type:luminance" maskUnits="userSpaceOnUse" x="60" y="46" width="130" height="130">
<path d="M124.77 175.474L189.462 110.738L124.77 46.0005L60.0784 110.737L124.77 175.474Z" fill="white"/>
</mask>
<g mask="url(#mask2_26_10)">
<path d="M189.452 46H60.0664V175.475H189.452V46Z" fill="#003780"/>
</g>
<mask id="mask3_26_10" style="mask-type:luminance" maskUnits="userSpaceOnUse" x="189" y="46" width="195" height="238">
<path d="M242.967 164.268L189.473 110.738L254.166 46L318.859 110.738L383.552 175.475L318.859 240.213L275.419 283.683C296.605 238.93 274.524 195.848 242.967 164.268Z" fill="white"/>
</mask>
<g mask="url(#mask3_26_10)">
<path d="M383.547 46H189.469V283.683H383.547V46Z" fill="#003780"/>
</g>
<mask id="mask4_26_10" style="mask-type:luminance" maskUnits="userSpaceOnUse" x="-35" y="175" width="44" height="109">
<path d="M8.79009 175.937H-34.2336V283.685H8.79009V175.937Z" fill="url(#paint1_linear_26_10)"/>
</mask>
<g mask="url(#mask4_26_10)">
<path fill-rule="evenodd" clip-rule="evenodd" d="M-25.867 283.685C-25.867 283.685 -38.2498 230.856 8.79205 188.893L-4.15433 175.937C-29.5886 206.06 -44.5473 244.223 -25.867 283.685Z" fill="#102770"/>
</g>
<mask id="mask5_26_10" style="mask-type:luminance" maskUnits="userSpaceOnUse" x="240" y="175" width="44" height="109">
<path d="M283.795 175.937H240.771V283.685H283.795V175.937Z" fill="url(#paint2_linear_26_10)"/>
</mask>
<g mask="url(#mask5_26_10)">
<path fill-rule="evenodd" clip-rule="evenodd" d="M275.42 283.685C275.42 283.685 287.803 230.856 240.761 188.893L253.708 175.937C279.142 206.06 294.101 244.223 275.42 283.685Z" fill="#102770"/>
</g>
<mask id="mask6_26_10" style="mask-type:luminance" maskUnits="userSpaceOnUse" x="27" y="337" width="195" height="89">
<path d="M221.792 337.321H27.7134V425.999H221.792V337.321Z" fill="url(#paint3_linear_26_10)"/>
</mask>
<g mask="url(#mask6_26_10)">
<path fill-rule="evenodd" clip-rule="evenodd" d="M221.802 337.322C117.407 399.947 27.7234 337.322 27.7234 337.322L60.07 369.691L101.695 411.345C120.637 430.3 127.917 431.273 147.287 411.889L189.455 369.691L221.802 337.322Z" fill="#39D4FF"/>
</g>
<mask id="mask7_26_10" style="mask-type:luminance" maskUnits="userSpaceOnUse" x="189" y="46" width="195" height="130">
<path d="M383.552 46H189.473V175.476H383.552V46Z" fill="url(#paint4_linear_26_10)"/>
</mask>
<g mask="url(#mask7_26_10)">
<path fill-rule="evenodd" clip-rule="evenodd" d="M189.465 110.738C189.465 110.738 305.825 111.134 383.544 175.475L318.851 110.738L254.158 46L189.465 110.738Z" fill="#2983D3"/>
</g>
<mask id="mask8_26_10" style="mask-type:luminance" maskUnits="userSpaceOnUse" x="-134" y="46" width="195" height="130">
<path d="M60.0788 46.0044H-134V175.48H60.0788V46.0044Z" fill="url(#paint5_linear_26_10)"/>
</mask>
<g mask="url(#mask8_26_10)">
<path fill-rule="evenodd" clip-rule="evenodd" d="M60.0788 110.742C60.0788 110.742 -56.2817 111.138 -134 175.48L-69.3068 110.742L-4.61418 46.0044L60.0788 110.742Z" fill="#2983D3"/>
</g>
<mask id="mask9_26_10" style="mask-type:luminance" maskUnits="userSpaceOnUse" x="60" y="46" width="130" height="65">
<path d="M189.449 46H60.063V110.738H189.449V46Z" fill="url(#paint6_linear_26_10)"/>
</mask>
<g mask="url(#mask9_26_10)">
<path fill-rule="evenodd" clip-rule="evenodd" d="M60.0706 110.738C60.0706 110.738 141.807 106.213 189.456 110.738L124.764 46L60.0706 110.738Z" fill="#2983D3"/>
</g>
</g>
<defs>
<linearGradient id="paint0_linear_26_10" x1="124.767" y1="206.039" x2="124.767" y2="425.995" gradientUnits="userSpaceOnUse">
<stop stop-color="#003780"/>
<stop offset="1" stop-color="#2983D3"/>
</linearGradient>
<linearGradient id="paint1_linear_26_10" x1="5.98197" y1="154.944" x2="-27.2819" y2="287.908" gradientUnits="userSpaceOnUse">
<stop stop-color="white"/>
<stop offset="1"/>
</linearGradient>
<linearGradient id="paint2_linear_26_10" x1="243.579" y1="154.943" x2="276.843" y2="287.907" gradientUnits="userSpaceOnUse">
<stop stop-color="white"/>
<stop offset="1"/>
</linearGradient>
<linearGradient id="paint3_linear_26_10" x1="124.753" y1="512.303" x2="124.753" y2="336.828" gradientUnits="userSpaceOnUse">
<stop stop-color="white"/>
<stop offset="1"/>
</linearGradient>
<linearGradient id="paint4_linear_26_10" x1="308.857" y1="21.3046" x2="275.046" y2="156.441" gradientUnits="userSpaceOnUse">
<stop stop-color="white"/>
<stop offset="1"/>
</linearGradient>
<linearGradient id="paint5_linear_26_10" x1="-59.3057" y1="21.3091" x2="-25.4942" y2="156.445" gradientUnits="userSpaceOnUse">
<stop stop-color="white"/>
<stop offset="1"/>
</linearGradient>
<linearGradient id="paint6_linear_26_10" x1="124.756" y1="0.575324" x2="124.756" y2="132.455" gradientUnits="userSpaceOnUse">
<stop stop-color="white"/>
<stop offset="1"/>
</linearGradient>
<clipPath id="clip0_26_10">
<rect width="397" height="456" fill="white" transform="matrix(-1 0 0 1 397 0)"/>
</clipPath>
</defs>
</svg>
