<svg width="234" height="31" viewBox="0 0 234 31" fill="none" xmlns="http://www.w3.org/2000/svg">
<path d="M233.836 2.56274L228.289 7.74186H221.409V10.502H233.836L228.289 15.6811H221.44V19.0925H228.289L233.836 24.2716H215.459V2.56274H233.836Z" fill="#13519C"/>
<path d="M202.304 10.7501C203.915 10.7501 205.279 10.9465 206.395 11.3393C207.51 11.7115 208.409 12.218 209.091 12.859C209.793 13.4999 210.299 14.2235 210.609 15.0299C210.94 15.8362 211.105 16.6735 211.105 17.5419C211.105 18.4309 210.93 19.3096 210.578 20.178C210.248 21.0463 209.7 21.832 208.936 22.5349C208.171 23.2379 207.169 23.8064 205.93 24.2406C204.69 24.6748 203.182 24.8919 201.405 24.8919C200.537 24.8919 199.7 24.7988 198.895 24.6128C198.089 24.4474 197.345 24.2199 196.663 23.9305C195.981 23.641 195.362 23.3206 194.804 22.9691C194.267 22.6176 193.802 22.2558 193.409 21.8836L197.562 18.1001C197.975 18.5756 198.512 18.9685 199.174 19.2786C199.835 19.568 200.651 19.7128 201.622 19.7128C202.738 19.7128 203.595 19.537 204.194 19.1855C204.814 18.8134 205.124 18.4102 205.124 17.9761C205.124 17.5005 204.773 17.0663 204.07 16.6735C203.368 16.2807 202.262 16.0843 200.754 16.0843C199.122 16.0843 197.748 15.8982 196.632 15.5261C195.517 15.1332 194.608 14.6267 193.905 14.0064C193.223 13.3655 192.727 12.6419 192.418 11.8355C192.108 11.0085 191.953 10.1712 191.953 9.32352C191.953 8.43449 192.118 7.5558 192.449 6.68744C192.8 5.79841 193.358 5.00242 194.122 4.29947C194.886 3.59651 195.889 3.02795 197.128 2.59377C198.368 2.15959 199.876 1.9425 201.653 1.9425C202.521 1.9425 203.357 2.03554 204.163 2.22162C204.969 2.38702 205.713 2.61445 206.395 2.9039C207.076 3.19335 207.686 3.51381 208.223 3.86529C208.781 4.21677 209.256 4.57858 209.649 4.95073L205.496 8.73428C205.083 8.25875 204.545 7.87626 203.884 7.58681C203.223 7.27668 202.407 7.12162 201.436 7.12162C200.32 7.12162 199.452 7.3077 198.833 7.67985C198.234 8.03133 197.934 8.42415 197.934 8.85833C197.934 9.33386 198.285 9.76803 198.988 10.1609C199.69 10.5537 200.795 10.7501 202.304 10.7501Z" fill="#13519C"/>
<path d="M166.357 24.2716V17.1387L172.029 11.9286H178.971C179.9 11.9286 180.592 11.7115 181.047 11.2773C181.502 10.8431 181.729 10.3573 181.729 9.81971C181.729 9.28216 181.502 8.80663 181.047 8.39313C180.592 7.95895 179.9 7.74186 178.971 7.74186H170.696L166.357 2.56274H179.869C181.171 2.56274 182.307 2.77983 183.278 3.21401C184.249 3.62751 185.055 4.1754 185.696 4.85768C186.357 5.53996 186.842 6.31528 187.152 7.18363C187.483 8.05199 187.648 8.94102 187.648 9.85072C187.648 10.533 187.555 11.2049 187.369 11.8665C187.183 12.5075 186.915 13.1277 186.563 13.7273C186.212 14.3062 185.768 14.8334 185.231 15.3089C184.694 15.7638 184.063 16.1463 183.34 16.4564L188.237 24.2716H182.287L177.824 17.1077H172.307V24.2716H166.357Z" fill="#13519C"/>
<path d="M162.03 2.56274L159.155 7.74186H149.603V10.502H162.03L156.483 15.6811H149.634V19.0925H156.483L162.03 24.2716H143.652V2.56274H162.03Z" fill="#13519C"/>
<path d="M120.033 12.4001L125.557 8.76528L128.471 19.1545L133.212 4.86369L139.317 2.56274L133.212 24.2716H123.729L120.033 12.4001Z" fill="#13519C"/>
<path d="M103.242 2.56274V19.0925H115.638V24.2716H97.2607V8.11401L103.242 2.56274Z" fill="#1D1D1D"/>
<path d="M93.5228 2.56274L87.4092 7.74186H81.0953V10.502H93.5228L87.9754 15.6811H81.1263V19.0925H85.8763L93.5228 24.2716H75.145V2.56274H93.5228Z" fill="#1D1D1D"/>
<path d="M64.2434 24.2716V2.56274L70.1937 6.13087V24.2716H64.2434Z" fill="#1D1D1D"/>
<path d="M38.0286 24.2717V17.1388L43.6999 11.9287H50.642C51.5717 11.9287 52.2638 11.7116 52.7184 11.2774C53.1729 10.8432 53.4002 10.3574 53.4002 9.81983C53.4002 9.28228 53.1729 8.80675 52.7184 8.39325C52.2638 7.95907 51.5717 7.74198 50.642 7.74198H42.3673L38.0286 2.56287H51.5407C52.8423 2.56287 53.9787 2.77995 54.9497 3.21413C55.9208 3.62763 56.7266 4.17552 57.367 4.8578C58.0282 5.54008 58.5137 6.3154 58.8236 7.18375C59.1542 8.05211 59.3195 8.94114 59.3195 9.85084C59.3195 10.5331 59.2265 11.2051 59.0406 11.8667C58.8546 12.5076 58.586 13.1278 58.2348 13.7274C57.8836 14.3063 57.4394 14.8335 56.9022 15.3091C56.365 15.7639 55.7348 16.1464 55.0117 16.4565L59.9083 24.2717H53.958L49.4953 17.1078H43.9789V24.2717H38.0286Z" fill="#1D1D1D"/>
<mask id="mask0_0_752" style="mask-type:luminance" maskUnits="userSpaceOnUse" x="5" y="10" width="32" height="21">
<path d="M15.5698 15.5815L10.3796 10.3877L5.18945 15.5815L10.3796 20.7752L15.5698 25.969L18.9092 29.3108C20.4289 30.8315 21.0129 30.9096 22.5669 29.3544L25.95 25.969L31.1402 20.7753L36.3304 15.5815L31.1402 10.3877L25.95 15.5815C24.9368 16.5955 22.1185 19.7708 20.7599 19.7708C19.4013 19.7708 16.583 16.5954 15.5698 15.5815Z" fill="white"/>
</mask>
<g mask="url(#mask0_0_752)">
<path d="M36.3307 10.3876H5.1897V30.9094H36.3307V10.3876Z" fill="url(#paint0_linear_0_752)"/>
</g>
<mask id="mask1_0_752" style="mask-type:luminance" maskUnits="userSpaceOnUse" x="0" y="0" width="16" height="20">
<path d="M11.2788 9.48875L15.5705 5.19413L10.3803 0.000366211L5.19018 5.19413L0 10.3879L5.19018 15.5816L8.67525 19.0691C6.97559 15.4787 8.74702 12.0223 11.2788 9.48875Z" fill="white"/>
</mask>
<g mask="url(#mask1_0_752)">
<path d="M15.5705 0.000488281L0 0.000488281L0 19.0693H15.5705V0.000488281Z" fill="#003780"/>
</g>
<mask id="mask2_0_752" style="mask-type:luminance" maskUnits="userSpaceOnUse" x="15" y="0" width="11" height="11">
<path d="M20.7606 10.3874L25.9507 5.19373L20.7606 2.55843e-05L15.5705 5.19371L20.7606 10.3874Z" fill="white"/>
</mask>
<g mask="url(#mask2_0_752)">
<path d="M25.9499 0L15.5696 0V10.3875H25.9499V0Z" fill="#003780"/>
</g>
<mask id="mask3_0_752" style="mask-type:luminance" maskUnits="userSpaceOnUse" x="25" y="0" width="17" height="20">
<path d="M30.2431 9.48838L25.9514 5.19376L31.1416 0L36.3318 5.19376L41.5219 10.3875L36.3318 15.5813L32.8467 19.0688C34.5463 15.4783 32.7749 12.0219 30.2431 9.48838Z" fill="white"/>
</mask>
<g mask="url(#mask3_0_752)">
<path d="M41.5217 0L25.9512 0V19.0688H41.5217V0Z" fill="#003780"/>
</g>
<mask id="mask4_0_752" style="mask-type:luminance" maskUnits="userSpaceOnUse" x="8" y="10" width="4" height="10">
<path d="M11.4556 10.4246H8.00391V19.0689H11.4556V10.4246Z" fill="url(#paint1_linear_0_752)"/>
</mask>
<g mask="url(#mask4_0_752)">
<path fill-rule="evenodd" clip-rule="evenodd" d="M8.67499 19.0689C8.67499 19.0689 7.68154 14.8305 11.4556 11.4639L10.4169 10.4246C8.37641 12.8413 7.17631 15.903 8.67499 19.0689Z" fill="#102770"/>
</g>
<mask id="mask5_0_752" style="mask-type:luminance" maskUnits="userSpaceOnUse" x="30" y="10" width="4" height="10">
<path d="M33.5189 10.4246H30.0671V19.0689H33.5189V10.4246Z" fill="url(#paint2_linear_0_752)"/>
</mask>
<g mask="url(#mask5_0_752)">
<path fill-rule="evenodd" clip-rule="evenodd" d="M32.847 19.0689C32.847 19.0689 33.8404 14.8305 30.0664 11.4639L31.105 10.4246C33.1456 12.8413 34.3457 15.903 32.847 19.0689Z" fill="#102770"/>
</g>
<mask id="mask6_0_752" style="mask-type:luminance" maskUnits="userSpaceOnUse" x="12" y="23" width="17" height="8">
<path d="M28.5444 23.3719H12.9739V30.4864H28.5444V23.3719Z" fill="url(#paint3_linear_0_752)"/>
</mask>
<g mask="url(#mask6_0_752)">
<path fill-rule="evenodd" clip-rule="evenodd" d="M28.5453 23.3721C20.1699 28.3963 12.9749 23.3721 12.9749 23.3721L15.5699 25.969L18.9094 29.3107C20.4291 30.8315 21.0131 30.9096 22.5671 29.3544L25.9502 25.969L28.5453 23.3721Z" fill="#39D4FF"/>
</g>
<mask id="mask7_0_752" style="mask-type:luminance" maskUnits="userSpaceOnUse" x="25" y="0" width="17" height="11">
<path d="M41.5219 0L25.9514 0V10.3875H41.5219V0Z" fill="url(#paint4_linear_0_752)"/>
</mask>
<g mask="url(#mask7_0_752)">
<path fill-rule="evenodd" clip-rule="evenodd" d="M25.9507 5.19376C25.9507 5.19376 35.286 5.22551 41.5212 10.3875L36.331 5.19376L31.1409 0L25.9507 5.19376Z" fill="#2983D3"/>
</g>
<mask id="mask8_0_752" style="mask-type:luminance" maskUnits="userSpaceOnUse" x="0" y="0" width="16" height="11">
<path d="M15.5705 0.000366211L0 0.000366211L0 10.3879H15.5705V0.000366211Z" fill="url(#paint5_linear_0_752)"/>
</mask>
<g mask="url(#mask8_0_752)">
<path fill-rule="evenodd" clip-rule="evenodd" d="M15.5705 5.19413C15.5705 5.19413 6.23516 5.22587 0 10.3879L5.19018 5.19413L10.3803 0.000366211L15.5705 5.19413Z" fill="#2983D3"/>
</g>
<mask id="mask9_0_752" style="mask-type:luminance" maskUnits="userSpaceOnUse" x="15" y="0" width="11" height="6">
<path d="M25.9494 0L15.5691 0V5.19376H25.9494V0Z" fill="url(#paint6_linear_0_752)"/>
</mask>
<g mask="url(#mask9_0_752)">
<path fill-rule="evenodd" clip-rule="evenodd" d="M15.5698 5.19376C15.5698 5.19376 22.1274 4.83076 25.9501 5.19376L20.76 0L15.5698 5.19376Z" fill="#2983D3"/>
</g>
<defs>
<linearGradient id="paint0_linear_0_752" x1="20.7602" y1="12.8396" x2="20.7602" y2="30.4861" gradientUnits="userSpaceOnUse">
<stop stop-color="#003780"/>
<stop offset="1" stop-color="#2983D3"/>
</linearGradient>
<linearGradient id="paint1_linear_0_752" x1="11.2303" y1="8.74031" x2="8.56163" y2="19.4077" gradientUnits="userSpaceOnUse">
<stop stop-color="white"/>
<stop offset="1"/>
</linearGradient>
<linearGradient id="paint2_linear_0_752" x1="30.2924" y1="8.74021" x2="32.9611" y2="19.4076" gradientUnits="userSpaceOnUse">
<stop stop-color="white"/>
<stop offset="1"/>
</linearGradient>
<linearGradient id="paint3_linear_0_752" x1="20.7591" y1="37.4104" x2="20.7591" y2="23.3324" gradientUnits="userSpaceOnUse">
<stop stop-color="white"/>
<stop offset="1"/>
</linearGradient>
<linearGradient id="paint4_linear_0_752" x1="35.5294" y1="-1.98125" x2="32.8167" y2="8.86043" gradientUnits="userSpaceOnUse">
<stop stop-color="white"/>
<stop offset="1"/>
</linearGradient>
<linearGradient id="paint5_linear_0_752" x1="5.99255" y1="-1.98088" x2="8.70516" y2="8.86079" gradientUnits="userSpaceOnUse">
<stop stop-color="white"/>
<stop offset="1"/>
</linearGradient>
<linearGradient id="paint6_linear_0_752" x1="20.7592" y1="-3.64432" x2="20.7592" y2="6.93607" gradientUnits="userSpaceOnUse">
<stop stop-color="white"/>
<stop offset="1"/>
</linearGradient>
</defs>
</svg>
