<svg width="38" height="38" viewBox="0 0 38 38" fill="none" xmlns="http://www.w3.org/2000/svg">
<path d="M29.3668 18.5309C28.9789 16.003 27.6974 13.698 25.7549 12.0344C23.8124 10.3708 21.3378 9.45895 18.7803 9.46438C15.9363 9.46438 13.2088 10.5941 11.1979 12.6051C9.18688 14.6161 8.05713 17.3436 8.05713 20.1875C8.05713 23.0315 9.18688 25.7589 11.1979 27.7699C13.2088 29.7809 15.9363 30.9106 18.7803 30.9106C20.7889 30.9159 22.7576 30.3496 24.4565 29.2778C25.7608 28.4634 26.8748 27.3781 27.723 26.0956C28.5712 24.813 29.1339 23.3631 29.3728 21.8441C29.4541 21.2956 29.4957 20.742 29.4974 20.1875C29.4957 19.6328 29.452 19.0791 29.3668 18.5309ZM18.7803 27.835C17.2677 27.835 15.7892 27.3865 14.5315 26.5462C13.2739 25.7059 12.2937 24.5115 11.7149 23.1141C11.1361 21.7167 10.9846 20.179 11.2797 18.6956C11.5748 17.2121 12.3031 15.8494 13.3727 14.7799C14.4422 13.7104 15.8048 12.982 17.2883 12.6869C18.7718 12.3919 20.3094 12.5433 21.7068 13.1221C23.1042 13.701 24.2986 14.6812 25.1389 15.9388C25.9792 17.1964 26.4278 18.675 26.4278 20.1875C26.4285 21.192 26.2313 22.1868 25.8472 23.115C25.4632 24.0432 24.8999 24.8866 24.1896 25.5968C23.4793 26.3071 22.6359 26.8704 21.7077 27.2545C20.7796 27.6385 19.7848 27.8358 18.7803 27.835Z" fill="#13519C"/>
<path d="M26.4277 20.1875C26.4289 21.7018 25.9809 23.1823 25.1404 24.4418C24.2998 25.7013 23.1046 26.6832 21.7059 27.2632C20.3072 27.8432 18.7678 27.9953 17.2826 27.7001C15.7975 27.405 14.4332 26.676 13.3625 25.6053C12.2918 24.5346 11.5627 23.1703 11.2676 21.6851C10.9725 20.2 11.1246 18.6606 11.7046 17.2619C12.2846 15.8632 13.2665 14.6679 14.526 13.8274C15.7855 12.9869 17.266 12.5389 18.7802 12.54C20.8085 12.54 22.7536 13.3458 24.1878 14.7799C25.622 16.2141 26.4277 18.1593 26.4277 20.1875Z" fill="#EDF8FC"/>
<path d="M24.4566 11.0853C22.753 10.0224 20.7853 9.45894 18.7774 9.45894C16.7694 9.45894 14.8017 10.0224 13.0981 11.0853L14.2856 3.60999H23.2513L24.4566 11.0853ZM24.4566 29.2778L23.2691 36.7531H14.2916L13.1041 29.2778C14.806 30.3454 16.7743 30.9116 18.7833 30.9116C20.7923 30.9116 22.7606 30.3454 24.4625 29.2778H24.4566Z" fill="#2983D3" fill-opacity="0.6"/>
<path d="M31.3916 19.6294V20.7456C31.3916 21.3394 31.0888 21.8441 30.7207 21.8441H29.3729C29.4332 21.294 29.4629 20.7409 29.4619 20.1875C29.4634 19.632 29.4316 19.0768 29.3669 18.525H30.7207C31.0888 18.531 31.3916 19 31.3916 19.6294Z" fill="#EDF8FC"/>
<path d="M17.5927 30.02C15.4851 30.0176 13.4223 29.4111 11.6488 28.2724C9.87518 27.1338 8.46511 25.5107 7.58557 23.5953C6.70603 21.68 6.39387 19.5527 6.68608 17.4654C6.97828 15.3781 7.8626 13.4183 9.23429 11.8182C10.606 10.218 12.4076 9.04448 14.4256 8.43664C16.4437 7.82879 18.5937 7.81209 20.621 8.3885C22.6483 8.96492 24.4679 10.1103 25.8643 11.689C27.2607 13.2676 28.1753 15.2135 28.4999 17.2959C28.5803 17.8603 28.616 18.4301 28.6068 19C28.6052 21.9212 27.4445 24.7223 25.3795 26.7885C23.3144 28.8546 20.5139 30.0169 17.5927 30.02ZM17.5927 8.57376C14.8275 8.57376 12.1756 9.67223 10.2203 11.6275C8.26496 13.5828 7.16648 16.2348 7.16648 19C7.16648 21.7652 8.26496 24.4172 10.2203 26.3725C12.1756 28.3278 14.8275 29.4263 17.5927 29.4263C20.079 29.4245 22.4831 28.5364 24.3734 26.9215C26.2637 25.3065 27.5163 23.0705 27.9062 20.615C27.9836 20.0821 28.0233 19.5444 28.0249 19.0059C28.0276 18.4653 27.9879 17.9253 27.9062 17.3909C27.5291 14.9292 26.2803 12.6848 24.3874 11.0665C22.4944 9.44815 20.0832 8.56354 17.5927 8.57376ZM17.5927 26.9444C16.0212 26.9456 14.4847 26.4806 13.1775 25.6084C11.8702 24.7362 10.8511 23.4958 10.2489 22.0443C9.64665 20.5928 9.48848 18.9952 9.79435 17.4538C10.1002 15.9123 10.8564 14.4962 11.9672 13.3846C13.078 12.273 14.4935 11.5157 16.0347 11.2087C17.576 10.9017 19.1736 11.0587 20.6256 11.6598C22.0776 12.2609 23.3187 13.2792 24.1919 14.5857C25.0651 15.8923 25.5312 17.4285 25.5312 19C25.5296 21.1055 24.6929 23.1243 23.2047 24.6137C21.7164 26.103 19.6982 26.9412 17.5927 26.9444ZM17.5927 11.6494C16.1387 11.6482 14.7169 12.0783 13.5073 12.8853C12.2977 13.6923 11.3547 14.8399 10.7974 16.1829C10.2401 17.526 10.0937 19.0041 10.3767 20.4304C10.6596 21.8567 11.3593 23.167 12.387 24.1956C13.4148 25.2242 14.7245 25.9248 16.1506 26.209C17.5766 26.4931 19.0549 26.3478 20.3984 25.7917C21.7419 25.2355 22.8902 24.2933 23.6982 23.0844C24.5062 21.8755 24.9374 20.4541 24.9374 19C24.9343 17.0525 24.1597 15.1856 22.7831 13.8079C21.4066 12.4302 19.5402 11.6541 17.5927 11.6494Z" fill="#13519C"/>
<path d="M17.5929 26.9444C16.0214 26.9456 14.4848 26.4807 13.1776 25.6084C11.8704 24.7362 10.8512 23.4959 10.249 22.0443C9.64682 20.5928 9.48864 18.9953 9.79451 17.4538C10.1004 15.9124 10.8565 14.4963 11.9673 13.3846C13.0781 12.273 14.4937 11.5158 16.0349 11.2088C17.5761 10.9017 19.1738 11.0587 20.6258 11.6598C22.0778 12.2609 23.3188 13.2792 24.192 14.5858C25.0653 15.8923 25.5313 17.4285 25.5313 19C25.5298 21.1055 24.6931 23.1244 23.2048 24.6137C21.7166 26.1031 19.6984 26.9413 17.5929 26.9444ZM17.5929 11.6494C16.1388 11.6482 14.7171 12.0783 13.5075 12.8853C12.2979 13.6923 11.3548 14.8399 10.7976 16.183C10.2403 17.526 10.0939 19.0042 10.3768 20.4304C10.6598 21.8567 11.3594 23.167 12.3872 24.1956C13.4149 25.2242 14.7247 25.9249 16.1507 26.209C17.5768 26.4931 19.055 26.3479 20.3985 25.7917C21.742 25.2355 22.8904 24.2934 23.6984 23.0844C24.5063 21.8755 24.9376 20.4541 24.9376 19C24.9344 17.0525 24.1598 15.1856 22.7833 13.8079C21.4067 12.4303 19.5404 11.6541 17.5929 11.6494Z" fill="#13519C"/>
<path d="M11.9106 10.2065C11.8509 10.2069 11.7926 10.1882 11.7444 10.1531C11.6977 10.1215 11.6607 10.0776 11.6377 10.0262C11.6146 9.97479 11.6063 9.91797 11.6137 9.86213L12.8131 2.37494C12.8231 2.30462 12.8579 2.24019 12.9113 2.19335C12.9646 2.14651 13.033 2.12035 13.1041 2.11963H22.0697C22.1414 2.12015 22.2106 2.14609 22.2649 2.19285C22.3193 2.2396 22.3553 2.30413 22.3666 2.37494L23.5541 9.83244C23.5634 9.88926 23.5561 9.94758 23.5329 10.0003C23.5097 10.053 23.4717 10.0978 23.4234 10.1293C23.3762 10.1615 23.3203 10.1787 23.2631 10.1787C23.2059 10.1787 23.1501 10.1615 23.1028 10.1293C21.4459 9.09726 19.533 8.5502 17.5809 8.5502C15.6289 8.5502 13.7159 9.09726 12.0591 10.1293C12.018 10.1687 11.9665 10.1955 11.9106 10.2065ZM13.3594 2.73119L12.3025 9.33369C13.9245 8.4492 15.7424 7.98573 17.5898 7.98573C19.4373 7.98573 21.2552 8.4492 22.8772 9.33369L21.8203 2.73119H13.3594ZM22.0697 35.8624H13.1041C13.033 35.8617 12.9646 35.8356 12.9113 35.7887C12.8579 35.7419 12.8231 35.6775 12.8131 35.6071L11.6256 28.1378C11.6169 28.0815 11.6245 28.0239 11.6476 27.9719C11.6707 27.9199 11.7083 27.8756 11.7558 27.8443C11.8034 27.813 11.8589 27.796 11.9158 27.7954C11.9728 27.7948 12.0287 27.8106 12.0769 27.8409C13.7348 28.8762 15.65 29.4254 17.6047 29.4262C19.5562 29.4296 21.4687 28.88 23.1206 27.8409C23.1685 27.8102 23.2241 27.7939 23.2809 27.7939C23.3378 27.7939 23.3934 27.8102 23.4412 27.8409C23.489 27.8714 23.5268 27.9152 23.55 27.9669C23.5732 28.0185 23.5808 28.0759 23.5719 28.1318L22.3666 35.6249C22.3516 35.6925 22.314 35.7529 22.26 35.7961C22.206 35.8393 22.1388 35.8627 22.0697 35.8624ZM13.3594 35.2687H21.8203L22.8712 28.6721C21.2509 29.5582 19.4337 30.0226 17.5869 30.0226C15.74 30.0226 13.9229 29.5582 12.3025 28.6721L13.3594 35.2687Z" fill="#13519C"/>
<path d="M17.587 12.6765C17.5077 12.675 17.4322 12.6424 17.3767 12.5858C17.3212 12.5292 17.2901 12.453 17.2901 12.3737V11.3465C17.2916 11.2688 17.3236 11.1948 17.3791 11.1404C17.4346 11.0861 17.5092 11.0556 17.587 11.0556C17.6657 11.0556 17.7412 11.0869 17.7969 11.1426C17.8526 11.1982 17.8838 11.2737 17.8838 11.3525V12.3797C17.8838 12.4584 17.8526 12.5339 17.7969 12.5896C17.7412 12.6453 17.6657 12.6765 17.587 12.6765ZM25.2404 19.3028H24.2251C24.1463 19.3028 24.0708 19.2715 24.0152 19.2158C23.9595 19.1602 23.9282 19.0847 23.9282 19.0059C23.9282 18.9272 23.9595 18.8517 24.0152 18.796C24.0708 18.7403 24.1463 18.709 24.2251 18.709H25.2345C25.3132 18.709 25.3887 18.7403 25.4444 18.796C25.5001 18.8517 25.5313 18.9272 25.5313 19.0059C25.5313 19.0836 25.5009 19.1583 25.4465 19.2138C25.3921 19.2693 25.3181 19.3012 25.2404 19.3028ZM10.9488 19.3028H9.93945C9.86072 19.3028 9.78521 19.2715 9.72953 19.2158C9.67386 19.1602 9.64258 19.0847 9.64258 19.0059C9.64258 18.9272 9.67386 18.8517 9.72953 18.796C9.78521 18.7403 9.86072 18.709 9.93945 18.709H10.9488C11.0276 18.709 11.1031 18.7403 11.1588 18.796C11.2144 18.8517 11.2457 18.9272 11.2457 19.0059C11.2457 19.0847 11.2144 19.1602 11.1588 19.2158C11.1031 19.2715 11.0276 19.3028 10.9488 19.3028ZM17.5929 26.9444C17.5542 26.9451 17.5157 26.9382 17.4797 26.9239C17.4437 26.9097 17.411 26.8884 17.3833 26.8613C17.3557 26.8342 17.3337 26.8018 17.3187 26.7661C17.3037 26.7305 17.296 26.6921 17.296 26.6534V25.6262C17.296 25.5475 17.3273 25.472 17.383 25.4163C17.4386 25.3606 17.5142 25.3294 17.5929 25.3294C17.6716 25.3294 17.7471 25.3606 17.8028 25.4163C17.8585 25.472 17.8898 25.5475 17.8898 25.6262V26.6475C17.8898 26.7262 17.8585 26.8017 17.8028 26.8574C17.7471 26.9131 17.6716 26.9444 17.5929 26.9444ZM17.587 21.6303C17.5082 21.6303 17.4327 21.599 17.377 21.5433C17.3214 21.4877 17.2901 21.4122 17.2901 21.3334V19.1247L14.0601 15.9006C14.0323 15.873 14.0102 15.8402 13.9951 15.804C13.98 15.7678 13.9723 15.729 13.9723 15.6898C13.9723 15.6506 13.98 15.6118 13.9951 15.5757C14.0102 15.5395 14.0323 15.5066 14.0601 15.479C14.1166 15.4243 14.1922 15.3936 14.2709 15.3936C14.3495 15.3936 14.4251 15.4243 14.4816 15.479L17.8126 18.7922C17.8663 18.8479 17.8962 18.9225 17.8957 19V21.3334C17.8957 21.3734 17.8877 21.413 17.872 21.4498C17.8564 21.4867 17.8334 21.5199 17.8046 21.5477C17.7758 21.5754 17.7416 21.597 17.7042 21.6112C17.6668 21.6254 17.6269 21.6319 17.587 21.6303ZM19.2495 6.05029H15.9304C15.8517 6.05029 15.7761 6.01902 15.7205 5.96334C15.6648 5.90767 15.6335 5.83215 15.6335 5.75342C15.6335 5.67468 15.6648 5.59917 15.7205 5.5435C15.7761 5.48782 15.8517 5.45654 15.9304 5.45654H19.2495C19.3282 5.45654 19.4037 5.48782 19.4594 5.5435C19.515 5.59917 19.5463 5.67468 19.5463 5.75342C19.5463 5.83215 19.515 5.90767 19.4594 5.96334C19.4037 6.01902 19.3282 6.05029 19.2495 6.05029ZM19.2495 32.5494H15.9304C15.8517 32.5494 15.7761 32.5181 15.7205 32.4624C15.6648 32.4067 15.6335 32.3312 15.6335 32.2525C15.6335 32.1737 15.6648 32.0982 15.7205 32.0426C15.7761 31.9869 15.8517 31.9556 15.9304 31.9556H19.2495C19.3282 31.9556 19.4037 31.9869 19.4594 32.0426C19.515 32.0982 19.5463 32.1737 19.5463 32.2525C19.5448 32.3307 19.513 32.4054 19.4577 32.4607C19.4023 32.5161 19.3277 32.5478 19.2495 32.5494Z" fill="#A6A6A6"/>
<path d="M29.5331 20.9534H28.1853C28.1432 20.9534 28.1016 20.9451 28.0629 20.9287C28.0241 20.9124 27.989 20.8885 27.9597 20.8584C27.9325 20.8268 27.9121 20.7899 27.8999 20.7501C27.8876 20.7102 27.8837 20.6683 27.8884 20.6268C27.9474 20.0865 27.9771 19.5435 27.9775 19C27.9867 18.4587 27.9629 17.9174 27.9062 17.379C27.9008 17.3376 27.9043 17.2954 27.9166 17.2555C27.9289 17.2155 27.9497 17.1787 27.9775 17.1475C28.0056 17.1154 28.0403 17.0898 28.0793 17.0724C28.1182 17.055 28.1604 17.0461 28.2031 17.0465H29.5568C30.0972 17.0465 30.5247 17.6403 30.5247 18.4418V19.5581C30.5009 20.3418 30.0734 20.9534 29.5331 20.9534ZM28.5118 20.3596H29.5331C29.6815 20.3596 29.9072 20.039 29.9072 19.5581V18.4418C29.9072 17.9609 29.6815 17.6403 29.5331 17.6403H28.5C28.5457 18.094 28.5675 18.5499 28.5653 19.0059C28.5712 19.4512 28.5534 19.9084 28.5 20.3596H28.5118Z" fill="#13519C"/>
</svg>
