<svg width="33" height="33" viewBox="0 0 33 33" fill="none" xmlns="http://www.w3.org/2000/svg">
<g clip-path="url(#clip0_0_1467)">
<path d="M7.21875 15.3217L16.9169 7.88953L25.745 15.3217V25.7813H7.21875V15.3217Z" fill="url(#paint0_linear_0_1467)"/>
<path d="M10.5905 18.6934V7.79883C10.5905 7.47847 10.8501 7.21875 11.1705 7.21875H21.8476C22.1679 7.21875 22.4277 7.47847 22.4277 7.79883V18.6934L16.8832 23.5596C16.6641 23.752 16.3361 23.7517 16.1173 23.5591L10.5905 18.6934Z" fill="url(#paint1_linear_0_1467)"/>
<path d="M16.5351 9.89197C17.1622 9.89197 17.7181 10.0209 18.2028 10.2789C18.692 10.5324 19.07 10.8792 19.3369 11.3195C19.6082 11.7598 19.7438 12.2468 19.7438 12.7804C19.7438 13.1896 19.6727 13.5409 19.5303 13.8345C19.3925 14.1235 19.2035 14.3437 18.9633 14.4949C18.7276 14.6416 18.4652 14.715 18.1762 14.715C17.9227 14.715 17.707 14.6661 17.5291 14.5683C17.3512 14.4704 17.2156 14.3259 17.1222 14.1346C16.9265 14.5216 16.5885 14.715 16.1082 14.715C15.8636 14.715 15.6323 14.6483 15.4144 14.5149C15.201 14.377 15.0275 14.1813 14.8941 13.9279C14.7607 13.6744 14.6939 13.3831 14.6939 13.054C14.6939 12.7249 14.7584 12.4358 14.8874 12.1868C15.0208 11.9333 15.1942 11.7398 15.4077 11.6064C15.6257 11.4685 15.8591 11.3996 16.1082 11.3996C16.4595 11.3996 16.733 11.5086 16.9287 11.7265V11.4596H18.2095V13.3675C18.2095 13.6121 18.2963 13.7344 18.4697 13.7344C18.5764 13.7344 18.6587 13.6655 18.7165 13.5276C18.7788 13.3898 18.8099 13.1474 18.8099 12.8005C18.8099 12.4002 18.7143 12.0444 18.523 11.7331C18.3363 11.4218 18.0694 11.1794 17.7225 11.006C17.3801 10.8281 16.9843 10.7392 16.5351 10.7392C16.0859 10.7392 15.6879 10.837 15.341 11.0327C14.9941 11.2239 14.7251 11.4908 14.5338 11.8332C14.3426 12.1712 14.247 12.5492 14.247 12.9673C14.247 13.3986 14.3404 13.7856 14.5272 14.128C14.7184 14.466 14.9853 14.7306 15.3277 14.9218C15.6701 15.1131 16.0637 15.2087 16.5084 15.2087C16.9754 15.2087 17.4246 15.1108 17.856 14.9151L18.1361 15.7357C17.936 15.8335 17.6869 15.9113 17.389 15.9692C17.0955 16.027 16.802 16.0559 16.5084 16.0559C15.8547 16.0559 15.2765 15.9202 14.774 15.649C14.2759 15.3821 13.8912 15.0152 13.6199 14.5483C13.3487 14.0768 13.213 13.5499 13.213 12.9673C13.213 12.3936 13.3487 11.8732 13.6199 11.4063C13.8956 10.9393 14.2848 10.5702 14.7873 10.2989C15.2899 10.0276 15.8725 9.89197 16.5351 9.89197ZM16.4751 13.6677C16.6174 13.6677 16.733 13.6143 16.822 13.5076C16.9109 13.4008 16.9554 13.2497 16.9554 13.054C16.9554 12.8583 16.9109 12.7093 16.822 12.607C16.733 12.5003 16.6174 12.4469 16.4751 12.4469C16.3327 12.4469 16.2171 12.5003 16.1282 12.607C16.0437 12.7093 16.0015 12.8583 16.0015 13.054C16.0015 13.2497 16.0437 13.4008 16.1282 13.5076C16.2171 13.6143 16.3327 13.6677 16.4751 13.6677Z" fill="white"/>
</g>
<defs>
<linearGradient id="paint0_linear_0_1467" x1="16.4819" y1="7.88953" x2="16.4819" y2="25.7813" gradientUnits="userSpaceOnUse">
<stop stop-color="#13519C"/>
<stop offset="1" stop-color="#2983D3" stop-opacity="0.6"/>
</linearGradient>
<linearGradient id="paint1_linear_0_1467" x1="16.5091" y1="7.21875" x2="16.5091" y2="23.896" gradientUnits="userSpaceOnUse">
<stop stop-color="#13519C" stop-opacity="0.41"/>
<stop offset="1" stop-color="#13519C" stop-opacity="0.35"/>
</linearGradient>
<clipPath id="clip0_0_1467">
<rect width="33" height="33" fill="white"/>
</clipPath>
</defs>
</svg>
