<svg width="33" height="33" viewBox="0 0 33 33" fill="none" xmlns="http://www.w3.org/2000/svg">
<g clip-path="url(#clip0_78_4181)">
<path d="M7.21875 15.3219L16.9169 7.88965L25.745 15.3219V25.7814H7.21875V15.3219Z" fill="url(#paint0_linear_78_4181)"/>
<path d="M10.5905 18.6934V7.79883C10.5905 7.47847 10.8501 7.21875 11.1705 7.21875H21.8476C22.1679 7.21875 22.4277 7.47847 22.4277 7.79883V18.6934L16.8832 23.5596C16.6641 23.752 16.3361 23.7517 16.1173 23.5591L10.5905 18.6934Z" fill="url(#paint1_linear_78_4181)"/>
<path d="M16.5351 9.89209C17.1622 9.89209 17.7181 10.021 18.2028 10.279C18.692 10.5325 19.07 10.8794 19.3369 11.3196C19.6082 11.7599 19.7438 12.2469 19.7438 12.7806C19.7438 13.1897 19.6727 13.5411 19.5303 13.8346C19.3925 14.1237 19.2035 14.3438 18.9633 14.495C18.7276 14.6418 18.4652 14.7151 18.1762 14.7151C17.9227 14.7151 17.707 14.6662 17.5291 14.5684C17.3512 14.4705 17.2156 14.326 17.1222 14.1348C16.9265 14.5217 16.5885 14.7151 16.1082 14.7151C15.8636 14.7151 15.6323 14.6484 15.4144 14.515C15.201 14.3772 15.0275 14.1815 14.8941 13.928C14.7607 13.6745 14.6939 13.3832 14.6939 13.0541C14.6939 12.725 14.7584 12.4359 14.8874 12.1869C15.0208 11.9334 15.1942 11.7399 15.4077 11.6065C15.6257 11.4687 15.8591 11.3997 16.1082 11.3997C16.4595 11.3997 16.733 11.5087 16.9287 11.7266V11.4597H18.2095V13.3676C18.2095 13.6122 18.2963 13.7345 18.4697 13.7345C18.5764 13.7345 18.6587 13.6656 18.7165 13.5277C18.7788 13.3899 18.8099 13.1475 18.8099 12.8006C18.8099 12.4003 18.7143 12.0446 18.523 11.7332C18.3363 11.4219 18.0694 11.1796 17.7225 11.0061C17.3801 10.8283 16.9843 10.7393 16.5351 10.7393C16.0859 10.7393 15.6879 10.8371 15.341 11.0328C14.9941 11.2241 14.7251 11.4909 14.5338 11.8333C14.3426 12.1713 14.247 12.5493 14.247 12.9674C14.247 13.3988 14.3404 13.7857 14.5272 14.1281C14.7184 14.4661 14.9853 14.7307 15.3277 14.922C15.6701 15.1132 16.0637 15.2088 16.5084 15.2088C16.9754 15.2088 17.4246 15.1109 17.856 14.9153L18.1361 15.7358C17.936 15.8336 17.6869 15.9114 17.389 15.9693C17.0955 16.0271 16.802 16.056 16.5084 16.056C15.8547 16.056 15.2765 15.9204 14.774 15.6491C14.2759 15.3823 13.8912 15.0153 13.6199 14.5484C13.3487 14.077 13.213 13.55 13.213 12.9674C13.213 12.3937 13.3487 11.8733 13.6199 11.4064C13.8956 10.9394 14.2848 10.5703 14.7873 10.299C15.2899 10.0278 15.8725 9.89209 16.5351 9.89209ZM16.4751 13.6678C16.6174 13.6678 16.733 13.6144 16.822 13.5077C16.9109 13.401 16.9554 13.2498 16.9554 13.0541C16.9554 12.8584 16.9109 12.7094 16.822 12.6072C16.733 12.5004 16.6174 12.4471 16.4751 12.4471C16.3328 12.4471 16.2171 12.5004 16.1282 12.6072C16.0437 12.7094 16.0015 12.8584 16.0015 13.0541C16.0015 13.2498 16.0437 13.401 16.1282 13.5077C16.2171 13.6144 16.3328 13.6678 16.4751 13.6678Z" fill="url(#paint2_linear_78_4181)"/>
</g>
<defs>
<linearGradient id="paint0_linear_78_4181" x1="16.4819" y1="7.88965" x2="16.4819" y2="25.7814" gradientUnits="userSpaceOnUse">
<stop stop-color="#2983D3"/>
<stop offset="1" stop-color="#1A45D6"/>
</linearGradient>
<linearGradient id="paint1_linear_78_4181" x1="16.5091" y1="7.21875" x2="16.5091" y2="23.896" gradientUnits="userSpaceOnUse">
<stop stop-color="white"/>
<stop offset="0.332174" stop-color="#AAD4FF" stop-opacity="0.976748"/>
<stop offset="1" stop-color="#007FFF" stop-opacity="0.93"/>
</linearGradient>
<linearGradient id="paint2_linear_78_4181" x1="14.361" y1="10.5724" x2="15.8112" y2="16.6814" gradientUnits="userSpaceOnUse">
<stop stop-color="#2983D3"/>
<stop offset="1" stop-color="#1A45D6"/>
</linearGradient>
<clipPath id="clip0_78_4181">
<rect width="33" height="33" fill="white"/>
</clipPath>
</defs>
</svg>
