<svg width="36" height="36" viewBox="0 0 36 36" fill="none" xmlns="http://www.w3.org/2000/svg">
<path d="M5.76562 9V6.1875C5.76562 5.95688 5.95688 5.76562 6.1875 5.76562H15.1031C15.3337 5.76562 15.525 5.95688 15.525 6.1875C15.525 6.41812 15.3337 6.60938 15.1031 6.60938H6.60938V9C6.60938 9.23063 6.41812 9.42188 6.1875 9.42188C5.95688 9.42188 5.76562 9.23063 5.76562 9ZM29.8125 20.475C29.5819 20.475 29.3906 20.6663 29.3906 20.8969V29.3906H25.875C25.6444 29.3906 25.4531 29.5819 25.4531 29.8125C25.4531 30.0431 25.6444 30.2344 25.875 30.2344H29.8125C30.0431 30.2344 30.2344 30.0431 30.2344 29.8125V20.8969C30.2344 20.6663 30.0431 20.475 29.8125 20.475ZM12.375 29.3906H10.125C9.89437 29.3906 9.70312 29.5819 9.70312 29.8125C9.70312 30.0431 9.89437 30.2344 10.125 30.2344H12.375C12.6056 30.2344 12.7969 30.0431 12.7969 29.8125C12.7969 29.5819 12.6056 29.3906 12.375 29.3906ZM20.25 29.3906H14.625C14.3944 29.3906 14.2031 29.5819 14.2031 29.8125C14.2031 30.0431 14.3944 30.2344 14.625 30.2344H20.25C20.4806 30.2344 20.6719 30.0431 20.6719 29.8125C20.6719 29.5819 20.4806 29.3906 20.25 29.3906ZM12.375 21.5156H10.125C9.89437 21.5156 9.70312 21.7069 9.70312 21.9375C9.70312 22.1681 9.89437 22.3594 10.125 22.3594H12.375C12.6056 22.3594 12.7969 22.1681 12.7969 21.9375C12.7969 21.7069 12.6056 21.5156 12.375 21.5156ZM14.625 21.5156C14.3944 21.5156 14.2031 21.7069 14.2031 21.9375C14.2031 22.1681 14.3944 22.3594 14.625 22.3594H20.25C20.4806 22.3594 20.6719 22.1681 20.6719 21.9375C20.6719 21.7069 20.4806 21.5156 20.25 21.5156H14.625ZM7.3125 28.8281C6.7725 28.8281 6.32812 29.2725 6.32812 29.8125C6.32812 30.3525 6.7725 30.7969 7.3125 30.7969C7.8525 30.7969 8.29688 30.3525 8.29688 29.8125C8.29688 29.2725 7.8525 28.8281 7.3125 28.8281ZM7.3125 20.9531C6.7725 20.9531 6.32812 21.3975 6.32812 21.9375C6.32812 22.4775 6.7725 22.9219 7.3125 22.9219C7.8525 22.9219 8.29688 22.4775 8.29688 21.9375C8.29688 21.3975 7.8525 20.9531 7.3125 20.9531ZM7.3125 15.0469C7.8525 15.0469 8.29688 14.6025 8.29688 14.0625C8.29688 13.5225 7.8525 13.0781 7.3125 13.0781C6.7725 13.0781 6.32812 13.5225 6.32812 14.0625C6.32812 14.6025 6.7725 15.0469 7.3125 15.0469ZM10.125 14.4844H12.375C12.6056 14.4844 12.7969 14.2931 12.7969 14.0625C12.7969 13.8319 12.6056 13.6406 12.375 13.6406H10.125C9.89437 13.6406 9.70312 13.8319 9.70312 14.0625C9.70312 14.2931 9.89437 14.4844 10.125 14.4844ZM33.0469 11.8125C33.0469 16.695 29.07 20.6719 24.1875 20.6719C24.1425 20.6719 24.0919 20.6663 24.0469 20.6663V23.625C24.0469 24.48 23.355 25.1719 22.5 25.1719H22.3594V26.5781H22.5C23.355 26.5781 24.0469 27.27 24.0469 28.125V31.5C24.0469 32.355 23.355 33.0469 22.5 33.0469H4.5C3.645 33.0469 2.95312 32.355 2.95312 31.5V28.125C2.95312 27.27 3.645 26.5781 4.5 26.5781H4.64062V25.1719H4.5C3.645 25.1719 2.95312 24.48 2.95312 23.625V20.25C2.95312 19.395 3.645 18.7031 4.5 18.7031H4.64062V17.2969H4.5C3.645 17.2969 2.95312 16.605 2.95312 15.75V12.375C2.95312 11.52 3.645 10.8281 4.5 10.8281H15.3844C15.8738 6.40687 19.6313 2.95312 24.1875 2.95312C29.07 2.95312 33.0469 6.93 33.0469 11.8125ZM24.6094 11.3906H32.1806C31.9669 7.30687 28.6931 4.03312 24.6094 3.81937V11.3906ZM16.1719 11.8125C16.1719 13.8713 16.9594 15.7444 18.2362 17.1675L23.7656 11.6381V3.81937C19.5413 4.03875 16.1719 7.5375 16.1719 11.8125ZM4.5 16.4531H16.6556C16.2788 15.84 15.9637 15.1819 15.7444 14.4844H14.625C14.3944 14.4844 14.2031 14.2931 14.2031 14.0625C14.2031 13.8319 14.3944 13.6406 14.625 13.6406H15.5194C15.3956 13.05 15.3281 12.4369 15.3281 11.8125C15.3281 11.7675 15.3337 11.7169 15.3337 11.6719H4.5C4.11188 11.6719 3.79688 11.9869 3.79688 12.375V15.75C3.79688 16.1381 4.11188 16.4531 4.5 16.4531ZM5.48438 18.7031H18.63C18.1181 18.2869 17.6512 17.8144 17.2406 17.2969H5.48438V18.7031ZM22.5 27.4219H4.5C4.11188 27.4219 3.79688 27.7369 3.79688 28.125V31.5C3.79688 31.8881 4.11188 32.2031 4.5 32.2031H22.5C22.8881 32.2031 23.2031 31.8881 23.2031 31.5V28.125C23.2031 27.7369 22.8881 27.4219 22.5 27.4219ZM21.5156 25.1719H5.48438V26.5781H21.5156V25.1719ZM23.2031 20.6156C22.005 20.4806 20.8856 20.1094 19.8787 19.5469H4.5C4.11188 19.5469 3.79688 19.8619 3.79688 20.25V23.625C3.79688 24.0131 4.11188 24.3281 4.5 24.3281H22.5C22.8881 24.3281 23.2031 24.0131 23.2031 23.625V20.6156ZM32.1806 12.2344H24.3619L18.8325 17.7638C20.2556 19.0462 22.1287 19.8281 24.1875 19.8281C28.4625 19.8281 31.9613 16.4587 32.1806 12.2344Z" fill="#13519C"/>
</svg>
