<svg width="46" height="46" viewBox="0 0 46 46" fill="none" xmlns="http://www.w3.org/2000/svg">
<mask id="mask0_0_1457" style="mask-type:luminance" maskUnits="userSpaceOnUse" x="11" y="11" width="24" height="24">
<path d="M35 11H11V35H35V11Z" fill="white"/>
</mask>
<g mask="url(#mask0_0_1457)">
<path d="M29.9136 18.4786L29.8158 17.2798C29.5152 13.7001 26.5848 11 22.9996 11C19.4143 11 16.4839 13.7001 16.1827 17.2819L16.0855 18.4786C15.5581 18.8763 15.2349 19.505 15.2349 20.1765V21.5882C15.2349 22.0646 15.4038 22.5306 15.7065 22.9118L15.2715 33.5882H30.7277L30.2928 22.9118C30.5955 22.5306 30.7643 22.0646 30.7643 21.5882V20.1765C30.7643 19.505 30.441 18.8763 29.9136 18.4786Z" fill="url(#paint0_linear_0_1457)"/>
<path d="M18.0585 21.5883V18.7648C18.0585 18.5062 18.0969 18.2831 18.1337 18.0588H17.3525C16.1848 18.0588 15.2349 19.0088 15.2349 20.1765V21.5883C15.2349 22.756 16.1848 23.7059 17.3525 23.7059H18.5596C18.4866 23.5481 23.2859 24.4118 23.5212 23.2259C23.4271 21.1648 18.0585 22.1812 18.0585 21.5883ZM28.6467 18.0588H27.9408V18.7648V21.5883C27.9408 21.968 27.8933 22.3372 27.8071 22.693C27.7264 23.0465 27.5998 23.3818 27.4453 23.7041L27.4446 23.7059H28.6467C29.8144 23.7059 30.7643 22.756 30.7643 21.5883V20.1765C30.7643 19.0088 29.8144 18.0588 28.6467 18.0588Z" fill="url(#paint1_linear_0_1457)"/>
<path d="M25.823 26.6709V25.6262C27.1501 24.7084 27.9407 23.2262 27.9407 21.5885V18.0591C24.6653 18.5249 22.1525 15.5178 22.1242 15.4896C21.9971 15.3344 21.7995 15.2355 21.5877 15.2355C20.3737 15.2355 18.0584 15.9696 18.0584 18.7649V21.5885C18.0584 21.8284 18.0724 22.0684 18.1148 22.2944H22.2937C22.6889 22.2944 22.9995 22.6049 22.9995 23.0002C22.9995 23.3955 22.6889 23.7062 22.2937 23.7062H18.5524C18.9053 24.4826 19.4559 25.146 20.176 25.6402V26.6708L22.9995 30.0591L25.823 26.6709ZM33.5595 34.125L32.783 31.0191C32.4442 29.692 31.5689 28.5485 30.383 27.8849C29.9595 27.6591 29.536 27.4896 29.0701 27.3909L25.823 26.6709L27.7995 28.365C28.1101 28.6049 28.1807 29.0426 27.9407 29.3532L25.823 32.1767C25.6819 32.3603 25.4701 32.4591 25.2583 32.4591C25.1171 32.4591 24.9619 32.4167 24.8348 32.3178L22.9995 30.9344L21.1642 32.3178C21.0371 32.4167 20.896 32.4591 20.7407 32.4591H20.6419C20.4584 32.4309 20.2889 32.332 20.1759 32.1767L18.0583 29.3532C17.8184 29.0426 17.8888 28.6049 18.1994 28.365L20.176 26.6708L16.943 27.3909C16.463 27.4896 16.0395 27.6591 15.616 27.8849C14.4301 28.5485 13.5548 29.692 13.2019 31.0191L12.4395 34.125C12.383 34.3367 12.4255 34.5627 12.5666 34.732C12.6937 34.9014 12.9053 35.0003 13.1171 35.0003H32.8819C33.0937 35.0003 33.3053 34.9014 33.4324 34.732C33.5737 34.5627 33.616 34.3367 33.5595 34.125Z" fill="url(#paint2_linear_0_1457)"/>
</g>
<defs>
<linearGradient id="paint0_linear_0_1457" x1="22.9996" y1="33.5882" x2="22.9996" y2="11" gradientUnits="userSpaceOnUse">
<stop stop-color="#13519C"/>
<stop offset="1" stop-color="#2983D3" stop-opacity="0.4"/>
</linearGradient>
<linearGradient id="paint1_linear_0_1457" x1="22.9996" y1="23.863" x2="22.9996" y2="18.0588" gradientUnits="userSpaceOnUse">
<stop stop-color="#13519C"/>
<stop offset="1" stop-color="#102770"/>
</linearGradient>
<linearGradient id="paint2_linear_0_1457" x1="22.9995" y1="35.0003" x2="22.9995" y2="15.2356" gradientUnits="userSpaceOnUse">
<stop stop-color="#13519C"/>
<stop offset="0.5028" stop-color="#FDF0F0"/>
<stop offset="1" stop-color="#FFDDDD"/>
</linearGradient>
</defs>
</svg>
