<svg width="686" height="350" viewBox="0 0 686 350" fill="none" xmlns="http://www.w3.org/2000/svg">
<g opacity="0.4" clip-path="url(#clip0_134_1066)">
<path d="M700 0H0V350H700V0Z" fill="white"/>
<path d="M175 0H0V175H175V0Z" fill="white"/>
<path d="M87.5 0H0V87.5H87.5V0Z" fill="#2983D3"/>
<path d="M175 0H87.5V87.5H175V0Z" fill="#13519C"/>
<path d="M87.5 0L175 87.5H87.5V0Z" fill="#2983D3" fill-opacity="0.41"/>
<path d="M87.5 87.5H0V175H87.5V87.5Z" fill="#2983D3" fill-opacity="0.6"/>
<path d="M350 0H175V175H350V0Z" fill="white"/>
<path d="M262.5 0H175V87.5H262.5V0Z" fill="#13519C"/>
<path d="M218.75 87.5C242.912 87.5 262.5 67.9125 262.5 43.75C262.5 19.5875 242.912 0 218.75 0C194.588 0 175 19.5875 175 43.75C175 67.9125 194.588 87.5 218.75 87.5Z" fill="#13519C"/>
<path d="M262.5 87.5H175V175H262.5V87.5Z" fill="#74B5FF"/>
<path d="M218.75 175C242.912 175 262.5 155.412 262.5 131.25C262.5 107.088 242.912 87.5 218.75 87.5C194.588 87.5 175 107.088 175 131.25C175 155.412 194.588 175 218.75 175Z" fill="#2983D3" fill-opacity="0.4"/>
<path d="M350 87.5H262.5V175H350V87.5Z" fill="#FFFDFC"/>
<path d="M525 0H437.5V87.5H525V0Z" fill="#2983D3"/>
<path d="M437.5 87.5H350V175H437.5V87.5Z" fill="#13519C"/>
<path d="M350 87.5H437.5L350 175V87.5Z" fill="#13519C"/>
<path d="M437.5 87.5H525V175L437.5 87.5Z" fill="#13519C"/>
<path d="M700 0H525V175H700V0Z" fill="white"/>
<path d="M612.5 0H525V87.5H612.5V0Z" fill="#2983D3"/>
<path d="M525 87.5C548.206 87.5 570.462 78.2813 586.872 61.8718C603.281 45.4624 612.5 23.2064 612.5 0L525 0" fill="#2983D3"/>
<path d="M700 0H612.5V87.5H700V0Z" fill="#FFFDFC"/>
<path d="M612.5 87.5H525V175H612.5V87.5Z" fill="#2983D3" fill-opacity="0.6"/>
<path d="M175 175H0V350H175V175Z" fill="white"/>
<path d="M87.5 175V262.5H0L87.5 175Z" fill="#2983D3"/>
<path d="M0 262.5H87.5L0 350V262.5Z" fill="#13519C"/>
<path d="M87.5 262.5H175V350L87.5 262.5Z" fill="#2983D3" fill-opacity="0.4"/>
<path d="M525 175H350V350H525V175Z" fill="white"/>
<path d="M437.5 175H350V262.5H437.5V175Z" fill="#102770"/>
<path d="M437.5 262.5C460.706 262.5 482.962 253.281 499.372 236.872C515.781 220.462 525 198.206 525 175H437.5" fill="#2983D3"/>
<path d="M437.5 262.5H350V350H437.5V262.5Z" fill="#2983D3"/>
<path d="M525 262.5H437.5V350H525V262.5Z" fill="#2983D3" fill-opacity="0.4"/>
<path d="M437.5 262.5C460.706 262.5 482.962 271.719 499.372 288.128C515.781 304.538 525 326.794 525 350H437.5" fill="#13519C"/>
<path d="M700 175H525V350H700V175Z" fill="white"/>
<path d="M612.5 175H525V262.5H612.5V175Z" fill="#13519C"/>
<path d="M700 175H612.5V262.5H700V175Z" fill="#13519C"/>
<path d="M612.5 350C612.5 326.794 621.719 304.538 638.128 288.128C654.538 271.719 676.794 262.5 700 262.5V350" fill="#2983D3" fill-opacity="0.4"/>
</g>
<defs>
<clipPath id="clip0_134_1066">
<rect width="700" height="350" fill="white"/>
</clipPath>
</defs>
</svg>
