<svg width="32" height="32" viewBox="0 0 32 32" fill="none" xmlns="http://www.w3.org/2000/svg">
<path d="M30.516 11.5719C29.9913 9.15972 28.8319 6.93142 27.1575 5.11742C24.8434 2.65882 21.7814 1.03428 18.4481 0.496691C15.1148 -0.0408942 11.6973 0.538643 8.72756 2.14508C5.89681 3.67612 3.69181 5.90071 2.36925 9.01303C2.01323 9.85088 1.77395 10.7447 1.48107 11.6129C1.43023 11.8326 1.78252 11.6218 1.86315 11.5802C3.19695 10.8933 4.60805 10.5375 6.0725 10.8021C7.25805 11.048 8.42776 11.3649 9.57531 11.7511C9.72476 11.8078 9.88449 11.8326 10.0441 11.8236C10.2038 11.8147 10.3597 11.7722 10.5019 11.6991C11.2286 11.314 11.9906 10.9997 12.7775 10.7604C15.5082 10.0551 18.2326 10.1041 20.794 11.421C21.1739 11.6444 21.6029 11.7709 22.0432 11.7896C22.4835 11.8083 22.9216 11.7186 23.3191 11.5283C25.5057 10.641 27.7364 10.5465 29.9234 11.6327C30.1018 11.7213 30.5913 11.9831 30.516 11.5719ZM26.6122 8.85836C25.2247 8.87357 23.8533 9.15694 22.5735 9.69284C22.483 9.72969 22.3904 9.76111 22.2961 9.78693C21.6876 8.05097 20.7246 6.46058 19.4683 5.11681C18.4136 3.99599 17.1956 3.04095 15.8555 2.28403C15.905 2.28154 15.9545 2.28154 16.0041 2.28154C17.8229 2.28454 19.622 2.65802 21.2917 3.37921C22.9614 4.10039 24.4667 5.15417 25.7158 6.47625C26.3988 7.20014 26.9795 8.01411 27.4417 8.89548C27.1669 8.87072 26.8895 8.85836 26.6122 8.85836ZM21.2669 21.79C21.4362 22.2315 21.7326 22.6128 22.1187 22.8858C22.5047 23.1588 22.963 23.3112 23.4357 23.3237C23.9083 23.3362 24.3741 23.2083 24.774 22.9562C25.1739 22.704 25.4901 22.3389 25.6826 21.907C25.875 21.4751 25.9351 20.9959 25.8551 20.5299C25.7752 20.0639 25.5589 19.632 25.2335 19.289C24.9082 18.9459 24.4884 18.707 24.0273 18.6025C23.5661 18.4981 23.0844 18.5327 22.6429 18.702C22.3497 18.8143 22.0815 18.9832 21.8537 19.1993C21.6258 19.4153 21.4428 19.674 21.315 19.9608C21.1872 20.2476 21.1172 20.5568 21.1089 20.8706C21.1007 21.1845 21.1544 21.4969 21.2669 21.79Z" fill="#13519C"/>
<path d="M12.0922 15.447L14.5583 19.4017C14.5927 19.4568 14.6457 19.4978 14.7077 19.5172C14.7697 19.5366 14.8366 19.5331 14.8962 19.5074C14.9559 19.4817 15.0044 19.4355 15.0328 19.3771C15.0613 19.3187 15.0679 19.252 15.0514 19.1892L14.2799 16.2461L15.7013 16.2463C15.8417 16.2463 15.9767 16.1919 16.0779 16.0946C16.1791 15.9973 16.2387 15.8646 16.2442 15.7243L16.393 11.9055C16.3961 11.8258 16.3816 11.7465 16.3507 11.6731C16.3197 11.5997 16.273 11.534 16.2137 11.4807C16.1545 11.4274 16.0843 11.3878 16.0081 11.3646C15.9319 11.3415 15.8515 11.3354 15.7726 11.3468L13.992 11.604C13.9131 11.6154 13.8377 11.644 13.7712 11.6878C13.7046 11.7315 13.6485 11.7894 13.6068 11.8573C13.5651 11.9252 13.5389 12.0015 13.5299 12.0806C13.521 12.1598 13.5296 12.24 13.5551 12.3154L14.3328 14.6167L12.5531 14.6165C12.4562 14.6164 12.3611 14.6423 12.2776 14.6915C12.194 14.7407 12.1252 14.8113 12.0782 14.896C12.0311 14.9807 12.0076 15.0765 12.0101 15.1734C12.0126 15.2703 12.0409 15.3647 12.0922 15.447ZM10.9267 16.7542L8.33159 13.9486C8.27749 13.8901 8.21118 13.8442 8.13738 13.8142C8.06357 13.7842 7.98407 13.7708 7.90451 13.775C7.82495 13.7792 7.74728 13.8008 7.677 13.8383C7.60673 13.8758 7.54558 13.9284 7.49788 13.9922L6.4206 15.4332C6.37291 15.497 6.33983 15.5705 6.32372 15.6485C6.30761 15.7266 6.30886 15.8072 6.32739 15.8847C6.34591 15.9621 6.38126 16.0346 6.43091 16.0969C6.48057 16.1592 6.54332 16.2098 6.61473 16.2451L8.79191 17.3225L7.53334 18.5807C7.4648 18.6492 7.41585 18.7348 7.39155 18.8287C7.36726 18.9225 7.3685 19.0211 7.39517 19.1142C7.42183 19.2074 7.47293 19.2917 7.54318 19.3585C7.61343 19.4253 7.70025 19.472 7.79466 19.4939L12.3349 20.5465C12.3982 20.5612 12.4646 20.5527 12.5222 20.5226C12.5798 20.4924 12.6246 20.4427 12.6486 20.3823C12.6726 20.3219 12.6742 20.2549 12.653 20.1935C12.6318 20.1321 12.5894 20.0803 12.5333 20.0475L9.90666 18.512L10.9119 17.5071C11.0112 17.4078 11.0682 17.2739 11.0709 17.1336C11.0737 16.9932 11.022 16.8572 10.9267 16.7542Z" fill="#13519C"/>
<path d="M27.5991 24.7933L24.3425 25.5453L21.2307 24.4601C20.9793 24.3724 20.75 24.2309 20.5588 24.0455C20.3676 23.8601 20.2192 23.6352 20.1238 23.3865L19.8124 22.5745L19.4423 21.6096C19.2839 21.1965 19.2804 20.7399 19.4325 20.3243L20.415 17.6396L23.0323 15.2261C23.1603 15.1081 23.2385 14.9457 23.251 14.772C23.2636 14.5983 23.2095 14.4263 23.0997 14.2911C22.99 14.1559 22.8328 14.0676 22.6603 14.0441C22.4877 14.0206 22.3127 14.0638 22.1708 14.1647L18.8795 16.5075C18.584 16.7178 18.3576 17.0111 18.229 17.3502L17.1342 20.2374C16.9542 20.712 16.6156 21.1096 16.1757 21.3628L12.744 23.3383C12.3825 23.5464 11.9757 23.6631 11.5589 23.6784L8.26394 23.7995C7.86601 23.8141 7.47695 23.9212 7.12759 24.1123L3.91067 25.872C3.72099 25.9758 3.57537 26.1448 3.50083 26.3477C3.42628 26.5507 3.42786 26.7738 3.50528 26.9756C3.54802 27.0871 3.61266 27.1888 3.69537 27.2749C3.77809 27.3609 3.87721 27.4295 3.98688 27.4766C4.09655 27.5237 4.21454 27.5484 4.3339 27.5491C4.45325 27.5498 4.57154 27.5266 4.68178 27.4809L8.46056 25.9127L12.7285 26.0432C12.7725 26.0445 12.8145 26.0617 12.8469 26.0915C12.8793 26.1213 12.8998 26.1617 12.9048 26.2055C12.9098 26.2492 12.8989 26.2932 12.8741 26.3296C12.8493 26.3659 12.8122 26.3921 12.7697 26.4034L9.51369 27.2644C9.19303 27.3491 8.89186 27.4953 8.62691 27.6948L5.39181 30.1305C5.21325 30.265 5.09315 30.4629 5.0563 30.6834C5.01946 30.9038 5.06868 31.13 5.19381 31.3152C5.31894 31.5005 5.51042 31.6306 5.72871 31.6787C5.947 31.7268 6.17542 31.6892 6.36681 31.5737L9.83025 29.4836L13.4444 29.2223C13.7234 29.2022 13.996 29.129 14.2476 29.0066L18.9604 26.7133C19.4372 26.4814 19.9818 26.4296 20.4937 26.5675L23.4778 27.3714C23.8072 27.4601 24.1549 27.4551 24.4816 27.3569L27.9989 26.2994C28.1927 26.2412 28.3562 26.1098 28.4549 25.9332C28.5536 25.7565 28.5798 25.5485 28.5279 25.3529C28.476 25.1573 28.35 24.9896 28.1767 24.8852C28.0034 24.7807 27.7962 24.7478 27.5991 24.7933Z" fill="#2983D3" fill-opacity="0.6"/>
</svg>
