<svg width="58" height="58" viewBox="0 0 58 58" fill="none" xmlns="http://www.w3.org/2000/svg">
<path d="M50.679 20.4012C50.3575 19.5026 49.7877 18.7137 49.0356 18.1263L39.4077 10.6701L35.5024 7.5381C34.9361 7.08164 34.2759 6.75593 33.5691 6.58434H33.4208L33.2726 6.54568C32.5576 6.38468 31.8158 6.38468 31.1008 6.54568L26.2288 7.69925L14.3259 10.3221C13.3964 10.5294 12.5449 10.9965 11.8706 11.669C11.195 12.3445 10.7256 13.1984 10.5173 14.1308C8.95126 21.3228 6.92125 39.0966 21.5502 49.6137C22.1387 50.0351 22.8152 50.3169 23.5286 50.4387C24.2249 50.6345 24.9564 50.6698 25.6682 50.5417C43.4033 47.3197 49.1903 30.3708 50.8597 23.2046C51.0647 22.2718 51.0023 21.3 50.679 20.4012Z" fill="#F0F0F6"/>
<path d="M24.1142 53.8158C23.5698 53.8133 23.0282 53.7394 22.5031 53.5963C21.6453 53.4475 20.8311 53.1106 20.1186 52.6103C16.0457 49.778 12.6985 46.0243 10.3488 41.6548L11.1995 41.1973C13.4833 45.4261 16.7282 49.0593 20.6728 51.8051C21.2811 52.2304 21.9769 52.5146 22.7093 52.6364C23.4433 52.8409 24.2136 52.8805 24.9648 52.7524C44.7235 49.2144 51.1874 30.6478 53.0497 22.8307C53.2667 21.8907 53.2063 20.9078 52.8757 20.0016C52.5465 19.0878 51.9603 18.2888 51.1874 17.7008L40.3155 9.42623L35.8946 5.99775C35.301 5.53056 34.6127 5.19846 33.8775 5.02466L33.6133 4.97308C32.8559 4.80221 32.07 4.80221 31.3126 4.97308L25.809 6.26199L12.3531 9.16199C11.3939 9.36663 10.5132 9.84059 9.81393 10.5282C9.11914 11.2079 8.63571 12.074 8.42193 13.0222C7.60065 16.7009 7.19214 20.4598 7.20393 24.2291H6.23726C6.22653 20.3864 6.64152 16.5544 7.4746 12.8031C7.73308 11.6741 8.31013 10.643 9.13726 9.83223C9.96773 9.01858 11.0109 8.45569 12.1468 8.20818L25.5964 5.31466L31.0935 4.02576C31.9682 3.82507 32.8757 3.81409 33.7551 3.99354L33.8839 4.02576H33.9677H34.0966C34.9695 4.23304 35.7873 4.62654 36.4939 5.17932L40.9019 8.64642L51.7737 16.9533C52.6949 17.6524 53.3933 18.6039 53.7844 19.6922C54.1773 20.7766 54.2488 21.9514 53.9907 23.0755C52.0574 31.0795 45.4582 50.0844 25.1388 53.7254C24.8005 53.7843 24.4577 53.8148 24.1142 53.8158Z" fill="#36354C"/>
<path d="M8.84758 38.9096H40.3287C41.4109 38.9164 42.4627 38.5524 43.3093 37.8782C44.1559 37.204 44.746 36.2603 44.9816 35.204L49.2995 15.3358C49.3976 14.879 49.3986 14.4066 49.3019 13.9495C49.2052 13.4923 49.0134 13.0608 48.7383 12.683C48.4633 12.3052 48.1118 11.9897 47.7065 11.7573C47.3012 11.5248 46.8514 11.3804 46.3864 11.3338C40.2964 10.6893 27.7878 10.2511 18.076 16.0189C10.0204 20.8007 6.3342 28.1473 4.67155 33.2256C4.45886 33.881 4.40517 34.5776 4.51491 35.2579C4.62464 35.9382 4.89464 36.5827 5.30262 37.138C5.7106 37.6933 6.24488 38.1435 6.86127 38.4516C7.47767 38.7596 8.15849 38.9166 8.84758 38.9096Z" fill="#13519C"/>
<path d="M43.9437 37.4017C45.1424 36.2224 45.2777 34.5469 45.6321 32.2011C45.6321 32.0529 45.4711 31.9433 45.3873 31.8209C44.0561 29.8609 42.1115 28.3986 39.8591 27.6638C37.6067 26.9289 35.174 26.9631 32.9431 27.7608C31.4986 28.261 30.1795 29.0679 29.0764 30.126L28.9926 30.2227C27.5623 28.8196 25.7676 27.8453 23.8119 27.4102C21.8562 26.9751 19.8177 27.0965 17.9275 27.7608C16.4824 28.2596 15.163 29.0666 14.0608 30.126C12.9016 31.2434 12.0186 32.6154 11.4817 34.1333C10.9448 35.6513 10.7687 37.2733 10.9675 38.8711H40.5732C41.8383 38.8086 43.0369 38.2861 43.9437 37.4017Z" fill="white"/>
<path d="M25.7641 30.9245C25.1197 32.0974 24.4173 33.2509 23.7535 34.4238C22.9157 35.8931 22.1101 37.3818 21.311 38.8705H24.7975C25.7316 36.842 26.8084 34.8823 28.0197 33.006C28.4644 32.3358 26.183 30.1705 25.7641 30.9245Z" fill="#E0E0E8"/>
<path d="M37.59 36.029C38.3182 34.8948 38.9176 33.6897 39.6071 32.5361C40.2967 31.3826 41.0056 30.4803 41.5984 29.3912C41.7273 29.1463 40.5544 30.6801 40.6962 30.4288C39.8461 29.9276 38.931 29.5459 37.9767 29.2946C37.6416 29.8101 34.6385 34.9076 33.6203 36.5187C33.1305 37.2986 32.6536 38.0847 32.1831 38.871H36.0111C36.4457 37.8755 36.9744 36.9239 37.59 36.029Z" fill="#E0E0E8"/>
<path d="M32.8017 39.0391L31.0424 34.2187C30.1024 31.7172 28.2168 29.6855 25.7923 28.5619C23.3678 27.4382 20.5988 27.3127 18.0826 28.2124C15.9315 28.9515 14.1009 30.4092 12.8989 32.3401C11.6969 34.2711 11.1971 36.5572 11.4834 38.8135L10.5233 38.936C10.2091 36.459 10.7588 33.9494 12.0794 31.8305C13.4001 29.7115 15.4111 28.1128 17.7733 27.3038C20.5273 26.3243 23.5558 26.465 26.2071 27.6954C28.8586 28.926 30.9211 31.1479 31.951 33.8835L33.7103 38.7104L32.8017 39.0391Z" fill="#36354C"/>
<path d="M17.7027 38.9355C17.5026 37.3444 17.6589 35.7286 18.1602 34.2053L19.0818 34.5082C18.6188 35.8931 18.4756 37.3649 18.6629 38.8131L17.7027 38.9355Z" fill="#36354C"/>
<path d="M45.3682 32.8255C44.1806 30.7328 42.2952 29.1241 40.0416 28.2806C37.788 27.4371 35.3098 27.4126 33.0399 28.2113C32.3388 28.4599 31.6668 28.784 31.0357 29.1779L30.4622 28.3982L30.5266 28.3595C31.2146 27.9253 31.9497 27.5708 32.7177 27.3026C35.2031 26.4282 37.9169 26.4559 40.384 27.3808C42.8511 28.3056 44.9143 30.0687 46.2124 32.3615L45.3682 32.8255Z" fill="#36354C"/>
<path d="M21.4533 28.4377C24.621 28.4377 27.1889 25.9102 27.1889 22.7924C27.1889 19.6745 24.621 17.147 21.4533 17.147C18.2857 17.147 15.7178 19.6745 15.7178 22.7924C15.7178 25.9102 18.2857 28.4377 21.4533 28.4377Z" fill="white"/>
<path d="M21.4533 28.9276C19.8158 28.9362 18.2417 28.2952 17.076 27.1452C15.9103 25.9952 15.248 24.43 15.2344 22.7925C15.248 21.1556 15.9105 19.591 17.0764 18.4421C18.2423 17.2931 19.8164 16.6535 21.4533 16.6638C23.0902 16.6535 24.6643 17.2931 25.8302 18.4421C26.9961 19.591 27.6586 21.1556 27.6721 22.7925C27.6586 24.43 26.9963 25.9952 25.8306 27.1452C24.6649 28.2952 23.0908 28.9362 21.4533 28.9276ZM21.4533 17.6305C20.0744 17.6219 18.7481 18.1592 17.764 19.1252C16.7799 20.0911 16.2181 21.4072 16.201 22.7861C16.2181 24.1649 16.7799 25.481 17.764 26.4469C18.7481 27.4129 20.0744 27.9502 21.4533 27.9416C22.8322 27.9502 24.1585 27.4129 25.1426 26.4469C26.1266 25.481 26.6885 24.1649 26.7055 22.7861C26.6885 21.4072 26.1266 20.0911 25.1426 19.1252C24.1585 18.1592 22.8322 17.6219 21.4533 17.6305Z" fill="#36354C"/>
<path d="M36.2171 28.4383C39.2104 28.4383 41.6369 26.0493 41.6369 23.1023C41.6369 20.1553 39.2104 17.7663 36.2171 17.7663C33.2238 17.7663 30.7974 20.1553 30.7974 23.1023C30.7974 26.0493 33.2238 28.4383 36.2171 28.4383Z" fill="white"/>
<path d="M36.2171 28.9264C34.6666 28.9351 33.1757 28.3301 32.0698 27.2434C30.9639 26.1568 30.3326 24.6768 30.314 23.1264C30.3326 21.5762 30.9639 20.0961 32.0698 19.0095C33.1757 17.9229 34.6666 17.3178 36.2171 17.3264C37.7675 17.3178 39.2583 17.9229 40.3643 19.0095C41.4703 20.0961 42.1014 21.5762 42.1202 23.1264C42.1014 24.6768 41.4703 26.1568 40.3643 27.2434C39.2583 28.3301 37.7675 28.9351 36.2171 28.9264ZM36.2171 18.248C34.9197 18.2395 33.6718 18.7453 32.7466 19.6548C31.8213 20.5643 31.2942 21.8034 31.2806 23.1007C31.2925 24.3992 31.8189 25.6399 32.7443 26.5508C33.6697 27.4617 34.9186 27.9684 36.2171 27.9598C36.8602 27.9649 37.4981 27.8432 38.0943 27.6018C38.6905 27.3604 39.2333 27.0039 39.6917 26.5527C40.1501 26.1015 40.5151 25.5644 40.7659 24.9721C41.0168 24.3798 41.1484 23.7439 41.1535 23.1007C41.1484 22.4575 41.0168 21.8216 40.7659 21.2293C40.5151 20.637 40.1501 20.1 39.6917 19.6487C39.2333 19.1975 38.6905 18.841 38.0943 18.5995C37.4981 18.3581 36.8602 18.2365 36.2171 18.2416V18.248Z" fill="#36354C"/>
<path d="M27.5877 33.0692L24.4875 38.6969L25.3342 39.1633L28.4344 33.5356L27.5877 33.0692Z" fill="#36354C"/>
<path d="M35.0184 33.0714L32.4749 37.6887L33.3215 38.1551L35.8651 33.5378L35.0184 33.0714Z" fill="#36354C"/>
<path d="M40.7215 39.3608H31.9377V38.3941H40.5991C40.786 38.3941 43.9309 38.6583 44.9362 33.6123L47.1337 23.0112L48.0811 23.211L45.8836 33.8057C44.8396 39.0386 41.5271 39.3608 40.7215 39.3608Z" fill="#36354C"/>
<path d="M28.2716 38.3873H10.7749V39.3539H28.2716V38.3873Z" fill="#36354C"/>
<path d="M8.84759 39.3537C8.01235 39.3259 7.19464 39.107 6.45727 38.7138C5.7199 38.3205 5.08257 37.7634 4.59424 37.0852C4.19413 36.4988 3.94987 35.8202 3.88448 35.1133C3.81909 34.4064 3.93471 33.6945 4.22046 33.0446C5.56736 29.571 6.56626 27.541 6.57269 27.5217L7.44269 27.947C7.44269 27.947 6.45669 29.9641 5.12269 33.399C4.89543 33.9016 4.80096 34.4541 4.84835 35.0036C4.89576 35.5531 5.08339 36.0812 5.39336 36.5374C5.79298 37.0856 6.31111 37.5366 6.90918 37.8568C7.50721 38.177 8.16982 38.3583 8.84759 38.387L9.91736 38.8703L8.84759 39.3537Z" fill="#36354C"/>
</svg>
