<svg width="65" height="65" viewBox="0 0 65 65" fill="none" xmlns="http://www.w3.org/2000/svg">
<g clip-path="url(#clip0_78_4878)">
<mask id="mask0_78_4878" style="mask-type:luminance" maskUnits="userSpaceOnUse" x="0" y="0" width="65" height="65">
<path d="M65 0H0V65H65V0Z" fill="white"/>
</mask>
<g mask="url(#mask0_78_4878)">
<path opacity="0.3" d="M31.0243 64.1877C47.2721 64.1877 60.4435 51.0162 60.4435 34.7684C60.4435 18.5206 47.2721 5.34912 31.0243 5.34912C14.7764 5.34912 1.60498 18.5206 1.60498 34.7684C1.60498 51.0162 14.7764 64.1877 31.0243 64.1877Z" fill="#FFA1A1"/>
<path d="M26.7332 47.3348C31.229 44.942 32.9338 39.3577 30.5409 34.8619C28.1481 30.3661 22.5638 28.6613 18.0681 31.0541C13.5723 33.447 11.8675 39.0313 14.2603 43.527C16.6531 48.0228 22.2374 49.7276 26.7332 47.3348Z" fill="#3F2121"/>
<path d="M11.7368 56.9832C16.1279 47.9434 25.3185 41.7217 35.9452 41.7217C43.8194 41.7217 50.9051 45.1378 55.8342 50.5852C50.6086 58.7642 41.4497 64.1874 31.0242 64.1874C23.6454 64.1874 16.9011 61.4709 11.7368 56.9832Z" fill="#FFA1A1"/>
<path d="M1.80099 49.9086C1.8962 49.6372 2.31077 49.6372 2.40598 49.9086L2.60335 50.471C2.64593 50.5924 2.76805 50.6745 2.90584 50.6745H3.54455C3.85266 50.6745 3.98077 51.0396 3.7315 51.2073L3.21477 51.555C3.1033 51.6299 3.05665 51.7628 3.09923 51.8842L3.2966 52.4466C3.39181 52.718 3.05642 52.9436 2.80715 52.7759L2.29044 52.4283C2.17896 52.3533 2.02801 52.3533 1.91653 52.4283L1.39981 52.7759C1.15054 52.9436 0.815153 52.718 0.910362 52.4466L1.10773 51.8842C1.15031 51.7628 1.10367 51.6299 0.992192 51.555L0.475469 51.2073C0.2262 51.0396 0.354308 50.6745 0.662419 50.6745H1.30113C1.43891 50.6745 1.56104 50.5924 1.60362 50.471L1.80099 49.9086Z" fill="#FFA1A1"/>
<path d="M13.6223 20.1278C13.7175 19.8565 14.132 19.8565 14.2273 20.1278L14.4246 20.6903C14.4672 20.8116 14.5893 20.8938 14.7271 20.8938H15.3658C15.6739 20.8938 15.8021 21.2588 15.5528 21.4265L15.0361 21.7741C14.9246 21.8491 14.8779 21.982 14.9205 22.1034L15.1179 22.6658C15.2131 22.9372 14.8777 23.1628 14.6284 22.9951L14.1117 22.6475C14.0003 22.5725 13.8493 22.5725 13.7378 22.6475L13.2211 22.9951C12.9718 23.1628 12.6364 22.9372 12.7317 22.6658L12.929 22.1034C12.9716 21.982 12.9249 21.8491 12.8135 21.7741L12.2968 21.4265C12.0475 21.2588 12.1756 20.8938 12.4837 20.8938H13.1224C13.2602 20.8938 13.3823 20.8116 13.4249 20.6903L13.6223 20.1278Z" fill="#FFD8D8"/>
<path d="M61.651 33.1722C61.7464 32.9009 62.1607 32.9009 62.2561 33.1722L62.4538 33.7347C62.496 33.856 62.6184 33.9382 62.756 33.9382H63.3947C63.7029 33.9382 63.8307 34.3033 63.5815 34.471L63.0648 34.8186C62.9537 34.8936 62.9066 35.0265 62.9494 35.1479L63.1466 35.7103C63.2419 35.9816 62.9066 36.2073 62.6574 36.0396L62.1407 35.692C62.0291 35.6169 61.878 35.6169 61.7669 35.692L61.2502 36.0396C61.0005 36.2073 60.6652 35.9816 60.7605 35.7103L60.9577 35.1479C61.0005 35.0265 60.9539 34.8936 60.8423 34.8186L60.3256 34.471C60.0764 34.3033 60.2042 33.9382 60.5124 33.9382H61.1511C61.2892 33.9382 61.4111 33.856 61.4539 33.7347L61.651 33.1722Z" fill="#FFA1A1"/>
<path d="M27.4187 39.3257C33.4785 36.1005 35.7763 28.5735 32.5511 22.5138C29.3259 16.4541 21.7989 14.1562 15.7392 17.3814C9.67948 20.6066 7.38164 28.1336 10.6068 34.1933C13.8321 40.253 21.359 42.5509 27.4187 39.3257Z" fill="#3F2121"/>
<path d="M39.8962 33.2837C48.5435 28.6813 51.8226 17.9402 47.2202 9.29279C42.6177 0.645412 31.8766 -2.63365 23.2292 1.96879C14.5819 6.57123 11.3028 17.3123 15.9052 25.9597C20.5077 34.6071 31.2488 37.8861 39.8962 33.2837Z" fill="#3F2121"/>
<path fill-rule="evenodd" clip-rule="evenodd" d="M25.6148 15.2769C26.0174 16.559 26.1062 18.266 25.7667 20.088C25.4272 21.9102 24.7297 23.4706 23.8924 24.5217C23.045 25.5854 22.1163 26.0603 21.3024 25.9087C20.4886 25.757 19.7932 24.9795 19.3858 23.682C18.9832 22.3999 18.8944 20.693 19.2339 18.8709C19.5734 17.0488 20.2709 15.4883 21.1082 14.4373C21.9556 13.3735 22.8843 12.8987 23.6982 13.0503C24.5121 13.2019 25.2074 13.9794 25.6148 15.2769ZM26.2371 15.0815C25.8015 13.6942 24.9848 12.6265 23.8177 12.4091C22.6505 12.1916 21.5041 12.8935 20.5981 14.0309C19.682 15.1809 18.9478 16.8457 18.5927 18.7514C18.2376 20.6571 18.323 22.4747 18.7635 23.8774C19.1991 25.2648 20.0158 26.3324 21.1829 26.5499C22.3501 26.7673 23.4965 26.0654 24.4026 24.9281C25.3186 23.7781 26.0529 22.1132 26.4079 20.2075C26.763 18.3018 26.6776 16.4843 26.2371 15.0815Z" fill="white"/>
<path d="M20.6465 17.8188L20.4682 17.8723C20.0084 18.0104 19.51 17.8712 19.1883 17.5146L18.895 19.3992C19.2908 19.1885 19.7792 19.2743 20.0795 19.6071L20.0952 19.6245L20.6465 17.8188Z" fill="white"/>
<path d="M23.8235 15.2632L17.5059 23.4868C17.1651 23.9304 17.3696 24.5779 17.9034 24.7453L23.3965 26.4672L27.7552 35.64V44.7015C27.7552 46.0531 28.9929 47.0661 30.3178 46.7988L37.9713 45.2549C38.9697 45.0535 39.6877 44.1762 39.6877 43.1576V22.4431L23.8235 15.2632Z" fill="#F9B8A4"/>
<mask id="mask1_78_4878" style="mask-type:alpha" maskUnits="userSpaceOnUse" x="27" y="30" width="16" height="17">
<path d="M39.4614 30.0581L27.7554 35.6403V46.2462L42.0304 34.8849L39.4614 30.0581Z" fill="#F9B8A4"/>
</mask>
<g mask="url(#mask1_78_4878)">
<path d="M26.6891 39.3377C26.6655 38.8186 26.9963 36.8007 26.084 36.1307L34.3311 36.0557C34.8854 36.0507 35.1901 36.6157 34.7626 36.9685C32.4036 38.9147 26.712 39.8402 26.6891 39.3377Z" fill="#DB8C74"/>
</g>
<path d="M28.8247 28.2416C27.2516 28.7937 25.5289 27.966 24.9768 26.3929C24.4247 24.8198 25.2524 23.0971 26.8255 22.545C28.3986 21.9929 30.1214 22.8206 30.6734 24.3937C31.2255 25.9668 30.3978 27.6896 28.8247 28.2416Z" fill="#F49D82"/>
<path d="M42.5931 25.4817C40.8426 35.6193 31.5881 36.6004 24.5447 35.7919C19.7909 35.2462 17.2425 30.4037 18.5518 25.8012C19.5341 22.3482 20.722 18.2733 21.879 14.5591C24.5931 5.84612 29.8769 6.03592 34.9336 7.61109C39.9902 9.18626 45.3071 16.7687 42.5931 25.4817Z" fill="#F9B8A4"/>
<path opacity="0.4" d="M32.1603 37.4104L34.8331 40.1176L40.6732 37.186L42.2361 33.401C42.5539 32.3909 42.6114 31.3059 42.4023 30.2629L41.3221 24.873L39.7541 27.14C39.7189 27.1909 39.6998 27.2528 39.6998 27.3163V28.5674C39.6998 28.8279 39.4098 28.959 39.2392 28.7756L36.3384 25.6595C36.1187 25.4235 35.8452 25.2868 35.563 25.2466C35.0353 24.8442 32.6795 24.8977 32.2063 25.4083C31.9097 25.7283 31.7783 26.1603 31.8124 26.5796C31.3793 26.5422 30.9373 26.7308 30.6454 27.1263C30.2929 27.604 30.2598 28.2471 30.5153 28.752L30.4446 28.8479C30.1006 28.8527 29.7566 28.986 29.4785 29.2522C28.9663 29.7427 28.8393 30.5301 29.1232 31.1659C29.0967 31.2476 29.072 31.3298 29.0489 31.4124C28.7145 31.4834 28.4011 31.6798 28.1739 31.9931C27.2814 34.1 29.4038 33.6921 30.0439 34.2378L30.6559 34.7594C30.9196 35.7436 31.4236 36.664 32.1603 37.4104Z" fill="#F49D82"/>
<path d="M28.9315 26.3447C27.6048 27.4267 25.6523 27.2283 24.5704 25.9017C23.4884 24.575 23.6868 22.6225 25.0134 21.5406C26.3401 20.4586 28.2926 20.657 29.3745 21.9836C30.4565 23.3103 30.2581 25.2628 28.9315 26.3447Z" fill="#F49D82"/>
<path d="M29.291 18.9797C30.274 18.0757 28.8931 15.7489 27.1073 14.3777C26.4483 13.8717 25.5425 14.1018 25.0302 14.7558C24.8793 14.9486 24.9583 15.2361 25.1719 15.3559C26.9303 16.342 29.0235 19.2258 29.291 18.9797Z" fill="#522C2C"/>
<path fill-rule="evenodd" clip-rule="evenodd" d="M43.3551 18.2091C48.1508 17.6163 53.0328 19.9711 55.4388 24.4914C58.5566 30.3493 56.3353 37.6256 50.4772 40.7434C50.4334 40.7666 50.3895 40.7897 50.3456 40.8124C50.3381 44.1042 48.5638 47.2851 45.4548 48.9399C40.959 51.3327 35.3747 49.6279 32.9819 45.1321C31.2085 41.8001 31.6859 37.8701 33.8822 35.0847C31.7536 30.3865 32.9003 24.9434 36.4886 21.486L34.7448 18.7458C34.6267 18.8752 34.4854 18.9863 34.324 19.0721C33.5599 19.4788 32.6108 19.1891 32.2041 18.425L28.4824 11.4324C25.8925 13.4666 22.4441 14.1368 19.2398 13.1586L17.7116 12.6921C17.5792 12.6517 17.5253 12.4934 17.6055 12.3806L19.8529 9.21955C20.7035 8.02317 21.8406 7.05938 23.1602 6.41637L27.671 4.2185C32.0277 2.09565 37.2804 3.90748 39.4018 8.26486L42.7008 15.0408C43.1925 16.0509 43.4045 17.14 43.3551 18.2091Z" fill="#3F2121"/>
<path d="M26.5261 25.6182C26.5645 25.932 25.6868 28.4285 21.8755 29.533" stroke="#DB8C74" stroke-width="2.1126" stroke-linecap="round" stroke-linejoin="round"/>
<path d="M22.8531 20.0741C23.3194 20.1645 23.8113 19.651 23.9517 18.9272C24.092 18.2034 23.8278 17.5433 23.3615 17.4528C22.8951 17.3624 22.4033 17.8758 22.2629 18.5997C22.1225 19.3235 22.3868 19.9836 22.8531 20.0741Z" fill="#3F2121"/>
<path fill-rule="evenodd" clip-rule="evenodd" d="M22.4544 14.5834C21.6755 15.4901 21.0349 16.8457 20.7384 18.4376C20.4418 20.0295 20.5511 21.5248 20.9513 22.6511C21.3546 23.7866 22.0251 24.4837 22.8129 24.6305C23.6007 24.7773 24.4771 24.3683 25.2623 23.4543C26.0413 22.5477 26.6818 21.1921 26.9784 19.6002C27.2749 18.0083 27.1656 16.513 26.7655 15.3867C26.3621 14.2513 25.6917 13.5541 24.9039 13.4073C24.1161 13.2605 23.2396 13.6695 22.4544 14.5834ZM21.9597 14.1584C22.8197 13.1573 24.2477 12.3796 25.3601 12.5869C26.4725 12.7941 27.275 13.7455 27.7168 14.9891C28.1619 16.2418 28.4494 18.1928 28.1355 19.8772C27.8217 21.5616 27.1394 23.0285 26.273 24.0369C25.413 25.038 23.985 25.8157 22.8726 25.6084C21.7602 25.4012 20.7785 24.1131 20.3366 22.8695C19.8915 21.6168 19.7833 20.0025 20.0972 18.3181C20.411 16.6337 21.0933 15.1667 21.9597 14.1584Z" fill="white"/>
<path fill-rule="evenodd" clip-rule="evenodd" d="M36.7264 17.9339C36.7943 18.5012 36.0858 17.9872 35.5973 17.9958L27.7608 18.135C27.2723 18.1437 27.4317 17.4622 27.3638 16.8949C27.2959 16.3276 26.8569 16.2069 27.3454 16.1982L35.719 16.9225C36.2075 16.9138 36.6585 17.3667 36.7264 17.9339Z" fill="white"/>
<path d="M33.773 18.2518C34.1153 20.4883 34.2047 22.4635 35.7158 22.2323C36.2372 22.1525 39.5875 19.6509 39.2452 17.4144C38.903 15.1779 37.4005 13.5524 35.8894 13.7836C34.3783 14.0149 33.4308 16.0153 33.773 18.2518Z" fill="#F9B8A4"/>
<path d="M36.9369 17.8773C37.0749 17.9857 37.2747 17.9617 37.3831 17.8237C37.4915 17.6857 37.4675 17.4859 37.3294 17.3775C37.1281 17.2194 36.7906 17.0213 36.4155 16.94C36.0332 16.8572 35.5664 16.8903 35.2033 17.2718C35.0823 17.3988 35.0873 17.6 35.2144 17.721C35.3416 17.842 35.5427 17.837 35.6637 17.7099C35.7047 17.6667 35.7491 17.6324 35.7966 17.606C35.7216 17.7277 35.6655 17.8575 35.6467 17.9987C35.6121 18.2603 35.7126 18.4877 35.867 18.6969C35.9711 18.8382 36.17 18.8683 36.3113 18.7641C36.4526 18.6599 36.4826 18.461 36.3785 18.3197C36.2736 18.1775 36.2725 18.1148 36.2768 18.0823C36.2838 18.0297 36.3219 17.9397 36.4679 17.7631C36.4983 17.7262 36.519 17.6846 36.5303 17.6413C36.6927 17.7093 36.838 17.7997 36.9369 17.8773Z" fill="#DB8C74"/>
<path d="M27.8158 37.46C24.0119 39.4833 17.4504 45.5732 21.6355 53.7464C23.5445 57.4742 28.5508 63.971 26.349 67.9609C24.1472 71.9508 14.9295 75.6433 14.2993 78.59" stroke="#4390FD" stroke-width="1.82694"/>
<path d="M28.2994 37.5635C24.4949 39.5867 17.9326 45.6764 22.1187 53.8498C23.9754 57.4752 29.0955 63.7937 26.8934 67.7837C24.6915 71.7736 15.129 75.5392 14.4688 78.6262" stroke="#0264ED" stroke-width="1.82694"/>
<path d="M34.2634 26.6799C36.7292 28.4423 40.1567 27.872 41.9191 25.4062C43.6814 22.9404 43.1111 19.5129 40.6454 17.7506C38.1796 15.9882 34.752 16.5585 32.9897 19.0243C31.2273 21.49 31.7976 24.9176 34.2634 26.6799Z" fill="#0264ED"/>
<path d="M22.9724 42.4778C25.4381 44.2401 28.8657 43.6699 30.628 41.2041C32.3904 38.7383 31.8201 35.3107 29.3543 33.5484C26.8886 31.7861 23.461 32.3563 21.6987 34.8221C19.9363 37.2879 20.5066 40.7155 22.9724 42.4778Z" fill="#0264ED"/>
<path d="M41.4894 23.5422L37.3682 20.5967L25.5861 37.0816L29.7073 40.0272L41.4894 23.5422Z" fill="#0264ED"/>
<path d="M38.5378 21.2266L42.5242 24.6052L31.7729 40.1171L27.147 37.1641L38.5378 21.2266Z" fill="#4390FD"/>
<path d="M25.2193 41.8131C27.2005 43.2291 29.9544 42.7709 31.3704 40.7897C32.7864 38.8085 32.3282 36.0546 30.347 34.6386C28.3658 33.2226 25.6119 33.6808 24.1959 35.662C22.7799 37.6431 23.2381 40.3971 25.2193 41.8131Z" fill="#4390FD"/>
<path d="M36.3557 25.5402C38.3633 26.9752 41.1388 26.5323 42.5548 24.5512C43.9707 22.57 43.4911 19.8007 41.4834 18.3657C39.4757 16.9308 36.7003 17.3736 35.2843 19.3548C33.8683 21.336 34.348 24.1053 36.3557 25.5402Z" fill="#4390FD"/>
<path d="M32.6595 37.1125L35.3034 39.5823L40.7593 60.3362L48.4618 55.2012L41.0802 36.9078L42.6262 33.4549C42.9406 32.5334 42.9975 31.5435 42.7906 30.592L41.7859 25.675L40.171 27.7431C40.1362 27.7895 40.1174 27.8459 40.1174 27.904V29.0453C40.1174 29.2829 39.8305 29.4025 39.6617 29.2352L36.7923 26.3925C36.575 26.1771 36.3045 26.0524 36.0253 26.0157C35.5033 25.6486 33.9753 24.8951 33.5073 25.3609C33.2139 25.6529 33.0839 26.047 33.1176 26.4294C32.6892 26.3953 32.252 26.5674 31.9632 26.9283C31.6145 27.364 31.5819 27.9507 31.8346 28.4113L31.7646 28.4988C31.4244 28.5032 31.0841 28.6248 30.809 28.8676C30.3024 29.3151 29.8069 29.909 30.0877 30.489C30.0615 30.5636 30.1105 30.4137 30.0877 30.489C29.7569 30.5538 29.7432 31.0823 29.5185 31.3681C29.0207 32.0013 29.9328 33.7204 30.566 34.2183L31.1713 34.6941C31.4322 35.592 31.9307 36.4317 32.6595 37.1125Z" fill="#F9B8A4"/>
<path d="M38.2227 63.3008L37.5909 55.3021C37.5669 54.9993 37.7588 54.7219 38.0485 54.6304C41.2411 53.6196 44.1954 51.9666 46.7288 49.771L47.0217 49.5172C47.2865 49.2877 47.6864 49.313 47.9202 49.5739L52.5867 54.7826C48.7806 58.8808 43.8203 61.8931 38.2227 63.3008Z" fill="#FF8383"/>
</g>
</g>
<defs>
<clipPath id="clip0_78_4878">
<rect width="65" height="65" fill="white"/>
</clipPath>
</defs>
</svg>
