<svg width="24" height="24" viewBox="0 0 24 24" fill="none" xmlns="http://www.w3.org/2000/svg">
<path fill-rule="evenodd" clip-rule="evenodd" d="M12 0.897461L18.6838 3.99954C20.085 4.64989 21.0365 6.07921 20.9465 7.68604C20.7463 11.2559 19.9923 14.0076 18.8135 16.2383C17.6338 18.471 16.0587 20.1247 14.3006 21.5354C12.9568 22.6137 11.0436 22.6144 9.69917 21.5366C7.93922 20.1256 6.36394 18.4718 5.18462 16.2389C4.00631 14.0079 3.25332 11.256 3.05348 7.68596C2.96354 6.0792 3.91497 4.6499 5.31624 3.99954L12 0.897461ZM12 3.10237L6.15821 5.81368C5.44069 6.14669 5.00975 6.84872 5.05036 7.57418C5.23749 10.9172 5.93481 13.3768 6.95311 15.3048C7.97039 17.2309 9.338 18.6837 10.9501 19.9761C11.5631 20.4675 12.436 20.4673 13.0489 19.9755C14.6597 18.6829 16.0274 17.2301 17.0452 15.3039C18.064 13.3759 18.7622 10.9165 18.9496 7.57408C18.9903 6.84871 18.5594 6.1467 17.8418 5.81367L12 3.10237Z" fill="#5C606B"/>
<path d="M12 13C13.6569 13 15 11.6569 15 10C15 8.34315 13.6569 7 12 7C10.3431 7 9 8.34315 9 10C9 11.6569 10.3431 13 12 13Z" fill="#858890"/>
</svg>
