<svg width="36" height="36" viewBox="0 0 36 36" fill="none" xmlns="http://www.w3.org/2000/svg">
<path d="M32.625 32.625V28.125H31.5V32.625H4.5V28.125H3.375V32.625H1.125V33.75H34.875V32.625H32.625Z" fill="#2983D3" fill-opacity="0.4"/>
<path d="M18 12.825C20.7959 12.825 23.0625 10.5584 23.0625 7.76245C23.0625 4.96651 20.7959 2.69995 18 2.69995C15.2041 2.69995 12.9375 4.96651 12.9375 7.76245C12.9375 10.5584 15.2041 12.825 18 12.825Z" fill="#2983D3" fill-opacity="0.4"/>
<path d="M17.4375 16.9875H18.5625C21.0487 16.9875 23.0625 19.0013 23.0625 21.4875V24.3H12.9375V21.4875C12.9375 19.0013 14.9513 16.9875 17.4375 16.9875Z" fill="#13519C"/>
<path d="M18.5625 16.9875L19.125 19.2375L18 20.3625L16.875 19.2375L17.4375 16.9875" fill="#13519C"/>
<path d="M18 16.3125C19.5533 16.3125 20.8125 15.0533 20.8125 13.5C20.8125 11.9467 19.5533 10.6875 18 10.6875C16.4467 10.6875 15.1875 11.9467 15.1875 13.5C15.1875 15.0533 16.4467 16.3125 18 16.3125Z" fill="#13519C"/>
<path d="M12.375 24.1875C12.9938 24.1875 13.5 23.6813 13.5 23.0625C13.5 22.7531 13.3763 22.4719 13.1681 22.2694C12.9656 22.0613 12.6844 21.9375 12.375 21.9375H7.87502V20.25C7.87502 18.3881 6.36189 16.875 4.50002 16.875C3.56627 16.875 2.72252 17.2519 2.11502 17.865C1.80012 18.1771 1.55043 18.5486 1.38047 18.9581C1.21051 19.3675 1.12367 19.8067 1.12502 20.25V25.3125C1.12502 27.1744 2.63814 28.6875 4.50002 28.6875H7.31252C7.93126 28.6875 8.43752 29.1938 8.43752 29.8125V32.0625C8.43752 32.6813 8.94377 33.1875 9.56252 33.1875C9.87189 33.1875 10.1531 33.0638 10.3556 32.8556C10.5638 32.6531 10.6875 32.3719 10.6875 32.0625V28.5244C10.6875 27.2475 9.96751 26.0775 8.82001 25.5038L6.18752 24.1875H12.375ZM27.18 25.5038C26.6189 25.7841 26.1469 26.2152 25.817 26.7487C25.4872 27.2822 25.3125 27.8971 25.3125 28.5244V32.0625C25.3125 32.3719 25.4363 32.6531 25.6444 32.8556C25.8469 33.0638 26.1281 33.1875 26.4375 33.1875C27.0563 33.1875 27.5625 32.6813 27.5625 32.0625V29.8125C27.5625 29.1938 28.0688 28.6875 28.6875 28.6875H31.5C33.3619 28.6875 34.875 27.1744 34.875 25.3125V20.25C34.875 19.3163 34.4981 18.4725 33.885 17.865C33.573 17.5501 33.2014 17.3004 32.792 17.1305C32.3825 16.9605 31.9433 16.8737 31.5 16.875C29.6381 16.875 28.125 18.3881 28.125 20.25V21.9375H23.625C23.3156 21.9375 23.0344 22.0613 22.8319 22.2694C22.6238 22.4719 22.5 22.7531 22.5 23.0625C22.5 23.6813 23.0063 24.1875 23.625 24.1875H29.8125L27.18 25.5038Z" fill="#2983D3" fill-opacity="0.4"/>
<path d="M4.5 16.3125C6.0533 16.3125 7.3125 15.0533 7.3125 13.5C7.3125 11.9467 6.0533 10.6875 4.5 10.6875C2.9467 10.6875 1.6875 11.9467 1.6875 13.5C1.6875 15.0533 2.9467 16.3125 4.5 16.3125Z" fill="#2983D3" fill-opacity="0.4"/>
<path d="M31.5 16.3125C33.0533 16.3125 34.3125 15.0533 34.3125 13.5C34.3125 11.9467 33.0533 10.6875 31.5 10.6875C29.9467 10.6875 28.6875 11.9467 28.6875 13.5C28.6875 15.0533 29.9467 16.3125 31.5 16.3125Z" fill="#2983D3" fill-opacity="0.4"/>
<path d="M10.6875 24.1875L11.9475 25.4475C12.2604 25.7613 12.6321 26.0103 13.0413 26.1802C13.4506 26.3501 13.8894 26.4375 14.3325 26.4375H17.4319V31.0162C16.4644 31.2694 15.7444 32.1413 15.7444 33.1875H20.2444C20.2444 32.1413 19.5244 31.2694 18.5569 31.0162V26.4375H21.6562C22.5506 26.4375 23.4113 26.0831 24.0413 25.4475L25.3012 24.1875H10.6875Z" fill="#2983D3" fill-opacity="0.4"/>
<path d="M18 5.51249L18.5288 7.22812H20.25L18.8606 8.29124L19.3894 10.0125L18 8.94937L16.6106 10.0125L17.1394 8.29124L15.75 7.22812H17.4713L18 5.51249ZM21.5213 12.1387L20.8181 11.2612C21.3356 10.845 21.7631 10.3106 22.0556 9.71437L23.0681 10.2037C22.7081 10.9519 22.1738 11.6212 21.5213 12.1444V12.1387ZM14.3044 11.9981C13.6744 11.4525 13.1681 10.7606 12.8363 10.0012L13.8656 9.55124C14.1325 10.1653 14.5343 10.7114 15.0413 11.1487L14.3044 11.9981ZM22.4944 7.77937V7.76249C22.4944 7.09312 22.3481 6.44624 22.0669 5.84437L23.085 5.36062C23.4394 6.11436 23.6194 6.92437 23.6194 7.76249L22.4944 7.77937ZM13.4944 7.60499L12.3694 7.56562C12.3975 6.72187 12.6113 5.91186 12.9994 5.16936L13.995 5.68686C13.6871 6.28118 13.5143 6.93615 13.4888 7.60499H13.4944ZM20.8406 4.28062C20.3231 3.85874 19.71 3.54937 19.0688 3.39187L19.3388 2.30062C20.1431 2.49749 20.9081 2.87999 21.555 3.40874L20.8406 4.28062ZM15.2775 4.17374L14.5969 3.27937C15.2606 2.77874 16.0425 2.42437 16.8581 2.25562L17.0831 3.35811C16.4306 3.49311 15.8063 3.77437 15.2775 4.17374Z" fill="#13519C"/>
</svg>
