<svg width="16" height="16" viewBox="0 0 16 16" fill="none" xmlns="http://www.w3.org/2000/svg">
<path d="M8.00003 15.41C12.0925 15.41 15.41 12.0924 15.41 7.99997C15.41 3.90754 12.0925 0.589966 8.00003 0.589966C3.9076 0.589966 0.590027 3.90754 0.590027 7.99997C0.590027 12.0924 3.9076 15.41 8.00003 15.41Z" fill="#2983D3" fill-opacity="0.17"/>
<path d="M10.25 3.93497C9.74933 3.53536 9.1198 3.33263 8.48001 3.36497C8.09186 3.33127 7.70116 3.38749 7.33826 3.52927C6.97536 3.67105 6.65002 3.89457 6.38751 4.18247C5.91211 4.80902 5.64933 5.57107 5.63751 6.35747L7.58001 6.65747C7.58432 6.29165 7.68802 5.93389 7.88001 5.62247C7.9491 5.5327 8.03763 5.45975 8.13895 5.40909C8.24027 5.35843 8.35174 5.33138 8.46501 5.32997C8.55637 5.32129 8.64849 5.33368 8.73431 5.36618C8.82012 5.39869 8.89734 5.45045 8.96001 5.51747C9.07987 5.67089 9.13865 5.86326 9.12501 6.05747C9.08912 6.3495 8.94451 6.61729 8.72001 6.80747C8.36872 7.1557 8.04052 7.52649 7.73751 7.91747C7.59335 8.12951 7.48209 8.36215 7.40751 8.60747C7.31155 8.93676 7.25861 9.27709 7.25001 9.61997V9.85997H9.15501C9.14654 9.58682 9.1898 9.31454 9.28251 9.05747C9.4517 8.75397 9.6696 8.48033 9.92751 8.24747C10.3132 7.89897 10.6377 7.48828 10.8875 7.03247C11.0414 6.71184 11.1208 6.3606 11.12 6.00497C11.1404 5.61668 11.0727 5.22881 10.922 4.87036C10.7714 4.51191 10.5416 4.19215 10.25 3.93497ZM8.26251 10.5275C8.07561 10.5275 7.8929 10.5829 7.7375 10.6867C7.58209 10.7906 7.46097 10.9382 7.38945 11.1108C7.31792 11.2835 7.29921 11.4735 7.33567 11.6568C7.37213 11.8401 7.46214 12.0085 7.5943 12.1407C7.72646 12.2728 7.89484 12.3628 8.07815 12.3993C8.26146 12.4358 8.45147 12.4171 8.62415 12.3455C8.79682 12.274 8.94441 12.1529 9.04825 11.9975C9.15209 11.8421 9.20751 11.6594 9.20751 11.4725C9.20751 11.2218 9.10795 10.9815 8.93073 10.8043C8.75351 10.627 8.51314 10.5275 8.26251 10.5275Z" fill="#E5E5E5"/>
<path d="M9.50001 3.93497C8.99933 3.53536 8.3698 3.33263 7.73001 3.36497C7.34186 3.33127 6.95116 3.38749 6.58826 3.52927C6.22536 3.67105 5.90002 3.89457 5.63751 4.18247C5.16211 4.80902 4.89933 5.57107 4.88751 6.35747L6.83001 6.65747C6.83432 6.29165 6.93802 5.93389 7.13001 5.62247C7.1991 5.5327 7.28763 5.45975 7.38895 5.40909C7.49027 5.35843 7.60174 5.33138 7.71501 5.32997C7.80637 5.32129 7.89849 5.33368 7.98431 5.36618C8.07012 5.39869 8.14734 5.45045 8.21001 5.51747C8.32987 5.67089 8.38865 5.86326 8.37501 6.05747C8.33912 6.3495 8.19451 6.61729 7.97001 6.80747C7.61872 7.1557 7.29052 7.52649 6.98751 7.91747C6.84335 8.12951 6.73209 8.36215 6.65751 8.60747C6.56155 8.93676 6.50861 9.27709 6.50001 9.61997V9.85997H8.40501C8.39654 9.58682 8.4398 9.31454 8.53251 9.05747C8.7017 8.75397 8.9196 8.48033 9.17751 8.24747C9.56317 7.89897 9.88767 7.48828 10.1375 7.03247C10.2914 6.71184 10.3708 6.3606 10.37 6.00497C10.3904 5.61668 10.3227 5.22881 10.172 4.87036C10.0214 4.51191 9.79164 4.19215 9.50001 3.93497ZM7.51251 10.5275C7.32561 10.5275 7.1429 10.5829 6.9875 10.6867C6.83209 10.7906 6.71097 10.9382 6.63945 11.1108C6.56792 11.2835 6.54921 11.4735 6.58567 11.6568C6.62213 11.8401 6.71214 12.0085 6.8443 12.1407C6.97646 12.2728 7.14484 12.3628 7.32815 12.3993C7.51146 12.4358 7.70147 12.4171 7.87415 12.3455C8.04682 12.274 8.19441 12.1529 8.29825 11.9975C8.40209 11.8421 8.45751 11.6594 8.45751 11.4725C8.45751 11.2218 8.35795 10.9815 8.18073 10.8043C8.00351 10.627 7.76314 10.5275 7.51251 10.5275Z" fill="#13519C"/>
</svg>
