<svg width="47" height="47" viewBox="0 0 47 47" fill="none" xmlns="http://www.w3.org/2000/svg">
<path d="M32.5549 20.4524C32.802 24.2446 32.2645 28.047 30.976 31.6222C30.8874 31.8411 30.735 32.0283 30.5385 32.1593C30.342 32.2903 30.1106 32.359 29.8744 32.3566H17.1257C16.8891 32.3611 16.6567 32.2932 16.4599 32.1619C16.263 32.0307 16.1109 31.8423 16.0241 31.6222C14.7285 28.0488 14.1908 24.2449 14.4452 20.4524C14.4542 20.2929 14.4305 20.1333 14.3754 19.9835C14.3203 19.8336 14.2351 19.6966 14.1249 19.5809C14.0148 19.4653 13.8821 19.3735 13.7351 19.3112C13.5881 19.2489 13.4299 19.2173 13.2702 19.2186H11.9997C11.7813 19.2221 11.5662 19.1651 11.3783 19.0538C11.1903 18.9425 11.0369 18.7813 10.9349 18.5881C10.833 18.3949 10.7866 18.1773 10.8009 17.9593C10.8151 17.7413 10.8895 17.5316 11.0157 17.3533C14.2058 12.8807 18.2336 9.06986 22.8758 6.13204C23.0623 6.01305 23.2788 5.94983 23.5 5.94983C23.7212 5.94983 23.9378 6.01305 24.1242 6.13204C28.7669 9.06927 32.7949 12.8802 35.9844 17.3533C36.1119 17.5289 36.1883 17.7363 36.205 17.9527C36.2218 18.169 36.1784 18.3858 36.0795 18.5789C35.9807 18.7721 35.8303 18.9341 35.645 19.047C35.4597 19.1599 35.2467 19.2193 35.0297 19.2186H33.7225C33.5632 19.2173 33.4052 19.2488 33.2586 19.3112C33.1119 19.3736 32.9797 19.4655 32.8701 19.5813C32.7606 19.6971 32.676 19.8341 32.6218 19.984C32.5676 20.1339 32.5448 20.2933 32.5549 20.4524Z" fill="#13519C"/>
<path d="M18.4256 32.3639H17.1331C16.8966 32.3684 16.6642 32.3005 16.4673 32.1692C16.2705 32.038 16.1184 31.8496 16.0316 31.6295C14.736 28.0561 14.1983 24.2522 14.4527 20.4597C14.4617 20.3002 14.438 20.1406 14.3829 19.9908C14.3278 19.8409 14.2426 19.7039 14.1324 19.5882C14.0223 19.4726 13.8896 19.3808 13.7426 19.3185C13.5956 19.2562 13.4374 19.2246 13.2777 19.2259H12.0072C11.7833 19.2351 11.5613 19.1805 11.3673 19.0684C11.1732 18.9562 11.015 18.7913 10.9111 18.5927C10.8072 18.3941 10.7619 18.1701 10.7804 17.9468C10.799 17.7234 10.8806 17.51 11.0158 17.3312C14.2081 12.858 18.2385 9.04703 22.8833 6.10997C22.9695 6.05267 23.0634 6.00815 23.1624 5.97778C20.0706 10.9201 16.6925 19.549 18.4256 32.3639Z" fill="#13519C"/>
<path d="M13.2555 39.6562L11.3461 41.2572C11.1982 41.3813 11.0272 41.475 10.843 41.5329C10.6588 41.5908 10.465 41.6119 10.2726 41.5948C10.0802 41.5778 9.89314 41.523 9.722 41.4335C9.55085 41.3441 9.39903 41.2218 9.27521 41.0736L4.07583 34.824C3.95174 34.6761 3.85804 34.5051 3.8001 34.3209C3.74215 34.1367 3.72111 33.9429 3.73816 33.7505C3.75521 33.5581 3.81003 33.371 3.89948 33.1999C3.98892 33.0287 4.11124 32.8769 4.25943 32.7531L6.1688 31.1595C6.4672 30.9112 6.85179 30.7911 7.23848 30.8255C7.62518 30.8599 7.98252 31.046 8.2324 31.3431L13.4391 37.5486C13.5689 37.6974 13.6674 37.8709 13.7286 38.0587C13.7898 38.2465 13.8126 38.4447 13.7954 38.6414C13.7783 38.8382 13.7216 39.0295 13.6289 39.2038C13.5361 39.3782 13.4091 39.5321 13.2555 39.6562Z" fill="#13519C"/>
<path d="M40.8239 32.2611C40.8258 32.75 40.6784 33.2278 40.4015 33.6306C40.1247 34.0335 39.7314 34.3423 39.2744 34.5157L35.2059 36.0799C30.9542 37.7169 26.4329 38.5415 21.877 38.5107L14.1954 38.4593L8.26904 31.3872L13.8503 26.4816C14.0944 26.2648 14.3519 26.0637 14.6214 25.8794C15.4609 25.3101 16.4001 24.904 17.39 24.6824L26.6284 22.6188C26.7804 22.6178 26.9312 22.6469 27.0719 22.7044C27.2126 22.762 27.3406 22.8467 27.4484 22.9539C27.5563 23.061 27.6419 23.1885 27.7003 23.3288C27.7587 23.4692 27.7887 23.6197 27.7887 23.7718V25.9161C27.7887 26.555 27.495 26.6505 26.6284 27.0691L21.3483 29.2722L24.2858 30.6088C26.3747 31.5669 28.6831 31.9448 30.9686 31.703C31.7142 31.6197 32.4514 31.4723 33.1717 31.2624L37.7395 29.9332C38.0986 29.8298 38.4767 29.8112 38.8442 29.8786C39.2117 29.9461 39.5586 30.0979 39.8575 30.3221C40.1564 30.5463 40.3992 30.8368 40.5669 31.1707C40.7346 31.5046 40.8226 31.8728 40.8239 32.2465V32.2611Z" fill="#13519C" fill-opacity="0.26"/>
<path d="M13.2556 39.6563L11.3536 41.2573C11.0774 41.4888 10.7258 41.6108 10.3656 41.5999C10.0055 41.5891 9.66182 41.4462 9.40012 41.1985L9.28262 41.0737L8.21777 39.7958C9.11591 39.6579 9.95208 39.2539 10.6184 38.636C11.2847 38.0181 11.7505 37.2148 11.9557 36.3296L12.2715 36.1901L13.4392 37.5854C13.5633 37.7333 13.657 37.9043 13.7149 38.0885C13.7729 38.2727 13.7939 38.4666 13.7769 38.6589C13.7598 38.8513 13.705 39.0384 13.6155 39.2095C13.5261 39.3807 13.4038 39.5325 13.2556 39.6563Z" fill="#13519C"/>
<path d="M40.7725 32.2611C40.7744 32.75 40.6271 33.2278 40.3502 33.6306C40.0733 34.0335 39.68 34.3423 39.223 34.5157L35.1619 36.0799C30.9203 37.7169 26.4087 38.5415 21.8624 38.5107L14.1955 38.4593L13.4611 37.556L12.2935 36.1607L12.8222 35.9404C22.9346 36.8436 29.7128 34.075 33.9281 31.0568L37.7102 29.9552C38.0688 29.8532 38.4461 29.8356 38.8127 29.9037C39.1792 29.9719 39.525 30.1239 39.823 30.3479C40.121 30.5719 40.3631 30.8619 40.5304 31.1951C40.6977 31.5283 40.7856 31.8957 40.7872 32.2685L40.7725 32.2611Z" fill="#13519C"/>
</svg>
