<svg width="34" height="34" viewBox="0 0 34 34" fill="none" xmlns="http://www.w3.org/2000/svg">
<path d="M25.8824 33.7647C30.2357 33.7647 33.7647 30.2357 33.7647 25.8824C33.7647 21.5291 30.2357 18 25.8824 18C21.5291 18 18 21.5291 18 25.8824C18 30.2357 21.5291 33.7647 25.8824 33.7647Z" fill="#2983D3" fill-opacity="0.4"/>
<path d="M29.4992 1.71126L29.4993 1.71128C30.318 2.25046 30.8544 3.00612 30.9987 3.84322L30.9002 3.86021L30.9987 3.84322L32.9683 15.2682C33.0586 15.5467 33.1032 15.8341 33.0998 16.1228M29.4992 1.71126L32.871 15.2923C32.9595 15.5629 33.0031 15.8418 32.9998 16.1217C32.9901 17.0111 32.513 17.8139 31.7492 18.3944C31.4122 18.6503 31.0196 18.8631 30.5864 19.0206M29.4992 1.71126C28.7029 1.1871 27.6881 0.9 26.6412 0.9H7.32087C6.27329 0.9 5.25783 1.18742 4.46117 1.71225L4.46115 1.71226C3.64213 2.25211 3.10598 3.00846 2.96266 3.84625L0.91725 15.8014L0.917207 15.8013L0.916792 15.8043L0.913887 15.825L0.913812 15.8249L0.913421 15.8288C0.904699 15.915 0.9 16.0043 0.9 16.0933C0.9 17.0123 1.3704 17.8636 2.20972 18.4921C2.53946 18.7391 2.91166 18.9405 3.31343 19.0925M29.4992 1.71126L20.6285 30.2007M33.0998 16.1228L32.9998 16.1217L33.0998 16.1228C33.0998 16.1228 33.0998 16.1228 33.0998 16.1228ZM33.0998 16.1228C33.0897 17.0495 32.5924 17.8792 31.8097 18.474L31.8097 18.474C31.4814 18.7233 31.1026 18.932 30.6864 19.0901M30.6864 19.0901V19.0206H30.5864M30.6864 19.0901V23.1108C30.6864 23.3726 30.4741 23.5853 30.2119 23.5853C29.95 23.5853 29.7378 23.3725 29.7378 23.1108V19.3496C29.4289 19.4039 29.1075 19.4325 28.778 19.4325L28.749 19.4323L28.7218 19.4321H28.7208C27.6022 19.421 26.5454 19.0836 25.7466 18.4779L25.807 18.3982L25.7466 18.4779C25.3571 18.1826 25.0484 17.8389 24.8305 17.4623C24.6091 17.8451 24.2937 18.1936 23.8952 18.4921C23.0836 19.1 22.0133 19.4325 20.8827 19.4325C19.7524 19.4325 18.6821 19.1 17.8705 18.4921C17.4911 18.208 17.187 17.8785 16.9675 17.5172C16.7482 17.8785 16.4441 18.2081 16.0648 18.4921C15.2532 19.1 14.1829 19.4325 13.0523 19.4325C11.922 19.4325 10.8517 19.1 10.0401 18.4921C9.66073 18.208 9.35663 17.8785 9.13713 17.5172C8.91784 17.8785 8.61373 18.2081 8.23437 18.4921C7.42276 19.1 6.35252 19.4325 5.22188 19.4325C4.89523 19.4325 4.57376 19.4049 4.26205 19.3505V29.1398C4.26205 29.7257 4.73703 30.2007 5.32292 30.2007H13.6906V23.9414C13.6906 22.7563 14.6544 21.7925 15.8392 21.7925H18.4796C19.6647 21.7925 20.6285 22.7563 20.6285 23.9414V30.2007M30.6864 19.0901C30.6646 19.0984 30.6426 19.1066 30.6206 19.1146L30.5864 19.0206M30.5864 19.0206V23.1108C30.5864 23.3174 30.4189 23.4853 30.2119 23.4853C30.0053 23.4853 29.8378 23.3174 29.8378 23.1108V19.3311L20.6285 30.2007M30.5864 29.1398C30.5861 30.1945 29.7312 31.0497 28.6769 31.0497H5.32292C4.26858 31.0497 3.41343 30.1945 3.41343 29.1398V19.0229M30.5864 29.1398L1.01582 15.8182L1.01291 15.8389C1.00452 15.9218 1 16.0077 1 16.0933C1 16.9755 1.45098 17.7991 2.26966 18.4121C2.60895 18.6662 2.99505 18.8715 3.41343 19.0229M30.5864 29.1398V24.5732C30.5864 24.3663 30.4189 24.1987 30.2119 24.1987C30.0053 24.1987 29.8378 24.3663 29.8378 24.5732V29.1398C29.8378 29.781 29.318 30.3007 28.6769 30.3007H20.6285L30.5864 29.1398ZM3.41343 19.0229H3.31343V19.0925M3.41343 19.0229L3.3794 19.1169C3.35732 19.1089 3.33533 19.1008 3.31343 19.0925M3.31343 19.0925V29.1398C3.31343 30.2497 4.21335 31.1497 5.32292 31.1497H28.6769C29.7865 31.1497 30.6861 30.2497 30.6864 29.1399V29.1398V24.5732C30.6864 24.311 30.4741 24.0987 30.2119 24.0987C29.95 24.0987 29.7378 24.3111 29.7378 24.5732V29.1398C29.7378 29.7257 29.2628 30.2007 28.6769 30.2007H20.6285M20.6285 30.2007H20.5285V23.9414C20.5285 22.8115 19.6095 21.8925 18.4796 21.8925H15.8392C14.7096 21.8925 13.7906 22.8115 13.7906 23.9414V30.2007H20.6285ZM4.16205 18.6035C4.49747 18.6788 4.85322 18.7191 5.22188 18.7191C7.21176 18.7191 8.8304 17.5411 8.8304 16.0933C8.8304 16.0284 8.82717 15.9635 8.82103 15.9012L4.16205 18.6035ZM4.16205 18.6035C3.89831 18.5445 3.64747 18.4641 3.41343 18.3646L4.16205 18.6035ZM28.778 19.3325C29.1079 19.3325 29.4294 19.3033 29.7378 19.2481L28.7218 19.3321C28.7311 19.3321 28.7405 19.3322 28.7499 19.3323C28.7592 19.3324 28.7686 19.3325 28.778 19.3325ZM23.8352 18.4121C24.2426 18.107 24.5587 17.75 24.7737 17.3595L17.025 17.4183C17.239 17.7858 17.5437 18.1225 17.9305 18.4121C18.7227 19.0055 19.7712 19.3325 20.8827 19.3325C21.9945 19.3325 23.043 19.0055 23.8352 18.4121ZM16.0048 18.4121C16.3916 18.1225 16.6963 17.7858 16.91 17.4183L9.19463 17.4183C9.40858 17.7858 9.71327 18.1225 10.1001 18.4121C10.8923 19.0055 11.9408 19.3325 13.0523 19.3325C14.1641 19.3325 15.2126 19.0055 16.0048 18.4121ZM8.17442 18.4121C8.56119 18.1225 8.86588 17.7858 9.07959 17.4183L4.26205 19.2489C4.5733 19.3043 4.89483 19.3325 5.22188 19.3325C6.33368 19.3325 7.38221 19.0055 8.17442 18.4121ZM4.16205 29.1398V19.332L13.6906 30.3007H5.32292C4.6818 30.3007 4.16205 29.781 4.16205 29.1398ZM31.2718 17.8582L31.2717 17.8582C31.0519 18.0193 30.8085 18.1567 30.5471 18.2685L30.547 18.2686C30.3158 18.3678 30.0708 18.4469 29.8158 18.5044L29.8157 18.5044C29.4683 18.583 29.1029 18.6223 28.7288 18.6188C27.7667 18.6091 26.8981 18.3154 26.2723 17.8537C25.6462 17.3918 25.2694 16.7676 25.2694 16.0933C25.2694 16.0316 25.2725 15.9702 25.2786 15.9115L25.2786 15.9114L25.3131 15.5734L25.3244 15.4632H25.2137H24.4473H24.3365L24.3478 15.5734L24.3823 15.911C24.3881 15.97 24.3912 16.0316 24.3912 16.0933C24.3912 16.7772 24.009 17.4064 23.3743 17.8683C22.7397 18.3301 21.8587 18.6191 20.8827 18.6191C19.9068 18.6191 19.0258 18.3301 18.3912 17.8683C17.7564 17.4064 17.3742 16.7772 17.3742 16.0933C17.3742 16.0316 17.3772 15.9702 17.3833 15.9115L17.3833 15.9114L17.4179 15.5734L17.4291 15.4632H17.3184H16.6169H16.5061L16.5174 15.5734L16.5519 15.911C16.5519 15.911 16.5519 15.9111 16.5519 15.9112C16.5577 15.9701 16.5608 16.0317 16.5608 16.0933C16.5608 16.7772 16.1786 17.4064 15.5439 17.8683C14.9093 18.3301 14.0283 18.6191 13.0523 18.6191C12.0764 18.6191 11.1954 18.3301 10.5608 17.8683C9.926 17.4064 9.54376 16.7772 9.54376 16.0933C9.54376 16.0316 9.54683 15.9702 9.55291 15.9115L9.55293 15.9114L9.58747 15.5734L9.59873 15.4632H9.48799H8.78649H8.67575L8.68701 15.5734L8.72152 15.911C8.72153 15.9111 8.72153 15.9112 8.72154 15.9113C8.72734 15.9702 8.7304 16.0317 8.7304 16.0933C8.7304 16.7772 8.34823 17.4064 7.7135 17.8683C7.07892 18.3301 6.1979 18.6191 5.22188 18.6191C4.8605 18.6191 4.51209 18.5795 4.18393 18.506L4.18391 18.506C3.92582 18.4481 3.68078 18.3696 3.45253 18.2726L3.45237 18.2725C2.39875 17.827 1.71336 17.0075 1.71336 16.0933C1.71336 16.036 1.71601 15.9794 1.72126 15.9245L3.76444 3.98361L3.76444 3.98361C3.87331 3.34721 4.30205 2.78064 4.93822 2.37101C5.574 1.96164 6.41126 1.71336 7.32087 1.71336H26.6412C27.5498 1.71336 28.3866 1.96139 29.0224 2.37035C29.6586 2.77957 30.0877 3.34554 30.1973 3.98116L32.1759 15.4601L32.1773 15.4682L32.18 15.4759L32.1874 15.4973C32.1875 15.4975 32.1875 15.4976 32.1876 15.4977C32.2557 15.6996 32.2889 15.9066 32.2865 16.1137L32.2865 16.1138C32.2795 16.7584 31.926 17.3792 31.2718 17.8582ZM14.6389 23.9414C14.6389 23.2797 15.1778 22.7411 15.8392 22.7411H18.4796C19.1413 22.7411 19.6799 23.2797 19.6799 23.9414V30.2007H14.6389V23.9414ZM30.5864 18.3605C30.3495 18.4621 30.0986 18.5432 29.8378 18.6019L30.5864 18.3605Z" fill="#13519C" stroke="#13519C" stroke-width="0.2"/>
</svg>
