<svg width="18" height="19" viewBox="0 0 18 19" fill="none" xmlns="http://www.w3.org/2000/svg">
<path d="M16.3803 15.8478L13.721 13.1873L13.6587 13.0903C13.5428 12.9722 13.3844 12.9057 13.219 12.9057C13.0536 12.9057 12.8951 12.9722 12.7792 13.0903C10.5192 15.212 7.03679 15.3273 4.6415 13.3598C2.2462 11.3922 1.68129 7.95239 3.32142 5.32153C4.96155 2.69066 8.29777 1.68515 11.1175 2.97184C13.9373 4.25852 15.3655 7.43815 14.4551 10.402C14.3896 10.6161 14.4431 10.849 14.5957 11.0128C14.7483 11.1767 14.9766 11.2467 15.1947 11.1964C15.4129 11.1462 15.5876 10.9833 15.6532 10.7692C16.7415 7.25199 15.0978 3.46696 11.7854 1.86265C8.47293 0.25834 4.48587 1.31621 2.4034 4.35193C0.320929 7.38765 0.768022 11.4902 3.45545 14.0056C6.14288 16.521 10.2641 16.6944 13.1532 14.4136L15.5078 16.7693C15.7509 17.0115 16.1441 17.0115 16.3873 16.7693C16.6302 16.5236 16.6302 16.1281 16.3873 15.8825L16.3803 15.8478Z" fill="#1A45D6"/>
</svg>
