<svg width="29" height="36" viewBox="0 0 29 36" fill="none" xmlns="http://www.w3.org/2000/svg">
<g clip-path="url(#clip0_433_1152)">
<path fill-rule="evenodd" clip-rule="evenodd" d="M2.23567 2.03662L1.87672 3.24268L3.16225 3.62529C1.87672 3.24268 1.87683 3.24232 1.87672 3.24268L1.87537 3.24723L1.87258 3.2567L1.86281 3.29017C1.85447 3.31887 1.84257 3.36021 1.82746 3.41362C1.79726 3.5204 1.75422 3.67543 1.70134 3.87376C1.5956 4.27031 1.45029 4.84072 1.28923 5.54536C0.967594 6.95259 0.580764 8.90574 0.322374 11.0855C-0.182976 15.3485 -0.247514 20.8495 2.00343 24.7118C3.57762 27.413 6.59129 29.8279 9.05395 31.5107C10.3106 32.3692 11.4741 33.0705 12.3235 33.5572C12.7488 33.8009 13.0969 33.9917 13.3404 34.1225C13.4622 34.1879 13.5579 34.2384 13.6242 34.2729L13.7011 34.3128L13.7222 34.3237L13.7302 34.3278C13.7305 34.3279 13.7314 34.3283 14.3393 33.1328L13.7302 34.3278L14.3393 34.6376L14.9473 34.3283L14.3393 33.1328C14.9473 34.3283 14.9471 34.3285 14.9473 34.3283L14.9564 34.3237L14.9776 34.3128L15.0544 34.2729C15.1207 34.2384 15.2164 34.1879 15.3382 34.1225C15.5818 33.9917 15.9298 33.8009 16.3552 33.5572C17.2047 33.0705 18.3681 32.3692 19.6247 31.5107C22.0874 29.8279 25.101 27.413 26.6753 24.7118C28.9261 20.8495 28.8616 15.3485 28.3563 11.0855C28.098 8.90574 27.711 6.95259 27.3894 5.54536C27.2284 4.84072 27.0831 4.27031 26.9773 3.87376C26.9244 3.67543 26.8814 3.5204 26.8513 3.41362C26.8361 3.36021 26.8242 3.31887 26.8159 3.29017L26.806 3.2567L26.8033 3.24723L26.8024 3.24434C26.8023 3.24399 26.8019 3.24268 25.5164 3.62529L26.8019 3.24268L26.443 2.03662L25.2167 2.31796L25.1999 2.32177L25.1454 2.33405C25.0969 2.34496 25.0243 2.36115 24.9297 2.38187C24.7406 2.42333 24.4641 2.4829 24.118 2.55452C23.4253 2.69789 22.4561 2.8891 21.3519 3.0802C19.1222 3.4661 16.4222 3.83706 14.3393 3.83706C12.2565 3.83706 9.55648 3.4661 7.32671 3.0802C6.2226 2.8891 5.25339 2.69789 4.56068 2.55452C4.21455 2.4829 3.93805 2.42333 3.74894 2.38187C3.6544 2.36115 3.58175 2.34496 3.5332 2.33405L3.47875 2.32177L2.23567 2.03662ZM24.5502 5.20435C23.8451 5.34928 22.8906 5.53629 21.8094 5.7234C19.5525 6.11401 16.664 6.51957 14.3393 6.51957C12.0147 6.51957 9.12615 6.11401 6.86925 5.7234C5.7881 5.53629 4.83355 5.34928 4.12848 5.20435C4.06028 5.4777 3.98443 5.79248 3.9043 6.14308C3.59763 7.48482 3.23048 9.34072 2.98622 11.4013C2.48627 15.6188 2.55082 20.3235 4.32107 23.3612C5.57309 25.5095 8.14797 27.6428 10.5673 29.2958C11.7517 30.105 12.8526 30.7687 13.6572 31.2298C13.9191 31.3798 14.1489 31.5081 14.3393 31.6124C14.5297 31.5081 14.7596 31.3798 15.0214 31.2298C15.8261 30.7687 16.9269 30.105 18.1113 29.2958C20.5307 27.6428 23.1056 25.5095 24.3576 23.3612C26.1279 20.3235 26.1924 15.6188 25.6924 11.4013C25.4482 9.34072 25.0811 7.48482 24.7743 6.14308C24.6943 5.79248 24.6184 5.4777 24.5502 5.20435Z" fill="url(#paint0_linear_433_1152)"/>
<path d="M11.8904 20.8753L7.20801 15.7574L8.91889 14.2017L12.1501 17.9715L20.2283 11.509L21.4714 13.3642L11.8904 20.8753Z" fill="url(#paint1_linear_433_1152)"/>
</g>
<defs>
<linearGradient id="paint0_linear_433_1152" x1="39.6867" y1="13.8546" x2="-21.5899" y2="26.5194" gradientUnits="userSpaceOnUse">
<stop offset="0.0895831" stop-color="#1E96FC" stop-opacity="0.4"/>
<stop offset="0.501041" stop-color="#1E96FC"/>
<stop offset="0.797916" stop-color="#1E96FC" stop-opacity="0.4"/>
</linearGradient>
<linearGradient id="paint1_linear_433_1152" x1="28.2835" y1="15.0801" x2="-2.46611" y2="26.7104" gradientUnits="userSpaceOnUse">
<stop offset="0.0895831" stop-color="#1E96FC" stop-opacity="0.4"/>
<stop offset="0.501041" stop-color="#1E96FC"/>
<stop offset="0.797916" stop-color="#1E96FC" stop-opacity="0.4"/>
</linearGradient>
<clipPath id="clip0_433_1152">
<rect width="28.875" height="34.375" fill="white" transform="translate(0 0.875)"/>
</clipPath>
</defs>
</svg>
