<svg width="36" height="36" viewBox="0 0 36 36" fill="none" xmlns="http://www.w3.org/2000/svg">
<path fill-rule="evenodd" clip-rule="evenodd" d="M4.31392 17.6193V25.6875C4.31392 27.4553 5.01614 29.1506 6.26611 30.4005C7.51604 31.6504 9.21134 32.3527 10.979 32.3527C15.1563 32.3527 20.8336 32.3527 25.0108 32.3527C26.7785 32.3527 28.4738 31.6504 29.7238 30.4005C30.9737 29.1506 31.6759 27.4553 31.6759 25.6875C31.6759 22.8812 31.6759 20.0748 31.6759 20.0748C31.6759 19.494 31.2044 19.0224 30.6236 19.0224C30.0427 19.0224 29.5712 19.494 29.5712 20.0748C29.5712 20.0748 29.5712 22.8812 29.5712 25.6875C29.5712 26.897 29.0907 28.057 28.2355 28.9122C27.3803 29.7674 26.2203 30.2479 25.0108 30.2479C20.8336 30.2479 15.1563 30.2479 10.979 30.2479C9.76956 30.2479 8.60961 29.7674 7.7544 28.9122C6.89916 28.057 6.41869 26.897 6.41869 25.6875V17.6193H33.4299C33.8014 17.6193 34.1453 17.4235 34.3349 17.1041C34.5245 16.7847 34.5317 16.389 34.3538 16.063L30.1443 8.34545C29.9599 8.00737 29.6055 7.797 29.2204 7.797H6.7695C6.38438 7.797 6.03004 8.00737 5.84562 8.34545L1.63608 16.063C1.4582 16.389 1.46541 16.7847 1.65501 17.1041C1.84461 17.4235 2.18854 17.6193 2.55996 17.6193H4.31392ZM27.4664 20.0748C27.4664 19.4936 26.9952 19.0224 26.414 19.0224H17.9949C17.4137 19.0224 16.9425 19.4936 16.9425 20.0748V27.0907C16.9425 27.672 17.4137 28.1431 17.9949 28.1431H26.414C26.9952 28.1431 27.4664 27.672 27.4664 27.0907V20.0748ZM25.3616 21.1272V26.0384H19.0473V21.1272L25.3616 21.1272ZM31.6572 15.5145H4.33272C4.33275 15.5145 7.39423 9.90177 7.39423 9.90177C7.39426 9.90177 28.5956 9.90177 28.5956 9.90177L31.6572 15.5145Z" fill="#2983D3" fill-opacity="0.6"/>
<path fill-rule="evenodd" clip-rule="evenodd" d="M8.52344 31.1221C8.52344 31.602 8.84808 32.0211 9.31274 32.1411C9.85268 32.2805 10.4121 32.3527 10.979 32.3527H15.1886C15.7698 32.3527 16.2409 31.8816 16.2409 31.3004V22.8813C16.2409 21.8579 15.8344 20.8764 15.1107 20.1527C14.3871 19.4291 13.4056 19.0225 12.3822 19.0225C11.3588 19.0225 10.3773 19.4291 9.65365 20.1527C8.92998 20.8764 8.52344 21.8579 8.52344 22.8813V31.1221ZM10.6282 30.2344V22.8813C10.6282 22.4161 10.813 21.97 11.1419 21.641C11.4709 21.3121 11.917 21.1273 12.3822 21.1273C12.8474 21.1273 13.2935 21.3121 13.6224 21.641C13.9514 21.97 14.1362 22.4161 14.1362 22.8813V30.2479L10.979 30.248L10.6282 30.2344ZM10.8387 5.6923H25.1511C25.732 5.6923 26.2035 5.22076 26.2035 4.63991C26.2035 4.05909 25.732 3.58752 25.1511 3.58752H10.8387C10.2579 3.58752 9.7863 4.05909 9.7863 4.63991C9.7863 5.22076 10.2579 5.6923 10.8387 5.6923Z" fill="#2983D3"/>
</svg>
