<svg width="44" height="44" viewBox="0 0 44 44" fill="none" xmlns="http://www.w3.org/2000/svg">
<path opacity="0.1" d="M8.75635 21.3775L13.9271 19.6065C15 19.2059 15.4525 16.7885 19.0203 13.2077C22.1488 9.91194 24.5105 5.96562 25.9364 1.65097C25.9859 1.50948 26.0673 1.38122 26.1741 1.27602C26.2809 1.17083 26.4104 1.09148 26.5527 1.04407C26.6949 0.996654 26.8461 0.982426 26.9947 1.00248C27.1433 1.02252 27.2854 1.07632 27.4099 1.15974C29.168 2.32317 31.9474 5.46442 28.1856 12.5225C27.7977 13.2594 37.7774 10.2862 40.9316 14.0479C43.0645 16.6333 40.8024 29.1855 37.5059 32.637C34.5457 35.7523 19.4082 33.8521 19.4082 33.8521L12.5052 37.1743" fill="#E0E0E8"/>
<path d="M24.139 29.5227C21.295 29.5306 18.4822 28.9304 15.8893 27.7621C13.2963 26.5937 10.9832 24.8845 9.10498 22.7489L12.5048 37.1754L19.3819 33.8791C19.3819 33.8791 34.584 35.7793 37.4797 32.664C39.6255 30.4147 41.3578 24.3131 41.668 19.6206C39.774 22.5742 37.1868 25.0203 34.1319 26.746C31.0768 28.4718 27.6464 29.425 24.139 29.5227Z" fill="#13519C"/>
<path d="M12.9449 38.042L12.1046 36.2968L18.9689 32.9745C19.1377 32.894 19.3259 32.8626 19.5117 32.884C25.2125 33.595 34.9466 33.9828 36.8597 31.9792C39.9623 28.7216 41.9142 16.6606 40.2467 14.6699C38.3334 12.4077 32.8395 13.1058 30.2024 13.4548C28.4572 13.6745 27.8626 13.7521 27.436 13.1445C27.3467 12.9798 27.2999 12.7954 27.2999 12.6081C27.2999 12.4207 27.3467 12.2363 27.436 12.0716C30.797 5.77614 28.5866 3.02271 26.9835 1.96269C25.4806 6.41079 23.0332 10.4811 19.8092 13.8943C18.4299 15.2745 17.2271 16.8202 16.2283 18.4963C15.6079 19.5046 15.1425 20.2286 14.3668 20.5259L9.06678 22.2451L8.44629 20.4095L13.6171 18.6385C13.964 18.2753 14.2597 17.8665 14.4961 17.4234C15.579 15.6188 16.8815 13.9558 18.3742 12.4723C21.3923 9.27821 23.6735 5.46137 25.0575 1.29049C25.1604 1.00879 25.3265 0.754401 25.5429 0.546801C25.7594 0.339203 26.0205 0.183908 26.3062 0.0928187C26.5919 0.00172873 26.8948 -0.0227401 27.1915 0.0212873C27.488 0.0653146 27.7708 0.17667 28.0178 0.34682C29.6465 1.43269 32.8912 4.62565 29.8146 11.5416H29.9696C33.1756 11.1279 39.1479 10.3523 41.7462 13.4419C44.3444 16.5314 41.604 29.8462 38.2818 33.3235C35.1792 36.5294 22.1101 35.1721 19.5506 34.8489L12.9449 38.042Z" fill="#13519C"/>
<path d="M18.9816 38.3274L6.76562 40.9903L2.20239 20.695L14.4184 18.0449L18.9816 38.3274Z" fill="#13519C"/>
<path d="M15.7879 38.7809L6.7214 41.3663L2.2146 20.6831L11.2635 18.744L15.7879 38.7809Z" fill="#2983D3"/>
<path d="M6.75254 41.9457C6.53371 41.9455 6.32137 41.8714 6.15003 41.7352C5.97871 41.5991 5.85846 41.409 5.80887 41.1959L1.24564 20.9522C1.21764 20.8292 1.21466 20.7016 1.23686 20.5772C1.25907 20.4528 1.30601 20.3342 1.37491 20.2284C1.4441 20.119 1.53477 20.0247 1.64143 19.9515C1.74808 19.8782 1.8685 19.8272 1.99541 19.8018L14.2114 17.0742C14.4616 17.0202 14.7229 17.0675 14.9385 17.2055C15.154 17.3435 15.3062 17.5612 15.3619 17.8111L19.9252 38.0935C19.9809 38.3465 19.9344 38.6113 19.7958 38.8303C19.7276 38.9378 19.6387 39.0308 19.5345 39.104C19.4303 39.1772 19.3127 39.2292 19.1883 39.2568L6.95937 41.9198L6.75254 41.9457ZM3.35275 21.4305L7.48938 39.8257L17.8309 37.5894L13.6943 19.1812L3.35275 21.4305Z" fill="#13519C"/>
<path d="M31.8487 38.9565L32.2494 39.7839C32.2734 39.8336 32.3098 39.8764 32.355 39.9081C32.4003 39.9398 32.453 39.9593 32.508 39.9649L33.4127 40.1071C33.4773 40.1136 33.5384 40.1385 33.589 40.179C33.6396 40.2195 33.6775 40.2738 33.698 40.3352C33.7184 40.3967 33.7207 40.4628 33.7045 40.5254C33.6883 40.5882 33.6543 40.645 33.6066 40.6888L32.9474 41.2834C32.9075 41.3235 32.8783 41.3727 32.8624 41.427C32.8466 41.4813 32.8447 41.5385 32.8569 41.5938L33.0767 42.5761C33.0861 42.6395 33.0779 42.7043 33.0528 42.7634C33.0279 42.8224 32.9871 42.8734 32.935 42.9108C32.8828 42.9482 32.8215 42.9705 32.7576 42.9754C32.6936 42.9802 32.6297 42.9673 32.5725 42.9381L31.7582 42.5244C31.7079 42.4994 31.6526 42.4864 31.5966 42.4864C31.5404 42.4864 31.4851 42.4994 31.4349 42.5244L30.6336 42.9381C30.5854 43.0135 30.5095 43.0667 30.4222 43.0862C30.3349 43.1056 30.2436 43.0895 30.1682 43.0415C30.0926 42.9935 30.0394 42.9176 30.02 42.8303C30.0007 42.7429 30.0167 42.6515 30.0646 42.5761L30.2198 41.6841C30.2422 41.6144 30.2443 41.5398 30.2261 41.4688C30.2078 41.398 30.1698 41.3337 30.1164 41.2834L29.47 40.6371C29.4224 40.5932 29.3884 40.5364 29.3722 40.4738C29.3561 40.411 29.3583 40.3449 29.3788 40.2834C29.3994 40.222 29.437 40.1679 29.4876 40.1274C29.5382 40.0869 29.5996 40.0618 29.6639 40.0554L30.556 39.9907C30.6117 39.9879 30.6655 39.9694 30.7111 39.9375C30.7569 39.9053 30.7927 39.8612 30.8145 39.8097L31.2281 38.9825C31.255 38.9241 31.2975 38.8744 31.3509 38.8388C31.4041 38.803 31.4663 38.7827 31.5304 38.78C31.5947 38.7773 31.6583 38.7924 31.7143 38.8235C31.7705 38.8548 31.817 38.9008 31.8487 38.9565Z" fill="#2983D3"/>
<path d="M14.7593 1.78961L15.0954 3.31499C15.1151 3.41079 15.1585 3.5001 15.2217 3.57466C15.2851 3.64921 15.366 3.70663 15.4574 3.74158L16.9052 4.33623C17.0071 4.37838 17.0952 4.44803 17.1598 4.5374C17.2244 4.62676 17.2629 4.73233 17.2709 4.8423C17.279 4.95227 17.2563 5.06232 17.2054 5.16014C17.1545 5.25796 17.0775 5.33971 16.9827 5.39623L15.69 6.19771C15.6082 6.24614 15.5395 6.31387 15.49 6.395C15.4404 6.47612 15.4115 6.56817 15.4056 6.66308L15.2376 8.22724C15.2308 8.3379 15.1934 8.44446 15.1292 8.53491C15.0651 8.62536 14.9771 8.6961 14.8748 8.73912C14.7726 8.78214 14.6605 8.79575 14.551 8.77838C14.4415 8.76103 14.339 8.71341 14.2552 8.64091L13.0788 7.60675C13.0053 7.54292 12.9181 7.49689 12.8239 7.47224C12.7298 7.44757 12.6312 7.44495 12.5359 7.46456L11.0234 7.85236C10.916 7.87829 10.8034 7.87376 10.6984 7.83926C10.5934 7.80478 10.5001 7.7417 10.4289 7.65711C10.3577 7.57253 10.3116 7.46979 10.2956 7.36042C10.2796 7.25105 10.2944 7.1394 10.3383 7.03796L10.9588 5.59014C11.0064 5.5076 11.0315 5.41398 11.0315 5.31868C11.0315 5.22337 11.0064 5.12974 10.9588 5.04721L10.1315 3.7545C10.0742 3.65883 10.0443 3.54926 10.0452 3.43775C10.046 3.32625 10.0776 3.21713 10.1363 3.12236C10.195 3.02758 10.2787 2.95079 10.3782 2.90041C10.4777 2.85001 10.5891 2.82797 10.7002 2.83669L12.2515 2.99182C12.3489 2.99845 12.4465 2.982 12.5363 2.94382C12.6262 2.90563 12.7057 2.84678 12.7686 2.77206L13.6864 1.544C13.7543 1.44748 13.8495 1.37337 13.9597 1.3311C14.0699 1.28884 14.1902 1.28034 14.3053 1.30668C14.4204 1.33302 14.525 1.39301 14.6058 1.47901C14.6867 1.56502 14.7401 1.67314 14.7593 1.78961Z" fill="#2983D3"/>
</svg>
