<svg width="112" height="97" viewBox="0 0 112 97" fill="none" xmlns="http://www.w3.org/2000/svg">
<path d="M93 50.5C93 76.1812 72.1812 97 46.5 97C20.8188 97 0 76.1812 0 50.5C0 24.8188 20.8188 4 46.5 4C72.1812 4 93 24.8188 93 50.5ZM9.3 50.5C9.3 71.045 25.955 87.7 46.5 87.7C67.045 87.7 83.7 71.045 83.7 50.5C83.7 29.955 67.045 13.3 46.5 13.3C25.955 13.3 9.3 29.955 9.3 50.5Z" fill="#13519C"/>
<path d="M26 44L47 65L108 4" stroke="#102770" stroke-width="8" stroke-linecap="round" stroke-linejoin="round"/>
</svg>
