<svg width="24" height="24" viewBox="0 0 24 24" fill="none" xmlns="http://www.w3.org/2000/svg">
<path fill-rule="evenodd" clip-rule="evenodd" d="M4.63135 18.3592L8.65069 14.3398L10.0649 15.7541L6.04556 19.7734L4.63135 18.3592Z" fill="#858890"/>
<path fill-rule="evenodd" clip-rule="evenodd" d="M14 9.01947L18.0193 5.00012L19.4336 6.41434L15.4142 10.4337L14 9.01947Z" fill="#858890"/>
<path fill-rule="evenodd" clip-rule="evenodd" d="M6.00015 4.99976L10.0195 9.01911L8.60529 10.4333L4.58594 6.41398L6.00015 4.99976Z" fill="#858890"/>
<path fill-rule="evenodd" clip-rule="evenodd" d="M15.9999 14.9998L20.0193 19.0191L18.6051 20.4333L14.5857 16.414L15.9999 14.9998Z" fill="#858890"/>
<path fill-rule="evenodd" clip-rule="evenodd" d="M12.5 4C7.80558 4 4 7.80558 4 12.5C4 17.1944 7.80558 21 12.5 21C17.1944 21 21 17.1944 21 12.5C21 7.80558 17.1944 4 12.5 4ZM2 12.5C2 6.70101 6.70101 2 12.5 2C18.299 2 23 6.70101 23 12.5C23 18.299 18.299 23 12.5 23C6.70101 23 2 18.299 2 12.5Z" fill="#5C606B"/>
<path fill-rule="evenodd" clip-rule="evenodd" d="M12.5 9C10.567 9 9 10.567 9 12.5C9 14.433 10.567 16 12.5 16C14.433 16 16 14.433 16 12.5C16 10.567 14.433 9 12.5 9ZM7 12.5C7 9.46243 9.46243 7 12.5 7C15.5376 7 18 9.46243 18 12.5C18 15.5376 15.5376 18 12.5 18C9.46243 18 7 15.5376 7 12.5Z" fill="#5C606B"/>
</svg>
