<svg width="142" height="149" viewBox="0 0 142 149" fill="none" xmlns="http://www.w3.org/2000/svg">
<path d="M137.062 82.5779C137.062 105.42 125.382 125.547 107.675 137.392C107.675 137.392 107.641 137.392 107.641 137.426C105.938 138.546 104.167 139.632 102.329 140.583C94.0198 145.063 84.6212 147.812 74.6437 148.355C73.4417 148.423 72.2381 148.457 71.0341 148.457C67.1181 148.457 63.3723 148.151 59.6605 147.507C47.027 145.334 35.6193 139.564 26.5953 131.351C13.2807 119.302 4.93774 101.958 4.93774 82.6458C4.93774 46.2613 34.5296 16.8007 71.0001 16.8007C107.471 16.8007 137.062 46.1934 137.062 82.5779Z" fill="#E6E5E5"/>
<path d="M78.696 56.8508H65.5516C65.5516 56.8508 71.579 71.4454 36.4365 78.0299L43.6217 134.473H100.558L107.743 78.0299C72.7027 71.4114 78.696 56.8508 78.696 56.8508Z" fill="white" stroke="#221F1F" stroke-width="1.5" stroke-miterlimit="10"/>
<path d="M63.9171 68.9677L72.7028 72.5654L80.7392 69.3071L82.7824 72.1241L72.873 103.791L61.5334 71.7847L63.9171 68.9677Z" fill="#E6E4E4"/>
<path d="M72.7025 76.6383L69.3994 73.0406L61.8057 69.4089L64.3937 65.5057L69.2292 67.3385L72.7025 76.6383Z" fill="#DBDADA" stroke="black" stroke-width="1.5" stroke-miterlimit="10"/>
<path d="M72.7026 76.6383L71.8853 75.7898L68.48 67.7458L67.5266 73.5157L59.5242 69.8841L63.27 63.2656L69.1611 66.3542L72.7026 76.6383Z" fill="#F7FAFB" stroke="black" stroke-width="1.5" stroke-miterlimit="10"/>
<path d="M71.6128 76.6383L74.9159 73.0406L82.5097 69.4089L79.9217 65.5057L75.0862 67.3385L71.6128 76.6383Z" fill="#DBDADA" stroke="black" stroke-width="1.5" stroke-miterlimit="10"/>
<path d="M71.6128 76.6383L72.4301 75.7898L75.8353 67.7458L76.7888 73.5157L84.7912 69.8841L81.0454 63.2656L75.1543 66.3542L71.6128 76.6383Z" fill="#F7FAFB" stroke="black" stroke-width="1.5" stroke-miterlimit="10"/>
<path d="M68.5142 68.5603L70.0465 74.9072H74.2691L75.8015 68.5603H68.5142Z" fill="#13519C"/>
<path d="M68.5142 114.38L70.0465 74.9072H74.2691L75.8015 114.38H68.5142Z" fill="#13519C"/>
<path d="M70.0807 76.3329L74.2692 74.9073H70.0466L70.0807 76.3329Z" fill="#13519C"/>
<path d="M61.4994 70.2574L36.5046 75.8916L46.414 132.81C46.414 132.81 71.7833 133.795 72.8389 132.81C73.8946 131.826 72.8389 105.59 72.8389 105.59L61.4994 70.2574Z" fill="white" stroke="#221F1F" stroke-width="1.5" stroke-miterlimit="10"/>
<path d="M61.7038 65.6075L63.781 69.8162C66.8798 76.0953 71.0683 91.5383 72.1239 98.4962L72.9412 108.678L73.2817 137.766L70.9321 107.66L58.4347 83.4265L61.3973 79.4214L57.3791 81.2882L55.1316 71.5132C55.1316 71.5132 59.4563 67.7798 60.8184 65.7433L61.7038 65.6075Z" fill="white" stroke="#221F1F" stroke-width="1.5" stroke-miterlimit="10"/>
<path d="M82.8163 70.2574L107.811 75.8916L97.9017 132.81C97.9017 132.81 72.5324 133.795 71.4767 132.81C70.4211 131.826 71.4767 105.59 71.4767 105.59L82.8163 70.2574Z" fill="white" stroke="#221F1F" stroke-miterlimit="10"/>
<path d="M82.6121 65.6075L80.5349 69.8162C77.4361 76.0953 73.2476 91.5383 72.1919 98.4962L71.3747 108.678L71.0342 137.766L73.3838 107.66L85.8811 83.4265L82.9186 79.4214L86.9368 81.2882L89.1843 71.5132C89.1843 71.5132 84.8596 67.7798 83.4975 65.7433L82.6121 65.6075ZM37.1517 76.3668C37.1517 76.3668 33.3718 76.3668 32.8951 80.1342C32.4183 83.9016 20.3977 122.221 20.3977 122.221C20.3977 122.221 23.9392 130.91 37.6284 128.33L44.473 108.101L37.1517 76.3668Z" fill="white" stroke="#221F1F" stroke-width="1.5" stroke-miterlimit="10"/>
<path d="M34.734 134.779C41.8806 134.779 47.674 129.065 47.674 122.017C47.674 114.969 41.8806 109.255 34.734 109.255C27.5874 109.255 21.7939 114.969 21.7939 122.017C21.7939 129.065 27.5874 134.779 34.734 134.779Z" fill="white" stroke="#221F1F"/>
<path d="M41.6466 124.563C42.4639 124.936 43.2811 125.377 43.9962 125.92L45.2902 121.135C44.5451 119.952 43.6004 118.907 42.4979 118.046L41.6466 124.563ZM25.2332 125.411C27.1742 121.101 31.5329 118.114 36.6068 118.114C37.5943 118.114 38.5137 118.216 39.4332 118.453L39.8759 111.054C38.3094 110.341 36.5727 109.968 34.7339 109.968C29.013 109.968 24.2116 113.77 22.7473 118.929L25.2332 125.411Z" fill="#E2E2E1"/>
<path d="M107.164 76.3667C107.164 76.3667 110.944 76.3667 111.42 80.1341C111.897 83.9016 123.918 122.221 123.918 122.221C123.918 122.221 120.376 130.91 106.687 128.33L99.8425 108.101L107.164 76.3667Z" fill="white" stroke="#221F1F" stroke-width="1.5" stroke-miterlimit="10"/>
<path d="M109.582 134.779C116.728 134.779 122.522 129.065 122.522 122.017C122.522 114.969 116.728 109.255 109.582 109.255C102.435 109.255 96.6416 114.969 96.6416 122.017C96.6416 129.065 102.435 134.779 109.582 134.779Z" fill="white" stroke="#221F1F" stroke-width="1.5"/>
<path d="M102.669 119.132C101.852 119.505 101.035 119.947 100.319 120.49L99.0254 115.704C99.7706 114.522 100.715 113.477 101.818 112.616L102.669 119.132ZM119.082 125.411C117.141 121.101 112.783 118.114 107.709 118.114C106.721 118.114 105.802 118.216 104.882 118.453L104.44 111.054C106.006 110.341 107.743 109.968 109.582 109.968C115.303 109.968 120.104 113.77 121.568 118.929L119.082 125.411Z" fill="#E2E2E1"/>
<path d="M109.173 132.369H35.1425L24.0753 142.517C23.5305 143.026 23.1899 143.773 23.1899 144.588C23.1899 146.183 24.4839 147.439 26.0504 147.439H118.299C119.9 147.439 121.16 146.149 121.16 144.588C121.16 143.807 120.853 143.094 120.342 142.585C120.002 142.212 109.173 132.369 109.173 132.369Z" fill="#F7FAFB"/>
<path d="M101.069 137.528H105.019L103.589 135.661H99.9449L101.069 137.528ZM91.9085 135.661H88.0265L88.6054 137.528H92.7598L91.9085 135.661ZM97.7315 135.661H93.9516L94.8029 137.528H98.8893L97.7315 135.661ZM91.4998 134.813L90.6145 132.946H87.1411L87.72 134.813H91.4998ZM86.0514 135.661H82.1013L82.4077 137.528H86.6303L86.0514 135.661ZM108.628 134.813L106.926 132.946H103.861L105.291 134.813H108.628ZM80.4667 137.528L80.1603 135.661H76.1761L76.2101 137.528H80.4667ZM102.908 134.813L101.477 132.946H98.2423L99.4001 134.813H102.908ZM85.779 134.813L85.2001 132.946H59.7286L58.8432 134.813H85.779ZM38.4456 135.661H35.1766L34.4955 136.272L33.1334 137.528H36.709L38.4456 135.661ZM52.6116 135.661L51.4538 137.528H55.5061L56.3574 135.661H52.6116ZM63.7468 137.528H68.0034L68.3099 135.661H64.3257L63.7468 137.528ZM69.9104 137.528H74.201L74.2351 135.661H70.2169L69.9104 137.528ZM57.6173 137.528H61.7718L62.3507 135.661H58.4687L57.6173 137.528ZM97.2207 134.813L96.0629 132.946H92.6917L93.5771 134.813H97.2207ZM95.484 138.954L96.6758 141.601H101.375L99.7747 138.954H95.484ZM101.954 138.954L103.555 141.601H108.118L106.108 138.954H101.954ZM89.048 138.954L89.8313 141.601H94.6327L93.4408 138.954H89.048ZM112.442 138.954H108.424L110.433 141.601H114.826C114.213 140.854 113.362 139.972 112.442 138.954ZM82.6121 138.954L82.9866 141.601H87.8562L87.0389 138.954H82.6121ZM107.334 137.528H111.114L109.412 135.661H105.938L107.334 137.528ZM40.9655 132.946H38.2754C38.1051 133.082 37.2878 133.829 36.1641 134.813H39.2629L40.9655 132.946ZM76.2101 138.954L76.1761 141.601H81.0797L80.6711 138.954H76.2101ZM35.5171 141.533H39.9099L41.919 138.886H37.9348C37.0154 139.972 36.1641 140.854 35.5171 141.533ZM28.7747 141.533H32.9972C33.4399 141.024 34.3593 140.074 35.4149 138.886H31.6351C30.5454 139.938 29.5579 140.854 28.7747 141.533ZM45.3584 137.528H49.3085L50.4663 135.661H40.9655L39.2629 137.528H45.3584ZM46.5502 132.946H43.4854L41.7828 134.813H45.12L46.5502 132.946ZM57.6854 132.946H54.3142L53.1564 134.813H56.8001L57.6854 132.946ZM52.1008 132.946H48.8658L47.4356 134.813H50.943L52.1008 132.946ZM62.5209 141.533H67.3905L67.7651 138.886H63.3042L62.5209 141.533ZM55.7444 141.533H60.5459L61.3291 138.886H56.9363L55.7444 141.533ZM74.167 138.954H69.672L69.2634 141.601H74.167V138.954ZM49.002 141.533H53.7013L54.8931 138.886H50.6025L49.002 141.533ZM42.2595 141.533H46.8226L48.4231 138.886H44.2687L42.2595 141.533Z" fill="#D3D3D3"/>
<path d="M23.4624 145.776C23.9391 146.726 24.8926 147.371 26.0164 147.371H118.265C119.389 147.371 120.377 146.726 120.819 145.776H23.4624Z" fill="#C1C7CD"/>
<path d="M28.1956 124.359L29.149 127.889L31.737 135.424L39.2968 133.082L47.7759 133.794L52.8498 129.552C52.8498 129.552 53.5989 131.622 55.7102 132.539C57.8215 133.489 60.75 130.468 60.75 130.468L56.0167 122.221L49.4104 122.933L45.6306 115.399L39.9778 115.874L39.9438 120.863L37.9687 119.811L28.1956 124.359Z" fill="#E2E2E1" stroke="#221F1F" stroke-width="1.5" stroke-miterlimit="10"/>
<path d="M39.9438 125.751C39.9438 125.751 42.5999 127.244 45.4263 125.649L45.6306 115.433C45.6306 115.433 42.2253 114.889 39.9778 115.908L39.9438 125.751ZM27.5826 125.004L25.7097 133.184C25.7097 133.184 26.9356 134.948 28.7064 134.134C30.4771 133.319 31.1241 127.278 31.1241 127.278L27.5826 125.004Z" fill="white" stroke="#221F1F" stroke-width="1.5" stroke-miterlimit="10"/>
<path d="M31.124 127.278L27.5825 124.97L29.5235 133.217C30.6813 131.351 31.124 127.278 31.124 127.278Z" fill="white" stroke="#221F1F" stroke-width="1.5" stroke-miterlimit="10"/>
<path d="M27.5827 125.004L31.4647 135.661C31.4647 135.661 34.223 136.883 35.7894 134.439L33.0311 125.547L36.4024 134.27C36.4024 134.27 39.0585 135.933 40.7271 132.946L37.9347 119.845C37.9347 119.845 35.517 119.913 32.6225 122.017C32.6565 122.017 27.5486 121.847 27.5827 125.004ZM49.4105 122.933L56.0167 122.221L60.7501 130.468C60.7501 130.468 58.2302 130.808 56.9702 129.246C55.7443 127.651 53.6671 123.069 53.6671 123.069L49.4105 122.933Z" fill="white" stroke="#221F1F" stroke-width="1.5" stroke-miterlimit="10"/>
<path d="M116.12 124.359L115.166 127.889L112.578 135.424L105.019 133.082L96.5395 133.794L91.4657 129.552C91.4657 129.552 90.7165 131.622 88.6052 132.539C86.494 133.489 83.5654 130.468 83.5654 130.468L88.2988 122.221L94.905 122.933L98.6849 115.399L104.338 115.874L104.372 120.863L106.347 119.811L116.12 124.359Z" fill="#E2E2E1" stroke="#221F1F" stroke-width="1.5" stroke-miterlimit="10"/>
<path d="M104.372 125.751C104.372 125.751 101.716 127.244 98.8891 125.649L98.6848 115.433C98.6848 115.433 102.09 114.889 104.338 115.908L104.372 125.751ZM116.733 125.004L118.606 133.184C118.606 133.184 117.38 134.948 115.609 134.134C113.838 133.319 113.191 127.312 113.191 127.312L116.733 125.004Z" fill="white" stroke="#221F1F" stroke-width="1.5" stroke-miterlimit="10"/>
<path d="M113.191 127.278L116.733 124.97L114.792 133.217C113.634 131.351 113.191 127.278 113.191 127.278Z" fill="white" stroke="#221F1F" stroke-width="1.5" stroke-miterlimit="10"/>
<path d="M116.733 125.004L112.851 135.661C112.851 135.661 110.093 136.883 108.526 134.439L111.284 125.547L107.913 134.27C107.913 134.27 105.257 135.933 103.588 132.946L106.381 119.845C106.381 119.845 108.799 119.913 111.693 122.017C111.659 122.017 116.767 121.847 116.733 125.004ZM94.905 122.933L88.2988 122.221L83.5654 130.468C83.5654 130.468 86.0853 130.808 87.3453 129.246C88.5712 127.651 90.6484 123.069 90.6484 123.069L94.905 122.933Z" fill="white" stroke="#221F1F" stroke-width="1.5" stroke-miterlimit="10"/>
<path d="M51.3176 36.113C51.3176 36.113 47.1291 30.92 43.2471 34.3141C39.3651 37.7082 44.9157 48.2298 52.3392 45.7521L51.3176 36.113Z" fill="white" stroke="black" stroke-width="0.5" stroke-miterlimit="10"/>
<path d="M51.6921 39.7786L52.2029 44.7339C45.801 45.8539 42.1233 37.2669 45.0859 36.0451C47.4696 35.1287 50.4662 38.1155 51.6921 39.7786ZM90.342 35.7057C90.342 35.7057 94.4283 30.4448 98.3785 33.771C102.329 37.0972 97.0164 47.7207 89.5588 45.4127L90.342 35.7057Z" fill="white" stroke="black" stroke-miterlimit="10"/>
<path d="M90.0697 39.3713L89.6951 44.3606C96.1651 45.3449 99.6044 36.69 96.6078 35.57C94.19 34.6196 91.2615 37.7082 90.0697 39.3713Z" fill="white" stroke="black" stroke-miterlimit="10"/>
<path d="M48.6614 31.6667C48.8657 24.6071 51.9304 17.9207 59.1496 15.1036C62.7933 13.6781 66.8796 13.2369 70.8297 13.2708C74.7117 13.3048 78.8662 13.5084 82.5779 14.8321C89.1842 17.208 88.2647 20.4663 88.9798 26.8811C89.048 27.492 93.4748 30.5467 93.5429 31.1916C93.611 32.6171 93.7472 34.0426 93.7132 35.536C93.6451 38.8282 93.1343 42.1205 92.0446 45.2091C90.7165 49.0105 88.5031 52.5403 85.2681 55.1198C83.4292 56.5793 81.318 57.7332 79.0024 58.5139C75.2566 59.8376 71.681 60.3128 67.765 59.6339C65.0748 59.1927 62.5209 58.3781 60.1372 57.1223C56.2551 55.018 53.2926 51.7257 51.4197 47.8904C49.8532 44.6661 49.0019 41.1362 48.6954 37.6064C48.4911 35.6717 48.4571 33.7371 48.6273 31.8025C48.6273 31.7346 48.6273 31.7007 48.6614 31.6667Z" fill="white" stroke="black" stroke-width="1.5" stroke-miterlimit="10"/>
<path d="M48.9338 41.5434L48.6954 39.2015C48.6614 39.2355 48.6614 39.2694 48.6614 39.2694L48.9338 41.5434Z" fill="#102770"/>
<path d="M86.46 31.2256C86.46 31.2256 86.3919 31.1238 86.1535 30.9201C86.0513 30.8522 85.9151 30.6825 85.7789 30.6147C85.6086 30.5128 85.4384 30.3771 85.2341 30.2413L84.519 29.9019C84.2465 29.8001 83.9741 29.6643 83.6676 29.5964C83.3612 29.4946 83.0547 29.4267 82.7482 29.3589C82.4417 29.291 82.1012 29.291 81.7607 29.257C81.4202 29.257 81.1137 29.2231 80.7391 29.2231C80.4326 29.2231 80.0921 29.257 79.7516 29.291C79.4451 29.3249 79.1386 29.3928 78.8662 29.4607C78.5938 29.5285 78.3214 29.6304 78.083 29.6983C77.8722 29.7599 77.6672 29.8394 77.47 29.9358C77.2657 30.0037 77.1295 30.1055 76.9933 30.1734C76.7209 30.2752 76.6187 30.3771 76.6187 30.3771H77.0955C77.2657 30.3771 77.4019 30.3771 77.6062 30.3431C77.8106 30.3092 78.0489 30.3092 78.2532 30.3092L79.0024 30.2753H80.705L81.5904 30.3092C81.7607 30.3092 81.8969 30.3431 82.0672 30.3431C82.2374 30.3431 82.3736 30.3771 82.5098 30.3771C82.6801 30.411 82.8163 30.411 82.9525 30.411C83.1228 30.411 83.2249 30.445 83.3952 30.4789C83.6676 30.5128 83.9401 30.5807 84.2125 30.6486C84.3146 30.6825 84.4508 30.7165 84.5871 30.7165C84.6892 30.7504 84.8254 30.7504 84.9276 30.7844C85.166 30.8183 85.3703 30.8862 85.5405 30.9541C85.7449 30.988 85.8811 31.0559 86.0173 31.1238C86.1535 31.1917 86.2556 31.1917 86.3238 31.2256H86.46ZM58.2302 28.137L58.5367 27.8315C58.6389 27.7636 58.7751 27.6279 58.9794 27.5261C59.1496 27.4242 59.3199 27.2885 59.5583 27.2206L60.3074 26.9151C60.5799 26.8472 60.8523 26.7115 61.1588 26.6775L62.0782 26.5078L63.0998 26.4399L64.1214 26.4739C64.4278 26.5078 64.7684 26.5418 65.0408 26.6436C65.3473 26.7115 65.6197 26.8133 65.8921 26.8812C66.1645 26.9491 66.4029 27.0848 66.6413 27.1527C66.8796 27.2206 67.0839 27.3563 67.2542 27.4242C67.4585 27.4921 67.5607 27.6279 67.6969 27.6958C67.9353 27.8655 68.0715 27.9333 68.0715 27.9333C68.0715 27.9333 67.9012 27.9333 67.5947 27.8994C67.4245 27.8994 67.2883 27.8655 67.0839 27.8315C66.8796 27.7976 66.7094 27.7976 66.4369 27.7636C66.1986 27.7297 65.9602 27.6958 65.6878 27.6958L64.8705 27.6279C64.5981 27.6279 64.2916 27.5939 63.9851 27.5939H62.1463C61.976 27.5939 61.8398 27.5939 61.7036 27.6279C61.5333 27.6279 61.4312 27.6618 61.2609 27.6618L60.4437 27.7297C60.3415 27.7297 60.1712 27.7636 60.0691 27.7636C59.9669 27.7636 59.8307 27.7976 59.7285 27.7976L59.1156 27.8994L58.6048 28.0012C58.5026 28.0352 58.3664 28.0352 58.2983 28.0691C58.2643 28.137 58.2302 28.137 58.2302 28.137Z" fill="white" stroke="black" stroke-miterlimit="10"/>
<path d="M91.3635 28.1369C90.7846 22.333 88.8095 17.0383 82.5438 14.7982C78.8661 13.4745 74.6776 13.2709 70.7956 13.2369C66.8455 13.203 62.7932 13.6103 59.1155 15.0697C58.2642 15.4091 57.4469 15.8164 56.6978 16.2237C60.2052 16.6989 72.8047 16.6989 79.0023 18.328C84.0762 19.6517 87.7539 23.7585 91.3635 28.1369Z" fill="white" stroke="black" stroke-width="1.5" stroke-miterlimit="10"/>
<path d="M88.8777 10.1483C88.8777 10.1483 96.6077 16.8686 93.5089 37.7761L91.7722 34.8233C88.8437 29.8679 87.3113 24.1998 87.3113 18.4299V11.3702L88.8777 10.1483Z" fill="white" stroke="black" stroke-width="1.5" stroke-miterlimit="10"/>
<path d="M46.2096 31.4292L50.6705 46.1595C50.6705 46.1595 51.658 32.719 51.692 26.8133C51.7261 20.9076 57.0724 16.1219 57.0724 16.1219C57.0724 16.1219 69.8762 14.7304 77.0273 15.0019C85.4724 15.3074 95.3477 28.9176 95.3477 28.9176C95.3477 28.9176 101.034 10.1144 84.9275 5.0233C68.8206 -0.0678169 59.422 0.678879 53.3947 7.80644C53.3266 7.80644 39.0244 6.78822 46.2096 31.4292Z" fill="white" stroke="black" stroke-width="1.5" stroke-miterlimit="10"/>
<path d="M55.2677 13.8479C55.2677 13.8479 50.0236 16.4613 49.8874 26.7793C49.8193 32.142 50.6365 35.0948 50.1938 38.4889L50.6706 46.0916C50.6706 46.0916 51.6581 32.6511 51.6922 26.7454C51.7262 20.8397 57.0725 16.054 57.0725 16.054L55.2677 13.8479ZM59.6605 10.5217C59.6605 10.5217 72.1919 5.93968 78.6279 9.40164C85.0979 12.8636 87.6519 16.5971 87.6519 16.5971C87.6519 16.5971 78.1852 8.21372 59.6605 10.5217Z" fill="white" stroke="black" stroke-width="1.5" stroke-miterlimit="10"/>
<path d="M75.0522 52.2009C74.0307 52.5403 72.8388 52.744 71.4086 52.744C66.9136 52.7101 64.598 49.8251 63.5765 48.128C63.3721 47.7886 63.5084 47.3814 63.8489 47.2116C64.1554 47.008 64.598 47.1438 64.7683 47.4832C65.7899 49.282 67.765 51.3524 71.3745 51.3864C74.8479 51.4203 77.1635 50.0966 78.2873 47.5511C78.4575 47.2116 78.8321 47.0419 79.1726 47.2116C79.5132 47.3814 79.6834 47.7547 79.5132 48.0941C78.9343 49.5875 77.6403 51.3524 75.0522 52.2009Z" fill="black"/>
<path d="M65.892 36.7919C66.0622 38.6586 64.8023 40.2878 63.0996 40.4235C61.397 40.5932 59.8646 39.1677 59.6944 37.3349C59.5241 35.4682 60.7841 33.839 62.4867 33.7032C64.2234 33.5675 65.7217 34.9591 65.892 36.7919Z" fill="#E4E3E2"/>
<path d="M66.0963 35.5699C66.2666 37.4366 65.0066 39.0658 63.304 39.2016C61.6014 39.3713 60.069 37.9458 59.8987 36.113C59.7285 34.2462 60.9884 32.6171 62.691 32.4813C64.3596 32.3116 65.9261 33.7032 66.0963 35.5699Z" fill="#3C3C3C"/>
<path d="M64.9045 34.7554C64.9726 35.4003 64.4277 36.0451 63.7807 36.0791C63.0656 36.147 62.4867 35.6379 62.4186 34.959C62.3505 34.3142 62.8953 33.6693 63.5423 33.6353C64.2575 33.5675 64.8704 34.0426 64.9045 34.7554Z" fill="white"/>
<path d="M84.6891 36.5882C84.8594 38.455 83.5994 40.0841 81.8968 40.2199C80.1941 40.3896 78.6618 38.9641 78.4915 37.1313C78.3212 35.2645 79.5812 33.6354 81.2838 33.4996C83.0205 33.3299 84.5529 34.7215 84.6891 36.5882Z" fill="#E4E3E2"/>
<path d="M84.6552 35.7736C84.8254 37.6404 83.5655 39.2695 81.8628 39.4053C80.1602 39.575 78.6278 38.1495 78.4576 36.3167C78.2873 34.4499 79.5472 32.8208 81.2499 32.685C82.9525 32.5492 84.4849 33.9069 84.6552 35.7736Z" fill="#3C3C3C"/>
<path d="M83.4975 34.959C83.5656 35.6039 83.0548 36.2487 82.3737 36.2827C81.6586 36.3506 81.0797 35.8415 81.0116 35.1626C80.9435 34.5178 81.4884 33.8729 82.1354 33.839C82.8505 33.7711 83.4634 34.2802 83.4975 34.959Z" fill="white"/>
<path d="M44.4729 35.6038C44.4729 35.0268 44.2005 21.1111 51.6581 11.6417C56.0168 6.14325 62.0782 3.36011 69.672 3.36011C83.5655 3.36011 90.1377 12.1168 93.2024 19.482C96.5056 27.4241 96.5396 35.2644 96.5396 35.5699H95.484C95.484 35.502 95.4499 27.6956 92.2149 20.025C87.9243 9.80886 80.3305 4.61592 69.6379 4.61592C62.3166 4.61592 56.4936 7.29724 52.3732 12.5241C45.2562 21.6202 45.5286 35.4681 45.5286 35.5699L44.4729 35.6038Z" fill="black"/>
<path d="M68.2077 64.0123C59.7286 64.0123 53.6331 61.6025 49.9554 56.8847C45.5285 51.1148 46.5501 44.089 46.5842 43.7836L47.7079 43.9872C47.7079 44.0551 46.7885 50.7754 50.8408 56.0701C54.212 60.4824 60.0691 62.7225 68.1736 62.7225V64.0123H68.2077Z" fill="#0F1217"/>
<path d="M49.1722 45.277C45.4945 45.9219 41.8168 42.7993 40.9654 38.2173L40.7952 37.3009C39.9779 32.7189 42.3276 28.5102 46.0053 27.8314" fill="#13519C"/>
<path d="M43.0085 29.3927C42.3615 30.9879 42.1232 32.8886 42.4637 34.8232L42.634 35.7396C43.281 39.4052 45.8349 42.1884 48.7294 42.7654L49.2061 45.243C45.5284 45.8879 41.8507 42.7654 40.9994 38.1834L40.8292 37.267C40.2503 34.1783 41.1697 31.1916 43.0085 29.3927Z" fill="#102770"/>
<path d="M50.5002 45.3448C50.7045 46.3631 50.1937 47.2455 49.3765 47.4152C48.5592 47.5849 47.776 46.8722 47.5717 45.8879L44.3026 27.8993C44.0983 26.915 44.6091 25.9986 45.4264 25.8289C46.2436 25.6592 47.0268 26.3719 47.2312 27.3562L50.5002 45.3448Z" fill="#0F1217"/>
<path d="M94.7688 27.8993C98.4465 28.4763 100.898 32.651 100.183 37.233L100.013 38.1494C99.2978 42.7314 95.6882 45.9897 92.0105 45.4127" fill="#13519C"/>
<path d="M97.7996 29.3927C98.5147 30.954 98.7871 32.8547 98.4466 34.8232L98.2763 35.7396C97.6974 39.4052 95.2456 42.2563 92.3511 42.9011L91.9766 45.3788C95.6543 45.9558 99.2979 42.6975 99.979 38.1155L100.149 37.1991C100.694 34.0765 99.6725 31.1237 97.7996 29.3927Z" fill="#102770"/>
<path d="M93.5429 27.4241C93.7132 26.4059 94.4623 25.7271 95.2796 25.8289C96.0969 25.9308 96.6077 26.8811 96.4374 27.8314L93.611 45.854C93.4408 46.8722 92.6916 47.551 91.8743 47.4492C91.0571 47.3474 90.5463 46.397 90.7165 45.4467L93.5429 27.4241Z" fill="#0F1217"/>
<path d="M69.0589 66.49C70.5635 66.49 71.7832 65.1832 71.7832 63.5711C71.7832 61.9591 70.5635 60.6522 69.0589 60.6522C67.5544 60.6522 66.3347 61.9591 66.3347 63.5711C66.3347 65.1832 67.5544 66.49 69.0589 66.49Z" fill="#0F1217"/>
<path opacity="0.5" d="M70.3531 61.0255C70.5574 61.4667 70.6596 61.908 70.6596 62.4171C70.6596 64.0123 69.4677 65.336 67.9354 65.336C67.4586 65.336 67.05 65.2342 66.6414 64.9966C67.1181 65.879 68.0035 66.5239 69.0591 66.5239C70.5915 66.5239 71.7833 65.2002 71.7833 63.605C71.7833 62.451 71.2044 61.5007 70.3531 61.0255Z" fill="#4D4D4E"/>
<path d="M10.8289 33.4996C10.8289 39.7786 15.9368 44.8358 22.2025 44.8358C24.8586 44.8358 27.2763 43.9194 29.2173 42.392L36.0279 45.1073L32.4524 38.3191C33.1675 36.8597 33.542 35.2305 33.542 33.4996C33.542 27.2205 28.4341 22.1633 22.1684 22.1633C15.9027 22.1633 10.8289 27.2205 10.8289 33.4996Z" fill="#13519C"/>
<path d="M10.8287 33.4995C10.8287 39.7786 15.9366 44.8357 22.2023 44.8357C24.8584 44.8357 27.2761 43.9193 29.2171 42.392L36.0277 45.1073L30.2047 40.0501C28.2977 41.5774 25.8459 42.4938 23.1898 42.4938C16.89 42.4938 11.8162 37.4027 11.8162 31.1576C11.8162 30.0376 11.9864 28.9175 12.2929 27.8993C11.3394 29.5624 10.7946 31.4631 10.8287 33.4995Z" fill="#E7E6E7"/>
<path d="M26.6634 34.993C27.4157 34.993 28.0255 34.3851 28.0255 33.6353C28.0255 32.8855 27.4157 32.2777 26.6634 32.2777C25.9111 32.2777 25.3013 32.8855 25.3013 33.6353C25.3013 34.3851 25.9111 34.993 26.6634 34.993Z" fill="white"/>
<path d="M22.3729 34.993C23.1251 34.993 23.735 34.3851 23.735 33.6353C23.735 32.8855 23.1251 32.2777 22.3729 32.2777C21.6206 32.2777 21.0107 32.8855 21.0107 33.6353C21.0107 34.3851 21.6206 34.993 22.3729 34.993Z" fill="white"/>
<path d="M18.0821 34.993C18.8344 34.993 19.4442 34.3851 19.4442 33.6353C19.4442 32.8855 18.8344 32.2777 18.0821 32.2777C17.3298 32.2777 16.72 32.8855 16.72 33.6353C16.72 34.3851 17.3298 34.993 18.0821 34.993Z" fill="white"/>
<path d="M30.2049 10.4877C30.2049 15.0697 26.4931 18.7693 21.896 18.7693C19.955 18.7693 18.1843 18.0905 16.754 16.9704L11.7483 18.9729L14.3704 13.9836C13.8596 12.8975 13.5871 11.7096 13.5871 10.4538C13.5871 5.87179 17.2989 2.17224 21.896 2.17224C26.4931 2.17224 30.2389 5.87179 30.2049 10.4877Z" fill="#E7E6E7"/>
<path d="M30.2388 10.4198C30.2388 15.0018 26.5271 18.7014 21.9299 18.7014C19.9889 18.7014 18.2182 18.0226 16.788 16.9025L11.7822 18.905L16.0388 15.2055C17.435 16.3255 19.2398 17.0043 21.1808 17.0043C25.7779 17.0043 29.4897 13.3048 29.4897 8.72278C29.4897 7.9082 29.3875 7.09362 29.1491 6.34692C29.8302 7.56879 30.2388 8.96036 30.2388 10.4198Z" fill="#C2C1C3"/>
<path d="M18.6269 11.5399C19.1723 11.5399 19.6145 11.0992 19.6145 10.5556C19.6145 10.012 19.1723 9.57129 18.6269 9.57129C18.0815 9.57129 17.6394 10.012 17.6394 10.5556C17.6394 11.0992 18.0815 11.5399 18.6269 11.5399Z" fill="#D3D3D3"/>
<path d="M21.7597 11.5399C22.3051 11.5399 22.7473 11.0992 22.7473 10.5556C22.7473 10.012 22.3051 9.57129 21.7597 9.57129C21.2143 9.57129 20.7722 10.012 20.7722 10.5556C20.7722 11.0992 21.2143 11.5399 21.7597 11.5399Z" fill="#D3D3D3"/>
<path d="M24.8926 11.5399C25.438 11.5399 25.8801 11.0992 25.8801 10.5556C25.8801 10.012 25.438 9.57129 24.8926 9.57129C24.3472 9.57129 23.905 10.012 23.905 10.5556C23.905 11.0992 24.3472 11.5399 24.8926 11.5399Z" fill="#D3D3D3"/>
</svg>
