<svg width="70" height="70" viewBox="0 0 70 70" fill="none" xmlns="http://www.w3.org/2000/svg">
<path d="M46.3681 10.8276C46.3513 5.2164 42.6189 2.7356 37.8645 4.9098V5.8142C42.1905 3.8808 45.5743 6.16 45.5883 11.277L45.9131 11.095L46.4045 12.2402L46.3681 10.8262V10.8276Z" fill="#102770"/>
<path d="M44.0103 9.954C44.4905 9.674 45.1555 9.7132 45.8905 10.1374C47.3493 10.9802 48.5281 13.0214 48.5225 14.6986C48.5211 15.5316 48.2271 16.1168 47.7525 16.3926L46.8999 16.8882C47.3745 16.6124 47.6685 16.0272 47.6699 15.1942C47.6755 13.517 46.4967 11.4758 45.0379 10.633C44.3029 10.2102 43.6379 10.171 43.1577 10.4496L44.0103 9.954Z" fill="#102770"/>
<path d="M42.0643 9.6978C42.7013 9.3268 43.5861 9.3786 44.5619 9.9428C46.4995 11.0628 48.0661 13.7746 48.0591 16.002C48.0563 17.108 47.6671 17.8878 47.0371 18.2532L45.1149 19.369C45.7449 19.0036 46.1355 18.2252 46.1383 17.1178C46.1453 14.8904 44.5787 12.1786 42.6397 11.0586C41.6653 10.4958 40.7805 10.4426 40.1421 10.8136L42.0643 9.6978Z" fill="#2983D3"/>
<path d="M42.6399 11.06C40.7023 9.94 39.1259 10.8374 39.1189 13.0662C39.1133 15.2922 40.6785 18.0054 42.6189 19.1254C44.5565 20.2454 46.1329 19.3466 46.1385 17.1178C46.1455 14.8904 44.5789 12.18 42.6399 11.06Z" fill="#2983D3"/>
<path d="M42.5531 12.3102C41.2161 11.5388 40.1297 12.1576 40.1255 13.6948C40.1213 15.2306 41.2007 17.101 42.5377 17.8738C43.8747 18.6452 44.9625 18.0264 44.9667 16.4892C44.9709 14.9534 43.8901 13.083 42.5531 12.3102Z" fill="#2983D3"/>
<path d="M42.8821 17.472C41.5437 16.6992 40.4643 14.8288 40.4685 13.2916C40.4685 12.859 40.5567 12.4992 40.7107 12.2234C40.3467 12.5006 40.1269 13.0046 40.1255 13.6934C40.1213 15.2306 41.2007 17.101 42.5377 17.8738C43.4981 18.4282 44.3297 18.2644 44.7245 17.5588C44.2779 17.899 43.6185 17.8962 42.8807 17.4706L42.8821 17.472Z" fill="#102770"/>
<path d="M40.1492 4.0264C41.7102 4.9322 42.679 6.8586 42.686 9.5886L42.7224 11.004L45.6246 12.6896L45.5882 11.2784C45.5812 8.5442 44.6124 6.6178 43.0514 5.712L40.1492 4.0264Z" fill="#3086EE"/>
<path d="M45.1191 19.7596C44.9651 23.24 44.4793 26.2556 44.4793 26.2556C44.2413 29.5316 45.1205 31.962 44.1979 32.8538C44.1461 35.5222 43.3159 39.039 43.3159 39.039L34.3363 39.5542L28.7965 29.3832C29.6449 26.5734 28.8623 26.5258 28.6551 25.5108C28.6131 25.3092 28.5851 25.2 28.5851 25.2C29.2291 28.2562 27.0871 15.0472 29.7121 10.752C31.9703 7.0546 44.9847 7.2898 45.6539 11.725C46.2839 15.183 46.2349 16.7916 45.1191 19.7596Z" fill="#E9F6D9"/>
<path d="M45.5882 11.277C45.5826 9.08881 44.9582 7.41861 43.911 6.37701C42.5068 4.98121 41.475 3.67081 36.2614 3.16401C18.0054 1.38881 25.6256 23.863 25.6256 23.863L29.7136 24.136C29.3314 13.8628 32.7586 12.9542 34.4428 13.118C35.693 13.2384 36.9516 13.3196 38.1948 13.1362C40.8828 12.7414 42.238 11.7712 43.561 10.4244C43.622 10.3645 43.696 10.3196 43.7772 10.293C43.8585 10.2665 43.9448 10.2591 44.0294 10.2714C44.114 10.2838 44.1945 10.3155 44.2648 10.3641C44.3351 10.4128 44.3932 10.477 44.4346 10.5518C46.0502 13.4078 45.1192 19.7596 45.1192 19.7596C47.2584 16.0804 45.5882 11.277 45.5882 11.277Z" fill="#102770"/>
<path d="M26.7582 20.9986C27.3966 20.6276 28.28 17.3586 29.2558 17.9228C31.1948 19.0428 32.7614 21.7546 32.7558 23.982C32.7516 25.088 32.361 25.8678 31.731 26.2332L29.8102 27.349C30.4402 26.9836 30.8308 26.2052 30.8322 25.0978C30.8392 22.8718 29.274 20.1586 27.335 19.0386C26.3592 18.4758 25.4758 18.4226 24.8374 18.7936L26.7582 21V20.9986Z" fill="#102770"/>
<path d="M27.335 19.04C25.396 17.92 23.821 18.8174 23.814 21.0462C23.8084 23.2722 25.3736 25.9854 27.3126 27.1054C29.2516 28.2254 30.8266 27.3266 30.8336 25.0978C30.8392 22.8704 29.274 20.1586 27.335 19.0386V19.04Z" fill="#2983D3"/>
<path d="M25.1328 20.0088C25.613 19.7302 26.278 19.7708 27.0116 20.1936C28.4704 21.0364 29.6492 23.0776 29.6436 24.7534C29.6436 25.5864 29.3496 26.173 28.8736 26.4474L27.783 27.083C28.2576 26.8072 28.5516 26.2206 28.553 25.389C28.5586 23.7118 27.3798 21.6706 25.921 20.8278C25.186 20.4036 24.521 20.3644 24.0408 20.643L25.1328 20.0088Z" fill="#102770"/>
<path d="M25.921 20.8278C24.4622 19.985 23.275 20.6612 23.2708 22.3384C23.2666 24.0142 24.444 26.0554 25.9028 26.8982C27.363 27.741 28.5488 27.0648 28.553 25.3876C28.5586 23.7118 27.3798 21.6706 25.921 20.8278Z" fill="#102770"/>
<path d="M24.5489 20.062L24.5867 23.2582L27.4875 24.9452L27.4511 21.7504C27.4329 15.7556 31.6623 8.43081 36.8773 5.41941C39.5023 3.90741 41.8851 3.76741 43.6071 4.76561L40.7021 3.08001C38.9829 2.07761 36.6001 2.21621 33.9765 3.73381C28.7601 6.74521 24.5307 14.0714 24.5489 20.062Z" fill="#102770"/>
<path d="M36.8788 5.41941C31.6624 8.43081 27.4344 15.7556 27.4512 21.749L27.4554 21.9254H28.245L28.2282 21.2996C28.2128 15.8004 32.095 9.07621 36.8802 6.31261C40.6532 4.13421 43.8704 5.06661 45.0744 8.25021H46.0376C44.9568 4.20981 41.2608 2.88961 36.8788 5.41941Z" fill="#102770"/>
<path d="M44.4794 26.257C44.4794 26.257 44.8658 37.6992 40.3606 38.7702C34.8908 40.068 31.7814 32.4898 27.1586 31.5756C27.1586 31.5756 24.773 32.9812 22.1466 34.93C20.0995 36.444 18.4352 38.4162 17.2871 40.6887C16.1389 42.9613 15.5386 45.4711 15.5344 48.0172L15.2754 62.0494C15.2754 63.4074 16.0482 64.638 17.2732 65.226C20.9762 67.0012 28.9086 70.7294 44.45 62.0494L44.4948 62.0214C50.3412 58.3716 53.6788 55.3224 54.488 46.9798C54.488 46.9798 57.1718 19.8548 44.4794 26.257Z" fill="#2983D3"/>
<path d="M45.5505 28.014C45.4021 28.063 45.2565 28.1036 45.1025 28.1638C44.8561 31.0618 43.4337 34.7998 39.8777 36.8228C39.8777 36.8228 35.8009 39.1888 30.8897 34.0732C29.7277 34.055 28.4887 31.8388 27.1587 31.5756C27.1587 31.5756 39.1455 55.8796 44.4501 62.0494C44.4501 62.0494 44.8631 61.761 45.4889 61.2822L45.4189 61.1492C45.4189 61.1492 50.0347 48.6612 45.5505 28.014Z" fill="#102770"/>
<path d="M44.1155 34.433L41.7117 40.7708L46.4311 54.9276L45.4889 61.2822L44.4501 62.0494L40.8843 57.3538L39.8651 41.8124L36.2993 38.8416L44.1155 34.433Z" fill="#2983D3"/>
<path d="M44.4795 26.257C44.4795 26.257 44.7091 31.9088 39.8777 36.8228C39.8777 36.8228 43.3805 39.3484 44.7091 39.3484C44.7091 39.3484 47.1689 33.7666 46.7937 31.0632C46.4185 28.3598 44.9415 28.6314 44.4795 26.257ZM27.1587 31.5756C27.1587 31.5756 27.9175 30.919 28.7967 29.3832C28.7967 29.3832 33.3859 37.2008 39.8777 36.8228C39.8777 36.8228 39.0559 40.7554 36.9965 42.6188C36.9965 42.6188 29.9783 38.934 27.1587 31.5756Z" fill="#3086EE"/>
<path d="M27.5535 45.0324H31.9019L30.7497 49.2002L44.4501 62.0494L27.1601 31.5756C27.1601 31.5756 23.7119 38.9816 27.5535 45.0324ZM50.3623 35.1092C50.3623 35.1092 49.0785 31.416 44.4795 26.257C44.4795 26.257 46.9169 47.859 45.4189 61.1492C45.4189 61.1492 50.7445 45.6008 50.7445 40.7372L48.0047 38.7128L50.3623 35.1092Z" fill="#102770"/>
<path d="M40.159 24.9242C36.4672 27.349 30.3646 25.6508 28.9576 24.2368C28.7518 24.7198 29.0136 25.0152 28.7966 25.4954C34.251 29.1018 40.6952 26.2556 40.4684 26.0372C40.3354 25.5654 40.2892 25.3974 40.159 24.9242Z" fill="#102770"/>
<path d="M43.8523 24.514C43.8006 24.3587 43.7188 24.2151 43.6115 24.0915C43.5043 23.9678 43.3738 23.8665 43.2274 23.7933C43.081 23.7201 42.9216 23.6765 42.7584 23.6649C42.5951 23.6533 42.4312 23.674 42.2759 23.7258L39.4927 24.6526C39.179 24.7571 38.9196 24.982 38.7716 25.2778C38.6237 25.5735 38.5993 25.9159 38.7038 26.2297C38.8083 26.5434 39.0332 26.8028 39.329 26.9508C39.6247 27.0987 39.9672 27.1231 40.2809 27.0186L43.0627 26.0918C43.2183 26.0402 43.3621 25.9585 43.4861 25.8512C43.61 25.7439 43.7115 25.6133 43.7849 25.4667C43.8582 25.3202 43.9019 25.1606 43.9135 24.9971C43.9251 24.8336 43.9043 24.6694 43.8523 24.514Z" fill="#102770"/>
</svg>
