<svg width="53" height="52" viewBox="0 0 53 52" fill="none" xmlns="http://www.w3.org/2000/svg">
<g clip-path="url(#clip0_11_950)">
<path d="M23.4886 49.5222C36.1117 49.5222 46.3448 39.1278 46.3448 26.3057C46.3448 13.4836 36.1117 3.08923 23.4886 3.08923C10.8654 3.08923 0.632324 13.4836 0.632324 26.3057C0.632324 39.1278 10.8654 49.5222 23.4886 49.5222Z" fill="#1A2E62" stroke="#8DCAFF" stroke-width="2.1"/>
<mask id="mask0_11_950" style="mask-type:luminance" maskUnits="userSpaceOnUse" x="1" y="4" width="45" height="46">
<path d="M23.4487 4.29431C11.2468 4.29431 1.35522 14.3417 1.35522 26.7359C1.35522 39.1301 11.2468 49.1776 23.4486 49.1776C35.6505 49.1776 45.5421 39.1301 45.5421 26.736C45.5421 14.3418 35.6506 4.29431 23.4487 4.29431Z" fill="white"/>
</mask>
<g mask="url(#mask0_11_950)">
<path d="M40.3784 38.5623L42.26 39.2176L43.3444 30.4064C43.3444 30.4064 42.862 30.2052 42.6012 30.1943C42.3404 30.1835 41.9925 30.2022 41.9925 30.2022L40.3784 38.5623Z" fill="#D4EBFF"/>
<path d="M3.11976 22.8122C3.85758 21.2224 9.33654 16.8666 9.33654 16.8666C8.01274 27.7539 8.41771 35.2912 8.99951 48.5592C5.24182 47.442 4.91413 47.0306 3.22399 46.1695C2.27042 36.1689 2.38193 24.4021 3.11976 22.8122Z" fill="#D4EBFF" stroke="black" stroke-width="0.867017" stroke-linecap="round" stroke-linejoin="round"/>
<path d="M8.14768 31.982L10.2465 34.0264L8.30788 39.1005C8.30788 39.1005 9.97251 39.3291 8.07065 39.2242C6.16879 39.1192 2.91293 37.0524 2.91293 37.0524L2.80713 36.3012V35.5654V34.0938V31.8865L5.71494 34.4627L8.14768 31.982Z" fill="#1E96FC"/>
<path d="M8.11546 29.2481L10.2143 31.2925L10.2676 35.8483L7.67074 33.3188L5.30752 35.7287L2.80696 32.2539C2.80696 32.2539 2.74362 28.9422 2.80696 28.9429C2.87031 28.9436 5.68274 31.7288 5.68274 31.7288L8.11546 29.2481Z" fill="#61B6FF"/>
<path d="M8.07594 25.8838L10.1747 27.9282L10.228 32.4841L7.63116 29.9545L5.26795 32.3644C5.26795 32.3644 2.86876 29.5298 2.80676 29.4028C2.74475 29.2758 3.0784 25.8838 3.0784 25.8838L5.64318 28.3646L8.07594 25.8838Z" fill="#8DCBFF"/>
<path d="M42.4884 17.1956C42.4804 17.1851 42.4483 17.1532 42.3654 17.1078C42.2864 17.0646 42.178 17.018 42.038 16.9693C41.7581 16.8721 41.3751 16.7748 40.8984 16.6793C39.9462 16.4886 38.6479 16.3106 37.1131 16.1524C34.0451 15.8363 30.0537 15.6019 26.0447 15.5016C22.0352 15.4014 18.0149 15.4356 14.8881 15.6554C13.3237 15.7654 11.9906 15.9213 10.997 16.128C10.4997 16.2314 10.0958 16.3459 9.79345 16.4699C9.48178 16.5978 9.31646 16.7207 9.24918 16.8175C9.16251 16.942 9.06621 17.1673 8.9687 17.5059C8.87282 17.8386 8.78164 18.2595 8.69581 18.7588C8.52423 19.7571 8.37727 21.0508 8.25585 22.5428C8.01314 25.5257 7.87413 29.2823 7.84215 33.0127C7.81011 36.7432 7.88503 40.4419 8.06933 43.3089C8.16154 44.7432 8.28073 45.9638 8.42648 46.8743C8.49947 47.33 8.57807 47.7016 8.66112 47.9807C8.74821 48.2733 8.82843 48.4213 8.88035 48.4741C8.8992 48.4933 8.94576 48.5276 9.03869 48.5703C9.12836 48.6116 9.24689 48.6543 9.39577 48.6974C9.69348 48.7835 10.0924 48.8655 10.5827 48.9423C11.5621 49.0957 12.8811 49.2246 14.4306 49.3294C17.528 49.5388 21.5261 49.6503 25.5269 49.6709C29.5275 49.6916 33.5264 49.6215 36.6251 49.4683C38.175 49.3918 39.4959 49.2946 40.4777 49.1782C40.9691 49.12 41.3706 49.0575 41.6714 48.9915C41.822 48.9586 41.9429 48.9256 42.0352 48.8935C42.1317 48.8599 42.1798 48.8329 42.1977 48.8192C42.2045 48.8139 42.2322 48.7867 42.2722 48.7099C42.3103 48.6367 42.3511 48.5355 42.393 48.4032C42.4767 48.1388 42.5573 47.776 42.6332 47.3231C42.7848 46.4187 42.9132 45.1852 43.0179 43.7263C43.2272 40.8102 43.3408 37.0169 43.3629 33.2059C43.385 29.3952 43.3156 25.5718 43.1596 22.5959C43.0816 21.1074 42.9821 19.8351 42.8623 18.884C42.8023 18.408 42.7378 18.0175 42.6697 17.7229C42.5982 17.4136 42.5315 17.2524 42.4884 17.1956Z" fill="#D4EBFF" stroke="black" stroke-width="0.867017"/>
<path d="M30.3615 38.5898C26.7608 44.4222 20.8321 39.4844 21.4032 38.1624C21.9741 36.8403 23.322 38.3258 26.1414 38.0508C28.9607 37.7758 30.6837 36.5848 30.3615 38.5898Z" fill="white" stroke="black" stroke-width="1.38632" stroke-linejoin="round"/>
<path d="M18.4132 22.2298C16.865 21.9232 14.7259 21.6023 12.905 24.5252" stroke="black" stroke-width="1.59954" stroke-linecap="round" stroke-linejoin="round"/>
<path d="M38.9043 23.9721C37.8649 22.7669 36.3669 21.183 33.1655 22.3616" stroke="black" stroke-width="1.59954" stroke-linecap="round" stroke-linejoin="round"/>
<path d="M17.5804 35.0685C19.9518 35.011 21.8142 32.5512 21.7403 29.5743C21.6664 26.5975 19.6841 24.231 17.3127 24.2885C14.9413 24.346 13.0789 26.8059 13.1528 29.7826C13.2267 32.7595 15.209 35.126 17.5804 35.0685Z" fill="white"/>
<path d="M34.6375 35.0493C37.0089 34.9918 38.8714 32.532 38.7975 29.5552C38.7236 26.5783 36.7412 24.2118 34.3698 24.2693C31.9985 24.3268 30.136 26.7866 30.2099 29.7635C30.2838 32.7403 32.2662 35.1068 34.6375 35.0493Z" fill="white"/>
<path d="M21.6541 29.2731C21.7246 32.1121 19.9802 34.2411 17.7185 34.296C15.4567 34.3508 13.3016 32.2548 13.2311 29.4157C13.1605 26.5766 15.1696 24.2866 17.4313 24.2317C19.693 24.1768 21.5836 26.4339 21.6541 29.2731Z" fill="black"/>
<path d="M38.4996 29.1196C38.5962 31.7367 36.4987 34.8373 34.237 34.8922C31.9753 34.9471 30.164 32.2589 30.0935 29.4198C30.023 26.5807 32.5611 23.9121 34.4883 24.2126C36.4155 24.5131 38.4032 26.5025 38.4996 29.1196Z" fill="black"/>
<path d="M19.7641 31.9462C19.8214 32.9085 18.5631 33.5127 17.5114 33.501C16.4596 33.4893 15.7346 32.8359 15.5304 32.2139C15.3262 31.592 16.1976 31.3238 17.244 31.2595C18.3871 30.766 19.7178 31.1667 19.7641 31.9462Z" fill="#BED7EC"/>
<path d="M36.539 32.308C36.5963 33.2703 35.338 33.8745 34.2863 33.8629C33.2345 33.8512 32.5095 33.1977 32.3053 32.5757C32.1011 31.9538 32.9725 31.6856 34.0189 31.6213C35.162 31.1278 36.4926 31.5286 36.539 32.308Z" fill="#BED7EC"/>
<path d="M17.6878 28.1512C16.8014 29.2369 15.8966 29.6568 15.1341 29.5472C14.2122 29.4145 14.4639 27.494 15.0788 26.3003C15.6937 25.1065 16.5654 24.8015 17.3608 25.2242C18.1563 25.647 18.7218 26.2097 17.6878 28.1512Z" fill="white"/>
<path d="M34.468 29.0014C33.5817 30.0872 32.6769 30.5071 31.9144 30.3974C30.9925 30.2648 31.2442 28.3442 31.859 27.1505C32.474 25.9568 33.3456 25.6517 34.1411 26.0745C34.9365 26.4972 35.5021 27.0599 34.468 29.0014Z" fill="white"/>
<path d="M20.1492 29.2131C20.0937 29.6113 19.8777 29.9094 19.5417 29.8611C19.2057 29.8128 18.8769 29.4362 18.9324 29.038C18.9879 28.6399 19.4067 28.3709 19.7427 28.4192C20.0787 28.4675 20.2047 28.8149 20.1492 29.2131Z" fill="white"/>
<path d="M37.1038 29.2373C37.0526 29.6044 36.8535 29.8793 36.5437 29.8348C36.2339 29.7902 35.9308 29.4431 35.982 29.076C36.0332 28.7089 36.4193 28.4608 36.7291 28.5054C37.0388 28.55 37.155 28.8702 37.1038 29.2373Z" fill="white"/>
<path d="M19.7787 32.2001C19.6858 32.8656 19.0054 33.3181 18.3502 33.2238C17.695 33.1296 17.2391 32.5137 17.3318 31.8481C17.4246 31.1826 18.2744 30.6009 18.9296 30.6951C19.5848 30.7893 19.8714 31.5345 19.7787 32.2001Z" fill="white"/>
<path d="M36.8345 32.1813C36.7418 32.8468 36.0613 33.2993 35.406 33.205C34.7508 33.1108 34.2949 32.4949 34.3877 31.8294C34.4805 31.1638 35.3303 30.5821 35.9855 30.6763C36.6406 30.7706 36.9273 31.5158 36.8345 32.1813Z" fill="white"/>
</g>
<path d="M46.7284 20.5706C46.2 21.0652 45.8694 21.7209 46.012 22.4453" stroke="#1E96FC" stroke-width="0.882551" stroke-linecap="round"/>
<path d="M12.4911 45.3105C2.40392 46.9716 2.43124 33.6081 7.67187 31.0429C7.78666 30.9867 7.92229 31.0355 7.98204 31.1499C8.61749 32.3668 11.9384 38.6995 12.1987 38.6429C12.4866 38.5804 13.7573 40.7498 13.7583 42.2083C13.759 43.4531 13.7583 44.6888 12.5582 45.2891C12.5376 45.2994 12.5138 45.3068 12.4911 45.3105Z" fill="#D4EBFF" stroke="black" stroke-width="1.12472"/>
<path d="M12.8963 38.2991L11.2952 39.5189L7.56958 31.5749C7.56958 31.5749 7.96985 31.2308 8.21618 31.137C8.46245 31.0432 8.80117 30.9493 8.80117 30.9493L12.8963 38.2991Z" fill="#D4EBFF"/>
<path d="M51.6701 22.6906C53.5507 26.9427 48.8051 40.1834 40.823 36.7713C40.7627 36.7455 40.7103 36.6975 40.6788 36.6382L38.8755 33.2418C38.8504 33.1944 38.8361 33.144 38.8453 33.091C39.1165 31.5303 45.8875 26.802 47.2498 25.2458C47.3296 25.1547 47.332 25.0197 47.2747 24.9112C45.4816 21.5135 49.8147 18.4953 51.6701 22.6906Z" fill="#D4EBFF" stroke="black" stroke-width="1.13739"/>
<path d="M43.1872 35.8414C43.2174 35.6268 43.1691 33.7995 43.0967 28.2075L37.7544 32.2544L39.2937 39.3364C42.1559 36.5108 42.9392 36.2965 43.1872 35.8414Z" fill="#D4EBFF"/>
</g>
<defs>
<clipPath id="clip0_11_950">
<rect width="53" height="52" fill="white"/>
</clipPath>
</defs>
</svg>
