<svg width="34" height="34" viewBox="0 0 34 34" fill="none" xmlns="http://www.w3.org/2000/svg">
<path d="M20.5403 29.9458C26.9125 29.9458 32.0783 24.7801 32.0783 18.4078C32.0783 12.0356 26.9125 6.86987 20.5403 6.86987C14.168 6.86987 9.00232 12.0356 9.00232 18.4078C9.00232 24.7801 14.168 29.9458 20.5403 29.9458Z" fill="#13519C" fill-opacity="0.18"/>
<path d="M11.8655 32.0845C16.5169 32.0845 20.2875 28.3139 20.2875 23.6625C20.2875 19.0112 16.5169 15.2406 11.8655 15.2406C7.21424 15.2406 3.4436 19.0112 3.4436 23.6625C3.4436 28.3139 7.21424 32.0845 11.8655 32.0845Z" fill="#13519C" fill-opacity="0.18"/>
<path d="M10.3437 18.7594C14.995 18.7594 18.7656 14.9888 18.7656 10.3375C18.7656 5.68616 14.995 1.91553 10.3437 1.91553C5.69239 1.91553 1.92175 5.68616 1.92175 10.3375C1.92175 14.9888 5.69239 18.7594 10.3437 18.7594Z" fill="#13519C" fill-opacity="0.18"/>
<path d="M11.1912 14.4514C9.24319 14.4514 7.66003 12.8726 7.66003 10.9245C7.65984 10.1204 7.93405 9.34027 8.43733 8.71308C8.94061 8.0859 9.64283 7.64922 10.4279 7.47522C10.4241 7.37705 10.4203 7.27888 10.4203 7.18024C10.4203 4.65418 12.4708 2.60364 14.9969 2.60364C15.6669 2.60249 16.329 2.74928 16.9357 3.03354C17.5425 3.3178 18.079 3.73253 18.507 4.2481C18.9192 4.12233 19.3479 4.05874 19.7789 4.05942C22.0056 4.05942 23.8388 5.74026 24.0849 7.90621C24.7308 8.15103 25.287 8.58653 25.6796 9.15489C26.0722 9.72324 26.2826 10.3976 26.2829 11.0883C26.2829 12.9665 24.7616 14.4922 22.8829 14.4922L11.1912 14.4514Z" fill="#13519C"/>
<path d="M23.0194 14.4892C22.9739 14.4921 22.9284 14.4921 22.8834 14.4921L11.1907 14.45C9.24317 14.45 7.65906 12.8726 7.65906 10.925C7.65894 10.1205 7.93326 9.34015 8.4367 8.71273C8.94013 8.0853 9.64256 7.6484 10.4279 7.47422C10.424 7.37578 10.4218 7.27727 10.4212 7.17876C10.4212 4.65318 12.4698 2.60168 14.9983 2.60168C15.1381 2.60168 15.2741 2.60839 15.4106 2.62084C13.0833 2.83537 11.2587 4.79636 11.2587 7.17876C11.2587 7.27932 11.2621 7.37701 11.2655 7.47422C10.4807 7.64907 9.77907 8.08625 9.27629 8.71361C8.77352 9.34097 8.49967 10.121 8.49996 10.925C8.49996 12.8726 10.0802 14.45 12.0283 14.45L23.0194 14.4892Z" fill="#13519C"/>
<path d="M26.282 11.0874C26.282 12.9665 24.7625 14.4922 22.8834 14.4922L22.0813 14.4893C23.8766 14.3983 25.3046 12.9081 25.3046 11.0874C25.3046 9.63305 24.3895 8.39277 23.1071 7.90576C22.9954 6.93356 22.5586 6.02759 21.8675 5.33474C21.1763 4.6419 20.2715 4.20281 19.2996 4.08866C19.4552 4.0695 19.6175 4.05945 19.7799 4.05945C22.0066 4.05945 23.8374 5.74077 24.0845 7.90576C24.7305 8.15017 25.2868 8.58552 25.6794 9.15387C26.072 9.72223 26.2822 10.3966 26.282 11.0874Z" fill="#13519C"/>
<path d="M27.6262 17.4042V29.7294H6.35132V17.4042C6.35132 16.9569 6.71526 16.5891 7.16588 16.5891H26.8121C27.2632 16.5891 27.6272 16.9569 27.6272 17.4042H27.6262Z" fill="white"/>
<path d="M6.35082 28.6711H27.6267V29.7299H6.35082V28.6711ZM26.8121 16.5891H7.16491C6.71381 16.5891 6.35034 16.9569 6.35034 17.4042V18.3451C6.35034 17.8979 6.71429 17.5301 7.16491 17.5301H26.8121C27.2632 17.5301 27.6272 17.8979 27.6272 18.3451V17.4042C27.6272 16.9569 27.2632 16.5891 26.8121 16.5891Z" fill="#104A90"/>
<path d="M28.4715 31.3341H5.47166C5.21765 31.3341 4.97405 31.2332 4.79443 31.0536C4.61482 30.874 4.51392 30.6304 4.51392 30.3764V29.7308H29.4292V30.3764C29.4292 30.6304 29.3283 30.874 29.1487 31.0536C28.9691 31.2332 28.7255 31.3341 28.4715 31.3341Z" fill="#104A90"/>
<path d="M19.8206 25.9186C19.8254 25.731 19.9034 25.5527 20.0378 25.4217C20.1722 25.2907 20.3524 25.2174 20.5401 25.2174C20.7278 25.2174 20.908 25.2907 21.0424 25.4217C21.1769 25.5527 21.2548 25.731 21.2596 25.9186C21.2596 26.3132 20.9354 26.6335 20.5404 26.6335C20.3503 26.6337 20.1679 26.5585 20.0331 26.4245C19.8983 26.2906 19.8216 26.1086 19.8206 25.9186ZM16.3248 27.4716C16.3257 27.281 16.4018 27.0984 16.5366 26.9636C16.6714 26.8288 16.854 26.7527 17.0446 26.7518C17.4392 26.7518 17.7638 27.0765 17.7638 27.4716C17.759 27.6592 17.6811 27.8375 17.5467 27.9685C17.4123 28.0995 17.232 28.1728 17.0443 28.1728C16.8567 28.1728 16.6764 28.0995 16.542 27.9685C16.4076 27.8375 16.3297 27.6592 16.3248 27.4716ZM12.684 25.9186C12.6888 25.731 12.7667 25.5527 12.9011 25.4217C13.0355 25.2907 13.2158 25.2174 13.4035 25.2174C13.5911 25.2174 13.7714 25.2907 13.9058 25.4217C14.0402 25.5527 14.1181 25.731 14.123 25.9186C14.123 26.3132 13.8026 26.6335 13.4037 26.6335C13.2136 26.6338 13.0311 26.5587 12.8962 26.4247C12.7613 26.2907 12.685 26.1087 12.684 25.9186Z" fill="#13519C"/>
<path d="M22.8868 16.4416V16.0758C22.8868 15.538 23.2526 15.0687 23.7732 14.9265L23.2699 13.3687C22.7536 13.5622 22.1685 13.3903 21.8538 12.9339C21.7932 12.8422 21.7287 12.7532 21.6604 12.6672C21.5016 12.4595 21.4155 12.2054 21.4152 11.9441C21.4152 11.6773 21.5052 11.4063 21.6819 11.187L20.3564 10.223L20.3435 10.2441C20.0509 10.6918 19.4868 10.8901 18.9835 10.7086C18.8702 10.6669 18.7554 10.6296 18.6392 10.597C18.1186 10.4423 17.7667 9.96487 17.792 9.42662V9.38831H16.1524C16.1778 9.93901 15.8334 10.4418 15.3048 10.597C15.1965 10.6272 15.0936 10.6616 14.9858 10.7004C14.8565 10.7478 14.7234 10.7694 14.5941 10.7694C14.3943 10.7681 14.1978 10.7176 14.0222 10.6223C13.8465 10.527 13.697 10.3898 13.587 10.223L12.2615 11.187C12.6063 11.617 12.6231 12.228 12.2831 12.6672C12.2184 12.7533 12.1538 12.8434 12.0896 12.9339C11.98 13.0927 11.8333 13.2224 11.6622 13.3117C11.4912 13.401 11.3009 13.4472 11.1079 13.4463C10.9619 13.4463 10.8158 13.4204 10.6779 13.3687L10.1703 14.9265C10.4295 14.9962 10.658 15.1506 10.8194 15.3651C10.9808 15.5796 11.0658 15.8419 11.061 16.1102C11.0567 16.1663 11.0567 16.2175 11.0567 16.2735C11.0567 16.3296 11.0567 16.3856 11.061 16.4412V16.4718C11.061 17.0096 10.6908 17.4832 10.1703 17.6249L10.6779 19.1827C10.9274 19.0859 11.2022 19.0757 11.4582 19.1538C11.7142 19.2319 11.9366 19.3936 12.0896 19.6132C12.1543 19.708 12.2189 19.7942 12.2831 19.8842C12.4507 20.095 12.5283 20.3488 12.5283 20.603C12.5278 20.8797 12.4338 21.148 12.2615 21.3644L13.587 22.3289L13.6 22.3073C13.8969 21.8596 14.461 21.6575 14.9648 21.8428C15.0763 21.8812 15.1922 21.9156 15.3048 21.9501C15.8253 22.1048 16.1821 22.5827 16.1567 23.1248V23.1593H17.792V23.1248C17.7804 22.8627 17.8578 22.6043 18.0117 22.3918C18.1656 22.1793 18.3869 22.0251 18.6396 21.9544C18.756 21.9199 18.8719 21.8812 18.9839 21.8424C19.4872 21.6575 20.0514 21.8596 20.344 22.3073L20.3569 22.3289L21.6824 21.3649C21.514 21.156 21.4204 20.8966 21.4165 20.6283C21.4126 20.36 21.4986 20.098 21.6609 19.8842C21.7298 19.7981 21.794 19.708 21.8586 19.6132C22.0106 19.3924 22.233 19.2297 22.4893 19.1515C22.7457 19.0733 23.021 19.0843 23.2703 19.1827L23.7736 17.6249C23.2445 17.4784 22.87 16.9923 22.8877 16.4416H22.8868Z" fill="#13519C"/>
<path d="M16.5915 22.4409C16.5254 22.1711 16.3894 21.9235 16.1972 21.723C16.0051 21.5224 15.7635 21.376 15.4968 21.2983L15.4389 21.2801C15.3556 21.2547 15.2708 21.2289 15.1884 21.2006C15.0236 21.1407 14.8495 21.1102 14.6741 21.1106C14.2963 21.1106 13.9367 21.2476 13.6546 21.4899L13.0321 21.0373C13.1101 20.8451 13.1501 20.6395 13.1499 20.432C13.1499 20.0719 13.0349 19.7377 12.8171 19.4638L12.7706 19.3986C12.7309 19.344 12.6911 19.289 12.6509 19.2305C12.4938 19.0023 12.2795 18.8192 12.0296 18.6995C11.7796 18.5798 11.5026 18.5278 11.2262 18.5486L10.9868 17.8136C11.2164 17.6708 11.406 17.472 11.5378 17.2359C11.6695 16.9997 11.7391 16.734 11.7401 16.4636L11.7391 16.4009C11.7358 16.3578 11.7362 16.3161 11.7362 16.2735C11.7362 16.2318 11.7358 16.1926 11.7391 16.1509C11.748 15.8701 11.6832 15.5919 11.5511 15.344C11.419 15.096 11.2243 14.887 10.9863 14.7378L11.2272 14.0003C11.503 14.0204 11.7793 13.9681 12.0288 13.8487C12.2782 13.7293 12.4922 13.5468 12.6495 13.3193C12.705 13.2408 12.7644 13.1575 12.8247 13.078C13.1743 12.6259 13.2437 12.0297 13.033 11.5135L13.6604 11.0576C13.9479 11.3 14.3119 11.433 14.688 11.433C14.8687 11.4334 15.048 11.4018 15.2177 11.3397C15.3077 11.3071 15.3963 11.2774 15.4892 11.2511C15.7561 11.1733 15.9979 11.0265 16.1901 10.8256C16.3824 10.6247 16.5184 10.3767 16.5844 10.1066H17.3553C17.4206 10.3762 17.5558 10.6237 17.7473 10.8244C17.9389 11.025 18.1799 11.1715 18.4462 11.2492C18.5468 11.2788 18.6473 11.3081 18.7436 11.3449C19.0032 11.4389 19.2832 11.4622 19.5548 11.4125C19.8264 11.3628 20.0799 11.2418 20.2894 11.0619L20.9105 11.514C20.8339 11.7041 20.7932 11.9086 20.7932 12.1154C20.7932 12.465 20.9062 12.7983 21.1198 13.0794C21.1849 13.1608 21.2395 13.2374 21.2898 13.3136C21.4474 13.543 21.6623 13.7272 21.9131 13.8479C22.164 13.9685 22.4421 14.0214 22.7197 14.0012L22.9572 14.7378C22.7285 14.8803 22.5397 15.0785 22.4085 15.3138C22.2772 15.5491 22.2078 15.8139 22.2068 16.0834V16.4349C22.1891 16.998 22.4836 17.5195 22.9572 17.814L22.7202 18.5472C22.444 18.5265 22.1673 18.5786 21.9176 18.6982C21.6678 18.8179 21.4538 19.0009 21.2969 19.2291C21.2414 19.311 21.1863 19.3886 21.1269 19.4623C20.9567 19.6833 20.8471 19.9449 20.8092 20.2213C20.7712 20.4976 20.8061 20.7791 20.9105 21.0378L20.286 21.4918C20.0792 21.3107 19.8275 21.1885 19.5573 21.1379C19.2871 21.0873 19.0082 21.1101 18.7498 21.204C18.6574 21.2356 18.5516 21.271 18.4462 21.3021C18.1795 21.3781 17.9379 21.5236 17.7459 21.7237C17.554 21.9238 17.4187 22.1713 17.3539 22.4409H16.5915Z" fill="#104A90"/>
<path d="M19.6898 16.9103C20.042 15.4182 19.1179 13.923 17.6258 13.5708C16.1336 13.2185 14.6384 14.1426 14.2862 15.6348C13.934 17.1269 14.8581 18.6221 16.3502 18.9743C17.8424 19.3266 19.3375 18.4025 19.6898 16.9103Z" fill="white"/>
<path d="M14.3351 4.443L14.18 3.98999C12.7654 4.47269 11.8354 5.61816 11.6281 7.13331L12.1031 7.19844C12.2846 5.86909 13.0987 4.86489 14.3351 4.443ZM22.6608 4.8443C22.401 4.63121 22.1177 4.44838 21.8166 4.29934L21.6025 4.72745C21.8802 4.86633 22.1341 5.0301 22.3553 5.21351L22.6608 4.8443Z" fill="#13519C"/>
<path d="M8.83378 14.7349L9.25662 14.96C9.54203 14.4222 9.41944 13.757 8.96116 13.3438C8.62716 13.0354 8.36056 12.6613 8.17811 12.245C7.99565 11.8286 7.90128 11.379 7.90093 10.9245C7.90093 9.39018 8.98558 8.03784 10.4797 7.70885L10.677 7.66575L10.6674 7.46367C10.6406 6.90004 10.6157 6.36705 11.538 4.8562C12.2956 3.61305 13.6235 2.84494 15.0108 2.84494H15.0452C15.6718 2.85073 16.2895 2.99301 16.8554 3.26188C17.4214 3.53074 17.9219 3.91973 18.3222 4.40175L18.4246 4.52482L18.5774 4.47694C19.2606 4.26695 19.9872 4.24135 20.6835 4.40271L20.7951 3.93725C20.0672 3.76828 19.309 3.78144 18.5875 3.97556C18.143 3.47488 17.5985 3.07295 16.9891 2.79572C16.3798 2.5185 15.719 2.37213 15.0496 2.36606C13.4745 2.35553 11.98 3.20984 11.1295 4.60671C10.2364 6.06967 10.1655 6.73003 10.1813 7.28984C8.57087 7.73758 7.42206 9.23454 7.42206 10.9245C7.42206 11.9751 7.86501 12.9851 8.6384 13.6972C8.9353 13.9653 9.01575 14.3915 8.83378 14.7349ZM23.8646 8.07854L24.0016 8.13074C24.6001 8.36055 25.1152 8.76578 25.4795 9.29334C25.8438 9.82091 26.0402 10.4462 26.043 11.0873C26.0436 11.545 25.9446 11.9974 25.7531 12.4131C25.5617 12.8288 25.2822 13.198 24.934 13.4951C24.729 13.6694 24.5873 13.9067 24.531 14.1698C24.4747 14.433 24.507 14.7074 24.6227 14.9504L25.0546 14.7445C24.9843 14.5966 24.9648 14.4297 24.9992 14.2696C25.0336 14.1096 25.1199 13.9654 25.2448 13.8595C25.6457 13.5174 25.9676 13.0923 26.1881 12.6136C26.4087 12.1348 26.5225 11.6139 26.5219 11.0868C26.5219 9.6344 25.6374 8.30649 24.3062 7.73759C24.1916 6.92998 23.8608 6.16837 23.3489 5.53333L22.9763 5.83311C23.4616 6.4356 23.7642 7.16443 23.8484 7.93344L23.8646 8.07854ZM6.11138 25.0618H6.59025V26.5271H6.11138V25.0618ZM27.3872 28.8013H27.8661V24.8228C27.8661 24.3353 28.1295 23.8828 28.5543 23.6419L28.3177 23.2253C28.0354 23.3858 27.8006 23.6181 27.6372 23.8987C27.4738 24.1793 27.3875 24.4981 27.3872 24.8228V28.8013ZM25.4995 15.7903V15.7884L25.0206 15.7898C25.0206 16.363 25.4871 16.829 26.0598 16.829H26.8126C27.1301 16.829 27.3887 17.0876 27.3887 17.4056V22.3121H27.8675V17.4056C27.8672 17.1259 27.7559 16.8578 27.5581 16.66C27.3604 16.4622 27.0923 16.351 26.8126 16.3506H26.0603C25.7509 16.3506 25.4995 16.0992 25.4995 15.7903ZM29.4301 29.4914H27.6262V29.4899H6.5893V27.426H6.11042V29.4914H4.51434C4.45084 29.4914 4.38993 29.5166 4.34503 29.5615C4.30013 29.6064 4.2749 29.6673 4.2749 29.7308V30.4041C4.27528 30.7138 4.39852 31.0108 4.61758 31.2297C4.83664 31.4487 5.13362 31.5718 5.44335 31.5721H23.1262V31.0932H5.4424C5.25959 31.0931 5.08432 31.0204 4.9551 30.891C4.82588 30.7617 4.7533 30.5864 4.7533 30.4036V29.9702H14.3681V30.5324H19.5749V29.9702H29.1907V30.4041C29.1905 30.5869 29.1178 30.7622 28.9885 30.8914C28.8592 31.0206 28.6839 31.0932 28.5011 31.0932H25.9109V31.5721H28.5016C28.8113 31.5717 29.1082 31.4484 29.3272 31.2294C29.5462 31.0103 29.6693 30.7133 29.6695 30.4036V29.7308C29.6695 29.6673 29.6443 29.6064 29.5994 29.5615C29.5545 29.5166 29.4936 29.4914 29.4301 29.4914Z" fill="#13519C"/>
<path d="M24.0542 31.0933H24.9823V31.5722H24.0542V31.0933ZM6.59069 17.4056C6.59069 17.0882 6.84928 16.8296 7.16677 16.8296H7.91525C8.48846 16.8296 8.95441 16.3631 8.95441 15.7904V15.7885L8.47553 15.7899C8.47553 16.0993 8.22461 16.3502 7.91525 16.3502H7.16677C6.88702 16.3506 6.61883 16.4619 6.42106 16.6598C6.22328 16.8577 6.11207 17.1259 6.11182 17.4056V23.9159H6.59069V17.4056ZM22.0525 12.8022C21.9903 12.7065 21.9185 12.6107 21.8514 12.5197C21.7209 12.3492 21.6518 12.1397 21.6552 11.925C21.6587 11.7103 21.7346 11.5031 21.8706 11.3369C21.8901 11.3111 21.9044 11.2818 21.9126 11.2505C21.9208 11.2192 21.9227 11.1866 21.9182 11.1545C21.9138 11.1225 21.9031 11.0917 21.8867 11.0638C21.8703 11.0359 21.8485 11.0116 21.8227 10.9921L20.4962 10.0296C20.4435 9.99125 20.3717 9.98647 20.3047 9.99604C20.2389 10.0148 20.1815 10.0553 20.1418 10.111C19.912 10.4701 19.4571 10.6234 19.0692 10.4845C18.9494 10.4414 18.8297 10.4031 18.7052 10.3696C18.5045 10.3117 18.329 10.1883 18.2066 10.0191C18.0842 9.84983 18.0221 9.64447 18.03 9.43576V9.38787C18.03 9.25379 17.9247 9.14844 17.7906 9.14844H16.1528C16.0858 9.14844 16.0235 9.17717 15.9804 9.22027C15.9325 9.26816 15.9086 9.3352 15.9134 9.39745C15.9325 9.84759 15.6548 10.2451 15.2382 10.3648C15.128 10.3983 15.0179 10.4366 14.903 10.4749C14.5103 10.6186 14.0266 10.451 13.7872 10.0918C13.7501 10.0376 13.6935 9.99981 13.6292 9.98647C13.5652 9.97654 13.4999 9.99201 13.4472 10.0296L12.1207 10.9921C12.0949 11.0116 12.0731 11.0359 12.0567 11.0638C12.0403 11.0917 12.0296 11.1225 12.0252 11.1545C12.0207 11.1866 12.0226 11.2192 12.0308 11.2505C12.039 11.2818 12.0533 11.3111 12.0728 11.3369C12.3554 11.6865 12.3602 12.1749 12.092 12.5245C12.0297 12.6059 11.9675 12.6921 11.8909 12.7975C11.6514 13.1518 11.163 13.2955 10.7607 13.1422C10.6985 13.1231 10.6314 13.1231 10.574 13.1518C10.5165 13.1806 10.4686 13.2332 10.4495 13.2955L9.94184 14.8518C9.92269 14.9141 9.92748 14.9811 9.961 15.0386C9.98973 15.096 10.0424 15.1391 10.1047 15.1583C10.5356 15.2732 10.8325 15.6659 10.823 16.0921C10.8182 16.1544 10.8182 16.2118 10.8182 16.2741C10.8182 16.3363 10.8182 16.3986 10.823 16.4704C10.823 16.9014 10.5261 17.2797 10.1047 17.3946C10.0424 17.409 9.98973 17.4521 9.961 17.5096C9.92748 17.567 9.92269 17.6389 9.94184 17.7011L10.4495 19.2575C10.4686 19.3197 10.5165 19.3724 10.574 19.4011C10.6362 19.4251 10.7033 19.4298 10.7655 19.4059C11.1725 19.2479 11.6466 19.3915 11.8909 19.7459C11.934 19.8129 11.9771 19.8752 12.0249 19.9327L12.0968 20.0332C12.3506 20.356 12.3621 20.8473 12.0728 21.216C12.0345 21.2687 12.0154 21.331 12.0249 21.398C12.0345 21.4603 12.068 21.5177 12.1207 21.556L13.4472 22.5234C13.4999 22.5617 13.5717 22.5665 13.634 22.5521C13.701 22.5425 13.7633 22.4946 13.7968 22.4372C14.0362 22.078 14.4911 21.9248 14.8838 22.0684L14.9269 22.0828L13.1647 23.7301V24.9896C12.7528 25.0949 12.4464 25.4732 12.4464 25.9186C12.4464 26.4453 12.8725 26.8715 13.4041 26.8715C13.9309 26.8715 14.3618 26.4453 14.3618 25.9186C14.3618 25.4732 14.0554 25.0997 13.6435 24.9944V23.9408L15.4345 22.2648C15.741 22.4372 15.9325 22.7724 15.9182 23.1603C15.9182 23.2896 16.0235 23.3997 16.1576 23.3997H16.8041V26.5459C16.5782 26.6036 16.3812 26.7418 16.2501 26.9346C16.119 27.1274 16.0628 27.3614 16.0923 27.5927C16.1217 27.824 16.2346 28.0365 16.4098 28.1903C16.585 28.3441 16.8104 28.4286 17.0435 28.4279C17.5751 28.4279 18.0013 28.0017 18.0013 27.4701C18.0013 27.0248 17.6948 26.6465 17.283 26.5411V23.3997H17.7906C17.8576 23.3997 17.9199 23.3566 17.963 23.3087C18.0109 23.2608 18.0348 23.1794 18.03 23.1124C18.0156 22.758 18.2024 22.4324 18.5089 22.2648L20.2999 23.9408V24.9944C19.888 25.0997 19.5816 25.4732 19.5816 25.9186C19.5816 26.4453 20.0125 26.8715 20.5393 26.8715C21.0709 26.8715 21.4971 26.4453 21.4971 25.9186C21.4971 25.4732 21.1906 25.0949 20.7787 24.9896V23.7301L19.0165 22.0828L19.0644 22.0684C19.4571 21.9248 19.9072 22.078 20.1514 22.4515C20.1849 22.509 20.2424 22.5521 20.3094 22.5617C20.3765 22.576 20.4435 22.5617 20.4962 22.5234L21.8227 21.556C21.8484 21.5371 21.8701 21.5131 21.8865 21.4857C21.9029 21.4582 21.9136 21.4278 21.918 21.3961C21.9225 21.3644 21.9206 21.3322 21.9125 21.3013C21.9043 21.2704 21.8901 21.2414 21.8706 21.216C21.339 20.5585 21.9118 19.9647 22.0573 19.7459C22.2968 19.3963 22.7756 19.2479 23.1827 19.4059C23.2449 19.4298 23.312 19.4298 23.3742 19.4011C23.4322 19.3704 23.4766 19.3192 23.4987 19.2575L24.0016 17.6963C24.0207 17.6341 24.0159 17.567 23.9824 17.5096C23.9683 17.481 23.9482 17.456 23.9234 17.4361C23.8985 17.4163 23.8696 17.4021 23.8387 17.3946C23.403 17.2749 23.1109 16.887 23.1252 16.4513V16.0777C23.1252 15.6467 23.4173 15.2732 23.834 15.1583C23.8657 15.1498 23.8953 15.1348 23.9209 15.1142C23.9465 15.0936 23.9674 15.0678 23.9824 15.0386C24.0159 14.9811 24.0207 14.9141 24.0016 14.8518L23.4987 13.2955C23.4796 13.2332 23.4317 13.1806 23.3742 13.1518C23.3168 13.1231 23.2449 13.1231 23.1875 13.1422C22.7661 13.3003 22.3016 13.1614 22.0525 12.8022ZM13.883 25.9186C13.883 26.182 13.6675 26.3927 13.4041 26.3927C13.1407 26.3927 12.9252 26.182 12.9252 25.9186C12.9252 25.6552 13.1407 25.4397 13.4041 25.4397C13.6723 25.4397 13.883 25.6504 13.883 25.9186ZM17.5224 27.4701C17.5224 27.7335 17.3069 27.949 17.0435 27.949C16.7802 27.949 16.5647 27.7335 16.5647 27.4701C16.5647 27.2067 16.7802 26.9913 17.0435 26.9913C17.3069 26.9913 17.5224 27.2067 17.5224 27.4701ZM21.0182 25.9186C21.0182 26.182 20.8027 26.3927 20.5393 26.3927C20.2759 26.3927 20.0604 26.182 20.0604 25.9186C20.0604 25.6552 20.2759 25.4397 20.5393 25.4397C20.8027 25.4397 21.0182 25.6552 21.0182 25.9186ZM23.1109 13.6594L23.4748 14.78C23.228 14.8957 23.0192 15.0791 22.8725 15.3088C22.7258 15.5385 22.6474 15.8052 22.6464 16.0777V16.4369C22.632 17.0115 22.9624 17.5287 23.4748 17.7682L23.1156 18.8887C22.5649 18.7786 21.9759 19.018 21.6599 19.4777C21.3247 19.9681 20.8994 20.4791 21.3534 21.307L20.4052 21.9966C19.6821 21.2098 18.7938 21.6681 18.5711 21.7236C18.3037 21.8018 18.0652 21.957 17.8855 22.17C17.7058 22.3829 17.5928 22.6441 17.5607 22.9208H16.3875C16.2898 21.9664 15.3502 21.7318 15.3004 21.6997C15.29 21.6943 15.2786 21.6911 15.2669 21.6901C14.7047 21.5144 14.121 21.3741 13.543 22.0014L12.5852 21.307C12.8697 20.7946 12.8108 20.162 12.4799 19.7459L12.4128 19.6501C12.3697 19.5975 12.3266 19.54 12.2883 19.4777C11.9675 19.0084 11.3833 18.7834 10.8325 18.8887L10.4686 17.7682C10.9666 17.5335 11.3018 17.0307 11.3018 16.4704C11.3018 16.4656 11.3018 16.4273 11.2971 16.4225V16.2741C11.2971 16.2214 11.2971 16.1783 11.3018 16.116C11.3114 15.5414 10.981 15.0242 10.4686 14.78L10.8325 13.6594C11.3833 13.7648 11.9675 13.5349 12.2931 13.0608C12.3554 12.9746 12.4128 12.8932 12.4703 12.8118C12.8247 12.3569 12.863 11.7439 12.59 11.2459L13.543 10.5515C13.9261 10.9586 14.5438 11.1166 15.0658 10.9251C15.1664 10.8867 15.2669 10.858 15.3723 10.8293C15.6395 10.7491 15.8774 10.5927 16.0569 10.3792C16.2364 10.1656 16.3497 9.90431 16.3827 9.62731H17.5607C17.6182 10.1828 18.0109 10.6617 18.5711 10.8245C18.6813 10.858 18.7914 10.8915 18.9016 10.9346C19.4331 11.1262 20.0125 10.9729 20.4004 10.5515L21.3534 11.2459C21.219 11.4912 21.1588 11.7702 21.1801 12.049C21.2013 12.3279 21.3031 12.5945 21.4731 12.8166C21.5402 12.898 21.5976 12.9842 21.6551 13.0704C21.9855 13.5445 22.5554 13.7648 23.1109 13.6594Z" fill="#13519C"/>
<path d="M16.9861 13.2571C16.1866 13.2577 15.4201 13.5759 14.8552 14.1417C14.2904 14.7075 13.9734 15.4745 13.974 16.274C13.9746 17.0735 14.2928 17.84 14.8586 18.4049C15.4244 18.9697 16.1914 19.2867 16.9909 19.2861C17.7904 19.2855 18.5569 18.9673 19.1218 18.4015C19.6867 17.8357 20.0036 17.0687 20.003 16.2692C20.0024 15.4697 19.6842 14.7032 19.1184 14.1383C18.5526 13.5734 17.7856 13.2564 16.9861 13.2571ZM16.9861 18.8072C15.5878 18.8072 14.4529 17.6723 14.4529 16.274C14.4529 14.8757 15.5878 13.736 16.9861 13.736C18.3844 13.736 19.5241 14.8757 19.5241 16.274C19.5241 17.6723 18.3844 18.8072 16.9861 18.8072Z" fill="#13519C"/>
<path d="M4.7418 25.6953C4.50755 25.6951 4.28297 25.6019 4.11733 25.4363C3.9517 25.2707 3.85853 25.0461 3.85828 24.8118C3.85828 24.3243 4.25478 23.9283 4.7418 23.9283C5.22881 23.9283 5.6258 24.3243 5.6258 24.8118C5.62554 25.0462 5.53231 25.2708 5.36657 25.4365C5.20083 25.6021 4.97613 25.6952 4.7418 25.6953ZM4.7418 24.4072C4.66163 24.4071 4.58324 24.4308 4.51654 24.4753C4.44985 24.5197 4.39784 24.583 4.36712 24.657C4.3364 24.7311 4.32834 24.8126 4.34395 24.8912C4.35957 24.9699 4.39816 25.0421 4.45485 25.0988C4.51154 25.1555 4.58377 25.1941 4.6624 25.2097C4.74103 25.2253 4.82253 25.2172 4.89658 25.1865C4.97062 25.1558 5.03389 25.1038 5.07837 25.0371C5.12285 24.9704 5.14654 24.892 5.14645 24.8118C5.14632 24.7045 5.10365 24.6017 5.02779 24.5258C4.95193 24.45 4.84908 24.4073 4.7418 24.4072ZM29.4564 5.99929H27.6157C27.1895 5.99929 26.8423 5.65306 26.8423 5.22639C26.8423 4.96253 26.9812 4.71735 27.1981 4.57847C27.2153 4.13025 27.6592 3.78929 28.0964 3.88267C28.1834 3.76377 28.2971 3.66698 28.4284 3.6001C28.5597 3.53322 28.7048 3.49813 28.8521 3.49766C29.3674 3.49766 29.7869 3.91715 29.7869 4.4329V4.43625C29.9318 4.49964 30.0551 4.60395 30.1416 4.7364C30.2281 4.86884 30.2741 5.02366 30.2739 5.18185C30.2736 5.3987 30.1874 5.60659 30.034 5.75993C29.8807 5.91326 29.6728 5.99952 29.456 5.99977L29.4564 5.99929ZM27.9389 4.34478C27.8997 4.34497 27.861 4.3539 27.8257 4.37093C27.7904 4.38796 27.7594 4.41266 27.7348 4.44321C27.7103 4.47377 27.6929 4.50943 27.6838 4.54757C27.6748 4.58572 27.6744 4.6254 27.6827 4.66371C27.6925 4.71004 27.6884 4.75824 27.6709 4.80223C27.6533 4.84621 27.6231 4.884 27.5841 4.91081C27.5588 4.92812 27.5324 4.94364 27.505 4.95726C27.451 4.97855 27.4045 5.01559 27.3717 5.06357C27.339 5.11155 27.3213 5.16827 27.3212 5.22639C27.3212 5.38921 27.4533 5.5209 27.6157 5.5209H29.456C29.6427 5.5209 29.795 5.36861 29.795 5.18185C29.7953 5.09938 29.765 5.01974 29.71 4.95828C29.655 4.89683 29.5791 4.85791 29.4972 4.84904C29.4623 4.84524 29.4286 4.83381 29.3986 4.81557C29.3686 4.79732 29.343 4.77271 29.3236 4.74346C29.3042 4.71422 29.2914 4.68107 29.2863 4.64635C29.2811 4.61163 29.2836 4.5762 29.2936 4.54256C29.3101 4.47547 29.3111 4.40552 29.2966 4.33799C29.2821 4.27045 29.2524 4.20709 29.2099 4.15268C29.1673 4.09827 29.1129 4.05423 29.0509 4.02389C28.9888 3.99354 28.9207 3.97767 28.8516 3.97749C28.7603 3.97768 28.6712 4.00525 28.5957 4.05665C28.5203 4.10804 28.4619 4.18088 28.4283 4.26577C28.4157 4.29847 28.3961 4.32801 28.3709 4.35231C28.3456 4.37661 28.3154 4.39507 28.2822 4.4064C28.2491 4.41772 28.2138 4.42163 28.179 4.41786C28.1442 4.41408 28.1106 4.4027 28.0806 4.38453C28.0379 4.35855 27.9889 4.3448 27.9389 4.34478ZM9.64929 2.35315H10.1282V2.87847H9.64929V2.35315ZM9.64929 3.73757H10.1282V4.2629H9.64929V3.73757ZM10.3183 3.06859H10.8436V3.54746H10.3183V3.06859ZM8.93385 3.06859H9.45918V3.54746H8.93385V3.06859ZM28.5547 10.8848H29.0336V11.4101H28.5547V10.8848ZM28.5547 12.2687H29.0336V12.794H28.5547V12.2687ZM29.2237 11.5997H29.749V12.0786H29.2237V11.5997ZM27.8398 11.5997H28.3651V12.0786H27.8398V11.5997ZM4.54929 10.2886H5.02816V12.0063H4.54929V10.2886Z" fill="#2983D3" fill-opacity="0.4"/>
<path d="M3.93005 10.9077H5.64777V11.3866H3.93005V10.9077ZM30.8403 20.1883C30.6061 20.188 30.3815 20.0949 30.2159 19.9292C30.0502 19.7636 29.9571 19.539 29.9568 19.3048C29.9568 18.8173 30.3533 18.4212 30.8403 18.4212V18.9001C30.7602 18.9 30.6818 18.9237 30.6151 18.9682C30.5484 19.0127 30.4964 19.0759 30.4657 19.15C30.4349 19.224 30.4269 19.3055 30.4425 19.3842C30.4581 19.4628 30.4967 19.535 30.5534 19.5917C30.6101 19.6484 30.6823 19.687 30.7609 19.7026C30.8396 19.7182 30.9211 19.7102 30.9951 19.6794C31.0692 19.6487 31.1324 19.5967 31.1769 19.53C31.2214 19.4633 31.2451 19.3849 31.245 19.3048H31.7239C31.7236 19.539 31.6304 19.7636 31.4648 19.9292C31.2992 20.0949 31.0746 20.188 30.8403 20.1883Z" fill="#2983D3" fill-opacity="0.4"/>
</svg>
