<svg width="12" height="12" viewBox="0 0 12 12" fill="none" xmlns="http://www.w3.org/2000/svg">
<path d="M9.5 8.5V5.5C9.5 4.08579 9.5 3.37868 9.06065 2.93934C8.6213 2.5 7.9142 2.5 6.5 2.5H5M5 2.5C5 2.14988 5.99715 1.49577 6.25 1.25M5 2.5C5 2.85012 5.99715 3.50423 6.25 3.75" stroke="#13519C" stroke-width="0.5" stroke-linecap="round" stroke-linejoin="round"/>
<path d="M2.5 3.75V6.75C2.5 8.1642 2.5 8.8713 2.93934 9.31065C3.37868 9.75 4.08579 9.75 5.5 9.75H7M7 9.75C7 10.1001 6.00285 10.7543 5.75 11M7 9.75C7 9.3999 6.00285 8.74575 5.75 8.5" stroke="#13519C" stroke-width="0.5" stroke-linecap="round" stroke-linejoin="round"/>
<path d="M9.5 10.5C10.0523 10.5 10.5 10.0523 10.5 9.5C10.5 8.94772 10.0523 8.5 9.5 8.5C8.94772 8.5 8.5 8.94772 8.5 9.5C8.5 10.0523 8.94772 10.5 9.5 10.5Z" stroke="#13519C" stroke-width="0.5"/>
<path d="M2.5 3.5C3.05228 3.5 3.5 3.05228 3.5 2.5C3.5 1.94772 3.05228 1.5 2.5 1.5C1.94772 1.5 1.5 1.94772 1.5 2.5C1.5 3.05228 1.94772 3.5 2.5 3.5Z" stroke="#13519C" stroke-width="0.5"/>
</svg>
