<svg width="32" height="32" viewBox="0 0 32 32" fill="none" xmlns="http://www.w3.org/2000/svg">
<g clip-path="url(#clip0_0_926)">
<path d="M11.103 10.4243V4.99399H11.5878C11.8787 4.99399 12.0727 4.80005 12.0727 4.50914C12.0727 4.21823 11.8787 4.02429 11.5878 4.02429H3.92723C3.63632 4.02429 3.44238 4.21823 3.44238 4.50914C3.44238 4.80005 3.63632 4.99399 3.92723 4.99399H4.41208V10.4243H5.38178V4.99399H10.1333V10.4243H11.103ZM11.8787 20.9455H3.58784V27.0061H11.8787V20.9455ZM10.6181 23.5637H6.15753V24.4849C6.15753 24.7758 5.96359 24.9697 5.67269 24.9697C5.38178 24.9697 5.18784 24.7758 5.18784 24.4849V23.5637H4.89693C4.60602 23.5637 4.41208 23.3697 4.41208 23.0788C4.41208 22.7879 4.60602 22.594 4.89693 22.594H10.6181C10.909 22.594 11.103 22.7879 11.103 23.0788C11.103 23.3213 10.8606 23.5637 10.6181 23.5637ZM3.58784 14.691H11.8787V17.891H3.58784V14.691Z" fill="#13519C"/>
<path d="M1.21213 30.303H1.64849V31.3697H2.61819V30.303H12.897V31.3697H13.8667V30.303H14.303C14.8364 30.303 15.2727 29.8666 15.2727 29.3333V12.3636C15.2727 11.8303 14.8364 11.3939 14.303 11.3939H1.21213C0.678795 11.3939 0.242432 11.8303 0.242432 12.3636V29.3333C0.242432 29.8666 0.678795 30.303 1.21213 30.303ZM2.61819 14.6909C2.61819 14.1575 3.05455 13.7212 3.58789 13.7212H11.8788C12.4121 13.7212 12.8485 14.1575 12.8485 14.6909V17.8909C12.8485 18.4242 12.4121 18.8606 11.8788 18.8606H3.58789C3.05455 18.8606 2.61819 18.4242 2.61819 17.8909V14.6909ZM2.61819 20.9454C2.61819 20.4121 3.05455 19.9757 3.58789 19.9757H11.8788C12.4121 19.9757 12.8485 20.4121 12.8485 20.9454V27.006C12.8485 27.5394 12.4121 27.9757 11.8788 27.9757H3.58789C3.05455 27.9757 2.61819 27.5394 2.61819 27.006V20.9454ZM29.1394 13.3333C29.4303 13.0424 30.0606 12.4121 26.9091 8.43632C26.2788 7.61208 25.6 6.83633 24.9212 6.06057C24.3394 5.38178 23.7091 4.75148 23.0788 4.12117C20.6061 1.59996 18.6667 0.339355 17.4546 0.339355C17.0667 0.339355 16.7273 0.48481 16.4849 0.727234C16.097 1.11511 15.8546 1.84239 16.6303 3.24845C17.2121 4.31511 18.3273 5.72117 19.9273 7.27269C20.5576 7.90299 21.2364 8.53329 21.8667 9.11511C22.6424 9.7939 23.4667 10.4727 24.2424 11.103C26.3273 12.7515 27.7818 13.5272 28.5091 13.5272C28.8485 13.5757 29.0424 13.4303 29.1394 13.3333ZM18.1333 6.83633L16.6303 11.8303C16.5818 11.9757 16.6303 12.1697 16.7758 12.3151C18.0849 13.5272 18.0849 13.7697 18.4242 13.7697C18.6182 13.7697 18.7636 13.6727 18.8606 13.4787L20.7515 9.45451C20.2182 8.96966 19.6849 8.48481 19.2 7.99996C18.8121 7.61208 18.4727 7.2242 18.1333 6.83633ZM29.5273 2.71511C29.5758 2.56966 29.5273 2.4242 29.3818 2.27875L28.0727 0.969658C27.9273 0.824204 27.7818 0.775719 27.5879 0.824204L22.6424 2.32723C23.0303 2.66663 23.3697 3.00602 23.7576 3.44239C24.2909 3.97572 24.7758 4.46057 25.2121 4.9939L29.2364 3.10299C29.4303 3.00602 29.5273 2.86057 29.5273 2.71511ZM31.2727 11.103H29.8667C30.0606 11.4424 30.1576 11.7818 30.2546 12.0727H31.2727C31.5636 12.0727 31.7576 11.8303 31.7576 11.5878C31.7576 11.3454 31.5636 11.103 31.2727 11.103ZM27.8788 15.4666V14.4484C27.6364 14.4 27.297 14.2545 26.9091 14.0606V15.4666C26.9091 16.1454 27.8788 16.1454 27.8788 15.4666ZM30.303 20.5575H27.2V19.5878C27.2 19.0545 26.7636 18.6181 26.2303 18.6181H21.8667C21.3333 18.6181 20.897 19.0545 20.897 19.5878V20.5575H17.7939C17.0182 20.5575 16.3394 21.1878 16.3394 22.0121V25.2121H23.5636V24.8727C23.5636 24.5818 23.7576 24.3878 24.0485 24.3878C24.3394 24.3878 24.5333 24.5818 24.5333 24.8727V25.2121H31.7576V22.0121C31.7576 21.1878 31.1273 20.5575 30.303 20.5575ZM26.2303 20.5575H21.8667V19.5878H26.2303V20.5575ZM24.5333 26.5697C24.5333 26.8606 24.3394 27.0545 24.0485 27.0545C23.7576 27.0545 23.5636 26.8606 23.5636 26.5697V26.1818H16.3879V30.206C16.3879 30.9818 17.0182 31.6606 17.8424 31.6606H30.3515C31.1273 31.6606 31.8061 31.0303 31.8061 30.206V26.1818H24.5333V26.5697Z" fill="#2983D3" fill-opacity="0.6"/>
</g>
<defs>
<clipPath id="clip0_0_926">
<rect width="32" height="32" fill="white"/>
</clipPath>
</defs>
</svg>
