<svg width="459" height="526" viewBox="0 0 459 526" fill="none" xmlns="http://www.w3.org/2000/svg">
<g opacity="0.15" clip-path="url(#clip0_26_2)">
<path d="M178.939 -24.9809C170.817 -8.76861 161.433 18.5078 153.775 49.8106C146.117 81.1132 141.954 109.215 141.835 126.692C140.873 161.423 161.625 192.173 194.47 204.683C210.857 211.311 238.737 218.351 270.957 223.442C303.176 228.534 332.297 230.5 350.586 229.353C386.878 227.768 420.57 205.621 436.043 173.183C444.165 156.97 453.55 129.694 461.207 98.3912C468.864 67.0885 473.027 38.987 473.147 21.5101C474.106 -13.2213 453.356 -43.9711 420.51 -56.4813C404.124 -63.1088 376.242 -70.1488 344.024 -75.2403C311.805 -80.3318 282.684 -82.299 264.395 -81.1511C228.102 -79.566 194.409 -57.4197 178.939 -24.9809Z" fill="white"/>
<path d="M178.939 -24.9809C170.817 -8.76861 161.433 18.5078 153.775 49.8106C146.117 81.1132 141.954 109.215 141.835 126.692C140.873 161.423 161.625 192.173 194.47 204.683C210.857 211.311 238.737 218.351 270.957 223.442C303.176 228.534 332.297 230.5 350.586 229.353C386.878 227.768 420.57 205.621 436.043 173.183C444.165 156.97 453.55 129.694 461.207 98.3912C468.864 67.0885 473.027 38.987 473.147 21.5101C474.106 -13.2213 453.356 -43.9711 420.51 -56.4813C404.124 -63.1088 376.242 -70.1488 344.024 -75.2403C311.805 -80.3318 282.684 -82.299 264.395 -81.1511C228.102 -79.566 194.409 -57.4197 178.939 -24.9809Z" fill="url(#paint0_radial_26_2)"/>
<path d="M248.243 62.937C240.121 79.1492 230.736 106.426 223.078 137.728C215.421 169.031 211.258 197.133 211.139 214.609C210.176 249.341 230.929 280.091 263.774 292.601C280.161 299.228 308.04 306.268 340.26 311.36C372.481 316.451 401.6 318.419 419.89 317.271C456.183 315.686 489.875 293.539 505.344 261.1C513.466 244.888 522.851 217.612 530.508 186.309C538.169 155.006 542.328 126.905 542.448 109.428C543.411 74.6965 522.657 43.9467 489.815 31.4365C473.426 24.8091 445.547 17.7691 413.329 12.6776C381.107 7.58624 351.988 5.61906 333.699 6.76685C297.406 8.35183 263.713 30.4981 248.243 62.937Z" fill="white"/>
<path d="M248.243 62.937C240.121 79.1492 230.736 106.426 223.078 137.728C215.421 169.031 211.258 197.133 211.139 214.609C210.176 249.341 230.929 280.091 263.774 292.601C280.161 299.228 308.04 306.268 340.26 311.36C372.481 316.451 401.6 318.419 419.89 317.271C456.183 315.686 489.875 293.539 505.344 261.1C513.466 244.888 522.851 217.612 530.508 186.309C538.169 155.006 542.328 126.905 542.448 109.428C543.411 74.6965 522.657 43.9467 489.815 31.4365C473.426 24.8091 445.547 17.7691 413.329 12.6776C381.107 7.58624 351.988 5.61906 333.699 6.76685C297.406 8.35183 263.713 30.4981 248.243 62.937Z" fill="url(#paint1_radial_26_2)"/>
<path d="M322.177 156.365C314.055 172.578 304.67 199.854 297.013 231.157C289.355 262.46 285.192 290.561 285.073 308.038C284.111 342.77 304.864 373.52 337.709 386.028C354.096 392.656 381.975 399.697 414.196 404.787C446.414 409.882 475.534 411.849 493.823 410.7C530.117 409.113 563.808 386.97 579.281 354.528C587.404 338.317 596.788 311.041 604.445 279.738C612.102 248.435 616.266 220.334 616.385 202.857C617.344 168.125 596.594 137.376 563.748 124.865C547.363 118.238 519.481 111.198 487.263 106.106C455.044 101.015 425.922 99.0477 407.632 100.196C371.339 101.781 337.647 123.927 322.177 156.365Z" fill="white"/>
<path d="M322.177 156.365C314.055 172.578 304.67 199.854 297.013 231.157C289.355 262.46 285.192 290.561 285.073 308.038C284.111 342.77 304.864 373.52 337.709 386.028C354.096 392.656 381.975 399.697 414.196 404.787C446.414 409.882 475.534 411.849 493.823 410.7C530.117 409.113 563.808 386.97 579.281 354.528C587.404 338.317 596.788 311.041 604.445 279.738C612.102 248.435 616.266 220.334 616.385 202.857C617.344 168.125 596.594 137.376 563.748 124.865C547.363 118.238 519.481 111.198 487.263 106.106C455.044 101.015 425.922 99.0477 407.632 100.196C371.339 101.781 337.647 123.927 322.177 156.365Z" fill="url(#paint2_radial_26_2)"/>
</g>
<defs>
<radialGradient id="paint0_radial_26_2" cx="0" cy="0" r="1" gradientUnits="userSpaceOnUse" gradientTransform="translate(400.8 167.718) rotate(-135.864) scale(265.307 328.94)">
<stop offset="0.53125" stop-color="#005ABB"/>
<stop offset="0.776042" stop-color="#3086EE"/>
<stop offset="1" stop-color="#74B5FF"/>
</radialGradient>
<radialGradient id="paint1_radial_26_2" cx="0" cy="0" r="1" gradientUnits="userSpaceOnUse" gradientTransform="translate(470.101 255.636) rotate(-135.864) scale(265.307 328.94)">
<stop offset="0.53125" stop-color="#005ABB"/>
<stop offset="0.776042" stop-color="#3086EE"/>
<stop offset="1" stop-color="#74B5FF"/>
</radialGradient>
<radialGradient id="paint2_radial_26_2" cx="0" cy="0" r="1" gradientUnits="userSpaceOnUse" gradientTransform="translate(544.038 349.065) rotate(-135.864) scale(265.307 328.94)">
<stop offset="0.53125" stop-color="#005ABB"/>
<stop offset="0.776042" stop-color="#3086EE"/>
<stop offset="1" stop-color="#74B5FF"/>
</radialGradient>
<clipPath id="clip0_26_2">
<rect width="459" height="526" fill="white"/>
</clipPath>
</defs>
</svg>
