<svg width="202" height="47" viewBox="0 0 202 47" fill="none" xmlns="http://www.w3.org/2000/svg">
<path d="M0.492444 31.361C2.14184 31.3325 3.8068 31.1428 5.43879 31.3064C16.659 32.4277 27.8601 33.8781 39.1031 34.714C50.4328 35.5549 61.8051 36.0929 73.1697 36.2315C83.1105 36.3559 93.0731 36.0077 102.996 35.3706C111.459 34.8292 119.879 33.5373 128.324 32.652C140.799 31.3347 153.032 28.7194 165.208 25.8078C166.904 25.4018 168.55 24.7996 170.246 24.3936C171.791 24.0224 173.042 24.4195 173.892 25.9523C174.877 27.7361 174.576 28.6347 172.613 29.0313C160.943 31.3617 149.296 33.849 137.579 35.9273C131.699 36.9683 125.685 37.3096 119.721 37.8658C114.963 38.3115 110.184 38.9118 105.424 38.8713C102.434 38.8405 99.6024 39.5293 96.703 39.672C90.1873 39.9841 83.6573 39.9028 77.1342 40.0212C73.3621 40.0882 69.5935 40.3049 65.8262 40.2972C62.4564 40.2941 59.0744 40.178 55.7139 39.9075C53.8697 39.7564 52.0658 39.1278 50.223 38.8458C49.4404 38.7255 48.4612 38.6684 47.8246 39.0302C45.118 40.5615 42.8223 37.9098 39.8471 38.6027C36.3108 39.4313 32.2747 38.1615 28.4616 37.7586C26.4596 37.5422 24.4456 37.3189 22.4719 36.9359C19.8585 36.4346 17.2879 35.7301 14.6817 35.2106C13.8703 35.0511 12.9424 35.3959 12.1521 35.1941C10.7613 34.8388 9.46022 34.1148 8.06254 33.7716C5.54269 33.1573 2.9883 32.7093 0.444092 32.1934C0.459969 31.9201 0.482063 31.6471 0.504135 31.3742L0.492444 31.361Z" fill="url(#paint0_linear_0_662)"/>
<defs>
<linearGradient id="paint0_linear_0_662" x1="86.7445" y1="41.8957" x2="88.0543" y2="19.4099" gradientUnits="userSpaceOnUse">
<stop stop-color="#102770"/>
<stop offset="0.0001" stop-color="#2983D3"/>
</linearGradient>
</defs>
</svg>
