<svg width="41" height="41" viewBox="0 0 41 41" fill="none" xmlns="http://www.w3.org/2000/svg">
<path d="M19.0432 14.0752C19.0432 14.0752 21.3936 14.9824 21.9208 15.4417C21.9208 15.4417 23.418 13.8408 25.7921 14.9574C25.7921 14.9574 27.4667 13.9369 29.1964 15.3783L29.6666 15.4135C29.6666 15.4135 28.4251 13.4987 27.9241 11.7677C27.7236 11.0745 27.3758 10.4333 26.91 9.88298C26.8652 9.82981 26.8389 9.80098 26.8389 9.80098C26.206 10.1219 25.6512 9.65364 25.6512 9.65364C25.14 10.6594 24.5154 10.0867 24.5154 10.0867C23.9689 10.2686 23.8741 9.90476 23.8741 9.90476C23.2764 9.94833 23.2937 9.59278 23.2937 9.59278C22.8344 9.68823 22.9298 9.02903 23.0599 8.5524C23.1464 8.22312 23.3808 7.93676 23.6928 7.81569C25.1835 7.21734 27.1688 8.24042 27.1688 8.24042C27.9837 8.30961 28.3303 8.95984 28.3303 8.95984L29.8031 10.3596C29.8941 10.4461 29.985 10.5255 30.0837 10.6043C30.6788 11.0758 33.2202 13.2411 33.3765 15.926C33.4623 17.4039 32.0908 17.4244 32.0908 17.4244C31.5065 19.0125 29.4411 19.0939 29.4411 19.0939C26.0919 21.1163 24.3866 18.8357 24.3866 18.8357C24.3866 18.8357 26.4232 20.9306 23.0317 23.9863C23.0317 23.9863 23.0387 25.823 21.7812 27.3528C21.4974 27.6981 21.3225 28.1235 21.252 28.5649C21.1694 29.0857 21.1418 29.7699 21.3673 30.4112L21.498 31.4259C21.5192 31.5918 21.3904 31.7385 21.2232 31.7392L12.4767 31.8603C12.3095 31.8596 12.1808 31.7129 12.2019 31.547L12.3326 30.5322C12.5581 29.891 12.5306 29.2068 12.4479 28.686C12.3781 28.2446 12.2026 27.8192 11.9188 27.4739C10.6619 25.9441 10.6683 24.1081 10.6683 24.1081C7.27679 21.0523 9.31334 18.9574 9.31334 18.9574C9.31334 18.9574 7.60799 21.2381 4.25881 19.2156C4.25881 19.2156 2.19343 19.1342 1.60918 17.5461C1.60918 17.5461 0.237604 17.5256 0.323448 16.0477C0.47976 13.3629 3.02112 11.1975 3.61626 10.726C3.71492 10.6479 3.80524 10.5685 3.89685 10.482L5.36965 9.0822C5.36965 9.0822 5.71623 8.43197 6.5311 8.36278C6.5311 8.36278 8.5164 7.3397 10.0071 7.93805C10.3191 8.05912 10.5529 8.34548 10.6401 8.67476C10.7701 9.15139 10.8656 9.81059 10.4062 9.71514C10.4062 9.71514 10.4235 10.0707 9.8252 10.0271C9.8252 10.0271 9.72974 10.391 9.18393 10.2091C9.18393 10.2091 8.55996 10.7811 8.0481 9.77536C8.0481 9.77536 7.49332 10.2437 6.86038 9.9227C6.86038 9.9227 6.83412 9.95153 6.78928 10.0047C6.32354 10.555 5.97568 11.1969 5.77517 11.8894C5.2742 13.6204 4.03267 15.5352 4.03267 15.5352L4.50289 15.5C6.23257 14.0586 7.90717 15.0791 7.90717 15.0791C10.2813 13.9625 11.7785 15.5634 11.7785 15.5634C12.3057 15.1041 14.6606 14.2162 14.6606 14.2162" fill="#13519C"/>
<path d="M32.3432 14.8919C32.251 13.3032 31.3234 11.8996 30.4579 10.9181C30.3016 10.781 30.1702 10.6721 30.0837 10.6036C29.9851 10.5254 29.8941 10.446 29.8032 10.3589L28.3304 8.95911C28.3304 8.95911 28.2926 8.89313 28.2221 8.80472L27.9216 8.51964C27.7384 8.38639 27.4918 8.26723 27.1689 8.23969C27.1689 8.23969 25.1836 7.21661 23.6929 7.81495C23.3809 7.93603 23.1464 8.22239 23.0599 8.55167C23.0183 8.70478 22.9824 8.87455 22.9651 9.03406C23.058 9.09941 23.2162 9.14169 23.4834 9.05264C23.4834 9.05264 24.1074 9.62472 24.6186 8.61894C24.6186 8.61894 25.1734 9.08723 25.8063 8.76628C25.8063 8.76628 25.8326 8.79511 25.8774 8.84828C26.1471 9.16731 26.372 9.51902 26.5571 9.89122C26.6487 9.87456 26.7429 9.84894 26.8396 9.79961C26.8396 9.79961 26.8659 9.82844 26.9107 9.88161C27.3765 10.4319 27.7243 11.0738 27.9248 11.7663C28.4258 13.4973 29.6673 15.4121 29.6673 15.4121L29.1971 15.3769C27.4674 13.9355 25.7928 14.956 25.7928 14.956C23.4187 13.8394 21.9215 15.4403 21.9215 15.4403C21.3943 14.981 19.0439 14.0739 19.0439 14.0739L14.662 14.2135C14.662 14.2135 12.307 15.1021 11.7798 15.5608C11.7798 15.5608 10.2827 13.9598 7.90851 15.0764C7.90851 15.0764 6.23392 14.0559 4.50423 15.4973L4.03401 15.5326C4.03401 15.5326 4.54331 14.7459 5.04107 13.7266C4.5574 13.8003 4.01736 14.0098 3.47154 14.4646L3.00132 14.4999C3.00132 14.4999 4.24286 12.585 4.74382 10.8541C4.94434 10.1616 5.2922 9.51966 5.75793 8.96936C5.80342 8.91619 5.82904 8.88736 5.82904 8.88736C6.46198 9.20831 7.01676 8.74002 7.01676 8.74002C7.52798 9.7458 8.15259 9.17372 8.15259 9.17372C8.6984 9.35566 8.79386 8.99178 8.79386 8.99178C9.3922 9.03534 9.37426 8.6798 9.37426 8.6798C9.77529 8.76308 9.75351 8.27172 9.65486 7.82777C8.22242 7.49208 6.53245 8.36077 6.53245 8.36077C5.71757 8.42995 5.371 9.08019 5.371 9.08019L3.8982 10.48C3.80659 10.5664 3.71626 10.6459 3.61761 10.724C3.02246 11.1955 0.481105 13.3608 0.324793 16.0457C0.315183 16.2091 0.326074 16.3519 0.348496 16.4813C0.483027 16.5095 0.576558 16.5114 0.576558 16.5114C0.735433 16.9432 1.00514 17.261 1.312 17.4986C1.48368 17.5416 1.60925 17.5441 1.60925 17.5441C1.63679 17.6178 1.67011 17.6857 1.70278 17.753C2.44142 18.1482 3.22554 18.1803 3.22554 18.1803C6.17754 19.9631 7.85086 18.4045 8.2064 18.0092C8.02382 18.2411 7.57411 18.9304 7.69582 19.9503C8.54465 19.7376 9.05972 19.2424 9.23973 19.0425C8.90725 19.4654 7.67789 21.4122 10.6683 24.106C10.6683 24.106 10.6613 25.9427 11.9188 27.4719C12.2026 27.8172 12.3775 28.2426 12.448 28.684C12.5306 29.2048 12.5588 29.889 12.3327 30.5302L12.2962 30.814L20.1899 30.7045C20.3571 30.7038 20.4859 30.5565 20.4648 30.3912L20.3341 29.3765C20.1086 28.7352 20.1361 28.051 20.2188 27.5302C20.2892 27.0888 20.4641 26.6634 20.7479 26.3181C22.0048 24.7883 21.9984 22.9516 21.9984 22.9516C24.9889 20.2572 23.7601 18.311 23.427 17.8881C23.7826 18.2834 25.4559 19.842 28.4079 18.0592C28.4079 18.0592 30.4732 17.9778 31.0575 16.3897C31.0575 16.3897 32.4291 16.3699 32.3432 14.8919Z" fill="#2983D3" fill-opacity="0.4"/>
<path d="M7.11799 8.14108C7.6638 8.32301 7.75925 7.95914 7.75925 7.95914C8.077 7.9822 8.21858 7.89251 8.28393 7.80347C7.54721 7.91814 6.91299 8.18336 6.65674 8.30123C6.92068 8.32173 7.11799 8.14108 7.11799 8.14108Z" fill="#13519C"/>
<path d="M29.8033 10.3589L28.3305 8.95911C28.3305 8.95911 27.9839 8.30888 27.169 8.23969C27.169 8.23969 25.3439 7.3031 23.8794 7.75346C24.101 7.84635 24.4233 7.91105 24.7737 7.7336C24.7737 7.7336 24.8 7.76243 24.8448 7.8156C25.3112 8.3659 25.6584 9.0078 25.8589 9.70032C25.8679 9.73171 25.8794 9.76374 25.889 9.79513C26.1094 9.89955 26.4592 9.99244 26.8397 9.79961C26.8397 9.79961 26.866 9.82844 26.9108 9.88161C27.3766 10.4319 27.7244 11.0738 27.9249 11.7663C28.4259 13.4973 29.6674 15.4121 29.6674 15.4121L29.1972 15.3769C27.4675 13.9355 25.7929 14.956 25.7929 14.956C23.4188 13.8394 21.9216 15.4403 21.9216 15.4403C21.3944 14.981 19.044 14.0739 19.044 14.0739L14.6621 14.2135C14.6621 14.2135 12.3071 15.1021 11.7799 15.5608C11.7799 15.5608 10.2828 13.9598 7.90861 15.0764C7.90861 15.0764 6.23402 14.0559 4.50433 15.4973L4.03411 15.5326C4.03411 15.5326 4.86628 14.2481 5.44285 12.833C4.84514 12.6222 3.65678 12.4159 2.43832 13.4313L1.96682 13.4678C1.96682 13.4678 2.70417 12.3282 3.27241 11.013C2.36913 11.8009 0.459425 13.7286 0.324253 16.0463C0.314003 16.2257 0.325534 16.3827 0.353081 16.5217C1.16411 17.1053 2.1936 17.1482 2.1936 17.1482C5.1456 18.9311 6.81891 17.3724 7.17446 16.9772C6.93166 17.2866 6.21224 18.4096 7.00917 20.0445C8.26864 19.9971 9.01689 19.2924 9.24111 19.0438C8.90863 19.4666 7.67927 21.4135 10.6697 24.1073C10.6697 24.1073 10.6627 25.944 11.9202 27.4732C12.204 27.8185 12.3789 28.2438 12.4494 28.6852C12.4993 28.9998 12.5211 29.3758 12.4872 29.7647L19.1586 29.6724C19.3258 29.6718 19.4546 29.5251 19.4335 29.3592L19.3028 28.3444C19.0773 27.7032 19.1048 27.019 19.1875 26.4981C19.2579 26.0568 19.4328 25.6314 19.7166 25.2861C20.9735 23.7563 20.9671 21.9202 20.9671 21.9202C23.9576 19.2258 22.7282 17.2796 22.3957 16.8567C22.7513 17.252 24.4246 18.8106 27.3766 17.0278C27.3766 17.0278 29.4419 16.9464 30.0262 15.3583C30.0262 15.3583 31.3978 15.3378 31.3119 13.8599C31.235 12.5344 30.5758 11.3365 29.8571 10.4056C29.8385 10.389 29.8205 10.3749 29.8033 10.3589Z" fill="#13519C" fill-opacity="0.26"/>
<path d="M12.4813 32.1697C12.3071 32.169 12.1463 32.096 12.0361 31.9692C11.9246 31.843 11.8734 31.6738 11.8945 31.5066L12.0252 30.4919C12.0278 30.4701 12.0335 30.449 12.0399 30.4285C12.2507 29.8282 12.2116 29.1754 12.1412 28.7334C12.0764 28.3266 11.9163 27.9595 11.6786 27.6699C10.5562 26.3035 10.3871 24.7256 10.3621 24.2471C9.0969 23.0792 8.43578 21.9017 8.39798 20.7461C8.38837 20.4667 8.4172 20.2124 8.46781 19.9863C7.56773 20.4315 6.11928 20.675 4.16281 19.5186C3.75921 19.4853 2.04426 19.2617 1.39146 17.8319C1.14482 17.7909 0.733541 17.6723 0.420276 17.336C0.118541 17.0112 -0.0191929 16.5711 0.0128384 16.0279C0.173635 13.2616 2.6631 11.0822 3.42224 10.4807C3.51449 10.4083 3.59778 10.334 3.68234 10.2545L5.12374 8.88361C5.23265 8.71064 5.64201 8.15073 6.44279 8.0572C6.79001 7.88808 8.6427 7.05334 10.1219 7.6472C10.5165 7.80031 10.8234 8.15458 10.9393 8.59276C11.1129 9.23467 11.095 9.64083 10.881 9.86825C10.8336 9.91758 10.7504 9.98548 10.6254 10.0156C10.6011 10.0547 10.5716 10.0918 10.5351 10.1277C10.4057 10.2539 10.2257 10.3237 9.99634 10.3359C9.9515 10.3878 9.89256 10.4397 9.8144 10.4826C9.65296 10.5704 9.46078 10.5902 9.2404 10.5435C9.10139 10.6248 8.87973 10.7132 8.61195 10.6652C8.35698 10.6191 8.13276 10.4627 7.94185 10.1982C7.70482 10.3103 7.34992 10.4089 6.95209 10.2904C6.54593 10.792 6.24932 11.3583 6.07123 11.9733C5.75668 13.0618 5.16731 14.2034 4.75282 14.933C6.15899 14.0567 7.4742 14.5288 7.91303 14.7332C9.87206 13.8843 11.2885 14.7581 11.7965 15.1662C12.562 14.68 14.3295 14.0073 14.5505 13.924C14.712 13.8619 14.8894 13.9439 14.9503 14.1047C15.0112 14.2649 14.9298 14.4442 14.7696 14.5045C13.8439 14.8536 12.3372 15.4852 11.981 15.7953C11.8548 15.9036 11.6658 15.8946 11.5511 15.7742C11.4954 15.7159 10.1699 14.3552 8.03795 15.3584C7.94314 15.4013 7.83295 15.3962 7.74454 15.343C7.68496 15.3065 6.2301 14.4622 4.70093 15.737C4.65096 15.7787 4.58946 15.8036 4.5254 15.8081L4.05518 15.8434C3.92834 15.8485 3.8252 15.7927 3.76498 15.6922C3.70476 15.591 3.70732 15.4641 3.77203 15.3648C3.7842 15.3462 4.99434 13.4666 5.47673 11.8017C5.68942 11.0675 6.05073 10.3948 6.5517 9.8029L6.62857 9.7145C6.7221 9.61008 6.87585 9.57997 7.00014 9.64467C7.43768 9.86633 7.83295 9.54922 7.8496 9.53512C7.922 9.47619 8.01681 9.45184 8.11098 9.47106C8.20323 9.49028 8.28203 9.54922 8.32431 9.63314C8.45051 9.8817 8.59209 10.0316 8.72278 10.0553C8.85282 10.079 8.97262 9.97908 8.9739 9.97779C9.05782 9.90156 9.17634 9.87658 9.2814 9.91245C9.45373 9.96947 9.51395 9.94064 9.52035 9.93679C9.55815 9.79201 9.70165 9.70937 9.84707 9.71514C10.0175 9.72731 10.0905 9.69656 10.102 9.68439C10.0976 9.58829 10.1341 9.51719 10.2065 9.45504C10.2712 9.40059 10.3493 9.39162 10.432 9.40251C10.4435 9.31154 10.4364 9.10911 10.3391 8.75356C10.2744 8.5082 10.104 8.3064 9.8932 8.2244C8.5466 7.68436 6.69071 8.62608 6.67214 8.63569C6.63626 8.65426 6.59718 8.66579 6.55618 8.669C5.92773 8.72281 5.65226 9.20712 5.64073 9.22762C5.62535 9.25517 5.60421 9.28272 5.58179 9.30386L4.11156 10.7049C4.0129 10.7984 3.91489 10.8836 3.80918 10.9676C3.30565 11.3667 0.78351 13.4903 0.633604 16.0644C0.612463 16.4315 0.694463 16.7172 0.876401 16.9132C1.1602 17.2194 1.60992 17.2342 1.61376 17.2342C1.74253 17.2361 1.85656 17.3168 1.90012 17.4372C2.40749 18.8146 4.25249 18.903 4.27107 18.9036C4.32296 18.9062 4.37421 18.9209 4.41842 18.9478C7.14364 20.593 8.67665 19.1977 8.99953 18.8453C9.05014 18.7813 9.08473 18.7454 9.09049 18.739C9.20453 18.6224 9.39031 18.6128 9.51459 18.7198C9.63887 18.8261 9.66001 19.0106 9.56135 19.1413C9.55943 19.1445 9.53317 19.1785 9.4832 19.2329C9.34482 19.4072 8.988 19.9376 9.01874 20.7403C9.05718 21.7454 9.68243 22.8005 10.8753 23.8755C10.9406 23.9351 10.9778 24.019 10.9778 24.1068C10.9778 24.1241 10.9906 25.8557 12.1572 27.2753C12.4653 27.6501 12.6716 28.1203 12.7536 28.6354C12.8695 29.3682 12.8298 30.0294 12.6351 30.6014L12.5089 31.5842L21.2175 31.4272L21.0651 30.4855C20.8203 29.7705 20.8645 29.0204 20.9446 28.5143C21.0266 27.9992 21.2323 27.529 21.5404 27.1536C22.7063 25.734 22.7204 24.003 22.7204 23.9857C22.7204 23.8973 22.7582 23.8134 22.8229 23.7551C24.0158 22.6795 24.641 21.6244 24.6795 20.6186C24.7109 19.8159 24.3534 19.2854 24.2144 19.1112C24.165 19.0567 24.1388 19.0228 24.1369 19.0196C24.0388 18.8889 24.0593 18.7044 24.1836 18.598C24.3079 18.4904 24.493 18.5013 24.6077 18.6173C24.6141 18.6243 24.6519 18.6634 24.7064 18.7345C25.0491 19.1093 26.5578 20.4693 29.2792 18.8261C29.3234 18.7992 29.3746 18.7838 29.4265 18.7819C29.4444 18.7813 31.2933 18.6865 31.7974 17.3162C31.841 17.1957 31.955 17.115 32.0832 17.1131C32.0864 17.1131 32.5419 17.0971 32.825 16.7883C33.0044 16.5922 33.0851 16.3078 33.064 15.9427C32.9141 13.3693 30.3919 11.2456 29.8884 10.8465C29.782 10.7619 29.684 10.6761 29.586 10.5825L28.1132 9.18406C28.0895 9.161 28.069 9.13409 28.053 9.10462C28.0427 9.08669 27.7673 8.60237 27.1388 8.54856C27.0991 8.54536 27.0594 8.53447 27.0229 8.51525C27.0049 8.50564 25.1433 7.56776 23.805 8.10204C23.591 8.18533 23.42 8.38712 23.3572 8.62992C23.2592 8.98931 23.2528 9.19239 23.2637 9.28272C23.3655 9.28528 23.4238 9.30578 23.4821 9.35575C23.5545 9.41853 23.6051 9.5095 23.6007 9.60559C23.6058 9.58061 23.6545 9.59662 23.7672 9.59598C23.7916 9.59598 23.8191 9.59534 23.8492 9.59278C23.9959 9.58317 24.1336 9.67926 24.1721 9.8234C24.1772 9.82917 24.2656 9.8407 24.4155 9.78945C24.5206 9.75358 24.6404 9.77856 24.723 9.85479C24.723 9.85479 24.8479 9.9605 24.9767 9.93103C25.1068 9.9054 25.2477 9.7555 25.3726 9.5095C25.4155 9.42494 25.4943 9.36472 25.5879 9.34614C25.6788 9.32564 25.7769 9.3519 25.8492 9.41276C25.864 9.42494 26.2592 9.74076 26.6962 9.52103C26.8211 9.45825 26.9723 9.48515 27.0652 9.58829L27.1439 9.67862C27.6456 10.2712 28.0082 10.9445 28.2202 11.678C28.7026 13.3462 29.9134 15.2226 29.9249 15.2412C29.9896 15.3398 29.9915 15.4667 29.9319 15.5685C29.8717 15.6697 29.7583 15.7287 29.6417 15.7197L29.1715 15.6838C29.1068 15.6787 29.046 15.6537 28.996 15.6127C27.454 14.3276 25.9665 15.2091 25.9517 15.2194C25.8627 15.2738 25.7525 15.2796 25.6583 15.2348C23.5289 14.2322 22.2015 15.5929 22.1452 15.6505C22.0298 15.7722 21.8415 15.7799 21.7153 15.6717C21.3585 15.3616 19.8543 14.7178 18.9292 14.361C18.7697 14.2988 18.6903 14.1194 18.7518 13.9593C18.8139 13.7998 18.9933 13.7229 19.1534 13.7818C19.3732 13.867 21.1368 14.5538 21.8998 15.0419C22.4091 14.6345 23.8236 13.7588 25.7833 14.6095C26.2221 14.4058 27.5373 13.9337 28.9435 14.8087C28.529 14.0791 27.9402 12.9381 27.6251 11.8503C27.4476 11.2366 27.1516 10.6703 26.7442 10.1674C26.3464 10.2853 25.9921 10.1879 25.7544 10.0745C25.5635 10.3385 25.3393 10.4954 25.0843 10.5415C24.8166 10.589 24.5949 10.5018 24.4559 10.4205C24.2355 10.4672 24.0427 10.4461 23.8819 10.359C23.8037 10.3173 23.7442 10.2648 23.6993 10.2123C23.4706 10.2001 23.2899 10.1303 23.1605 10.0041C23.1247 9.96883 23.0946 9.93103 23.0702 9.89195C22.9459 9.86184 22.8627 9.79458 22.8159 9.74461C22.6013 9.51719 22.5833 9.11103 22.7589 8.4672C22.8729 8.03222 23.1791 7.67859 23.5776 7.52292C25.0555 6.93098 26.9069 7.76508 27.2535 7.9342C28.0543 8.02837 28.4636 8.58828 28.5725 8.76061L30.0152 10.1309C30.0998 10.2123 30.1831 10.2853 30.274 10.357C31.0338 10.9586 33.5227 13.138 33.6834 15.9036C33.7155 16.4468 33.5784 16.8863 33.2766 17.2117C32.9634 17.5481 32.5515 17.6666 32.3048 17.7082C31.6514 19.1368 29.9371 19.361 29.5335 19.3943C27.577 20.5513 26.1305 20.3079 25.2291 19.8626C25.2791 20.0888 25.3079 20.3425 25.2983 20.6218C25.2599 21.7775 24.5994 22.9556 23.3348 24.1234C23.3098 24.602 23.14 26.1792 22.0177 27.5457C21.78 27.8352 21.6205 28.2029 21.5558 28.6097C21.4853 29.0511 21.4456 29.7033 21.657 30.3029C21.664 30.3234 21.6692 30.3445 21.6724 30.367L21.8031 31.3824C21.8242 31.5496 21.7729 31.718 21.6615 31.8449C21.5507 31.9717 21.3899 32.0448 21.2207 32.0454L12.4813 32.1697Z" fill="#13519C"/>
<path d="M14.6562 12.8081L14.6614 14.2149C15.2572 15.1809 16.0009 15.7069 16.8235 15.7037C17.6864 15.7005 18.4596 15.1214 19.0432 14.0752L19.0381 12.7286" fill="#2983D3" fill-opacity="0.4"/>
<path d="M14.6614 14.2149C14.6966 14.2725 14.7344 14.3231 14.7709 14.3769C15.0925 14.5678 15.4333 14.6716 15.7908 14.6703C16.6537 14.6671 17.427 14.0874 18.0106 13.0419L18.0093 12.7472L14.6562 12.8081L14.6614 14.2149Z" fill="#13519C" fill-opacity="0.26"/>
<path d="M16.439 12.776L14.6567 12.8087L14.6599 13.63C14.6926 13.6319 14.7246 13.6376 14.758 13.6376C15.3768 13.6351 15.9489 13.3314 16.439 12.776Z" fill="#F3F4F2"/>
<path d="M16.8163 16.0136C15.8938 16.0136 15.0578 15.448 14.3979 14.3775C14.3678 14.3294 14.3518 14.2731 14.3518 14.2161L14.3467 12.8092C14.346 12.6376 14.4844 12.4985 14.6561 12.4979H14.6574C14.8284 12.4979 14.9668 12.6363 14.9674 12.8067L14.9719 14.1251C15.3544 14.7209 15.9726 15.3929 16.8169 15.3929C16.8195 15.3929 16.8214 15.3929 16.8233 15.3929C17.7266 15.3897 18.3557 14.6459 18.7337 13.9938L18.7286 12.7298C18.7279 12.5581 18.8663 12.4191 19.0373 12.4185H19.0386C19.2097 12.4185 19.348 12.5568 19.3487 12.7272L19.3538 14.0738C19.3538 14.127 19.3404 14.1795 19.3141 14.2263C18.6728 15.3756 17.7888 16.0098 16.8246 16.0136C16.8221 16.0136 16.8195 16.0136 16.8163 16.0136Z" fill="#13519C"/>
<path d="M19.7639 9.81113C19.6607 12.5748 18.4775 14.0828 16.8247 14.0886C15.2699 14.0988 14.0975 12.6734 13.8496 10.2038C14.2058 8.62854 14.5985 7.66248 16.086 7.28003C17.5787 6.89245 18.0905 5.98853 18.0905 5.98853C18.0905 5.98853 18.2148 6.40685 18.974 6.99559C20.0425 7.82776 19.7639 9.81113 19.7639 9.81113Z" fill="#13519C"/>
<path d="M13.8477 10.2039C12.5434 9.58249 11.5857 3.7733 16.3007 3.75601C17.5858 3.75152 18.1201 4.33641 18.1201 4.33641C19.1118 3.43377 22.616 5.55424 19.7652 9.80991C19.7652 9.80991 20.0413 7.82782 18.9734 6.99885C18.2142 6.41012 18.09 5.98794 18.09 5.98794C18.09 5.98794 17.5807 6.89251 16.0854 7.2788C14.5998 7.66126 14.2078 8.62732 13.8477 10.2039Z" fill="#2983D3" fill-opacity="0.4"/>
<path d="M13.8477 10.5139C13.8253 10.5139 13.8022 10.5113 13.7785 10.5062C13.6113 10.4671 13.5069 10.3018 13.5453 10.134C13.8925 8.61572 14.2942 7.41967 16.0079 6.97764C17.341 6.63363 17.8016 5.86552 17.8208 5.83285C17.883 5.72714 17.9996 5.67077 18.1264 5.68038C18.2488 5.69511 18.3526 5.78096 18.3872 5.90011C18.3872 5.90011 18.5185 6.2531 19.1636 6.75342C19.2988 6.85849 19.3238 7.05388 19.2187 7.18905C19.113 7.32486 18.9163 7.34792 18.7831 7.24414C18.4307 6.9706 18.2014 6.72524 18.0521 6.53113C17.7318 6.86425 17.1386 7.32678 16.1623 7.57919C14.8926 7.90655 14.5159 8.6753 14.1501 10.2737C14.1174 10.4165 13.9899 10.5139 13.8477 10.5139Z" fill="black"/>
<path d="M19.4871 4.33577C18.9656 4.06799 18.4236 4.05902 18.1194 4.33641C18.1194 4.33641 17.5851 3.75152 16.3 3.75601C12.9296 3.76818 12.4581 6.7394 12.9399 8.66063C13.2781 7.38515 13.7343 6.58501 15.0514 6.24548C16.5466 5.85982 17.0559 4.95462 17.0559 4.95462C17.0559 4.95462 17.1808 5.37615 17.9393 5.96488C17.9765 5.99371 18.0079 6.02638 18.0418 6.05777C18.07 6.01677 18.0892 5.9873 18.0892 5.9873C18.0892 5.9873 18.2135 6.40884 18.9727 6.99821C19.1604 7.14363 19.3045 7.32621 19.4179 7.52673C20.0034 6.16348 19.8913 5.08594 19.4871 4.33577Z" fill="#2676BD" fill-opacity="0.6"/>
<path d="M18.1194 4.33641C18.1194 4.33641 17.5852 3.75152 16.3001 3.75601C14.562 3.76241 13.5966 4.55679 13.1328 5.58755C13.3769 5.42996 13.6645 5.30376 14.0182 5.21279C15.5134 4.82713 16.0227 3.92257 16.0227 3.92257C16.0227 3.92257 16.147 4.3441 16.9061 4.93284C17.3853 5.3044 17.5928 5.90723 17.6768 6.46009C17.9657 6.19935 18.088 5.98794 18.088 5.98794C18.088 5.98794 18.1457 6.1718 18.3968 6.46265C18.7806 5.55424 18.8568 4.77204 18.7408 4.13141C18.4955 4.12693 18.2764 4.19355 18.1194 4.33641Z" fill="#2983D3" fill-opacity="0.6"/>
<path d="M13.8489 10.5139C13.8035 10.5139 13.758 10.5036 13.7157 10.4838C12.7874 10.043 12.2186 7.90782 12.5882 6.25244C12.8214 5.20822 13.6145 3.45611 16.3013 3.44714C16.3083 3.44714 16.3147 3.44714 16.3211 3.44714C17.266 3.44714 17.8522 3.74888 18.1379 3.94939C18.6831 3.67392 19.4909 3.84369 20.1431 4.40424C21.2514 5.35877 21.8017 7.32613 20.0207 9.98408C19.9406 10.1045 19.7863 10.1526 19.653 10.1013C19.5178 10.0501 19.4358 9.91169 19.4557 9.76819C19.4583 9.75089 19.6953 7.95074 18.7824 7.24157C18.4307 6.96866 18.2014 6.72458 18.0521 6.53111C17.7324 6.86424 17.1386 7.32741 16.1629 7.5811C14.8887 7.90846 14.5126 8.67592 14.1507 10.273C14.1302 10.364 14.068 10.4421 13.9835 10.4831C13.9418 10.5036 13.8951 10.5139 13.8489 10.5139ZM16.3211 4.06791C16.3153 4.06791 16.3096 4.06791 16.3038 4.06791C14.1603 4.07496 13.43 5.33314 13.1942 6.38761C12.9136 7.64132 13.2416 9.00905 13.6689 9.62469C13.9988 8.35241 14.4864 7.37033 16.0079 6.98019C17.3384 6.63425 17.8016 5.86678 17.8202 5.83411C17.883 5.72841 17.9983 5.67332 18.1258 5.68228C18.2481 5.69766 18.3513 5.78286 18.3865 5.90138C18.3865 5.90138 18.5178 6.2518 19.1623 6.75149C19.7696 7.22363 19.9977 7.99302 20.0733 8.6471C20.9246 6.8431 20.5089 5.54007 19.7376 4.8751C19.1982 4.41128 18.5755 4.34082 18.3288 4.56567C18.2026 4.68035 18.0072 4.67138 17.8913 4.54646C17.8759 4.52852 17.4172 4.06791 16.3211 4.06791Z" fill="#13519C"/>
<path d="M15.7915 13.0553C17.4443 13.0502 18.6275 11.5415 18.7307 8.77786C18.7307 8.77786 18.9869 6.93414 18.0439 6.05713C17.8972 6.26854 17.3412 6.954 16.0855 7.28008C14.598 7.66189 14.2053 8.62796 13.8491 10.2039C13.9542 11.252 14.2277 12.1104 14.6249 12.7523C14.9792 12.9522 15.3706 13.0579 15.7915 13.0553Z" fill="#2983D3" fill-opacity="0.4"/>
<path d="M17.6972 7.74518C17.6972 7.74518 17.7811 7.14107 17.678 6.46008C17.366 6.74068 16.8599 7.07893 16.086 7.28008C14.5985 7.6619 14.2058 8.62796 13.8496 10.2039C13.9169 10.8721 14.0533 11.4608 14.2449 11.9682C14.4108 12.0034 14.5818 12.0233 14.7587 12.022C16.4108 12.0169 17.5941 10.5088 17.6972 7.74518Z" fill="#13519C" fill-opacity="0.26"/>
<path d="M16.8055 14.3987C15.0489 14.3987 13.7984 12.8061 13.5396 10.2353C13.5364 10.2013 13.5383 10.1686 13.546 10.1353C13.8893 8.61769 14.2891 7.42228 16.0085 6.98025C17.3391 6.63431 17.8023 5.86684 17.8209 5.83417C17.8836 5.72847 17.999 5.67337 18.1264 5.68234C18.2488 5.69772 18.3519 5.78292 18.3872 5.90144C18.3872 5.90144 18.5185 6.25186 19.163 6.75155C20.318 7.6497 20.1008 9.62027 20.0727 9.83808C19.9631 12.6459 18.7203 14.3929 16.8247 14.3987C16.8189 14.3987 16.8119 14.3987 16.8055 14.3987ZM14.1629 10.2225C14.3967 12.4262 15.423 13.8055 16.8221 13.7779C18.3769 13.7728 19.3603 12.2859 19.4525 9.79964C19.4532 9.78939 19.4538 9.77914 19.4557 9.76825C19.4583 9.75095 19.6953 7.9508 18.7824 7.24162C18.4307 6.96872 18.2014 6.72464 18.0521 6.53117C17.7325 6.8643 17.1386 7.32747 16.1629 7.58116C14.9028 7.90467 14.521 8.65997 14.1629 10.2225Z" fill="#13519C"/>
<path d="M34.5119 37.6137C34.3844 37.8456 34.1044 37.9455 33.8584 37.8475L24.5924 34.6021C23.4502 34.0812 22.9909 32.7007 23.5956 31.6033C24.1997 30.5059 25.6123 30.1555 26.6629 30.8422L34.3601 36.9365C34.574 37.0915 34.6394 37.3817 34.5119 37.6137Z" fill="#13519C"/>
<path d="M37.4131 28.8954C36.8577 29.643 35.7853 29.7871 35.7853 29.7871C35.7853 29.7871 35.6129 28.7186 36.1684 27.971C36.7238 27.2234 37.7962 27.0792 37.7962 27.0792C37.7962 27.0792 37.9685 28.1478 37.4131 28.8954Z" fill="#104A90"/>
<path d="M37.4131 28.8954C36.8577 29.643 35.7853 29.7871 35.7853 29.7871C35.7853 29.7871 35.6129 28.7186 36.1684 27.971C36.7238 27.2234 37.7962 27.0792 37.7962 27.0792C37.7962 27.0792 37.9685 28.1478 37.4131 28.8954Z" fill="#13519C"/>
<path d="M34.4741 37.6648C34.8527 37.7738 35.2621 37.7635 35.6195 37.5925C35.6246 37.5873 35.6298 37.5873 35.6349 37.5822C35.8213 37.4887 36.034 37.4887 36.2204 37.5822C36.2256 37.5873 36.2307 37.5873 36.2358 37.5925C36.7336 37.8308 37.3191 37.7584 37.8066 37.4887C39.1282 36.7526 39.683 35.2286 39.9111 34.2279C40.0616 33.6007 40.0872 32.9422 39.9367 32.3099C39.9111 32.2163 39.8899 32.1286 39.8592 32.0402C39.4806 30.8371 38.2051 30.1638 36.977 30.4693C36.5311 30.5834 36.1576 30.6096 36.0026 30.6148C35.9507 30.6199 35.9251 30.6199 35.9251 30.6199C35.9251 30.6199 35.4639 30.6199 34.8726 30.4693C33.649 30.1638 32.3684 30.8377 31.9904 32.0402C31.9641 32.1279 31.9385 32.2163 31.9129 32.3099C31.7623 32.9422 31.7937 33.6007 31.9391 34.2279C32.0115 34.5392 32.1153 34.9018 32.2607 35.2753C32.2607 35.2753 32.2607 35.2753 32.2607 35.2804" fill="#13519C"/>
<path d="M26.5156 23.0497V21.6442H32.009V23.3335L33.6733 24.7147" fill="#DCDCDB"/>
<path d="M25.1304 30.5264V24.6057L26.5141 23.0503L26.8255 23.3354L28.3444 24.7146V32.1747L25.1304 30.5264Z" fill="#DCDCDB"/>
<path d="M36.0026 30.9229C35.8457 30.9229 35.7105 30.8038 35.6951 30.6436C35.5657 29.3688 34.3889 28.4943 34.3767 28.4853C34.2383 28.3841 34.2076 28.19 34.3094 28.0516C34.41 27.9133 34.6048 27.8832 34.7419 27.9831C34.8002 28.0254 36.1544 29.0254 36.312 30.5808C36.3293 30.7512 36.2057 30.9037 36.0346 30.9204C36.0238 30.9223 36.0135 30.9229 36.0026 30.9229Z" fill="#13519C"/>
<path d="M25.1304 30.167L27.6077 31.438V24.0458L26.8255 23.3354L26.5141 23.0503L25.1304 24.6057V30.167Z" fill="#E9E9E9"/>
<path d="M25.1304 29.8082L26.8716 30.7013V23.377L26.8255 23.3354L26.5141 23.0503L25.1304 24.6057V29.8082Z" fill="#F3F4F2"/>
<path d="M31.2723 22.5968V21.6442H26.5156V22.4847L32.7265 23.9293L32.009 23.3335V23.2079L31.2723 22.5968Z" fill="#E9E9E9"/>
<path d="M30.5355 21.8607V21.6442H26.5156V21.9196L32.009 23.197V23.0824L30.5355 21.8607Z" fill="#F3F4F2"/>
<path d="M33.6732 25.0247C33.6034 25.0247 33.5329 25.0017 33.4746 24.9536L31.8097 23.5724C31.7392 23.5128 31.6976 23.4264 31.6976 23.3335V21.9548H26.825V23.0503C26.825 23.222 26.6859 23.3604 26.5149 23.3604C26.3439 23.3604 26.2048 23.2214 26.2048 23.0503V21.6448C26.2048 21.4737 26.3439 21.3347 26.5149 21.3347H32.0083C32.1799 21.3347 32.3183 21.4737 32.3183 21.6448V23.188L33.8712 24.4763C34.0032 24.5859 34.0211 24.7813 33.9116 24.9139C33.8513 24.9869 33.7623 25.0247 33.6732 25.0247Z" fill="#13519C"/>
<path d="M32.0088 23.6436H26.8274C26.6557 23.6436 26.5173 23.5045 26.5173 23.3335C26.5173 23.1618 26.6563 23.0234 26.8274 23.0234H32.0088C32.1805 23.0234 32.3188 23.1625 32.3188 23.3335C32.3188 23.5045 32.1798 23.6436 32.0088 23.6436Z" fill="#13519C"/>
<path d="M25.1304 30.5264V24.6057L26.5141 23.0503L26.8255 23.3354L28.3444 24.7146V32.1747L33.6737 30.4739V24.7146H28.3444" fill="#DCDCDB"/>
<path d="M32.9371 29.7377V24.7146H28.3445V31.2029L32.9371 29.7377Z" fill="#E9E9E9"/>
<path d="M25.1304 28.4578L27.5827 24.0234L26.8255 23.3354L26.5141 23.0503L25.1304 24.6057V28.4578Z" fill="#E9E9E9"/>
<path d="M27.6077 26.0466L28.3444 24.7147L27.6077 24.0459V26.0466Z" fill="#E9E9E9"/>
<path d="M32.201 29.001V24.7146H28.3445V30.2317L32.201 29.001Z" fill="#F3F4F2"/>
<path d="M26.8716 23.3771V27.3778L28.3444 24.7147L26.8716 23.3771Z" fill="#F3F4F2"/>
<path d="M25.1304 26.3899L26.8216 23.3315L26.5141 23.0503L25.1304 24.6057V26.3899Z" fill="#F3F4F2"/>
<path d="M28.3444 32.4848C28.2797 32.4848 28.215 32.4643 28.1612 32.4246C28.0817 32.3663 28.0343 32.2734 28.0343 32.1741V24.8518L26.5372 23.4911L25.4404 24.7237V30.5258C25.4404 30.6975 25.3014 30.8359 25.1304 30.8359C24.9593 30.8359 24.8203 30.6969 24.8203 30.5258V24.6058C24.8203 24.5296 24.8485 24.4565 24.8991 24.3995L26.2835 22.8441C26.3386 22.7819 26.4161 22.7448 26.4994 22.7409C26.584 22.7268 26.6634 22.7659 26.7243 22.8216L28.4648 24.4046H33.6744C33.8461 24.4046 33.9845 24.5436 33.9845 24.7147V30.4739C33.9845 30.6091 33.8967 30.7282 33.7686 30.7699L28.4392 32.4701C28.4078 32.4797 28.3764 32.4848 28.3444 32.4848ZM28.6545 25.0248V31.7494L33.3637 30.2471V25.0248H28.6545Z" fill="#13519C"/>
<path d="M37.0711 36.752C38.3934 36.016 38.9481 34.4919 39.1756 33.4913C39.3261 32.8641 39.3517 32.2055 39.2018 31.5732C39.1756 31.4797 39.1551 31.3919 39.1243 31.3035C39.0641 31.1113 38.9783 30.9345 38.8764 30.7718C38.3319 30.4291 37.6483 30.3022 36.9782 30.4694C36.5324 30.5835 36.1589 30.6097 36.0038 30.6149C35.9519 30.62 35.9263 30.62 35.9263 30.62C35.9263 30.62 35.4651 30.62 34.8738 30.4694C33.6502 30.1638 32.3696 30.8378 31.9916 32.0402C31.9653 32.128 31.9397 32.2164 31.9141 32.3099C31.7635 32.9422 31.7949 33.6008 31.9404 34.228C32.0127 34.5393 32.1165 34.9019 32.2619 35.2754C32.2619 35.2754 32.2619 35.2754 32.2619 35.2805L33.8039 36.9423C34.164 37.032 34.5471 37.0179 34.8847 36.8565C34.8898 36.8513 34.8949 36.8513 34.9 36.8462C35.0865 36.7527 35.2991 36.7527 35.4862 36.8462C35.4913 36.8513 35.4965 36.8513 35.5016 36.8565C35.9981 37.0941 36.5842 37.0217 37.0711 36.752Z" fill="#13519C"/>
<path d="M36.9782 30.4687C36.5324 30.5827 36.1589 30.609 36.0038 30.6141C35.9519 30.6192 35.9263 30.6192 35.9263 30.6192C35.9263 30.6192 35.4651 30.6192 34.8738 30.4687C33.6502 30.1631 32.3696 30.8371 31.9916 32.0395C31.9653 32.1273 31.9397 32.2157 31.9141 32.3092C31.7635 32.9415 31.7949 33.6001 31.9404 34.2272C32.0127 34.5386 32.1165 34.9012 32.2619 35.2747C32.2619 35.2747 32.2619 35.2747 32.2619 35.2798L33.1326 36.2183C33.4734 36.2907 33.8308 36.2708 34.1479 36.119C34.1531 36.1139 34.1582 36.1139 34.1633 36.1088C34.3497 36.0152 34.5624 36.0152 34.7489 36.1088C34.754 36.1139 34.7591 36.1139 34.7642 36.119C35.262 36.3573 35.8475 36.2849 36.335 36.0152C37.6573 35.2791 38.2114 33.7551 38.4395 32.7544C38.59 32.1273 38.6157 31.4687 38.4651 30.8364C38.4395 30.7429 38.4184 30.6551 38.3876 30.5667C38.3838 30.5545 38.3786 30.543 38.3741 30.5308C37.9385 30.3809 37.4555 30.3502 36.9782 30.4687Z" fill="#13519C"/>
<path d="M34.966 38.046C34.7758 38.046 34.581 38.0185 34.3888 37.9634C34.2242 37.916 34.1294 37.7437 34.1762 37.579C34.2242 37.4144 34.394 37.3208 34.5605 37.3663C34.8776 37.4586 35.1992 37.4432 35.467 37.3215C35.4766 37.3151 35.4869 37.3087 35.4978 37.3042C35.7713 37.1677 36.0859 37.1677 36.3607 37.3042C36.3722 37.3099 36.3825 37.3164 36.3934 37.3228C36.763 37.49 37.2339 37.4515 37.6586 37.2171C38.8463 36.5553 39.3767 35.1888 39.6112 34.1594C39.7611 33.5335 39.7694 32.937 39.6375 32.3823L39.6215 32.3214C39.6061 32.2605 39.5907 32.2029 39.5702 32.1452C39.2409 31.0991 38.1359 30.5039 37.0545 30.7704C36.567 30.8947 36.1653 30.9197 36.0154 30.9248C35.9609 30.9306 35.927 30.93 35.927 30.93C35.9065 30.93 35.4202 30.928 34.7982 30.7704C33.7187 30.5001 32.6143 31.0984 32.2882 32.1337L32.2133 32.3938C32.0871 32.9255 32.0954 33.5232 32.2427 34.1581C32.3247 34.5091 32.4285 34.8467 32.5509 35.1619C32.565 35.1978 32.572 35.2356 32.572 35.2747C32.572 35.4464 32.433 35.5873 32.262 35.5873C32.1172 35.5873 31.9961 35.4912 31.9615 35.3586C31.8327 35.0236 31.7245 34.668 31.638 34.299C31.4689 33.5687 31.4605 32.8755 31.6117 32.2381L31.695 31.9511C32.1204 30.5994 33.5503 29.8204 34.9494 30.1689C35.4933 30.3066 35.9231 30.3098 35.927 30.3098C35.9334 30.3092 35.9878 30.3054 35.9942 30.3047C36.0955 30.3015 36.46 30.2823 36.9014 30.1689C38.3043 29.8217 39.7336 30.6013 40.157 31.9473C40.1801 32.0107 40.1999 32.085 40.2204 32.1625L40.2377 32.2279C40.3953 32.8884 40.3864 33.5822 40.2147 34.2997C39.9527 35.4496 39.3473 36.9858 37.959 37.759C37.3511 38.0947 36.6573 38.1376 36.1031 37.8718C36.0903 37.866 36.0775 37.8583 36.0654 37.8513C35.9763 37.8122 35.8802 37.8116 35.7899 37.8519C35.7777 37.8596 35.7662 37.866 35.7534 37.8718C35.5125 37.9877 35.2441 38.046 34.966 38.046Z" fill="#13519C"/>
<path d="M35.7847 30.0971C35.6355 30.0971 35.5041 29.9882 35.4785 29.8364C35.4708 29.7877 35.2921 28.6288 35.9193 27.7858C36.5452 26.9433 37.706 26.7787 37.7547 26.7716C37.9155 26.7473 38.0756 26.8639 38.1025 27.0298C38.1102 27.0785 38.2877 28.2368 37.6624 29.0798C37.0359 29.9222 35.8757 30.0875 35.827 30.0946C35.8129 30.0965 35.7988 30.0971 35.7847 30.0971ZM37.5119 27.4635C37.1922 27.559 36.7111 27.7608 36.4177 28.156C36.1243 28.5507 36.0705 29.0689 36.0711 29.4027C36.3908 29.3072 36.8706 29.1054 37.1646 28.7108C37.46 28.3124 37.5138 27.796 37.5119 27.4635Z" fill="#13519C"/>
<path d="M23.5955 31.6033C23.2099 32.3035 23.2586 33.1177 23.6404 33.7513C23.7096 33.793 23.7813 33.8314 23.8563 33.8654L33.1223 37.1108C33.3676 37.2088 33.6482 37.1082 33.7757 36.8769C33.8385 36.7629 33.8539 36.6341 33.8282 36.515L26.6629 30.8422C25.6122 30.1555 24.1997 30.5059 23.5955 31.6033Z" fill="#13519C"/>
<path d="M23.5955 31.6033C23.3091 32.1235 23.2643 32.7071 23.4148 33.2324L32.3849 36.374C32.6302 36.4721 32.9102 36.3715 33.0383 36.1402C33.0742 36.0755 33.0915 36.0063 33.0979 35.9365L26.6628 30.8422C25.6122 30.1555 24.1996 30.5059 23.5955 31.6033Z" fill="#13519C"/>
<path d="M34.0512 38.1953C33.9481 38.1953 33.8436 38.1761 33.7431 38.1357L24.4905 34.8942C23.8403 34.5995 23.3592 34.0639 23.1446 33.4131C22.93 32.7647 22.9953 32.0504 23.3246 31.4527C23.6539 30.855 24.2221 30.4175 24.8851 30.2522C25.5476 30.0863 26.2586 30.2054 26.8333 30.5815L34.5535 36.6924C34.884 36.9307 34.9878 37.3945 34.7841 37.7623C34.6329 38.0364 34.3478 38.1953 34.0512 38.1953ZM25.4918 30.7987C25.3406 30.7987 25.1862 30.8172 25.0344 30.8557C24.5315 30.9806 24.117 31.2996 23.8672 31.7526C23.6174 32.2061 23.5699 32.7269 23.7333 33.2189C23.8967 33.7129 24.2477 34.1037 24.7218 34.3195L33.9609 37.5547C34.0717 37.5963 34.1877 37.5579 34.2408 37.4637C34.2927 37.3696 34.2658 37.251 34.1781 37.1876L26.4707 31.085C26.1818 30.898 25.8429 30.7987 25.4918 30.7987Z" fill="#13519C"/>
<path d="M21.7691 32.9735C21.6621 32.9735 21.5583 32.9185 21.5007 32.8192C21.4148 32.6712 21.4648 32.4809 21.6134 32.3951L23.2381 31.4521L22.9088 30.1208C22.8678 29.9543 22.969 29.7858 23.1356 29.7454C23.3053 29.7051 23.4706 29.8063 23.511 29.9722L23.8966 31.5296C23.9299 31.6635 23.871 31.8031 23.7512 31.8723L21.9248 32.9319C21.8761 32.9595 21.8223 32.9735 21.7691 32.9735Z" fill="#13519C"/>
<path d="M23.5956 31.9133C23.545 31.9133 23.4931 31.9011 23.4464 31.8749L22.4931 31.3496C22.3432 31.2669 22.2881 31.0779 22.3714 30.9287C22.4534 30.7781 22.6443 30.7237 22.7923 30.8069L23.7455 31.3323C23.8954 31.4149 23.9505 31.6039 23.8673 31.7532C23.8109 31.8557 23.7045 31.9133 23.5956 31.9133Z" fill="#13519C"/>
<path d="M25.1287 35.0998C25.0781 35.0998 25.0268 35.087 24.9794 35.0613C24.8295 34.9781 24.7744 34.7897 24.857 34.6398L25.6943 33.119C25.7776 32.9691 25.9653 32.9152 26.1159 32.9966C26.2658 33.0799 26.3209 33.2682 26.2389 33.4181L25.4016 34.939C25.3433 35.0415 25.2376 35.0998 25.1287 35.0998Z" fill="#13519C"/>
<path d="M26.7942 35.6828C26.7436 35.6828 26.6923 35.67 26.6449 35.6444C26.495 35.5611 26.4399 35.3727 26.5226 35.2228L27.2189 33.9576C27.3022 33.8077 27.4899 33.7539 27.6405 33.8352C27.7904 33.9185 27.8455 34.1069 27.7628 34.2568L27.0665 35.522C27.0094 35.6245 26.9037 35.6828 26.7942 35.6828Z" fill="#13519C"/>
<path d="M28.4597 36.2664C28.4091 36.2664 28.3579 36.2536 28.3105 36.228C28.1605 36.1447 28.1055 35.9563 28.1881 35.8064L28.7435 34.7974C28.8268 34.6475 29.0145 34.5937 29.165 34.6751C29.315 34.7584 29.37 34.9467 29.2874 35.0966L28.732 36.1056C28.675 36.2087 28.5693 36.2664 28.4597 36.2664Z" fill="#13519C"/>
<path d="M26.8716 23.3769L32.0088 23.3334L33.5193 24.5864L28.3444 24.7146L26.8716 23.3769Z" fill="#DCDCDB"/>
<path d="M26.8716 23.3769L32.0088 23.3334L33.5193 24.5864L28.3444 24.7146L26.8716 23.3769Z" fill="#DCDCDB"/>
<path d="M27.6077 23.9778L32.636 23.8536L32.0088 23.3334L26.9453 23.3763L27.6077 23.9778Z" fill="#E9E9E9"/>
<path d="M28.3444 25.0247C28.2676 25.0247 28.1933 24.9958 28.1362 24.9439L26.6628 23.6063C26.568 23.5205 26.536 23.3853 26.5814 23.2661C26.6263 23.1463 26.741 23.0675 26.8684 23.0663L32.0063 23.0227H32.0088C32.0812 23.0227 32.1517 23.0477 32.2074 23.0938L33.7174 24.3469C33.8167 24.4295 33.8545 24.5653 33.8128 24.6877C33.7705 24.8094 33.6565 24.8927 33.5271 24.8959L28.3528 25.024C28.3496 25.0247 28.347 25.0247 28.3444 25.0247ZM27.6667 23.6806L28.4604 24.4013L32.6834 24.2969L31.8973 23.6448L27.6667 23.6806Z" fill="#13519C"/>
</svg>
