<svg width="16" height="16" viewBox="0 0 16 16" fill="none" xmlns="http://www.w3.org/2000/svg">
<g clip-path="url(#clip0_21_720)">
<path d="M6.48483 1.33325C4.31069 1.33325 3.22362 1.33325 2.46869 1.86515C2.25239 2.01754 2.06037 2.19827 1.89845 2.40185C1.33331 3.11237 1.33331 4.13549 1.33331 6.18174V7.87872C1.33331 9.85419 1.33331 10.8419 1.64594 11.6307C2.14852 12.899 3.21141 13.8993 4.55889 14.3723C5.39707 14.6666 6.44652 14.6666 8.54545 14.6666C9.74485 14.6666 10.3445 14.6666 10.8234 14.4985C11.5934 14.2282 12.2008 13.6565 12.488 12.9319C12.6666 12.4811 12.6666 11.9167 12.6666 10.7878V10.3333" stroke="black" stroke-linecap="round" stroke-linejoin="round"/>
<path d="M14.6667 4.66659C14.6667 6.50753 13.1743 7.99992 11.3333 7.99992C9.4924 7.99992 8 6.50753 8 4.66659C8 2.82564 9.4924 1.33325 11.3333 1.33325C13.1743 1.33325 14.6667 2.82564 14.6667 4.66659Z" stroke="black" stroke-linecap="round"/>
<path d="M1.33331 8C1.33331 9.22727 2.32823 10.2222 3.55553 10.2222C3.99939 10.2222 4.52267 10.1445 4.95423 10.2601C5.33766 10.3628 5.63715 10.6623 5.7399 11.0457C5.85553 11.4773 5.77776 12.0006 5.77776 12.4445C5.77776 13.6717 6.77271 14.6667 7.99998 14.6667" stroke="black" stroke-linecap="round" stroke-linejoin="round"/>
<path d="M10 5.27158L10.1324 4.97814C10.2994 5.15075 10.5042 5.23705 10.7468 5.23705C10.854 5.23705 10.9485 5.20944 11.0273 5.1473C11.1029 5.08861 11.1439 5.01266 11.1439 4.9229C11.1439 4.87457 11.1313 4.83314 11.1124 4.79862C11.0903 4.7641 11.0588 4.73303 11.0179 4.70886C10.9737 4.68815 10.9359 4.67089 10.8981 4.65708C10.8603 4.64327 10.8162 4.62946 10.7595 4.61565C10.6807 4.59494 10.6145 4.57768 10.5609 4.56041C10.5074 4.54315 10.4475 4.51553 10.3845 4.48101C10.3183 4.44649 10.2647 4.40852 10.2269 4.36709C10.1859 4.32566 10.1513 4.27388 10.1261 4.20829C10.0977 4.14614 10.0851 4.0702 10.0851 3.98734C10.0851 3.82163 10.1355 3.69045 10.2363 3.58688C10.3372 3.48331 10.4632 3.42117 10.6145 3.39356V3H10.895V3.39356C11.0777 3.41427 11.2447 3.49367 11.4023 3.62486L11.2668 3.9183C11.0966 3.78711 10.9233 3.72152 10.7532 3.72152C10.6712 3.72152 10.5956 3.74568 10.5326 3.79402C10.4695 3.84235 10.438 3.90449 10.438 3.97698C10.438 4.05984 10.4664 4.12198 10.5263 4.16341C10.583 4.20483 10.6712 4.23936 10.7878 4.26697C11.0053 4.32221 11.1786 4.39816 11.3078 4.49482C11.4338 4.59494 11.5 4.73648 11.5 4.9229C11.5 5.10587 11.4401 5.25086 11.3267 5.36133C11.2132 5.47181 11.0683 5.54085 10.895 5.56502V6H10.6145V5.57192C10.3655 5.55121 10.1607 5.45109 10 5.27158Z" fill="black"/>
</g>
<defs>
<clipPath id="clip0_21_720">
<rect width="16" height="16" fill="white"/>
</clipPath>
</defs>
</svg>
