<svg width="16" height="16" viewBox="0 0 16 16" fill="none" xmlns="http://www.w3.org/2000/svg">
<path d="M6.08957 1.6665C4.31205 1.707 3.27382 1.87621 2.56445 2.58312C1.9436 3.20182 1.73606 4.07154 1.66669 5.4665M9.91047 1.6665C11.688 1.707 12.7262 1.87621 13.4356 2.58312C14.0565 3.20182 14.264 4.07154 14.3333 5.4665M9.91047 14.3332C11.688 14.2926 12.7262 14.1234 13.4356 13.4166C14.0565 12.7978 14.264 11.9281 14.3333 10.5332M6.08957 14.3332C4.31205 14.2926 3.27382 14.1234 2.56445 13.4166C1.9436 12.7978 1.73606 11.9281 1.66669 10.5332" stroke="black" stroke-linecap="round" stroke-linejoin="round"/>
<path d="M5 11.3332C6.55447 9.70504 9.42885 9.62837 11 11.3332M9.66338 6.33317C9.66338 7.25364 8.91611 7.99984 7.99438 7.99984C7.07258 7.99984 6.32531 7.25364 6.32531 6.33317C6.32531 5.4127 7.07258 4.6665 7.99438 4.6665C8.91611 4.6665 9.66338 5.4127 9.66338 6.33317Z" stroke="black" stroke-linecap="round"/>
</svg>
