<svg width="16" height="16" viewBox="0 0 16 16" fill="none" xmlns="http://www.w3.org/2000/svg">
<g clip-path="url(#clip0_20_177)">
<path d="M10.0001 11.3334C9.46714 11.7483 8.76694 12 8.00014 12C7.23327 12 6.53314 11.7483 6.00012 11.3334" stroke="black" stroke-linecap="round"/>
<path d="M1.56773 8.80904C1.33238 7.27751 1.21471 6.51179 1.50425 5.83296C1.79378 5.15412 2.43615 4.68966 3.72089 3.76075L4.68079 3.06671C6.27899 1.91115 7.07808 1.33337 8.00015 1.33337C8.92215 1.33337 9.72128 1.91115 11.3195 3.06671L12.2793 3.76075C13.5641 4.68966 14.2065 5.15412 14.496 5.83296C14.7855 6.51179 14.6679 7.27751 14.4325 8.80904L14.2319 10.115C13.8982 12.286 13.7314 13.3715 12.9528 14.0191C12.1742 14.6667 11.0359 14.6667 8.75935 14.6667H7.24094C4.96436 14.6667 3.82607 14.6667 3.04747 14.0191C2.26886 13.3715 2.10205 12.286 1.76842 10.115L1.56773 8.80904Z" stroke="black" stroke-linejoin="round"/>
</g>
<defs>
<clipPath id="clip0_20_177">
<rect width="16" height="16" fill="white"/>
</clipPath>
</defs>
</svg>
