<svg width="16" height="16" viewBox="0 0 16 16" fill="none" xmlns="http://www.w3.org/2000/svg">
<g clip-path="url(#clip0_5_3627)">
<path d="M14.6668 7.7113C14.6668 11.2334 11.6816 14.0891 8.00016 14.0891C7.5673 14.0897 7.13563 14.0496 6.71043 13.9698C6.40438 13.9123 6.25135 13.8836 6.14452 13.8999C6.03768 13.9162 5.88628 13.9968 5.58349 14.1578C4.72692 14.6133 3.72813 14.7742 2.76757 14.5955C3.13266 14.1464 3.382 13.6076 3.49202 13.03C3.55868 12.6767 3.3935 12.3335 3.14609 12.0822C2.02238 10.9412 1.3335 9.40356 1.3335 7.7113C1.3335 4.18921 4.31868 1.3335 8.00016 1.3335" stroke="#373737" stroke-linecap="round" stroke-linejoin="round"/>
<path d="M12.0002 4.00016L12.6668 3.3335M14.6668 4.00016C14.6668 5.47292 13.4729 6.66683 12.0002 6.66683C10.5274 6.66683 9.3335 5.47292 9.3335 4.00016C9.3335 2.5274 10.5274 1.3335 12.0002 1.3335C13.4729 1.3335 14.6668 2.5274 14.6668 4.00016Z" stroke="#373737" stroke-linecap="round"/>
<path d="M7.99716 8H8.00316M5.3335 8H5.33948" stroke="#373737" stroke-width="1.33333" stroke-linecap="round" stroke-linejoin="round"/>
</g>
<defs>
<clipPath id="clip0_5_3627">
<rect width="16" height="16" fill="white"/>
</clipPath>
</defs>
</svg>
