<svg width="18" height="18" viewBox="0 0 18 18" fill="none" xmlns="http://www.w3.org/2000/svg">
<path d="M10.8502 3.37447L9.93447 2.59409C9.39611 2.1353 8.60378 2.1353 8.06541 2.59409L7.14958 3.37449C6.91887 3.57109 6.63201 3.68986 6.32986 3.71397L5.13147 3.80955C4.42638 3.86582 3.86557 4.42574 3.8093 5.13084L3.71336 6.33018C3.68925 6.63233 3.57126 6.91905 3.37466 7.14976L2.59393 8.06565C2.13513 8.60402 2.13535 9.39569 2.59414 9.93406L3.37417 10.85C3.57077 11.0807 3.6899 11.3674 3.71401 11.6695L3.80996 12.8689C3.86623 13.574 4.42542 14.1339 5.13052 14.1902L6.33023 14.2857C6.63238 14.3099 6.9191 14.4286 7.14981 14.6252L8.06533 15.4056C8.6037 15.8644 9.39611 15.8643 9.93447 15.4055L10.85 14.6251C11.0807 14.4285 11.3674 14.31 11.6696 14.2859L12.8693 14.1902C13.5744 14.1339 14.1336 13.5738 14.1898 12.8687L14.2858 11.6695C14.3099 11.3673 14.429 11.0803 14.6256 10.8496L15.4057 9.93402C15.8645 9.39565 15.8644 8.60373 15.4056 8.06536L14.6256 7.1499C14.429 6.91919 14.3097 6.63233 14.2856 6.33018L14.1902 5.13069C14.1339 4.4256 13.5739 3.86589 12.8688 3.80962L11.6695 3.71404C11.3674 3.68993 11.0809 3.57107 10.8502 3.37447Z" fill="#12AFF0"/>
<path d="M11.2499 7.49986L8.2499 10.4999L6.7499 8.99986M9.93447 2.59409L10.8502 3.37447C11.0809 3.57107 11.3674 3.68993 11.6695 3.71404L12.8688 3.80962C13.5739 3.86589 14.1339 4.4256 14.1902 5.13069L14.2856 6.33018C14.3097 6.63233 14.429 6.91919 14.6256 7.1499L15.4056 8.06536C15.8644 8.60373 15.8645 9.39565 15.4057 9.93402L14.6256 10.8496C14.429 11.0803 14.3099 11.3673 14.2858 11.6695L14.1898 12.8687C14.1336 13.5738 13.5744 14.1339 12.8693 14.1902L11.6696 14.2859C11.3674 14.31 11.0807 14.4285 10.85 14.6251L9.93447 15.4055C9.39611 15.8643 8.6037 15.8644 8.06533 15.4056L7.14981 14.6252C6.9191 14.4286 6.63238 14.3099 6.33023 14.2857L5.13052 14.1902C4.42542 14.1339 3.86623 13.574 3.80996 12.8689L3.71401 11.6695C3.6899 11.3674 3.57077 11.0807 3.37417 10.85L2.59414 9.93406C2.13535 9.39569 2.13513 8.60402 2.59393 8.06565L3.37466 7.14976C3.57126 6.91906 3.68925 6.63233 3.71336 6.33018L3.8093 5.13084C3.86557 4.42574 4.42638 3.86582 5.13147 3.80955L6.32986 3.71397C6.63201 3.68986 6.91887 3.57109 7.14958 3.37449L8.06541 2.59409C8.60378 2.1353 9.39611 2.1353 9.93447 2.59409Z" stroke="white" stroke-linecap="round" stroke-linejoin="round"/>
</svg>
