<svg width="20" height="23" viewBox="0 0 20 23" fill="none" xmlns="http://www.w3.org/2000/svg">
<path d="M10.75 10C10.75 9.58582 10.4142 9.25003 10 9.25003C9.58579 9.25003 9.25 9.58582 9.25 10V12.25H7C6.58579 12.25 6.25 12.5858 6.25 13C6.25 13.4142 6.58579 13.75 7 13.75H9.25V16C9.25 16.4142 9.58579 16.75 10 16.75C10.4142 16.75 10.75 16.4142 10.75 16V13.75H13C13.4142 13.75 13.75 13.4142 13.75 13C13.75 12.5858 13.4142 12.25 13 12.25H10.75V10Z" fill="#809FB8"/>
<path fill-rule="evenodd" clip-rule="evenodd" d="M9.83822 0.250016C8.13194 0.249748 7.09073 0.249584 6.22321 0.531458C4.47269 1.10024 3.10026 2.47267 2.53148 4.22319C2.5052 4.30408 2.48146 4.38585 2.46002 4.46892C2.03779 4.79879 1.66348 5.18626 1.34815 5.62027C0.762324 6.42659 0.500006 7.37097 0.373728 8.53651C0.249985 9.67865 0.249992 11.1182 0.25 12.9548V13.0453C0.249992 14.8818 0.249985 16.3214 0.373728 17.4636C0.500006 18.6291 0.762324 19.5735 1.34815 20.3798C1.70281 20.8679 2.13209 21.2972 2.62024 21.6519C3.42656 22.2377 4.37094 22.5 5.53648 22.6263C6.67859 22.75 8.11817 22.75 9.95465 22.75H10.0453C11.8818 22.75 13.3214 22.75 14.4635 22.6263C15.6291 22.5 16.5734 22.2377 17.3798 21.6519C17.8679 21.2972 18.2972 20.8679 18.6518 20.3798C19.2377 19.5735 19.5 18.6291 19.6263 17.4636C19.75 16.3214 19.75 14.8819 19.75 13.0454V12.9548C19.75 11.1183 19.75 9.67863 19.6263 8.53651C19.5 7.37097 19.2377 6.42659 18.6518 5.62027C18.3366 5.18631 17.9623 4.79887 17.5401 4.46903C17.5187 4.38592 17.4949 4.30411 17.4686 4.22319C16.8999 2.47267 15.5274 1.10024 13.7769 0.531458C12.9094 0.249584 11.8682 0.249748 10.1619 0.250016H9.83822ZM5.59818 3.36722C5.22439 3.40594 4.87305 3.45814 4.54152 3.52994C5.06367 2.79896 5.81122 2.24251 6.68673 1.95804C7.29844 1.75929 8.0804 1.75003 10.0001 1.75003C11.9197 1.75003 12.7017 1.75929 13.3134 1.95804C14.1889 2.24252 14.9365 2.79898 15.4586 3.52997C15.1271 3.45816 14.7757 3.40595 14.4019 3.36723C13.2703 3.25002 11.8487 3.25003 10.0428 3.25003H9.95718C8.15135 3.25003 6.72979 3.25002 5.59818 3.36722ZM3.55694 5.52272C4.0652 5.17163 4.71896 4.96631 5.75271 4.85924C6.79808 4.75097 8.14216 4.75003 10 4.75003C11.8579 4.75003 13.202 4.75097 14.2474 4.85925C15.2811 4.96633 15.9349 5.17166 16.4432 5.52279C16.4455 5.52438 16.4478 5.52598 16.4501 5.52758C16.4662 5.53877 16.4822 5.55015 16.4981 5.56171C16.8589 5.82385 17.1762 6.14114 17.4383 6.50195C17.8074 7.00995 18.0225 7.66017 18.135 8.69808C18.249 9.75003 18.25 11.1085 18.25 13C18.25 14.8916 18.249 16.25 18.135 17.302C18.0225 18.3399 17.8074 18.9901 17.4383 19.4981C17.1762 19.8589 16.8589 20.1762 16.4981 20.4384C15.9901 20.8074 15.3399 21.0226 14.302 21.135C13.25 21.249 11.8916 21.25 10 21.25C8.10843 21.25 6.74999 21.249 5.69804 21.135C4.66013 21.0226 4.00992 20.8074 3.50191 20.4384C3.14111 20.1762 2.82382 19.8589 2.56168 19.4981C2.19259 18.9901 1.97745 18.3399 1.865 17.302C1.75103 16.25 1.75 14.8916 1.75 13C1.75 11.1085 1.75103 9.75003 1.865 8.69808C1.97745 7.66017 2.19259 7.00995 2.56168 6.50195C2.82382 6.14114 3.14111 5.82385 3.50191 5.56171C3.52013 5.54847 3.53847 5.53548 3.55694 5.52272Z" fill="#809FB8"/>
</svg>
