<svg width="20" height="20" viewBox="0 0 20 20" fill="none" xmlns="http://www.w3.org/2000/svg">
<path d="M5.00016 9.16658V5.16659C5.00016 4.23316 5.00016 3.76611 5.18182 3.40959C5.34161 3.09598 5.59639 2.8412 5.90999 2.68141C6.26651 2.49976 6.73357 2.49976 7.66699 2.49976H11.3958C11.4979 2.49976 11.5872 2.49976 11.6668 2.50048M16.666 7.49976C16.6668 7.57943 16.6668 7.66889 16.6668 7.77116V14.8361C16.6668 15.7677 16.6668 16.2335 16.4854 16.5897C16.3256 16.9033 16.0701 17.1585 15.7565 17.3183C15.4003 17.4998 14.9343 17.4998 14.0027 17.4998L10.8335 17.4998M16.666 7.49976C16.6638 7.26185 16.6549 7.11122 16.6204 6.96753C16.5796 6.79747 16.512 6.63487 16.4206 6.48575C16.3176 6.31756 16.1742 6.17383 15.886 5.88557L13.2814 3.28101C12.9933 2.99294 12.849 2.84856 12.6808 2.74552C12.5317 2.65414 12.3693 2.58663 12.1992 2.54581C12.0554 2.51129 11.9049 2.50265 11.6668 2.50048M16.666 7.49976H16.667M16.666 7.49976H14.3309C13.3993 7.49976 12.9328 7.49976 12.5767 7.31828C12.2631 7.15849 12.0083 6.90302 11.8485 6.58942C11.6668 6.2329 11.6668 5.76651 11.6668 4.83309V2.50048M7.50016 11.6664L9.16683 13.3331M3.3335 17.4998V15.4164L9.5835 9.16642L11.6668 11.2498L5.41683 17.4998H3.3335Z" stroke="#99B2C6" stroke-width="1.5" stroke-linecap="round" stroke-linejoin="round"/>
</svg>
