<svg width="22" height="22" viewBox="0 0 22 22" fill="none" xmlns="http://www.w3.org/2000/svg">
<path d="M3.66675 6.41659C4.20743 6.97286 5.6465 9.16659 6.41675 9.16659C7.187 9.16659 8.62606 6.97286 9.16675 6.41659M6.41675 8.24992V1.83325" stroke="#003780" stroke-width="1.5" stroke-linecap="round" stroke-linejoin="round"/>
<path d="M3.66675 11.9166V13.3321C3.66675 16.3067 3.66675 17.794 4.47898 18.8014C4.64307 19.0049 4.82845 19.1902 5.03197 19.3543C6.03937 20.1666 7.52667 20.1666 10.5012 20.1666C11.148 20.1666 11.4713 20.1666 11.7675 20.0621C11.8291 20.0404 11.8894 20.0153 11.9484 19.9872C12.2317 19.8516 12.4603 19.623 12.9177 19.1657L17.2594 14.8239C17.7894 14.294 18.0543 14.029 18.1939 13.6921C18.3334 13.3552 18.3334 12.9805 18.3334 12.2311V9.16659C18.3334 5.70962 18.3334 3.98114 17.2594 2.90719C16.1856 1.83325 14.457 1.83325 11.0001 1.83325M11.9167 19.7083V19.2499C11.9167 16.6572 11.9167 15.3609 12.7222 14.5554C13.5277 13.7499 14.824 13.7499 17.4167 13.7499H17.8751" stroke="#003780" stroke-width="1.5" stroke-linecap="round" stroke-linejoin="round"/>
</svg>
