<svg width="20" height="20" viewBox="0 0 20 20" fill="none" xmlns="http://www.w3.org/2000/svg">
<path d="M7.34795 12.6509L12.6512 7.34757M11.3253 13.9773L9.11555 16.187C8.41225 16.8901 7.45849 17.285 6.46403 17.2849C5.46958 17.2848 4.51589 16.8897 3.8127 16.1865C3.10952 15.4834 2.71444 14.5297 2.71436 13.5352C2.71427 12.5408 3.10919 11.587 3.81225 10.8837L6.02196 8.67399M13.9773 11.3253L16.187 9.11555C16.8901 8.41225 17.285 7.45849 17.2849 6.46403C17.2848 5.46958 16.8897 4.51589 16.1865 3.81271C15.4834 3.10952 14.5297 2.71444 13.5352 2.71436C12.5408 2.71427 11.587 3.10919 10.8837 3.81225L8.67399 6.02196" stroke="#99B2C6" stroke-width="1.5" stroke-linecap="round" stroke-linejoin="round"/>
</svg>
