<svg width="26" height="26" viewBox="0 0 26 26" fill="none" xmlns="http://www.w3.org/2000/svg">
<path d="M23.5625 12.9998C23.569 15.5212 22.665 17.9602 21.0167 19.8682C20.7249 19.3924 20.3874 18.9461 20.0092 18.5357C18.9541 17.3835 17.634 16.5059 16.1633 15.979C17.0087 15.3201 17.6273 14.4136 17.9326 13.3862C18.238 12.3587 18.2148 11.2615 17.8665 10.2479C17.5181 9.23419 16.8619 8.3546 15.9894 7.7319C15.117 7.10921 14.0719 6.7745 13 6.7745C11.9281 6.7745 10.883 7.10921 10.0106 7.7319C9.13812 8.3546 8.48191 9.23419 8.13353 10.2479C7.78516 11.2615 7.76203 12.3587 8.06736 13.3862C8.37269 14.4136 8.99125 15.3201 9.83666 15.979C8.36595 16.5059 7.04588 17.3835 5.99083 18.5357C5.61256 18.9461 5.27513 19.3924 4.98333 19.8682C3.87428 18.5754 3.09431 17.0336 2.70995 15.3743C2.32558 13.7149 2.34821 11.9872 2.77592 10.3384C3.20362 8.68972 4.02371 7.16888 5.16625 5.90562C6.30879 4.64235 7.73989 3.67414 9.33751 3.08353C10.9351 2.49292 12.6519 2.29743 14.3414 2.51375C16.0309 2.73006 17.6431 3.35176 19.0404 4.32582C20.4377 5.29989 21.5787 6.59742 22.3661 8.10779C23.1535 9.61816 23.564 11.2965 23.5625 12.9998ZM13 17.0623C11.8876 17.0609 10.7879 17.298 9.775 17.7578C8.76209 18.2175 7.85957 18.8891 7.12833 19.7273C6.75809 20.1276 6.43795 20.5714 6.175 21.049C8.07861 22.6721 10.4984 23.5637 13 23.5637C15.5016 23.5637 17.9214 22.6721 19.825 21.049C19.562 20.5714 19.2419 20.1276 18.8717 19.7273C18.1404 18.8891 17.2379 18.2175 16.225 17.7578C15.2121 17.298 14.1124 17.0609 13 17.0623ZM16.5208 11.9165C16.5208 11.2202 16.3143 10.5394 15.9275 9.96044C15.5406 9.38145 14.9907 8.93017 14.3474 8.66369C13.704 8.3972 12.9961 8.32748 12.3131 8.46333C11.6301 8.59918 11.0028 8.93451 10.5104 9.42691C10.018 9.91931 9.68267 10.5467 9.54681 11.2296C9.41096 11.9126 9.48069 12.6205 9.74717 13.2639C10.0137 13.9072 10.4649 14.4571 11.0439 14.844C11.6229 15.2309 12.3036 15.4373 13 15.4373C13.9329 15.4345 14.8268 15.0626 15.4864 14.403C16.1461 13.7433 16.518 12.8494 16.5208 11.9165Z" fill="url(#paint0_linear_91_6342)"/>
<defs>
<linearGradient id="paint0_linear_91_6342" x1="5.54666" y1="20.4315" x2="20.4533" y2="5.52485" gradientUnits="userSpaceOnUse">
<stop stop-color="#13519C"/>
<stop offset="1" stop-color="#558BCB"/>
</linearGradient>
</defs>
</svg>
