<svg width="14" height="14" viewBox="0 0 14 14" fill="none" xmlns="http://www.w3.org/2000/svg">
<path fill-rule="evenodd" clip-rule="evenodd" d="M2.91667 1.16675H11.0833C11.7277 1.16675 12.25 1.68908 12.25 2.33341V11.1734C12.25 11.9815 11.4484 12.5448 10.6882 12.2712L9.77713 11.9432C9.49246 11.8407 9.17911 11.8528 8.9032 11.977L7.47876 12.618C7.17429 12.755 6.82571 12.755 6.52124 12.618L5.0968 11.977C4.82089 11.8528 4.50754 11.8407 4.22287 11.9432L3.31184 12.2712C2.55157 12.5448 1.75 11.9815 1.75 11.1734V2.33341C1.75 1.68908 2.27233 1.16675 2.91667 1.16675ZM4.66667 3.64591C4.42504 3.64591 4.22917 3.84179 4.22917 4.08341C4.22917 4.32504 4.42504 4.52091 4.66667 4.52091H7C7.24162 4.52091 7.4375 4.32504 7.4375 4.08341C7.4375 3.84179 7.24162 3.64591 7 3.64591H4.66667ZM4.66667 5.97925C4.42504 5.97925 4.22917 6.17512 4.22917 6.41675C4.22917 6.65837 4.42504 6.85425 4.66667 6.85425H9.33333C9.57496 6.85425 9.77083 6.65837 9.77083 6.41675C9.77083 6.17512 9.57496 5.97925 9.33333 5.97925H4.66667ZM4.66667 8.31258C4.42504 8.31258 4.22917 8.50846 4.22917 8.75008C4.22917 8.99171 4.42504 9.18758 4.66667 9.18758H9.33333C9.57496 9.18758 9.77083 8.99171 9.77083 8.75008C9.77083 8.50846 9.57496 8.31258 9.33333 8.31258H4.66667Z" fill="#1E7B0E"/>
</svg>
