<svg width="16" height="16" viewBox="0 0 16 16" fill="none" xmlns="http://www.w3.org/2000/svg">
<g clip-path="url(#clip0_5_3624)">
<path d="M8.00016 14.6668C11.682 14.6668 14.6668 11.682 14.6668 8.00016C14.6668 4.31826 11.682 1.3335 8.00016 1.3335C4.31826 1.3335 1.3335 4.31826 1.3335 8.00016C1.3335 8.91943 1.51954 9.79523 1.85604 10.592C2.04202 11.0322 2.135 11.2524 2.14652 11.4188C2.15803 11.5852 2.10906 11.7682 2.01111 12.1343L1.3335 14.6668L3.86601 13.9892C4.23208 13.8913 4.41512 13.8423 4.58151 13.8538C4.7479 13.8653 4.96806 13.9583 5.4084 14.1443C6.20513 14.4808 7.0809 14.6668 8.00016 14.6668Z" stroke="#373737" stroke-linejoin="round"/>
<path d="M5.72527 8.25137L6.3059 7.53024C6.55061 7.2263 6.8531 6.94337 6.87684 6.53868C6.88277 6.43646 6.8109 5.97755 6.66704 5.05974C6.61051 4.69904 6.27374 4.6665 5.98205 4.6665C5.60193 4.6665 5.41187 4.6665 5.22314 4.75271C4.9846 4.86167 4.7397 5.16804 4.68595 5.42472C4.64343 5.62781 4.67503 5.76775 4.73823 6.04763C5.00666 7.23637 5.63638 8.41037 6.61282 9.38684C7.5893 10.3633 8.7633 10.993 9.95204 11.2614C10.2319 11.3246 10.3718 11.3562 10.575 11.3137C10.8316 11.26 11.138 11.0151 11.247 10.7765C11.3332 10.5878 11.3332 10.3978 11.3332 10.0176C11.3332 9.7259 11.3006 9.38917 10.9399 9.33264C10.0221 9.18877 9.56324 9.1169 9.46097 9.12284C9.0563 9.14657 8.77337 9.44904 8.46944 9.69377L7.7483 10.2744" stroke="#373737"/>
</g>
<defs>
<clipPath id="clip0_5_3624">
<rect width="16" height="16" fill="white"/>
</clipPath>
</defs>
</svg>
