<svg width="16" height="17" viewBox="0 0 16 17" fill="none" xmlns="http://www.w3.org/2000/svg">
<path d="M8.00004 8.5V12.5M8.00004 12.5L10 11.1667M8.00004 12.5L6.00004 11.1667M8.66671 2.50058C8.60304 2.5 8.53156 2.5 8.44985 2.5H5.46684C4.7201 2.5 4.34645 2.5 4.06124 2.64532C3.81036 2.77316 3.60653 2.97698 3.4787 3.22786C3.33337 3.51308 3.33337 3.88673 3.33337 4.63346V12.3668C3.33337 13.1135 3.33337 13.4867 3.4787 13.7719C3.60653 14.0228 3.81036 14.227 4.06124 14.3548C4.34618 14.5 4.71937 14.5 5.46465 14.5H10.5354C11.2807 14.5 11.6534 14.5 11.9383 14.3548C12.1892 14.227 12.3937 14.0228 12.5215 13.7719C12.6667 13.487 12.6667 13.1143 12.6667 12.3691V6.71712C12.6667 6.63531 12.6667 6.56374 12.6661 6.5M8.66671 2.50058C8.85713 2.50231 8.9776 2.50923 9.0926 2.53684C9.22865 2.5695 9.35861 2.62351 9.47791 2.69661C9.61242 2.77904 9.72792 2.89455 9.95837 3.125L12.042 5.20866C12.2726 5.43926 12.3873 5.55424 12.4697 5.6888C12.5428 5.80809 12.5969 5.93817 12.6296 6.07422C12.6572 6.18917 12.6643 6.30967 12.6661 6.5M8.66671 2.50058V4.36667C8.66671 5.1134 8.66671 5.48651 8.81203 5.77173C8.93986 6.02261 9.14369 6.22699 9.39457 6.35482C9.67951 6.5 10.0527 6.5 10.798 6.5H12.6661M12.6661 6.5H12.6668" stroke="#99B2C6" stroke-linecap="round" stroke-linejoin="round"/>
</svg>
