<svg width="41" height="40" viewBox="0 0 41 40" fill="none" xmlns="http://www.w3.org/2000/svg">
<g clip-path="url(#clip0_5_3564)">
<path d="M18.1705 38.0941C27.9356 38.0941 35.8518 30.0984 35.8518 20.2353C35.8518 10.3721 27.9356 2.37646 18.1705 2.37646C8.40543 2.37646 0.489258 10.3721 0.489258 20.2353C0.489258 30.0984 8.40543 38.0941 18.1705 38.0941Z" fill="#1A2E62" stroke="#8DCAFF" stroke-width="2.1"/>
<mask id="mask0_5_3564" style="mask-type:luminance" maskUnits="userSpaceOnUse" x="1" y="3" width="35" height="35">
<path d="M18.1395 3.30322C8.70034 3.30322 1.04834 11.032 1.04834 20.566C1.04834 30.1 8.70029 37.8288 18.1395 37.8288C27.5786 37.8288 35.2306 30.1 35.2306 20.566C35.2306 11.0321 27.5787 3.30322 18.1395 3.30322Z" fill="white"/>
</mask>
<g mask="url(#mask0_5_3564)">
<path d="M31.2358 29.6632L32.6914 30.1672L33.5303 23.3894C33.5303 23.3894 33.1571 23.2346 32.9554 23.2262C32.7536 23.2179 32.4845 23.2323 32.4845 23.2323L31.2358 29.6632Z" fill="#D4EBFF"/>
<path d="M2.41324 17.5477C2.98401 16.3248 7.22245 12.9741 7.22245 12.9741C6.19838 21.349 6.51166 27.1469 6.96173 37.3531C4.05484 36.4937 3.80134 36.1772 2.49387 35.5148C1.75621 27.822 1.84247 18.7706 2.41324 17.5477Z" fill="#D4EBFF" stroke="black" stroke-width="0.867017" stroke-linecap="round" stroke-linejoin="round"/>
<path d="M6.30276 24.6013L7.92636 26.1739L6.42669 30.0771C6.42669 30.0771 7.71441 30.253 6.24317 30.1723C4.77192 30.0915 2.25323 28.5016 2.25323 28.5016L2.17139 27.9238V27.3578V26.2258V24.5278L4.42082 26.5096L6.30276 24.6013Z" fill="#1E96FC"/>
<path d="M6.27777 22.4984L7.90137 24.0711L7.9426 27.5756L5.93374 25.6298L4.10558 27.4835L2.17119 24.8106C2.17119 24.8106 2.12219 22.2632 2.17119 22.2637C2.2202 22.2642 4.39585 24.4067 4.39585 24.4067L6.27777 22.4984Z" fill="#61B6FF"/>
<path d="M6.24715 19.9102L7.87075 21.4828L7.91198 24.9873L5.90307 23.0415L4.07493 24.8952C4.07493 24.8952 2.21895 22.7148 2.17098 22.6171C2.12302 22.5194 2.38112 19.9102 2.38112 19.9102L4.3652 21.8184L6.24715 19.9102Z" fill="#8DCBFF"/>
<path d="M32.8684 13.2271C32.8622 13.219 32.8374 13.1945 32.7733 13.1596C32.7121 13.1263 32.6283 13.0905 32.52 13.0531C32.3035 12.9783 32.0072 12.9034 31.6384 12.83C30.9018 12.6833 29.8975 12.5463 28.7102 12.4247C26.3368 12.1815 23.2491 12.0012 20.1478 11.9241C17.0462 11.847 13.9361 11.8733 11.5172 12.0423C10.307 12.1269 9.27578 12.2469 8.50717 12.4059C8.12247 12.4854 7.80998 12.5735 7.5761 12.6689C7.33499 12.7673 7.2071 12.8618 7.15505 12.9363C7.08801 13.0321 7.01351 13.2053 6.93808 13.4658C6.86391 13.7217 6.79337 14.0455 6.72698 14.4296C6.59424 15.1975 6.48056 16.1927 6.38663 17.3404C6.19887 19.6349 6.09134 22.5246 6.0666 25.3941C6.04181 28.2638 6.09977 31.1089 6.24234 33.3143C6.31367 34.4176 6.40587 35.3565 6.51862 36.0569C6.57509 36.4074 6.63589 36.6933 6.70014 36.908C6.76751 37.1331 6.82957 37.2469 6.86973 37.2875C6.88431 37.3022 6.92033 37.3286 6.99222 37.3615C7.06159 37.3933 7.15328 37.4261 7.26846 37.4593C7.49876 37.5255 7.80737 37.5886 8.18662 37.6477C8.94433 37.7656 9.96467 37.8648 11.1633 37.9454C13.5594 38.1065 16.6523 38.1923 19.7473 38.2081C22.8421 38.224 25.9356 38.1701 28.3327 38.0523C29.5316 37.9934 30.5534 37.9187 31.313 37.8292C31.6931 37.7844 32.0037 37.7363 32.2364 37.6855C32.3529 37.6602 32.4464 37.6349 32.5178 37.6101C32.5925 37.5843 32.6297 37.5635 32.6435 37.553C32.6488 37.5489 32.6702 37.528 32.7012 37.4689C32.7307 37.4126 32.7622 37.3347 32.7946 37.233C32.8594 37.0296 32.9217 36.7505 32.9804 36.4021C33.0977 35.7064 33.197 34.7576 33.278 33.6353C33.44 31.3922 33.5278 28.4743 33.5449 25.5428C33.562 22.6114 33.5083 19.6704 33.3876 17.3812C33.3273 16.2362 33.2503 15.2575 33.1576 14.5259C33.1112 14.1597 33.0613 13.8594 33.0087 13.6327C32.9533 13.3948 32.9017 13.2708 32.8684 13.2271Z" fill="#D4EBFF" stroke="black" stroke-width="0.867017"/>
<path d="M23.4871 29.6841C20.7016 34.1705 16.1153 30.3722 16.5571 29.3553C16.9987 28.3383 18.0414 29.481 20.2225 29.2695C22.4034 29.058 23.7363 28.1418 23.4871 29.6841Z" fill="white" stroke="black" stroke-width="1.38632" stroke-linejoin="round"/>
<path d="M14.244 17.0995C13.0463 16.8637 11.3915 16.6168 9.98291 18.8652" stroke="black" stroke-width="1.59954" stroke-linecap="round" stroke-linejoin="round"/>
<path d="M30.0957 18.44C29.2916 17.5129 28.1328 16.2945 25.6562 17.2012" stroke="black" stroke-width="1.59954" stroke-linecap="round" stroke-linejoin="round"/>
<path d="M13.5997 26.9757C15.4341 26.9315 16.8749 25.0393 16.8177 22.7494C16.7605 20.4596 15.227 18.6392 13.3926 18.6834C11.5581 18.7276 10.1173 20.6198 10.1745 22.9097C10.2317 25.1995 11.7652 27.02 13.5997 26.9757Z" fill="white"/>
<path d="M26.7949 26.9606C28.6294 26.9163 30.0702 25.0241 30.013 22.7343C29.9559 20.4444 28.4224 18.624 26.5879 18.6683C24.7534 18.7125 23.3126 20.6046 23.3698 22.8945C23.427 25.1844 24.9605 27.0048 26.7949 26.9606Z" fill="white"/>
<path d="M16.7513 22.5174C16.8058 24.7013 15.4563 26.339 13.7067 26.3812C11.957 26.4234 10.2898 24.811 10.2353 22.6271C10.1807 20.4432 11.7349 18.6816 13.4845 18.6394C15.2342 18.5972 16.6967 20.3334 16.7513 22.5174Z" fill="black"/>
<path d="M29.7828 22.3994C29.8575 24.4125 28.2349 26.7976 26.4853 26.8398C24.7357 26.882 23.3345 24.8142 23.2799 22.6303C23.2254 20.4464 25.1888 18.3936 26.6797 18.6248C28.1705 18.8559 29.7082 20.3862 29.7828 22.3994Z" fill="black"/>
<path d="M15.289 24.5738C15.3333 25.314 14.3599 25.7788 13.5463 25.7698C12.7327 25.7608 12.1718 25.2581 12.0139 24.7797C11.8559 24.3013 12.53 24.095 13.3395 24.0456C14.2238 23.6659 15.2531 23.9742 15.289 24.5738Z" fill="#BED7EC"/>
<path d="M28.2656 24.8521C28.3099 25.5923 27.3365 26.0571 26.5229 26.0482C25.7093 26.0392 25.1484 25.5365 24.9904 25.058C24.8325 24.5796 25.5066 24.3733 26.3161 24.3239C27.2003 23.9442 28.2297 24.2525 28.2656 24.8521Z" fill="#BED7EC"/>
<path d="M13.6827 21.6544C12.9971 22.4896 12.2971 22.8126 11.7073 22.7283C10.9941 22.6262 11.1888 21.1489 11.6645 20.2307C12.1402 19.3124 12.8145 19.0777 13.4298 19.4029C14.0452 19.7281 14.4827 20.161 13.6827 21.6544Z" fill="white"/>
<path d="M26.6637 22.3082C25.9781 23.1434 25.2781 23.4665 24.6883 23.3821C23.9751 23.2801 24.1698 21.8027 24.6454 20.8845C25.1211 19.9662 25.7954 19.7315 26.4108 20.0568C27.0261 20.3819 27.4636 20.8148 26.6637 22.3082Z" fill="white"/>
<path d="M15.5867 22.4714C15.5437 22.7777 15.3766 23.0071 15.1167 22.9699C14.8568 22.9328 14.6024 22.6431 14.6454 22.3368C14.6883 22.0305 15.0123 21.8236 15.2722 21.8608C15.5321 21.8979 15.6296 22.1652 15.5867 22.4714Z" fill="white"/>
<path d="M28.7028 22.4898C28.6632 22.7722 28.5091 22.9837 28.2695 22.9494C28.0299 22.9151 27.7954 22.6481 27.835 22.3657C27.8746 22.0834 28.1732 21.8925 28.4129 21.9268C28.6525 21.9611 28.7424 22.2074 28.7028 22.4898Z" fill="white"/>
<path d="M15.3001 24.7689C15.2283 25.2809 14.7019 25.6289 14.195 25.5564C13.6882 25.4839 13.3355 25.0101 13.4072 24.4982C13.479 23.9863 14.1364 23.5387 14.6432 23.6113C15.1501 23.6837 15.3718 24.257 15.3001 24.7689Z" fill="white"/>
<path d="M28.4944 24.7548C28.4226 25.2667 27.8962 25.6147 27.3893 25.5423C26.8825 25.4698 26.5298 24.996 26.6016 24.4841C26.6733 23.9721 27.3307 23.5246 27.8376 23.5971C28.3444 23.6696 28.5662 24.2428 28.4944 24.7548Z" fill="white"/>
</g>
<path d="M36.1483 15.8237C35.7395 16.2042 35.4837 16.7086 35.5941 17.2658" stroke="#1E96FC" stroke-width="0.882551" stroke-linecap="round"/>
<path d="M9.66276 34.8544C1.85949 36.1321 1.88063 25.8525 5.9347 23.8793C6.0235 23.8361 6.12842 23.8736 6.17464 23.9616C6.66622 24.8977 9.23524 29.769 9.43656 29.7254C9.65931 29.6773 10.6423 31.3461 10.643 32.4681C10.6436 33.4256 10.643 34.3762 9.71471 34.8379C9.69873 34.8459 9.68033 34.8515 9.66276 34.8544Z" fill="#D4EBFF" stroke="black" stroke-width="1.12472"/>
<path d="M9.97664 29.4608L8.73802 30.3991L5.85596 24.2883C5.85596 24.2883 6.1656 24.0236 6.35616 23.9515C6.54667 23.8793 6.80869 23.8071 6.80869 23.8071L9.97664 29.4608Z" fill="#D4EBFF"/>
<path d="M39.9711 17.4541C41.4259 20.725 37.7547 30.9101 31.5799 28.2855C31.5333 28.2656 31.4928 28.2287 31.4684 28.1831L30.0734 25.5704C30.0539 25.534 30.0429 25.4952 30.05 25.4544C30.2598 24.2539 35.4978 20.6168 36.5516 19.4197C36.6133 19.3496 36.6152 19.2457 36.5708 19.1623C35.1837 16.5487 38.5358 14.227 39.9711 17.4541Z" fill="#D4EBFF" stroke="black" stroke-width="1.13739"/>
<path d="M33.4088 27.5704C33.4321 27.4053 33.3948 25.9998 33.3388 21.6982L29.2061 24.8112L30.3968 30.2589C32.611 28.0854 33.217 27.9205 33.4088 27.5704Z" fill="#D4EBFF"/>
</g>
<defs>
<clipPath id="clip0_5_3564">
<rect width="41" height="40" fill="white"/>
</clipPath>
</defs>
</svg>
