<svg width="24" height="24" viewBox="0 0 24 24" fill="none" xmlns="http://www.w3.org/2000/svg">
<path fill-rule="evenodd" clip-rule="evenodd" d="M9.09369 9.93481C9.25793 10.287 9.61139 10.5122 10.0001 10.5121L14.217 10.5122C14.6057 10.5122 14.9592 10.287 15.1234 9.93481C15.2877 9.58252 15.2329 9.16699 14.983 8.86914L12.874 6.35718C12.684 6.13074 12.4036 6 12.108 6C11.8124 6 11.532 6.13074 11.342 6.35718L9.23407 8.86926C8.98419 9.16699 8.92944 9.58252 9.09369 9.93481ZM15.1234 13.0896C14.9592 12.7374 14.6057 12.5122 14.217 12.5123L10.0001 12.5122C9.61139 12.5122 9.25793 12.7374 9.09369 13.0896C8.92944 13.4419 8.98419 13.8574 9.23407 14.1553L11.3431 16.6672C11.5331 16.8937 11.8135 17.0244 12.1091 17.0244C12.4047 17.0244 12.6851 16.8937 12.8751 16.6672L14.983 14.1552C15.2329 13.8574 15.2877 13.4419 15.1234 13.0896Z" fill="#99B2C6"/>
</svg>
