<svg width="20" height="20" viewBox="0 0 20 20" fill="none" xmlns="http://www.w3.org/2000/svg">
<path d="M3.33337 6.6665H16.6667M3.33337 6.6665V14C3.33337 14.9334 3.33337 15.3999 3.51503 15.7564C3.67482 16.07 3.9296 16.3252 4.2432 16.485C4.59938 16.6665 5.06587 16.6665 5.99747 16.6665H14.0026C14.9342 16.6665 15.4 16.6665 15.7562 16.485C16.0698 16.3252 16.3254 16.07 16.4852 15.7564C16.6667 15.4002 16.6667 14.9344 16.6667 14.0028V6.6665M3.33337 6.6665V6C3.33337 5.06658 3.33337 4.59952 3.51503 4.243C3.67482 3.9294 3.9296 3.67462 4.2432 3.51483C4.59972 3.33317 5.06678 3.33317 6.0002 3.33317H6.66671M16.6667 6.6665V5.99726C16.6667 5.06567 16.6667 4.59917 16.4852 4.243C16.3254 3.9294 16.0698 3.67462 15.7562 3.51483C15.3997 3.33317 14.9336 3.33317 14.0002 3.33317H13.3334M13.3334 1.6665V3.33317M13.3334 3.33317H6.66671M6.66671 1.6665V3.33317" stroke="#17181A" stroke-width="1.5" stroke-linecap="round" stroke-linejoin="round"/>
</svg>
