<svg width="16" height="16" viewBox="0 0 16 16" fill="none" xmlns="http://www.w3.org/2000/svg">
<path d="M3.99996 7.33346V4.13346C3.99996 3.38673 3.99996 3.01308 4.14528 2.72786C4.27311 2.47698 4.47694 2.27316 4.72782 2.14532C5.01304 2 5.38669 2 6.13342 2H9.11643C9.19815 2 9.26963 2 9.33329 2.00058M13.3327 6C13.3333 6.06374 13.3333 6.13531 13.3333 6.21712V11.869C13.3333 12.6143 13.3333 12.987 13.1881 13.2719C13.0603 13.5228 12.8559 13.727 12.605 13.8548C12.3201 14 11.9473 14 11.202 14L8.66663 14M13.3327 6C13.3309 5.80967 13.3238 5.68917 13.2962 5.57422C13.2635 5.43817 13.2094 5.30809 13.1363 5.1888C13.0539 5.05424 12.9392 4.93926 12.7086 4.70865L10.625 2.625C10.3945 2.39454 10.279 2.27904 10.1445 2.19661C10.0252 2.12351 9.89524 2.0695 9.75919 2.03684C9.64418 2.00923 9.52372 2.00231 9.33329 2.00058M13.3327 6H13.3334M13.3327 6H11.4646C10.7193 6 10.3461 6 10.0612 5.85482C9.81027 5.72699 9.60645 5.52261 9.47862 5.27173C9.33329 4.98651 9.33329 4.6134 9.33329 3.86667V2.00058M5.99996 9.33333L7.33329 10.6667M2.66663 14V12.3333L7.66663 7.33333L9.33329 9L4.33329 14H2.66663Z" stroke="#99B2C6" stroke-linecap="round" stroke-linejoin="round"/>
</svg>
