<svg width="14" height="14" viewBox="0 0 14 14" fill="none" xmlns="http://www.w3.org/2000/svg">
<path d="M7.43752 6.4165C7.43752 6.17488 7.24164 5.979 7.00002 5.979C6.7584 5.979 6.56252 6.17488 6.56252 6.4165V9.9165C6.56252 10.1581 6.7584 10.354 7.00002 10.354C7.24164 10.354 7.43752 10.1581 7.43752 9.9165V6.4165Z" fill="#809FB8"/>
<path fill-rule="evenodd" clip-rule="evenodd" d="M7.00002 0.729004C3.53673 0.729004 0.729187 3.53655 0.729187 6.99984C0.729187 10.4631 3.53673 13.2707 7.00002 13.2707C10.4633 13.2707 13.2709 10.4631 13.2709 6.99984C13.2709 3.53655 10.4633 0.729004 7.00002 0.729004ZM1.60419 6.99984C1.60419 4.0198 4.01998 1.604 7.00002 1.604C9.98006 1.604 12.3959 4.0198 12.3959 6.99984C12.3959 9.97987 9.98006 12.3957 7.00002 12.3957C4.01998 12.3957 1.60419 9.97987 1.60419 6.99984Z" fill="#809FB8"/>
<path d="M7.58335 4.6665C7.58335 4.98867 7.32218 5.24984 7.00002 5.24984C6.67785 5.24984 6.41668 4.98867 6.41668 4.6665C6.41668 4.34434 6.67785 4.08317 7.00002 4.08317C7.32218 4.08317 7.58335 4.34434 7.58335 4.6665Z" fill="#809FB8"/>
</svg>
