<svg width="16" height="16" viewBox="0 0 16 16" fill="none" xmlns="http://www.w3.org/2000/svg">
<path d="M11.0737 11.7731L10.3333 14.6667L12 14L13.6667 14.6667L13 11.7325M14 10C14 11.1046 13.1046 12 12 12C10.8954 12 10 11.1046 10 10C10 8.8954 10.8954 8 12 8C13.1046 8 14 8.8954 14 10Z" stroke="black" stroke-linecap="round" stroke-linejoin="round"/>
<path d="M13.3333 6.66671C13.3333 4.15255 13.3333 2.89547 12.5523 2.11442C11.7713 1.33337 10.5141 1.33337 8.00001 1.33337H7.33341C4.81928 1.33337 3.56221 1.33337 2.78116 2.11441C2.00011 2.89545 2.00011 4.15252 2.00008 6.66666L2.00006 9.33331C2.00004 11.8475 2.00003 13.1046 2.78107 13.8856C3.56213 14.6667 4.81921 14.6667 7.33341 14.6667H8.66668" stroke="black" stroke-linecap="round" stroke-linejoin="round"/>
<path d="M5 4.66663H10.3333M5 7.99996H8" stroke="black" stroke-linecap="round" stroke-linejoin="round"/>
</svg>
