<svg width="16" height="16" viewBox="0 0 16 16" fill="none" xmlns="http://www.w3.org/2000/svg">
<path d="M2 7.3335C2 4.83368 2 3.58376 2.63661 2.70754C2.84221 2.42456 3.09107 2.1757 3.37405 1.9701C4.25027 1.3335 5.50018 1.3335 8 1.3335C10.4998 1.3335 11.7497 1.3335 12.6259 1.9701C12.9089 2.1757 13.1578 2.42456 13.3634 2.70754C14 3.58376 14 4.83368 14 7.3335V8.66683C14 11.1666 14 12.4166 13.3634 13.2928C13.1578 13.5758 12.9089 13.8246 12.6259 14.0302C11.7497 14.6668 10.4998 14.6668 8 14.6668C5.50018 14.6668 4.25027 14.6668 3.37405 14.0302C3.09107 13.8246 2.84221 13.5758 2.63661 13.2928C2 12.4166 2 11.1666 2 8.66683V7.3335Z" stroke="black" stroke-linecap="round" stroke-linejoin="round"/>
<path d="M10.6666 6.3335H5.33331M8.99998 9.66683H6.99998" stroke="black" stroke-linecap="round" stroke-linejoin="round"/>
</svg>
