<svg width="16" height="16" viewBox="0 0 16 16" fill="none" xmlns="http://www.w3.org/2000/svg">
<path d="M11.6667 1.66675C12.396 1.79911 12.9327 2.03321 13.357 2.44728C14.3334 3.39999 14.3334 4.93335 14.3334 8.00008C14.3334 11.0668 14.3334 12.6001 13.357 13.5529C12.9327 13.9669 12.396 14.2011 11.6667 14.3334" stroke="black" stroke-linecap="round" stroke-linejoin="round"/>
<path d="M4.20692 1.83437C3.51221 1.96322 3.00092 2.19113 2.59671 2.59424C2.1925 2.99735 1.96397 3.50725 1.83476 4.20008M9.33335 1.67005C8.94269 1.66675 8.47449 1.66675 8.01729 1.66675C7.56009 1.66675 7.05009 1.66675 6.65942 1.67005M1.67 6.73341C1.66669 7.12301 1.66669 7.54415 1.66669 8.00008C1.66669 8.45601 1.66669 8.87715 1.67 9.26681M1.83476 11.8001C1.96397 12.4929 2.19249 13.0028 2.59671 13.4059C3.00092 13.809 3.51221 14.0369 4.20692 14.1658M9.33335 14.3301C8.94269 14.3334 8.47449 14.3334 8.01729 14.3334C7.56015 14.3334 7.05009 14.3334 6.65942 14.3301" stroke="black" stroke-width="1.5" stroke-linecap="round" stroke-linejoin="round"/>
<path d="M8 1.66675V2.66675M8 13.3334V14.3334M10 8.00008H6M2.97917 8.00008H2M8 6.00008V10.0001" stroke="black" stroke-linecap="round" stroke-linejoin="round"/>
</svg>
