<svg width="391" height="536" viewBox="0 0 391 536" fill="none" xmlns="http://www.w3.org/2000/svg">
<g clip-path="url(#clip0_65_450)">
<path d="M17.1024 357L197.701 308.53L378.305 357" stroke="#AEBDDF" stroke-width="2" stroke-miterlimit="10"/>
<path d="M199 323.18V34.0002" stroke="#AEBDDF" stroke-width="2" stroke-miterlimit="10"/>
<path d="M61.6614 384.17C61.6614 382.213 64.4478 380.251 70.0207 378.757C81.1616 375.769 99.2278 375.769 110.369 378.757C115.942 380.251 118.723 382.213 118.723 384.175C118.723 386.137 115.937 388.093 110.369 389.588C99.2278 392.576 81.1616 392.576 70.0207 389.588C64.4478 388.079 61.6614 386.122 61.6614 384.17Z" fill="url(#paint0_linear_65_450)"/>
<path d="M64.6114 300.823V383.37" stroke="url(#paint1_linear_65_450)" stroke-width="10" stroke-linecap="round" stroke-linejoin="round"/>
<path d="M115.773 300.823V383.37" stroke="url(#paint2_linear_65_450)" stroke-width="10" stroke-linecap="round" stroke-linejoin="round"/>
<path d="M64.6114 320.604C64.6114 322.363 67.1091 324.118 72.1045 325.458C82.0953 328.142 98.2941 328.142 108.28 325.458C113.275 324.118 115.773 322.363 115.773 320.609V324.619C115.773 326.378 113.275 328.133 108.28 329.473C98.2941 332.153 82.0953 332.153 72.1045 329.473C67.1091 328.133 64.6114 326.373 64.6114 324.619V320.604Z" fill="url(#paint3_linear_65_450)"/>
<path d="M64.6114 320.604C64.6114 318.849 67.1139 317.09 72.1045 315.75C82.0953 313.07 98.2941 313.07 108.28 315.75C113.28 317.09 115.773 318.849 115.773 320.609C115.773 322.368 113.275 324.118 108.28 325.458C98.2941 328.142 82.0953 328.142 72.1045 325.458C67.1188 324.118 64.6114 322.363 64.6114 320.604Z" fill="url(#paint4_linear_65_450)"/>
<path d="M64.6114 279.995C64.6114 281.755 67.1091 283.509 72.1045 284.849C82.0953 287.534 98.2941 287.534 108.28 284.849C113.275 283.509 115.773 281.755 115.773 280V319.042C115.773 320.801 113.275 322.556 108.28 323.896C98.2941 326.576 82.0953 326.576 72.1045 323.896C67.1091 322.556 64.6114 320.797 64.6114 319.042V279.995Z" fill="url(#paint5_linear_65_450)"/>
<path d="M64.6114 279.995C64.6114 278.241 67.1139 276.482 72.1045 275.142C82.0953 272.462 98.2941 272.462 108.28 275.142C113.28 276.482 115.773 278.241 115.773 280C115.773 281.759 113.275 283.509 108.28 284.849C98.2941 287.534 82.0953 287.534 72.1045 284.849C67.1188 283.509 64.6114 281.755 64.6114 279.995Z" fill="url(#paint6_linear_65_450)"/>
<path d="M108.28 282.588C98.2941 279.909 82.0953 279.909 72.1045 282.588C70.958 282.894 69.8327 283.274 68.7358 283.726C69.8327 284.174 70.9581 284.55 72.1045 284.849C82.0953 287.534 98.2941 287.534 108.28 284.849C109.435 284.55 110.568 284.175 111.673 283.726C110.568 283.273 109.435 282.893 108.28 282.588Z" fill="url(#paint7_linear_65_450)"/>
<path d="M90.1369 286.917C90.1369 286.917 92.0042 248.554 102.649 231.362C115.513 210.573 142.978 222.42 142.021 241.705C141.063 260.99 139.773 273.57 143.946 276.645C143.946 276.645 127.001 264.345 119.609 250.651C112.217 236.958 112.746 222.98 123.646 221.953C123.646 221.953 112.967 217.586 103.987 232.557C95.0072 247.528 92.4373 286.898 92.4373 286.898C92.4373 286.898 92.1438 287.013 90.1369 286.917Z" fill="url(#paint8_linear_65_450)"/>
<path d="M90.1369 286.912C90.1369 286.912 89.7086 247.827 61.0213 245.258C32.334 242.689 25.5484 272.703 30.5438 293.732C30.9883 289.667 33.0127 285.941 36.1792 283.36C41.4729 279.128 39.3843 273.349 39.5479 268.21C39.7116 263.072 70.9639 275.272 66.9792 247.966C66.9792 247.966 88.2408 251.981 87.8654 286.893L90.1369 286.912Z" fill="url(#paint9_linear_65_450)"/>
<path d="M92.4325 286.912C92.4325 286.912 92.0042 260.296 79.4003 224.483C79.4003 224.483 87.8799 206.996 78.0479 199.029C68.216 191.062 52.2289 189.63 49.7938 180.149C47.3586 170.668 32.4206 166.07 18.7916 170.707C18.7916 170.707 17.9735 180.641 28.9653 187.422C36.9203 192.334 41.3623 197.154 42.6424 209.623C44.2738 225.491 60.4486 240.654 78.0479 226.315C78.0479 226.315 89.5498 253.124 90.1369 286.912H92.4325Z" fill="url(#paint10_linear_65_450)"/>
<path d="M94.3575 203.844C94.3575 203.844 89.8674 192.377 100.98 185.326C112.092 178.274 121.923 182.761 125.557 178.481C129.19 174.201 145.216 180.125 149.061 167.424C149.061 167.424 150.875 186.323 128.545 195.081C106.215 203.839 94.3575 203.844 94.3575 203.844Z" fill="url(#paint11_linear_65_450)"/>
<path d="M90.1369 286.912C90.1369 286.912 81.7488 225.886 92.4325 203.42C103.116 180.954 145.644 194.575 149.061 167.429C149.061 167.429 151.198 183.518 147.993 190.363C144.788 197.207 139.446 194.431 137.521 201.28C135.596 208.129 106.966 223.968 94.3575 203.849C94.3575 203.849 89.2948 213.243 87.9184 234.427C86.542 255.611 91.4459 286.917 91.4459 286.917L90.1369 286.912Z" fill="url(#paint12_linear_65_450)"/>
<path d="M18.782 170.707C18.782 170.707 17.9639 180.641 28.9556 187.422C36.9203 192.334 41.3623 197.154 42.6424 209.623C44.2738 225.491 60.4486 240.654 78.0479 226.315C78.0479 226.315 59.3466 186.372 18.782 170.707Z" fill="url(#paint13_linear_65_450)"/>
<path d="M90.1947 306.973V389.52" stroke="url(#paint14_linear_65_450)" stroke-width="10" stroke-linecap="round" stroke-linejoin="round"/>
<path d="M340.95 440.169C340.95 440.786 340.065 441.407 338.303 441.88L270.447 460.085C266.915 461.049 261.192 461.049 257.665 460.085L79.2414 412.198C77.4753 411.716 76.5946 411.104 76.5946 410.482C76.5946 409.861 77.4753 409.239 79.2414 408.766L147.098 390.561C150.625 389.597 156.347 389.597 159.88 390.561L338.322 438.453C340.06 438.925 340.95 439.547 340.95 440.169Z" fill="url(#paint15_linear_65_450)"/>
<path d="M258.392 455.766C257.289 455.766 256.224 455.369 255.389 454.648C254.555 453.927 254.006 452.93 253.844 451.838L249.46 422.513H267.319L262.935 451.838C262.772 452.929 262.224 453.925 261.391 454.646C260.557 455.367 259.493 455.764 258.392 455.766Z" fill="url(#paint16_linear_65_450)"/>
<path d="M320.304 439.118C319.203 439.119 318.137 438.723 317.303 438.003C316.468 437.282 315.919 436.286 315.757 435.194L311.377 405.865H329.236L324.857 435.194C324.693 436.286 324.144 437.283 323.308 438.003C322.473 438.723 321.407 439.119 320.304 439.118Z" fill="url(#paint17_linear_65_450)"/>
<path d="M110.133 417.013C109.031 417.014 107.966 416.618 107.131 415.898C106.296 415.178 105.748 414.181 105.585 413.09L101.206 383.76H119.065L114.685 413.09C114.522 414.182 113.972 415.178 113.137 415.898C112.301 416.618 111.235 417.014 110.133 417.013Z" fill="url(#paint18_linear_65_450)"/>
<path d="M346.47 299.126L346.297 299.083C342.625 298.244 338.563 301.917 337.225 307.277L316.137 392.012C314.823 397.314 316.618 402.259 320.194 403.214L150.616 357.703C147.054 356.739 145.24 351.789 146.559 346.502L167.647 261.781C168.98 256.406 173.042 252.733 176.719 253.587L176.892 253.63L346.47 299.126Z" fill="url(#paint19_linear_65_450)"/>
<path d="M346.47 299.126C350.031 300.09 351.841 305.04 350.527 310.328L329.438 395.049C328.101 400.418 324.039 404.096 320.367 403.243L320.194 403.199C316.637 402.235 314.823 397.285 316.137 391.998L337.225 307.291C338.563 301.917 342.625 298.244 346.297 299.097L346.47 299.126Z" fill="url(#paint20_linear_65_450)"/>
<path d="M252.809 419.761L102.717 379.485L174.635 360.186L324.727 400.462L252.809 419.761Z" fill="url(#paint21_linear_65_450)"/>
<path d="M102.731 379.485L88.4814 313.706C87.6874 310.038 85.3437 307.06 82.7064 306.351C81.9809 306.144 81.2137 306.134 80.4831 306.322L152.401 287.042C153.13 286.852 153.896 286.862 154.62 287.071C157.271 287.78 159.62 290.758 160.395 294.426L174.635 360.2L102.731 379.485Z" fill="url(#paint22_linear_65_450)"/>
<path d="M171.112 344.622L99.3673 363.873L256.154 405.952L327.898 386.696L171.112 344.622Z" fill="url(#paint23_linear_65_450)"/>
<path d="M258.392 434.857C261.221 434.1 263.488 431.507 264.436 427.627L278.623 369.71C279.85 364.707 276.929 358.499 272.848 357.4C272.122 357.2 271.356 357.2 270.63 357.4L342.548 338.12C343.274 337.922 344.04 337.922 344.766 338.12C348.862 339.219 351.783 345.427 350.541 350.435L336.354 408.371C335.392 412.227 333.139 414.844 330.31 415.601L258.392 434.857Z" fill="url(#paint24_linear_65_450)"/>
<path d="M258.392 434.857C257.158 435.181 255.861 435.169 254.633 434.823L100.888 393.559C96.4028 392.354 92.4325 387.293 91.0898 381.109L76.8977 315.557C75.9352 310.988 77.6196 307.089 80.4686 306.327C81.1992 306.139 81.9665 306.149 82.692 306.356C85.3437 307.064 87.6874 310.043 88.467 313.711L102.731 379.485L252.824 419.761L267.059 361.627C267.622 359.337 268.984 357.805 270.63 357.356C271.356 357.157 272.122 357.157 272.848 357.356C276.944 358.455 279.865 364.663 278.623 369.667L264.431 427.627C263.469 431.507 261.221 434.1 258.392 434.857Z" fill="url(#paint25_linear_65_450)"/>
<path d="M102.717 379.485L99.3673 363.873L256.154 405.952L252.809 419.761L102.717 379.485Z" fill="url(#paint26_linear_65_450)"/>
<path d="M165.818 366.635C192.445 366.635 214.03 360.843 214.03 353.698C214.03 346.553 192.445 340.761 165.818 340.761C139.192 340.761 117.607 346.553 117.607 353.698C117.607 360.843 139.192 366.635 165.818 366.635Z" fill="url(#paint27_linear_65_450)"/>
<path d="M121.524 396.172L125.504 431.671L138.863 431.276L140.298 395.859L121.524 396.172Z" fill="url(#paint28_linear_65_450)"/>
<path d="M127.155 427.208C125.475 426.475 123.218 426.793 123.223 430.828C123.223 434.631 124.185 435.956 120.412 440.092C116.413 444.473 112.688 447.866 112.539 450.368C112.39 452.869 115.104 454.793 119.614 452.918C124.123 451.043 134.893 444.42 139.306 441.234C143.917 437.86 141.867 433.488 140.904 430.881C140.434 429.518 139.817 428.211 139.066 426.981C139.066 426.981 139.186 430.182 135.158 430.693C131.13 431.204 130.692 428.745 127.155 427.208Z" fill="url(#paint29_linear_65_450)"/>
<path d="M142.155 435.445C141.597 436.819 140.642 437.994 139.412 438.819C134.653 442.29 122.958 449.467 118.064 451.501C115.999 452.359 114.286 452.465 113.001 452.132C113.964 453.578 116.288 454.272 119.614 452.894C124.123 451.019 134.893 444.406 139.282 441.21C141.713 439.451 142.3 437.383 142.155 435.445Z" fill="url(#paint30_linear_65_450)"/>
<path d="M172.71 307.46C172.71 307.46 156.944 314.208 138.613 321.226C126.919 325.708 111.221 336.842 115.032 360.157C118.844 383.471 122.559 407.561 122.559 407.561L140.75 406.385C140.75 406.385 146.246 368.264 145.712 356.99C145.177 345.716 148.262 346.531 150.067 344.583C151.872 342.636 189.857 325.303 189.857 325.303L172.71 307.46Z" fill="url(#paint31_linear_65_450)"/>
<path d="M105.08 418.479L94.5211 452.6L106.923 457.603L122.405 425.728L105.08 418.479Z" fill="url(#paint32_linear_65_450)"/>
<path d="M164.283 328.542C164.283 328.542 156.261 331.063 145.625 335.527C135.658 339.71 126.168 345.085 120.475 359.723C114.782 374.361 102.115 424.571 102.115 424.571L120.364 431.936C120.364 431.936 127.304 419.149 137.381 401.04C146.607 384.469 148.426 369.937 152.262 365.372C156.097 360.807 192.898 362.176 204.174 349.172C213.77 338.086 212.259 320.927 210.401 316.396L179.659 298.957C179.659 298.957 171.834 307.855 160.784 312.4C153.903 315.244 164.283 328.542 164.283 328.542Z" fill="url(#paint33_linear_65_450)"/>
<path d="M97.8225 449.173C96.5761 447.828 94.3767 447.216 92.7646 450.913C91.2486 454.397 91.5999 455.998 86.5083 458.273C81.0942 460.683 76.3251 462.297 75.1893 464.539C74.0536 466.78 75.7668 469.624 80.6467 469.715C85.5266 469.807 98.0439 468.077 103.342 466.905C108.915 465.676 108.79 460.842 108.949 458.061C109.063 456.624 109.021 455.179 108.824 453.752C108.824 453.752 107.654 456.735 103.761 455.583C99.8678 454.431 100.445 452.002 97.8225 449.173Z" fill="url(#paint34_linear_65_450)"/>
<path d="M108.713 460.832C107.991 462.712 106.538 464.389 103.496 465.059C97.8129 466.312 84.4004 468.168 79.1692 468.072C77.766 468.089 76.3787 467.772 75.1219 467.146C75.7861 468.52 77.5956 469.643 80.6226 469.701C85.5073 469.792 98.0198 468.062 103.318 466.891C107.279 466.018 108.362 463.319 108.713 460.832Z" fill="url(#paint35_linear_65_450)"/>
<path d="M152.324 291.221C156.025 286.435 166.155 268.519 175.857 257.963C185.559 247.407 198.553 257.804 188.148 270.225C177.744 282.646 169.5 294.624 163.402 300.692C156.785 307.296 146.563 298.678 152.324 291.221Z" fill="url(#paint36_linear_65_450)"/>
<path d="M212.167 327.81C212.167 327.81 210.502 308.048 214.935 289.062C217.442 278.337 228.631 269.401 222.471 260.098C220.007 256.377 200.05 245.923 184.789 252.304C178.23 255.047 177.907 256.85 174.567 263.092C170.809 270.124 169.755 275.142 170.934 279.962C176.069 300.871 164.009 310.906 164.009 310.906C164.009 310.906 172.614 328.644 212.167 327.81Z" fill="url(#paint37_linear_65_450)"/>
<path d="M171.55 282.801C172.849 289.987 172.094 295.766 170.645 300.153C189.12 302.977 205.945 289.067 205.945 289.067C187.094 292.407 174.919 287.857 171.55 282.801Z" fill="url(#paint38_linear_65_450)"/>
<path d="M204.987 238.722C204.987 238.722 203.847 250.357 210.632 253.182C207.843 254.148 205.111 255.275 202.451 256.556C189.837 262.489 180.891 273.792 180.891 273.792C180.891 273.792 180.097 258.691 187.758 251.461C189.287 250.054 190.472 248.315 191.223 246.377C191.974 244.439 192.271 242.354 192.09 240.283L204.987 238.722Z" fill="url(#paint39_linear_65_450)"/>
<path d="M117.607 324.518C117.607 324.85 118.088 325.183 119.05 325.438L161.646 336.871C163.899 337.377 166.236 337.377 168.489 336.871L192.234 330.499C193.197 330.244 193.649 329.911 193.649 329.579V330.755C193.649 331.087 193.168 331.42 192.234 331.675L168.465 338.043C166.213 338.554 163.874 338.554 161.622 338.043L119.026 326.614C118.064 326.359 117.583 326.026 117.583 325.694L117.607 324.518Z" fill="url(#paint40_linear_65_450)"/>
<path d="M117.607 324.518C117.607 324.185 118.088 323.853 119.051 323.602L142.791 317.23C145.044 316.724 147.381 316.724 149.634 317.23L192.234 328.663C193.197 328.914 193.649 329.246 193.649 329.579C193.649 329.911 193.168 330.244 192.234 330.499L168.489 336.871C166.236 337.377 163.899 337.377 161.646 336.871L119.051 325.438C118.078 325.183 117.607 324.85 117.607 324.518Z" fill="url(#paint41_linear_65_450)"/>
<path d="M175.694 332.466C175.694 332.572 175.54 332.673 175.246 332.75L166.93 335.006C166.221 335.169 165.483 335.169 164.774 335.006L124.744 324.262C124.44 324.185 124.296 324.079 124.296 323.973C124.296 323.867 124.445 323.766 124.744 323.684L133.05 321.428C133.762 321.269 134.499 321.269 135.211 321.428L175.241 332.172C175.549 332.254 175.694 332.36 175.694 332.466Z" fill="url(#paint42_linear_65_450)"/>
<path d="M173.403 325.414C173.403 325.496 173.278 325.578 173.047 325.641L166.887 327.294C166.32 327.424 165.731 327.424 165.164 327.294L148.551 322.836C148.31 322.773 148.195 322.686 148.195 322.604C148.195 322.522 148.32 322.44 148.551 322.378L154.711 320.724C155.278 320.594 155.867 320.594 156.434 320.724L173.047 325.178C173.287 325.245 173.403 325.332 173.403 325.414Z" fill="url(#paint43_linear_65_450)"/>
<path d="M117.573 284.878C117.982 284.765 118.415 284.765 118.824 284.878L161.444 296.34C163.33 296.846 164.865 299.348 164.865 301.926V334.326C164.865 336.303 163.965 337.749 162.69 338.091C162.282 338.199 161.852 338.199 161.444 338.091L118.843 326.658C116.957 326.176 115.422 323.65 115.422 321.071V288.657C115.403 286.681 116.302 285.235 117.573 284.878Z" fill="url(#paint44_linear_65_450)"/>
<path d="M136.462 306.568C136.892 306.453 137.346 306.453 137.776 306.568C139.768 307.098 141.38 309.735 141.38 312.448C141.38 314.531 140.418 316.054 139.094 316.41C138.663 316.528 138.208 316.528 137.776 316.41C135.788 315.875 134.176 313.244 134.176 310.53C134.176 308.443 135.124 306.92 136.462 306.568Z" fill="url(#paint45_linear_65_450)"/>
<path d="M221.446 309.542C219.824 303.715 211.527 284.873 208.89 270.789C206.253 256.705 222.317 252.473 226.052 268.239C229.786 284.006 234.632 298.981 235.85 307.503C237.168 316.757 223.973 318.618 221.446 309.542Z" fill="url(#paint46_linear_65_450)"/>
<path d="M193.115 314.762C193.115 314.762 216.999 303.098 225.936 300.649C236.273 297.82 240.248 313.142 229.844 315.49C215.888 318.637 189.862 322.811 187.869 323.452C185.877 324.094 184.924 325.636 183.163 325.968C182.19 326.116 181.283 326.546 180.554 327.207C180.554 327.207 178.697 331.574 178.056 331.926C177.416 332.278 176.42 332.177 177.094 330.413C177.768 328.648 178.591 326.301 178.591 326.301C178.591 326.301 175.973 330.6 175.27 331.839C174.875 332.538 172.912 332.109 173.749 330.461L176.242 325.554L171.661 331.68C170.698 332.972 167.945 332.23 169.654 329.8C170.992 327.872 173.841 323.978 173.841 323.978C173.841 323.978 169.221 328.003 167.69 328.836C166.16 329.67 165.202 328.513 166.959 326.701C168.715 324.889 174.659 319.143 176.454 317.755C178.249 316.367 193.115 314.762 193.115 314.762Z" fill="url(#paint47_linear_65_450)"/>
<path d="M206.903 237.232C207.264 234.268 207.581 223.095 200.237 218.642C192.893 214.188 181.651 218.502 179.803 223.944C177.955 229.385 180.824 234.47 180.766 236.567C180.786 239.326 181.275 242.06 182.21 244.655C183.807 248.911 186.137 252.198 189.26 252.517C192.6 252.849 205.82 246.173 206.903 237.232Z" fill="url(#paint48_linear_65_450)"/>
<path d="M180.145 223.818C180.145 223.818 178.413 226.734 179.885 231.718C181.358 236.702 181.122 238.081 181.223 240.004C181.574 246.535 186.517 251.36 186.517 251.36C186.517 251.36 181.079 255.148 176.892 250.535C170.559 243.58 178.48 225.385 178.48 225.385C178.48 225.385 177.402 217.779 184.202 213.769C191.368 209.546 206.311 210.689 210.04 220.261C213.77 229.834 213.371 238.678 219.632 247.041C215.618 251.278 209.684 255.515 203.75 253.977C195.714 251.895 199.496 241.3 199.819 238.818C200.897 230.46 193.456 229.549 185.694 228.696C181.026 228.204 180.145 223.818 180.145 223.818Z" fill="url(#paint49_linear_65_450)"/>
<path d="M185.14 238.182C185.14 238.182 184.606 242.52 184.549 243.306C184.491 244.091 185.439 245.234 186.926 244.404" stroke="#2E405C" stroke-miterlimit="10" stroke-linecap="round"/>
<path d="M190.627 238.302C191.238 238.302 191.734 237.806 191.734 237.194C191.734 236.581 191.238 236.085 190.627 236.085C190.015 236.085 189.52 236.581 189.52 237.194C189.52 237.806 190.015 238.302 190.627 238.302Z" fill="#2E405C"/>
<path d="M182.604 238.919C183.216 238.919 183.711 238.423 183.711 237.811C183.711 237.198 183.216 236.702 182.604 236.702C181.993 236.702 181.497 237.198 181.497 237.811C181.497 238.423 181.993 238.919 182.604 238.919Z" fill="#2E405C"/>
<path d="M189.096 233.55C189.096 233.55 190.718 232.017 192.865 233.55" stroke="#2E405C" stroke-miterlimit="10" stroke-linecap="round"/>
<path d="M180.386 234.268C180.386 234.268 182.008 232.74 184.154 234.268" stroke="#2E405C" stroke-miterlimit="10" stroke-linecap="round"/>
<path d="M189.096 247.282C189.096 247.282 192.542 246.13 192.465 242.881" stroke="#2E405C" stroke-miterlimit="10" stroke-linecap="round"/>
<path d="M259.994 275.571C259.994 275.571 257.978 232.788 256.062 218.025C254.479 205.811 234.146 207.286 233.992 221.307C233.915 228.335 237.274 269.473 237.274 269.473L259.994 275.571Z" fill="url(#paint50_linear_65_450)"/>
<path d="M254.152 274.009C254.152 274.009 242.491 244.159 236.379 229.342C230.267 214.525 236.379 210.014 251.659 206.471C266.939 202.928 291.699 200.099 297.488 215.687C303.278 231.275 322.966 292.407 322.966 292.407L254.152 274.009Z" fill="url(#paint51_linear_65_450)"/>
<path d="M241.967 209.604C241.967 209.604 247.347 221.519 251.592 222.946C255.855 220.565 266.356 204.027 266.356 204.027C266.356 204.027 258.363 198.046 258.469 189.297L244.084 192.03C244.084 192.03 246.774 206.394 241.967 209.604Z" fill="url(#paint52_linear_65_450)"/>
<path d="M264.099 201.974C264.099 201.974 263.445 213.344 251.587 222.97L256.029 220.492L263.469 225.351C263.469 225.351 265.875 211.011 266.356 204.027L264.099 201.974Z" fill="url(#paint53_linear_65_450)"/>
<path d="M251.577 222.946L247.756 222.107L245.133 229L241.967 209.604L244.171 206.124C243.824 209.332 244.326 212.575 245.626 215.528C246.926 218.481 248.978 221.039 251.577 222.946Z" fill="url(#paint54_linear_65_450)"/>
<path d="M317.157 249.123C310.208 237.642 303.157 222.82 294.389 210.795C287.141 200.851 270.019 211.932 276.612 224.291C279.918 230.489 293.937 252.772 300.275 260.812C306.613 268.851 323.991 260.402 317.157 249.123Z" fill="url(#paint55_linear_65_450)"/>
<path d="M265.394 254.955C265.394 254.955 250.899 258.951 243.795 260.614C237.818 262.017 236.471 261.467 230.777 260.59C225.084 259.713 220.633 259.626 217.923 262.605C215.404 265.401 213.038 268.331 210.834 271.382C210.132 272.38 211.292 274.64 213.491 273.026C214.54 272.254 218.044 268.244 219.064 267.078C219.064 267.078 218.101 271.054 218.583 272.462C219.064 273.869 221.249 274.211 223.265 272.548C223.265 272.548 224.083 277.195 227.245 274.452C227.245 274.452 230.219 276.655 232.621 274.39C235.022 272.124 238.155 272.462 240.234 272.756C242.313 273.05 269.143 269.815 269.143 269.815L265.394 254.955Z" fill="url(#paint56_linear_65_450)"/>
<path d="M247.52 259.708C247.52 259.708 298.6 244.959 304.019 243.99C318.726 241.363 325.675 260.253 307.869 264.123C290.063 267.994 252.097 271.739 252.097 271.739C252.097 271.739 251.89 261.969 247.52 259.708Z" fill="url(#paint57_linear_65_450)"/>
<path d="M261.847 197.993C262.121 194.754 262.035 182.569 253.868 178.019C245.701 173.469 233.655 178.587 231.841 184.583C230.027 190.58 233.357 195.992 233.357 198.277C233.492 201.279 234.133 204.237 235.253 207.025C237.178 211.59 239.82 215.08 243.232 215.301C246.885 215.542 261.01 207.758 261.847 197.993Z" fill="url(#paint58_linear_65_450)"/>
<path d="M254.325 176.259C254.325 176.259 247.876 170.229 238.925 175.262C232.019 179.118 228.217 183.687 227.693 187.35C227.168 191.013 231.783 192.17 231.783 192.17C231.783 192.17 231.302 190.387 233.521 189.842C236.264 189.158 238.006 193.288 241.764 188.584C245.523 183.88 251.197 188.285 252.029 191.216C252.862 194.146 253.805 201.468 252.029 205.444C250.841 208.11 246.476 205.787 243.227 205.95C241.505 206.037 241.586 206.813 240.821 206.914C240.056 207.016 239.762 206.346 238.785 206.958C236.264 208.539 234.935 207.368 233.804 202.032C233.804 202.032 234.897 206.592 235.523 211.19C236.148 215.788 237.298 219.244 241.894 219.345C246.49 219.446 257.294 214.116 255.461 203.28C254.643 198.484 254.585 195.038 257.083 194.204C259.431 193.423 262.655 196.807 258.647 202.369C257.631 203.781 258.464 205.816 259.556 204.182C260.649 202.548 265.374 198.475 264.6 190.377C264.253 186.82 262.776 177.233 254.325 176.259Z" fill="url(#paint59_linear_65_450)"/>
<path d="M238.747 199.858C238.747 199.858 238.213 204.196 238.15 204.982C238.088 205.767 239.045 206.91 240.528 206.081" stroke="#2E405C" stroke-miterlimit="10" stroke-linecap="round"/>
<path d="M244.233 199.979C244.844 199.979 245.34 199.482 245.34 198.87C245.34 198.258 244.844 197.761 244.233 197.761C243.622 197.761 243.126 198.258 243.126 198.87C243.126 199.482 243.622 199.979 244.233 199.979Z" fill="#2E405C"/>
<path d="M236.206 200.595C236.817 200.595 237.313 200.099 237.313 199.487C237.313 198.875 236.817 198.378 236.206 198.378C235.595 198.378 235.099 198.875 235.099 199.487C235.099 200.099 235.595 200.595 236.206 200.595Z" fill="#2E405C"/>
<path d="M242.698 195.226C242.698 195.226 244.32 193.693 246.471 195.226" stroke="#2E405C" stroke-miterlimit="10" stroke-linecap="round"/>
<path d="M233.992 195.935C233.992 195.935 235.614 194.402 237.76 195.935" stroke="#2E405C" stroke-miterlimit="10" stroke-linecap="round"/>
<path d="M241.331 210.65C241.331 210.65 244.055 210.462 244.055 207.107" stroke="white" stroke-miterlimit="10" stroke-linecap="round"/>
<path d="M340.575 149.373H276.467C272.179 149.373 268.096 151.209 265.249 154.416L260.013 160.315V120.516C260.013 119.996 260.114 119.481 260.313 119C260.511 118.519 260.802 118.083 261.169 117.715C261.536 117.347 261.972 117.055 262.451 116.856C262.931 116.656 263.445 116.554 263.964 116.554H340.575C341.094 116.554 341.608 116.656 342.088 116.856C342.567 117.055 343.003 117.347 343.37 117.715C343.737 118.083 344.028 118.519 344.226 119C344.425 119.481 344.526 119.996 344.526 120.516V145.411C344.526 145.931 344.425 146.446 344.226 146.927C344.028 147.408 343.737 147.845 343.37 148.213C343.003 148.581 342.567 148.872 342.088 149.072C341.608 149.271 341.094 149.373 340.575 149.373Z" fill="url(#paint60_linear_65_450)"/>
<path d="M107.813 189.775H174.19C177.05 189.775 179.773 190.999 181.671 193.138L188.394 200.716V160.917C188.394 160.397 188.291 159.882 188.093 159.401C187.894 158.92 187.602 158.484 187.235 158.116C186.868 157.748 186.432 157.456 185.952 157.257C185.472 157.058 184.957 156.955 184.438 156.955H107.813C106.765 156.956 105.76 157.374 105.019 158.117C104.278 158.86 103.862 159.867 103.862 160.917V185.813C103.862 186.863 104.278 187.87 105.019 188.612C105.76 189.355 106.765 189.773 107.813 189.775Z" fill="white"/>
<path d="M174.332 167.424H117.924C117.146 167.424 116.514 168.057 116.514 168.836V168.841C116.514 169.621 117.146 170.254 117.924 170.254H174.332C175.11 170.254 175.742 169.621 175.742 168.841V168.836C175.742 168.057 175.11 167.424 174.332 167.424Z" fill="url(#paint61_linear_65_450)"/>
<path d="M140.644 177.045H117.924C117.146 177.045 116.514 177.677 116.514 178.457V178.462C116.514 179.242 117.146 179.874 117.924 179.874H140.644C141.423 179.874 142.054 179.242 142.054 178.462V178.457C142.054 177.677 141.423 177.045 140.644 177.045Z" fill="url(#paint62_linear_65_450)"/>
<path fill-rule="evenodd" clip-rule="evenodd" d="M302.152 127.044V132.647L302.251 132.66L302.352 132.718L302.928 133.139L303.504 133.572L303.948 133.959L304.391 134.346L304.929 134.894L305.468 135.441L305.666 135.669L305.864 135.896L306.129 136.245L306.394 136.593L306.659 137.014L306.924 137.435L307.053 137.657L307.181 137.878L307.264 138.033L307.346 138.189L307.542 138.619L307.738 139.05L307.899 139.518L308.072 140.069L308.096 139.967L308.18 139.473L308.277 138.986L308.431 138.41L308.585 137.834L308.713 137.457L308.841 137.081L309.029 136.593L309.218 136.106L309.672 135.203L310.125 134.299L309.817 133.868L309.508 133.437L309.175 133.021L308.841 132.605L308.449 132.162L308.056 131.719L307.354 131.03L306.652 130.34L306.121 129.886L305.59 129.432L304.969 128.954L304.347 128.476L303.748 128.058L303.149 127.639L302.68 127.342L302.152 127.044ZM292.758 128.772V128.766L292.705 128.889L292.758 128.772ZM292.277 129.559L291.878 130.257L291.443 131.01L291.008 131.763L290.854 132.029L290.7 132.295L290.616 132.442L290.532 132.588L290.363 132.885L290.193 133.181L289.949 133.602L289.705 134.023L289.359 134.621L289.013 135.22L288.598 135.94L288.184 136.66L287.769 137.38L287.354 138.1L287.012 138.691L286.67 139.281L286.474 139.614L286.277 139.946V140.013V140.079L287.33 140.051L288.383 140.023L288.782 139.979L289.181 139.936L289.492 139.873L289.802 139.809L290.259 139.673L290.716 139.538L291.124 139.355L291.531 139.172L291.909 138.945L292.287 138.718L292.619 138.468L292.95 138.218L293.338 137.822L293.726 137.425V137.371V137.318L293.534 137.066L293.342 136.815L293.127 136.46L292.913 136.106L292.662 135.617L292.411 135.128L292.248 134.62L292.084 134.112L292.022 133.78L291.959 133.447L291.908 132.907L291.856 132.367L291.904 131.839L291.952 131.31L292.042 130.872L292.131 130.434L292.267 130.02L292.402 129.607L292.554 129.248L292.705 128.889L292.758 128.766L292.277 129.559ZM281 135.742V140.072H283.176H285.353L285.327 139.95L285.302 139.828L285.194 139.208L285.086 138.587L284.975 138.164L284.865 137.74L284.665 137.143L284.465 136.546L284.195 135.949L283.925 135.353L283.653 134.865L283.38 134.378L283.104 133.951L282.827 133.523L282.526 133.131L282.226 132.738L281.86 132.317L281.495 131.896L281.247 131.654L281 131.412V135.742ZM318.603 135.681V140.072H320.828H323L322.993 140.06L322.861 139.314L322.77 138.801L322.636 138.253L322.502 137.705L322.322 137.173L322.141 136.641L321.899 136.086L321.657 135.53L321.431 135.109L321.205 134.688L320.984 134.333L320.763 133.979L320.604 133.735L320.445 133.492L320.01 132.931L319.574 132.37L319.128 131.9L318.6 131.336L318.603 131.431V135.681Z" fill="#DDDDDD"/>
<path fill-rule="evenodd" clip-rule="evenodd" d="M281 129.206V131.412L281.247 131.654L281.495 131.896L281.86 132.317L282.226 132.738L282.526 133.131L282.827 133.523L283.104 133.951L283.38 134.378L283.653 134.865L283.925 135.353L284.194 135.945L284.462 136.538L284.677 137.186L284.891 137.834L285.008 138.299L285.124 138.764L285.23 139.363L285.336 139.961L285.341 133.48L285.346 127H283.173H281V129.206ZM318.6 127V131.336L319.108 131.879L319.568 132.363L320.007 132.927L320.445 133.491L320.604 133.735L320.763 133.979L320.984 134.333L321.205 134.688L321.431 135.109L321.657 135.53L321.899 136.086L322.141 136.641L322.322 137.175L322.503 137.708L322.641 138.273L322.989 140.059V133.48L322.993 127H320.82H318.6ZM293.696 127.1L293.66 127.155L293.612 127.244L293.563 127.332L293.193 127.972L292.824 128.611L292.615 129.103L292.406 129.595L292.269 130.015L292.131 130.434L292.042 130.872L291.952 131.31L291.904 131.838L291.856 132.367L291.908 132.907L291.959 133.447L292.022 133.78L292.084 134.112L292.248 134.62L292.411 135.128L292.662 135.617L292.913 136.106L293.128 136.46L293.343 136.815L293.662 137.236L293.982 137.657L294.242 137.903L294.502 138.15L294.835 138.417L295.168 138.684L295.423 138.846L295.678 139.008L296.022 139.179L296.365 139.351L296.764 139.507L297.163 139.663L297.717 139.798L298.272 139.933L298.693 139.978L299.114 140.023L300.196 140.051L301.278 140.08L301.246 139.999L301.215 139.917L300.315 138.366L299.414 136.815L299.069 136.217L298.723 135.618L298.404 135.065L298.086 134.511L297.664 133.78L297.242 133.048L296.904 132.464L296.566 131.88L296.483 131.733L296.4 131.586L296.143 131.143L295.886 130.7L295.553 130.124L295.22 129.548L294.803 128.817L294.387 128.086L294.09 127.565L293.793 127.045L293.762 127.045L293.732 127.044L293.696 127.1ZM316.443 127.405L315.964 127.766L315.765 127.926L315.565 128.085L314.967 128.595L314.369 129.105L313.657 129.814L312.944 130.523L312.723 130.766L312.502 131.01L312.148 131.431L311.794 131.852L311.525 132.206L311.256 132.561L311.033 132.874L310.81 133.187L310.531 133.627L310.251 134.068L309.734 135.087L309.217 136.106L309.029 136.593L308.841 137.081L308.713 137.457L308.585 137.834L308.447 138.344L308.309 138.853L308.186 139.444L308.065 140.072L312.572 140.061L316.984 140.049L316.995 133.547L317.007 127.044L316.443 127.405ZM302.162 136.338L302.174 140.049L304.334 140.061L306.495 140.072L306.507 138.421L306.519 136.77L306.206 136.349L305.893 135.928L305.68 135.684L305.468 135.441L304.929 134.894L304.391 134.346L303.948 133.959L303.504 133.573L302.972 133.175L302.44 132.778L302.33 132.703L302.151 132.581V132.627L302.162 136.338Z" fill="white"/>
</g>
<g filter="url(#filter0_dddd_65_450)">
<rect x="53" y="21" width="216" height="54" rx="10" fill="#F5F5F5" shape-rendering="crispEdges"/>
<rect x="53" y="21" width="216" height="54" rx="10" stroke="url(#paint63_linear_65_450)" stroke-width="1.5" shape-rendering="crispEdges"/>
<path fill-rule="evenodd" clip-rule="evenodd" d="M161.302 35.0435V46.2121L161.501 46.2386L161.701 46.3546L162.849 47.1943L163.999 48.057L164.883 48.8289L165.767 49.6008L166.84 50.6921L167.913 51.7833L168.309 52.2364L168.704 52.6895L169.232 53.3848L169.76 54.0801L170.288 54.9193L170.816 55.7584L171.073 56.2001L171.329 56.6418L171.493 56.951L171.657 57.2602L172.048 58.1192L172.438 58.9782L172.761 59.9109L173.104 61.0096L173.152 60.8066L173.32 59.8219L173.514 58.8503L173.821 57.7019L174.128 56.5535L174.383 55.8026L174.638 55.0518L175.014 54.0801L175.39 53.1084L176.294 51.3076L177.198 49.5069L176.583 48.6475L175.968 47.7883L175.303 46.959L174.639 46.1297L173.856 45.2464L173.074 44.363L171.674 42.9889L170.275 41.6146L169.216 40.7087L168.158 39.8027L166.918 38.8501L165.678 37.8974L164.485 37.0635L163.291 36.2297L162.356 35.6366L161.302 35.0435ZM142.574 38.4886V38.4763L142.47 38.7214L142.574 38.4886ZM141.617 40.056L140.821 41.4479L139.954 42.9496L139.088 44.4513L138.78 44.9814L138.473 45.5114L138.306 45.8037L138.138 46.0961L137.8 46.6871L137.462 47.2782L136.975 48.1173L136.488 48.9565L135.799 50.1491L135.109 51.3417L134.282 52.7771L133.456 54.2126L132.629 55.648L131.803 57.0835L131.121 58.261L130.439 59.4383L130.047 60.1012L129.655 60.7641V60.897V61.0299L131.754 60.9733L133.854 60.9169L134.649 60.8304L135.445 60.744L136.064 60.6177L136.682 60.4915L137.594 60.2207L138.505 59.9498L139.317 59.5855L140.13 59.2211L140.883 58.7688L141.637 58.3166L142.298 57.8178L142.959 57.319L143.733 56.5288L144.506 55.7387V55.6314V55.5242L144.123 55.023L143.74 54.5218L143.312 53.815L142.884 53.1084L142.384 52.1333L141.883 51.1582L141.558 50.1457L141.232 49.1332L141.107 48.4707L140.983 47.8081L140.88 46.7312L140.777 45.6543L140.873 44.6011L140.969 43.5478L141.147 42.6745L141.325 41.8013L141.596 40.9764L141.866 40.1515L142.168 39.4365L142.47 38.7214L142.574 38.4763L141.617 40.056ZM119.135 52.3826V61.0145H123.474H127.812L127.762 60.7716L127.711 60.5287L127.496 59.292L127.281 58.0552L127.06 57.2109L126.84 56.3666L126.442 55.1761L126.044 53.9857L125.505 52.7962L124.967 51.6067L124.423 50.6349L123.88 49.6633L123.329 48.8116L122.777 47.9599L122.178 47.1774L121.578 46.3948L120.85 45.5556L120.121 44.7164L119.628 44.2335L119.135 43.7507V52.3826ZM194.099 52.2619V61.0145H198.536H202.865L202.851 60.9902L202.587 59.5047L202.406 58.4808L202.139 57.3883L201.872 56.2958L201.513 55.2359L201.153 54.1758L200.67 53.0679L200.188 51.96L199.737 51.1208L199.287 50.2816L198.846 49.5749L198.406 48.8682L198.089 48.3823L197.772 47.8965L196.904 46.7783L196.034 45.6599L195.147 44.7244L194.094 43.599L194.099 43.7889V52.2619Z" fill="#452262"/>
<path fill-rule="evenodd" clip-rule="evenodd" d="M119.135 39.3528V43.7505L119.628 44.2334L120.121 44.7163L120.85 45.5554L121.578 46.3947L122.178 47.1772L122.777 47.9598L123.329 48.8115L123.88 49.6631L124.423 50.6348L124.967 51.6065L125.501 52.7881L126.036 53.9697L126.465 55.2615L126.893 56.5534L127.125 57.4809L127.357 58.4085L127.568 59.601L127.779 60.7935L127.789 47.8742L127.798 34.955H123.467H119.135V39.3528ZM194.094 34.955V43.5989L195.105 44.6819L196.024 45.6459L196.898 46.7711L197.772 47.8964L198.089 48.3822L198.406 48.868L198.846 49.5748L199.287 50.2815L199.737 51.1206L200.188 51.9599L200.67 53.0678L201.153 54.1757L201.514 55.2395L201.875 56.3032L202.148 57.428L202.843 60.9901V47.8742L202.851 34.955H198.519H194.094ZM144.445 35.1538L144.374 35.2642L144.277 35.4409L144.18 35.6175L143.443 36.8922L142.706 38.1669L142.29 39.1479L141.874 40.129L141.6 40.9651L141.325 41.8011L141.147 42.6744L140.969 43.5476L140.873 44.6009L140.777 45.6542L140.88 46.7311L140.983 47.808L141.107 48.4706L141.232 49.1331L141.558 50.1456L141.883 51.158L142.384 52.1332L142.884 53.1082L143.313 53.8149L143.741 54.5216L144.378 55.3608L145.015 56.2L145.534 56.6919L146.053 57.1837L146.716 57.7155L147.379 58.2471L147.888 58.5702L148.397 58.8932L149.082 59.2351L149.766 59.5771L150.562 59.8882L151.357 60.1995L152.462 60.4686L153.567 60.7376L154.407 60.8271L155.247 60.9166L157.403 60.9742L159.56 61.0319L159.497 60.8686L159.435 60.7054L157.64 57.6135L155.845 54.5216L155.156 53.3291L154.467 52.1365L153.832 51.0323L153.197 49.9281L152.355 48.4706L151.514 47.013L150.841 45.8488L150.168 44.6846L150.001 44.3912L149.835 44.0979L149.323 43.2145L148.81 42.3312L148.147 41.1827L147.483 40.0344L146.653 38.5768L145.823 37.1192L145.231 36.0823L144.639 35.0453L144.578 35.0443L144.516 35.0433L144.445 35.1538ZM189.794 35.7629L188.839 36.4826L188.441 36.8003L188.043 37.1179L186.852 38.1345L185.659 39.151L184.238 40.5644L182.817 41.9778L182.377 42.4637L181.937 42.9495L181.231 43.7887L180.526 44.6279L179.99 45.3346L179.453 46.0413L179.009 46.6655L178.564 47.2896L178.007 48.1672L177.45 49.0447L176.419 51.0765L175.387 53.1082L175.013 54.08L174.638 55.0516L174.384 55.8025L174.128 56.5534L173.853 57.5692L173.578 58.5851L173.332 59.7632L173.091 61.0158L182.077 60.993L190.872 60.9702L190.895 48.0068L190.917 35.0433L189.794 35.7629ZM161.324 53.572L161.347 60.9702L165.654 60.9931L169.961 61.016L169.986 57.7246L170.01 54.4333L169.385 53.593L168.76 52.7529L168.337 52.268L167.913 51.7832L166.84 50.692L165.767 49.6007L164.883 48.8294L163.999 48.0581L162.938 47.2655L161.877 46.473L161.658 46.3234L161.301 46.0822V46.1738L161.324 53.572Z" fill="#F55B1D"/>
</g>
<defs>
<filter id="filter0_dddd_65_450" x="0.25" y="0.25" width="321.5" height="159.5" filterUnits="userSpaceOnUse" color-interpolation-filters="sRGB">
<feFlood flood-opacity="0" result="BackgroundImageFix"/>
<feColorMatrix in="SourceAlpha" type="matrix" values="0 0 0 0 0 0 0 0 0 0 0 0 0 0 0 0 0 0 127 0" result="hardAlpha"/>
<feOffset dy="6"/>
<feGaussianBlur stdDeviation="6.5"/>
<feComposite in2="hardAlpha" operator="out"/>
<feColorMatrix type="matrix" values="0 0 0 0 0.0313726 0 0 0 0 0.0313726 0 0 0 0 0.0313726 0 0 0 0.03 0"/>
<feBlend mode="normal" in2="BackgroundImageFix" result="effect1_dropShadow_65_450"/>
<feColorMatrix in="SourceAlpha" type="matrix" values="0 0 0 0 0 0 0 0 0 0 0 0 0 0 0 0 0 0 127 0" result="hardAlpha"/>
<feMorphology radius="16" operator="erode" in="SourceAlpha" result="effect2_dropShadow_65_450"/>
<feOffset dy="24"/>
<feGaussianBlur stdDeviation="12"/>
<feComposite in2="hardAlpha" operator="out"/>
<feColorMatrix type="matrix" values="0 0 0 0 0.0313726 0 0 0 0 0.0313726 0 0 0 0 0.0313726 0 0 0 0.04 0"/>
<feBlend mode="normal" in2="effect1_dropShadow_65_450" result="effect2_dropShadow_65_450"/>
<feColorMatrix in="SourceAlpha" type="matrix" values="0 0 0 0 0 0 0 0 0 0 0 0 0 0 0 0 0 0 127 0" result="hardAlpha"/>
<feMorphology radius="2" operator="erode" in="SourceAlpha" result="effect3_dropShadow_65_450"/>
<feOffset dy="2.15"/>
<feGaussianBlur stdDeviation="0.25"/>
<feComposite in2="hardAlpha" operator="out"/>
<feColorMatrix type="matrix" values="0 0 0 0 0 0 0 0 0 0 0 0 0 0 0 0 0 0 0.25 0"/>
<feBlend mode="normal" in2="effect2_dropShadow_65_450" result="effect3_dropShadow_65_450"/>
<feColorMatrix in="SourceAlpha" type="matrix" values="0 0 0 0 0 0 0 0 0 0 0 0 0 0 0 0 0 0 127 0" result="hardAlpha"/>
<feMorphology radius="12" operator="erode" in="SourceAlpha" result="effect4_dropShadow_65_450"/>
<feOffset dy="32"/>
<feGaussianBlur stdDeviation="32"/>
<feComposite in2="hardAlpha" operator="out"/>
<feColorMatrix type="matrix" values="0 0 0 0 0 0 0 0 0 0 0 0 0 0 0 0 0 0 0.075 0"/>
<feBlend mode="multiply" in2="effect3_dropShadow_65_450" result="effect4_dropShadow_65_450"/>
<feBlend mode="normal" in="SourceGraphic" in2="effect4_dropShadow_65_450" result="shape"/>
</filter>
<linearGradient id="paint0_linear_65_450" x1="90.1947" y1="334.495" x2="90.1947" y2="396.148" gradientUnits="userSpaceOnUse">
<stop stop-color="white"/>
<stop offset="1" stop-color="#AEBDDF"/>
</linearGradient>
<linearGradient id="paint1_linear_65_450" x1="-nan" y1="-nan" x2="-nan" y2="-nan" gradientUnits="userSpaceOnUse">
<stop stop-color="#5D6E8C"/>
<stop offset="1" stop-color="#2E405C"/>
</linearGradient>
<linearGradient id="paint2_linear_65_450" x1="-nan" y1="-nan" x2="-nan" y2="-nan" gradientUnits="userSpaceOnUse">
<stop stop-color="#5D6E8C"/>
<stop offset="1" stop-color="#2E405C"/>
</linearGradient>
<linearGradient id="paint3_linear_65_450" x1="90.1947" y1="337.753" x2="90.1947" y2="316.28" gradientUnits="userSpaceOnUse">
<stop stop-color="#ACBDDE"/>
<stop offset="1" stop-color="#2E405C"/>
</linearGradient>
<linearGradient id="paint4_linear_65_450" x1="90.1947" y1="365.7" x2="90.1947" y2="314.333" gradientUnits="userSpaceOnUse">
<stop stop-color="#ACBDDE"/>
<stop offset="1" stop-color="#2E405C"/>
</linearGradient>
<linearGradient id="paint5_linear_65_450" x1="64.6114" y1="302.953" x2="133.584" y2="302.953" gradientUnits="userSpaceOnUse">
<stop stop-color="white"/>
<stop offset="1" stop-color="#AEBDDF"/>
</linearGradient>
<linearGradient id="paint6_linear_65_450" x1="110.561" y1="279.995" x2="50.044" y2="279.995" gradientUnits="userSpaceOnUse">
<stop stop-color="#ACBDDE"/>
<stop offset="1" stop-color="#2E405C"/>
</linearGradient>
<linearGradient id="paint7_linear_65_450" x1="90.1947" y1="256.122" x2="90.1947" y2="286.175" gradientUnits="userSpaceOnUse">
<stop stop-color="#ACBDDE"/>
<stop offset="1" stop-color="#2E405C"/>
</linearGradient>
<linearGradient id="paint8_linear_65_450" x1="157.733" y1="300.919" x2="87.4304" y2="231.683" gradientUnits="userSpaceOnUse">
<stop stop-color="#79D985"/>
<stop offset="1" stop-color="#027A71"/>
</linearGradient>
<linearGradient id="paint9_linear_65_450" x1="43.653" y1="235.357" x2="56.6688" y2="274.836" gradientUnits="userSpaceOnUse">
<stop stop-color="#79D985"/>
<stop offset="1" stop-color="#027A71"/>
</linearGradient>
<linearGradient id="paint10_linear_65_450" x1="118.848" y1="180.274" x2="10.3797" y2="263.261" gradientUnits="userSpaceOnUse">
<stop stop-color="#79D985"/>
<stop offset="1" stop-color="#027A71"/>
</linearGradient>
<linearGradient id="paint11_linear_65_450" x1="125.73" y1="139.449" x2="119.942" y2="196.593" gradientUnits="userSpaceOnUse">
<stop stop-color="#79D985"/>
<stop offset="1" stop-color="#027A71"/>
</linearGradient>
<linearGradient id="paint12_linear_65_450" x1="178.085" y1="90.391" x2="89.9737" y2="252.016" gradientUnits="userSpaceOnUse">
<stop stop-color="#79D985"/>
<stop offset="1" stop-color="#027A71"/>
</linearGradient>
<linearGradient id="paint13_linear_65_450" x1="28.0605" y1="232.812" x2="59.7563" y2="179.566" gradientUnits="userSpaceOnUse">
<stop stop-color="#79D985"/>
<stop offset="1" stop-color="#027A71"/>
</linearGradient>
<linearGradient id="paint14_linear_65_450" x1="-nan" y1="-nan" x2="-nan" y2="-nan" gradientUnits="userSpaceOnUse">
<stop stop-color="#5D6E8C"/>
<stop offset="1" stop-color="#2E405C"/>
</linearGradient>
<linearGradient id="paint15_linear_65_450" x1="208.77" y1="487.149" x2="208.77" y2="346.878" gradientUnits="userSpaceOnUse">
<stop stop-color="white"/>
<stop offset="1" stop-color="#AEBDDF"/>
</linearGradient>
<linearGradient id="paint16_linear_65_450" x1="258.392" y1="461.425" x2="258.392" y2="407.904" gradientUnits="userSpaceOnUse">
<stop stop-color="#ACBDDE"/>
<stop offset="1" stop-color="#2E405C"/>
</linearGradient>
<linearGradient id="paint17_linear_65_450" x1="320.304" y1="439.855" x2="320.304" y2="405.658" gradientUnits="userSpaceOnUse">
<stop stop-color="#ACBDDE"/>
<stop offset="1" stop-color="#2E405C"/>
</linearGradient>
<linearGradient id="paint18_linear_65_450" x1="110.133" y1="420.084" x2="110.133" y2="383.857" gradientUnits="userSpaceOnUse">
<stop stop-color="#ACBDDE"/>
<stop offset="1" stop-color="#2E405C"/>
</linearGradient>
<linearGradient id="paint19_linear_65_450" x1="246.298" y1="203.314" x2="246.298" y2="379.769" gradientUnits="userSpaceOnUse">
<stop stop-color="white"/>
<stop offset="1" stop-color="#AEBDDF"/>
</linearGradient>
<linearGradient id="paint20_linear_65_450" x1="333.332" y1="233.304" x2="333.332" y2="332.948" gradientUnits="userSpaceOnUse">
<stop stop-color="white"/>
<stop offset="1" stop-color="#AEBDDF"/>
</linearGradient>
<linearGradient id="paint21_linear_65_450" x1="280.842" y1="268.972" x2="172.906" y2="462.95" gradientUnits="userSpaceOnUse">
<stop stop-color="white"/>
<stop offset="1" stop-color="#AEBDDF"/>
</linearGradient>
<linearGradient id="paint22_linear_65_450" x1="127.549" y1="214.352" x2="127.549" y2="375.417" gradientUnits="userSpaceOnUse">
<stop stop-color="white"/>
<stop offset="1" stop-color="#AEBDDF"/>
</linearGradient>
<linearGradient id="paint23_linear_65_450" x1="213.63" y1="251.413" x2="213.63" y2="443.364" gradientUnits="userSpaceOnUse">
<stop stop-color="white"/>
<stop offset="1" stop-color="#AEBDDF"/>
</linearGradient>
<linearGradient id="paint24_linear_65_450" x1="304.606" y1="295.236" x2="304.606" y2="436.896" gradientUnits="userSpaceOnUse">
<stop stop-color="white"/>
<stop offset="1" stop-color="#AEBDDF"/>
</linearGradient>
<linearGradient id="paint25_linear_65_450" x1="177.763" y1="418.59" x2="177.763" y2="187.427" gradientUnits="userSpaceOnUse">
<stop stop-color="white"/>
<stop offset="1" stop-color="#AEBDDF"/>
</linearGradient>
<linearGradient id="paint26_linear_65_450" x1="177.758" y1="356.089" x2="177.758" y2="456.248" gradientUnits="userSpaceOnUse">
<stop stop-color="white"/>
<stop offset="1" stop-color="#AEBDDF"/>
</linearGradient>
<linearGradient id="paint27_linear_65_450" x1="60.2321" y1="353.698" x2="180.054" y2="353.698" gradientUnits="userSpaceOnUse">
<stop stop-color="white"/>
<stop offset="1" stop-color="#AEBDDF"/>
</linearGradient>
<linearGradient id="paint28_linear_65_450" x1="131.021" y1="445.768" x2="130.875" y2="391.09" gradientUnits="userSpaceOnUse">
<stop stop-color="#FFD2BB"/>
<stop offset="1" stop-color="#FF6B5A"/>
</linearGradient>
<linearGradient id="paint29_linear_65_450" x1="127.357" y1="414.555" x2="127.357" y2="455.304" gradientUnits="userSpaceOnUse">
<stop stop-color="white"/>
<stop offset="1" stop-color="#AEBDDF"/>
</linearGradient>
<linearGradient id="paint30_linear_65_450" x1="140.425" y1="439.606" x2="96.8277" y2="460.464" gradientUnits="userSpaceOnUse">
<stop stop-color="#ACBDDE"/>
<stop offset="1" stop-color="#2E405C"/>
</linearGradient>
<linearGradient id="paint31_linear_65_450" x1="154.111" y1="557.111" x2="151.848" y2="307.621" gradientUnits="userSpaceOnUse">
<stop stop-color="#ACBDDE"/>
<stop offset="1" stop-color="#2E405C"/>
</linearGradient>
<linearGradient id="paint32_linear_65_450" x1="97.5011" y1="460.976" x2="124.423" y2="396.654" gradientUnits="userSpaceOnUse">
<stop stop-color="#FFD2BB"/>
<stop offset="1" stop-color="#FF6B5A"/>
</linearGradient>
<linearGradient id="paint33_linear_65_450" x1="156.944" y1="435.869" x2="156.944" y2="322.561" gradientUnits="userSpaceOnUse">
<stop stop-color="#ACBDDE"/>
<stop offset="1" stop-color="#2E405C"/>
</linearGradient>
<linearGradient id="paint34_linear_65_450" x1="91.8983" y1="432.915" x2="91.8983" y2="477.336" gradientUnits="userSpaceOnUse">
<stop stop-color="white"/>
<stop offset="1" stop-color="#AEBDDF"/>
</linearGradient>
<linearGradient id="paint35_linear_65_450" x1="115.184" y1="463.049" x2="51.589" y2="470.491" gradientUnits="userSpaceOnUse">
<stop stop-color="#ACBDDE"/>
<stop offset="1" stop-color="#2E405C"/>
</linearGradient>
<linearGradient id="paint36_linear_65_450" x1="171.309" y1="328.885" x2="171.309" y2="244.901" gradientUnits="userSpaceOnUse">
<stop stop-color="#FFD2BB"/>
<stop offset="1" stop-color="#FF6B5A"/>
</linearGradient>
<linearGradient id="paint37_linear_65_450" x1="194.154" y1="230.802" x2="194.154" y2="407.668" gradientUnits="userSpaceOnUse">
<stop stop-color="#FFEFA4"/>
<stop offset="1" stop-color="#FE8F01"/>
</linearGradient>
<linearGradient id="paint38_linear_65_450" x1="248.112" y1="291.674" x2="142.559" y2="291.674" gradientUnits="userSpaceOnUse">
<stop stop-color="#FFEFA4"/>
<stop offset="1" stop-color="#FE8F01"/>
</linearGradient>
<linearGradient id="paint39_linear_65_450" x1="195.752" y1="288.951" x2="195.752" y2="241.647" gradientUnits="userSpaceOnUse">
<stop stop-color="#FFD2BB"/>
<stop offset="1" stop-color="#FF6B5A"/>
</linearGradient>
<linearGradient id="paint40_linear_65_450" x1="156.386" y1="293.072" x2="155.131" y2="349.182" gradientUnits="userSpaceOnUse">
<stop stop-color="white"/>
<stop offset="1" stop-color="#AEBDDF"/>
</linearGradient>
<linearGradient id="paint41_linear_65_450" x1="187.407" y1="327.048" x2="146.236" y2="327.048" gradientUnits="userSpaceOnUse">
<stop stop-color="white"/>
<stop offset="1" stop-color="#AEBDDF"/>
</linearGradient>
<linearGradient id="paint42_linear_65_450" x1="179.077" y1="328.205" x2="98.4" y2="328.205" gradientUnits="userSpaceOnUse">
<stop stop-color="#ACBDDE"/>
<stop offset="1" stop-color="#2E405C"/>
</linearGradient>
<linearGradient id="paint43_linear_65_450" x1="179.986" y1="333.141" x2="103.679" y2="296.938" gradientUnits="userSpaceOnUse">
<stop stop-color="#ACBDDE"/>
<stop offset="1" stop-color="#2E405C"/>
</linearGradient>
<linearGradient id="paint44_linear_65_450" x1="140.124" y1="283.663" x2="140.124" y2="375.354" gradientUnits="userSpaceOnUse">
<stop stop-color="#ACBDDE"/>
<stop offset="1" stop-color="#2E405C"/>
</linearGradient>
<linearGradient id="paint45_linear_65_450" x1="137.776" y1="301.628" x2="137.776" y2="318.295" gradientUnits="userSpaceOnUse">
<stop stop-color="white"/>
<stop offset="1" stop-color="#AEBDDF"/>
</linearGradient>
<linearGradient id="paint46_linear_65_450" x1="222.269" y1="358.031" x2="222.269" y2="224.151" gradientUnits="userSpaceOnUse">
<stop stop-color="#FFD2BB"/>
<stop offset="1" stop-color="#FF6B5A"/>
</linearGradient>
<linearGradient id="paint47_linear_65_450" x1="200.988" y1="358.031" x2="200.988" y2="224.151" gradientUnits="userSpaceOnUse">
<stop stop-color="#FFD2BB"/>
<stop offset="1" stop-color="#FF6B5A"/>
</linearGradient>
<linearGradient id="paint48_linear_65_450" x1="193.115" y1="253.808" x2="193.115" y2="204.818" gradientUnits="userSpaceOnUse">
<stop stop-color="#FFD2BB"/>
<stop offset="1" stop-color="#FF6B5A"/>
</linearGradient>
<linearGradient id="paint49_linear_65_450" x1="197.008" y1="167.81" x2="197.008" y2="253.027" gradientUnits="userSpaceOnUse">
<stop stop-color="#ACBDDE"/>
<stop offset="1" stop-color="#2E405C"/>
</linearGradient>
<linearGradient id="paint50_linear_65_450" x1="246.991" y1="213.499" x2="246.991" y2="285.668" gradientUnits="userSpaceOnUse">
<stop stop-color="#ACBDDE"/>
<stop offset="1" stop-color="#2E405C"/>
</linearGradient>
<linearGradient id="paint51_linear_65_450" x1="278.503" y1="205.203" x2="278.503" y2="320.874" gradientUnits="userSpaceOnUse">
<stop stop-color="#ACBDDE"/>
<stop offset="1" stop-color="#2E405C"/>
</linearGradient>
<linearGradient id="paint52_linear_65_450" x1="263.185" y1="184.902" x2="238.011" y2="226.203" gradientUnits="userSpaceOnUse">
<stop stop-color="#FFD2BB"/>
<stop offset="1" stop-color="#FF6B5A"/>
</linearGradient>
<linearGradient id="paint53_linear_65_450" x1="251.755" y1="224.445" x2="280.641" y2="198.592" gradientUnits="userSpaceOnUse">
<stop stop-color="white"/>
<stop offset="1" stop-color="#AEBDDF"/>
</linearGradient>
<linearGradient id="paint54_linear_65_450" x1="238.848" y1="222.772" x2="256.626" y2="206.86" gradientUnits="userSpaceOnUse">
<stop stop-color="white"/>
<stop offset="1" stop-color="#AEBDDF"/>
</linearGradient>
<linearGradient id="paint55_linear_65_450" x1="296.925" y1="207.088" x2="296.925" y2="351.568" gradientUnits="userSpaceOnUse">
<stop stop-color="#ACBDDE"/>
<stop offset="1" stop-color="#2E405C"/>
</linearGradient>
<linearGradient id="paint56_linear_65_450" x1="198.117" y1="284.648" x2="286.5" y2="248.137" gradientUnits="userSpaceOnUse">
<stop stop-color="#FFD2BB"/>
<stop offset="1" stop-color="#FF6B5A"/>
</linearGradient>
<linearGradient id="paint57_linear_65_450" x1="282.988" y1="207.088" x2="282.988" y2="351.567" gradientUnits="userSpaceOnUse">
<stop stop-color="#ACBDDE"/>
<stop offset="1" stop-color="#2E405C"/>
</linearGradient>
<linearGradient id="paint58_linear_65_450" x1="253.584" y1="181.209" x2="228.415" y2="222.516" gradientUnits="userSpaceOnUse">
<stop stop-color="#FFD2BB"/>
<stop offset="1" stop-color="#FF6B5A"/>
</linearGradient>
<linearGradient id="paint59_linear_65_450" x1="246.158" y1="123.254" x2="246.158" y2="214.492" gradientUnits="userSpaceOnUse">
<stop stop-color="#ACBDDE"/>
<stop offset="1" stop-color="#2E405C"/>
</linearGradient>
<linearGradient id="paint60_linear_65_450" x1="230.128" y1="116.602" x2="471.237" y2="191.081" gradientUnits="userSpaceOnUse">
<stop stop-color="#F55B1D"/>
<stop offset="1" stop-color="#FF966C"/>
</linearGradient>
<linearGradient id="paint61_linear_65_450" x1="187.094" y1="168.841" x2="90.9262" y2="168.841" gradientUnits="userSpaceOnUse">
<stop stop-color="white"/>
<stop offset="1" stop-color="#AEBDDF"/>
</linearGradient>
<linearGradient id="paint62_linear_65_450" x1="187.094" y1="178.457" x2="90.9262" y2="178.457" gradientUnits="userSpaceOnUse">
<stop stop-color="white"/>
<stop offset="1" stop-color="#AEBDDF"/>
</linearGradient>
<linearGradient id="paint63_linear_65_450" x1="161" y1="21" x2="161" y2="75" gradientUnits="userSpaceOnUse">
<stop stop-color="#F55B1D"/>
<stop offset="1" stop-color="#E6E6E6" stop-opacity="0"/>
</linearGradient>
<clipPath id="clip0_65_450">
<rect width="385" height="482" fill="white" transform="translate(6 54)"/>
</clipPath>
</defs>
</svg>
