<svg width="1512" height="738" viewBox="0 0 1512 738" fill="none" xmlns="http://www.w3.org/2000/svg">
<g opacity="0.6">
<path d="M0 202H202.5C213.546 202 222.5 210.954 222.5 222V301.252C222.5 312.298 231.454 321.252 242.5 321.252H356" stroke="#D9D9D9" stroke-width="1.5"/>
<path d="M0 629H202.902C213.948 629 222.902 620.046 222.902 609V530.213C222.902 519.2 231.806 510.259 242.82 510.214L356 509.748" stroke="#D9D9D9" stroke-width="1.5"/>
</g>
<g opacity="0.6">
<path d="M1512 202H1309.5C1298.45 202 1289.5 210.954 1289.5 222V300.135C1289.5 311.181 1280.55 320.135 1269.5 320.135H1156" stroke="#D9D9D9" stroke-width="1.5"/>
<path d="M1512 625H1309.1C1298.05 625 1289.1 616.046 1289.1 605V527.326C1289.1 516.312 1280.19 507.371 1269.18 507.326L1156 506.865" stroke="#D9D9D9" stroke-width="1.5"/>
</g>
<path d="M756.104 -58L756.104 736.981" stroke="#D9D9D9" stroke-width="1.5" stroke-linecap="round" stroke-dasharray="2 6"/>
<path opacity="0.9" d="M565 169V197.492C565 200.809 567.047 203.782 570.145 204.966L648.855 235.034C651.953 236.218 654 239.191 654 242.508V271" stroke="#A8A8A8" stroke-opacity="0.5"/>
<path opacity="0.9" d="M857 271V242.508C857 239.191 859.047 236.218 862.145 235.034L940.855 204.966C943.953 203.782 946 200.809 946 197.492V169" stroke="#A8A8A8" stroke-opacity="0.5"/>
</svg>
