<svg width="138" height="43" viewBox="0 0 138 43" fill="none" xmlns="http://www.w3.org/2000/svg">
<path fill-rule="evenodd" clip-rule="evenodd" d="M69.4983 0.145782V18.5533L69.826 18.5969L70.1553 18.7882L72.0479 20.1721L73.942 21.594L75.399 22.8662L76.856 24.1383L78.6252 25.9369L80.3944 27.7354L81.0457 28.4822L81.6972 29.2291L82.5672 30.375L83.4373 31.5209L84.3078 32.904L85.1783 34.2871L85.6013 35.0151L86.0241 35.7431L86.2945 36.2527L86.5649 36.7622L87.2085 38.178L87.852 39.5937L88.3836 41.131L88.9498 42.9418L89.0282 42.6072L89.305 40.9843L89.6253 39.3829L90.1312 37.4901L90.6372 35.5975L91.0572 34.3599L91.478 33.1224L92.0968 31.5209L92.7167 29.9194L94.2068 26.9515L95.697 23.9836L94.683 22.5673L93.6691 21.151L92.574 19.7843L91.479 18.4176L90.1892 16.9617L88.8991 15.5057L86.5929 13.241L84.2867 10.9759L82.542 9.48287L80.7973 7.98973L78.7539 6.41969L76.7103 4.84944L74.7433 3.475L72.7765 2.10076L71.2349 1.12327L69.4983 0.145782ZM38.632 5.82385V5.80362L38.4599 6.20756L38.632 5.82385ZM37.0536 8.40722L35.7417 10.7012L34.3135 13.1763L32.885 15.6513L32.3787 16.5249L31.8723 17.3985L31.5963 17.8802L31.3203 18.3621L30.7631 19.3361L30.2058 20.3103L29.4033 21.6934L28.6009 23.0766L27.4644 25.042L26.328 27.0076L24.9656 29.3734L23.6032 31.7393L22.2407 34.1052L20.8783 36.471L19.7545 38.4117L18.6309 40.3521L17.9844 41.4446L17.3381 42.5371V42.7562V42.9753L20.7985 42.882L24.2589 42.789L25.5701 42.6465L26.8814 42.504L27.9013 42.2958L28.9211 42.0878L30.4229 41.6415L31.9247 41.195L33.264 40.5947L34.6034 39.994L35.8448 39.2487L37.0862 38.5033L38.176 37.6812L39.2658 36.8592L40.5406 35.5568L41.8155 34.2545V34.0777V33.901L41.1841 33.075L40.5527 32.2488L39.8474 31.0841L39.1421 29.9194L38.3176 28.3123L37.4931 26.7052L36.9561 25.0365L36.4191 23.3677L36.2141 22.2758L36.009 21.1838L35.8389 19.4089L35.6689 17.634L35.8274 15.8982L35.986 14.1621L36.2797 12.7229L36.5732 11.2836L37.0191 9.92407L37.4651 8.56452L37.9625 7.38609L38.4599 6.20756L38.632 5.80362L37.0536 8.40722ZM0 28.7232V42.9499H7.15077H14.3016L14.2183 42.5495L14.135 42.1491L13.7802 40.1109L13.4254 38.0725L13.062 36.6809L12.6986 35.2894L12.0426 33.3274L11.3866 31.3654L10.499 29.4049L9.61147 27.4444L8.71625 25.8428L7.82113 24.2413L6.91196 22.8376L6.00288 21.434L5.0152 20.1442L4.02751 18.8544L2.82626 17.4713L1.625 16.0881L0.812604 15.2924L0 14.4965V28.7232ZM123.552 28.5243V42.9499H130.864H138L137.976 42.9099L137.542 40.4615L137.244 38.774L136.803 36.9733L136.363 35.1728L135.771 33.4258L135.178 31.6787L134.382 29.8527L133.587 28.0266L132.845 26.6436L132.102 25.2604L131.376 24.0957L130.651 22.931L130.128 22.1302L129.606 21.3294L128.174 19.4864L126.742 17.6432L125.279 16.1014L123.544 14.2465L123.552 14.5595V28.5243Z" fill="#452262"/>
<path fill-rule="evenodd" clip-rule="evenodd" d="M0 7.24811V14.4962L0.812605 15.2921L1.625 16.0879L2.82626 17.471L4.02751 18.8542L5.0152 20.1439L6.00288 21.4337L6.91196 22.8374L7.82113 24.241L8.71625 25.8426L9.61147 27.4441L10.493 29.3916L11.3747 31.3389L12.0805 33.4681L12.786 35.5973L13.1684 37.1259L13.5507 38.6547L13.8992 40.6202L14.2476 42.5856L14.2631 21.2928L14.2785 0H7.13928H0V7.24811ZM123.544 0V14.2463L125.211 16.0313L126.724 17.6201L128.165 19.4746L129.606 21.3292L130.129 22.13L130.651 22.9307L131.376 24.0954L132.102 25.2602L132.845 26.6433L133.587 28.0264L134.382 29.8525L135.178 31.6785L135.773 33.4317L136.367 35.1849L136.819 37.0388L137.963 42.9097V21.2928L137.976 0H130.838H123.544ZM41.7156 0.327542L41.5986 0.509486L41.438 0.800679L41.2775 1.09187L40.0632 3.19266L38.8488 5.29354L38.163 6.91051L37.4772 8.52747L37.0252 9.90551L36.5732 11.2833L36.2797 12.7227L35.986 14.1618L35.8274 15.8979L35.6689 17.6337L35.8389 19.4087L36.009 21.1836L36.2141 22.2756L36.4191 23.3675L36.9561 25.0363L37.4931 26.7049L38.3176 28.3121L39.1421 29.9191L39.8486 31.0839L40.5552 32.2487L41.6046 33.6317L42.6541 35.0149L43.5097 35.8255L44.3652 36.6361L45.458 37.5125L46.5507 38.3888L47.3898 38.9213L48.2288 39.4535L49.3567 40.0171L50.4846 40.5807L51.7959 41.0936L53.1071 41.6066L54.9284 42.05L56.7496 42.4935L58.1337 42.641L59.5179 42.7885L63.0723 42.8834L66.6265 42.9785L66.5232 42.7094L66.42 42.4403L63.4622 37.3444L60.5045 32.2487L59.3689 30.2831L58.2333 28.3176L57.1862 26.4977L56.1389 24.6778L54.7526 22.2756L53.3661 19.8732L52.2565 17.9545L51.1467 16.0358L50.8727 15.5523L50.5985 15.0688L49.7542 13.6128L48.9099 12.1569L47.8163 10.2642L46.7228 8.3715L45.3541 5.96926L43.9854 3.56692L43.0096 1.85785L42.034 0.148779L41.9334 0.147137L41.8327 0.145494L41.7156 0.327542ZM116.456 1.33152L114.883 2.51755L114.227 3.04121L113.572 3.56476L111.607 5.24025L109.642 6.91554L107.3 9.24509L104.958 11.5745L104.233 12.3753L103.507 13.176L102.344 14.5592L101.181 15.9423L100.298 17.107L99.4131 18.2718L98.6814 19.3005L97.9486 20.3291L97.0301 21.7755L96.1116 23.2219L94.4121 26.5705L92.7126 29.9191L92.0948 31.5207L91.478 33.1221L91.0583 34.3597L90.6377 35.5973L90.1841 37.2715L89.7307 38.9458L89.3243 40.8874L88.9273 42.952L103.738 42.9144L118.234 42.8768L118.271 21.5112L118.308 0.145494L116.456 1.33152ZM69.5338 30.6835L69.5711 42.8768L76.6704 42.9146L83.7697 42.9524L83.8097 37.5276L83.8496 32.1031L82.8197 30.7181L81.79 29.3334L81.0922 28.5343L80.3944 27.7353L78.6252 25.9368L76.856 24.1382L75.399 22.8669L73.942 21.5958L72.1937 20.2895L70.4453 18.9832L70.085 18.7368L69.4966 18.3391V18.4902L69.5338 30.6835Z" fill="#F55B1D"/>
</svg>
