<svg width="300" height="300" viewBox="0 0 300 300" fill="none" xmlns="http://www.w3.org/2000/svg">
<rect width="300" height="300" rx="55" fill="#F55B1D"/>
<path fill-rule="evenodd" clip-rule="evenodd" d="M65.4641 204.085C63.4523 202.307 60.8184 201.236 57.9392 201.236C55.0601 201.236 52.4262 202.307 50.4143 204.085H45.4738L45.5882 203.92L48.86 197.861L53.9479 188.426L56.4014 192.954L53.6207 198.108C54.9945 197.696 56.4344 197.482 57.9392 197.482C59.4441 197.482 60.9001 197.713 62.2741 198.124L60.7036 195.193L60.3764 194.584L59.2479 192.493L57.9392 190.073L55.4854 185.545L56.4668 183.734L57.9556 180.984L70.2903 203.92L70.4047 204.085H65.4641Z" fill="white"/>
<path d="M96.2495 195.796L100.138 191.276V198.53C100.138 201.958 98.9049 204.085 96.2495 204.085V195.796Z" fill="white"/>
<path d="M72.2333 181.899H77.609L87.889 199.811L96.2942 181.899H100.138V185.478L96.2942 189.393V184.004L87.271 203.206C87.0188 203.743 86.4805 204.085 85.8893 204.085L77.609 189.42V204.085H73.9508V185.254L72.2333 181.899Z" fill="white"/>
<path d="M119.81 194.895L124.155 189.904V204.542H119.81V194.895Z" fill="white"/>
<path d="M119.81 181.442H124.155L119.81 186.016V181.442Z" fill="white"/>
<path d="M261.125 201.171H265.805C268.197 201.171 270.133 200.415 271.611 198.903C273.089 197.391 273.828 195.459 273.828 193.107C273.828 190.754 273.089 188.822 271.611 187.31C270.133 185.798 268.197 185.042 265.805 185.042H261.125V201.171ZM257.043 204.771V181.442H265.98C269.594 181.442 272.515 182.57 274.744 184.826C276.972 187.058 278.086 189.818 278.086 193.107C278.086 196.395 276.972 199.167 274.744 201.423C272.515 203.655 269.594 204.771 265.98 204.771H257.043Z" fill="white"/>
<path d="M233.027 204.771V181.442H251.052V185.042H237.183V190.731H250.262V194.295H237.183V201.171H251.553V204.771H233.027Z" fill="white"/>
<path d="M206.952 204.771V181.442H216.716C220.02 181.442 222.557 182.282 224.328 183.962C226.1 185.618 226.985 187.742 226.985 190.334C226.985 191.943 226.565 193.443 225.728 194.835C224.891 196.227 223.718 197.271 222.209 197.967L227.309 204.771H222.209L218.153 199.155C217.46 199.203 216.226 199.227 214.454 199.227H211.116V202.782V204.771H206.952ZM211.116 195.627H216.969C218.692 195.627 220.068 195.123 221.096 194.115C222.126 193.107 222.64 191.847 222.64 190.334C222.64 188.822 222.126 187.562 221.096 186.554C220.068 185.546 218.703 185.042 217.003 185.042H211.116V195.627Z" fill="white"/>
<path d="M197.676 202.386C195.786 204.129 193.465 205 190.713 205C187.961 205 185.628 204.129 183.713 202.386C181.823 200.644 180.878 198.377 180.878 195.584V181.442C183.493 183.335 185.042 186.364 185.042 189.587V195.441C185.042 197.135 185.592 198.532 186.693 199.63C187.793 200.704 189.133 201.241 190.713 201.241C192.293 201.241 193.633 200.704 194.734 199.63C195.834 198.532 196.383 197.135 196.383 195.441V189.587C196.383 186.364 197.932 183.335 200.548 181.442V195.584C200.548 198.377 199.59 200.644 197.676 202.386Z" fill="white"/>
<path d="M156.862 201.688C157.687 200.073 159.792 199.665 161.465 200.361C162.906 200.961 164.453 201.261 166.107 201.261C167.435 201.261 168.596 200.964 169.592 200.37C170.588 199.777 171.086 198.982 171.086 197.985C171.086 197.32 170.825 196.762 170.303 196.311C169.782 195.836 169.248 195.504 168.703 195.314C168.158 195.124 167.376 194.91 166.356 194.673C165.337 194.435 164.483 194.222 163.796 194.032C163.108 193.818 162.35 193.522 161.52 193.142C160.69 192.738 160.027 192.311 159.529 191.86C159.031 191.409 158.604 190.827 158.249 190.115C157.917 189.403 157.751 188.607 157.751 187.729C157.751 185.687 158.569 184.097 160.205 182.957C161.84 181.794 163.808 181.212 166.107 181.212C169.118 181.212 171.844 182.043 174.286 183.705C173.429 185.403 171.293 185.937 169.467 185.414C168.39 185.106 167.27 184.951 166.107 184.951C165.515 184.951 164.922 185.035 164.329 185.201C163.737 185.343 163.191 185.64 162.694 186.091C162.196 186.518 161.947 187.053 161.947 187.694C161.947 188.524 162.326 189.153 163.085 189.581C163.867 190.008 165.1 190.424 166.783 190.827C168.039 191.112 169.118 191.433 170.019 191.789C170.92 192.121 171.809 192.56 172.686 193.106C173.563 193.628 174.227 194.305 174.677 195.136C175.151 195.967 175.388 196.916 175.388 197.985C175.388 200.24 174.464 201.973 172.615 203.184C170.766 204.394 168.585 205 166.072 205C162.302 205 159.232 203.896 156.862 201.688Z" fill="white"/>
<path d="M130.927 204.542V182.866L130.329 181.55H135.101L143.308 192.833C143.78 193.495 144.311 194.288 144.9 195.21C145.49 196.109 145.95 196.843 146.28 197.41L146.811 198.262V191.242C146.811 187.284 148.273 183.466 150.914 180.526V204.542H146.669L138.851 193.827C138.261 193.022 137.648 192.135 137.011 191.165C136.375 190.172 135.879 189.391 135.526 188.824L135.03 187.972L135.081 198.868C135.093 201.471 133.406 203.775 130.927 204.542Z" fill="white"/>
<path d="M21 194.286L25.3457 189.218V204.085H21V194.286Z" fill="white"/>
<path d="M21 180.984H25.3457L21 185.558V180.984Z" fill="white"/>
<path fill-rule="evenodd" clip-rule="evenodd" d="M150.356 95.2709V129.532L150.966 129.614L151.578 129.97L155.101 132.545L158.627 135.192L161.339 137.56L164.05 139.928L167.343 143.275L170.636 146.623L171.849 148.013L173.061 149.403L174.681 151.536L176.3 153.669L177.92 156.243L179.54 158.817L180.328 160.172L181.115 161.527L181.618 162.476L182.121 163.424L183.319 166.059L184.517 168.694L185.506 171.556L186.56 174.926L186.706 174.303L187.221 171.283L187.818 168.302L188.759 164.779L189.701 161.256L190.483 158.953L191.266 156.65L192.418 153.669L193.571 150.688L196.345 145.164L199.119 139.64L197.231 137.003L195.344 134.367L193.306 131.824L191.268 129.28L188.867 126.57L186.466 123.86L182.173 119.645L177.881 115.429L174.634 112.65L171.386 109.871L167.583 106.948L163.779 104.026L160.118 101.467L156.457 98.9096L153.588 97.0903L150.356 95.2709ZM92.9049 105.839V105.802L92.5846 106.554L92.9049 105.839ZM89.9671 110.648L87.5253 114.918L84.8669 119.524L82.2081 124.131L81.2658 125.757L80.3232 127.383L79.8095 128.28L79.2959 129.177L78.2586 130.989L77.2214 132.803L75.7276 135.377L74.2343 137.951L72.1189 141.61L70.0038 145.268L67.4678 149.672L64.9321 154.075L62.3961 158.479L59.8603 162.882L57.7687 166.494L55.6772 170.106L54.474 172.14L53.271 174.173V174.581V174.988L59.7117 174.815L66.1525 174.642L68.5931 174.376L71.0338 174.111L72.9321 173.724L74.8302 173.337L77.6254 172.506L80.4208 171.675L82.9135 170.557L85.4065 169.439L87.7171 168.052L90.0276 166.665L92.0561 165.135L94.0845 163.605L96.4573 161.181L98.8303 158.757V158.428V158.099L97.655 156.561L96.4799 155.024L95.167 152.856L93.8543 150.688L92.3197 147.697L90.785 144.705L89.7856 141.599L88.786 138.493L88.4046 136.461L88.0227 134.428L87.7062 131.125L87.3897 127.821L87.6848 124.59L87.9799 121.359L88.5266 118.68L89.0729 116.001L89.9029 113.471L90.7329 110.94L91.6587 108.747L92.5846 106.554L92.9049 105.802L89.9671 110.648ZM21 148.461V174.941H34.3096H47.6193L47.4642 174.196L47.3091 173.451L46.6488 169.657L45.9884 165.863L45.312 163.273L44.6356 160.683L43.4146 157.031L42.1936 153.379L40.5415 149.73L38.8896 146.081L37.2234 143.1L35.5573 140.119L33.8651 137.507L32.173 134.894L30.3347 132.493L28.4963 130.093L26.2604 127.518L24.0246 124.944L22.5125 123.463L21 121.982V148.461ZM250.965 148.091V174.941H264.575H277.856L277.812 174.867L277.004 170.31L276.448 167.169L275.629 163.817L274.81 160.466L273.707 157.214L272.603 153.962L271.123 150.564L269.643 147.165L268.261 144.591L266.878 142.016L265.528 139.848L264.177 137.68L263.205 136.19L262.233 134.699L259.568 131.269L256.902 127.838L254.18 124.969L250.949 121.516L250.965 122.099V148.091Z" fill="#D0D0D0"/>
<path fill-rule="evenodd" clip-rule="evenodd" d="M21 108.491V121.981L22.5125 123.463L24.0246 124.944L26.2604 127.518L28.4963 130.093L30.3347 132.493L32.173 134.894L33.8651 137.507L35.5573 140.119L37.2234 143.1L38.8896 146.081L40.5305 149.706L42.1715 153.33L43.4851 157.293L44.7984 161.256L45.5101 164.102L46.2216 166.947L46.8703 170.605L47.5187 174.264L47.5475 134.632L47.5762 95H34.2882H21V108.491ZM250.949 95V121.516L254.052 124.839L256.869 127.796L259.551 131.248L262.233 134.7L263.205 136.19L264.178 137.68L265.528 139.848L266.879 142.016L268.261 144.591L269.643 147.165L271.123 150.564L272.603 153.962L273.711 157.226L274.817 160.489L275.658 163.939L277.788 174.867V134.632L277.812 95H264.525H250.949ZM98.6443 95.6096L98.4265 95.9483L98.1276 96.4903L97.8288 97.0323L95.5687 100.942L93.3084 104.853L92.032 107.862L90.7554 110.872L89.9142 113.437L89.0729 116.001L88.5266 118.68L87.9799 121.359L87.6848 124.59L87.3897 127.821L87.7062 131.125L88.0227 134.429L88.4046 136.461L88.786 138.493L89.7856 141.599L90.785 144.705L92.3197 147.697L93.8543 150.688L95.1693 152.856L96.4844 155.024L98.4378 157.598L100.391 160.172L101.984 161.681L103.576 163.19L105.61 164.821L107.644 166.452L109.205 167.443L110.767 168.434L112.867 169.483L114.966 170.532L117.406 171.487L119.847 172.441L123.237 173.267L126.627 174.092L129.203 174.367L131.779 174.641L138.395 174.818L145.01 174.995L144.818 174.494L144.626 173.993L139.121 164.508L133.616 155.024L131.502 151.365L129.388 147.707L127.439 144.32L125.49 140.932L122.91 136.461L120.329 131.99L118.264 128.418L116.198 124.847L115.688 123.947L115.178 123.047L113.606 120.337L112.035 117.627L109.999 114.104L107.964 110.582L105.417 106.11L102.869 101.639L101.053 98.458L99.237 95.2769L99.0496 95.2739L98.8622 95.2708L98.6443 95.6096ZM237.758 97.4783L234.829 99.6859L233.609 100.661L232.388 101.635L228.732 104.754L225.074 107.872L220.715 112.208L216.356 116.543L215.006 118.034L213.655 119.524L211.491 122.099L209.327 124.673L207.682 126.841L206.035 129.009L204.673 130.924L203.31 132.838L201.6 135.53L199.89 138.222L196.727 144.455L193.564 150.688L192.414 153.669L191.266 156.649L190.485 158.953L189.702 161.256L188.858 164.373L188.014 167.489L187.257 171.103L186.518 174.946L214.085 174.876L241.066 174.806L241.135 135.038L241.204 95.2708L237.758 97.4783ZM150.422 152.111L150.491 174.806L163.705 174.876L176.919 174.946L176.993 164.849L177.067 154.753L175.15 152.175L173.234 149.598L171.935 148.11L170.636 146.623L167.343 143.275L164.05 139.928L161.339 137.562L158.627 135.196L155.372 132.764L152.118 130.333L151.448 129.874L150.352 129.134V129.415L150.422 152.111Z" fill="white"/>
</svg>
