<svg width="155" height="19" viewBox="0 0 155 19" fill="none" xmlns="http://www.w3.org/2000/svg">
<path d="M155 1.0166L150.635 5.09191H145.221V7.26378H155L150.635 11.3391H145.245V14.0234H150.635L155 18.0987H140.539V1.0166H155Z" fill="#13519C"/>
<path d="M130.188 7.45928C131.456 7.45928 132.529 7.61383 133.406 7.92294C134.284 8.21577 134.992 8.61436 135.528 9.11869C136.081 9.62302 136.479 10.1924 136.723 10.8269C136.983 11.4614 137.113 12.1203 137.113 12.8035C137.113 13.5031 136.975 14.1945 136.699 14.8778C136.438 15.5611 136.008 16.1793 135.406 16.7324C134.805 17.2856 134.016 17.733 133.041 18.0746C132.065 18.4163 130.878 18.5871 129.48 18.5871C128.798 18.5871 128.139 18.5139 127.505 18.3674C126.871 18.2373 126.286 18.0583 125.749 17.8306C125.213 17.6028 124.725 17.3507 124.286 17.0741C123.863 16.7975 123.498 16.5128 123.189 16.22L126.456 13.2428C126.782 13.617 127.204 13.9261 127.725 14.1701C128.245 14.3979 128.887 14.5118 129.651 14.5118C130.529 14.5118 131.204 14.3735 131.675 14.0969C132.163 13.8041 132.407 13.4868 132.407 13.1452C132.407 12.771 132.13 12.4294 131.578 12.1203C131.025 11.8112 130.155 11.6566 128.968 11.6566C127.684 11.6566 126.603 11.5102 125.725 11.2174C124.847 10.9082 124.132 10.5097 123.579 10.0216C123.042 9.51727 122.652 8.94787 122.408 8.31339C122.164 7.66264 122.043 7.00376 122.043 6.33674C122.043 5.63718 122.173 4.94576 122.433 4.26248C122.709 3.56292 123.148 2.93658 123.75 2.38344C124.351 1.83031 125.14 1.38292 126.115 1.04127C127.09 0.69963 128.277 0.528809 129.675 0.528809C130.358 0.528809 131.017 0.602018 131.651 0.748437C132.285 0.878587 132.87 1.05754 133.406 1.2853C133.943 1.51307 134.423 1.76523 134.845 2.0418C135.284 2.31837 135.658 2.60307 135.967 2.89591L132.699 5.87308C132.374 5.4989 131.951 5.19793 131.431 4.97017C130.911 4.72613 130.269 4.60412 129.505 4.60412C128.627 4.60412 127.944 4.75054 127.456 5.04338C126.985 5.31994 126.749 5.62905 126.749 5.97069C126.749 6.34487 127.025 6.68651 127.578 6.99562C128.131 7.30473 129.001 7.45928 130.188 7.45928Z" fill="#13519C"/>
<path d="M101.902 18.0987V12.486L106.365 8.38633H111.827C112.559 8.38633 113.103 8.2155 113.461 7.87386C113.819 7.53222 113.998 7.1499 113.998 6.72692C113.998 6.30393 113.819 5.92975 113.461 5.60438C113.103 5.26273 112.559 5.09191 111.827 5.09191H105.316L101.902 1.0166H112.534C113.559 1.0166 114.453 1.18742 115.217 1.52907C115.981 1.85444 116.615 2.28556 117.119 2.82243C117.639 3.35929 118.021 3.96937 118.265 4.65266C118.525 5.33594 118.655 6.0355 118.655 6.75132C118.655 7.28819 118.582 7.81692 118.436 8.33752C118.29 8.84185 118.078 9.32991 117.802 9.8017C117.525 10.2572 117.176 10.6721 116.753 11.0463C116.331 11.4042 115.835 11.7051 115.266 11.9492L119.119 18.0987H114.437L110.925 12.4616H106.584V18.0987H101.902Z" fill="#13519C"/>
<path d="M98.4972 1.0166L96.2351 5.09191H88.7183V7.26378H98.4972L94.132 11.3391H88.7427V14.0234H94.132L98.4972 18.0987H84.0362V1.0166H98.4972Z" fill="#13519C"/>
<path d="M65.4507 8.75736L69.7978 5.89721L72.0901 14.0722L75.8212 2.82715L80.6252 1.0166L75.8212 18.0987H68.359L65.4507 8.75736Z" fill="#13519C"/>
<path d="M52.2384 1.0166V14.0234H61.9928V18.0987H47.5318V5.38475L52.2384 1.0166Z" fill="#1D1D1D"/>
<path d="M44.5907 1.0166L39.7801 5.09191H34.8118V7.26378H44.5907L40.2256 11.3391H34.8362V14.0234H38.5739L44.5907 18.0987H30.1297V1.0166H44.5907Z" fill="#1D1D1D"/>
<path d="M21.5515 18.0987V1.0166L26.2336 3.82427V18.0987H21.5515Z" fill="#1D1D1D"/>
<path d="M0.923676 18.0987V12.486L5.38634 8.38633H10.8488C11.5804 8.38633 12.125 8.2155 12.4827 7.87386C12.8404 7.53222 13.0192 7.1499 13.0192 6.72692C13.0192 6.30393 12.8404 5.92975 12.4827 5.60438C12.125 5.26273 11.5804 5.09191 10.8488 5.09191H4.33773L0.923676 1.0166H11.556C12.5802 1.0166 13.4744 1.18742 14.2385 1.52907C15.0026 1.85444 15.6366 2.28556 16.1406 2.82243C16.6609 3.35929 17.0429 3.96937 17.2868 4.65266C17.5469 5.33594 17.6769 6.0355 17.6769 6.75132C17.6769 7.28819 17.6038 7.81692 17.4575 8.33752C17.3112 8.84185 17.0998 9.32991 16.8234 9.8017C16.5471 10.2572 16.1975 10.6721 15.7748 11.0463C15.3521 11.4042 14.8563 11.7051 14.2873 11.9492L18.1403 18.0987H13.4581L9.94654 12.4616H5.60581V18.0987H0.923676Z" fill="#1D1D1D"/>
</svg>
