<svg width="392" height="491" viewBox="0 0 392 491" fill="none" xmlns="http://www.w3.org/2000/svg">
<g clip-path="url(#clip0_5_3789)">
<path d="M11.3043 312L208.194 259.158L405.09 312" stroke="#AEBDDF" stroke-miterlimit="10"/>
<path d="M196.509 274.075V-20.3633" stroke="#AEBDDF" stroke-miterlimit="10"/>
<path d="M56.6734 336.173C56.6734 334.181 59.5105 332.183 65.1847 330.662C76.5282 327.619 94.9228 327.619 106.266 330.662C111.94 332.183 114.773 334.181 114.773 336.178C114.773 338.176 111.936 340.168 106.266 341.689C94.9228 344.732 76.5282 344.732 65.1847 341.689C59.5105 340.153 56.6734 338.161 56.6734 336.173Z" fill="url(#paint0_linear_5_3789)"/>
<path d="M59.6771 251.311V335.359" stroke="url(#paint1_linear_5_3789)" stroke-width="10" stroke-linecap="round" stroke-linejoin="round"/>
<path d="M111.769 251.311V335.359" stroke="url(#paint2_linear_5_3789)" stroke-width="10" stroke-linecap="round" stroke-linejoin="round"/>
<path d="M59.6771 271.451C59.6771 273.242 62.2202 275.029 67.3064 276.393C77.4788 279.127 93.9722 279.127 104.14 276.393C109.226 275.029 111.769 273.242 111.769 271.456V275.539C111.769 277.331 109.226 279.117 104.14 280.481C93.9722 283.21 77.4788 283.21 67.3064 280.481C62.2202 279.117 59.6771 277.326 59.6771 275.539V271.451Z" fill="url(#paint3_linear_5_3789)"/>
<path d="M59.6771 271.451C59.6771 269.665 62.2251 267.874 67.3064 266.509C77.4788 263.781 93.9722 263.781 104.14 266.509C109.231 267.874 111.769 269.665 111.769 271.456C111.769 273.248 109.226 275.029 104.14 276.393C93.9722 279.127 77.4788 279.127 67.3064 276.393C62.23 275.029 59.6771 273.243 59.6771 271.451Z" fill="url(#paint4_linear_5_3789)"/>
<path d="M59.6771 230.104C59.6771 231.896 62.2202 233.682 67.3064 235.046C77.4788 237.78 93.9722 237.78 104.14 235.046C109.226 233.682 111.769 231.896 111.769 230.109V269.861C111.769 271.653 109.226 273.439 104.14 274.803C93.9722 277.532 77.4788 277.532 67.3064 274.803C62.2202 273.439 59.6771 271.648 59.6771 269.861V230.104Z" fill="url(#paint5_linear_5_3789)"/>
<path d="M59.6771 230.105C59.6771 228.318 62.2251 226.527 67.3064 225.163C77.4788 222.434 93.9722 222.434 104.14 225.163C109.231 226.527 111.769 228.318 111.769 230.11C111.769 231.901 109.226 233.682 104.14 235.047C93.9722 237.78 77.4788 237.78 67.3064 235.047C62.23 233.682 59.6771 231.896 59.6771 230.105Z" fill="url(#paint6_linear_5_3789)"/>
<path d="M104.14 232.745C93.9722 230.016 77.4788 230.016 67.3064 232.745C66.1391 233.056 64.9933 233.442 63.8764 233.903C64.9933 234.359 66.1391 234.741 67.3064 235.046C77.4788 237.78 93.9722 237.78 104.14 235.046C105.315 234.742 106.469 234.36 107.594 233.903C106.469 233.442 105.315 233.055 104.14 232.745Z" fill="url(#paint7_linear_5_3789)"/>
<path d="M85.6667 237.152C85.6667 237.152 87.5679 198.092 98.4067 180.586C111.504 159.42 139.469 171.483 138.494 191.118C137.519 210.754 136.205 223.563 140.454 226.694C140.454 226.694 123.201 214.169 115.674 200.227C108.148 186.284 108.687 172.052 119.785 171.007C119.785 171.007 108.912 166.56 99.7689 181.803C90.6255 197.047 88.0089 237.132 88.0089 237.132C88.0089 237.132 87.71 237.25 85.6667 237.152Z" fill="url(#paint8_linear_5_3789)"/>
<path d="M85.6667 237.147C85.6667 237.147 85.2306 197.351 56.0217 194.736C26.8128 192.12 19.9038 222.68 24.99 244.092C25.4427 239.953 27.5039 236.159 30.7279 233.53C36.1179 229.221 33.9913 223.337 34.1579 218.106C34.3245 212.874 66.1451 225.295 62.0879 197.494C62.0879 197.494 83.7361 201.582 83.3539 237.128L85.6667 237.147Z" fill="url(#paint9_linear_5_3789)"/>
<path d="M88.004 237.147C88.004 237.147 87.5679 210.047 74.7348 173.584C74.7348 173.584 83.3686 155.779 73.3579 147.666C63.3472 139.554 47.0694 138.097 44.59 128.443C42.1106 118.79 26.901 114.108 13.0242 118.829C13.0242 118.829 12.1912 128.944 23.3828 135.849C31.4825 140.85 36.0052 145.757 37.3086 158.453C38.9697 174.609 55.4386 190.049 73.3579 175.449C73.3579 175.449 85.0689 202.745 85.6667 237.147H88.004Z" fill="url(#paint10_linear_5_3789)"/>
<path d="M89.964 152.569C89.964 152.569 85.3923 140.894 96.7064 133.714C108.021 126.534 118.031 131.103 121.731 126.745C125.43 122.387 141.747 128.418 145.662 115.487C145.662 115.487 147.51 134.73 124.774 143.647C102.038 152.564 89.964 152.569 89.964 152.569Z" fill="url(#paint11_linear_5_3789)"/>
<path d="M85.6667 237.147C85.6667 237.147 77.126 175.012 88.004 152.137C98.882 129.263 142.183 143.132 145.662 115.492C145.662 115.492 147.838 131.873 144.574 138.842C141.311 145.811 135.872 142.984 133.912 149.958C131.952 156.932 102.802 173.058 89.964 152.574C89.964 152.574 84.8092 162.139 83.4078 183.708C82.0064 205.277 86.9995 237.152 86.9995 237.152L85.6667 237.147Z" fill="url(#paint12_linear_5_3789)"/>
<path d="M13.0144 118.829C13.0144 118.829 12.1814 128.944 23.373 135.849C31.4825 140.85 36.0052 145.757 37.3086 158.453C38.9697 174.609 55.4386 190.049 73.3579 175.448C73.3579 175.448 54.3165 134.779 13.0144 118.829Z" fill="url(#paint13_linear_5_3789)"/>
<path d="M85.7255 257.573V341.621" stroke="url(#paint14_linear_5_3789)" stroke-width="10" stroke-linecap="round" stroke-linejoin="round"/>
<path d="M341.04 393.19C341.04 393.819 340.138 394.452 338.345 394.933L269.255 413.469C265.658 414.45 259.832 414.45 256.241 413.469L74.5731 364.711C72.7748 364.221 71.8781 363.597 71.8781 362.964C71.8781 362.331 72.7748 361.698 74.5731 361.217L143.663 342.681C147.255 341.699 153.081 341.699 156.678 342.681L338.365 391.443C340.133 391.924 341.04 392.557 341.04 393.19Z" fill="url(#paint15_linear_5_3789)"/>
<path d="M256.981 409.071C255.858 409.071 254.774 408.666 253.924 407.932C253.074 407.198 252.516 406.183 252.35 405.071L247.886 375.213H266.07L261.606 405.071C261.441 406.182 260.883 407.197 260.034 407.931C259.185 408.665 258.102 409.069 256.981 409.071Z" fill="url(#paint16_linear_5_3789)"/>
<path d="M320.019 392.12C318.897 392.121 317.813 391.718 316.963 390.985C316.113 390.251 315.554 389.237 315.389 388.126L310.93 358.263H329.113L324.654 388.126C324.488 389.237 323.928 390.252 323.077 390.985C322.227 391.718 321.141 392.121 320.019 392.12Z" fill="url(#paint17_linear_5_3789)"/>
<path d="M106.026 369.614C104.904 369.615 103.82 369.212 102.97 368.478C102.12 367.745 101.561 366.73 101.396 365.619L96.9367 335.756H115.121L110.662 365.619C110.495 366.731 109.935 367.746 109.085 368.479C108.234 369.212 107.149 369.615 106.026 369.614Z" fill="url(#paint18_linear_5_3789)"/>
<path d="M346.66 249.583L346.484 249.539C342.745 248.685 338.61 252.425 337.247 257.882L315.776 344.158C314.438 349.556 316.266 354.592 319.906 355.563L147.245 309.226C143.619 308.244 141.772 303.204 143.114 297.82L164.586 211.559C165.943 206.087 170.079 202.347 173.823 203.216L173.999 203.26L346.66 249.583Z" fill="url(#paint19_linear_5_3789)"/>
<path d="M346.66 249.583C350.286 250.565 352.129 255.605 350.791 260.988L329.319 347.25C327.957 352.717 323.821 356.462 320.083 355.593L319.906 355.549C316.285 354.567 314.438 349.527 315.776 344.143L337.247 257.897C338.61 252.425 342.745 248.685 346.484 249.554L346.66 249.583Z" fill="url(#paint20_linear_5_3789)"/>
<path d="M251.297 372.411L98.4753 331.403L171.701 311.753L324.522 352.761L251.297 372.411Z" fill="url(#paint21_linear_5_3789)"/>
<path d="M98.49 331.403L83.9811 264.429C83.1726 260.694 80.7863 257.661 78.1011 256.94C77.3625 256.729 76.5812 256.719 75.8373 256.91L149.063 237.28C149.805 237.086 150.585 237.096 151.322 237.309C154.022 238.031 156.413 241.063 157.202 244.798L171.701 311.768L98.49 331.403Z" fill="url(#paint22_linear_5_3789)"/>
<path d="M168.114 295.906L95.0649 315.507L254.702 358.351L327.751 338.745L168.114 295.906Z" fill="url(#paint23_linear_5_3789)"/>
<path d="M256.981 387.782C259.862 387.012 262.17 384.371 263.135 380.421L277.58 321.451C278.83 316.357 275.855 310.036 271.7 308.917C270.961 308.713 270.18 308.713 269.441 308.917L342.667 289.286C343.406 289.085 344.186 289.085 344.926 289.286C349.096 290.405 352.07 296.726 350.806 301.825L336.361 360.815C335.381 364.741 333.087 367.406 330.206 368.176L256.981 387.782Z" fill="url(#paint24_linear_5_3789)"/>
<path d="M256.98 387.782C255.724 388.112 254.403 388.1 253.154 387.748L96.6133 345.733C92.0465 344.507 88.004 339.354 86.6369 333.057L72.1868 266.313C71.2068 261.661 72.9218 257.69 75.8226 256.915C76.5665 256.724 77.3477 256.734 78.0864 256.944C80.7863 257.666 83.1726 260.699 83.9664 264.434L98.49 331.403L251.311 372.411L265.805 313.22C266.379 310.889 267.765 309.329 269.441 308.872C270.18 308.669 270.961 308.669 271.7 308.872C275.87 309.991 278.844 316.312 277.58 321.406L263.13 380.421C262.15 384.371 259.862 387.012 256.98 387.782Z" fill="url(#paint25_linear_5_3789)"/>
<path d="M98.4753 331.403L95.0649 315.507L254.702 358.351L251.297 372.411L98.4753 331.403Z" fill="url(#paint26_linear_5_3789)"/>
<path d="M162.724 318.319C189.835 318.319 211.812 312.422 211.812 305.147C211.812 297.872 189.835 291.975 162.724 291.975C135.613 291.975 113.636 297.872 113.636 305.147C113.636 312.422 135.613 318.319 162.724 318.319Z" fill="url(#paint27_linear_5_3789)"/>
<path d="M117.625 348.393L121.677 384.538L135.279 384.136L136.739 348.074L117.625 348.393Z" fill="url(#paint28_linear_5_3789)"/>
<path d="M123.357 379.993C121.647 379.248 119.349 379.571 119.354 383.679C119.354 387.551 120.334 388.901 116.493 393.112C112.421 397.573 108.628 401.028 108.476 403.575C108.324 406.122 111.088 408.08 115.679 406.171C120.27 404.262 131.237 397.519 135.73 394.275C140.424 390.839 138.337 386.388 137.357 383.733C136.878 382.346 136.25 381.015 135.485 379.763C135.485 379.763 135.607 383.021 131.506 383.542C127.405 384.062 126.959 381.559 123.357 379.993Z" fill="url(#paint29_linear_5_3789)"/>
<path d="M138.631 388.381C138.063 389.779 137.09 390.976 135.838 391.816C130.992 395.35 119.085 402.657 114.101 404.728C111.999 405.602 110.255 405.71 108.947 405.371C109.927 406.843 112.293 407.55 115.679 406.147C120.27 404.237 131.237 397.504 135.706 394.25C138.18 392.459 138.778 390.354 138.631 388.381Z" fill="url(#paint30_linear_5_3789)"/>
<path d="M169.741 258.068C169.741 258.068 153.688 264.939 135.024 272.085C123.117 276.649 107.134 287.985 111.014 311.724C114.895 335.462 118.678 359.99 118.678 359.99L137.2 358.793C137.2 358.793 142.796 319.978 142.252 308.499C141.708 297.02 144.849 297.85 146.686 295.867C148.524 293.884 187.2 276.236 187.2 276.236L169.741 258.068Z" fill="url(#paint31_linear_5_3789)"/>
<path d="M100.881 371.106L90.1306 405.847L102.758 410.941L118.521 378.487L100.881 371.106Z" fill="url(#paint32_linear_5_3789)"/>
<path d="M161.161 279.534C161.161 279.534 152.993 282.101 142.164 286.645C132.016 290.905 122.353 296.377 116.556 311.282C110.76 326.186 97.8628 377.309 97.8628 377.309L116.444 384.808C116.444 384.808 123.509 371.788 133.77 353.35C143.163 336.478 145.015 321.681 148.921 317.033C152.826 312.386 190.296 313.78 201.777 300.539C211.548 289.251 210.009 271.78 208.118 267.167L176.816 249.411C176.816 249.411 168.849 258.471 157.599 263.099C150.592 265.994 161.161 279.534 161.161 279.534Z" fill="url(#paint33_linear_5_3789)"/>
<path d="M93.492 402.358C92.2229 400.989 89.9836 400.365 88.3421 404.13C86.7986 407.678 87.1563 409.307 81.9721 411.624C76.4596 414.077 71.6037 415.721 70.4473 418.003C69.2909 420.286 71.0353 423.181 76.0039 423.274C80.9725 423.367 93.7174 421.606 99.1123 420.413C104.786 419.162 104.659 414.239 104.821 411.408C104.937 409.945 104.895 408.474 104.693 407.02C104.693 407.02 103.503 410.058 99.5386 408.885C95.5745 407.712 96.1625 405.239 93.492 402.358Z" fill="url(#paint34_linear_5_3789)"/>
<path d="M104.581 414.229C103.846 416.143 102.366 417.851 99.2691 418.533C93.4822 419.809 79.8259 421.699 74.4996 421.601C73.0708 421.618 71.6583 421.295 70.3787 420.659C71.0549 422.057 72.8973 423.201 75.9794 423.26C80.9529 423.353 93.6929 421.591 99.0878 420.398C103.121 419.51 104.223 416.762 104.581 414.229Z" fill="url(#paint35_linear_5_3789)"/>
<path d="M148.985 241.535C152.753 236.661 163.067 218.42 172.946 207.672C182.824 196.924 196.054 207.51 185.46 220.157C174.866 232.804 166.473 244.999 160.264 251.178C153.527 257.902 143.119 249.127 148.985 241.535Z" fill="url(#paint36_linear_5_3789)"/>
<path d="M209.916 278.788C209.916 278.788 208.221 258.667 212.734 239.336C215.286 228.416 226.679 219.318 220.407 209.846C217.898 206.057 197.578 195.413 182.04 201.91C175.361 204.703 175.033 206.538 171.632 212.894C167.805 220.054 166.732 225.163 167.933 230.07C173.161 251.36 160.882 261.577 160.882 261.577C160.882 261.577 169.643 279.637 209.916 278.788Z" fill="url(#paint37_linear_5_3789)"/>
<path d="M168.56 232.961C169.883 240.278 169.114 246.162 167.639 250.628C186.45 253.504 203.58 239.341 203.58 239.341C184.387 242.742 171.99 238.109 168.56 232.961Z" fill="url(#paint38_linear_5_3789)"/>
<path d="M202.605 188.081C202.605 188.081 201.444 199.928 208.353 202.803C205.513 203.788 202.732 204.935 200.023 206.239C187.18 212.28 178.071 223.789 178.071 223.789C178.071 223.789 177.262 208.413 185.063 201.051C186.619 199.619 187.826 197.848 188.591 195.875C189.356 193.902 189.657 191.779 189.473 189.671L202.605 188.081Z" fill="url(#paint39_linear_5_3789)"/>
<path d="M113.636 275.437C113.636 275.775 114.126 276.114 115.106 276.374L158.476 288.015C160.77 288.53 163.149 288.53 165.444 288.015L189.62 281.527C190.6 281.267 191.061 280.928 191.061 280.59V281.787C191.061 282.126 190.571 282.464 189.62 282.724L165.419 289.207C163.126 289.728 160.745 289.728 158.451 289.207L115.081 277.571C114.101 277.311 113.611 276.973 113.611 276.634L113.636 275.437Z" fill="url(#paint40_linear_5_3789)"/>
<path d="M113.636 275.437C113.636 275.098 114.126 274.759 115.106 274.504L139.278 268.016C141.572 267.501 143.951 267.501 146.245 268.016L189.62 279.657C190.6 279.912 191.061 280.251 191.061 280.59C191.061 280.928 190.571 281.267 189.62 281.527L165.444 288.015C163.15 288.53 160.77 288.53 158.476 288.015L115.106 276.374C114.116 276.114 113.636 275.775 113.636 275.437Z" fill="url(#paint41_linear_5_3789)"/>
<path d="M172.779 283.529C172.779 283.637 172.622 283.74 172.323 283.819L163.856 286.116C163.134 286.282 162.383 286.282 161.661 286.116L120.903 275.177C120.594 275.098 120.447 274.99 120.447 274.882C120.447 274.774 120.599 274.671 120.903 274.588L129.36 272.291C130.084 272.129 130.836 272.129 131.56 272.291L172.318 283.23C172.632 283.313 172.779 283.421 172.779 283.529Z" fill="url(#paint42_linear_5_3789)"/>
<path d="M170.446 276.35C170.446 276.433 170.319 276.517 170.084 276.58L163.812 278.264C163.235 278.396 162.635 278.396 162.058 278.264L145.143 273.724C144.898 273.66 144.78 273.572 144.78 273.489C144.78 273.405 144.908 273.322 145.143 273.258L151.415 271.575C151.992 271.442 152.592 271.442 153.169 271.575L170.084 276.109C170.329 276.178 170.446 276.266 170.446 276.35Z" fill="url(#paint43_linear_5_3789)"/>
<path d="M113.602 235.076C114.019 234.961 114.459 234.961 114.876 235.076L158.27 246.746C160.191 247.262 161.754 249.809 161.754 252.434V285.424C161.754 287.436 160.838 288.908 159.539 289.256C159.123 289.367 158.686 289.367 158.27 289.256L114.895 277.615C112.974 277.125 111.411 274.553 111.411 271.928V238.924C111.392 236.912 112.308 235.439 113.602 235.076Z" fill="url(#paint44_linear_5_3789)"/>
<path d="M132.834 257.16C133.272 257.043 133.734 257.043 134.172 257.16C136.2 257.7 137.842 260.385 137.842 263.148C137.842 265.268 136.862 266.819 135.514 267.182C135.075 267.302 134.611 267.302 134.172 267.182C132.148 266.637 130.507 263.957 130.507 261.194C130.507 259.069 131.472 257.519 132.834 257.16Z" fill="url(#paint45_linear_5_3789)"/>
<path d="M219.363 260.188C217.712 254.255 209.264 235.071 206.579 220.731C203.894 206.391 220.25 202.082 224.053 218.135C227.855 234.188 232.789 249.436 234.029 258.112C235.371 267.535 221.936 269.429 219.363 260.188Z" fill="url(#paint46_linear_5_3789)"/>
<path d="M190.517 265.503C190.517 265.503 214.836 253.627 223.935 251.134C234.46 248.253 238.508 263.854 227.914 266.244C213.704 269.449 187.205 273.699 185.176 274.352C183.147 275.005 182.177 276.575 180.384 276.914C179.394 277.063 178.47 277.502 177.728 278.175C177.728 278.175 175.837 282.621 175.185 282.979C174.533 283.338 173.519 283.235 174.205 281.438C174.891 279.642 175.729 277.252 175.729 277.252C175.729 277.252 173.063 281.63 172.348 282.891C171.946 283.603 169.947 283.166 170.799 281.488L173.338 276.492L168.673 282.729C167.693 284.044 164.89 283.289 166.629 280.815C167.992 278.852 170.892 274.887 170.892 274.887C170.892 274.887 166.188 278.985 164.63 279.834C163.072 280.683 162.097 279.505 163.885 277.66C165.674 275.814 171.725 269.964 173.553 268.551C175.381 267.138 190.517 265.503 190.517 265.503Z" fill="url(#paint47_linear_5_3789)"/>
<path d="M204.555 186.564C204.923 183.546 205.246 172.17 197.769 167.635C190.291 163.1 178.845 167.493 176.964 173.033C175.082 178.574 178.002 183.752 177.944 185.887C177.964 188.695 178.461 191.48 179.414 194.122C181.04 198.455 183.412 201.802 186.592 202.126C189.993 202.465 203.453 195.667 204.555 186.564Z" fill="url(#paint48_linear_5_3789)"/>
<path d="M177.311 172.906C177.311 172.906 175.547 175.875 177.047 180.95C178.546 186.024 178.306 187.428 178.409 189.386C178.767 196.036 183.799 200.948 183.799 200.948C183.799 200.948 178.262 204.806 173.999 200.109C167.551 193.027 175.616 174.501 175.616 174.501C175.616 174.501 174.518 166.757 181.442 162.674C188.738 158.375 203.953 159.538 207.75 169.284C211.548 179.031 211.141 188.036 217.516 196.551C213.429 200.865 207.388 205.179 201.346 203.613C193.163 201.493 197.014 190.706 197.343 188.179C198.44 179.669 190.865 178.741 182.961 177.873C178.208 177.372 177.311 172.906 177.311 172.906Z" fill="url(#paint49_linear_5_3789)"/>
<path d="M182.398 187.531C182.398 187.531 181.854 191.948 181.795 192.748C181.736 193.548 182.701 194.711 184.216 193.867" stroke="#2E405C" stroke-miterlimit="10" stroke-linecap="round"/>
<path d="M187.984 187.654C188.606 187.654 189.111 187.148 189.111 186.525C189.111 185.901 188.606 185.396 187.984 185.396C187.361 185.396 186.857 185.901 186.857 186.525C186.857 187.148 187.361 187.654 187.984 187.654Z" fill="#2E405C"/>
<path d="M179.815 188.282C180.438 188.282 180.942 187.777 180.942 187.153C180.942 186.53 180.438 186.024 179.815 186.024C179.193 186.024 178.688 186.53 178.688 187.153C178.688 187.777 179.193 188.282 179.815 188.282Z" fill="#2E405C"/>
<path d="M186.425 182.815C186.425 182.815 188.077 181.254 190.262 182.815" stroke="#2E405C" stroke-miterlimit="10" stroke-linecap="round"/>
<path d="M177.556 183.546C177.556 183.546 179.208 181.99 181.393 183.546" stroke="#2E405C" stroke-miterlimit="10" stroke-linecap="round"/>
<path d="M186.425 196.797C186.425 196.797 189.934 195.624 189.855 192.316" stroke="#2E405C" stroke-miterlimit="10" stroke-linecap="round"/>
<path d="M258.612 225.599C258.612 225.599 256.559 182.039 254.609 167.007C252.997 154.571 232.294 156.073 232.137 170.349C232.059 177.504 235.479 219.391 235.479 219.391L258.612 225.599Z" fill="url(#paint50_linear_5_3789)"/>
<path d="M252.664 224.009C252.664 224.009 240.791 193.616 234.568 178.53C228.345 163.444 234.568 158.85 250.125 155.243C265.683 151.636 290.893 148.755 296.788 164.627C302.683 180.498 322.729 242.741 322.729 242.741L252.664 224.009Z" fill="url(#paint51_linear_5_3789)"/>
<path d="M240.257 158.433C240.257 158.433 245.735 170.565 250.057 172.018C254.398 169.593 265.09 152.755 265.09 152.755C265.09 152.755 256.951 146.665 257.059 137.757L242.413 140.54C242.413 140.54 245.152 155.165 240.257 158.433Z" fill="url(#paint52_linear_5_3789)"/>
<path d="M262.792 150.665C262.792 150.665 262.126 162.242 250.052 172.042L254.575 169.52L262.15 174.467C262.15 174.467 264.6 159.866 265.09 152.755L262.792 150.665Z" fill="url(#paint53_linear_5_3789)"/>
<path d="M250.042 172.018L246.152 171.164L243.481 178.182L240.257 158.433L242.501 154.89C242.148 158.157 242.659 161.459 243.982 164.465C245.306 167.471 247.396 170.076 250.042 172.018Z" fill="url(#paint54_linear_5_3789)"/>
<path d="M316.814 198.671C309.739 186.981 302.56 171.89 293.632 159.645C286.253 149.521 268.819 160.804 275.532 173.387C278.898 179.698 293.172 202.386 299.625 210.572C306.078 218.758 323.772 210.155 316.814 198.671Z" fill="url(#paint55_linear_5_3789)"/>
<path d="M264.11 204.609C264.11 204.609 249.351 208.678 242.119 210.371C236.033 211.799 234.661 211.24 228.864 210.346C223.068 209.453 218.535 209.365 215.776 212.398C213.212 215.244 210.802 218.228 208.559 221.335C207.843 222.35 209.024 224.652 211.264 223.008C212.332 222.223 215.899 218.14 216.938 216.952C216.938 216.952 215.958 221.001 216.448 222.434C216.938 223.867 219.162 224.215 221.215 222.522C221.215 222.522 222.048 227.253 225.268 224.461C225.268 224.461 228.296 226.704 230.741 224.397C233.186 222.09 236.376 222.434 238.493 222.733C240.61 223.033 267.927 219.74 267.927 219.74L264.11 204.609Z" fill="url(#paint56_linear_5_3789)"/>
<path d="M245.911 209.448C245.911 209.448 297.92 194.431 303.437 193.445C318.412 190.77 325.487 210.003 307.357 213.944C289.227 217.885 250.571 221.698 250.571 221.698C250.571 221.698 250.361 211.75 245.911 209.448Z" fill="url(#paint57_linear_5_3789)"/>
<path d="M260.499 146.611C260.778 143.313 260.69 130.906 252.375 126.273C244.059 121.641 231.795 126.852 229.947 132.958C228.1 139.063 231.491 144.574 231.491 146.9C231.629 149.957 232.281 152.969 233.421 155.808C235.381 160.455 238.071 164.008 241.546 164.234C245.265 164.479 259.646 156.554 260.499 146.611Z" fill="url(#paint58_linear_5_3789)"/>
<path d="M252.84 124.482C252.84 124.482 246.274 118.343 237.16 123.466C230.128 127.393 226.258 132.045 225.723 135.775C225.189 139.505 229.888 140.682 229.888 140.682C229.888 140.682 229.398 138.867 231.657 138.312C234.45 137.615 236.224 141.821 240.051 137.031C243.878 132.241 249.655 136.727 250.503 139.711C251.35 142.695 252.311 150.149 250.503 154.198C249.292 156.912 244.848 154.546 241.541 154.713C239.786 154.802 239.87 155.592 239.091 155.695C238.311 155.798 238.013 155.116 237.018 155.739C234.45 157.349 233.098 156.156 231.946 150.723C231.946 150.723 233.059 155.366 233.696 160.048C234.333 164.73 235.504 168.249 240.183 168.352C244.863 168.455 255.863 163.027 253.996 151.995C253.163 147.111 253.105 143.602 255.648 142.753C258.039 141.958 261.322 145.404 257.24 151.067C256.206 152.505 257.054 154.576 258.166 152.912C259.279 151.249 264.09 147.102 263.301 138.857C262.949 135.235 261.444 125.474 252.84 124.482Z" fill="url(#paint59_linear_5_3789)"/>
<path d="M236.979 148.51C236.979 148.51 236.435 152.927 236.371 153.727C236.307 154.527 237.282 155.69 238.792 154.846" stroke="#2E405C" stroke-miterlimit="10" stroke-linecap="round"/>
<path d="M242.565 148.633C243.187 148.633 243.692 148.128 243.692 147.504C243.692 146.881 243.187 146.375 242.565 146.375C241.942 146.375 241.438 146.881 241.438 147.504C241.438 148.128 241.942 148.633 242.565 148.633Z" fill="#2E405C"/>
<path d="M234.392 149.261C235.014 149.261 235.518 148.756 235.518 148.132C235.518 147.509 235.014 147.003 234.392 147.003C233.769 147.003 233.264 147.509 233.264 148.132C233.264 148.756 233.769 149.261 234.392 149.261Z" fill="#2E405C"/>
<path d="M241.002 143.794C241.002 143.794 242.653 142.233 244.843 143.794" stroke="#2E405C" stroke-miterlimit="10" stroke-linecap="round"/>
<path d="M232.138 144.515C232.138 144.515 233.789 142.955 235.974 144.515" stroke="#2E405C" stroke-miterlimit="10" stroke-linecap="round"/>
<path d="M239.61 159.498C239.61 159.498 242.383 159.307 242.383 155.891" stroke="white" stroke-miterlimit="10" stroke-linecap="round"/>
<path d="M103.664 138.243H171.33C174.19 138.243 176.913 139.468 178.811 141.607L185.71 149.384V108.861C185.71 108.331 185.606 107.807 185.403 107.317C185.201 106.828 184.904 106.383 184.53 106.009C184.156 105.634 183.712 105.337 183.224 105.134C182.735 104.931 182.211 104.827 181.682 104.827H103.664C102.597 104.828 101.574 105.254 100.819 106.01C100.065 106.767 99.6415 107.792 99.6415 108.861V134.209C99.6415 135.278 100.065 136.304 100.819 137.06C101.574 137.816 102.597 138.242 103.664 138.243Z" fill="white"/>
<path d="M171.392 115.486H113.959C113.166 115.486 112.524 116.13 112.524 116.924V116.929C112.524 117.723 113.166 118.367 113.959 118.367H171.392C172.185 118.367 172.828 117.723 172.828 116.929V116.924C172.828 116.13 172.185 115.486 171.392 115.486Z" fill="url(#paint60_linear_5_3789)"/>
<path d="M137.092 125.282H113.959C113.166 125.282 112.524 125.926 112.524 126.72V126.725C112.524 127.519 113.166 128.163 113.959 128.163H137.092C137.885 128.163 138.528 127.519 138.528 126.725V126.72C138.528 125.926 137.885 125.282 137.092 125.282Z" fill="url(#paint61_linear_5_3789)"/>
</g>
<defs>
<linearGradient id="paint0_linear_5_3789" x1="85.7255" y1="285.595" x2="85.7255" y2="348.369" gradientUnits="userSpaceOnUse">
<stop stop-color="white"/>
<stop offset="1" stop-color="#AEBDDF"/>
</linearGradient>
<linearGradient id="paint1_linear_5_3789" x1="-nan" y1="-nan" x2="-nan" y2="-nan" gradientUnits="userSpaceOnUse">
<stop stop-color="#5D6E8C"/>
<stop offset="1" stop-color="#2E405C"/>
</linearGradient>
<linearGradient id="paint2_linear_5_3789" x1="-nan" y1="-nan" x2="-nan" y2="-nan" gradientUnits="userSpaceOnUse">
<stop stop-color="#5D6E8C"/>
<stop offset="1" stop-color="#2E405C"/>
</linearGradient>
<linearGradient id="paint3_linear_5_3789" x1="85.7255" y1="288.913" x2="85.7255" y2="267.049" gradientUnits="userSpaceOnUse">
<stop stop-color="#ACBDDE"/>
<stop offset="1" stop-color="#2E405C"/>
</linearGradient>
<linearGradient id="paint4_linear_5_3789" x1="85.7255" y1="317.367" x2="85.7255" y2="265.067" gradientUnits="userSpaceOnUse">
<stop stop-color="#ACBDDE"/>
<stop offset="1" stop-color="#2E405C"/>
</linearGradient>
<linearGradient id="paint5_linear_5_3789" x1="59.6771" y1="253.48" x2="129.904" y2="253.48" gradientUnits="userSpaceOnUse">
<stop stop-color="white"/>
<stop offset="1" stop-color="#AEBDDF"/>
</linearGradient>
<linearGradient id="paint6_linear_5_3789" x1="106.462" y1="230.105" x2="44.8448" y2="230.105" gradientUnits="userSpaceOnUse">
<stop stop-color="#ACBDDE"/>
<stop offset="1" stop-color="#2E405C"/>
</linearGradient>
<linearGradient id="paint7_linear_5_3789" x1="85.7255" y1="205.797" x2="85.7255" y2="236.396" gradientUnits="userSpaceOnUse">
<stop stop-color="#ACBDDE"/>
<stop offset="1" stop-color="#2E405C"/>
</linearGradient>
<linearGradient id="paint8_linear_5_3789" x1="154.492" y1="251.408" x2="82.911" y2="180.914" gradientUnits="userSpaceOnUse">
<stop stop-color="#79D985"/>
<stop offset="1" stop-color="#027A71"/>
</linearGradient>
<linearGradient id="paint9_linear_5_3789" x1="38.3376" y1="184.655" x2="51.5901" y2="224.851" gradientUnits="userSpaceOnUse">
<stop stop-color="#79D985"/>
<stop offset="1" stop-color="#027A71"/>
</linearGradient>
<linearGradient id="paint10_linear_5_3789" x1="114.9" y1="128.571" x2="4.45939" y2="213.066" gradientUnits="userSpaceOnUse">
<stop stop-color="#79D985"/>
<stop offset="1" stop-color="#027A71"/>
</linearGradient>
<linearGradient id="paint11_linear_5_3789" x1="121.907" y1="87.0029" x2="116.014" y2="145.186" gradientUnits="userSpaceOnUse">
<stop stop-color="#79D985"/>
<stop offset="1" stop-color="#027A71"/>
</linearGradient>
<linearGradient id="paint12_linear_5_3789" x1="175.214" y1="37.0529" x2="85.5005" y2="201.616" gradientUnits="userSpaceOnUse">
<stop stop-color="#79D985"/>
<stop offset="1" stop-color="#027A71"/>
</linearGradient>
<linearGradient id="paint13_linear_5_3789" x1="22.4616" y1="182.064" x2="54.7337" y2="127.849" gradientUnits="userSpaceOnUse">
<stop stop-color="#79D985"/>
<stop offset="1" stop-color="#027A71"/>
</linearGradient>
<linearGradient id="paint14_linear_5_3789" x1="-nan" y1="-nan" x2="-nan" y2="-nan" gradientUnits="userSpaceOnUse">
<stop stop-color="#5D6E8C"/>
<stop offset="1" stop-color="#2E405C"/>
</linearGradient>
<linearGradient id="paint15_linear_5_3789" x1="206.457" y1="441.025" x2="206.457" y2="298.203" gradientUnits="userSpaceOnUse">
<stop stop-color="white"/>
<stop offset="1" stop-color="#AEBDDF"/>
</linearGradient>
<linearGradient id="paint16_linear_5_3789" x1="256.981" y1="414.833" x2="256.981" y2="360.338" gradientUnits="userSpaceOnUse">
<stop stop-color="#ACBDDE"/>
<stop offset="1" stop-color="#2E405C"/>
</linearGradient>
<linearGradient id="paint17_linear_5_3789" x1="320.019" y1="392.871" x2="320.019" y2="358.052" gradientUnits="userSpaceOnUse">
<stop stop-color="#ACBDDE"/>
<stop offset="1" stop-color="#2E405C"/>
</linearGradient>
<linearGradient id="paint18_linear_5_3789" x1="106.026" y1="372.74" x2="106.026" y2="335.855" gradientUnits="userSpaceOnUse">
<stop stop-color="#ACBDDE"/>
<stop offset="1" stop-color="#2E405C"/>
</linearGradient>
<linearGradient id="paint19_linear_5_3789" x1="244.667" y1="152.029" x2="244.667" y2="331.693" gradientUnits="userSpaceOnUse">
<stop stop-color="white"/>
<stop offset="1" stop-color="#AEBDDF"/>
</linearGradient>
<linearGradient id="paint20_linear_5_3789" x1="333.283" y1="182.564" x2="333.283" y2="284.02" gradientUnits="userSpaceOnUse">
<stop stop-color="white"/>
<stop offset="1" stop-color="#AEBDDF"/>
</linearGradient>
<linearGradient id="paint21_linear_5_3789" x1="279.839" y1="218.881" x2="169.94" y2="416.386" gradientUnits="userSpaceOnUse">
<stop stop-color="white"/>
<stop offset="1" stop-color="#AEBDDF"/>
</linearGradient>
<linearGradient id="paint22_linear_5_3789" x1="123.759" y1="163.268" x2="123.759" y2="327.261" gradientUnits="userSpaceOnUse">
<stop stop-color="white"/>
<stop offset="1" stop-color="#AEBDDF"/>
</linearGradient>
<linearGradient id="paint23_linear_5_3789" x1="211.406" y1="201.002" x2="211.406" y2="396.444" gradientUnits="userSpaceOnUse">
<stop stop-color="white"/>
<stop offset="1" stop-color="#AEBDDF"/>
</linearGradient>
<linearGradient id="paint24_linear_5_3789" x1="304.035" y1="245.623" x2="304.035" y2="389.858" gradientUnits="userSpaceOnUse">
<stop stop-color="white"/>
<stop offset="1" stop-color="#AEBDDF"/>
</linearGradient>
<linearGradient id="paint25_linear_5_3789" x1="174.886" y1="371.219" x2="174.886" y2="135.853" gradientUnits="userSpaceOnUse">
<stop stop-color="white"/>
<stop offset="1" stop-color="#AEBDDF"/>
</linearGradient>
<linearGradient id="paint26_linear_5_3789" x1="174.881" y1="307.581" x2="174.881" y2="409.562" gradientUnits="userSpaceOnUse">
<stop stop-color="white"/>
<stop offset="1" stop-color="#AEBDDF"/>
</linearGradient>
<linearGradient id="paint27_linear_5_3789" x1="55.2181" y1="305.147" x2="177.218" y2="305.147" gradientUnits="userSpaceOnUse">
<stop stop-color="white"/>
<stop offset="1" stop-color="#AEBDDF"/>
</linearGradient>
<linearGradient id="paint28_linear_5_3789" x1="127.294" y1="398.891" x2="127.145" y2="343.219" gradientUnits="userSpaceOnUse">
<stop stop-color="#FFD2BB"/>
<stop offset="1" stop-color="#FF6B5A"/>
</linearGradient>
<linearGradient id="paint29_linear_5_3789" x1="123.563" y1="367.111" x2="123.563" y2="408.6" gradientUnits="userSpaceOnUse">
<stop stop-color="white"/>
<stop offset="1" stop-color="#AEBDDF"/>
</linearGradient>
<linearGradient id="paint30_linear_5_3789" x1="136.869" y1="392.617" x2="92.4791" y2="413.855" gradientUnits="userSpaceOnUse">
<stop stop-color="#ACBDDE"/>
<stop offset="1" stop-color="#2E405C"/>
</linearGradient>
<linearGradient id="paint31_linear_5_3789" x1="150.804" y1="512.259" x2="148.499" y2="258.233" gradientUnits="userSpaceOnUse">
<stop stop-color="#ACBDDE"/>
<stop offset="1" stop-color="#2E405C"/>
</linearGradient>
<linearGradient id="paint32_linear_5_3789" x1="93.1648" y1="414.376" x2="120.576" y2="348.884" gradientUnits="userSpaceOnUse">
<stop stop-color="#FFD2BB"/>
<stop offset="1" stop-color="#FF6B5A"/>
</linearGradient>
<linearGradient id="paint33_linear_5_3789" x1="153.688" y1="388.813" x2="153.688" y2="273.444" gradientUnits="userSpaceOnUse">
<stop stop-color="#ACBDDE"/>
<stop offset="1" stop-color="#2E405C"/>
</linearGradient>
<linearGradient id="paint34_linear_5_3789" x1="87.4601" y1="385.804" x2="87.4601" y2="431.033" gradientUnits="userSpaceOnUse">
<stop stop-color="white"/>
<stop offset="1" stop-color="#AEBDDF"/>
</linearGradient>
<linearGradient id="paint35_linear_5_3789" x1="111.169" y1="416.487" x2="46.4179" y2="424.064" gradientUnits="userSpaceOnUse">
<stop stop-color="#ACBDDE"/>
<stop offset="1" stop-color="#2E405C"/>
</linearGradient>
<linearGradient id="paint36_linear_5_3789" x1="168.315" y1="279.883" x2="168.315" y2="194.372" gradientUnits="userSpaceOnUse">
<stop stop-color="#FFD2BB"/>
<stop offset="1" stop-color="#FF6B5A"/>
</linearGradient>
<linearGradient id="paint37_linear_5_3789" x1="191.575" y1="180.017" x2="191.575" y2="360.098" gradientUnits="userSpaceOnUse">
<stop stop-color="#FFEFA4"/>
<stop offset="1" stop-color="#FE8F01"/>
</linearGradient>
<linearGradient id="paint38_linear_5_3789" x1="246.514" y1="241.996" x2="139.042" y2="241.996" gradientUnits="userSpaceOnUse">
<stop stop-color="#FFEFA4"/>
<stop offset="1" stop-color="#FE8F01"/>
</linearGradient>
<linearGradient id="paint39_linear_5_3789" x1="193.202" y1="239.223" x2="193.202" y2="191.06" gradientUnits="userSpaceOnUse">
<stop stop-color="#FFD2BB"/>
<stop offset="1" stop-color="#FF6B5A"/>
</linearGradient>
<linearGradient id="paint40_linear_5_3789" x1="153.12" y1="243.419" x2="151.842" y2="300.549" gradientUnits="userSpaceOnUse">
<stop stop-color="white"/>
<stop offset="1" stop-color="#AEBDDF"/>
</linearGradient>
<linearGradient id="paint41_linear_5_3789" x1="184.706" y1="278.013" x2="142.786" y2="278.013" gradientUnits="userSpaceOnUse">
<stop stop-color="white"/>
<stop offset="1" stop-color="#AEBDDF"/>
</linearGradient>
<linearGradient id="paint42_linear_5_3789" x1="176.224" y1="279.191" x2="94.08" y2="279.191" gradientUnits="userSpaceOnUse">
<stop stop-color="#ACBDDE"/>
<stop offset="1" stop-color="#2E405C"/>
</linearGradient>
<linearGradient id="paint43_linear_5_3789" x1="177.15" y1="284.217" x2="99.4549" y2="247.356" gradientUnits="userSpaceOnUse">
<stop stop-color="#ACBDDE"/>
<stop offset="1" stop-color="#2E405C"/>
</linearGradient>
<linearGradient id="paint44_linear_5_3789" x1="136.563" y1="233.839" x2="136.563" y2="327.197" gradientUnits="userSpaceOnUse">
<stop stop-color="#ACBDDE"/>
<stop offset="1" stop-color="#2E405C"/>
</linearGradient>
<linearGradient id="paint45_linear_5_3789" x1="134.172" y1="252.13" x2="134.172" y2="269.101" gradientUnits="userSpaceOnUse">
<stop stop-color="white"/>
<stop offset="1" stop-color="#AEBDDF"/>
</linearGradient>
<linearGradient id="paint46_linear_5_3789" x1="220.201" y1="309.559" x2="220.201" y2="173.245" gradientUnits="userSpaceOnUse">
<stop stop-color="#FFD2BB"/>
<stop offset="1" stop-color="#FF6B5A"/>
</linearGradient>
<linearGradient id="paint47_linear_5_3789" x1="198.533" y1="309.559" x2="198.533" y2="173.245" gradientUnits="userSpaceOnUse">
<stop stop-color="#FFD2BB"/>
<stop offset="1" stop-color="#FF6B5A"/>
</linearGradient>
<linearGradient id="paint48_linear_5_3789" x1="190.517" y1="203.441" x2="190.517" y2="153.56" gradientUnits="userSpaceOnUse">
<stop stop-color="#FFD2BB"/>
<stop offset="1" stop-color="#FF6B5A"/>
</linearGradient>
<linearGradient id="paint49_linear_5_3789" x1="194.481" y1="115.879" x2="194.481" y2="202.646" gradientUnits="userSpaceOnUse">
<stop stop-color="#ACBDDE"/>
<stop offset="1" stop-color="#2E405C"/>
</linearGradient>
<linearGradient id="paint50_linear_5_3789" x1="245.372" y1="162.399" x2="245.372" y2="235.881" gradientUnits="userSpaceOnUse">
<stop stop-color="#ACBDDE"/>
<stop offset="1" stop-color="#2E405C"/>
</linearGradient>
<linearGradient id="paint51_linear_5_3789" x1="277.458" y1="153.952" x2="277.458" y2="271.726" gradientUnits="userSpaceOnUse">
<stop stop-color="#ACBDDE"/>
<stop offset="1" stop-color="#2E405C"/>
</linearGradient>
<linearGradient id="paint52_linear_5_3789" x1="261.861" y1="133.282" x2="236.23" y2="175.334" gradientUnits="userSpaceOnUse">
<stop stop-color="#FFD2BB"/>
<stop offset="1" stop-color="#FF6B5A"/>
</linearGradient>
<linearGradient id="paint53_linear_5_3789" x1="250.223" y1="173.544" x2="279.635" y2="147.221" gradientUnits="userSpaceOnUse">
<stop stop-color="white"/>
<stop offset="1" stop-color="#AEBDDF"/>
</linearGradient>
<linearGradient id="paint54_linear_5_3789" x1="237.082" y1="171.841" x2="255.183" y2="155.64" gradientUnits="userSpaceOnUse">
<stop stop-color="white"/>
<stop offset="1" stop-color="#AEBDDF"/>
</linearGradient>
<linearGradient id="paint55_linear_5_3789" x1="296.215" y1="155.871" x2="296.215" y2="302.978" gradientUnits="userSpaceOnUse">
<stop stop-color="#ACBDDE"/>
<stop offset="1" stop-color="#2E405C"/>
</linearGradient>
<linearGradient id="paint56_linear_5_3789" x1="195.61" y1="234.841" x2="285.6" y2="197.667" gradientUnits="userSpaceOnUse">
<stop stop-color="#FFD2BB"/>
<stop offset="1" stop-color="#FF6B5A"/>
</linearGradient>
<linearGradient id="paint57_linear_5_3789" x1="282.024" y1="155.872" x2="282.024" y2="302.978" gradientUnits="userSpaceOnUse">
<stop stop-color="#ACBDDE"/>
<stop offset="1" stop-color="#2E405C"/>
</linearGradient>
<linearGradient id="paint58_linear_5_3789" x1="252.085" y1="129.522" x2="226.459" y2="171.58" gradientUnits="userSpaceOnUse">
<stop stop-color="#FFD2BB"/>
<stop offset="1" stop-color="#FF6B5A"/>
</linearGradient>
<linearGradient id="paint59_linear_5_3789" x1="244.525" y1="70.513" x2="244.525" y2="163.41" gradientUnits="userSpaceOnUse">
<stop stop-color="#ACBDDE"/>
<stop offset="1" stop-color="#2E405C"/>
</linearGradient>
<linearGradient id="paint60_linear_5_3789" x1="184.387" y1="116.929" x2="86.4703" y2="116.929" gradientUnits="userSpaceOnUse">
<stop stop-color="white"/>
<stop offset="1" stop-color="#AEBDDF"/>
</linearGradient>
<linearGradient id="paint61_linear_5_3789" x1="184.387" y1="126.72" x2="86.4703" y2="126.72" gradientUnits="userSpaceOnUse">
<stop stop-color="white"/>
<stop offset="1" stop-color="#AEBDDF"/>
</linearGradient>
<clipPath id="clip0_5_3789">
<rect width="392" height="490.764" fill="white"/>
</clipPath>
</defs>
</svg>
