<svg width="48" height="48" viewBox="0 0 48 48" fill="none" xmlns="http://www.w3.org/2000/svg">
<path d="M4 24C4 16.6217 4 12.9326 5.62764 10.3175C6.2298 9.35004 6.97782 8.50854 7.83782 7.83108C10.1623 6 13.4415 6 20 6H28C34.5584 6 37.8376 6 40.1622 7.83108C41.0222 8.50854 41.7702 9.35004 42.3724 10.3175C44 12.9326 44 16.6217 44 24C44 31.3782 44 35.0674 42.3724 37.6824C41.7702 38.65 41.0222 39.4914 40.1622 40.169C37.8376 42 34.5584 42 28 42H20C13.4415 42 10.1623 42 7.83782 40.169C6.97782 39.4914 6.2298 38.65 5.62764 37.6824C4 35.0674 4 31.3782 4 24Z" stroke="#323232" stroke-width="3"/>
<path d="M19 6V42" stroke="#323232" stroke-width="3" stroke-linejoin="round"/>
<path d="M10 14H12M10 20H12" stroke="#323232" stroke-width="3" stroke-linecap="round" stroke-linejoin="round"/>
</svg>
