<svg width="48" height="48" viewBox="0 0 48 48" fill="none" xmlns="http://www.w3.org/2000/svg">
<path d="M10.6434 19.3659C15.4708 10.824 17.8844 6.55302 21.1966 5.45362C23.0186 4.84879 24.9814 4.84879 26.8034 5.45362C30.1156 6.55302 32.5292 10.824 37.3566 19.3659C42.184 27.9077 44.5976 32.1787 43.8736 35.6587C43.4752 37.5733 42.4938 39.3097 41.07 40.6195C38.482 43.0001 33.6548 43.0001 24 43.0001C14.3453 43.0001 9.51795 43.0001 6.92993 40.6195C5.50617 39.3097 4.52479 37.5733 4.12645 35.6587C3.40239 32.1787 5.81607 27.9077 10.6434 19.3659Z" stroke="#E50000" stroke-width="3"/>
<path d="M23.9839 32H24.0019" stroke="#E50000" stroke-width="4" stroke-linecap="round" stroke-linejoin="round"/>
<path d="M24 26.0001V18" stroke="#E50000" stroke-width="3" stroke-linecap="round" stroke-linejoin="round"/>
</svg>
